<svg width="86" height="86" viewBox="0 0 86 86" fill="none" xmlns="http://www.w3.org/2000/svg">
<g opacity="0.25">
<path fill-rule="evenodd" clip-rule="evenodd" d="M26.5489 82.7164C4.61409 73.6307 -5.80212 48.4838 3.2836 26.5489C12.3693 4.61409 37.5162 -5.80212 59.4511 3.2836C81.3859 12.3693 91.8021 37.5162 82.7164 59.4511C73.6307 81.3859 48.4838 91.8021 26.5489 82.7164Z" fill="#FCBB1B"/>
</g>
<path d="M59.4802 24H51.6402C49.7735 24 48.2802 25.3067 47.9069 26.9867L43.9786 45.7739M32.7869 46.5867L33.3469 46.2133C36.8935 43.9733 41.5602 44.16 45.1069 46.4C47.9069 48.08 51.2669 48.64 54.2535 47.52C54.4402 47.3333 54.8135 47.3333 55.0002 47.1467M53.6371 32.0268C58.2831 32.0268 62 35.7601 62 40.4267C62 42.48 61.4424 44.16 60.3275 45.6533C61.2567 46.96 62 48.4533 62 50.32C62 54.24 58.8407 57.4133 54.938 57.4133H50.8495L52.7079 63.0133V63.2H46.9468L45.0886 60.4C43.9734 61.3333 42.4868 61.8933 41 61.8933C38.2123 61.8933 35.7965 60.0267 34.6814 57.6H27.062C23.1593 57.6 20 54.4267 20 50.5067C20 46.5867 23.1593 43.4133 27.062 43.4133H27.2478C27.0619 42.8533 27.062 42.48 27.062 41.92C27.062 37.2534 30.7788 33.5201 35.4248 33.5201C36.354 33.5201 37.2831 33.7068 38.2123 34.0801V33.5201C38.2123 30.9709 39.5485 28.7374 41.5563 27.4871" stroke="#FCBB1B" stroke-width="3" stroke-linecap="round" stroke-linejoin="round"/>
</svg>
