<svg width="86" height="86" viewBox="0 0 86 86" fill="none" xmlns="http://www.w3.org/2000/svg">
<g opacity="0.25">
<path fill-rule="evenodd" clip-rule="evenodd" d="M26.5489 82.7164C4.61409 73.6307 -5.80212 48.4838 3.2836 26.5489C12.3693 4.61409 37.5162 -5.80212 59.4511 3.2836C81.3859 12.3693 91.8021 37.5162 82.7164 59.4511C73.6307 81.3859 48.4838 91.8021 26.5489 82.7164Z" fill="#FCBB1B"/>
</g>
<path d="M49.143 28.066C49.1438 31.4159 46.4284 34.132 43.0785 34.132C39.7286 34.132 37.0132 31.4159 37.0141 28.066C37.0132 24.7161 39.7286 22 43.0785 22C46.4284 22 49.1438 24.7161 49.143 28.066ZM49.143 28.066C45.4835 28.066 40.8909 27.5839 38.8201 23.7491M52.5139 43.4636C51.086 39.5408 47.3572 36.9299 43.1826 36.9299C39.008 36.9299 35.2792 39.5408 33.8513 43.4636M27.6043 64.0016L23.8462 59.303C22.652 57.8151 22.0008 55.9646 22 54.0567V44.4058C22 42.8598 23.2533 41.6064 24.7994 41.6064C26.345 41.6074 27.5978 42.8602 27.5988 44.4058V51.4016M36.0024 63.7477V58.1581C36.0022 56.4986 35.5103 54.8764 34.589 53.4961L32.458 50.3004C32.0898 49.6881 31.4872 49.2531 30.7901 49.0965C30.093 48.9399 29.3622 49.0754 28.7675 49.4714C27.671 50.2019 27.2904 51.6348 27.88 52.8131L30.4037 57.0131M58.3957 64.0016L62.1538 59.303C63.348 57.8151 63.9992 55.9646 64 54.0567V44.4058C64 42.8598 62.7467 41.6064 61.2006 41.6064C59.655 41.6074 58.4022 42.8602 58.4012 44.4058V51.4016M49.9976 63.7477V58.1581C49.9978 56.4986 50.4897 54.8764 51.411 53.4961L53.542 50.3004C53.9102 49.6881 54.5128 49.2531 55.2099 49.0965C55.907 48.9399 56.6378 49.0754 57.2325 49.4714C58.329 50.2019 58.7096 51.6348 58.12 52.8131L55.5963 57.0131" stroke="#FCBB1B" stroke-width="3" stroke-linecap="round" stroke-linejoin="round"/>
</svg>
