<svg width="86" height="86" viewBox="0 0 86 86" fill="none" xmlns="http://www.w3.org/2000/svg">
<g opacity="0.25">
<path fill-rule="evenodd" clip-rule="evenodd" d="M26.5489 82.7164C4.61409 73.6307 -5.80212 48.4838 3.2836 26.5489C12.3693 4.61409 37.5162 -5.80212 59.4511 3.2836C81.3859 12.3693 91.8021 37.5162 82.7164 59.4511C73.6307 81.3859 48.4838 91.8021 26.5489 82.7164Z" fill="#FCBB1B"/>
</g>
<path d="M21 56.8913H63M28.3043 56.8913V48.6739C28.3043 48.1697 27.8956 47.7609 27.3913 47.7609H23.7391C23.2349 47.7609 22.8261 48.1697 22.8261 48.6739V56.8913M39.2609 56.8913V39.5435C39.2609 39.0392 38.8521 38.6304 38.3478 38.6304H34.6957C34.1914 38.6304 33.7826 39.0392 33.7826 39.5435V56.8913M50.2174 56.8913V43.1957C50.2174 42.6914 49.8086 42.2826 49.3043 42.2826H45.6522C45.1479 42.2826 44.7391 42.6914 44.7391 43.1957V56.8913M61.1739 56.8913V30.413C61.1739 29.9088 60.7651 29.5 60.2609 29.5H56.6087C56.1044 29.5 55.6957 29.9088 55.6957 30.413V56.8913" stroke="#FCBB1B" stroke-width="3" stroke-linecap="round" stroke-linejoin="round"/>
</svg>
