<svg width="46" height="45" viewBox="0 0 46 45" fill="none" xmlns="http://www.w3.org/2000/svg">
<path d="M2.04688 1.29688V42.7812C2.04688 43.2904 2.45961 43.7031 2.96875 43.7031H44.4531M2.04688 30.7969H35.2344C36.2526 30.7969 37.0781 31.6224 37.0781 32.6406V36.3281C37.0781 37.3464 36.2526 38.1719 35.2344 38.1719H2.04688M2.04688 17.8906H24.1719C25.1902 17.8906 26.0156 18.7161 26.0156 19.7344V23.4219C26.0156 24.4402 25.1902 25.2656 24.1719 25.2656H2.04688M2.04688 4.98437H24.1719C25.1902 4.98437 26.0156 5.80985 26.0156 6.82812V10.5156C26.0156 11.5339 25.1902 12.3594 24.1719 12.3594H2.04688" stroke="white" stroke-width="2.45833" stroke-linecap="round" stroke-linejoin="round"/>
</svg>
