<svg width="55" height="54" viewBox="0 0 55 54" fill="none" xmlns="http://www.w3.org/2000/svg">
<path d="M25.7957 12.7942C25.7966 16.8746 22.4891 20.1829 18.4087 20.1829C14.3283 20.1829 11.0208 16.8746 11.0217 12.7942C11.0208 8.71381 14.3283 5.4055 18.4087 5.4055C22.4891 5.4055 25.7966 8.71381 25.7957 12.7942ZM25.7957 12.7942C21.0376 12.9009 16.4436 11.0529 13.0848 7.68114M28.5217 29.2703C26.271 25.8096 22.4228 23.722 18.2946 23.722C14.1664 23.722 10.3182 25.8096 8.06739 29.2703M2.5 7.68114V1.99854H8.18261M34.3174 7.68114V1.99854H28.637M2.5 30.4072V36.0898H8.18261M37.7283 42.9072L40 45.1811L45.6826 36.0898M29.7739 40.6355C29.7725 46.9121 34.8603 52.0011 41.137 52.0011C47.4136 52.0011 52.5014 46.9121 52.5 40.6355C52.5014 34.3589 47.4136 29.2699 41.137 29.2699C34.8603 29.2699 29.7725 34.3589 29.7739 40.6355Z" stroke="#16A458" stroke-width="3.5" stroke-linecap="round" stroke-linejoin="round"/>
</svg>
