<svg width="54" height="54" viewBox="0 0 54 54" fill="none" xmlns="http://www.w3.org/2000/svg">
<path d="M23.9061 36.7811H4.34091C3.14029 36.7811 2.16699 35.8078 2.16699 34.6072V4.17245C2.16699 2.97183 3.14029 1.99854 4.34091 1.99854H41.2974C42.498 1.99854 43.4713 2.97183 43.4713 4.17245V19.3898M10.6018 24.2377L17.5366 17.3681C17.9456 16.9498 18.5059 16.714 19.0909 16.714C19.6759 16.714 20.2363 16.9498 20.6453 17.3681L22.8192 19.542C23.2416 19.9733 23.8243 20.2096 24.4279 20.1942C25.0328 20.1696 25.6001 19.8938 25.9931 19.4333L34.7757 9.60723M34.7757 9.60723H28.2539M34.7757 9.60723V16.129M34.7757 39.4985C35.0758 39.4985 35.3192 39.7419 35.3192 40.042C35.3192 40.3422 35.0758 40.5855 34.7757 40.5855C34.4755 40.5855 34.2322 40.3422 34.2322 40.042C34.2322 39.7419 34.4755 39.4985 34.7757 39.4985ZM34.7757 44.9551C35.0758 44.9551 35.3192 45.1984 35.3192 45.4985C35.3192 45.7987 35.0758 46.042 34.7757 46.042C34.4755 46.042 34.2322 45.7987 34.2322 45.4985C34.2322 45.1984 34.4755 44.9551 34.7757 44.9551ZM40.2105 39.4768C40.5106 39.4768 40.7539 39.7201 40.7539 40.0203C40.7539 40.3204 40.5106 40.5638 40.2105 40.5638C39.9103 40.5638 39.667 40.3204 39.667 40.0203C39.667 39.7201 39.9103 39.4768 40.2105 39.4768ZM45.6453 39.4768C45.9454 39.4768 46.1887 39.7201 46.1887 40.0203C46.1887 40.3204 45.9454 40.5638 45.6453 40.5638C45.3451 40.5638 45.1018 40.3204 45.1018 40.0203C45.1018 39.7201 45.3451 39.4768 45.6453 39.4768ZM40.2105 44.9333C40.5106 44.9333 40.7539 45.1766 40.7539 45.4768C40.7539 45.777 40.5106 46.0203 40.2105 46.0203C39.9103 46.0203 39.667 45.777 39.667 45.4768C39.667 45.1766 39.9103 44.9333 40.2105 44.9333ZM45.6453 44.9333C45.9454 44.9333 46.1887 45.1766 46.1887 45.4768C46.1887 45.777 45.9454 46.0203 45.6453 46.0203C45.3451 46.0203 45.1018 45.777 45.1018 45.4768C45.1018 45.1766 45.3451 44.9333 45.6453 44.9333ZM47.8192 33.5203C47.8386 33.8141 47.7303 34.102 47.5221 34.3102C47.3139 34.5184 47.026 34.6267 46.7322 34.6072H33.6887C33.3888 34.6208 33.0975 34.5045 32.8894 34.2881C32.6812 34.0716 32.5764 33.776 32.6018 33.4768L32.6018 29.1724C32.5823 28.8786 32.6906 28.5907 32.8988 28.3825C33.107 28.1743 33.3949 28.0661 33.6887 28.0855H46.7322C47.026 28.0661 47.3139 28.1743 47.5221 28.3825C47.7303 28.5907 47.8386 28.8786 47.8192 29.1724V33.5203ZM30.4279 23.7377H49.9931C49.9931 23.7377 52.167 23.7377 52.167 25.9116V49.8246C52.167 49.8246 52.167 51.9985 49.9931 51.9985H30.4279C30.4279 51.9985 28.2539 51.9985 28.2539 49.8246V25.9116C28.2539 25.9116 28.2539 23.7377 30.4279 23.7377Z" stroke="#FCBB1B" stroke-width="3" stroke-linecap="round" stroke-linejoin="round"/>
</svg>
