<svg width="517" height="350" viewBox="0 0 517 350" fill="none" xmlns="http://www.w3.org/2000/svg">
<path fill-rule="evenodd" clip-rule="evenodd" d="M235.2 246.885C130.34 249.736 48.8203 271.339 48.8203 297.566C48.8203 325.733 142.841 348.567 258.82 348.567C374.8 348.567 468.82 325.733 468.82 297.566C468.82 271.319 387.175 249.703 282.198 246.879C283.136 249.611 284.123 252.361 285.182 255.087C362.114 258.157 420.82 274.44 420.82 294.066C420.82 315.882 348.29 333.566 258.82 333.566C169.35 333.566 96.8203 315.882 96.8203 294.066C96.8203 274.457 155.422 258.186 232.254 255.095C233.298 252.369 234.273 249.619 235.2 246.885Z" fill="#4F8DC8"/>
<path fill-rule="evenodd" clip-rule="evenodd" d="M232.254 255.094C155.422 258.185 96.8203 274.456 96.8203 294.066C96.8203 315.881 169.35 333.566 258.82 333.566C348.29 333.566 420.82 315.881 420.82 294.066C420.82 274.439 362.114 258.156 285.182 255.086C286.416 258.263 287.747 261.409 289.211 264.459C344.117 267.75 384.82 279.757 384.82 294.066C384.82 310.91 328.408 324.566 258.82 324.566C189.232 324.566 132.82 310.91 132.82 294.066C132.82 279.77 173.449 267.772 228.28 264.468C229.723 261.419 231.036 258.273 232.254 255.094Z" fill="#3D75AB"/>
<path fill-rule="evenodd" clip-rule="evenodd" d="M228.281 264.47C173.449 267.774 132.82 279.772 132.82 294.068C132.82 310.913 189.232 324.568 258.82 324.568C328.408 324.568 384.82 310.913 384.82 294.068C384.82 279.76 344.117 267.753 289.211 264.461C290.362 266.859 291.595 269.198 292.927 271.446C332.488 274.748 360.82 283.631 360.82 294.072C360.82 307.327 315.153 318.072 258.819 318.072C202.487 318.072 156.819 307.327 156.819 294.072C156.819 283.64 185.107 274.762 224.619 271.454C225.931 269.207 227.146 266.868 228.281 264.47Z" fill="#2E5F8E"/>
<path fill-rule="evenodd" clip-rule="evenodd" d="M238.401 237.092C243.964 219.73 248.61 205.23 258.642 205.23C268.664 205.23 273.311 219.599 278.894 236.867C282.568 248.226 286.646 260.84 292.928 271.443C332.489 274.745 360.821 283.628 360.821 294.068C360.821 307.323 315.154 318.068 258.82 318.068C202.488 318.068 156.82 307.323 156.82 294.068C156.82 283.636 185.108 274.759 224.62 271.451C230.765 260.927 234.777 248.402 238.401 237.092Z" fill="#214970"/>
<path fill-rule="evenodd" clip-rule="evenodd" d="M240.82 162.499C240.819 172.442 248.878 180.503 258.82 180.503C268.763 180.503 276.822 172.442 276.821 162.499C276.822 152.557 268.763 144.496 258.82 144.496C248.878 144.496 240.819 152.557 240.82 162.499Z" fill="#214970"/>
<path fill-rule="evenodd" clip-rule="evenodd" d="M24.8203 20.92L17.7603 17.42C17.4835 17.2809 17.1572 17.2809 16.8803 17.42L9.88031 20.92C9.53692 21.0883 9.31955 21.4376 9.32031 21.82V39.32C9.32031 39.8723 9.76803 40.32 10.3203 40.32H13.9803C14.5326 40.32 14.9803 39.8723 14.9803 39.32V36.82C14.9803 36.2677 15.428 35.82 15.9803 35.82H18.6603C19.2126 35.82 19.6603 36.2677 19.6603 36.82V39.32C19.6603 39.8723 20.108 40.32 20.6603 40.32H24.3203C24.8726 40.32 25.3203 39.8723 25.3203 39.32V21.82C25.3327 21.4507 25.1405 21.1046 24.8203 20.92ZM20.8203 30.92H13.8203C13.268 30.92 12.8203 30.4723 12.8203 29.92C12.8203 29.3677 13.268 28.92 13.8203 28.92H20.8203C21.3726 28.92 21.8203 29.3677 21.8203 29.92C21.8203 30.4723 21.3726 30.92 20.8203 30.92ZM20.8203 25.08H13.8203C13.268 25.08 12.8203 24.6323 12.8203 24.08C12.8203 23.5277 13.268 23.08 13.8203 23.08H20.8203C21.3726 23.08 21.8203 23.5277 21.8203 24.08C21.8369 24.3554 21.7389 24.6255 21.5495 24.8262C21.3601 25.0269 21.0963 25.1405 20.8203 25.14V25.08ZM37.6203 9.46L31.8603 14.74C31.6753 14.9344 31.4187 15.0445 31.1503 15.0445C30.8819 15.0445 30.6253 14.9344 30.4403 14.74L29.2003 13.34C28.7086 12.462 27.7384 11.9644 26.7384 12.0774C25.7384 12.1904 24.9037 12.8919 24.6203 13.8575C24.3369 14.8231 24.66 15.8645 25.4403 16.5L28.2203 19.7C28.8782 20.4528 29.8128 20.9073 30.8111 20.9601C31.8095 21.0128 32.7868 20.6593 33.5203 19.98L41.0203 13.14C42.0363 12.2011 42.0988 10.6164 41.16 9.60027C40.2212 8.58417 38.6366 8.52138 37.6203 9.46ZM43.8203 0.5H5.82031C3.05889 0.5 0.820312 2.73858 0.820312 5.5V43.5C0.820312 46.2614 3.05889 48.5 5.82031 48.5H34.8203C35.3498 48.4926 35.857 48.2855 36.2403 47.92L48.2403 35.92C48.5993 35.5326 48.8054 35.028 48.8203 34.5V5.5C48.8203 2.73858 46.5817 0.5 43.8203 0.5ZM44.8203 31.5C44.8203 32.0523 44.3726 32.5 43.8203 32.5H36.8203C34.6112 32.5 32.8203 34.2909 32.8203 36.5V43.5C32.8203 44.0523 32.3726 44.5 31.8203 44.5H5.82031C5.26803 44.5 4.82031 44.0523 4.82031 43.5V5.5C4.82031 4.94772 5.26803 4.5 5.82031 4.5H43.8203C44.3726 4.5 44.8203 4.94772 44.8203 5.5V31.5Z" fill="#2E5F8E"/>
<path fill-rule="evenodd" clip-rule="evenodd" d="M486.82 35C486.82 31.8216 487.737 28.7105 489.46 26.04C489.651 25.7268 489.651 25.3332 489.46 25.02C489.295 24.7079 488.974 24.5092 488.62 24.5H473.82C471.059 24.5 468.82 26.7386 468.82 29.5C468.82 32.2614 471.059 34.5 473.82 34.5H484.82C485.096 34.5 485.32 34.7239 485.32 35V40C485.32 40.2761 485.096 40.5 484.82 40.5H478.82C477.992 40.5 477.32 41.1716 477.32 42C477.32 42.8284 477.992 43.5 478.82 43.5H487.52C487.866 43.5025 488.19 43.3293 488.38 43.04C488.54 42.7329 488.54 42.3671 488.38 42.06C487.328 39.8565 486.795 37.4415 486.82 35ZM474.82 29.5C474.82 28.1193 475.94 27 477.32 27C478.701 27 479.82 28.1193 479.82 29.5C479.82 30.8807 478.701 32 477.32 32C475.94 32 474.82 30.8807 474.82 29.5ZM484.82 32C483.44 32 482.32 30.8807 482.32 29.5C482.32 28.1193 483.44 27 484.82 27C486.201 27 487.32 28.1193 487.32 29.5C487.32 30.8807 486.201 32 484.82 32ZM470.82 40.5C469.992 40.5 469.32 41.1716 469.32 42C469.32 42.8284 469.992 43.5 470.82 43.5H472.82C473.649 43.5 474.32 42.8284 474.32 42C474.32 41.1716 473.649 40.5 472.82 40.5H470.82ZM473.82 10.5H499.82C502.582 10.5 504.82 8.26142 504.82 5.5C504.82 2.73858 502.582 0.5 499.82 0.5H473.82C471.059 0.5 468.82 2.73858 468.82 5.5C468.82 8.26142 471.059 10.5 473.82 10.5ZM474.82 5.5C474.82 4.11929 475.94 3 477.32 3C478.701 3 479.82 4.11929 479.82 5.5C479.82 6.88071 478.701 8 477.32 8C475.94 8 474.82 6.88071 474.82 5.5ZM482.32 5.5C482.32 4.11929 483.44 3 484.82 3C486.201 3 487.32 4.11929 487.32 5.5C487.32 6.88071 486.201 8 484.82 8C483.44 8 482.32 6.88071 482.32 5.5ZM503.78 18.5C504.056 18.5201 504.327 18.4177 504.52 18.22C504.707 18.0341 504.814 17.7833 504.82 17.52C504.826 16.1905 504.301 14.9135 503.363 13.9715C502.425 13.0295 501.15 12.5 499.82 12.5H473.82C471.059 12.5 468.82 14.7386 468.82 17.5C468.82 20.2614 471.059 22.5 473.82 22.5H492.22C492.452 22.4971 492.676 22.42 492.86 22.28C495.925 19.7433 499.803 18.4007 503.78 18.5ZM487.32 17.5C487.32 18.8807 486.201 20 484.82 20C483.44 20 482.32 18.8807 482.32 17.5C482.32 16.1193 483.44 15 484.82 15C486.201 15 487.32 16.1193 487.32 17.5ZM479.82 17.5C479.82 18.8807 478.701 20 477.32 20C475.94 20 474.82 18.8807 474.82 17.5C474.82 16.1193 475.94 15 477.32 15C478.701 15 479.82 16.1193 479.82 17.5ZM489.82 35C489.82 42.4558 495.864 48.5 503.32 48.5C510.776 48.5 516.82 42.4558 516.82 35C516.82 27.5442 510.776 21.5 503.32 21.5C495.869 21.511 489.831 27.5487 489.82 35ZM503.32 44.5C498.074 44.5 493.82 40.2467 493.82 35C493.82 29.7533 498.074 25.5 503.32 25.5C508.567 25.5 512.82 29.7533 512.82 35C512.82 40.2467 508.567 44.5 503.32 44.5ZM507.32 33H505.82C505.544 33 505.32 32.7761 505.32 32.5V30C505.32 28.8954 504.425 28 503.32 28C502.216 28 501.32 28.8954 501.32 30V35C501.32 36.1046 502.216 37 503.32 37H507.32C508.425 37 509.32 36.1046 509.32 35C509.32 33.8954 508.425 33 507.32 33Z" fill="#3D75AB"/>
<path fill-rule="evenodd" clip-rule="evenodd" d="M26.0603 161.321C26.0603 160.503 25.3977 159.841 24.5803 159.841H12.7003C11.8829 159.841 11.2203 160.503 11.2203 161.321C11.2203 162.138 11.8829 162.801 12.7003 162.801H24.5803C25.3977 162.801 26.0603 162.138 26.0603 161.321ZM20.0003 182.501C19.9536 182.272 19.7542 182.106 19.5203 182.101H7.74031C7.22264 182.069 6.81934 181.64 6.82031 181.121V155.381C6.86875 154.901 7.25892 154.528 7.74031 154.501H29.5203C30.0649 154.501 30.5094 154.936 30.5203 155.481V163.481C30.5171 163.628 30.5811 163.768 30.6942 163.861C30.8072 163.955 30.9568 163.991 31.1003 163.961C32.7131 163.665 34.343 163.471 35.9803 163.381C36.1059 163.381 36.226 163.33 36.3129 163.239C36.3997 163.149 36.4458 163.026 36.4403 162.901V151.421C36.4184 149.802 35.0996 148.501 33.4803 148.501H25.4803C25.3145 148.495 25.1632 148.405 25.0803 148.261C23.7152 145.959 21.2369 144.547 18.5603 144.547C15.8837 144.547 13.4055 145.959 12.0403 148.261C11.9653 148.385 11.8421 148.472 11.7003 148.501H3.70031C2.11228 148.544 0.841203 149.832 0.820312 151.421V185.081C0.820312 186.716 2.14555 188.041 3.78031 188.041H21.4803C21.6589 188.047 21.8262 187.954 21.9145 187.798C22.0027 187.643 21.9972 187.451 21.9003 187.301C21.0021 185.819 20.3598 184.196 20.0003 182.501ZM22.8203 169.541C23.4247 168.815 24.0942 168.145 24.8203 167.541C24.9803 167.381 24.8203 166.841 24.6003 166.841H12.7003C11.8797 166.852 11.2202 167.52 11.2203 168.341C11.2203 169.158 11.8829 169.821 12.7003 169.821H22.5003C22.642 169.777 22.7584 169.676 22.8203 169.541ZM12.7003 173.701C11.8829 173.701 11.2203 174.363 11.2203 175.181C11.2203 175.998 11.8829 176.661 12.7003 176.661H19.4403C19.6727 176.663 19.87 176.491 19.9003 176.261C20.0403 175.581 20.2003 174.921 20.4003 174.261C20.4003 174.061 20.5203 173.681 20.1603 173.681L12.7003 173.701ZM35.4603 165.781C28.0818 165.781 22.1003 171.762 22.1003 179.141C22.1003 186.519 28.0818 192.501 35.4603 192.501C42.8388 192.501 48.8203 186.519 48.8203 179.141C48.8093 171.767 42.8343 165.792 35.4603 165.781ZM35.4603 188.541C30.2688 188.541 26.0603 184.332 26.0603 179.141C26.0603 173.949 30.2688 169.741 35.4603 169.741C40.6518 169.741 44.8603 173.949 44.8603 179.141C44.8274 184.312 40.6317 188.49 35.4603 188.501V188.541ZM39.4203 177.161H37.9403C37.6642 177.161 37.4403 176.937 37.4403 176.661V174.201C37.4403 173.096 36.5449 172.201 35.4403 172.201C34.3357 172.201 33.4403 173.096 33.4403 174.201V179.141C33.4403 180.245 34.3357 181.141 35.4403 181.141H39.4403C40.5449 181.141 41.4403 180.245 41.4403 179.141C41.4403 178.036 40.5449 177.141 39.4403 177.141L39.4203 177.161Z" fill="#4F8DC8"/>
<path fill-rule="evenodd" clip-rule="evenodd" d="M235.201 246.885C130.34 249.736 48.8203 271.339 48.8203 297.566C48.8203 325.733 142.841 348.566 258.82 348.566C374.8 348.566 468.82 325.733 468.82 297.566C468.82 271.319 387.176 249.703 282.198 246.879C283.136 249.611 284.123 252.361 285.182 255.087C362.114 258.157 420.82 274.44 420.82 294.066C420.82 315.882 348.29 333.566 258.82 333.566C169.35 333.566 96.8203 315.882 96.8203 294.066C96.8203 274.457 155.422 258.186 232.254 255.095C233.299 252.369 234.274 249.619 235.201 246.885Z" stroke="white" stroke-width="2" stroke-linecap="round" stroke-linejoin="round"/>
<path fill-rule="evenodd" clip-rule="evenodd" d="M232.254 255.094C155.422 258.185 96.8203 274.456 96.8203 294.066C96.8203 315.881 169.35 333.566 258.82 333.566C348.29 333.566 420.82 315.881 420.82 294.066C420.82 274.439 362.114 258.156 285.182 255.086C286.416 258.263 287.748 261.409 289.211 264.459C344.118 267.75 384.82 279.757 384.82 294.066C384.82 310.91 328.408 324.566 258.82 324.566C189.232 324.566 132.82 310.91 132.82 294.066C132.82 279.77 173.449 267.772 228.281 264.468C229.723 261.419 231.036 258.273 232.254 255.094Z" stroke="white" stroke-width="2" stroke-linecap="round" stroke-linejoin="round"/>
<path fill-rule="evenodd" clip-rule="evenodd" d="M228.281 264.47C173.449 267.774 132.82 279.772 132.82 294.068C132.82 310.913 189.232 324.568 258.82 324.568C328.408 324.568 384.82 310.913 384.82 294.068C384.82 279.76 344.118 267.752 289.211 264.461C290.362 266.859 291.595 269.198 292.928 271.446C332.488 274.748 360.82 283.631 360.82 294.072C360.82 307.327 315.153 318.072 258.82 318.072C202.487 318.072 156.819 307.327 156.819 294.072C156.819 283.64 185.107 274.762 224.619 271.454C225.931 269.207 227.146 266.868 228.281 264.47Z" stroke="white" stroke-width="2" stroke-linecap="round" stroke-linejoin="round"/>
<path d="M292.929 271.443C286.647 260.84 282.568 248.226 278.895 236.867C273.311 219.599 268.665 205.23 258.643 205.23C248.61 205.23 243.964 219.73 238.401 237.092C234.777 248.402 230.765 260.927 224.62 271.451M292.929 271.443C332.489 274.745 360.821 283.628 360.821 294.068C360.821 307.323 315.154 318.068 258.821 318.068C202.488 318.068 156.82 307.323 156.82 294.068C156.82 283.636 185.108 274.759 224.62 271.451M292.929 271.443C299.266 282.036 308.004 290.866 320.613 294.069M224.62 271.451C218.318 282.16 209.649 290.991 197.03 294.069" stroke="white" stroke-width="2" stroke-linecap="round" stroke-linejoin="round"/>
<path fill-rule="evenodd" clip-rule="evenodd" d="M240.82 162.499C240.819 172.442 248.878 180.503 258.82 180.503C268.763 180.503 276.822 172.442 276.821 162.499C276.822 152.557 268.763 144.496 258.82 144.496C248.878 144.496 240.819 152.557 240.82 162.499Z" stroke="white" stroke-width="2" stroke-linecap="round" stroke-linejoin="round"/>
<path d="M60.8203 168.5H72.8203C86.0751 168.5 96.8203 179.309 96.8203 192.643V265.5" stroke="#212121" stroke-width="2" stroke-linecap="round" stroke-linejoin="round"/>
<path fill-rule="evenodd" clip-rule="evenodd" d="M93.8203 265.5C93.8203 267.157 95.1635 268.5 96.8203 268.5C98.4772 268.5 99.8203 267.157 99.8203 265.5C99.8203 263.843 98.4772 262.5 96.8203 262.5C95.1635 262.5 93.8203 263.843 93.8203 265.5Z" fill="#212121" stroke="#212121" stroke-width="2" stroke-linecap="round" stroke-linejoin="round"/>
<path d="M456.82 24.5H409.123C389.074 24.5 372.82 40.6178 372.82 60.5V265.5" stroke="#212121" stroke-width="2" stroke-linecap="round" stroke-linejoin="round"/>
<path fill-rule="evenodd" clip-rule="evenodd" d="M369.82 265.5C369.82 267.157 371.163 268.5 372.82 268.5C374.477 268.5 375.82 267.157 375.82 265.5C375.82 263.843 374.477 262.5 372.82 262.5C371.163 262.5 369.82 263.843 369.82 265.5Z" fill="#212121" stroke="#212121" stroke-width="2" stroke-linecap="round" stroke-linejoin="round"/>
<path d="M61.8203 24.5H108.82C128.703 24.5 144.82 40.6177 144.82 60.5V280.5" stroke="#212121" stroke-width="2" stroke-linecap="round" stroke-linejoin="round"/>
<path fill-rule="evenodd" clip-rule="evenodd" d="M141.82 280.5C141.82 282.157 143.163 283.5 144.82 283.5C146.477 283.5 147.82 282.157 147.82 280.5C147.82 278.843 146.477 277.5 144.82 277.5C143.163 277.5 141.82 278.843 141.82 280.5Z" fill="#212121" stroke="#212121" stroke-width="2" stroke-linecap="round" stroke-linejoin="round"/>
</svg>
