<svg width="24" height="75" viewBox="0 0 24 75" fill="none" xmlns="http://www.w3.org/2000/svg">
<path d="M20.4852 62.3936C21.071 61.8078 22.0205 61.8078 22.6063 62.3936C23.1921 62.9793 23.1921 63.9289 22.6063 64.5146L13.0604 74.0605C12.4747 74.6463 11.5251 74.6463 10.9393 74.0605L1.39344 64.5146C0.807658 63.9289 0.807658 62.9793 1.39344 62.3936C1.97923 61.8078 2.92875 61.8078 3.51454 62.3936L11.163 70.042L12.8368 70.042L20.4852 62.3936ZM13.4999 58.208L13.4999 64.125L10.4999 64.125L10.4999 58.208L13.4999 58.208ZM13.4999 46.375L13.4999 52.292L10.4999 52.292L10.4999 46.375L13.4999 46.375ZM13.4999 34.542L13.4999 40.458L10.4999 40.458L10.4999 34.542L13.4999 34.542ZM13.4999 22.708L13.4999 28.625L10.4999 28.625L10.4999 22.708L13.4999 22.708ZM13.4999 10.875L13.4999 16.792L10.4999 16.792L10.4999 10.875L13.4999 10.875ZM10.4999 2C10.4999 1.17157 11.1715 0.5 11.9999 0.5C12.8283 0.499999 13.4999 1.17157 13.4999 2L13.4999 4.95801L10.4999 4.95801L10.4999 2Z" fill="white"/>
</svg>
