<svg width="20" height="20" viewBox="0 0 20 20" fill="none" xmlns="http://www.w3.org/2000/svg">
<path d="M10.4092 3.89654C10.5647 3.89624 10.7145 3.95557 10.8276 4.06233L16.3539 9.58865C16.5848 9.81982 16.5848 10.1943 16.3539 10.4255L10.8276 15.9518C10.5964 16.1827 10.222 16.1827 9.99078 15.9518C9.87793 15.8418 9.81428 15.691 9.81428 15.5334C9.81428 15.3758 9.87793 15.2249 9.99078 15.115L15.0908 9.99917L9.99867 4.90707C9.88582 4.79711 9.82217 4.64622 9.82217 4.48865C9.82217 4.33108 9.88582 4.18019 9.99867 4.07023C10.1056 3.95807 10.2542 3.8952 10.4092 3.89654Z" fill="#003B6D"/>
<path d="M4.06213 9.40687L15.9042 9.40687C16.2312 9.40687 16.4963 9.67196 16.4963 9.99897C16.4963 10.326 16.2312 10.5911 15.9042 10.5911L4.06213 10.5911C3.73512 10.5911 3.47002 10.326 3.47002 9.99897C3.47002 9.67196 3.73512 9.40687 4.06213 9.40687Z" fill="#003B6D"/>
<path d="M10.4094 3.30423C10.7219 3.30411 11.0222 3.4259 11.2463 3.64371L16.7726 9.17003C17.2343 9.63237 17.2343 10.3814 16.7726 10.8437L11.2463 16.37C10.9459 16.669 10.5088 16.785 10.0997 16.6744C9.69058 16.5637 9.37157 16.2432 9.26285 15.8336C9.15412 15.4239 9.27218 14.9874 9.57257 14.6884L14.2541 9.99897L9.57257 5.32529C9.23433 4.98662 9.13322 4.47764 9.31633 4.03541C9.49944 3.59318 9.93077 3.30466 10.4094 3.30423Z" fill="#003B6D"/>
<path d="M4.06206 8.81476L15.9042 8.81476C16.5582 8.81476 17.0884 9.34495 17.0884 9.99897C17.0884 10.653 16.5582 11.1832 15.9042 11.1832L4.06206 11.1832C3.40804 11.1832 2.87785 10.653 2.87785 9.99897C2.87785 9.34495 3.40804 8.81476 4.06206 8.81476Z" fill="#003B6D"/>
</svg>
