<?xml version="1.0" encoding="UTF-8"?>
<svg id="Layer_1" xmlns="http://www.w3.org/2000/svg" version="1.1" viewBox="0 0 18 16">
  <!-- Generator: Adobe Illustrator 29.2.1, SVG Export Plug-In . SVG Version: 2.1.0 Build 116)  -->
  <defs>
    <style>
      .st0 {
        fill: #fff;
      }
    </style>
  </defs>
  <path class="st0" d="M16.9,7.3s0,0,0,0c0,0,0-.1-.1-.2L10.4.7c-.3-.3-.6-.4-1-.4-.5,0-1,.3-1.3.8-.2.5,0,1.1.3,1.5l4,4H2.1c-.8,0-1.4.6-1.4,1.4s.6,1.4,1.4,1.4h10.3l-4,4c-.3.3-.5.8-.4,1.3s.5.8,1,1c.5.1,1,0,1.3-.3l6.3-6.3c.5-.5.5-1.2.1-1.7Z"/>
</svg>