<svg width="244" height="373" viewBox="0 0 244 373" fill="none" xmlns="http://www.w3.org/2000/svg">
<path fill-rule="evenodd" clip-rule="evenodd" d="M149 345.778C149 360.812 136.912 373 122 373C107.088 373 95 360.812 95 345.778C95 336.873 99.2409 328.967 105.797 324L138.203 324C144.759 328.967 149 336.873 149 345.778Z" fill="#62A5E5"/>
<path fill-rule="evenodd" clip-rule="evenodd" d="M146 84C146 67.4315 159.432 54 176 54C192.568 54 206 67.4315 206 84C206 93.8136 201.288 102.527 194.003 108H157.997C150.712 102.527 146 93.8136 146 84ZM146 24C146 37.2548 135.255 48 122 48C108.745 48 98 37.2548 98 24C98 10.7452 108.745 0 122 0C135.255 0 146 10.7452 146 24ZM98 78C98 58.1177 81.8823 42 62 42C42.1177 42 26 58.1177 26 78C26 90.5218 32.3931 101.55 42.0932 108H81.9068C91.6069 101.55 98 90.5218 98 78Z" fill="#E0E0E0"/>
<path fill-rule="evenodd" clip-rule="evenodd" d="M142.939 324C146.253 324 148.939 321.314 148.939 318V297L173.387 252H70.332L94.7798 297V318C94.7798 321.314 97.4661 324 100.78 324H142.939Z" fill="#DA4436"/>
<path fill-rule="evenodd" clip-rule="evenodd" d="M70.3313 252H173.387L212.503 180H31.2148L70.3313 252Z" fill="#FCBB1B"/>
<path fill-rule="evenodd" clip-rule="evenodd" d="M244 114C244 110.686 241.314 108 238 108H6C2.6863 108 0 110.686 0 114V129.006C0 132.319 2.6863 135.006 6 135.006H6.7699L31.2148 180H212.503L236.948 135.006H238C241.314 135.006 244 132.319 244 129.006V114Z" fill="#16A458"/>
<path fill-rule="evenodd" clip-rule="evenodd" d="M66.5 78.7641H45.5C44.6716 78.7641 44 79.4357 44 80.2641V83.3691C43.9981 83.7047 44.2283 83.9972 44.555 84.0741C45.5525 84.3335 46.2491 85.2335 46.25 86.2641C46.2811 87.3151 45.5754 88.2455 44.555 88.4991C44.226 88.5822 43.9966 88.8798 44 89.2191V92.3241C44 93.1525 44.6716 93.8241 45.5 93.8241H66.5C67.3285 93.8241 68 93.1525 68 92.3241V89.1591C68.0034 88.8198 67.7741 88.5222 67.445 88.4391C66.4468 88.1906 65.7472 87.2928 65.75 86.2641C65.751 85.2335 66.4476 84.3335 67.445 84.0741C67.7717 83.9972 68.002 83.7047 68 83.3691V80.2641C68 79.4357 67.3285 78.7641 66.5 78.7641ZM50.375 90.7641C49.7537 90.7641 49.25 90.2604 49.25 89.6391C49.25 89.0178 49.7537 88.5141 50.375 88.5141C50.9964 88.5141 51.5 89.0178 51.5 89.6391C51.492 90.2571 50.993 90.756 50.375 90.7641ZM50.375 87.0141C49.7537 87.0141 49.25 86.5104 49.25 85.8891C49.25 85.2678 49.7537 84.7641 50.375 84.7641C50.9964 84.7641 51.5 85.2678 51.5 85.8891C51.484 86.5012 50.9873 86.9913 50.375 86.9991V87.0141ZM50.375 83.2641C49.7537 83.2641 49.25 82.7604 49.25 82.1391C49.25 81.5178 49.7537 81.0141 50.375 81.0141C50.9964 81.0141 51.5 81.5178 51.5 82.1391C51.492 82.7571 50.993 83.256 50.375 83.2641ZM45.5 72.7641C46.3285 72.7641 47 72.0925 47 71.2641C47.0081 69.8238 47.7051 68.4743 48.875 67.6341C48.995 67.5441 49.25 67.5141 49.25 67.6341V68.2041C49.2049 68.5443 49.3964 68.8717 49.715 68.9991C49.9956 69.0282 50.2782 68.9706 50.525 68.8341L53.525 65.8341C53.667 65.6933 53.7469 65.5016 53.7469 65.3016C53.7469 65.1016 53.667 64.9099 53.525 64.7691L50.525 61.7691C50.3088 61.5572 49.9863 61.496 49.7075 61.6141C49.4287 61.7322 49.2483 62.0063 49.25 62.3091V63.8091C49.2651 64.0612 49.1125 64.2932 48.875 64.3791C45.991 65.4561 44.058 68.1861 44 71.2641C44 72.0925 44.6716 72.7641 45.5 72.7641ZM78.5 83.2341C77.6716 83.2341 77 83.9057 77 84.7341C76.992 86.1745 76.295 87.5239 75.125 88.3641C75.005 88.4541 74.75 88.4841 74.75 88.3641V87.7941C74.7485 87.4913 74.5651 87.2192 74.285 87.1041C74.0045 87.0751 73.7218 87.1326 73.475 87.2691L70.475 90.2691C70.3331 90.4099 70.2532 90.6016 70.2532 90.8016C70.2532 91.0016 70.3331 91.1933 70.475 91.3341L73.475 94.3341C73.6913 94.5461 74.0137 94.6072 74.2925 94.4891C74.5714 94.371 74.7518 94.0969 74.75 93.7941V92.2941C74.735 92.042 74.8876 91.8101 75.125 91.7241C78.0445 90.6333 79.9852 87.8507 80 84.7341C80 83.9057 79.3285 83.2341 78.5 83.2341ZM71.225 79.4991H77.75C78.5785 79.4991 79.25 78.8275 79.25 77.9991V74.9091C79.2534 74.5698 79.0241 74.2722 78.695 74.1891C77.6914 73.9393 76.9902 73.0334 77 71.9991C77.001 70.9685 77.6976 70.0685 78.695 69.8091C79.0217 69.7322 79.252 69.4397 79.25 69.1041L79.25 65.9991C79.25 65.1707 78.5785 64.4991 77.75 64.4991H56.75C55.9216 64.4991 55.25 65.1707 55.25 65.9991V69.1191C55.2481 69.4547 55.4783 69.7472 55.805 69.8241C56.7971 70.082 57.4923 70.9741 57.5 71.9991C57.5098 73.0334 56.8087 73.9393 55.805 74.1891C55.476 74.2722 55.2466 74.5698 55.25 74.9091V75.3891C55.25 75.5962 55.4179 75.7641 55.625 75.7641H66.5C68.5768 75.7691 70.3805 77.1946 70.865 79.2141C70.9061 79.3801 71.0541 79.4973 71.225 79.4991ZM61.625 72.7491C61.0037 72.7491 60.5 72.2454 60.5 71.6241C60.5 71.0028 61.0037 70.4991 61.625 70.4991C62.2464 70.4991 62.75 71.0028 62.75 71.6241C62.7501 72.2479 62.2488 72.7559 61.625 72.7641V72.7491ZM61.625 68.9991C61.0037 68.9991 60.5 68.4954 60.5 67.8741C60.5 67.2528 61.0037 66.7491 61.625 66.7491C62.2464 66.7491 62.75 67.2528 62.75 67.8741C62.742 68.4921 62.243 68.991 61.625 68.9991Z" fill="#A6A6A6"/>
<path fill-rule="evenodd" clip-rule="evenodd" d="M179.75 84.6381H162.25C161.56 84.6381 161 85.1977 161 85.8881V88.4756C160.998 88.7553 161.19 88.999 161.463 89.0631C162.294 89.2792 162.874 90.0292 162.875 90.8881C162.901 91.7639 162.313 92.5393 161.463 92.7506C161.188 92.8198 160.997 93.0678 161 93.3506V95.9381C161 96.6284 161.56 97.1881 162.25 97.1881H179.75C180.44 97.1881 181 96.6284 181 95.9381V93.3006C181.003 93.0178 180.812 92.7698 180.538 92.7006C179.706 92.4934 179.123 91.7453 179.125 90.8881C179.126 90.0292 179.706 89.2792 180.538 89.0631C180.81 88.999 181.002 88.7553 181 88.4756L181 85.8881C181 85.1977 180.44 84.6381 179.75 84.6381ZM166.313 94.6381C165.795 94.6381 165.375 94.2183 165.375 93.7006C165.375 93.1828 165.795 92.7631 166.313 92.7631C166.83 92.7631 167.25 93.1828 167.25 93.7006C167.243 94.2155 166.827 94.6313 166.313 94.6381ZM166.313 91.5131C165.795 91.5131 165.375 91.0933 165.375 90.5756C165.375 90.0578 165.795 89.6381 166.313 89.6381C166.83 89.6381 167.25 90.0578 167.25 90.5756C167.237 91.0856 166.823 91.494 166.313 91.5006V91.5131ZM166.313 88.3881C165.795 88.3881 165.375 87.9683 165.375 87.4506C165.375 86.9328 165.795 86.5131 166.313 86.5131C166.83 86.5131 167.25 86.9328 167.25 87.4506C167.243 87.9655 166.827 88.3813 166.313 88.3881ZM162.25 79.6381C162.94 79.6381 163.5 79.0784 163.5 78.3881C163.507 77.1878 164.088 76.0632 165.063 75.3631C165.163 75.2881 165.375 75.2631 165.375 75.3631V75.8381C165.337 76.1215 165.497 76.3944 165.763 76.5006C165.996 76.5248 166.232 76.4768 166.438 76.3631L168.938 73.8631C169.056 73.7457 169.122 73.586 169.122 73.4193C169.122 73.2527 169.056 73.0929 168.938 72.9756L166.438 70.4756C166.257 70.2989 165.989 70.248 165.756 70.3464C165.524 70.4448 165.374 70.6732 165.375 70.9256V72.1756C165.388 72.3856 165.26 72.5789 165.063 72.6506C162.659 73.548 161.048 75.823 161 78.3881C161 79.0784 161.56 79.6381 162.25 79.6381ZM189.75 88.3631C189.06 88.3631 188.5 88.9227 188.5 89.6131C188.493 90.8133 187.912 91.9379 186.938 92.6381C186.838 92.7131 186.625 92.7381 186.625 92.6381V92.1631C186.624 91.9107 186.471 91.6839 186.238 91.5881C186.004 91.5638 185.768 91.6118 185.563 91.7256L183.063 94.2256C182.944 94.3429 182.878 94.5027 182.878 94.6693C182.878 94.836 182.944 94.9957 183.063 95.1131L185.563 97.6131C185.743 97.7897 186.011 97.8407 186.244 97.7422C186.476 97.6438 186.627 97.4154 186.625 97.1631V95.9131C186.612 95.703 186.74 95.5097 186.938 95.4381C189.37 94.5291 190.988 92.2102 191 89.6131C191 88.9227 190.44 88.3631 189.75 88.3631ZM183.688 85.2506H189.125C189.815 85.2506 190.375 84.6909 190.375 84.0006V81.4256C190.378 81.1428 190.187 80.8948 189.913 80.8256C189.076 80.6174 188.492 79.8625 188.5 79.0006C188.501 78.1417 189.081 77.3917 189.913 77.1756C190.185 77.1115 190.377 76.8678 190.375 76.5881L190.375 74.0006C190.375 73.3102 189.815 72.7506 189.125 72.7506H171.625C170.935 72.7506 170.375 73.3102 170.375 74.0006V76.6006C170.373 76.8803 170.565 77.124 170.838 77.1881C171.664 77.403 172.244 78.1464 172.25 79.0006C172.258 79.8625 171.674 80.6174 170.838 80.8256C170.563 80.8948 170.372 81.1428 170.375 81.4256V81.8256C170.375 81.9982 170.515 82.1381 170.688 82.1381H179.75C181.481 82.1422 182.984 83.3302 183.388 85.0131C183.422 85.1514 183.545 85.249 183.688 85.2506ZM175.688 79.6256C175.17 79.6256 174.75 79.2058 174.75 78.6881C174.75 78.1703 175.17 77.7506 175.688 77.7506C176.205 77.7506 176.625 78.1703 176.625 78.6881C176.625 79.2079 176.207 79.6312 175.688 79.6381V79.6256ZM175.688 76.5006C175.17 76.5006 174.75 76.0808 174.75 75.5631C174.75 75.0453 175.17 74.6256 175.688 74.6256C176.205 74.6256 176.625 75.0453 176.625 75.5631C176.618 76.078 176.202 76.4938 175.688 76.5006Z" fill="#A6A6A6"/>
<path fill-rule="evenodd" clip-rule="evenodd" d="M125 24.512H111C110.448 24.512 110 24.9597 110 25.512V27.582C109.999 27.8058 110.152 28.0007 110.37 28.052C111.035 28.2249 111.499 28.8249 111.5 29.512C111.521 30.2126 111.05 30.833 110.37 31.002C110.151 31.0574 109.998 31.2558 110 31.482V33.552C110 34.1043 110.448 34.552 111 34.552H125C125.552 34.552 126 34.1043 126 33.552V31.442C126.002 31.2158 125.849 31.0174 125.63 30.962C124.965 30.7963 124.498 30.1978 124.5 29.512C124.501 28.8249 124.965 28.2249 125.63 28.052C125.848 28.0007 126.001 27.8058 126 27.582L126 25.512C126 24.9597 125.552 24.512 125 24.512ZM114.25 32.512C113.836 32.512 113.5 32.1762 113.5 31.762C113.5 31.3478 113.836 31.012 114.25 31.012C114.664 31.012 115 31.3478 115 31.762C114.995 32.174 114.662 32.5066 114.25 32.512ZM114.25 30.012C113.836 30.012 113.5 29.6762 113.5 29.262C113.5 28.8478 113.836 28.512 114.25 28.512C114.664 28.512 115 28.8478 115 29.262C114.989 29.6701 114.658 29.9968 114.25 30.002V30.012ZM114.25 27.512C113.836 27.512 113.5 27.1762 113.5 26.762C113.5 26.3478 113.836 26.012 114.25 26.012C114.664 26.012 115 26.3478 115 26.762C114.995 27.174 114.662 27.5066 114.25 27.512ZM111 20.512C111.552 20.512 112 20.0643 112 19.512C112.005 18.5518 112.47 17.6521 113.25 17.092C113.33 17.032 113.5 17.012 113.5 17.092V17.472C113.47 17.6988 113.598 17.9171 113.81 18.002C113.997 18.0214 114.185 17.983 114.35 17.892L116.35 15.892C116.445 15.7981 116.498 15.6703 116.498 15.537C116.498 15.4037 116.445 15.2759 116.35 15.182L114.35 13.182C114.206 13.0407 113.991 12.9999 113.805 13.0787C113.619 13.1574 113.499 13.3402 113.5 13.542V14.542C113.51 14.7101 113.408 14.8647 113.25 14.922C111.327 15.64 110.039 17.46 110 19.512C110 20.0643 110.448 20.512 111 20.512ZM133 27.492C132.448 27.492 132 27.9397 132 28.492C131.995 29.4522 131.53 30.3519 130.75 30.912C130.67 30.972 130.5 30.992 130.5 30.912V30.532C130.499 30.3302 130.377 30.1487 130.19 30.072C130.003 30.0526 129.815 30.091 129.65 30.182L127.65 32.182C127.555 32.2759 127.502 32.4037 127.502 32.537C127.502 32.6703 127.555 32.7981 127.65 32.892L129.65 34.892C129.794 35.0333 130.009 35.0741 130.195 34.9954C130.381 34.9166 130.501 34.7339 130.5 34.532V33.532C130.49 33.364 130.592 33.2093 130.75 33.152C132.696 32.4248 133.99 30.5697 134 28.492C134 27.9397 133.552 27.492 133 27.492ZM128.15 25.002H132.5C133.052 25.002 133.5 24.5543 133.5 24.002V21.942C133.502 21.7158 133.349 21.5174 133.13 21.462C132.461 21.2954 131.993 20.6915 132 20.002C132.001 19.3149 132.465 18.7149 133.13 18.542C133.348 18.4907 133.501 18.2958 133.5 18.072V16.002C133.5 15.4497 133.052 15.002 132.5 15.002H118.5C117.948 15.002 117.5 15.4497 117.5 16.002V18.082C117.499 18.3058 117.652 18.5007 117.87 18.552C118.531 18.724 118.995 19.3187 119 20.002C119.007 20.6915 118.539 21.2954 117.87 21.462C117.651 21.5174 117.498 21.7158 117.5 21.942V22.262C117.5 22.4001 117.612 22.512 117.75 22.512H125C126.385 22.5153 127.587 23.4657 127.91 24.812C127.937 24.9226 128.036 25.0008 128.15 25.002ZM121.75 20.502C121.336 20.502 121 20.1662 121 19.752C121 19.3378 121.336 19.002 121.75 19.002C122.164 19.002 122.5 19.3378 122.5 19.752C122.5 20.1679 122.166 20.5065 121.75 20.512V20.502ZM121.75 18.002C121.336 18.002 121 17.6662 121 17.252C121 16.8378 121.336 16.502 121.75 16.502C122.164 16.502 122.5 16.8378 122.5 17.252C122.495 17.664 122.162 17.9966 121.75 18.002Z" fill="#A6A6A6"/>
</svg>
