<svg width="111" height="111" viewBox="0 0 111 111" fill="none" xmlns="http://www.w3.org/2000/svg">
<ellipse cx="55.39" cy="55.336" rx="54.6693" ry="55.336" fill="#16A458"/>
<g clip-path="url(#clip0_6125_4876)">
<path d="M86.3193 55.571V56.2952H74.938C74.6883 52.3759 73.0128 48.6841 70.6348 45.6277L78.5931 37.5859C82.9459 42.4326 85.7352 48.8196 86.2089 55.3807L86.3193 55.5726V55.571Z" fill="white"/>
<path d="M86.32 59.9157C86.3088 60.1544 86.336 60.4011 86.32 60.6399C85.9263 66.5252 83.4026 72.6751 79.7796 77.2879C79.1506 78.0878 77.9936 79.5652 77.2191 80.141C75.4939 81.4249 74.0377 79.2443 73.0215 78.0862C75.0267 77.0701 76.2285 74.9508 76.0028 72.667C75.7868 70.4783 73.9321 68.7623 73.0311 66.8575C74.0681 64.6865 74.8058 62.3398 74.9386 59.9141H86.32V59.9157Z" fill="white"/>
<path d="M55.1483 52.4671C58.016 52.2203 59.4675 53.7848 61.0902 55.8234C65.1277 60.8975 68.4324 66.7829 72.0858 72.1473C73.0988 73.9472 71.5353 75.6859 69.6326 74.7408C67.9715 73.9166 65.7231 72.2182 64.0955 71.1457C61.5463 69.4651 58.9266 67.7167 56.4541 65.9297C54.7482 64.6958 51.4356 62.5023 50.565 60.6378C48.8847 57.0395 51.2083 52.8058 55.1499 52.4671H55.1483Z" fill="white"/>
<path d="M36.368 59.9141C36.6049 63.8914 38.2916 67.5026 40.684 70.5945C41.657 71.8509 43.2925 72.6493 41.9979 74.4605C41.2697 75.4782 37.5858 79.133 36.5504 79.9572C34.6077 81.5055 33.2554 79.3959 32.0584 77.9588C27.8624 72.9267 25.3515 66.4994 24.9883 59.9141H36.368Z" fill="white"/>
<path d="M57.4492 38.6683V27.1992C64.2873 27.6202 70.9637 30.3427 76.0143 34.9861L68.0336 43.0069C64.9898 40.615 61.3427 38.9441 57.4492 38.6699V38.6683Z" fill="white"/>
<path d="M36.368 56.2968H24.9883C25.3804 49.4018 28.1169 42.6778 32.7145 37.5859L40.6728 45.6293C38.3044 48.6905 36.6033 52.3663 36.3696 56.2968H36.368Z" fill="white"/>
<path d="M53.8584 27.1992V38.6683C49.9585 38.9522 46.3242 40.6215 43.274 43.0053L35.2949 34.9845C40.3567 30.3362 47.0107 27.6411 53.8584 27.1992Z" fill="white"/>
</g>
<defs>
<clipPath id="clip0_6125_4876">
<rect width="61.3363" height="53.3359" fill="white" transform="translate(24.9883 27.1992)"/>
</clipPath>
</defs>
</svg>
