<svg width="110" height="111" viewBox="0 0 110 111" fill="none" xmlns="http://www.w3.org/2000/svg">
<ellipse cx="54.6693" cy="55.336" rx="54.6693" ry="55.336" fill="#DA4436"/>
<g clip-path="url(#clip0_6125_4874)">
<path d="M41.6437 35.2491C40.2522 31.2012 43.4965 27.4612 47.8325 28.5201C50.6002 29.196 51.838 31.5767 51.6458 34.2202C51.615 34.6408 51.2844 35.0688 51.5305 35.4293L58.5496 41.3997C60.2486 40.7163 62.0399 40.6112 63.7236 41.3997L64.3386 41.0242L71.0195 35.2641C71.1502 35.0613 70.7274 33.687 70.7274 33.2364C70.7274 28.1446 77.4697 26.0719 80.3758 30.1873C83.2819 34.3028 79.4148 39.4622 74.6098 38.1254C74.2177 38.0202 73.6642 37.6372 73.3567 37.7649L66.3683 43.878C67.1909 46.2662 66.3913 48.9548 64.108 50.239C60.0718 52.507 55.3437 49.1275 56.174 44.6816C56.2201 44.4488 56.5353 43.878 56.4277 43.7203L49.2548 37.7048C47.9786 38.4633 46.4026 38.5459 44.9957 38.0953C44.6189 37.9752 44.2038 37.5321 43.8425 37.7799L36.9925 43.7128C37.0078 44.4263 37.3 45.1322 37.2846 45.8456C37.177 50.6896 30.9189 52.7548 27.8438 49.0224C24.7686 45.2899 28.2897 39.5448 33.3176 40.9266C33.6789 41.0242 34.3939 41.4748 34.6861 41.3472L41.636 35.234L41.6437 35.2491Z" fill="white"/>
<path d="M51.8759 45.9062V81.3384H41.3203V46.0715L41.4894 45.9062H51.8759Z" fill="white"/>
<path d="M81.1845 81.3384H70.6289V45.9062H81.0154L81.1845 46.0715V81.3384Z" fill="white"/>
<path d="M37.2783 58.4102H26.7227V81.3381H37.2783V58.4102Z" fill="white"/>
<path d="M66.4775 58.4102H55.9219V81.3381H66.4775V58.4102Z" fill="white"/>
</g>
<defs>
<clipPath id="clip0_6125_4874">
<rect width="54.6693" height="53.3359" fill="white" transform="translate(26.668 28)"/>
</clipPath>
</defs>
</svg>
