<svg width="112" height="111" viewBox="0 0 112 111" fill="none" xmlns="http://www.w3.org/2000/svg">
<circle cx="55.963" cy="55.336" r="55.336" fill="#FCBB1B"/>
<path d="M84.3707 20L89.964 25.5993V26.3803C89.8215 26.5804 89.745 26.7769 89.58 26.9735C86.6782 30.4193 82.6261 33.4999 79.6253 36.9284C78.4524 37.6937 77.6496 36.6657 76.8938 35.8882L71.674 41.0839L68.9043 38.3113L74.0945 33.0859C73.3439 32.3414 72.343 31.597 73.0016 30.428C76.4246 27.344 79.5367 23.3606 82.9997 20.3862C83.1943 20.2192 83.3924 20.1461 83.5922 20.0017H84.3724L84.3707 20Z" fill="white"/>
<path d="M60.7943 31.622C61.3955 31.4968 61.9793 31.5924 62.4554 31.9821L68.7542 38.3137L62.9576 44.3322C61.823 46.2474 63.8907 48.2042 65.7395 46.9866L71.6734 41.236L77.9983 47.5415C78.702 48.4391 78.4674 49.5871 77.6142 50.2812C70.8585 52.2276 64.0593 54.355 57.2166 56.0335C56.2418 56.2718 55.5502 56.6563 54.5789 56.1431C53.8926 55.7796 53.5589 55.009 53.5989 54.2454L59.4911 32.7892C59.6579 32.2987 60.306 31.7229 60.7943 31.622Z" fill="white"/>
<path d="M52.6014 76.6719L74.7523 76.7032C75.2822 76.8806 75.694 77.3224 75.7809 77.8878C75.9981 79.2932 75.9356 83.6767 75.7948 85.1761C75.7062 86.1119 75.277 86.6355 74.2988 86.6737L52.5041 86.6076C51.7917 86.3763 51.5658 85.8632 51.4824 85.1569C51.293 83.5532 51.3242 80.0377 51.4632 78.3957C51.5345 77.5538 51.7117 76.9154 52.6031 76.6719H52.6014Z" fill="white"/>
<path d="M61.3062 63.1466C61.5443 63.3797 61.7024 63.8754 61.7406 64.2094C61.9144 65.7366 61.9126 69.7113 61.7406 71.2403C61.6728 71.8421 61.4157 72.4214 60.837 72.6788L38.6514 72.7397C37.8208 72.6214 37.4872 72.0248 37.4142 71.2437C37.2596 69.5965 37.2387 65.8288 37.4194 64.2076C37.548 63.0579 38.0954 62.7987 39.1709 62.7065C45.8173 62.1377 53.2594 63.1448 59.9908 62.7065C60.4079 62.7413 61.0021 62.8456 61.3079 63.1466H61.3062Z" fill="white"/>
<path d="M47.2572 77.0788C47.4205 77.2441 47.5474 77.5068 47.5682 77.7451C47.3475 80.2186 47.8445 83.1496 47.5647 85.5657C47.4952 86.1727 47.1877 86.3919 46.656 86.6076L24.6024 86.6719C24.0655 86.6459 23.6693 86.2058 23.4278 85.764L23.3809 77.8912C23.4712 77.2406 23.8222 76.9362 24.406 76.7031L46.6282 76.7292C46.8297 76.8266 47.1008 76.9188 47.2572 77.0771V77.0788Z" fill="white"/>
<path d="M66.9091 62.7397L88.2138 62.7031C89.1382 62.7849 89.7237 63.098 89.8349 64.0756C90.1043 66.4534 89.6855 69.3931 89.7741 71.8266C89.5986 72.3849 89.1816 72.6685 88.603 72.738L66.4173 72.6772C66.0455 72.5015 65.7171 72.1745 65.6511 71.7518C65.8526 69.2922 65.3574 66.3438 65.6406 63.9434C65.7258 63.2215 66.2401 62.8997 66.9108 62.7414L66.9091 62.7397Z" fill="white"/>
<path d="M24.2439 48.9392L46.7893 48.9688C47.2011 49.1636 47.5503 49.5359 47.566 50.0142L47.5051 58.0314C47.3105 58.4436 46.9387 58.7933 46.4608 58.8089L24.2491 58.7741C23.6462 58.5149 23.4255 58.0853 23.3647 57.4452C23.1423 55.1056 23.5367 52.4042 23.3803 50.0247C23.4933 49.5724 23.7557 49.0471 24.2457 48.9375L24.2439 48.9392Z" fill="white"/>
</svg>
