<svg width="86" height="86" viewBox="0 0 86 86" fill="none" xmlns="http://www.w3.org/2000/svg">
<g opacity="0.25">
<path fill-rule="evenodd" clip-rule="evenodd" d="M26.5489 82.7164C4.61409 73.6307 -5.80212 48.4838 3.2836 26.5489C12.3693 4.61409 37.5162 -5.80212 59.4511 3.2836C81.3859 12.3693 91.8021 37.5162 82.7164 59.4511C73.6307 81.3859 48.4838 91.8021 26.5489 82.7164Z" fill="#FCBB1B"/>
</g>
<path d="M43.4444 23C43.4444 27.9778 50.5556 32.0667 60.5111 32.0667H63M63 37.4002C45.4 37.4002 31.8889 31.3557 31.8889 24.0668M23.5334 55.178C23.5334 48.9557 32.2445 43.6222 48.6002 42.2C31.8891 40.7778 23 35.4444 23 29.2222M41.3111 51.0889C35.4444 53.4 31.8889 56.7778 31.8889 60.3333M61.2222 42.5556H63M55 47C59.4183 47 63 50.5817 63 55C63 59.4183 59.4183 63 55 63C50.5817 63 47 59.4183 47 55C47 50.5817 50.5817 47 55 47ZM55 47V55L62.9584 54.1876" stroke="#FCBB1B" stroke-width="3" stroke-linecap="round" stroke-linejoin="round"/>
</svg>
