<svg width="86" height="86" viewBox="0 0 86 86" fill="none" xmlns="http://www.w3.org/2000/svg">
<g opacity="0.25">
<path fill-rule="evenodd" clip-rule="evenodd" d="M26.5489 82.7164C4.61409 73.6307 -5.80212 48.4838 3.2836 26.5489C12.3693 4.61409 37.5162 -5.80212 59.4511 3.2836C81.3859 12.3693 91.8021 37.5162 82.7164 59.4511C73.6307 81.3859 48.4838 91.8021 26.5489 82.7164Z" fill="#FCBB1B"/>
</g>
<path d="M56.8261 48.6522V51.2609M56.8261 56.4783V57.7826C56.8261 59.2234 55.6581 60.3913 54.2174 60.3913H52.913M47.6957 60.3913H43.7826M29 39.5217V36.4783M29 31.2609V29.9565C29 28.5158 30.168 27.3478 31.6087 27.3478H32.913M38.1304 27.3478H42.0435M37.6957 63C36.6049 59.8753 33.6574 57.7822 30.3478 57.7822C27.0383 57.7822 24.0907 59.8753 23 63M49.8696 29.9565H60.3043M49.8696 29.9565C47.2609 29.9565 47.2609 32.5652 47.2609 32.5652V40.3913C47.2609 43 49.8696 43 49.8696 43H60.3043C62.913 43 62.913 40.3913 62.913 40.3913V32.5652C62.913 29.9565 60.3043 29.9565 60.3043 29.9565M49.8696 29.9565V28.2174C49.8696 25.3359 52.2055 23 55.087 23C57.9684 23 60.3043 25.3359 60.3043 28.2174V29.9565M25.1287 49.9565C25.1287 52.838 27.4646 55.1739 30.3461 55.1739C33.2276 55.1739 35.5635 52.838 35.5635 49.9565C35.5635 47.075 33.2276 44.7391 30.3461 44.7391C27.4646 44.7391 25.1287 47.075 25.1287 49.9565ZM55.087 35.8696C55.4471 35.8696 55.7391 36.1616 55.7391 36.5217C55.7391 36.8819 55.4471 37.1739 55.087 37.1739C54.7268 37.1739 54.4348 36.8819 54.4348 36.5217C54.4348 36.1616 54.7268 35.8696 55.087 35.8696Z" stroke="#FCBB1B" stroke-width="3" stroke-linecap="round" stroke-linejoin="round"/>
</svg>
