<svg width="86" height="86" viewBox="0 0 86 86" fill="none" xmlns="http://www.w3.org/2000/svg">
<g opacity="0.25">
<path fill-rule="evenodd" clip-rule="evenodd" d="M26.5489 82.7164C4.61409 73.6307 -5.80212 48.4838 3.2836 26.5489C12.3693 4.61409 37.5162 -5.80212 59.4511 3.2836C81.3859 12.3693 91.8021 37.5162 82.7164 59.4511C73.6307 81.3859 48.4838 91.8021 26.5489 82.7164Z" fill="#FCBB1B"/>
</g>
<path d="M49.8444 26.911V37.0443C49.8444 38.9998 52.6889 40.5998 56.4222 40.5998C60.1556 40.5998 63 38.9998 63 37.0443V26.911M49.8444 31.8889C49.8444 33.8444 52.6889 35.4444 56.4222 35.4444C60.1556 35.4444 63 33.8444 63 31.8889M23 63C25.6549 63 28.3097 63 30.9646 60.3333C33.6195 63 36.2743 63 36.9823 63C37.6903 63 40.3451 63 43 60.3333C45.6549 63 48.3097 63 49.0178 63C49.7257 63 52.3804 63 55.0354 60.3333C57.6903 63 60.3451 63 63 63M56.4222 30.1111C60.0549 30.1111 63 28.5192 63 26.5556C63 24.5919 60.0549 23 56.4222 23C52.7893 23 49.8444 24.5919 49.8444 26.5556C49.8444 28.5192 52.7893 30.1111 56.4222 30.1111ZM29.0339 33.7554H23V55.8798H29.0339V33.7554ZM41.1019 41.8007H35.0679V55.8798H41.1019V41.8007ZM53.1696 48.8402H47.1358V55.8798H53.1696V48.8402Z" stroke="#FCBB1B" stroke-width="3" stroke-linecap="round" stroke-linejoin="round"/>
</svg>
