<svg width="86" height="86" viewBox="0 0 86 86" fill="none" xmlns="http://www.w3.org/2000/svg">
<g opacity="0.25">
<path fill-rule="evenodd" clip-rule="evenodd" d="M26.5489 82.7164C4.61409 73.6307 -5.80212 48.4838 3.2836 26.5489C12.3693 4.61409 37.5162 -5.80212 59.4511 3.2836C81.3859 12.3693 91.8021 37.5162 82.7164 59.4511C73.6307 81.3859 48.4838 91.8021 26.5489 82.7164Z" fill="#FCBB1B"/>
</g>
<path d="M31.8021 27.3229H26.2873C25.3739 27.3224 24.4977 27.6851 23.8518 28.331C23.2059 28.9769 22.8433 29.8531 22.8438 30.7665V59.7127C22.8433 60.6261 23.2059 61.5023 23.8518 62.1482C24.4977 62.7941 25.3739 63.1567 26.2873 63.1562H42.6918C43.6053 63.1567 44.4814 62.7941 45.1273 62.1482C45.7732 61.5023 46.1359 60.6261 46.1354 59.7127L46.1354 52.4062M22.8438 55.9896H46.1354M45.2396 32.6728L48.7978 36.2329L55.9161 29.1146M37.1771 26.4271V38.9687C37.1771 40.9478 38.7814 42.5521 40.7604 42.5521H42.5521V48.8229L49.7187 42.5521H59.5729C61.5519 42.5521 63.1562 40.9478 63.1562 38.9687V26.4271C63.1562 24.4481 61.5519 22.8438 59.5729 22.8438H40.7604C38.7814 22.8438 37.1771 24.4481 37.1771 26.4271Z" stroke="#FCBB1B" stroke-width="3" stroke-linecap="round" stroke-linejoin="round"/>
</svg>
