<svg width="48" height="48" viewBox="0 0 48 48" fill="none" xmlns="http://www.w3.org/2000/svg">
<path fill-rule="evenodd" clip-rule="evenodd" d="M39 42V37L47.38 28.62C47.9871 28.0136 48.1688 27.1011 47.8404 26.3085C47.5119 25.5158 46.738 24.9992 45.88 25H26.12C25.262 24.9992 24.4881 25.5158 24.1596 26.3085C23.8312 27.1011 24.0129 28.0136 24.62 28.62L33 37V48L39 42ZM22.5 30.74C22.3441 30.5947 22.2033 30.4338 22.08 30.26H17.22V25.12H21.42C22.0705 23.6013 23.4089 22.486 25.02 22.12L17.22 22.12V17H25.32V22C25.5863 21.9801 25.8537 21.9801 26.12 22H28.32V17H35.32V22H38.32V4.78C38.32 2.14787 36.1921 0.011013 33.56 0H4.78C2.14008 0 0 2.14008 0 4.78V28.5C0.011013 31.1321 2.14787 33.26 4.78 33.26L25.02 33.26L22.5 30.74ZM28.32 8.86H35.32V14H28.32V8.86ZM17.22 8.86H25.32V14H17.22V8.86ZM14.22 30.26H4.78C3.80469 30.2601 3.01096 29.4752 3 28.5V25.12H14.22V30.26ZM14.22 22.12H3V17H14.22V22.12ZM14.22 14H3V8.86H14.22V14Z" fill="#FCBB1B"/>
</svg>
