<svg width="48" height="48" viewBox="0 0 48 48" fill="none" xmlns="http://www.w3.org/2000/svg">
<path fill-rule="evenodd" clip-rule="evenodd" d="M5 7.99913H7.5C8.05228 7.99913 8.5 8.44685 8.5 8.99913V12.9991C8.5 14.3798 9.61929 15.4991 11 15.4991C12.3807 15.4991 13.5 14.3798 13.5 12.9991V8.99913C13.5 8.44685 13.9477 7.99913 14.5 7.99913H17C17.4325 8.03118 17.8364 7.78078 18 7.37913C18.1676 7.00939 18.0788 6.57387 17.78 6.29913L11.78 0.299131C11.5985 0.105777 11.3452 -0.00390625 11.08 -0.00390625C10.8148 -0.00390625 10.5615 0.105777 10.38 0.299131L4.38 6.29913C4.02342 6.53157 3.86754 6.97462 4 7.37913C4.16362 7.78078 4.56749 8.03118 5 7.99913ZM36.3 15.6991C36.4815 15.8925 36.7348 16.0022 37 16.0022C37.2652 16.0022 37.5185 15.8925 37.7 15.6991L43.7 9.69913C44.0272 9.44465 44.1491 9.0059 44 8.61913C43.8364 8.21748 43.4325 7.96708 43 7.99913H40.5C39.9477 7.99913 39.5 7.55142 39.5 6.99913V2.99913C39.5 1.61842 38.3807 0.499131 37 0.499131C35.6193 0.499131 34.5 1.61842 34.5 2.99913V6.99913C34.5 7.55142 34.0523 7.99913 33.5 7.99913H31C30.5963 8.00115 30.2334 8.2457 30.08 8.61913C29.9124 8.98887 30.0012 9.4244 30.3 9.69913L36.3 15.6991ZM45 17.9991H3C1.34315 17.9991 0 19.3423 0 20.9991V44.9991C0 46.656 1.34315 47.9991 3 47.9991H45C46.6569 47.9991 48 46.656 48 44.9991V20.9991C48 19.3423 46.6569 17.9991 45 17.9991ZM38.5 22.9991C40.1569 22.9991 41.5 24.3423 41.5 25.9991C41.5 27.656 40.1569 28.9991 38.5 28.9991C36.8431 28.9991 35.5 27.656 35.5 25.9991C35.5 24.3423 36.8431 22.9991 38.5 22.9991ZM24 22.9991C25.6569 22.9991 27 24.3423 27 25.9991C27 27.656 25.6569 28.9991 24 28.9991C22.3431 28.9991 21 27.656 21 25.9991C21 24.3423 22.3431 22.9991 24 22.9991ZM9.5 22.9991C11.1569 22.9991 12.5 24.3423 12.5 25.9991C12.5 27.656 11.1569 28.9991 9.5 28.9991C7.84314 28.9991 6.5 27.656 6.5 25.9991C6.5 24.3423 7.84314 22.9991 9.5 22.9991ZM14 36.9991C14 37.5514 13.5523 37.9991 13 37.9991C12.626 38.0027 12.3071 38.2712 12.24 38.6391L11.48 43.1591C11.402 43.6407 10.9878 43.9957 10.5 43.9991H8.5C8.01217 43.9957 7.59804 43.6407 7.52 43.1591L6.76 38.6391C6.69288 38.2712 6.37402 38.0027 6 37.9991C5.44772 37.9991 5 37.5514 5 36.9991V35.4991C5 33.0138 7.01472 30.9991 9.5 30.9991C11.9853 30.9991 14 33.0138 14 35.4991V36.9991ZM28.5 36.9991C28.5 37.5514 28.0523 37.9991 27.5 37.9991C27.126 38.0027 26.8071 38.2712 26.74 38.6391L26 43.1591C25.922 43.6407 25.5078 43.9957 25.02 43.9991H23.02C22.5322 43.9957 22.118 43.6407 22.04 43.1591L21.28 38.6391C21.2129 38.2712 20.894 38.0027 20.52 37.9991C19.9677 37.9991 19.52 37.5514 19.52 36.9991V35.4991C19.52 33.0138 21.5347 30.9991 24.02 30.9991C26.5053 30.9991 28.52 33.0138 28.52 35.4991L28.5 36.9991ZM43 36.9991C43 37.5514 42.5523 37.9991 42 37.9991C41.626 38.0027 41.3071 38.2712 41.24 38.6391L40.48 43.1591C40.402 43.6407 39.9878 43.9957 39.5 43.9991H37.5C37.0122 43.9957 36.598 43.6407 36.52 43.1591L35.76 38.6391C35.6929 38.2712 35.374 38.0027 35 37.9991C34.4477 37.9991 34 37.5514 34 36.9991V35.4991C34 33.0138 36.0147 30.9991 38.5 30.9991C40.9853 30.9991 43 33.0138 43 35.4991V36.9991Z" fill="#DA4436"/>
</svg>
