<svg width="48" height="47" viewBox="0 0 48 47" fill="none" xmlns="http://www.w3.org/2000/svg">
<path fill-rule="evenodd" clip-rule="evenodd" d="M7.68104 33.28C9.77431 34.1307 12.1534 33.886 14.0297 32.6271C15.906 31.3682 17.0345 29.2595 17.041 27C17.041 23.6094 14.5293 20.7434 11.1681 20.2985C7.8068 19.8535 4.63594 21.9675 3.75382 25.2413C2.87171 28.5151 4.55126 31.9359 7.68104 33.24V33.28ZM14.001 42.68C14.9114 41.7077 15.9632 40.8784 17.121 40.22C17.361 40.08 17.641 39.96 17.881 39.84C17.2329 39.146 16.7056 38.3483 16.321 37.48C11.0048 34.8392 4.5879 35.975 0.501035 40.28C0.0887817 40.7137 -0.021717 41.3531 0.221035 41.9C0.221035 41.9 0.221035 42 0.221035 42.06C0.486602 42.5283 0.982722 42.8183 1.52104 42.82C15.021 42.82 13.761 42.88 14.001 42.68ZM30.961 27C30.961 30.7334 33.9876 33.76 37.721 33.76C41.4545 33.76 44.481 30.7334 44.481 27C44.4847 25.6518 44.0803 24.3341 43.321 23.22C41.6577 20.76 38.5837 19.6736 35.744 20.542C32.9043 21.4105 30.9639 24.0305 30.961 27ZM47.541 40.28C43.4509 35.961 37.0109 34.8389 31.701 37.52C31.3156 38.365 30.7955 39.1417 30.161 39.82C31.5958 40.5458 32.8948 41.5132 34.001 42.68C34.201 42.88 32.941 42.82 46.401 42.82C47.0044 42.8252 47.5538 42.473 47.8009 41.9224C48.048 41.3719 47.946 40.7274 47.541 40.28ZM12.421 15.56H27.081V11.9C27.081 11.0716 27.7526 10.4 28.581 10.4C29.4095 10.4 30.081 11.0716 30.081 11.9V15.56H36.601C36.8698 15.5601 37.1272 15.452 37.3153 15.2601C37.5034 15.0682 37.6064 14.8087 37.601 14.54V12.36C37.6109 11.8881 37.2831 11.4762 36.821 11.38C35.1307 11.0207 33.9221 9.52806 33.9221 7.8C33.9221 6.07194 35.1307 4.57933 36.821 4.22C37.2818 4.10846 37.605 3.6941 37.601 3.22V1C37.601 0.447716 37.1533 0 36.601 0H30.001V4C30.001 4.82843 29.3295 5.5 28.501 5.5C27.6726 5.5 27.001 4.82843 27.001 4V0.04H12.421C11.8763 0.028671 11.4227 0.455552 11.401 1V3.2C11.4007 3.66439 11.7264 4.06523 12.181 4.16C13.8597 4.53823 15.0521 6.02925 15.0521 7.75C15.0521 9.47075 13.8597 10.9618 12.181 11.34C11.7154 11.4351 11.3809 11.8447 11.381 12.32V14.54C11.381 14.814 11.4912 15.0765 11.6868 15.2684C11.8825 15.4603 12.1471 15.5654 12.421 15.56ZM18.581 34.14C18.5799 35.9925 19.532 37.7152 21.101 38.7C22.8675 39.8605 25.1546 39.8605 26.921 38.7C28.4736 37.7116 29.4158 36.0005 29.421 34.16C29.4205 31.167 26.994 28.741 24.001 28.741C21.0081 28.741 18.5816 31.167 18.581 34.16V34.14ZM24.321 41.4C24.1814 41.3853 24.0406 41.3853 23.901 41.4C20.9704 41.4618 18.1823 42.6763 16.141 44.78C15.9015 45.046 15.7982 45.4076 15.861 45.76C15.8501 45.8664 15.8501 45.9736 15.861 46.08V46.18C16.0583 46.5733 16.461 46.8212 16.901 46.82H30.901C31.3871 46.8142 31.825 46.5249 32.021 46.08C32.021 46.08 32.021 45.94 32.021 45.86C32.121 45.4 32.121 45.4 31.861 44.98C31.861 44.98 31.861 44.84 31.761 44.78C29.8095 42.7363 27.144 41.5254 24.321 41.4Z" fill="#16A458"/>
</svg>
