<svg width="30" height="30" viewBox="0 0 30 30" fill="none" xmlns="http://www.w3.org/2000/svg">
<ellipse cx="15" cy="15" rx="15" ry="15" transform="matrix(4.43798e-08 1 1 -4.30531e-08 0 0)" fill="#16A458"/>
<path d="M11.0999 23.2973C10.697 23.297 10.3067 23.1573 9.99521 22.9019L4.7859 18.6345C4.0736 18.0157 3.98253 16.9426 4.58036 16.2126C5.1782 15.4826 6.24816 15.3604 6.99521 15.9368L11.0301 19.2391L22.658 8.52982C23.0951 8.01014 23.794 7.79135 24.4494 7.96907C25.1047 8.14678 25.5974 8.6887 25.712 9.35799C25.8267 10.0273 25.5424 10.7023 24.9836 11.088L12.2859 22.8321C11.9646 23.1332 11.5401 23.2997 11.0999 23.2973Z" fill="white"/>
</svg>
