<svg width="51" height="61" viewBox="0 0 51 61" fill="none" xmlns="http://www.w3.org/2000/svg">
<path fill-rule="evenodd" clip-rule="evenodd" d="M22.6761 31.5109V21.4474C22.6761 20.7527 22.1129 20.1895 21.4181 20.1895C15.1712 20.2033 10.1105 25.264 10.0967 31.5109C10.0967 32.2057 10.6599 32.7689 11.3546 32.7689H21.4181C22.1129 32.7689 22.6761 32.2057 22.6761 31.5109ZM27.7078 26.4792C27.0368 26.5064 26.5111 27.0657 26.5253 27.7371V35.9137C26.5253 36.2611 26.2438 36.5427 25.8964 36.5427H17.6443C16.978 36.5415 16.4264 37.06 16.3864 37.7251C16.3558 42.311 19.0947 46.4623 23.3227 48.2384C27.5508 50.0146 32.4326 49.0647 35.6862 45.8328C38.9398 42.6009 39.9223 37.7255 38.1745 33.4857C36.4266 29.2459 32.2937 26.4793 27.7078 26.4792ZM49.6211 14.4281L35.985 0.792103C35.5164 0.327309 34.8839 0.06528 34.2239 0.0625H5.06495C2.28599 0.0625 0.0332031 2.31529 0.0332031 5.09425V55.4117C0.0332031 58.1907 2.28599 60.4435 5.06495 60.4435H45.3189C48.0979 60.4435 50.3507 58.1907 50.3507 55.4117V16.1892C50.3479 15.5292 50.0859 14.8967 49.6211 14.4281ZM45.3189 54.1538C45.3189 54.8485 44.7557 55.4117 44.061 55.4117H6.32289C5.62815 55.4117 5.06495 54.8485 5.06495 54.1538V6.35218C5.06495 5.65745 5.62815 5.09425 6.32289 5.09425H32.7396C33.0755 5.09101 33.3998 5.21713 33.6453 5.44647L45.0422 16.8685C45.2312 17.0932 45.3298 17.3802 45.3189 17.6736V54.1538Z" fill="#76BCFF"/>
</svg>
