<svg width="50" height="50" viewBox="0 0 50 50" fill="none" xmlns="http://www.w3.org/2000/svg">
<path fill-rule="evenodd" clip-rule="evenodd" d="M27.6603 1.58723C27.6598 0.945142 27.2727 0.366531 26.6795 0.120891C26.0863 -0.124748 25.4035 0.0108911 24.9492 0.464633L19.7407 5.67094C19.1213 6.29115 19.1213 7.29591 19.7407 7.91613L24.9492 13.1267C25.4037 13.5807 26.087 13.7162 26.6805 13.47C27.2739 13.2238 27.6606 12.6444 27.6603 12.002L27.6603 8.91376H43.8257C44.8975 8.91376 45.7638 9.78218 45.7638 10.8518V35.9747C45.7638 37.0464 44.8954 37.9149 43.8257 37.9149H22.8417C22.4119 37.9149 21.9923 38.0456 21.6386 38.2898L11.0629 45.5972V40.033C11.0629 38.8632 10.1146 37.9149 8.94476 37.9149H6.1764C5.66166 37.9154 5.16784 37.7112 4.80386 37.3472C4.43988 36.9832 4.23565 36.4894 4.23621 35.9747L4.23621 10.8539C4.23621 9.78218 5.10464 8.91376 6.1764 8.91376H10.7219C11.8916 8.91376 12.84 7.96545 12.84 6.79565C12.84 5.62585 11.8916 4.67754 10.7219 4.67754H6.1764C2.76561 4.67637 3.71431e-07 7.44104 3.71431e-07 10.8518V35.9747C-0.00117023 39.3863 2.76478 42.1522 6.1764 42.1511H6.82666V45.7667C6.82666 49.109 10.5799 51.0789 13.3292 49.1768L23.5025 42.1511H43.8257C47.2365 42.1511 50.0012 39.3855 50 35.9747V10.8539C50.0012 7.44315 47.2365 4.67754 43.8257 4.67754H27.6603V1.58511V1.58723ZM15.9557 24.1641C18.1292 24.1641 19.8911 22.4022 19.8911 20.2287C19.8911 18.0552 18.1292 16.2932 15.9557 16.2932C13.7822 16.2932 12.0203 18.0552 12.0203 20.2287C12.0203 22.4022 13.7822 24.1641 15.9557 24.1641ZM37.9776 20.2287C37.9776 22.4022 36.2157 24.1641 34.0422 24.1641C31.8687 24.1641 30.1068 22.4022 30.1068 20.2287C30.1068 18.0552 31.8687 16.2932 34.0422 16.2932C36.2157 16.2932 37.9776 18.0552 37.9776 20.2287ZM23.4792 29.9317C21.8101 27.5298 19.0312 25.9243 15.9536 25.9243C12.8738 25.9243 10.097 27.5298 8.42794 29.9317C7.61459 31.1009 8.61857 32.4946 10.0419 32.4946H21.8652C23.2865 32.4946 24.2904 31.1009 23.4792 29.9317ZM34.0401 25.9243C37.1177 25.9243 39.8966 27.5298 41.5657 29.9317C42.3769 31.1009 41.3751 32.4946 39.9517 32.4946H28.1284C26.7051 32.4946 25.7011 31.1009 26.5144 29.9317C28.1835 27.5298 30.9625 25.9243 34.0401 25.9243Z" fill="#16A458"/>
</svg>
