<svg width="79" height="79" viewBox="0 0 79 79" fill="none" xmlns="http://www.w3.org/2000/svg">
<circle cx="39.5" cy="39.5" r="39.5" fill="#0072D3"/>
<path fill-rule="evenodd" clip-rule="evenodd" d="M42.6355 19C41.8326 19 41.0638 19.2733 40.4915 19.8456C39.9192 20.4162 39.6459 21.1866 39.6459 21.9896V33.9478C39.6459 34.7507 39.9192 35.5195 40.4915 36.0917C41.0621 36.664 41.8326 36.9374 42.6355 36.9374H48.6146V39.0728H46.9063C45.9628 39.0728 45.198 39.8376 45.198 40.7811C45.198 41.7246 45.9628 42.4894 46.9063 42.4894H53.7396C54.6831 42.4894 55.4479 41.7246 55.4479 40.7811C55.4479 39.8376 54.6831 39.0728 53.7396 39.0728H52.0313V36.9374H58.0104C58.8133 36.9374 59.5821 36.664 60.1544 36.0917C60.7267 35.5212 61 34.7507 61 33.9478V21.9896C61 21.1866 60.7267 20.4179 60.1544 19.8456C59.5838 19.2733 58.8133 19 58.0104 19H42.6355ZM55.4718 24.2855C56.091 24.6288 56.3143 25.4091 55.9707 26.028L53.4082 30.6405C53.2252 30.9708 52.9059 31.2037 52.5354 31.2768C52.1649 31.3499 51.781 31.2558 51.4863 31.0197L48.3908 28.5427L46.9114 31.1615C46.5633 31.7776 45.7816 31.9948 45.1655 31.6467C44.5494 31.2985 44.3322 30.5169 44.6803 29.9008L46.9012 25.9717C47.0858 25.6443 47.4049 25.4145 47.7738 25.3432C48.1428 25.2718 48.5245 25.3661 48.8179 25.6009L51.9031 28.0712L53.7311 24.7844C54.0743 24.1653 54.8547 23.9419 55.4736 24.2855H55.4718ZM30.0878 20.8962C30.5596 20.6949 31.1061 20.7943 31.4767 21.1491L35.4058 24.9074C35.6585 25.1491 35.8015 25.4836 35.8015 25.8333C35.8015 26.183 35.6585 26.5175 35.4058 26.7592L31.4767 30.5175C31.1059 30.8716 30.5596 30.9706 30.0882 30.7691C29.6167 30.5675 29.3108 30.1043 29.3105 29.5916L29.3105 27.5416C27.3938 27.5843 25.9793 29.0261 25.9793 30.9582C25.9793 31.9017 25.2144 32.6666 24.2709 32.6666C23.3274 32.6666 22.5626 31.9017 22.5626 30.9582C22.5626 27.1384 25.5043 24.1694 29.3105 24.125V22.075C29.3105 21.5625 29.618 21.0978 30.0878 20.8962ZM55.0209 46.3331C55.9643 46.3331 56.7292 47.098 56.7292 48.0414C56.7292 51.8886 53.743 54.8747 49.8959 54.8747H49.8105V56.9247C49.81 57.4426 49.4978 57.9092 49.0194 58.1073C48.5409 58.3055 47.9902 58.1961 47.6238 57.8301L43.8655 54.0718C43.3659 53.5716 43.3659 52.7612 43.8655 52.261L47.6238 48.5027C47.9902 48.1367 48.5409 48.0273 49.0194 48.2254C49.4978 48.4236 49.81 48.8902 49.8105 49.4081V51.4581H49.8959C51.857 51.4581 53.3125 50.0026 53.3125 48.0414C53.3125 47.098 54.0774 46.3331 55.0209 46.3331ZM24.6126 45.5644C24.6126 44.7649 24.8125 44.0115 25.1644 43.3538C27.1119 44.9084 29.5975 45.8992 32.2112 45.8992C32.8092 45.8992 33.4071 45.8411 34.005 45.7249C33.908 48.2795 31.7862 50.2876 29.2302 50.2439C26.6741 50.2002 24.6222 48.1207 24.6126 45.5644ZM22.0501 45.5644C22.0515 41.9069 24.7733 38.8215 28.4021 38.3639C32.0309 37.9062 35.4335 40.2193 36.3429 43.7619C37.2523 47.3046 35.3845 50.9705 31.984 52.3174C35.0134 53.1109 37.4628 55.3364 38.5423 58.276C38.687 58.6691 38.6303 59.1081 38.3907 59.4516C38.151 59.7951 37.7585 59.9997 37.3396 59.9997H21.2814C20.8583 59.9997 20.4625 59.7909 20.2237 59.4417C19.9849 59.0926 19.9338 58.648 20.0872 58.2538C21.2302 55.3568 23.6645 53.1627 26.6643 52.3259C23.8815 51.2362 22.0503 48.5529 22.0501 45.5644Z" fill="white"/>
</svg>
