<svg width="73" height="73" viewBox="0 0 73 73" fill="none" xmlns="http://www.w3.org/2000/svg">
<path fill-rule="evenodd" clip-rule="evenodd" d="M0 36.5C3.04167e-05 56.6584 16.3416 73 36.5 73C56.6584 73 73 56.6584 73 36.5C73 16.3416 56.6584 0 36.5 0C16.3416 0 0 16.3416 0 36.5Z" fill="#DA4436"/>
<g clip-path="url(#clip0_5201_20682)">
<path d="M19.8009 19.0257L31.969 19C33.1607 19.2397 33.7537 20.1288 33.8451 21.2933C34.1266 24.8666 33.6236 28.7981 33.8451 32.4099C33.7251 33.7941 32.9306 34.5876 31.5461 34.706C27.9282 34.4863 23.9946 34.9857 20.4153 34.706C19.2565 34.6161 18.2306 33.954 18.1149 32.7296C17.762 28.9779 18.3878 24.6782 18.1192 20.868C18.2363 19.9347 18.8865 19.2355 19.8009 19.0257Z" fill="white"/>
<path d="M40.442 19.0257L52.6101 19C53.8018 19.2397 54.3948 20.1288 54.4862 21.2933C54.7677 24.8666 54.2648 28.7981 54.4862 32.4099C54.3662 33.7941 53.5718 34.5876 52.1872 34.706C48.5694 34.4863 44.6357 34.9857 41.0565 34.706C39.8977 34.6161 38.8717 33.954 38.756 32.7296C38.4031 28.9779 39.0289 24.6782 38.7603 20.868C38.8803 19.9333 39.5304 19.234 40.4435 19.0243L40.442 19.0257Z" fill="white"/>
<path d="M20.1263 39.2209C23.6856 38.7756 28.0064 39.4892 31.6457 39.1923C32.9817 39.3522 33.7289 40.1556 33.8433 41.4842C33.6232 45.0974 34.1233 49.0261 33.8433 52.6008C33.7504 53.7938 33.0988 54.7428 31.8643 54.8984C28.0678 54.6358 23.8342 55.2337 20.0906 54.8984C18.9761 54.7985 18.2116 54.0264 18.1116 52.9219C17.7715 49.1245 18.3674 44.8149 18.1259 40.9633C18.3831 39.9843 19.1275 39.3464 20.1249 39.2223L20.1263 39.2209Z" fill="white"/>
<path d="M40.7674 39.2209C44.3267 38.7756 48.6475 39.4892 52.2868 39.1923C53.6228 39.3522 54.3701 40.1556 54.4844 41.4842C54.2643 45.0974 54.7644 49.0261 54.4844 52.6008C54.3915 53.7938 53.7399 54.7428 52.5054 54.8984C48.709 54.6358 44.4753 55.2337 40.7317 54.8984C39.6172 54.7985 38.8527 54.0264 38.7527 52.9219C38.4127 49.1245 39.0085 44.8149 38.767 40.9633C39.0242 39.9843 39.7686 39.3464 40.766 39.2223L40.7674 39.2209Z" fill="white"/>
</g>
<defs>
<clipPath id="clip0_5201_20682">
<rect width="36.5714" height="36" fill="white" transform="translate(18 19)"/>
</clipPath>
</defs>
</svg>
