<svg width="92" height="82" viewBox="0 0 92 82" fill="none" xmlns="http://www.w3.org/2000/svg">
<path fill-rule="evenodd" clip-rule="evenodd" d="M81.2156 47.627L92 40.8889L81.2156 34.1507C78.0041 14.7711 61.1715 0 40.8889 0C18.3063 0 0 18.3063 0 40.8889C0 63.4715 18.3063 81.7778 40.8889 81.7778C61.1715 81.7778 78.0041 67.0067 81.2156 47.627ZM40.8889 71.5556C23.9541 71.5556 10.2222 57.8237 10.2222 40.8889C10.2222 23.9541 23.9541 10.2222 40.8889 10.2222C57.8237 10.2222 71.5556 23.9541 71.5556 40.8889C71.5556 57.8237 57.8237 71.5556 40.8889 71.5556Z" fill="#0072D3"/>
<path d="M50.7596 37.108V41.4773M47.8467 41.4773H53.6724M46.9 32.7387L48.7934 29.3888L52.4345 32.3017L54.6191 28.3693M49.2303 55.2407L46.0261 52.0366M46.0261 52.0366L49.2303 48.8324M46.0261 52.0366H50.3954C52.8714 52.0366 54.7648 50.1432 54.7648 47.6672M33.9376 25.5293L37.2874 28.7334M37.2874 28.7334L33.9376 31.9376M37.2874 28.7334L32.9181 28.7334C30.4421 28.7334 28.5487 30.6268 28.5487 33.1028M37.9428 45.4097C37.0689 45.701 36.195 45.8467 35.3212 45.8467C32.6996 45.8467 30.2236 44.6815 28.4759 42.9338M39.6906 56.77C38.6711 54.0028 36.0495 52.1094 32.8453 52.1094C29.6411 52.1094 27.0195 54.1484 26 56.77M58.77 35.6516C58.77 36.5254 58.1874 37.108 57.3136 37.108H44.2056C43.3317 37.108 42.7491 36.5254 42.7491 35.6516V25.4564C42.7491 24.5826 43.3317 24 44.2056 24H57.3136C58.1874 24 58.77 24.5826 58.77 25.4564V35.6516ZM32.8452 50.6529C35.6605 50.6529 37.9428 48.3707 37.9428 45.5554C37.9428 42.7401 35.6605 40.4578 32.8452 40.4578C30.0299 40.4578 27.7477 42.7401 27.7477 45.5554C27.7477 48.3707 30.0299 50.6529 32.8452 50.6529Z" stroke="#212121" stroke-width="2.5" stroke-linecap="round" stroke-linejoin="round"/>
</svg>
