<svg width="50" height="49" viewBox="0 0 50 49" fill="none" xmlns="http://www.w3.org/2000/svg">
<path fill-rule="evenodd" clip-rule="evenodd" d="M44 21.4531C39.8276 15.1454 32.8119 11.3023 25.25 11.1823C17.6881 11.3023 10.6724 15.1454 6.5 21.4531C5.91656 22.4281 5.91656 23.6449 6.5 24.6198C10.6724 30.9275 17.6881 34.7706 25.25 34.8906C32.8119 34.7706 39.8276 30.9275 44 24.6198C44.5928 23.6475 44.5928 22.4255 44 21.4531ZM25.25 31.7656C18.7888 31.66 12.7824 28.4198 9.14583 23.0781C12.7415 17.6804 18.7649 14.3998 25.25 14.3073C31.7143 14.3969 37.7207 17.6611 41.3125 23.0365C37.7258 28.4173 31.7162 31.6832 25.25 31.7656ZM18.0417 23.0365C18.0417 27.0175 21.2689 30.2448 25.25 30.2448C29.2311 30.2448 32.4583 27.0175 32.4583 23.0365C32.4583 19.0554 29.2311 15.8281 25.25 15.8281C21.2689 15.8281 18.0417 19.0554 18.0417 23.0365ZM47.9167 44.1406H6.375L14.1667 36.3281C14.7759 35.7181 14.7759 34.7298 14.1667 34.1198C13.8765 33.822 13.4783 33.654 13.0625 33.654C12.6467 33.654 12.2485 33.822 11.9583 34.1198L4.16667 41.9115V2.47396C4.16667 1.32337 3.23393 0.390625 2.08333 0.390625C0.93274 0.390625 0 1.32337 0 2.47396V46.224C0 47.3745 0.93274 48.3073 2.08333 48.3073H47.9167C49.0673 48.3073 50 47.3745 50 46.224C50 45.0734 49.0673 44.1406 47.9167 44.1406ZM45.8333 0.890625H36.3958C35.7659 0.886358 35.1967 1.26581 34.9583 1.84896C34.7184 2.43388 34.8495 3.10547 35.2917 3.55729L38.8958 7.16146L37 9.07812C36.3907 9.68816 36.3907 10.6764 37 11.2865C37.61 11.8957 38.5983 11.8957 39.2083 11.2865L41.125 9.36979L44.7292 12.9948C45.0244 13.2841 45.42 13.4483 45.8333 13.4531C46.6916 13.4419 47.3846 12.7489 47.3958 11.8906V2.47396C47.4014 2.05596 47.2393 1.65316 46.9456 1.35561C46.652 1.05806 46.2514 0.890587 45.8333 0.890625Z" fill="#FCBB1B"/>
</svg>
