<svg width="24" height="24" viewBox="0 0 24 24" fill="none" xmlns="http://www.w3.org/2000/svg">
<path fill-rule="evenodd" clip-rule="evenodd" d="M12.5176 3.90755C13.1043 2.77999 14.2102 2.00944 15.4461 2.00944C16.3457 2.00467 17.2099 2.3738 17.8459 3.03457C18.482 3.69534 18.8372 4.59286 18.8323 5.52718V6.12917H17.3806C16.9891 6.12902 16.636 6.3739 16.4862 6.74957C16.3363 7.12523 16.4192 7.55766 16.6961 7.84512L19.1156 10.3578C19.4934 10.7498 20.1057 10.7498 20.4836 10.3578L22.903 7.84512C23.1799 7.55766 23.2628 7.12523 23.1129 6.74957C22.9631 6.3739 22.61 6.12902 22.2185 6.12917H20.7668V5.52613C20.772 4.0587 20.2129 2.64985 19.2138 1.61221C18.2146 0.574578 16.8581 -0.00600643 15.4451 -0.000696315C13.0851 -0.000696315 11.1637 1.67546 10.4459 3.82589H2.86098C1.28206 3.82877 0.00277429 5.15735 0 6.79712V18.3973C0.00277429 20.0371 1.28206 21.3656 2.86098 21.3685H10.585C11.5044 22.9306 13.1496 23.9304 15.059 23.9304C16.4718 23.9354 17.8281 23.3547 18.827 22.3171C19.8259 21.2795 20.3848 19.8708 20.3797 18.4036L20.3797 16.896C20.3799 16.3408 19.9465 15.8906 19.412 15.8906C18.8774 15.8906 18.444 16.3408 18.4442 16.896V18.4036C18.4496 19.3379 18.0947 20.2356 17.4588 20.8964C16.8228 21.5573 15.9586 21.9264 15.059 21.9213C14.2842 21.9305 13.5309 21.6575 12.9299 21.1497C14.0069 20.6932 14.7117 19.6064 14.7142 18.3983V6.79817C14.7114 5.42351 13.8035 4.22924 12.5166 3.90755H12.5176ZM3.7461 8.37801C3.7461 7.82313 4.17958 7.37295 4.71387 7.37295H10.0014C10.5234 7.39045 10.9379 7.83503 10.9379 8.37749C10.9379 8.91995 10.5234 9.36453 10.0014 9.38204H4.71387C4.17938 9.38204 3.7461 8.93205 3.7461 8.37697V8.37801ZM1.93555 6.79608C1.93555 6.26946 2.35391 5.83498 2.86098 5.83498H11.8532C12.3603 5.83498 12.7797 6.26946 12.7797 6.79608V10.8321H1.93555V6.79713V6.79608ZM8.36521 13.9624C8.36521 14.5406 7.91386 15.0094 7.35711 15.0094C6.80035 15.0094 6.34901 14.5406 6.34901 13.9624C6.34901 13.3842 6.80035 12.9155 7.35711 12.9155C7.91386 12.9155 8.36521 13.3842 8.36521 13.9624ZM7.35711 18.7072C7.91386 18.7072 8.36521 18.2385 8.36521 17.6602C8.36521 17.082 7.91386 16.6133 7.35711 16.6133C6.80035 16.6133 6.34901 17.082 6.34901 17.6602C6.34901 18.2385 6.80035 18.7072 7.35711 18.7072ZM4.83182 13.9624C4.83182 14.5406 4.38048 15.0094 3.82372 15.0094C3.26696 15.0094 2.81562 14.5406 2.81562 13.9624C2.81562 13.3842 3.26696 12.9155 3.82372 12.9155C4.38048 12.9155 4.83182 13.3842 4.83182 13.9624ZM3.82372 18.7072C4.38048 18.7072 4.83182 18.2385 4.83182 17.6602C4.83182 17.082 4.38048 16.6133 3.82372 16.6133C3.26696 16.6133 2.81562 17.082 2.81562 17.6602C2.81562 18.2385 3.26696 18.7072 3.82372 18.7072ZM11.8986 13.9624C11.8986 14.5406 11.4473 15.0094 10.8905 15.0094C10.3337 15.0094 9.88239 14.5406 9.88239 13.9624C9.88239 13.3842 10.3337 12.9155 10.8905 12.9155C11.4473 12.9155 11.8986 13.3842 11.8986 13.9624ZM10.8905 18.7072C11.4473 18.7072 11.8986 18.2385 11.8986 17.6602C11.8986 17.082 11.4473 16.6133 10.8905 16.6133C10.3337 16.6133 9.88239 17.082 9.88239 17.6602C9.88239 18.2385 10.3337 18.7072 10.8905 18.7072Z" fill="#DA4436"/>
</svg>
