<svg width="86" height="86" viewBox="0 0 86 86" fill="none" xmlns="http://www.w3.org/2000/svg">
<path fill-rule="evenodd" clip-rule="evenodd" d="M26.5489 82.7164C4.61409 73.6307 -5.80212 48.4838 3.2836 26.5489C12.3693 4.61409 37.5162 -5.80212 59.4511 3.2836C81.3859 12.3693 91.8021 37.5162 82.7164 59.4511C73.6307 81.3859 48.4838 91.8021 26.5489 82.7164Z" fill="#FCBB1B" fill-opacity="0.26"/>
<path fill-rule="evenodd" clip-rule="evenodd" d="M55.6662 41.3308C51.0644 41.3308 47.334 45.0612 47.334 49.663C47.334 54.9456 54.7663 62.4279 55.0829 62.7445C55.2341 62.9056 55.4452 62.997 55.6662 62.997C55.8871 62.997 56.0982 62.9056 56.2494 62.7445C56.5661 62.4279 63.9983 54.9456 63.9983 49.663C63.9983 45.0612 60.2679 41.3308 55.6662 41.3308ZM55.6662 52.5792C54.0556 52.5792 52.7499 51.2736 52.7499 49.663C52.7499 48.0524 54.0556 46.7467 55.6662 46.7467C57.2768 46.7467 58.5824 48.0524 58.5824 49.663C58.5733 51.2698 57.273 52.5701 55.6662 52.5792ZM54.4163 31.7488C54.4163 31.9789 54.2298 32.1654 53.9997 32.1654H51.9167C51.4128 32.162 50.9575 32.4655 50.7669 32.932C50.5703 33.3994 50.6757 33.9392 51.0335 34.2984L55.1996 38.4645C55.6875 38.9519 56.478 38.9519 56.966 38.4645L61.1321 34.2984C61.4626 33.952 61.5662 33.4472 61.3987 32.9986C61.2081 32.5322 60.7528 32.2286 60.2489 32.232H58.1658C57.9357 32.232 57.7492 32.0455 57.7492 31.8154C57.7492 28.1341 54.7649 25.1497 51.0835 25.1497H43.5845C42.6642 25.1497 41.9181 25.8958 41.9181 26.8161C41.9181 27.7365 42.6642 28.4826 43.5845 28.4826H51.0835C52.8985 28.4822 54.38 29.9342 54.4163 31.7488ZM26.5036 28.8325C26.5036 32.0537 29.1149 34.665 32.3361 34.665C35.5573 34.665 38.1686 32.0537 38.1686 28.8325C38.1686 25.6113 35.5573 23 32.3361 23C29.1149 23 26.5036 25.6113 26.5036 28.8325ZM32.3361 36.3315C27.7343 36.3315 24.0039 40.0619 24.0039 44.6637V51.3294C24.0039 51.7896 24.377 52.1626 24.8371 52.1626H27.0202C27.2347 52.1624 27.4112 52.3315 27.4201 52.5459L28.17 62.2279C28.2048 62.6618 28.5679 62.9958 29.0032 62.9944H35.669C36.1043 62.9958 36.4673 62.6618 36.5022 62.2279L37.3354 52.5459C37.3443 52.3315 37.5208 52.1624 37.7353 52.1626L39.835 52.1626C40.2952 52.1626 40.6683 51.7896 40.6683 51.3294V44.6637C40.6683 40.0619 36.9378 36.3315 32.3361 36.3315Z" fill="#FCBB1B"/>
</svg>
