<svg width="37" height="37" viewBox="0 0 37 37" fill="none" xmlns="http://www.w3.org/2000/svg">
<path d="M17.074 8.449C17.0747 11.2645 14.7925 13.5472 11.977 13.5472C9.16154 13.5472 6.87934 11.2645 6.88 8.449C6.87934 5.63354 9.16154 3.35081 11.977 3.35081C14.7925 3.35081 17.0747 5.63354 17.074 8.449ZM17.074 8.449C13.7909 8.5226 10.6211 7.24752 8.3035 4.921M18.955 19.8175C17.402 17.4297 14.7467 15.9892 11.8983 15.9892C9.04979 15.9892 6.39454 17.4297 4.8415 19.8175M1 4.921V1H4.921M22.954 4.921V1H19.0345M1 20.602V24.523H4.921M25.3075 29.227L26.875 30.796L30.796 24.523M19.819 27.6595C19.818 31.9904 23.3286 35.5017 27.6595 35.5017C31.9904 35.5017 35.501 31.9904 35.5 27.6595C35.501 23.3286 31.9904 19.8173 27.6595 19.8173C23.3286 19.8173 19.818 23.3286 19.819 27.6595Z" stroke="#FCBB1B" stroke-width="2" stroke-linecap="round" stroke-linejoin="round"/>
</svg>
