<svg width="63" height="62" viewBox="0 0 63 62" fill="none" xmlns="http://www.w3.org/2000/svg">
<path d="M50.4352 12.0536C50.4352 17.6298 39.6993 22.1501 26.4559 22.1501C13.2125 22.1501 2.47656 17.6298 2.47656 12.0536C2.47656 6.47741 13.2125 1.95703 26.4559 1.95703C39.6993 1.95703 50.4352 6.47741 50.4352 12.0536ZM50.4352 12.0536V23.4122M26.4559 32.2442C13.2142 32.2442 2.47656 27.726 2.47656 22.1476M22.6697 43.4766C11.2277 42.7193 2.47656 38.5419 2.47656 33.5088M23.9317 54.9109C11.8765 54.3783 2.47656 50.0848 2.47656 44.8674V12.0511M50.4226 44.8674H45.3743V37.295M30.2295 44.8674C30.2295 53.2316 37.01 60.0122 45.3743 60.0122C53.7385 60.0122 60.5191 53.2316 60.5191 44.8674C60.5191 36.5031 53.7385 29.7225 45.3743 29.7225C37.01 29.7225 30.2295 36.5031 30.2295 44.8674Z" stroke="#FF5057" stroke-width="3.5" stroke-linecap="round" stroke-linejoin="round"/>
</svg>
