<svg width="31" height="43" viewBox="0 0 31 43" fill="none" xmlns="http://www.w3.org/2000/svg">
<path fill-rule="evenodd" clip-rule="evenodd" d="M15.7212 9.81709C23.0013 9.81709 28.9028 7.61986 28.9028 4.90854C28.9028 2.19722 23.0013 0 15.7212 0C8.44114 0 2.53962 2.19722 2.53962 4.90854C2.53962 7.61986 8.44114 9.81709 15.7212 9.81709ZM4.10127 32.7436C4.10127 31.7712 3.31303 30.983 2.34067 30.983C1.36832 30.983 0.580078 31.7712 0.580078 32.7436V36.55C0.580078 37.5223 1.36832 38.3106 2.34067 38.3106C3.31303 38.3106 4.10127 37.5223 4.10127 36.55V32.7436ZM12.9043 37.1204C12.9043 36.1481 12.116 35.3598 11.1437 35.3598C10.1713 35.3598 9.38306 36.1481 9.38306 37.1204V40.3564C9.38306 41.3287 10.1713 42.117 11.1437 42.117C12.116 42.117 12.9043 41.3287 12.9043 40.3564V37.1204ZM19.9466 35.3598C20.919 35.3598 21.7072 36.1481 21.7072 37.1204V40.3564C21.7072 41.3287 20.919 42.117 19.9466 42.117C18.9743 42.117 18.186 41.3287 18.186 40.3564V37.1204C18.186 36.1481 18.9743 35.3598 19.9466 35.3598ZM30.5102 32.7436C30.5102 31.7712 29.722 30.983 28.7496 30.983C27.7773 30.983 26.989 31.7712 26.989 32.7436V36.55C26.989 37.5223 27.7773 38.3106 28.7496 38.3106C29.722 38.3106 30.5102 37.5223 30.5102 36.55V32.7436ZM25.9644 10.8541C23.2143 11.877 19.591 12.4562 15.7212 12.4562C11.8497 12.4562 8.22811 11.877 5.47806 10.8541C4.11359 10.3453 2.82484 9.67624 1.8301 8.80122C1.77233 8.74992 1.7154 8.69768 1.65932 8.64453V16.3348C1.77904 16.525 1.95686 16.7345 2.21391 16.9616C2.8354 17.5127 3.81077 18.0655 5.1365 18.5549C7.77388 19.5285 11.5116 20.1465 15.7212 20.1465C19.929 20.1465 23.6685 19.5303 26.3077 18.5549C27.6316 18.0655 28.607 17.5127 29.2303 16.9616C29.4856 16.7327 29.6634 16.525 29.7831 16.3348V8.64453C29.727 8.69828 29.6701 8.7511 29.6123 8.80298C28.6176 9.678 27.3288 10.347 25.9644 10.8558V10.8541ZM1.65932 19.8155V25.4142C1.65932 26.4459 2.21039 27.3192 2.98857 28.0093C3.765 28.6977 4.83896 29.2717 6.08722 29.7347C8.59431 30.659 11.9993 31.2031 15.7212 31.2031C19.4431 31.2031 22.8481 30.659 25.3534 29.7347C26.6035 29.2717 27.6774 28.6977 28.4538 28.0093C29.232 27.3192 29.7831 26.4459 29.7831 25.4142V19.8155C28.9721 20.3041 28.1146 20.7111 27.2232 21.0303C24.2161 22.1413 20.1509 22.7874 15.7212 22.7874C11.2898 22.7874 7.22633 22.1413 4.22099 21.0321C3.3293 20.7122 2.47128 20.3053 1.65932 19.8173V19.8155Z" fill="white"/>
</svg>
