<svg width="45" height="46" viewBox="0 0 45 46" fill="none" xmlns="http://www.w3.org/2000/svg">
<path fill-rule="evenodd" clip-rule="evenodd" d="M39.5749 42.3178H38.5167V32.6982H39.5749C40.3718 32.6982 41.0178 32.0522 41.0178 31.2553C41.0178 30.4584 40.3718 29.8124 39.5749 29.8124H34.5535C33.7566 29.8124 33.1105 30.4584 33.1105 31.2553C33.1105 32.0522 33.7566 32.6982 34.5535 32.6982H35.5924V42.3178H34.515C33.7181 42.3178 33.0721 42.9638 33.0721 43.7607C33.0721 44.5577 33.7181 45.2037 34.515 45.2037H39.5364C40.3333 45.2037 40.9794 44.5577 40.9794 43.7607C40.9794 42.9638 40.3333 42.3178 39.5364 42.3178H39.5749ZM24.2028 29.7547H20.355C19.5581 29.7547 18.9121 30.4007 18.9121 31.1976V43.78C18.9121 44.5769 19.5581 45.2229 20.355 45.2229C21.1519 45.2229 21.7979 44.5769 21.7979 43.78V40.1823H24.1259C27.005 40.1817 29.3387 37.8476 29.3387 34.9685C29.3387 32.0894 27.005 29.7552 24.1259 29.7547H24.2028ZM24.2028 37.2964H21.8749V32.6405H24.2028C25.4885 32.6405 26.5308 33.6828 26.5308 34.9685C26.5308 36.2542 25.4885 37.2964 24.2028 37.2964ZM13.8522 34.1604C13.5032 31.6532 11.3427 29.7978 8.81152 29.8316C6.28767 29.8075 4.13813 31.6606 3.79011 34.1604L2.36641 43.6261C2.24956 44.1531 2.43669 44.7013 2.85143 45.0469C3.26617 45.3925 3.83914 45.4777 4.33647 45.2677C4.8338 45.0577 5.1723 44.5876 5.21381 44.0493L5.69478 40.8749H11.9475L12.5054 43.9724C12.6023 44.6827 13.2122 45.2103 13.9291 45.2037H14.1408C14.9259 45.085 15.4676 44.3541 15.3528 43.5684L13.8522 34.1604ZM6.15652 38.0083L6.7337 34.5067C6.90828 33.4364 7.83289 32.6504 8.91734 32.6504C10.0018 32.6504 10.9264 33.4364 11.101 34.5067L11.505 38.0083H6.15652ZM44.25 17.3454C44.2517 14.733 43.1908 12.2323 41.3112 10.4179C39.4316 8.60363 36.8949 7.63181 34.2841 7.72586C31.6581 2.15522 25.5877 -0.924312 19.5415 0.246803C13.4953 1.41792 9.0138 6.54127 8.65761 12.6896C6.53631 12.2565 4.33268 12.7991 2.65487 14.1674C0.977055 15.5358 0.00244337 17.5853 0 19.7503C0 27.0804 7.69565 26.965 7.69565 26.965H35.5924C35.5924 26.965 44.25 25.8299 44.25 17.3454Z" fill="white"/>
</svg>
