<svg width="73" height="73" viewBox="0 0 73 73" fill="none" xmlns="http://www.w3.org/2000/svg">
<path fill-rule="evenodd" clip-rule="evenodd" d="M0 36.5C3.04167e-05 56.6584 16.3416 73 36.5 73C56.6584 73 73 56.6584 73 36.5C73 16.3416 56.6584 0 36.5 0C16.3416 0 0 16.3416 0 36.5Z" fill="#FCBB1B"/>
<g clip-path="url(#clip0_5201_20672)">
<path d="M40.7846 18C41.664 18.2702 42.1181 18.8135 42.1974 19.7378V54.1899C42.1072 55.2429 41.5123 55.8525 40.4534 55.9317C38.167 56.1009 35.6536 55.8139 33.3444 55.9089C32.5502 55.7763 32.0138 55.1746 31.8968 54.3908L31.875 19.7378C31.9543 18.8125 32.4084 18.2702 33.2879 18H40.7836L40.7846 18Z" fill="white"/>
<path d="M55.997 40.0752V54.5203C55.7442 55.3101 55.2623 55.8405 54.4007 55.9266C52.1203 55.7613 49.5196 56.1513 47.2778 55.9266C46.3329 55.8316 45.7242 55.024 45.6786 54.1155C45.8987 49.6977 45.396 45.0136 45.6786 40.6265C45.7539 39.4616 46.2863 38.76 47.4979 38.664C49.6862 38.8451 52.2522 38.4264 54.3948 38.6749C55.2266 38.7709 55.7541 39.3013 55.998 40.0742L55.997 40.0752Z" fill="white"/>
<path d="M19.3177 28.3879L26.9393 28.375C27.9021 28.6313 28.255 29.3102 28.3205 30.2563V54.0419C28.2937 54.9226 27.795 55.6946 26.9106 55.8945L19.4545 55.9212C18.7466 55.7698 18.234 55.2908 18.0337 54.598L18 29.8872C18.0962 29.1766 18.6108 28.5531 19.3167 28.3869L19.3177 28.3879Z" fill="white"/>
</g>
<defs>
<clipPath id="clip0_5201_20672">
<rect width="38" height="38" fill="white" transform="translate(18 18)"/>
</clipPath>
</defs>
</svg>
