<svg width="78" height="78" viewBox="0 0 78 78" fill="none" xmlns="http://www.w3.org/2000/svg">
<mask id="path-1-inside-1_5201_21255" fill="white">
<path d="M41.7439 0C43.1428 0.202025 44.5618 0.323387 45.9441 0.618164C61.7911 4.00944 72.0452 13.5038 76.6395 29.0264C77.3172 31.3147 77.4677 33.7593 77.865 36.1299C77.907 36.3781 77.9534 36.6219 77.9998 36.8672V41.2852C77.8199 42.6365 77.6757 43.994 77.4598 45.3379V45.3369C76.797 49.4749 75.466 53.3919 73.5408 57.1123C73.3971 57.3906 73.3531 57.7974 73.4324 58.0996C74.8793 63.5757 76.3493 69.0446 77.8172 74.5146C77.8276 74.5489 77.8351 74.5839 77.8455 74.6182C77.8785 74.7332 77.9474 74.8411 77.9998 74.9531V76.1709C77.6535 77.0448 77.0418 77.6513 76.1707 78H74.952C74.8231 77.9641 74.6931 77.9265 74.5643 77.8906C72.8223 77.4028 71.0832 76.9055 69.3367 76.4297C65.6453 75.4285 61.9527 74.4295 58.2508 73.4688C57.8625 73.3672 57.3394 73.422 56.9813 73.6045C52.1818 76.0618 47.1058 77.5163 41.7186 77.874C41.5225 77.8861 41.3291 77.9566 41.1346 78H37.0213C35.5161 77.8055 34.0018 77.6676 32.5086 77.4072C22.6427 75.6906 14.5424 70.9225 8.34844 63.0684C2.36293 55.4776 -0.357418 46.7642 0.0369174 37.1172C0.765649 19.4066 13.9202 4.13574 31.3084 0.763672C32.9951 0.437431 34.7112 0.251408 36.4129 0H41.7439Z"/>
</mask>
<path d="M41.7439 0C43.1428 0.202025 44.5618 0.323387 45.9441 0.618164C61.7911 4.00944 72.0452 13.5038 76.6395 29.0264C77.3172 31.3147 77.4677 33.7593 77.865 36.1299C77.907 36.3781 77.9534 36.6219 77.9998 36.8672V41.2852C77.8199 42.6365 77.6757 43.994 77.4598 45.3379V45.3369C76.797 49.4749 75.466 53.3919 73.5408 57.1123C73.3971 57.3906 73.3531 57.7974 73.4324 58.0996C74.8793 63.5757 76.3493 69.0446 77.8172 74.5146C77.8276 74.5489 77.8351 74.5839 77.8455 74.6182C77.8785 74.7332 77.9474 74.8411 77.9998 74.9531V76.1709C77.6535 77.0448 77.0418 77.6513 76.1707 78H74.952C74.8231 77.9641 74.6931 77.9265 74.5643 77.8906C72.8223 77.4028 71.0832 76.9055 69.3367 76.4297C65.6453 75.4285 61.9527 74.4295 58.2508 73.4688C57.8625 73.3672 57.3394 73.422 56.9813 73.6045C52.1818 76.0618 47.1058 77.5163 41.7186 77.874C41.5225 77.8861 41.3291 77.9566 41.1346 78H37.0213C35.5161 77.8055 34.0018 77.6676 32.5086 77.4072C22.6427 75.6906 14.5424 70.9225 8.34844 63.0684C2.36293 55.4776 -0.357418 46.7642 0.0369174 37.1172C0.765649 19.4066 13.9202 4.13574 31.3084 0.763672C32.9951 0.437431 34.7112 0.251408 36.4129 0H41.7439Z" fill="#DA4436"/>
<path d="M41.7439 0L42.1728 -2.96919L41.9595 -3H41.7439V0ZM45.9441 0.618164L46.5719 -2.31541L46.5698 -2.31587L45.9441 0.618164ZM76.6395 29.0264L73.7628 29.8778L73.763 29.8783L76.6395 29.0264ZM77.865 36.1299L74.9063 36.6258L74.907 36.6299L77.865 36.1299ZM77.9998 36.8672H80.9998V36.5856L80.9474 36.309L77.9998 36.8672ZM77.9998 41.2852L80.9736 41.6811L80.9998 41.484V41.2852H77.9998ZM77.4598 45.3379H74.4598L80.4218 45.8137L77.4598 45.3379ZM77.4598 45.3369H80.4598L74.4975 44.8625L77.4598 45.3369ZM73.5408 57.1123L70.8764 55.7336L70.8755 55.7354L73.5408 57.1123ZM73.4324 58.0996L70.5308 58.8618L70.532 58.866L73.4324 58.0996ZM77.8172 74.5146L74.9197 75.2922L74.9327 75.3406L74.9473 75.3886L77.8172 74.5146ZM77.8455 74.6182L80.7289 73.79L80.7222 73.7667L80.7152 73.7435L77.8455 74.6182ZM77.9998 74.9531H80.9998V74.2863L80.7173 73.6822L77.9998 74.9531ZM77.9998 76.1709L80.7888 77.2762L80.9998 76.7437V76.1709H77.9998ZM76.1707 78V81H76.7489L77.2857 80.7851L76.1707 78ZM74.952 78L74.1469 80.89L74.5419 81H74.952V78ZM74.5643 77.8906L73.7553 80.7795L73.7593 80.7806L74.5643 77.8906ZM69.3367 76.4297L70.1253 73.5352L70.122 73.5343L69.3367 76.4297ZM58.2508 73.4688L57.4917 76.3711L57.4971 76.3725L58.2508 73.4688ZM56.9813 73.6045L55.6193 70.9314L55.614 70.9342L56.9813 73.6045ZM41.7186 77.874L41.903 80.8683L41.9102 80.8679L41.9173 80.8674L41.7186 77.874ZM41.1346 78V81H41.4648L41.7871 80.9282L41.1346 78ZM37.0213 78L36.6368 80.9753L36.8282 81H37.0213V78ZM32.5086 77.4072L33.0239 74.4518L33.0229 74.4516L32.5086 77.4072ZM8.34844 63.0684L5.99271 64.9259L5.99282 64.9261L8.34844 63.0684ZM0.0369174 37.1172L-2.96055 36.9939L-2.96058 36.9947L0.0369174 37.1172ZM31.3084 0.763672L30.7387 -2.18174L30.7373 -2.18146L31.3084 0.763672ZM36.4129 0V-3H36.1925L35.9744 -2.96779L36.4129 0ZM41.7439 0L41.3151 2.96919C42.9549 3.20602 44.0573 3.28325 45.3185 3.55219L45.9441 0.618164L46.5698 -2.31587C45.0663 -2.63648 43.3306 -2.80197 42.1728 -2.96919L41.7439 0ZM45.9441 0.618164L45.3164 3.55174C52.7983 5.15289 58.8105 8.15841 63.4738 12.4747C68.1369 16.7909 71.594 22.55 73.7628 29.8778L76.6395 29.0264L79.5161 28.175C77.0907 19.9802 73.1236 13.2308 67.5494 8.0714C61.9753 2.91203 54.9369 -0.525291 46.5719 -2.31541L45.9441 0.618164ZM76.6395 29.0264L73.763 29.8783C74.3763 31.9492 74.4355 33.8167 74.9063 36.6258L77.865 36.1299L80.8238 35.634C80.4999 33.7019 80.2581 30.6802 79.516 28.1744L76.6395 29.0264ZM77.865 36.1299L74.907 36.6299C74.9548 36.9127 75.007 37.1869 75.0522 37.4254L77.9998 36.8672L80.9474 36.309C80.8997 36.0569 80.8592 35.8435 80.8231 35.6299L77.865 36.1299ZM77.9998 36.8672H74.9998V41.2852H77.9998H80.9998V36.8672H77.9998ZM77.9998 41.2852L75.026 40.8892C74.8313 42.3522 74.7061 43.5651 74.4977 44.862L77.4598 45.3379L80.4218 45.8137C80.6452 44.423 80.8085 42.9208 80.9736 41.6811L77.9998 41.2852ZM77.4598 45.3379H80.4598V45.3369H77.4598H74.4598V45.3379H77.4598ZM77.4598 45.3369L74.4975 44.8625C73.8882 48.6666 72.6636 52.2797 70.8764 55.7336L73.5408 57.1123L76.2052 58.491C78.2683 54.504 79.7058 50.2832 80.422 45.8114L77.4598 45.3369ZM73.5408 57.1123L70.8755 55.7354C70.389 56.6772 70.2642 57.8465 70.5308 58.8618L73.4324 58.0996L76.334 57.3375C76.4049 57.6074 76.3978 57.8076 76.3852 57.923C76.3726 58.0382 76.336 58.2378 76.2062 58.4892L73.5408 57.1123ZM73.4324 58.0996L70.532 58.866C71.9807 64.3489 73.4524 69.8243 74.9197 75.2922L77.8172 74.5146L80.7147 73.7371C79.2462 68.2649 77.778 62.8024 76.3329 57.3332L73.4324 58.0996ZM77.8172 74.5146L74.9473 75.3886C74.9377 75.357 74.9311 75.3328 74.928 75.3215C74.9254 75.312 74.9237 75.305 74.9266 75.3164C74.9282 75.3225 74.9344 75.3469 74.9417 75.3738C74.9495 75.4025 74.961 75.444 74.9759 75.4928L77.8455 74.6182L80.7152 73.7435C80.7248 73.7752 80.7315 73.7995 80.7346 73.8109C80.7372 73.8206 80.739 73.8276 80.7361 73.8164C80.7346 73.8105 80.7283 73.7862 80.7211 73.7594C80.7134 73.7308 80.7019 73.6895 80.6871 73.6407L77.8172 74.5146ZM77.8455 74.6182L74.9621 75.4463C75.0573 75.7777 75.1841 76.0331 75.2363 76.1368C75.2604 76.1846 75.2939 76.2486 75.2947 76.2502C75.3045 76.2689 75.2958 76.253 75.2823 76.224L77.9998 74.9531L80.7173 73.6822C80.6967 73.6381 80.6776 73.5992 80.6617 73.5676C80.646 73.5362 80.6319 73.5088 80.6217 73.4892C80.6166 73.4793 80.6118 73.4701 80.6082 73.4631C80.6041 73.4554 80.6016 73.4505 80.5991 73.4456C80.5941 73.436 80.5934 73.4346 80.5945 73.4368C80.5959 73.4397 80.614 73.4753 80.6371 73.5296C80.6607 73.5851 80.6957 73.6743 80.7289 73.79L77.8455 74.6182ZM77.9998 74.9531H74.9998V76.1709H77.9998H80.9998V74.9531H77.9998ZM77.9998 76.1709L75.2109 75.0656C75.1922 75.1127 75.1773 75.1379 75.1706 75.1482C75.1671 75.1537 75.1648 75.1566 75.164 75.1576C75.1635 75.1582 75.1632 75.1585 75.1631 75.1586C75.163 75.1588 75.163 75.1588 75.163 75.1588C75.163 75.1588 75.1628 75.1589 75.1626 75.1592C75.1623 75.1594 75.1617 75.1599 75.1608 75.1606C75.1591 75.162 75.1553 75.165 75.1486 75.1693C75.1356 75.1777 75.1069 75.1944 75.0557 75.2149L76.1707 78L77.2857 80.7851C78.9104 80.1347 80.1343 78.9275 80.7888 77.2762L77.9998 76.1709ZM76.1707 78V75H74.952V78V81H76.1707V78ZM74.952 78L75.757 75.11C75.7009 75.0944 75.6433 75.0781 75.5774 75.0593C75.5139 75.0413 75.442 75.0209 75.3693 75.0006L74.5643 77.8906L73.7593 80.7806C73.8154 80.7962 73.8729 80.8126 73.9388 80.8313C74.0023 80.8493 74.0741 80.8697 74.1469 80.89L74.952 78ZM74.5643 77.8906L75.3732 75.0018C73.6529 74.52 71.8848 74.0146 70.1253 73.5352L69.3367 76.4297L68.5481 79.3242C70.2815 79.7965 71.9917 80.2856 73.7553 80.7795L74.5643 77.8906ZM69.3367 76.4297L70.122 73.5343C66.4314 72.5333 62.7242 71.5304 59.0044 70.565L58.2508 73.4688L57.4971 76.3725C61.1812 77.3287 64.8592 78.3237 68.5514 79.3251L69.3367 76.4297ZM58.2508 73.4688L59.0098 70.5664C57.9179 70.2808 56.6394 70.4117 55.6193 70.9315L56.9813 73.6045L58.3432 76.2775C58.1326 76.3848 57.9841 76.4067 57.9218 76.4133C57.8591 76.42 57.7137 76.4292 57.4917 76.3711L58.2508 73.4688ZM56.9813 73.6045L55.614 70.9342C51.1611 73.214 46.4811 74.5512 41.5198 74.8806L41.7186 77.874L41.9173 80.8674C47.7305 80.4815 53.2024 78.9096 58.3485 76.2748L56.9813 73.6045ZM41.7186 77.874L41.5341 74.8797C41.1553 74.903 40.844 74.978 40.6907 75.0168C40.6188 75.035 40.5313 75.0587 40.51 75.0643C40.4706 75.0748 40.4696 75.0746 40.4821 75.0718L41.1346 78L41.7871 80.9282C41.8969 80.9037 41.9929 80.8785 42.0507 80.8631C42.0658 80.8591 42.0805 80.8552 42.0925 80.852C42.1054 80.8485 42.1152 80.8459 42.1249 80.8433C42.1442 80.8382 42.1547 80.8354 42.1613 80.8338C42.1758 80.8301 42.1555 80.8357 42.1161 80.8429C42.0753 80.8505 42.0012 80.8623 41.903 80.8683L41.7186 77.874ZM41.1346 78V75H37.0213V78V81H41.1346V78ZM37.0213 78L37.4058 75.0247C35.7451 74.8101 34.4357 74.698 33.0239 74.4518L32.5086 77.4072L31.9933 80.3626C33.5678 80.6372 35.2872 80.8008 36.6368 80.9753L37.0213 78ZM32.5086 77.4072L33.0229 74.4516C23.8726 72.8595 16.4326 68.4747 10.7041 61.2107L8.34844 63.0684L5.99282 64.9261C12.6521 73.3702 21.4128 78.5217 31.9943 80.3628L32.5086 77.4072ZM8.34844 63.0684L10.7042 61.2108C5.17598 54.2 2.66839 46.1941 3.03441 37.2397L0.0369174 37.1172L-2.96058 36.9947C-3.38323 47.3344 -0.450109 56.7552 5.99271 64.9259L8.34844 63.0684ZM0.0369174 37.1172L3.03438 37.2405C3.70587 20.9212 15.8543 6.81657 31.8795 3.7088L31.3084 0.763672L30.7373 -2.18146C11.9862 1.45491 -2.17457 17.892 -2.96055 36.9939L0.0369174 37.1172ZM31.3084 0.763672L31.8781 3.70908C33.4838 3.39851 34.9897 3.24282 36.8513 2.96779L36.4129 0L35.9744 -2.96779C34.4326 -2.74 32.5065 -2.52365 30.7387 -2.18174L31.3084 0.763672ZM36.4129 0V3H41.7439V0V-3H36.4129V0Z" fill="white" mask="url(#path-1-inside-1_5201_21255)"/>
<path d="M53.7205 45.2478L48.2846 52.1154C48.0404 52.4234 47.6672 52.616 47.2615 52.6432C46.8559 52.6704 46.4577 52.5296 46.1701 52.2572L43.3633 49.5981M55.8873 35.8896C56.0905 35.03 56.1959 34.1522 56.2017 33.2713C56.2017 24.9501 47.407 18.2031 36.554 18.2031C25.7009 18.2031 16.9062 24.9519 16.9062 33.2713C17.006 37.4208 19.082 41.3048 22.5536 43.8367L18.7775 51.8849L29.3348 47.2758C30.7784 47.7055 32.2622 48.0023 33.7659 48.1622M37.4896 48.3412C37.4896 54.2155 42.5162 58.9776 48.7168 58.9776C54.9175 58.9776 59.9441 54.2155 59.9441 48.3413C59.9441 42.4669 54.9175 37.7049 48.7168 37.7049C42.5162 37.7049 37.4896 42.4669 37.4896 48.3412Z" stroke="white" stroke-width="2.82" stroke-linecap="round" stroke-linejoin="round"/>
</svg>
