<svg width="62" height="62" viewBox="0 0 62 62" fill="none" xmlns="http://www.w3.org/2000/svg">
<path fill-rule="evenodd" clip-rule="evenodd" d="M1 31C1.00002 47.5685 14.4315 61 31 61C47.5686 61 61 47.5685 61 31C61 14.4315 47.5686 1 31 1C14.4315 1 1 14.4314 1 31Z" fill="#16A458"/>
<path fill-rule="evenodd" clip-rule="evenodd" d="M1 31C1.00002 47.5685 14.4315 61 31 61C47.5686 61 61 47.5685 61 31C61 14.4315 47.5686 1 31 1C14.4315 1 1 14.4314 1 31Z" stroke="white" stroke-width="2" stroke-linecap="round" stroke-linejoin="round"/>
<path d="M34.75 27.9846V21.2346H18.25V40.7331L27.25 40.7346M39.25 26.4846V18.2346C39.25 17.4062 38.5784 16.7346 37.75 16.7346H31.078C30.2829 14.9168 28.4871 13.7422 26.503 13.7422C24.5189 13.7422 22.7231 14.9168 21.928 16.7346H15.25C14.4216 16.7346 13.75 17.4062 13.75 18.2346V43.7346C13.75 44.563 14.4216 45.2346 15.25 45.2346H28.75M22.75 25.7346H30.25M22.75 30.2346H30.25M22.75 34.7346H27.25M48.25 48.2346L43.378 43.3641M31.75 38.5296C31.75 42.2815 34.7916 45.3231 38.5435 45.3231C42.2954 45.3231 45.337 42.2815 45.337 38.5296C45.337 34.7776 42.2954 31.7361 38.5435 31.7361C34.7916 31.7361 31.75 34.7776 31.75 38.5296Z" stroke="white" stroke-width="2" stroke-linecap="round" stroke-linejoin="round"/>
</svg>
