<svg width="86" height="87" viewBox="0 0 86 87" fill="none" xmlns="http://www.w3.org/2000/svg">
<g opacity="0.25">
<path fill-rule="evenodd" clip-rule="evenodd" d="M26.5436 83.0279C4.60913 73.9328 -5.8069 48.7601 3.27866 26.8027C12.3642 4.84539 37.5107 -5.58151 59.4452 3.51353C81.3797 12.6086 91.7957 37.7813 82.7101 59.7387C73.6246 81.696 48.4781 92.1229 26.5436 83.0279Z" fill="#FCBB1B"/>
</g>
<path fill-rule="evenodd" clip-rule="evenodd" d="M57.9935 65.2931V60.288L66.3733 51.8994C66.9804 51.2924 67.1622 50.379 66.8337 49.5855C66.5053 48.792 65.7314 48.2749 64.8734 48.2757H45.1137C44.2557 48.2749 43.4818 48.792 43.1533 49.5855C42.8249 50.379 43.0066 51.2924 43.6137 51.8994L51.9936 60.288V71.2993L57.9935 65.2931ZM41.4938 54.0215C41.3378 53.8761 41.1971 53.7151 41.0738 53.5411H36.2139V48.3958H40.4138C41.0643 46.8756 42.4027 45.7591 44.0137 45.3927L36.2139 45.3927V40.2674H44.3137V45.2726C44.58 45.2527 44.8474 45.2527 45.1137 45.2726H47.3137V40.2674H54.3135V45.2726H57.3135V28.0349C57.3135 25.4001 55.1856 23.261 52.5536 23.25H23.7741C21.1342 23.25 18.9941 25.3923 18.9941 28.0349V51.7792C19.0052 54.4141 21.142 56.5442 23.7741 56.5441L44.0137 56.5441L41.4938 54.0215ZM47.3137 32.1191H54.3135V37.2644H47.3137V32.1191ZM36.2139 32.1191H44.3137V37.2644H36.2139V32.1191ZM33.2139 53.5411H23.7741C22.7988 53.5411 22.005 52.7555 21.9941 51.7792V48.3958H33.2139V53.5411ZM33.2139 45.3927H21.9941V40.2674H33.2139V45.3927ZM33.2139 37.2644H21.9941V32.1191H33.2139V37.2644Z" fill="#FCBB1B"/>
</svg>
