<?xml version="1.0" encoding="UTF-8"?>
<svg id="Layer_1" xmlns="http://www.w3.org/2000/svg" version="1.1" viewBox="0 0 20 22">
  <!-- Generator: Adobe Illustrator 29.2.1, SVG Export Plug-In . SVG Version: 2.1.0 Build 116)  -->
  <defs>
    <style>
      .st0 {
        fill: #da4436;
        fill-rule: evenodd;
      }
    </style>
  </defs>
  <path class="st0" d="M9.4,17l-6.4-1.8,2.6-.7c.3,0,.5-.5.5-.8,0-.4-.4-.6-.8-.5L.5,14.6c-.3,0-.5.4-.5.7v4c0,.3.2.6.5.6l8.9,2v-4.9ZM20,15.2c0-.3-.2-.6-.5-.6l-4.7-1.3c-.3,0-.7.1-.8.5,0,.4.1.7.5.8l2.4.6-6.3,1.8v4.9l8.9-2c.3,0,.5-.3.5-.6v-4ZM13.8,9.1c-.2.8-.5,1.6-1,2.2.3.2.6.4.9.7.2.2.4.2.6.1.2,0,.4-.3.4-.5,0-.9-.2-1.9-.9-2.6ZM6.2,9.1c-.6.7-.9,1.6-.9,2.6,0,.2.2.4.4.5.2,0,.4,0,.6-.1.3-.3.5-.5.9-.7-.4-.7-.8-1.4-1-2.2ZM10,.8s-3,1.5-3,4.6.5,6.2,3,6.2,3-4.5,3-6.2c0-3.1-3-4.6-3-4.6ZM10,6.6c-.5,0-.9-.3-1.1-.7s0-1,.2-1.3c.3-.4.8-.5,1.3-.3.4.2.7.6.7,1.1,0,.3-.1.6-.3.9-.2.2-.5.4-.8.4ZM10,12.6c-.7,0-1.2.6-1.2,1.2s.5,2.3,1.2,2.3,1.2-1.6,1.2-2.3-.5-1.2-1.2-1.2Z"/>
</svg>