<svg width="92" height="82" viewBox="0 0 92 82" fill="none" xmlns="http://www.w3.org/2000/svg">
<path fill-rule="evenodd" clip-rule="evenodd" d="M81.2156 47.627L92 40.8889L81.2156 34.1507C78.0041 14.7711 61.1715 0 40.8889 0C18.3063 0 0 18.3063 0 40.8889C0 63.4715 18.3063 81.7778 40.8889 81.7778C61.1715 81.7778 78.0041 67.0067 81.2156 47.627ZM40.8889 71.5556C23.9541 71.5556 10.2222 57.8237 10.2222 40.8889C10.2222 23.9541 23.9541 10.2222 40.8889 10.2222C57.8237 10.2222 71.5556 23.9541 71.5556 40.8889C71.5556 57.8237 57.8237 71.5556 40.8889 71.5556Z" fill="#0072D3"/>
<path d="M34.0596 32.3413V44.0874H51.6787M38.4643 38.9485V44.0874M42.8691 36.7461V44.0874M47.2739 33.8096V44.0874M42.135 25C32.8101 25 25.25 31.2445 25.25 38.9485C25.3293 42.8334 27.1651 46.4731 30.2421 48.846L26.7183 57.3017L36.074 51.9558C38.0339 52.5796 40.0783 52.8971 42.135 52.897C51.4614 52.897 59.02 46.6524 59.02 38.9485C59.02 31.2445 51.4614 25 42.135 25Z" stroke="#212121" stroke-width="2.5" stroke-linecap="round" stroke-linejoin="round"/>
</svg>
