<svg width="52" height="52" viewBox="0 0 52 52" fill="none" xmlns="http://www.w3.org/2000/svg">
<g opacity="0.25">
<path fill-rule="evenodd" clip-rule="evenodd" d="M16.0528 50.0146C2.78992 44.5209 -3.50826 29.3158 1.98543 16.0528C7.47912 2.78992 22.6842 -3.50826 35.9472 1.98543C49.2101 7.47912 55.5083 22.6842 50.0146 35.9472C44.5209 49.2101 29.3158 55.5083 16.0528 50.0146Z" fill="#FCBB1B"/>
</g>
<path fill-rule="evenodd" clip-rule="evenodd" d="M38.0432 18.3743H37.7724V17.0204C37.7724 15.0761 36.1963 13.5 34.252 13.5C32.3078 13.5 30.7317 15.0761 30.7317 17.0204L30.7317 18.3743H30.4609C29.5635 18.3743 28.8361 19.1018 28.8361 19.9991V25.9567C28.8361 26.854 29.5635 27.5814 30.4609 27.5814H38.0432C38.9405 27.5814 39.668 26.854 39.668 25.9567V19.9991C39.668 19.1018 38.9405 18.3743 38.0432 18.3743ZM34.252 24.6027C33.6538 24.6027 33.1688 24.1177 33.1688 23.5195C33.1688 22.9213 33.6538 22.4363 34.252 22.4363C34.8503 22.4363 35.3352 22.9213 35.3352 23.5195C35.3352 24.1177 34.8503 24.6027 34.252 24.6027ZM36.1476 18.3743H32.3564V17.0204C32.3564 15.9735 33.2051 15.1248 34.252 15.1248C35.2989 15.1248 36.1476 15.9735 36.1476 17.0204L36.1476 18.3743ZM35.3352 29.477C34.737 29.477 34.252 29.962 34.252 30.5602V31.6434C34.252 32.2416 34.737 32.7266 35.3352 32.7266C35.9334 32.7266 36.4184 32.2416 36.4184 31.6434V30.5602C36.4184 29.962 35.9334 29.477 35.3352 29.477ZM35.3352 34.3514C34.737 34.3514 34.252 34.8363 34.252 35.4346V36.247C34.252 36.5461 34.0095 36.7885 33.7104 36.7885H32.898C32.2998 36.7885 31.8149 37.2735 31.8149 37.8717C31.8149 38.47 32.2998 38.9549 32.898 38.9549H33.7104C35.206 38.9549 36.4184 37.7425 36.4184 36.247V35.4346C36.4184 34.8363 35.9334 34.3514 35.3352 34.3514ZM29.1069 36.7885H27.2113C26.6131 36.7885 26.1281 37.2735 26.1281 37.8717C26.1281 38.47 26.6131 38.9549 27.2113 38.9549H29.1069C29.7051 38.9549 30.1901 38.47 30.1901 37.8717C30.1901 37.2735 29.7051 36.7885 29.1069 36.7885ZM18.0042 21.8947C17.406 21.8947 16.921 22.3797 16.921 22.9779V24.3319C16.921 24.9301 17.406 25.4151 18.0042 25.4151C18.6024 25.4151 19.0874 24.9301 19.0874 24.3319V22.9779C19.0874 22.3797 18.6024 21.8947 18.0042 21.8947ZM20.4414 15.6664H19.629C18.1334 15.6664 16.921 16.8788 16.921 18.3743V19.1867C16.921 19.785 17.406 20.2699 18.0042 20.2699C18.6024 20.2699 19.0874 19.785 19.0874 19.1867V18.3743C19.0874 18.0752 19.3299 17.8328 19.629 17.8328H20.4414C21.0396 17.8328 21.5246 17.3478 21.5246 16.7496C21.5246 16.1513 21.0396 15.6664 20.4414 15.6664ZM26.1281 15.6664H24.2325C23.6343 15.6664 23.1493 16.1513 23.1493 16.7496C23.1493 17.3478 23.6343 17.8328 24.2325 17.8328H26.1281C26.7263 17.8328 27.2113 17.3478 27.2113 16.7496C27.2113 16.1513 26.7263 15.6664 26.1281 15.6664ZM15.8378 31.3726C15.8378 33.1673 17.2927 34.6222 19.0874 34.6222C20.8821 34.6222 22.337 33.1673 22.337 31.3726C22.337 29.5779 20.8821 28.123 19.0874 28.123C17.2927 28.123 15.8378 29.5779 15.8378 31.3726ZM19.0874 35.7054C16.892 35.7059 14.859 36.8624 13.7364 38.7491C13.6451 38.9027 13.6451 39.0938 13.7364 39.2474C13.8312 39.4072 14.0056 39.5027 14.1914 39.4965H23.9401C24.122 39.4988 24.2913 39.4038 24.3842 39.2474C24.4755 39.0938 24.4755 38.9027 24.3842 38.7491C23.2716 36.8789 21.2635 35.7249 19.0874 35.7054Z" fill="#FCBB1B"/>
</svg>
