<svg width="62" height="62" viewBox="0 0 62 62" fill="none" xmlns="http://www.w3.org/2000/svg">
<path d="M33.3233 45.6145H7.89516C4.98219 45.6117 2.62223 43.2495 2.62224 40.3365V7.3561C2.62223 4.44312 4.98219 2.08091 7.89516 2.07812H47.4736C50.3876 2.07952 52.7491 4.44214 52.7491 7.3561L52.7491 23.349H2.61719M2.61719 12.3842H52.7491M2.61719 34.2811H33.3233M23.093 12.3842V45.6145M37.7734 12.3842V30.1036M38.5559 45.1197C38.5559 43.0468 40.2363 41.3663 42.3093 41.3663H56.4242C58.4952 41.3691 60.1726 43.0488 60.1726 45.1197V56.3799C60.1726 58.4509 58.4952 60.1305 56.4242 60.1333H42.3093C40.2363 60.1333 38.5559 58.4528 38.5559 56.3799L38.5559 45.1197ZM49.3668 30.0961C45.3044 30.1802 42.0786 33.5404 42.1603 37.6028V41.3588H56.5732V37.6104C56.6591 33.545 53.4322 30.1802 49.3668 30.0961ZM49.3668 48.1209C48.258 48.0756 47.233 48.7087 46.7772 49.7204C46.3213 50.7321 46.5261 51.9193 47.2946 52.7198C48.0631 53.5203 49.241 53.7734 50.2705 53.3591C51.2999 52.9449 51.9743 51.9466 51.9742 50.8369C52.0038 49.367 50.8366 48.1513 49.3668 48.1209Z" stroke="#FF8288" stroke-width="3.5" stroke-linecap="round" stroke-linejoin="round"/>
</svg>
