<svg width="64" height="66" viewBox="0 0 64 66" fill="none" xmlns="http://www.w3.org/2000/svg">
<path fill-rule="evenodd" clip-rule="evenodd" d="M63.0091 63.1826C64.0636 62.1217 64.0636 60.4084 63.0091 59.3475L50.3073 46.6457C49.872 46.1368 49.872 45.3867 50.3073 44.8778C58.0248 34.6793 57.8471 20.5466 49.8758 10.5453C41.9044 0.54399 28.1674 -2.78141 16.5044 2.46692C4.84149 7.71525 -1.78005 20.202 0.418718 32.801C2.61749 45.4 13.0771 54.9057 25.8284 55.8933C26.1825 55.9217 26.4551 56.218 26.454 56.5733V59.2931C26.454 59.6687 26.1495 59.9731 25.774 59.9731H22.5373C21.0352 59.9731 19.8175 61.1908 19.8175 62.693C19.8175 64.1951 21.0352 65.4129 22.5373 65.4129H35.8375C37.3397 65.4129 38.5574 64.1951 38.5574 62.693C38.5574 61.1908 37.3397 59.9731 35.8375 59.9731H32.5737C32.1981 59.9731 31.8937 59.6687 31.8937 59.2931V56.2741C31.8894 55.9372 32.1323 55.648 32.4649 55.5941C36.8993 54.871 41.0909 53.0787 44.6771 50.372C45.2242 49.958 45.9938 50.0164 46.4722 50.5079L59.0381 63.1826C59.5488 63.6975 60.244 63.9871 60.9692 63.9871C61.6944 63.9871 62.3896 63.6975 62.9003 63.1826H63.0091ZM5.32052 28.0418C5.30349 17.831 12.1504 8.88322 22.0106 6.23058C31.8709 3.57793 42.283 7.88259 47.3914 16.7237C52.4998 25.5648 51.0292 36.7352 43.8068 43.953C37.3715 50.4217 27.669 52.3681 19.2368 48.882C10.8045 45.3959 5.3091 37.1662 5.32052 28.0418ZM29.1194 45.3674C30.6216 45.3674 31.8393 44.1496 31.8393 42.6475V28.0962C31.8393 27.3451 32.4482 26.7362 33.1992 26.7362H39.7269C40.0876 26.7318 40.4333 26.88 40.6789 27.1442C40.9327 27.397 41.0789 27.7381 41.0869 28.0962V32.04C41.0869 33.5421 42.3046 34.7599 43.8068 34.7599C45.3089 34.7599 46.5266 33.5421 46.5266 32.04V26.709C46.5266 23.7047 44.0912 21.2693 41.0869 21.2693H17.2064C14.2021 21.2693 11.7666 23.7047 11.7666 26.709V32.0128C11.7666 33.5149 12.9843 34.7327 14.4865 34.7327C15.9886 34.7327 17.2064 33.5149 17.2064 32.0128V28.1506C17.1991 27.7852 17.3391 27.4323 17.5949 27.1713C17.8508 26.9104 18.2009 26.7634 18.5663 26.7634H25.094C25.4593 26.7753 25.8076 26.9204 26.0732 27.1714C26.3194 27.4269 26.4561 27.7685 26.454 28.1234V42.6747C26.4684 44.1453 27.6491 45.338 29.1194 45.3674Z" fill="#16A458"/>
</svg>
