<svg width="86" height="86" viewBox="0 0 86 86" fill="none" xmlns="http://www.w3.org/2000/svg">
<g opacity="0.25">
<path fill-rule="evenodd" clip-rule="evenodd" d="M26.5489 82.7164C4.61409 73.6307 -5.80212 48.4838 3.2836 26.5489C12.3693 4.61409 37.5162 -5.80212 59.4511 3.2836C81.3859 12.3693 91.8021 37.5162 82.7164 59.4511C73.6307 81.3859 48.4838 91.8021 26.5489 82.7164Z" fill="#FCBB1B"/>
</g>
<path fill-rule="evenodd" clip-rule="evenodd" d="M63.88 35.1399C63.7176 35.7487 63.3977 36.3039 62.9525 36.7498L61.5 38.2023V49.8747C61.5 50.3579 61.1083 50.7496 60.6251 50.7496H27.3755C26.8923 50.7496 26.5005 50.3579 26.5005 49.8747V29.0324C26.4601 28.5067 26.8503 28.0463 27.3755 28H51.2977L52.7502 26.5475C53.1858 26.1106 53.7291 25.7967 54.3251 25.6375C54.4357 25.2286 54.6195 24.8432 54.8676 24.5H27.3755C24.9177 24.5479 22.9615 26.5745 23.0006 29.0324V53.3746C23.0006 56.2741 25.351 58.6245 28.2505 58.6245H40.9378C41.1795 58.6245 41.3753 58.8204 41.3753 59.062V62.562C41.3753 62.8036 41.1795 62.9995 40.9378 62.9995H31.7505C30.784 62.9995 30.0005 63.783 30.0005 64.7495C30.0005 65.7159 30.784 66.4994 31.7505 66.4994H56.2501C57.2166 66.4994 58.0001 65.7159 58.0001 64.7495C58.0001 63.783 57.2166 62.9995 56.2501 62.9995H45.3128C45.0711 62.9995 44.8753 62.8036 44.8753 62.562V59.062C44.8753 58.8204 45.0711 58.6245 45.3128 58.6245H59.7501C62.6495 58.6245 65 56.2741 65 53.3746V34.6149C64.6517 34.8389 64.275 35.0155 63.88 35.1399ZM30.0005 35.8748V32.3749C30.0005 32.3749 30.0005 30.6249 31.7505 30.6249H35.2504C35.2504 30.6249 37.0004 30.6249 37.0004 32.3749V35.8748C37.0004 35.8748 37.0004 37.6248 35.2504 37.6248H31.7505C31.7505 37.6248 30.0005 37.6248 30.0005 35.8748ZM30.0005 46.3747V42.8748C30.0005 42.8748 30.0005 41.1248 31.7505 41.1248H35.2504C35.2504 41.1248 37.0004 41.1248 37.0004 42.8748V46.3747C37.0004 46.3747 37.0004 48.1247 35.2504 48.1247H31.7505C31.7505 48.1247 30.0005 48.1247 30.0005 46.3747Z" fill="#FCBB1B"/>
</svg>
