<svg width="54" height="56" viewBox="0 0 54 56" fill="none" xmlns="http://www.w3.org/2000/svg">
<path d="M16.855 21.8771C13.7439 20.178 9.96754 20.245 6.91876 22.0535C3.86998 23.8619 2.00054 27.1438 2 30.6886V39.2936H6.54158L7.73815 53.6367H16.3431M41.8168 34.5365C43.3862 40.6365 40.6635 47.0302 35.1781 50.126C29.6928 53.2219 22.8121 52.2482 18.4011 47.7519C13.9901 43.2557 13.1483 36.3576 16.3486 30.9325C19.5489 25.5074 25.9936 22.9076 32.0624 24.5935M35.2839 38.0297C35.2839 41.8807 32.1621 45.0025 28.3111 45.0025C24.4601 45.0025 21.3382 41.8807 21.3382 38.0297C21.3382 34.1787 24.4601 31.0568 28.3111 31.0568M38.3708 27.7208L28.6882 38.0297M38.3708 27.7208L38.034 19.6658L44.8924 13.3552L44.8992 20.8646H52L45.6894 27.7208H38.3708ZM4.15068 9.8912C4.14937 14.249 7.68171 17.7824 12.0395 17.7824C16.3973 17.7824 19.9296 14.249 19.9283 9.8912C19.9296 5.53339 16.3973 2 12.0395 2C7.68171 2 4.14937 5.53339 4.15068 9.8912Z" stroke="#FCBB1B" stroke-width="4" stroke-linecap="round" stroke-linejoin="round"/>
</svg>
