<svg width="48" height="48" viewBox="0 0 48 48" fill="none" xmlns="http://www.w3.org/2000/svg">
<path fill-rule="evenodd" clip-rule="evenodd" d="M41.614 5.646C38.38 5.646 36.122 4.15 36.122 2.824C36.122 1.496 38.382 0 41.614 0C44.846 0 47.09 1.496 47.09 2.824C47.09 4.15 44.846 5.646 41.614 5.646ZM24.634 7.4C24.634 6.29543 25.5294 5.4 26.634 5.4H30.26C31.3646 5.4 32.26 6.29543 32.26 7.4C32.26 8.50457 31.3646 9.4 30.26 9.4H28.634V22H30.26C31.3646 22 32.26 22.8954 32.26 24C32.26 25.1046 31.3646 26 30.26 26H28.634V38.6H30.26C31.3646 38.6 32.26 39.4954 32.26 40.6C32.26 41.7046 31.3646 42.6 30.26 42.6H26.634C25.5294 42.6 24.634 41.7046 24.634 40.6V26H22.106C21.0014 26 20.106 25.1046 20.106 24C20.106 22.8954 21.0014 22 22.106 22H24.636V7.4H24.634ZM16.738 31.81C16.738 33.524 12.984 34.918 8.37 34.918C3.754 34.918 0.00200081 33.524 0.00200081 31.81V28.104C0.00200081 28.016 0.0220004 27.932 0.0600004 27.854C0.0949274 27.7795 0.147021 27.7144 0.212001 27.664C0.355349 27.5857 0.528653 27.5857 0.672001 27.664C3.08115 28.7769 5.71778 29.3092 8.37 29.218C11.0222 29.3092 13.6589 28.7769 16.068 27.664C16.2108 27.5865 16.3832 27.5865 16.526 27.664C16.5917 27.7142 16.6445 27.7793 16.68 27.854C16.7163 27.9325 16.7361 28.0176 16.738 28.104V31.81ZM8.37 27.108C12.984 27.108 16.738 25.714 16.738 24V20.292C16.7362 20.206 16.7157 20.1213 16.678 20.044C16.6431 19.9695 16.591 19.9044 16.526 19.854C16.3853 19.7661 16.2067 19.7661 16.066 19.854C13.6544 20.9573 11.0207 21.4891 8.37 21.408C5.71793 21.4897 3.0828 20.9579 0.67 19.854C0.52976 19.7669 0.352241 19.7669 0.212001 19.854C0.147021 19.9044 0.0949274 19.9695 0.0600004 20.044C0.0222724 20.1213 0.001799 20.206 0 20.292V24C0 25.714 3.754 27.108 8.37 27.108ZM16.738 16.188C16.738 17.906 12.99 19.296 8.37 19.296C3.748 19.296 0.00200081 17.906 0.00200081 16.19C0.00200081 14.474 3.746 13.08 8.37 13.08C12.99 13.08 16.738 14.472 16.738 16.188ZM47.09 6.706C47.0885 6.57931 47.0191 6.46318 46.9082 6.40193C46.7973 6.34068 46.662 6.34376 46.554 6.41C45.055 7.27841 43.346 7.71777 41.614 7.68C39.8818 7.72006 38.1721 7.28054 36.674 6.41C36.5595 6.34664 36.4205 6.34664 36.306 6.41C36.1948 6.47416 36.1251 6.59164 36.122 6.72V11.294C36.122 12.62 38.382 14.118 41.614 14.118C44.846 14.118 47.09 12.706 47.09 11.294V6.706ZM47.04 23.466C47.0719 23.5192 47.0891 23.5799 47.09 23.642L47.09 28.23C47.09 29.642 44.846 31.054 41.614 31.054C38.38 31.054 36.122 29.556 36.122 28.23V23.656C36.1251 23.5276 36.1948 23.4102 36.306 23.346C36.4201 23.2838 36.5579 23.2838 36.672 23.346C38.172 24.216 39.88 24.656 41.612 24.616C43.3449 24.6541 45.0548 24.214 46.554 23.344C46.6342 23.2949 46.7308 23.28 46.8221 23.3025C46.9134 23.3251 46.9918 23.3832 47.04 23.464V23.466ZM47.09 40.588C47.0885 40.4613 47.0191 40.3452 46.9082 40.2839C46.7973 40.2227 46.662 40.2258 46.554 40.292C45.055 41.1604 43.346 41.5998 41.614 41.562C39.8818 41.6021 38.1721 41.1625 36.674 40.292C36.5594 40.229 36.4206 40.229 36.306 40.292C36.1948 40.3562 36.1251 40.4736 36.122 40.602V45.176C36.122 46.504 38.382 48 41.614 48C44.846 48 47.09 46.588 47.09 45.176V40.588ZM36.122 19.76C36.122 21.086 38.382 22.582 41.614 22.582C44.846 22.582 47.09 21.086 47.09 19.76C47.09 18.432 44.846 16.936 41.614 16.936C38.38 16.936 36.122 18.432 36.122 19.76ZM41.614 39.53C38.38 39.53 36.122 38.034 36.122 36.706C36.122 35.38 38.382 33.882 41.614 33.882C44.846 33.882 47.09 35.38 47.09 36.706C47.09 38.034 44.846 39.53 41.614 39.53Z" fill="#FCBB1B"/>
</svg>
