<svg width="86" height="87" viewBox="0 0 86 87" fill="none" xmlns="http://www.w3.org/2000/svg">
<g opacity="0.25">
<path fill-rule="evenodd" clip-rule="evenodd" d="M26.5387 83.0279C4.60425 73.9328 -5.81179 48.7601 3.27378 26.8027C12.3593 4.84539 37.5059 -5.58151 59.4403 3.51353C81.3748 12.6086 91.7908 37.7813 82.7053 59.7387C73.6197 81.696 48.4732 92.1229 26.5387 83.0279Z" fill="#FCBB1B"/>
</g>
<path fill-rule="evenodd" clip-rule="evenodd" d="M57.6026 24.8979C54.3686 24.8979 52.1107 23.4004 52.1107 22.073C52.1107 20.7436 54.3706 19.2461 57.6026 19.2461C60.8345 19.2461 63.0785 20.7436 63.0785 22.073C63.0785 23.4004 60.8345 24.8979 57.6026 24.8979ZM40.6228 26.6537C40.6228 25.548 41.5183 24.6516 42.6228 24.6516H46.2488C47.3533 24.6516 48.2487 25.548 48.2487 26.6537C48.2487 27.7594 47.3533 28.6557 46.2488 28.6557H44.6228V41.2687H46.2488C47.3533 41.2687 48.2487 42.165 48.2487 43.2707C48.2487 44.3764 47.3533 45.2728 46.2488 45.2728H44.6228V57.8857H46.2488C47.3533 57.8857 48.2487 58.7821 48.2487 59.8878C48.2487 60.9935 47.3533 61.8898 46.2488 61.8898H42.6228C41.5183 61.8898 40.6228 60.9935 40.6228 59.8878V45.2728H38.0949C36.9903 45.2728 36.0949 44.3764 36.0949 43.2707C36.0949 42.165 36.9903 41.2687 38.0949 41.2687H40.6248V26.6537H40.6228ZM32.727 51.0887C32.727 52.8045 28.973 54.1999 24.3591 54.1999C19.7432 54.1999 15.9913 52.8045 15.9913 51.0887V47.3789C15.9913 47.2908 16.0113 47.2068 16.0493 47.1287C16.0842 47.0541 16.1363 46.989 16.2013 46.9385C16.3446 46.8601 16.5179 46.8601 16.6612 46.9385C19.0704 48.0526 21.7069 48.5854 24.3591 48.4941C27.0113 48.5854 29.6479 48.0526 32.057 46.9385C32.1998 46.8609 32.3722 46.8609 32.515 46.9385C32.5807 46.9887 32.6335 47.0539 32.669 47.1287C32.7053 47.2072 32.7251 47.2924 32.727 47.3789V51.0887ZM24.3591 46.3819C28.973 46.3819 32.727 44.9865 32.727 43.2707V39.5589C32.7252 39.4728 32.7047 39.3881 32.667 39.3107C32.6321 39.2361 32.58 39.1709 32.515 39.1205C32.3743 39.0324 32.1957 39.0324 32.055 39.1205C29.6435 40.2249 27.0098 40.7573 24.3591 40.6761C21.7071 40.7579 19.072 40.2255 16.6592 39.1205C16.519 39.0333 16.3415 39.0333 16.2013 39.1205C16.1363 39.1709 16.0842 39.2361 16.0493 39.3107C16.0115 39.3881 15.9911 39.4728 15.9893 39.5589V43.2707C15.9893 44.9865 19.7432 46.3819 24.3591 46.3819ZM32.727 35.4507C32.727 37.1705 28.979 38.5619 24.3591 38.5619C19.7372 38.5619 15.9913 37.1705 15.9913 35.4527C15.9913 33.7349 19.7352 32.3395 24.3591 32.3395C28.979 32.3395 32.727 33.7329 32.727 35.4507ZM63.0785 25.959C63.077 25.8322 63.0076 25.7159 62.8967 25.6546C62.7858 25.5933 62.6505 25.5964 62.5425 25.6627C61.0435 26.532 59.3345 26.9718 57.6026 26.934C55.8703 26.9741 54.1608 26.5341 52.6626 25.6627C52.5482 25.5992 52.4091 25.5992 52.2946 25.6627C52.1834 25.7269 52.1137 25.8445 52.1107 25.973V30.5517C52.1107 31.879 54.3706 33.3786 57.6026 33.3786C60.8345 33.3786 63.0785 31.9651 63.0785 30.5517V25.959ZM63.0285 42.7362C63.0604 42.7895 63.0776 42.8502 63.0785 42.9124L63.0785 47.5051C63.0785 48.9185 60.8345 50.332 57.6026 50.332C54.3686 50.332 52.1107 48.8324 52.1107 47.5051V42.9264C52.1137 42.7979 52.1834 42.6803 52.2946 42.6161C52.4087 42.5537 52.5466 42.5537 52.6606 42.6161C54.1606 43.4869 55.8686 43.9274 57.6006 43.8874C59.3334 43.9254 61.0433 43.4849 62.5425 42.6141C62.6227 42.5649 62.7192 42.55 62.8105 42.5726C62.9018 42.5951 62.9803 42.6533 63.0285 42.7342V42.7362ZM63.0785 59.8757C63.077 59.7489 63.0076 59.6327 62.8967 59.5714C62.7858 59.5101 62.6505 59.5131 62.5425 59.5794C61.0435 60.4488 59.3345 60.8886 57.6026 60.8507C55.8703 60.8908 54.1608 60.4509 52.6626 59.5794C52.5481 59.5164 52.4092 59.5164 52.2946 59.5794C52.1834 59.6437 52.1137 59.7613 52.1107 59.8898V64.4685C52.1107 65.7978 54.3706 67.2954 57.6026 67.2954C60.8345 67.2954 63.0785 65.8819 63.0785 64.4685V59.8757ZM52.1107 39.0264C52.1107 40.3537 54.3706 41.8513 57.6026 41.8513C60.8345 41.8513 63.0785 40.3537 63.0785 39.0264C63.0785 37.697 60.8345 36.1995 57.6026 36.1995C54.3686 36.1995 52.1107 37.697 52.1107 39.0264ZM57.6026 58.8167C54.3686 58.8167 52.1107 57.3191 52.1107 55.9898C52.1107 54.6624 54.3706 53.1629 57.6026 53.1629C60.8345 53.1629 63.0785 54.6624 63.0785 55.9898C63.0785 57.3191 60.8345 58.8167 57.6026 58.8167Z" fill="#FCBB1B"/>
</svg>
