<svg width="86" height="86" viewBox="0 0 86 86" fill="none" xmlns="http://www.w3.org/2000/svg">
<circle cx="43" cy="43" r="43" fill="#DA4436"/>
<path fill-rule="evenodd" clip-rule="evenodd" d="M39.8917 49.49C39.8911 51.566 41.6396 53.2492 43.7967 53.2492C45.9537 53.2492 47.7022 51.566 47.7017 49.49C47.7022 47.414 45.9537 45.7308 43.7967 45.7308C41.6396 45.7308 39.8911 47.414 39.8917 49.49ZM57.2167 56.86C53.541 56.7987 50.5119 59.7293 50.4517 63.405C50.2641 59.8005 47.2868 56.9742 43.6775 56.9742C40.0682 56.9742 37.0909 59.8005 36.9033 63.405L36.9033 65H64V63.405C63.9711 61.6367 63.2395 59.9526 61.9668 58.7246C60.6941 57.4966 58.9849 56.8257 57.2167 56.86ZM53.4583 49.49C53.4578 51.566 55.2063 53.2492 57.3633 53.2492C59.5204 53.2492 61.2689 51.566 61.2683 49.49C61.2689 47.414 59.5204 45.7308 57.3633 45.7308C55.2063 45.7308 53.4578 47.414 53.4583 49.49ZM58.3717 32.1283L56.6667 29.25C56.2681 28.6415 55.4646 28.4486 54.8333 28.81L52.3583 30.1667L50.525 28.0583C50.0254 27.4928 49.1694 27.4201 48.5817 27.8933C48.3011 28.1285 48.126 28.4659 48.095 28.8307C48.064 29.1955 48.1798 29.5575 48.4167 29.8367L50.9283 32.825C51.3712 33.3829 52.1668 33.5102 52.7617 33.1183L54.9617 31.8167L56.0617 33.65C56.3119 34.047 56.7474 34.2889 57.2167 34.2917C57.4775 34.2924 57.7327 34.2158 57.95 34.0717C58.2747 33.8794 58.5046 33.5607 58.5846 33.192C58.6646 32.8232 58.5875 32.4378 58.3717 32.1283ZM22.7683 29.9833C22.7683 32.5956 24.886 34.7133 27.4983 34.7133C30.1106 34.7133 32.2283 32.5956 32.2283 29.9833C32.2283 27.371 30.1106 25.2533 27.4983 25.2533C24.886 25.2533 22.7683 27.371 22.7683 29.9833ZM34.0067 50.9017V46.52L43.9983 33.43C44.7687 32.5683 44.9881 31.3461 44.5656 30.2702C44.143 29.1943 43.1506 28.4481 41.9997 28.341C40.8487 28.2338 39.7356 28.7839 39.1217 29.7633L33.6217 36.7667C33.2446 37.22 32.6895 37.4876 32.1 37.5H26.1417C22.7782 37.4998 20.0402 40.2051 20 43.5683V50.7367L34.0067 50.9017ZM60.6267 21H40.3317C38.4686 21 36.9583 22.5103 36.9583 24.3733V29.5067L37.71 28.535C38.2264 27.8521 38.9165 27.3203 39.7083 26.995L39.7083 24.3733C39.7083 24.0291 39.9874 23.75 40.3317 23.75H60.6267C60.9709 23.75 61.25 24.0291 61.25 24.3733V37.3167C61.25 37.6609 60.9709 37.94 60.6267 37.94H42.8617L40.7533 40.69H60.6267C62.4897 40.69 64 39.1797 64 37.3167V24.3733C64 22.5103 62.4897 21 60.6267 21Z" fill="white"/>
</svg>
