<svg width="62" height="62" viewBox="0 0 62 62" fill="none" xmlns="http://www.w3.org/2000/svg">
<path d="M39.8699 19.7471C38.8401 15.7087 35.203 12.8827 31.0354 12.8827C26.8678 12.8827 23.2307 15.7087 22.2009 19.7471M60.063 60.1333C59.0332 56.0949 55.3961 53.2689 51.2285 53.2689C47.0609 53.2689 43.4238 56.0949 42.394 60.1333M19.6768 60.1333C18.647 56.0949 15.0099 53.2689 10.8423 53.2689C6.67468 53.2689 3.03759 56.0949 2.00781 60.1333M38.734 53.823C33.7394 55.5051 28.3314 55.5051 23.3368 53.823M41.7579 9.65054C51.1177 14.3403 56.3608 24.5529 54.7169 34.8919M7.35394 34.8919C5.70999 24.5516 10.9556 14.3381 20.3179 9.65054M28.5113 34.8919C28.5113 36.286 29.6414 37.4161 31.0354 37.4161C32.4294 37.4161 33.5595 36.286 33.5595 34.8919C33.5595 33.4979 32.4294 32.3678 31.0354 32.3678C29.6414 32.3678 28.5113 33.4979 28.5113 34.8919ZM33.1784 25.1286L33.923 27.5719C34.1781 28.4141 35.0418 28.9149 35.8994 28.7179L38.3756 28.1424C39.3393 27.926 40.3316 28.3621 40.8238 29.2185C41.3159 30.0748 41.1933 31.1519 40.5211 31.8756L38.787 33.746C38.1892 34.393 38.1892 35.3909 38.787 36.0379L40.5211 37.9083C41.1933 38.632 41.3159 39.709 40.8238 40.5653C40.3316 41.4217 39.3393 41.8579 38.3756 41.6415L35.8994 41.066C35.0418 40.8689 34.1781 41.3697 33.923 42.2119L33.1784 44.6553C32.8985 45.6071 32.025 46.2607 31.0329 46.2607C30.0408 46.2607 29.1673 45.6071 28.8874 44.6553L28.1427 42.2119C27.8877 41.3697 27.024 40.8689 26.1663 41.066L23.6902 41.6415C22.7265 41.8579 21.7341 41.4217 21.242 40.5653C20.7498 39.709 20.8725 38.632 21.5446 37.9083L23.2787 36.0379C23.8765 35.3909 23.8765 34.393 23.2787 33.746L21.5446 31.8756C20.8725 31.1519 20.7498 30.0748 21.242 29.2185C21.7341 28.3621 22.7265 27.926 23.6902 28.1424L26.1663 28.7179C27.024 28.9149 27.8877 28.4141 28.1427 27.5719L28.8874 25.1286C29.1673 24.1768 30.0408 23.5232 31.0329 23.5232C32.025 23.5232 32.8985 24.1768 33.1784 25.1286ZM26.6182 6.49537C26.6182 8.93494 28.5958 10.9126 31.0354 10.9126C33.475 10.9126 35.4526 8.93494 35.4526 6.49537C35.4526 4.05579 33.475 2.07812 31.0354 2.07812C28.5958 2.07812 26.6182 4.05579 26.6182 6.49537ZM46.8113 46.8816C46.8113 49.3212 48.7889 51.2988 51.2285 51.2988C53.6681 51.2988 55.6457 49.3212 55.6457 46.8816C55.6457 44.442 53.6681 42.4643 51.2285 42.4643C48.7889 42.4643 46.8113 44.442 46.8113 46.8816ZM6.42505 46.8816C6.42505 49.3212 8.40272 51.2988 10.8423 51.2988C13.2819 51.2988 15.2595 49.3212 15.2595 46.8816C15.2595 44.442 13.2819 42.4643 10.8423 42.4643C8.40272 42.4643 6.42505 44.442 6.42505 46.8816Z" stroke="#CB0B13" stroke-width="3.5" stroke-linecap="round" stroke-linejoin="round"/>
</svg>
