<svg width="73" height="73" viewBox="0 0 73 73" fill="none" xmlns="http://www.w3.org/2000/svg">
<path fill-rule="evenodd" clip-rule="evenodd" d="M0 36.5C3.04167e-05 56.6584 16.3416 73 36.5 73C56.6584 73 73 56.6584 73 36.5C73 16.3416 56.6584 0 36.5 0C16.3416 0 0 16.3416 0 36.5Z" fill="#16A458"/>
<g clip-path="url(#clip0_5201_20663)">
<path d="M46.5267 43.9946L44.0398 42.9676C42.5237 44.8777 40.3737 46.0236 37.9688 46.3732L37.9437 49.9158C38.3375 50.1694 38.7234 50.2334 39.1172 50.5339C41.6747 52.4783 40.6537 56.6047 37.5397 56.9737C33.8543 57.4101 31.9956 52.7867 34.9583 50.5339C35.3521 50.2346 35.7391 50.1706 36.1317 49.9158L36.1067 46.3732C33.2214 45.9688 30.4853 44.2745 29.2412 41.5899L27.0639 42.7014C27.7286 47.6744 21.5233 50.6184 18.2089 46.7216C15.7061 43.7787 17.2995 39.2262 21.06 38.4642C23.3113 38.0072 25.2314 39.0617 26.4857 40.8941L28.4639 39.9528C28.457 39.3644 28.2556 38.8035 28.2169 38.2163C28.0632 35.8709 28.7427 33.73 30.1597 31.8827L26.5984 28.2886C26.4197 28.2075 25.5342 28.6268 25.1871 28.6679C21.0805 29.1512 19.6293 23.5362 23.1361 21.9059C26.3207 20.4253 29.4268 23.7886 27.8083 26.8538L31.4334 30.5495C31.5836 30.5883 32.4589 29.9006 32.6797 29.7738C35.7835 28.0007 39.7898 28.3503 42.5772 30.5609L46.7555 26.4539C45.0562 23.7875 45.7675 20.1672 48.6118 18.6557C53.3535 16.1355 58.4013 21.3724 55.755 25.9958C54.1684 28.7685 50.6901 29.4642 48.0427 27.7471L43.9191 31.8804C46.0339 34.5285 46.4698 38.2506 45.0425 41.3328L47.353 42.3576L47.4759 42.3176C49.7967 39.2033 54.6385 39.6432 56.3969 43.1081C58.7689 47.7806 53.6983 52.7536 49.1229 50.238C46.8624 48.995 45.9519 46.4783 46.529 43.9924L46.5267 43.9946Z" fill="white"/>
</g>
<defs>
<clipPath id="clip0_5201_20663">
<rect width="40" height="39" fill="white" transform="translate(17 18)"/>
</clipPath>
</defs>
</svg>
