<svg width="79" height="79" viewBox="0 0 79 79" fill="none" xmlns="http://www.w3.org/2000/svg">
<circle cx="39.5" cy="39.5" r="39.5" fill="#DA4436"/>
<path fill-rule="evenodd" clip-rule="evenodd" d="M41.2185 18.6027L43.6478 23.6613H47.8973C48.9083 23.6613 49.5156 24.876 48.7065 25.6851L44.6588 29.5291L46.8863 34.5896C47.29 35.6006 46.279 36.6134 45.2661 36.0061L40.0057 32.9694L34.7434 36.0061C33.7324 36.6134 32.5177 35.6006 33.1251 34.5896L35.3488 29.5291L31.3049 25.6851C30.951 25.3565 30.8358 24.844 31.0151 24.3956C31.1944 23.9471 31.6312 23.6553 32.1141 23.6613H36.3635L38.7929 18.6027C39.1965 17.8047 40.8167 17.7935 41.2222 18.6027H41.2185ZM39.8468 57.3282C36.4495 57.3282 33.2783 58.5242 30.7181 60.2957C30.3804 60.5279 30.2335 60.9531 30.3557 61.3443C30.478 61.7355 30.8409 62.0014 31.2507 62H48.443C48.8438 62.0008 49.2005 61.7459 49.3295 61.3664C49.4586 60.9869 49.3312 60.5674 49.0129 60.3237C46.4042 58.3167 43.2087 57.3263 39.8468 57.3263V57.3282ZM52.6196 34.8045L49.4521 36.6302C49.8901 35.6192 49.8901 34.4719 49.4521 33.4609L48.0188 30.2056L50.6368 27.7164L50.6892 27.6678C52.5112 25.844 52.1206 23.3959 50.6611 21.9869L51.4049 20.4359C51.8104 19.6267 53.4287 19.6398 53.8342 20.4359L56.2617 25.4945H60.5112C61.5222 25.4945 62.1295 26.7092 61.3203 27.5183L57.2727 31.366L59.5002 36.4247C60.1075 37.4375 58.8929 38.4485 57.88 37.8412L52.6196 34.8045ZM29.1372 22.2056L28.2888 20.4359C27.8833 19.6267 26.265 19.6398 25.8595 20.4359L23.4339 25.4945H19.1825C18.6996 25.4885 18.2628 25.7803 18.0835 26.2288C17.9042 26.6772 18.0194 27.1898 18.3734 27.5183L22.421 31.366L20.1935 36.4247C19.588 37.4375 20.8008 38.4485 21.8137 37.8412L27.0741 34.8045L30.5537 36.8115C30.0022 35.7147 30.0238 34.4172 30.6116 33.3394L31.9907 30.2056L29.3727 27.7164C29.355 27.7005 29.3376 27.6843 29.3203 27.6678C27.5899 25.9355 27.8553 23.6389 29.1372 22.2056ZM34.2127 46.9923C34.2127 46.2261 34.3603 45.4973 34.6275 44.8302C36.8854 46.5063 39.623 47.4105 42.435 47.409C43.6945 47.409 44.7261 47.3156 45.7987 46.9979C45.7969 50.1971 43.2021 52.7891 40.0029 52.7875C36.8037 52.786 34.2114 50.1915 34.2127 46.9923ZM30.4752 46.9923C30.4752 41.7288 34.7421 37.4618 40.0057 37.4618C45.2692 37.4618 49.5362 41.7288 49.5362 46.9923C49.5362 52.2558 45.2692 56.5228 40.0057 56.5228C34.7421 56.5228 30.4752 52.2558 30.4752 46.9923Z" fill="white"/>
</svg>
