<?xml version="1.0" encoding="UTF-8"?>
<svg id="Layer_1" xmlns="http://www.w3.org/2000/svg" version="1.1" viewBox="0 0 38 38">
  <!-- Generator: Adobe Illustrator 29.2.1, SVG Export Plug-In . SVG Version: 2.1.0 Build 116)  -->
  <defs>
    <style>
      .st0 {
        fill: #fff;
      }
    </style>
  </defs>
  <path class="st0" d="M19,0C8.5,0,0,8.5,0,19s8.5,19,19,19,19-8.5,19-19S29.5,0,19,0ZM27.6,20.1l-7,7c-.4.4-.9.5-1.5.4-.5-.1-.9-.5-1.1-1.1-.1-.5,0-1.1.4-1.5l4.4-4.4h-11.4c-.8,0-1.5-.7-1.5-1.5s.7-1.5,1.5-1.5h11.4l-4.4-4.4c-.4-.4-.6-1.1-.3-1.6.2-.6.8-.9,1.4-.9.4,0,.8.2,1.1.4l7,7c0,0,0,.1.1.2,0,0,0,0,0,0,.4.6.4,1.4-.2,1.9Z"/>
</svg>