<svg width="51" height="51" viewBox="0 0 51 51" fill="none" xmlns="http://www.w3.org/2000/svg">
<path fill-rule="evenodd" clip-rule="evenodd" d="M20.1833 45.6875H13.8083C13.2215 45.6875 12.7458 46.1632 12.7458 46.75C12.7458 49.0972 14.6486 51 16.9958 51C19.343 51 21.2458 49.0972 21.2458 46.75C21.2458 46.1632 20.7701 45.6875 20.1833 45.6875ZM30.8083 29.0062V27.625C30.8094 26.2598 30.6597 24.8986 30.3621 23.5662C27.3973 21.3347 25.3736 18.0757 24.6883 14.4288C23.3514 13.3858 21.8198 12.6201 20.1833 12.1762V9.5625C20.1833 7.80209 18.7562 6.375 16.9958 6.375C15.2354 6.375 13.8083 7.80209 13.8083 9.5625V12.1762C7.60333 13.855 3.18333 20.2087 3.18333 27.625V29.0062C3.17576 33.528 2.12113 37.9866 0.102077 42.0325C-0.14494 42.5613 0.0711287 43.1907 0.590827 43.4562C0.737441 43.5242 0.89675 43.5604 1.05833 43.5625H32.9333C33.5201 43.5625 33.9958 43.0868 33.9958 42.5C33.9937 42.3384 33.9575 42.1791 33.8896 42.0325C31.8705 37.9866 30.8159 33.528 30.8083 29.0062ZM39.3083 0C32.8535 0 27.6208 5.23267 27.6208 11.6875C27.6208 18.1423 32.8535 23.375 39.3083 23.375C45.7632 23.375 50.9958 18.1423 50.9958 11.6875C50.9958 5.23267 45.7632 0 39.3083 0ZM37.7146 5.3125C37.7146 4.4323 38.4281 3.71875 39.3083 3.71875C40.1885 3.71875 40.9021 4.4323 40.9021 5.3125V11.6875C40.9021 12.5677 40.1885 13.2812 39.3083 13.2812C38.4281 13.2812 37.7146 12.5677 37.7146 11.6875V5.3125ZM39.3083 20.1875C38.4004 20.2732 37.5223 19.8372 37.0418 19.0621C36.5613 18.2871 36.5613 17.3067 37.0418 16.5316C37.5223 15.7565 38.4004 15.3206 39.3083 15.4062C40.5416 15.5227 41.4839 16.5581 41.4839 17.7969C41.4839 19.0356 40.5416 20.0711 39.3083 20.1875Z" fill="#FCBB1B"/>
</svg>
