<svg width="48" height="48" viewBox="0 0 48 48" fill="none" xmlns="http://www.w3.org/2000/svg">
<path fill-rule="evenodd" clip-rule="evenodd" d="M24 15.4976H12C11.1716 15.4976 10.5 16.1692 10.5 16.9976C10.5 17.826 11.1716 18.4976 12 18.4976H24C24.8284 18.4976 25.5 17.826 25.5 16.9976C25.5 16.1692 24.8284 15.4976 24 15.4976ZM25.5 23.9976C25.4892 23.1737 24.8239 22.5084 24 22.4976H12C11.1716 22.4976 10.5 23.1692 10.5 23.9976C10.5 24.826 11.1716 25.4976 12 25.4976H24C24.8239 25.4868 25.4892 24.8215 25.5 23.9976ZM12 29.4976C11.1716 29.4976 10.5 30.1692 10.5 30.9976C10.5 31.826 11.1716 32.4976 12 32.4976H20C20.8284 32.4976 21.5 31.826 21.5 30.9976C21.5 30.1692 20.8284 29.4976 20 29.4976H12ZM21.18 37.9976H7C6.44772 37.9976 6 37.5499 6 36.9976V10.9976C6 10.4453 6.44772 9.99758 7 9.99758H29C29.5523 9.99758 30 10.4453 30 10.9976V21.4376C30.0026 21.6352 30.1213 21.8127 30.303 21.8906C30.4846 21.9684 30.6951 21.932 30.84 21.7976C32.0161 20.5484 33.6878 19.8885 35.4 19.9976C35.5454 20.0273 35.6965 19.9909 35.8124 19.8981C35.9284 19.8054 35.9971 19.666 36 19.5176V6.99758C36 5.34072 34.6569 3.99758 33 3.99758H25C24.83 3.98826 24.6743 3.89932 24.58 3.75758C23.2061 1.429 20.7037 0 18 0C15.2963 0 12.7939 1.429 11.42 3.75758C11.328 3.90179 11.171 3.99153 11 3.99758H3C1.34315 3.99758 0 5.34072 0 6.99758V40.9976C0 42.6544 1.34315 43.9976 3 43.9976H18.78C18.9794 43.9983 19.1602 43.8804 19.24 43.6976C19.64 42.7376 20.98 40.0176 21.64 38.7176C21.7169 38.5608 21.7064 38.3754 21.6124 38.2283C21.5184 38.0812 21.3545 37.9937 21.18 37.9976ZM47.68 43.7976L37.56 24.5376C37.0564 23.5913 36.0719 23.0001 35 23.0001C33.9281 23.0001 32.9436 23.5913 32.44 24.5376L22.32 43.7976C21.8596 44.6904 21.8976 45.7587 22.4205 46.6165C22.9434 47.4743 23.8754 47.9977 24.88 47.9976H45.12C46.1246 47.9977 47.0566 47.4743 47.5795 46.6165C48.1024 45.7587 48.1404 44.6904 47.68 43.7976ZM33.5 31.9976C33.5 31.1692 34.1716 30.4976 35 30.4976C35.8284 30.4976 36.5 31.1692 36.5 31.9976V37.4976C36.5 38.326 35.8284 38.9976 35 38.9976C34.1716 38.9976 33.5 38.326 33.5 37.4976V31.9976ZM35 44.4976C33.8954 44.4976 33 43.6021 33 42.4976C33 41.393 33.8954 40.4976 35 40.4976C36.1046 40.4976 37 41.393 37 42.4976C37 43.6021 36.1046 44.4976 35 44.4976Z" fill="#FCBB1B"/>
</svg>
