<svg width="57" height="57" viewBox="0 0 57 57" fill="none" xmlns="http://www.w3.org/2000/svg">
<path fill-rule="evenodd" clip-rule="evenodd" d="M4.75983 7.13974C4.75983 5.83555 5.83555 4.75983 7.13974 4.75983H44.0284C45.3326 4.75983 46.4083 5.83555 46.4083 7.13974V14.2795H4.75983V7.13974ZM46.4083 24.2228V19.0393H35.6987V24.2228C35.6987 25.5371 34.6332 26.6027 33.3188 26.6027C32.0044 26.6027 30.9389 25.5371 30.9389 24.2228V19.0393H20.2293V28.559H25.8911C27.2055 28.559 28.271 29.6245 28.271 30.9389C28.271 32.2533 27.2055 33.3188 25.8911 33.3188H20.2293V42.3624H23.0352C24.3496 42.3624 25.4151 43.428 25.4151 44.7424C25.4151 46.0568 24.3496 47.1223 23.0352 47.1223H7.13974C3.20812 47.1223 0 43.9141 0 39.9825V7.13974C0 3.20574 3.20812 0 7.13974 0H44.0284C47.96 0 51.1681 3.20574 51.1681 7.13974V24.2228C51.1681 25.5371 50.1026 26.6027 48.7882 26.6027C47.4738 26.6027 46.4083 25.5371 46.4083 24.2228ZM4.75983 19.0393H15.4694V28.559H4.75983V19.0393ZM4.75983 33.3188H15.4694V42.3624H7.13974C5.83555 42.3624 4.75983 41.2843 4.75983 39.9825V33.3188ZM34.1517 41.846C34.1517 37.6452 37.5572 34.2398 41.7579 34.2398C45.9587 34.2398 49.3641 37.6452 49.3641 41.846C49.3641 46.0468 45.9587 49.4522 41.7579 49.4522C37.5572 49.4522 34.1517 46.0468 34.1517 41.846ZM41.7579 29.48C36.4581 29.4839 31.7499 32.8647 30.0525 37.8853C28.355 42.9061 30.0456 48.4502 34.2558 51.6694C38.466 54.8886 44.2594 55.067 48.6597 52.113L52.7246 56.1802C53.6545 57.1105 55.1625 57.1107 56.0925 56.1806C57.0226 55.2505 57.0225 53.7425 56.0922 52.8126L52.0225 48.7454C54.572 44.9532 54.8224 40.0641 52.6737 36.0312C50.525 31.9984 46.3275 29.4792 41.7579 29.48Z" fill="#FCBB1B"/>
</svg>
