<svg width="47" height="60" viewBox="0 0 47 60" fill="none" xmlns="http://www.w3.org/2000/svg">
<path d="M43.4292 0C43.9481 0.368653 44.0596 0.529746 44.2052 1.13694C45.2182 5.32844 45.4599 9.98307 46.4311 14.2179C46.3691 15.1055 45.6705 15.5764 44.8217 15.248C44.2424 15.0249 41.5921 13.1399 41.2994 13.2251C36.132 21.7258 29.3832 28.6388 19.3118 30.7857C14.1677 31.8823 6.08521 31.8188 1.03249 30.2791C-0.25005 29.8888 -0.116839 28.3553 0.820284 28.1772C1.75741 27.9991 3.46591 28.2283 4.53315 28.1787C10.2457 27.9201 16.5454 26.2023 21.4757 23.3243C27.227 19.9677 31.592 14.8933 34.3724 8.86627C33.5933 8.03912 28.9216 7.11284 30.4396 5.3873L42.7337 0H43.4292Z" fill="#FCBB1B"/>
<path d="M36.5609 25.1916C37.8388 25.0073 41.0003 25.0429 42.3324 25.1576C44.4374 25.3388 45.6023 27.2347 45.8501 29.1756L45.8625 55.2477C45.6905 57.0182 44.5691 59.0582 42.6453 59.3355C41.3674 59.5198 38.2059 59.4842 36.8738 59.3695C34.8385 59.1929 33.604 57.3636 33.3561 55.4677L33.3438 29.1647C33.5033 27.433 34.7161 25.4596 36.5609 25.1932V25.1916Z" fill="#FCBB1B"/>
<path d="M20.214 34.3502C21.3045 34.1922 25.9096 34.1937 26.8483 34.4973C28.5118 35.0348 29.4071 36.8982 29.5233 38.5463C29.9075 44.0173 29.2368 49.9467 29.5032 55.4657C29.3297 57.1277 28.1416 59.0112 26.3929 59.3117C25.1754 59.5208 21.8234 59.479 20.5269 59.3675C18.3553 59.1801 17.1316 57.1556 16.9891 55.1373C16.605 49.6663 17.2757 43.7369 17.0092 38.2179C17.1858 36.5249 18.4157 34.6089 20.214 34.3502Z" fill="#FCBB1B"/>
<path d="M4.09358 42.0036C5.3374 41.8069 8.7792 41.858 10.0989 41.9711C12.0707 42.1415 13.3734 44.1149 13.519 45.9705C13.7622 49.0561 13.3393 52.4653 13.502 55.5865C13.1798 57.4685 12.0181 59.1956 9.98274 59.3706C8.68626 59.4821 5.33585 59.524 4.11681 59.3149C2.15428 58.9772 1.12422 56.8272 0.987908 55.0227C0.809777 52.6419 0.812875 48.7014 0.987908 46.3175C1.11802 44.561 2.16047 42.3072 4.09358 42.0021V42.0036Z" fill="#FCBB1B"/>
</svg>
