<?xml version="1.0" encoding="UTF-8"?>
<svg id="Layer_1" xmlns="http://www.w3.org/2000/svg" version="1.1" viewBox="0 0 24 24">
  <!-- Generator: Adobe Illustrator 29.2.1, SVG Export Plug-In . SVG Version: 2.1.0 Build 116)  -->
  <defs>
    <style>
      .st0 {
        fill: #16a458;
        fill-rule: evenodd;
      }
    </style>
  </defs>
  <path class="st0" d="M12.5,3.9c.6-1.1,1.7-1.9,2.9-1.9.9,0,1.8.4,2.4,1,.6.7,1,1.6,1,2.5v.6h-1.5c-.4,0-.7.2-.9.6-.1.4,0,.8.2,1.1l2.4,2.5c.4.4,1,.4,1.4,0l2.4-2.5c.3-.3.4-.7.2-1.1-.1-.4-.5-.6-.9-.6h-1.5v-.6c0-1.5-.6-2.9-1.6-3.9C18.2.6,16.9,0,15.4,0,13.1,0,11.2,1.7,10.4,3.8H2.9c-1.6,0-2.9,1.3-2.9,3v11.6c0,1.6,1.3,3,2.9,3h7.7c.9,1.6,2.6,2.6,4.5,2.6,1.4,0,2.8-.6,3.8-1.6,1-1,1.6-2.4,1.6-3.9v-1.5c0-.6-.4-1-1-1s-1,.5-1,1v1.5c0,.9-.3,1.8-1,2.5-.6.7-1.5,1-2.4,1-.8,0-1.5-.3-2.1-.8,1.1-.5,1.8-1.5,1.8-2.8V6.8c0-1.4-.9-2.6-2.2-2.9h0ZM3.7,8.4c0-.6.4-1,1-1h5.3c.5,0,.9.5.9,1s-.4,1-.9,1h-5.3c-.5,0-1-.4-1-1h0ZM1.9,6.8c0-.5.4-1,.9-1h9c.5,0,.9.4.9,1v4H1.9v-4h0ZM8.4,14c0,.6-.5,1-1,1s-1-.5-1-1,.5-1,1-1,1,.5,1,1ZM7.4,18.7c.6,0,1-.5,1-1s-.5-1-1-1-1,.5-1,1,.5,1,1,1ZM4.8,14c0,.6-.5,1-1,1s-1-.5-1-1,.5-1,1-1,1,.5,1,1ZM3.8,18.7c.6,0,1-.5,1-1s-.5-1-1-1-1,.5-1,1,.5,1,1,1ZM11.9,14c0,.6-.5,1-1,1s-1-.5-1-1,.5-1,1-1,1,.5,1,1ZM10.9,18.7c.6,0,1-.5,1-1s-.5-1-1-1-1,.5-1,1,.5,1,1,1Z"/>
</svg>