<svg width="23" height="22" viewBox="0 0 23 22" fill="none" xmlns="http://www.w3.org/2000/svg">
<path fill-rule="evenodd" clip-rule="evenodd" d="M21.7931 5.55509C21.6339 5.35673 21.355 5.31783 21.151 5.46552L8.51982 14.5824C8.36634 14.6943 8.17431 14.7333 7.99153 14.6897C7.80875 14.646 7.65242 14.5238 7.56146 14.3535L4.22637 8.33195C4.07671 8.06032 4.11982 7.71837 4.33179 7.49591C4.53719 7.26738 4.8679 7.21773 5.12722 7.37648L8.81691 9.5064C8.96066 9.58602 9.13317 9.58602 9.27692 9.5064L19.5985 3.79343C19.7396 3.71637 19.8334 3.5702 19.8476 3.40527C19.864 3.2464 19.8029 3.08953 19.6847 2.98725C17.3861 1.01133 14.4838 -0.0475057 11.5003 0.0013757C5.15597 0.0013757 0 4.48018 0 9.95428C0.0497587 12.6694 1.25742 15.2216 3.29676 16.9213C3.36074 16.9733 3.39352 17.0566 3.38301 17.1403L2.97091 21.0717C2.94082 21.3628 3.07521 21.6458 3.31592 21.7982C3.42963 21.8657 3.55875 21.9001 3.68968 21.8978C3.83356 21.8993 3.9743 21.854 4.0922 21.7684C4.19762 21.6888 6.56476 20.0167 7.37937 19.3996C7.44022 19.3706 7.51019 19.3706 7.57104 19.3996C8.85917 19.735 10.1746 19.945 11.5003 20.0266C17.8447 20.0266 23.0006 15.5478 23.0006 10.0737C23.0035 8.48118 22.5859 6.91831 21.7931 5.55509Z" fill="#16A458"/>
</svg>
