<svg width="62" height="62" viewBox="0 0 62 62" fill="none" xmlns="http://www.w3.org/2000/svg">
<path fill-rule="evenodd" clip-rule="evenodd" d="M1 31C1.00002 47.5685 14.4315 61 31 61C47.5686 61 61 47.5685 61 31C61 14.4315 47.5686 1 31 1C14.4315 1 1 14.4314 1 31Z" fill="#FCBB1B"/>
<path fill-rule="evenodd" clip-rule="evenodd" d="M1 31C1.00002 47.5685 14.4315 61 31 61C47.5686 61 61 47.5685 61 31C61 14.4315 47.5686 1 31 1C14.4315 1 1 14.4314 1 31Z" stroke="white" stroke-width="2" stroke-linecap="round" stroke-linejoin="round"/>
<path d="M31 29.875C35.3493 29.875 38.875 26.3492 38.875 22C38.875 17.6507 35.3493 14.125 31 14.125C26.6507 14.125 23.125 17.6507 23.125 22C23.125 26.3492 26.6507 29.875 31 29.875ZM31 29.875C39.2843 29.875 46 36.5907 46 44.875M31 29.875C22.7157 29.875 16 36.5907 16 44.875M28.9002 24.4C30.1001 23.2 31.9002 23.2 33.1001 24.4M21.5499 47.875V44.425H40.3V47.875M31.75 44.425H24.25V39.175H31.75V44.425ZM31.75 44.425V36.175H37.75V44.425H31.75Z" stroke="white" stroke-width="2" stroke-linecap="round" stroke-linejoin="round"/>
</svg>
