<svg width="60" height="59" viewBox="0 0 60 59" fill="none" xmlns="http://www.w3.org/2000/svg">
<path fill-rule="evenodd" clip-rule="evenodd" d="M25.5542 8.36657C25.0493 8.35971 24.5631 8.55722 24.2061 8.91424C23.8491 9.27125 23.6516 9.75744 23.6585 10.2623L23.6585 22.7487C23.6585 23.7957 24.5072 24.6444 25.5542 24.6444C26.6011 24.6444 27.4499 23.7957 27.4499 22.7487L27.4499 10.237C27.4361 9.19992 26.5914 8.36648 25.5542 8.36657ZM31.8732 6.24338C30.8262 6.24338 29.9775 7.09212 29.9775 8.13909V24.8213C29.9775 25.8683 30.8262 26.7171 31.8732 26.7171C32.9202 26.7171 33.7689 25.8683 33.7689 24.8213L33.7689 8.13909C33.7553 7.09781 32.9145 6.25699 31.8732 6.24338ZM57.1493 10.4139C56.1024 10.4139 55.2536 11.2627 55.2536 12.3097V20.6508C55.2536 21.6978 56.1024 22.5465 57.1493 22.5465C58.1963 22.5465 59.0451 21.6978 59.0451 20.6508V12.3097C59.0314 11.2684 58.1906 10.4276 57.1493 10.4139ZM50.8303 8.36657C50.3255 8.35971 49.8393 8.55722 49.4823 8.91424C49.1253 9.27125 48.9277 9.75744 48.9346 10.2623V22.7487C48.9346 23.7957 49.7833 24.6444 50.8303 24.6444C51.8773 24.6444 52.726 23.7957 52.726 22.7487V10.237C52.7122 9.19992 51.8675 8.36648 50.8303 8.36657ZM44.5113 6.24338C43.4643 6.24338 42.6156 7.09212 42.6156 8.13909V24.8213C42.6156 25.8683 43.4643 26.7171 44.5113 26.7171C45.5583 26.7171 46.407 25.8683 46.407 24.8213V8.13909C46.3934 7.09781 45.5526 6.25699 44.5113 6.24338ZM38.1922 0.000173375C37.6874 -0.0066961 37.2012 0.190824 36.8442 0.547838C36.4872 0.904852 36.2897 1.39104 36.2965 1.89588V31.1151C36.2965 32.1621 37.1453 33.0108 38.1922 33.0108C39.2392 33.0108 40.088 32.1621 40.088 31.1151L40.088 1.89588C40.088 0.848912 39.2392 0.000173375 38.1922 0.000173375ZM21.1308 19.8167V12.2338C21.1309 11.1869 20.2821 10.3381 19.2351 10.3381C18.1882 10.3381 17.3394 11.1869 17.3394 12.2338V17.9462C18.755 18.1977 20.0699 18.8464 21.1308 19.8167ZM17.3142 32.025V29.1436C19.1428 28.5248 20.2546 26.673 19.9411 24.7681C19.6275 22.8632 17.9809 21.4654 16.0503 21.4654C14.1198 21.4654 12.4732 22.8632 12.1596 24.7681C11.8461 26.673 12.9579 28.5248 14.7865 29.1436V32.025C6.44428 32.6961 0.0125281 39.6556 0 48.0248V54.445C0 56.9158 2.00302 58.9188 4.47388 58.9188H27.6015C30.0724 58.9188 32.0754 56.9158 32.0754 54.445V48.0248C32.064 39.6646 25.6464 32.7086 17.3142 32.025ZM22.3694 39.1529C23.5473 39.1427 24.6149 39.8443 25.0728 40.9297C25.5307 42.015 25.2883 43.2694 24.459 44.1059C23.6297 44.9425 22.3775 45.1959 21.2882 44.7475C20.1989 44.2991 19.4879 43.2376 19.4879 42.0597C19.4738 40.478 20.7373 39.1806 22.3188 39.1529H22.3694ZM9.73131 39.1529C11.3367 39.1529 12.6381 40.4543 12.6381 42.0597C12.6381 43.665 11.3367 44.9664 9.73131 44.9664C8.12595 44.9664 6.82456 43.665 6.82456 42.0597C6.81762 41.2822 7.12512 40.535 7.67725 39.9876C8.22937 39.4403 8.97925 39.1392 9.75659 39.1529H9.73131ZM28.2587 54.445C28.2587 54.8219 27.9532 55.1274 27.5763 55.1274H4.47388C4.09697 55.1274 3.79142 54.8219 3.79142 54.445V49.9205H28.284L28.2587 54.445Z" fill="#FCBB1B"/>
</svg>
