<svg width="50" height="57" viewBox="0 0 50 57" fill="none" xmlns="http://www.w3.org/2000/svg">
<path fill-rule="evenodd" clip-rule="evenodd" d="M47.465 35.1598C45.6639 34.1173 43.4064 34.2945 41.7901 35.6053L38.4837 33.87C39.4071 32.9591 40.2688 31.9877 41.0632 30.9622C42.0483 29.6752 42.0483 27.8876 41.0632 26.6006C40.0353 25.2509 38.8811 24.0024 37.616 22.872L41.7901 20.6912C43.6628 22.2344 46.3714 22.2166 48.2236 20.6488C50.0758 19.0811 50.5409 16.4126 49.3282 14.3107C48.1156 12.2088 45.5727 11.2757 43.2884 12.0944C41.0041 12.9131 39.6328 15.2491 40.0314 17.6427L34.5206 20.5739C32.1899 19.0441 29.5301 18.0878 26.7587 17.7834V9.66976C29.018 8.81983 30.3461 6.47588 29.9142 4.10102C29.4823 1.72617 27.4138 0 25 0C22.5862 0 20.5177 1.72617 20.0858 4.10102C19.6539 6.47588 20.982 8.81983 23.2413 9.66976V17.7834C20.5195 18.1279 17.9126 19.0904 15.6201 20.5974L9.96864 17.6896C10.3609 15.3081 8.99408 12.9868 6.72127 12.1744C4.44846 11.3621 1.91991 12.2912 0.713774 14.3818C-0.492364 16.4725 -0.0310129 19.1265 1.80989 20.6875C3.65079 22.2485 6.34454 22.2698 8.20989 20.7381L12.4074 22.9424C11.1563 24.0711 10.0104 25.3113 8.98374 26.6475C8.01448 27.9398 8.01448 29.7168 8.98374 31.0091C9.77926 32.0262 10.641 32.9897 11.5632 33.8935L8.20989 35.6522C6.33721 34.109 3.62859 34.1269 1.77639 35.6946C-0.075799 37.2623 -0.540867 39.9308 0.671767 42.0327C1.8844 44.1346 4.42729 45.0677 6.71162 44.249C8.99595 43.4303 10.3672 41.0943 9.96864 38.7007L14.4476 36.3557C17.0321 38.2526 20.0596 39.4556 23.2413 39.8497V46.5564C20.982 47.4063 19.6539 49.7503 20.0858 52.1251C20.5177 54.5 22.5862 56.2262 25 56.2262C27.4138 56.2262 29.4823 54.5 29.9142 52.1251C30.3461 49.7503 29.018 47.4063 26.7587 46.5564V39.8497C29.9523 39.4588 32.9901 38.2469 35.5759 36.3323L40.0314 38.6772C39.6247 41.1694 41.1421 43.5731 43.5669 44.2779C45.9917 44.9827 48.5611 43.7669 49.5537 41.445C50.5463 39.1232 49.6499 36.4257 47.465 35.1598ZM25 21.2071C31.7301 21.2071 36.5139 26.4833 38.2492 28.7814C36.5139 31.1264 31.7301 36.4495 25 36.4495C18.2699 36.4495 13.5096 31.1498 11.7743 28.7814C13.533 26.4833 18.2933 21.2071 25 21.2071ZM25 23.9976C26.9656 23.9404 28.7698 25.0803 29.562 26.8801C30.3542 28.6799 29.9764 30.7803 28.6066 32.1912C27.2368 33.6021 25.1485 34.0418 23.326 33.3031C21.5036 32.5644 20.3109 30.7948 20.31 28.8283C20.3089 26.2144 22.3872 24.0738 25 23.9976Z" fill="#FCBB1B"/>
</svg>
