<svg width="62" height="62" viewBox="0 0 62 62" fill="none" xmlns="http://www.w3.org/2000/svg">
<path d="M7.05609 1.96875V54.9756M7.05609 1.96875L2.00781 7.01703M7.05609 1.96875L12.1044 7.01703M7.05609 54.9756H60.063M7.05609 54.9756C7.05609 54.9756 14.79 54.4153 24.2 46.3936M60.063 54.9756L55.0147 49.9274M60.063 54.9756L55.0147 60.0239M48.7599 8.80412C51.9044 6.08426 55.9059 4.55801 60.063 4.49289M30.9016 38.8868C33.078 35.6574 34.8203 32.1559 36.0837 28.4722C37.5366 24.1471 39.5332 20.0241 42.0255 16.2024M22.2009 42.3651C22.2009 45.1531 24.4611 47.4133 27.2492 47.4133C30.0373 47.4133 32.2975 45.1531 32.2975 42.3651C32.2975 39.577 30.0373 37.3168 27.2492 37.3168C24.4611 37.3168 22.2009 39.577 22.2009 42.3651ZM39.8699 12.0754C39.8699 14.8635 42.1301 17.1237 44.9182 17.1237C47.7062 17.1237 49.9664 14.8635 49.9664 12.0754C49.9664 9.28731 47.7062 7.02712 44.9182 7.02712C42.1301 7.02712 39.8699 9.28731 39.8699 12.0754Z" stroke="#DA4436" stroke-width="3.5" stroke-linecap="round" stroke-linejoin="round"/>
</svg>
