<svg width="61" height="61" viewBox="0 0 61 61" fill="none" xmlns="http://www.w3.org/2000/svg">
<path fill-rule="evenodd" clip-rule="evenodd" d="M51.8161 0C46.9302 0 42.9694 3.96078 42.9694 8.84665V51.8161C42.9694 56.702 46.9302 60.6627 51.8161 60.6627C56.702 60.6627 60.6627 56.702 60.6627 51.8161V8.84665C60.6627 3.96078 56.702 0 51.8161 0ZM30.3314 27.8038C25.4455 27.8038 21.4847 31.7645 21.4847 36.6504V51.8161C21.4847 56.702 25.4455 60.6627 30.3314 60.6627C35.2172 60.6627 39.178 56.702 39.178 51.8161V36.6504C39.178 31.7645 35.2172 27.8037 30.3314 27.8038ZM0 51.8161C0 56.702 3.96078 60.6627 8.84665 60.6627C13.7325 60.6627 17.6933 56.702 17.6933 51.8161C17.6933 46.9302 13.7325 42.9694 8.84665 42.9694C3.96078 42.9694 0 46.9302 0 51.8161Z" fill="#DA4436"/>
</svg>
