<svg width="85" height="85" viewBox="0 0 85 85" fill="none" xmlns="http://www.w3.org/2000/svg">
<circle opacity="0.25" cx="42.5" cy="42.5" r="42.5" fill="#DA4436"/>
<g clip-path="url(#clip0_5201_20658)">
<path d="M54.6465 51.993L51.4757 50.65C49.5428 53.1478 46.8015 54.6462 43.7352 55.1034L43.7032 59.7361C44.2053 60.0677 44.6973 60.1514 45.1994 60.5443C48.4602 63.087 47.1585 68.4831 43.1881 68.9656C38.4892 69.5363 36.1194 63.4903 39.8968 60.5443C40.3989 60.1529 40.8923 60.0692 41.393 59.7361L41.361 55.1034C37.6823 54.5745 34.1937 52.359 32.6076 48.8483L29.8315 50.3019C30.679 56.805 22.7672 60.6548 18.5414 55.559C15.3502 51.7106 17.3819 45.7573 22.1765 44.7609C25.047 44.1633 27.4951 45.5422 29.0943 47.9385L31.6164 46.7075C31.6077 45.9381 31.3509 45.2046 31.3015 44.4367C31.1056 41.3696 31.972 38.57 33.7787 36.1543L29.2379 31.4544C29.0101 31.3483 27.8811 31.8966 27.4385 31.9504C22.2027 32.5823 20.3524 25.2396 24.8235 23.1077C28.8839 21.1716 32.8441 25.5698 30.7805 29.578L35.4025 34.4109C35.5941 34.4617 36.71 33.5623 36.9916 33.3965C40.9489 31.0779 46.057 31.535 49.611 34.4258L54.9382 29.0551C52.7716 25.5683 53.6786 20.834 57.3051 18.8575C63.3507 15.5619 69.7866 22.4101 66.4126 28.456C64.3897 32.0818 59.9549 32.9916 56.5795 30.7462L51.3219 36.1513C54.0182 39.6142 54.574 44.4815 52.7542 48.5121L55.7001 49.8522L55.8568 49.7999C58.8157 45.7274 64.989 46.3026 67.2311 50.8337C70.2553 56.9439 63.7904 63.447 57.9566 60.1574C55.0746 58.532 53.9137 55.2408 54.6494 51.99L54.6465 51.993Z" fill="#DA4436"/>
</g>
<defs>
<clipPath id="clip0_5201_20658">
<rect width="51" height="51" fill="white" transform="translate(17 18)"/>
</clipPath>
</defs>
</svg>
