<svg width="86" height="86" viewBox="0 0 86 86" fill="none" xmlns="http://www.w3.org/2000/svg">
<g opacity="0.25">
<path fill-rule="evenodd" clip-rule="evenodd" d="M26.5489 82.7164C4.61409 73.6307 -5.80212 48.4838 3.2836 26.5489C12.3693 4.61409 37.5162 -5.80212 59.4511 3.2836C81.3859 12.3693 91.8021 37.5162 82.7164 59.4511C73.6307 81.3859 48.4838 91.8021 26.5489 82.7164Z" fill="#FCBB1B"/>
</g>
<path fill-rule="evenodd" clip-rule="evenodd" d="M63.0595 42.9552L56.3487 39.2347V37.5831C56.3487 35.6627 54.7919 34.106 52.8716 34.106H45.9173V31.0635H49.3945C49.8849 31.0605 50.3334 30.7861 50.5593 30.3507L54.0364 23.3964C54.2529 23.0011 54.2529 22.5226 54.0364 22.1273C53.7933 21.7198 53.3456 21.4793 52.8716 21.5014H40.7017C40.2112 21.5044 39.7627 21.7788 39.5368 22.2142L36.0597 29.1685C35.8432 29.5638 35.8432 30.0423 36.0597 30.4376C36.2936 30.8285 36.7168 31.0666 37.1724 31.0635H42.3881V34.106H34.6167C32.6963 34.106 31.1396 35.6627 31.1396 37.5831V39.2347L24.4287 42.9552C24.007 43.1829 23.7441 43.6235 23.7441 44.1027C23.7441 44.5819 24.007 45.0225 24.4287 45.2501L31.1396 48.9707V51.3351C28.2442 52.1983 26.4207 55.0553 26.8569 58.0449C27.2931 61.0345 29.8568 63.2514 32.8781 63.2514C35.8994 63.2514 38.4632 61.0345 38.8994 58.0449C39.3355 55.0553 37.5121 52.1983 34.6167 51.3351V48.9707L41.3275 45.2501C41.7493 45.0225 42.0121 44.5819 42.0121 44.1027C42.0121 43.6235 41.7493 43.1829 41.3275 42.9552L34.6167 39.2347V37.5831H52.8716V39.2347L46.1607 42.9552C45.739 43.1829 45.4761 43.6235 45.4761 44.1027C45.4761 44.5819 45.739 45.0225 46.1607 45.2501L52.8716 48.9707V51.3351C49.9762 52.1983 48.1527 55.0553 48.5889 58.0449C49.0251 61.0345 51.5888 63.2514 54.6101 63.2514C57.6314 63.2514 60.1952 61.0345 60.6314 58.0449C61.0675 55.0553 59.2441 52.1983 56.3487 51.3351V48.9707L63.0595 45.2501C63.4813 45.0225 63.7441 44.5819 63.7441 44.1027C63.7441 43.6235 63.4813 43.1829 63.0595 42.9552Z" fill="#FCBB1B"/>
</svg>
