<svg width="50" height="51" viewBox="0 0 50 51" fill="none" xmlns="http://www.w3.org/2000/svg">
<path fill-rule="evenodd" clip-rule="evenodd" d="M4.16293 37.2505C3.01213 37.2505 2.07922 38.1834 2.07922 39.3342V42.4598C2.07922 42.7475 2.31245 42.9807 2.60015 42.9807H9.89312C10.1808 42.9807 10.414 42.7475 10.414 42.4598V39.3342C10.414 38.1834 9.48114 37.2505 8.33034 37.2505H4.16293ZM16.6652 30.9994C15.5144 30.9994 14.5815 31.9323 14.5815 33.0831V42.4598C14.5815 42.7475 14.8147 42.9807 15.1024 42.9807H22.3954C22.6831 42.9807 22.9163 42.7475 22.9163 42.4598V33.0831C22.9163 31.9323 21.9834 30.9994 20.8326 30.9994H16.6652ZM29.1674 23.7064C28.0166 23.7064 27.0837 24.6393 27.0837 25.7901V42.4598C27.0837 42.7475 27.3169 42.9807 27.6046 42.9807H34.8976C35.1853 42.9807 35.4185 42.7475 35.4185 42.4598V25.7901C35.4185 24.6393 34.4856 23.7064 33.3348 23.7064H29.1674ZM40.1069 42.9807H47.3998C47.6875 42.9807 47.9208 42.7475 47.9208 42.4598V17.4553C47.9208 16.3045 46.9879 15.3716 45.8371 15.3716H41.6697C40.5189 15.3716 39.5859 16.3045 39.5859 17.4553V42.4598C39.5859 42.7475 39.8192 42.9807 40.1069 42.9807ZM37.6481 8.78708L38.2941 9.74559C38.5816 10.1776 39.067 10.436 39.5859 10.4332C40.1255 10.4137 40.6155 10.1133 40.8778 9.6414L45.0453 2.34843C45.3577 1.84418 45.3577 1.20654 45.0453 0.702297C44.7307 0.201561 44.1514 -0.0677066 43.5658 0.0146735L35.231 1.05653C34.6941 1.12443 34.2305 1.46527 34.0056 1.95751C33.7807 2.44974 33.8265 3.02329 34.1266 3.47363L34.7518 4.43213C34.8295 4.54448 34.8579 4.68374 34.8303 4.81756C34.8028 4.95138 34.7217 5.0681 34.6059 5.14059L5.1006 24.8525C4.63797 25.1582 4.3163 25.6357 4.20679 26.1794C4.09729 26.723 4.20899 27.2878 4.51716 27.7488C4.90529 28.323 5.55354 28.6667 6.24663 28.6656C6.65629 28.6703 7.05711 28.5464 7.39267 28.3114L36.9188 8.64122C37.0345 8.56251 37.1769 8.53362 37.3141 8.56105C37.4512 8.58849 37.5716 8.66994 37.6481 8.78708ZM2.07922 50.0236H47.9208C48.9435 50.0214 49.8134 49.2771 49.974 48.2671C50.1345 47.257 49.5383 46.2798 48.5667 45.9604C48.3578 45.8938 48.1401 45.8587 47.9208 45.8562L2.07922 45.8562C1.85993 45.8587 1.64222 45.8938 1.43327 45.9604C0.461667 46.2798 -0.134545 47.257 0.0260269 48.2671C0.1866 49.2771 1.05649 50.0214 2.07922 50.0236Z" fill="#DA4436"/>
</svg>
