<svg width="62" height="62" viewBox="0 0 62 62" fill="none" xmlns="http://www.w3.org/2000/svg">
<g clip-path="url(#clip0_5201_20706)">
<path d="M37.2044 61.9993H24.7454C23.9228 61.6311 23.4184 61.1722 23.3071 60.2301L23.2745 50.3331C20.8468 48.8424 20.5649 46.2886 20.7488 43.6487C20.946 40.8139 22.6213 38.8268 25.5268 38.6233C29.1205 38.3702 33.0203 38.811 36.6456 38.6439C39.1652 38.9467 40.8623 40.7655 41.0739 43.2927C41.3038 46.044 41.1417 48.794 38.5555 50.3343L38.5277 60.5994C38.3656 61.3284 37.8491 61.7159 37.2044 61.9993Z" fill="#FCBB1B"/>
<path d="M13.6151 61.9979H3.45433C2.49994 61.6201 2.12617 60.9916 2.01851 59.9841C1.78506 57.8189 2.15883 55.322 2.00521 53.1217C0.96494 52.4181 0.364972 51.4663 0.0674067 50.2506C0.224657 48.5419 -0.144276 46.4628 0.0674067 44.8014C0.325055 42.7755 2.17335 41.3332 4.12203 41.171C6.3695 40.9821 10.839 40.9518 13.0562 41.1843C14.8828 41.3756 16.6766 42.8517 16.8823 44.7408C17.0165 45.9772 17.0177 49.0723 16.8677 50.299C16.7177 51.5257 15.8783 52.5041 14.9686 53.2416L14.9384 60.4769C14.7437 61.2992 14.3106 61.6189 13.6151 61.9979Z" fill="#FCBB1B"/>
<path d="M61.9997 44.8044V50.2536C61.7022 51.4694 61.1022 52.4211 60.0619 53.1247C59.9083 55.325 60.2821 57.8219 60.0486 59.9871C59.9398 60.9946 59.566 61.6219 58.6128 62.0009H48.4521C47.7577 61.6219 47.3235 61.3022 47.1287 60.4799L47.0985 53.2446C46.1889 52.5071 45.3482 51.5238 45.1994 50.302C45.0506 49.0753 45.0506 45.9802 45.1849 44.7438C45.3893 42.8547 47.1844 41.3774 49.0109 41.1873C51.2293 40.956 55.6977 40.9863 57.9451 41.174C59.4317 41.2987 60.6389 41.995 61.4179 43.2677L61.9997 44.8044Z" fill="#FCBB1B"/>
<path d="M31.519 0C31.7368 0.24582 32.0452 0.266406 32.2956 0.494062C33.319 1.4277 34.2237 3.54805 35.2326 4.60762C36.9055 5.32691 42.691 5.42863 41.0557 8.51773C40.423 9.71293 38.7211 11.0086 37.9844 12.2244C37.5502 14.4622 39.4832 19.7419 35.2955 18.5625C33.9044 18.1701 32.5037 17.4436 31.086 17.0815C29.6115 17.251 26.7882 18.973 25.4407 18.7441C22.9259 18.3166 24.5444 14.019 24.1126 12.3225C23.3167 10.7991 18.7685 7.54656 21.7357 6.00867C23.1159 5.29301 25.4081 5.20098 26.8886 4.56644C27.8346 3.53109 28.7454 1.4507 29.707 0.547344C29.9792 0.290625 30.307 0.260352 30.5538 0.00242187H31.5215L31.519 0Z" fill="#FCBB1B"/>
<path d="M0.0664062 9.80716V9.0806C0.705083 7.04138 3.44607 7.42162 5.09235 6.66478C6.3431 5.34486 7.83818 1.2531 10.1123 3.56599C10.78 4.24533 11.6436 6.11623 12.2871 6.59576C13.55 7.53666 17.3748 6.94572 17.3748 9.38334C17.3748 10.7214 15.2168 12.2363 14.6132 13.4085C14.5165 15.0106 15.564 18.7826 12.95 18.7778C11.79 18.7754 9.7276 17.4349 8.71636 17.4336C7.82245 17.4312 5.77821 18.6688 4.7077 18.7584C1.77438 19.003 2.98279 15.0215 2.7953 13.3128C1.92921 12.1116 0.749838 11.1356 0.0676159 9.80716H0.0664062Z" fill="#FCBB1B"/>
<path d="M61.9994 8.9583V9.80595L59.2475 13.4073C59.1858 15.0663 60.1959 19.0648 57.3557 18.7596C56.2767 18.6434 54.2615 17.4324 53.3506 17.4324C52.3467 17.4324 50.2758 18.7742 49.117 18.7778C46.4413 18.7838 47.6352 14.9137 47.4296 13.3128C46.8151 12.2629 44.6559 10.6233 44.6959 9.38818C44.7684 7.13341 48.2219 7.37318 49.7266 6.66478C50.9774 5.34486 52.4725 1.2531 54.7465 3.56599C55.4143 4.24533 56.2779 6.11623 56.9214 6.59576C58.154 7.51486 61.4067 6.94693 61.9994 8.95951V8.9583Z" fill="#FCBB1B"/>
<path d="M30.6505 21.5891C35.8845 21.439 39.5968 26.5891 37.78 31.5188C35.6595 37.2744 27.5466 37.9368 24.5613 32.5784C21.9171 27.8339 25.1649 21.7466 30.6505 21.5891Z" fill="#FCBB1B"/>
<path d="M52.779 27.6417C58.8416 26.9551 62.2443 34.4701 57.5872 38.5098C53.3887 42.1523 46.9281 38.7435 47.3648 33.241C47.5837 30.4898 50.0405 27.9517 52.779 27.6417Z" fill="#FCBB1B"/>
<path d="M7.78037 27.6426C13.0374 27.0492 16.6602 33.0179 13.5418 37.4064C10.9883 40.9992 5.59097 40.82 3.23222 37.0927C0.873475 33.3655 3.33867 28.1439 7.78037 27.6414V27.6426Z" fill="#FCBB1B"/>
</g>
<defs>
<clipPath id="clip0_5201_20706">
<rect width="62" height="62" fill="white"/>
</clipPath>
</defs>
</svg>
