<svg width="37" height="37" viewBox="0 0 37 37" fill="none" xmlns="http://www.w3.org/2000/svg">
<path d="M35.041 35.294L35.212 33.377C35.444 30.8101 33.7348 28.4697 31.219 27.9095L26.323 26.324V19.8365C26.2893 18.4453 25.1519 17.335 23.7603 17.335C22.3686 17.335 21.2312 18.4453 21.1975 19.8365V32.7365L18.2935 30.554C17.2522 29.7808 15.8016 29.8868 14.8837 30.8032C13.9658 31.7195 13.8575 33.1699 14.629 34.2125L15.4375 35.294M17.0785 21.659H11.4385C9.58002 21.6699 7.80487 20.8887 6.5575 19.511M28.4755 15.7985C29.9926 15.9799 31.381 14.9277 31.6165 13.418C31.381 11.9084 29.9926 10.8561 28.4755 11.0375M4.1365 11.0375C2.62104 10.8587 1.23549 11.9103 1 13.418C1.23549 14.9257 2.62104 15.9773 4.1365 15.7985C4.50965 15.7976 4.8808 15.7441 5.239 15.6395C5.83768 16.5987 6.91044 17.1566 8.0395 17.096C8.55491 17.1013 9.06576 16.9991 9.5395 16.796M28.108 7.18702C28.0456 3.70857 25.1755 0.939159 21.697 1.00102H11.4385C7.96004 0.939159 5.0899 3.70857 5.0275 7.18702H28.108ZM28.7545 11H4.198L16.783 17.096L28.7545 11ZM4.387 7.18702H28.645C28.645 7.18702 30.5515 7.18701 30.5515 9.09277C30.5515 9.09277 30.5515 10.9985 28.645 10.9985H4.387C4.387 10.9985 2.4805 10.9985 2.4805 9.09277C2.4805 9.09277 2.4805 7.18702 4.387 7.18702Z" stroke="#16A458" stroke-width="2" stroke-linecap="round" stroke-linejoin="round"/>
</svg>
