<svg width="87" height="87" viewBox="0 0 87 87" fill="none" xmlns="http://www.w3.org/2000/svg">
<path opacity="0.25" fill-rule="evenodd" clip-rule="evenodd" d="M27.5329 83.0279C5.59839 73.9328 -4.81765 48.7601 4.26792 26.8027C13.3535 4.84539 38.5 -5.58151 60.4345 3.51353C82.3689 12.6086 92.785 37.7813 83.6994 59.7387C74.6138 81.696 49.4673 92.1229 27.5329 83.0279Z" fill="#FCBB1B"/>
<path fill-rule="evenodd" clip-rule="evenodd" d="M44 56.4141C44 49.2344 38.1797 43.4141 31 43.4141C23.8203 43.4141 18 49.2344 18 56.4141C18 63.5938 23.8203 69.4141 31 69.4141C38.1751 69.403 43.989 63.5892 44 56.4141ZM26.22 58.0341C25.9837 57.7315 25.9373 57.3218 26.1 56.9741C26.2683 56.6307 26.6176 56.4133 27 56.4141H28.76C28.8925 56.4141 29 56.3066 29 56.1741V50.4141C29 49.3095 29.8954 48.4141 31 48.4141C32.1046 48.4141 33 49.3095 33 50.4141V56.1741C33.0095 56.3024 33.1116 56.4045 33.24 56.4141L35 56.4141C35.3824 56.4133 35.7317 56.6307 35.9 56.9741C36.0627 57.3218 36.0163 57.7315 35.78 58.0341L31.78 63.0341C31.5862 63.2641 31.3008 63.3968 31 63.3968C30.6992 63.3968 30.4138 63.2641 30.22 63.0341L26.22 58.0341ZM48 32.4141H50C50 32.4141 51 32.4141 51 33.4141V47.4141C51 47.4141 51 48.4141 50 48.4141H48C48 48.4141 47 48.4141 47 47.4141V33.4141C47 33.4141 47 32.4141 48 32.4141ZM55 36.4141H57C57 36.4141 58 36.4141 58 37.4141V47.4141C58 47.4141 58 48.4141 57 48.4141H55C55 48.4141 54 48.4141 54 47.4141V37.4141C54 37.4141 54 36.4141 55 36.4141ZM60 22.5941C59.2533 21.8429 58.2392 21.4185 57.18 21.4141H34C31.7909 21.4141 30 23.2049 30 25.4141V39.9741C30.0094 40.2386 30.2161 40.4539 30.48 40.4741C31.22 40.4741 32.48 40.4741 33.46 40.6341C33.5994 40.6453 33.7371 40.5976 33.8397 40.5025C33.9423 40.4075 34.0004 40.2739 34 40.1341V26.4141C34 25.8618 34.4477 25.4141 35 25.4141H56.76C57.0252 25.4108 57.2794 25.5198 57.46 25.7141L61.7 29.9541C61.8943 30.1346 62.0032 30.3889 62 30.6541V57.4141C62 57.9663 61.5523 58.4141 61 58.4141H47.28C47.0399 58.4206 46.8383 58.5969 46.8 58.8341C46.6167 59.8284 46.3491 60.8052 46 61.7541C45.939 61.9045 45.9583 62.0756 46.0511 62.2088C46.1439 62.3419 46.2977 62.4192 46.46 62.4141L62 62.4141C64.2091 62.4141 66 60.6232 66 58.4141V30.2341C65.9955 29.1749 65.5712 28.1608 64.82 27.4141L60 22.5941ZM43.14 46.0141C43.2806 46.16 43.4954 46.2066 43.6839 46.1321C43.8723 46.0576 43.9972 45.8767 44 45.6741V42.4141C44 41.8618 43.5523 41.4141 43 41.4141H41C40.4477 41.4141 40 41.8618 40 42.4141V42.8741C40.005 43.0976 40.1263 43.3023 40.32 43.4141C41.3575 44.1686 42.3039 45.0411 43.14 46.0141Z" fill="#FCBB1B"/>
</svg>
