<svg width="52" height="52" viewBox="0 0 52 52" fill="none" xmlns="http://www.w3.org/2000/svg">
<g opacity="0.25">
<path fill-rule="evenodd" clip-rule="evenodd" d="M16.0528 50.0146C2.78992 44.5209 -3.50826 29.3158 1.98543 16.0528C7.47912 2.78992 22.6842 -3.50826 35.9472 1.98543C49.2101 7.47912 55.5083 22.6842 50.0146 35.9472C44.5209 49.2101 29.3158 55.5083 16.0528 50.0146Z" fill="#FCBB1B"/>
</g>
<path fill-rule="evenodd" clip-rule="evenodd" d="M25.9876 36.0122C26.1322 36.0122 26.2494 35.895 26.2494 35.7505V32.6092C26.2523 32.5389 26.2257 32.4706 26.176 32.4208C26.1262 32.3711 26.0579 32.3445 25.9876 32.3474C21.4537 32.3474 18.124 31.1433 16.4696 29.824C16.3876 29.7678 16.2794 29.7678 16.1974 29.824C16.1074 29.8652 16.05 29.9554 16.0508 30.0543V31.8239C16.0508 34.2531 20.7731 36.0122 25.9876 36.0122ZM27.5687 27.5832C27.0451 27.5832 26.5216 27.6356 25.9981 27.6356C22.3228 27.6356 18.501 26.7665 16.4696 25.1121C16.3867 25.0587 16.2803 25.0587 16.1974 25.1121C16.1074 25.1533 16.05 25.2435 16.0508 25.3425V27.112C16.0508 29.5413 20.7731 31.3004 25.9876 31.3004C26.1322 31.3004 26.2494 31.1832 26.2494 31.0386V30.2533C26.2529 29.3662 26.815 28.5775 27.6524 28.2848C27.7529 28.2511 27.8232 28.1602 27.8304 28.0544C27.8258 27.9952 27.8258 27.9357 27.8304 27.8764C27.8442 27.8006 27.8209 27.7227 27.7676 27.667C27.7173 27.6106 27.6442 27.5798 27.5687 27.5832ZM35.3275 23.4682C35.4526 23.5257 35.6009 23.4807 35.6731 23.3635C35.8428 23.0701 35.9364 22.739 35.9453 22.4002V20.6097C35.9457 20.5053 35.884 20.4106 35.7883 20.3688C35.7046 20.3179 35.5996 20.3179 35.516 20.3688C33.4533 22.0546 29.6628 22.9237 25.9981 22.9237C22.3333 22.9237 18.501 22.0546 16.4696 20.4003C16.3867 20.3468 16.2803 20.3468 16.1974 20.4003C16.1074 20.4415 16.05 20.5317 16.0508 20.6306V22.4002C16.0508 24.7142 20.5009 26.5885 25.9981 26.5885C26.6682 26.5885 27.3174 26.5885 27.9561 26.5047C28.0553 26.4953 28.1406 26.4304 28.176 26.3372C28.934 24.2951 30.8772 22.9357 33.0554 22.9237C33.8445 22.9288 34.6218 23.1151 35.3275 23.4682ZM16.0508 17.6883C16.0508 20.0015 20.5043 21.8766 25.9981 21.8766C31.4918 21.8766 35.9453 20.0015 35.9453 17.6883C35.9453 15.3752 31.4918 13.5 25.9981 13.5C20.5043 13.5 16.0508 15.3752 16.0508 17.6883ZM36.9505 29.7402C36.8222 29.7248 36.7244 29.6181 36.7202 29.4889V28.4418C36.7202 26.4178 35.0794 24.7771 33.0554 24.7771C31.0314 24.7771 29.3906 26.4178 29.3906 28.4418V29.4889C29.3916 29.6163 29.2971 29.7243 29.1707 29.7402C28.3964 29.8542 27.822 30.5177 27.82 31.3004V37.0593C27.82 37.9267 28.5232 38.6299 29.3906 38.6299H36.7202C37.5876 38.6299 38.2908 37.9267 38.2908 37.0593L38.2908 31.3004C38.2895 30.5211 37.7207 29.8589 36.9505 29.7402ZM32.0083 34.7034C32.0083 34.1251 32.4771 33.6563 33.0554 33.6563C33.6337 33.6563 34.1025 34.1251 34.1025 34.7034C34.1025 35.2817 33.6337 35.7505 33.0554 35.7505C32.4771 35.7505 32.0083 35.2817 32.0083 34.7034ZM31.4848 28.4209C31.4848 27.5535 32.1879 26.8503 33.0554 26.8503C33.9228 26.8503 34.626 27.5535 34.626 28.4209V29.468C34.626 29.6125 34.5088 29.7297 34.3642 29.7297H31.7465C31.602 29.7297 31.4848 29.6125 31.4848 29.468V28.4209Z" fill="#FCBB1B"/>
</svg>
