<svg width="79" height="79" viewBox="0 0 79 79" fill="none" xmlns="http://www.w3.org/2000/svg">
<circle cx="39.5" cy="39.5" r="39.5" fill="#005CAA"/>
<path fill-rule="evenodd" clip-rule="evenodd" d="M44.8758 55.6775C44.718 55.6008 44.6097 55.4492 44.5884 55.275C44.5768 55.1013 44.6567 54.9342 44.7992 54.8342C47.97 52.7224 49.3843 48.7837 48.2811 45.1372C47.178 41.4908 43.8175 38.9965 40.0078 38.9965C36.1982 38.9965 32.8377 41.4908 31.7345 45.1372C30.6314 48.7837 32.0457 52.7224 35.2165 54.8342C35.3654 54.9286 35.4473 55.0998 35.4273 55.275C35.4133 55.4465 35.3119 55.5986 35.159 55.6775C32.7824 56.7479 30.8326 58.5831 29.6202 60.8905C29.3621 61.3211 29.3621 61.8589 29.6202 62.2895C29.8732 62.7278 30.3407 62.9981 30.8468 62.9987H49.1497C49.6524 62.9964 50.1173 62.7318 50.3759 62.3008C50.6345 61.8698 50.6492 61.335 50.4146 60.8905C49.1917 58.5911 47.245 56.7589 44.8758 55.6775ZM35.4656 46.0948C35.4986 45.9331 35.6156 45.8015 35.7723 45.7498C35.8978 45.6816 36.0492 45.6816 36.1748 45.7498C37.975 46.9713 40.094 47.6376 42.2693 47.6663C43.0417 47.6671 43.8122 47.5901 44.5692 47.4364C44.6393 47.4182 44.7139 47.4342 44.7705 47.4794C44.827 47.5247 44.859 47.5939 44.8567 47.6663C44.5508 50.0796 42.4979 51.8888 40.0653 51.8888C37.6328 51.8888 35.5798 50.0796 35.274 47.6663C35.2448 47.1227 35.3096 46.5781 35.4656 46.0564V46.0948ZM62.8722 27.6385C62.5695 26.9239 61.8658 26.4623 61.0898 26.4694H58.2341C58.0366 26.4725 57.8592 26.349 57.7933 26.1628L56.1643 21.8889C55.8079 21.2373 55.1245 20.8322 54.3819 20.8322C53.6393 20.8322 52.9558 21.2373 52.5995 21.8889L51.5071 24.6679V24.802C51.4378 26.4365 50.5425 27.9238 49.1306 28.7501C48.9453 28.8775 48.8735 29.1167 48.9581 29.3251L49.3989 30.3408C50.2253 32.2331 49.7464 34.4419 48.2106 35.8221C48.0411 35.9511 47.8617 36.0664 47.674 36.1671C47.4998 36.3024 47.4306 36.5332 47.5015 36.7421C47.6168 37.0153 47.7939 37.258 48.019 37.4512C48.6355 38.0366 49.5641 38.1458 50.2996 37.7195L54.1327 35.6113C54.2785 35.5169 54.4661 35.5169 54.6119 35.6113L58.3491 37.7195C58.6468 37.8883 58.9843 37.9744 59.3266 37.9687C59.8174 37.9719 60.2907 37.7866 60.649 37.4512C61.2565 36.8888 61.4343 35.9999 61.0898 35.2472L59.7482 32.0849C59.6679 31.8705 59.7381 31.6288 59.9207 31.4907L62.4122 29.7467C62.9841 29.2052 63.1666 28.369 62.8722 27.6385ZM31.805 35.803C30.312 34.4385 29.8365 32.2835 30.6168 30.4175L31.0384 29.4209C31.1298 29.2111 31.0665 28.9661 30.8851 28.8268C29.4322 27.9397 28.5352 26.37 28.5086 24.6679L27.4353 21.8889C27.14 21.17 26.4397 20.7006 25.6625 20.7006C24.8853 20.7006 24.185 21.17 23.8897 21.8889L22.2223 26.1628C22.1519 26.3455 21.9773 26.4669 21.7815 26.4694H18.9259C18.1499 26.4623 17.4461 26.9239 17.1435 27.6385C16.8209 28.4251 17.0549 29.3302 17.7185 29.8617L20.095 31.5099C20.2799 31.6382 20.3447 31.8815 20.2483 32.0849L18.9259 35.2472C18.5906 36.008 18.7842 36.8982 19.405 37.4512C20.0249 38.0459 20.9648 38.1556 21.7049 37.7195L25.4421 35.6113C25.5879 35.5169 25.7755 35.5169 25.9213 35.6113L29.7543 37.7195C30.0603 37.885 30.4031 37.9707 30.7509 37.9687C31.2351 37.967 31.7007 37.7821 32.0542 37.4512C32.1993 37.245 32.2974 37.0095 32.3417 36.7612C32.4867 36.5898 32.4867 36.3386 32.3417 36.1671C32.1504 36.0652 31.9705 35.9431 31.805 35.803ZM45.3933 28.3093C45.2981 28.0957 45.371 27.8446 45.5658 27.7152L48.0573 25.9711C48.6225 25.4252 48.7973 24.5896 48.4981 23.8629C48.178 23.1708 47.4781 22.7343 46.7157 22.7513H43.8409C43.6381 22.7568 43.4539 22.634 43.3809 22.4447L41.8094 18.1133C41.4865 17.4147 40.7771 16.9769 40.0078 17.0017C39.2317 16.969 38.5127 17.408 38.1871 18.1133L36.5772 22.3872C36.5314 22.5802 36.3714 22.725 36.1748 22.7513H33.2999C32.5239 22.7442 31.8202 23.2058 31.5176 23.9204C31.1949 24.707 31.429 25.6121 32.0925 26.1436L34.4499 27.7727C34.6446 27.9021 34.7176 28.1532 34.6224 28.3668L33.2424 31.4524C32.9251 32.0626 32.9591 32.796 33.3314 33.3742C33.7036 33.9524 34.3572 34.2869 35.044 34.2506C35.3862 34.2563 35.7237 34.1703 36.0214 34.0014L39.8545 31.8741C39.9987 31.7991 40.1703 31.7991 40.3145 31.8741L44.1476 34.0014C44.4453 34.1703 44.7828 34.2563 45.125 34.2506C45.6158 34.2538 46.0891 34.0686 46.4474 33.7331C47.077 33.1771 47.2713 32.2759 46.9265 31.5099L45.3933 28.3093Z" fill="white"/>
</svg>
