<svg width="86" height="86" viewBox="0 0 86 86" fill="none" xmlns="http://www.w3.org/2000/svg">
<circle cx="43" cy="43" r="43" fill="#DA4436"/>
<path fill-rule="evenodd" clip-rule="evenodd" d="M55.5809 43.8825C58.071 43.881 60.3718 45.2113 61.6128 47.3701V42.1537H42.2129V58.487H47.1945C48.2728 57.4351 49.5394 56.5956 50.9282 56.0122C48.7858 54.086 48.0523 51.0385 49.0837 48.3485C50.1151 45.6585 52.698 43.8826 55.579 43.8825L55.5809 43.8825ZM61.6128 39.3351H42.2129V23H58.3206C60.1377 23 61.6091 24.4713 61.6091 26.2884V39.3332L61.6128 39.3351ZM39.3962 39.3351V23H23.2884C21.4723 23 20 24.4723 20 26.2884V39.3332H39.3962V39.3351ZM20 42.1537V55.1985C20 57.0156 21.4732 58.487 23.2884 58.487H39.3962V42.1537H20ZM29.7563 30.9355C30.567 30.959 31.3263 30.54 31.7386 29.8417C32.1508 29.1433 32.1508 28.276 31.7386 27.5777C31.3263 26.8793 30.567 26.4603 29.7563 26.4839C28.5267 26.4841 27.5299 27.481 27.5299 28.7106C27.5299 29.9403 28.5267 30.9372 29.7563 30.9374V30.9355ZM31.9831 47.8568C31.9833 49.0868 30.9863 50.0839 29.7563 50.0839C28.5264 50.0839 27.5294 49.0868 27.5296 47.8568C27.5298 46.6272 28.5267 45.6305 29.7563 45.6305C30.986 45.6305 31.9829 46.6272 31.9831 47.8568ZM51.8546 30.9355C52.6653 30.959 53.4246 30.54 53.8369 29.8417C54.2491 29.1433 54.2491 28.276 53.8369 27.5777C53.4246 26.8793 52.6653 26.4603 51.8546 26.4839C50.625 26.4841 49.6283 27.481 49.6283 28.7106C49.6283 29.9403 50.625 30.9372 51.8546 30.9374L51.8546 30.9355ZM33.7682 35.6971C33.3343 33.8316 31.6717 32.5113 29.7563 32.5113C27.841 32.5113 26.1784 33.8316 25.7444 35.6971C25.626 36.2026 26.0582 36.6292 26.5769 36.6292H32.9358C33.4544 36.6292 33.8866 36.2026 33.7682 35.6971ZM32.6689 52.8628C33.2176 53.4115 33.5953 54.0992 33.7682 54.8434C33.8866 55.3507 33.4544 55.7754 32.9358 55.7754H26.5769C26.0582 55.7754 25.626 55.3488 25.7444 54.8434C26.083 53.386 27.1853 52.2268 28.6239 51.8154C30.0624 51.4039 31.6109 51.8049 32.6689 52.8628ZM55.8665 35.6971C55.4358 33.8286 53.7721 32.5049 51.8546 32.5049C49.9371 32.5049 48.2735 33.8286 47.8427 35.6971C47.7244 36.2026 48.1566 36.6292 48.6752 36.6292H55.0341C55.5527 36.6292 55.9849 36.2026 55.8665 35.6971ZM55.5809 54.9768C57.0799 55.0087 58.4789 54.2273 59.2377 52.9342C59.9966 51.6411 59.9966 50.0387 59.2377 48.7456C58.4789 47.4525 57.0799 46.6711 55.5809 46.7031C53.3305 46.751 51.5313 48.589 51.5313 50.8399C51.5313 53.0908 53.3305 54.9288 55.5809 54.9768ZM62.0789 60.5859C63.3454 61.8527 64.2141 63.4621 64.5781 65.216C64.7885 66.2326 63.9279 67.082 62.8906 67.082H48.2712C47.2339 67.082 46.3733 66.2326 46.5837 65.216C47.2699 61.9094 49.7145 59.2456 52.9501 58.2788C56.1858 57.3119 59.6911 58.1978 62.0789 60.5859Z" fill="white"/>
</svg>
