<svg width="50" height="49" viewBox="0 0 50 49" fill="none" xmlns="http://www.w3.org/2000/svg">
<path fill-rule="evenodd" clip-rule="evenodd" d="M49.543 23.3548L45.2304 19.0839C44.7735 18.6514 44.108 18.5216 43.522 18.7505C42.9426 18.9934 42.5651 19.5598 42.5637 20.1881V22.8965H33.3342C32.8879 21.773 31.9756 20.8987 30.8342 20.5006V12.7295H35.6676C36.8183 12.7295 37.751 11.7968 37.751 10.6461V2.08339C37.751 0.932766 36.8183 0 35.6676 0H22.9173C21.7667 0 20.8339 0.932766 20.8339 2.08339V10.6045C20.8339 11.7551 21.7667 12.6878 22.9173 12.6878H27.7091V20.5006C26.5992 20.9188 25.7202 21.7903 25.2924 22.8965H14.0421C13.4901 21.1702 11.8856 19.9986 10.0732 19.9986C8.26081 19.9986 6.65628 21.1702 6.10433 22.8965H1.56254C0.699573 22.8965 0 23.596 0 24.459C0 25.322 0.699573 26.0215 1.56254 26.0215H6.10433C6.53221 27.1277 7.41121 27.9992 8.52107 28.4174V36.1885H3.6876C2.53697 36.1885 1.60421 37.1213 1.60421 38.2719V46.7929C1.60421 47.9436 2.53697 48.8763 3.6876 48.8763H16.4796C17.6302 48.8763 18.563 47.9436 18.563 46.7929V38.3135C18.563 37.1629 17.6302 36.2302 16.4796 36.2302H11.6462V28.4174C12.7481 27.9942 13.6188 27.1235 14.0421 26.0215H25.2924C25.8443 27.7478 27.4488 28.9194 29.2612 28.9194C31.0736 28.9194 32.6781 27.7478 33.2301 26.0215H42.5637V28.73C42.5651 29.3582 42.9426 29.9246 43.522 30.1675C43.7126 30.2506 43.9183 30.2931 44.1262 30.2925C44.5387 30.2835 44.9328 30.1199 45.2304 29.8342L49.543 25.5632C50.1523 24.9531 50.1523 23.9649 49.543 23.3548Z" fill="#FCBB1B"/>
</svg>
