<?xml version="1.0" encoding="UTF-8"?>
<svg id="Layer_1" xmlns="http://www.w3.org/2000/svg" version="1.1" viewBox="0 0 23 22">
  <!-- Generator: Adobe Illustrator 29.2.1, SVG Export Plug-In . SVG Version: 2.1.0 Build 116)  -->
  <defs>
    <style>
      .st0 {
        fill: #fcbb1b;
        fill-rule: evenodd;
      }
    </style>
  </defs>
  <path class="st0" d="M21.8,5.6c-.2-.2-.4-.2-.6,0l-12.6,9.1c-.2.1-.3.2-.5.1-.2,0-.3-.2-.4-.3l-3.3-6c-.1-.3-.1-.6.1-.8.2-.2.5-.3.8-.1l3.7,2.1c.1,0,.3,0,.5,0l10.3-5.7c.1,0,.2-.2.2-.4,0-.2,0-.3-.2-.4C17.4,1,14.5,0,11.5,0,5.2,0,0,4.5,0,10c0,2.7,1.3,5.3,3.3,7,0,0,0,.1,0,.2l-.4,3.9c0,.3.1.6.3.7.1,0,.2.1.4,0,.1,0,.3,0,.4-.1.1,0,2.5-1.8,3.3-2.4,0,0,.1,0,.2,0,1.3.3,2.6.5,3.9.6,6.3,0,11.5-4.5,11.5-10,0-1.6-.4-3.2-1.2-4.5Z"/>
</svg>