<svg width="50" height="51" viewBox="0 0 50 51" fill="none" xmlns="http://www.w3.org/2000/svg">
<path fill-rule="evenodd" clip-rule="evenodd" d="M49.9998 4.16689C50.0117 3.05218 49.5765 1.97916 48.7914 1.18774C48.0017 0.415425 46.9376 -0.0117031 45.8331 0.000244047H4.16665C1.86547 0.000244047 0 1.86571 0 4.16689V19.396C0.0802177 34.1151 10.3368 46.819 24.7082 50C24.8463 50.0205 24.9867 50.0205 25.1249 50C25.2631 50.0197 25.4034 50.0197 25.5415 50C39.8928 46.6927 50.0452 33.8942 49.9998 19.1668L49.9998 4.16689ZM36.354 20.8335C36.7535 21.2456 36.7535 21.9005 36.354 22.3126L34.6665 24.0001C34.2881 24.3885 34.2881 25.0076 34.6665 25.396C36.025 27.0548 35.9027 29.4739 34.3839 30.9873C32.865 32.5008 30.4456 32.6144 28.7915 31.2501C28.4032 30.8717 27.784 30.8717 27.3957 31.2501L25.3124 33.3334C24.9003 33.733 24.2453 33.733 23.8332 33.3334L21.9166 31.2501C21.5757 30.8945 21.5239 30.3512 21.7916 29.9376C22.8749 28.3334 23.8749 25.771 21.9999 23.9585C20.1249 22.146 17.6457 23.1043 16.0208 24.1668C15.6072 24.4344 15.0639 24.3827 14.7083 24.0418L12.8124 22.1251C12.611 21.9361 12.4968 21.6722 12.4968 21.396C12.4968 21.1198 12.611 20.8558 12.8124 20.6668L14.8958 18.5835C15.2717 18.2022 15.2717 17.5897 14.8958 17.2085C13.4166 15.5494 13.5002 13.0213 15.0858 11.4635C16.6714 9.90576 19.2005 9.86689 20.8332 11.3752C21.2216 11.7536 21.8407 11.7536 22.2291 11.3752L23.9166 9.6877C24.3287 9.28815 24.9836 9.28815 25.3957 9.6877L27.2915 11.6044C27.64 11.9565 27.6923 12.5053 27.4165 12.9168C26.2926 14.56 26.4879 16.7686 27.8829 18.1889C29.2778 19.6092 31.4826 19.8443 33.1457 18.7502C33.5507 18.4776 34.0921 18.53 34.4373 18.8752L36.354 20.8335Z" fill="#FCBB1B"/>
</svg>
