<svg width="50" height="50" viewBox="0 0 50 50" fill="none" xmlns="http://www.w3.org/2000/svg">
<path fill-rule="evenodd" clip-rule="evenodd" d="M22.9167 46.0625C22.7452 45.8315 22.4917 45.6749 22.2083 45.625C20.0389 45.3229 17.93 44.6832 15.9583 43.7292C15.7722 43.6442 15.6567 43.4543 15.6667 43.25L15.6667 40.8542C15.6682 39.3194 16.3467 37.8634 17.5208 36.875C18.6968 35.8776 19.6061 34.6032 20.1667 33.1667C20.3125 32.4792 20.5 31.8125 20.7083 31.0833C20.806 30.603 20.8618 30.115 20.875 29.625C20.8635 24.4521 16.6729 20.2615 11.5 20.25H5.375C5.21762 20.2467 5.07096 20.1695 4.97917 20.0417C4.87391 19.9222 4.83488 19.7582 4.875 19.6042C6.54154 13.394 10.9823 8.30133 16.9077 5.80489C22.8332 3.30846 29.5794 3.68801 35.1875 6.83333C35.3934 6.94869 35.4959 7.18804 35.4375 7.41667C35.3744 7.64313 35.1724 7.80304 34.9375 7.8125H29.6875C26.5234 7.8125 23.9583 10.3775 23.9583 13.5417C23.9583 16.7058 26.5234 19.2708 29.6875 19.2708C30.6268 19.2826 31.5465 19.5412 32.3542 20.0208C32.5762 20.1641 32.8476 20.2094 33.1042 20.1458C34.2069 19.9115 35.331 19.7928 36.4583 19.7917C41.2389 19.7872 45.7912 21.8357 48.9583 25.4167C49.1353 25.5762 49.3877 25.6213 49.6089 25.5327C49.8302 25.4442 49.9819 25.2376 50 25C50 11.1929 38.8071 0 25 0C11.1929 0 0 11.1929 0 25C-1.38889e-06 35.25 8.33333 50 25 50C25.2556 49.9967 25.4834 49.838 25.5751 49.5994C25.6669 49.3608 25.6041 49.0904 25.4167 48.9167C24.4774 48.0635 23.6386 47.1059 22.9167 46.0625ZM36.4583 22.9167C28.9795 22.9167 22.9167 28.9795 22.9167 36.4583C22.9167 43.9372 28.9795 50 36.4583 50C43.9372 50 50 43.9372 50 36.4583C49.9885 28.9842 43.9324 22.9281 36.4583 22.9167ZM43.2708 33.7708L37.2292 41.8333C36.6861 42.5666 35.848 43.0237 34.9375 43.0833H34.7083C33.8866 43.0794 33.0999 42.7497 32.5208 42.1667L29.3958 39.0417C28.8222 38.426 28.8391 37.4666 29.4341 36.8716C30.0291 36.2766 30.9885 36.2597 31.6042 36.8333L33.875 39.1042C34.0902 39.3173 34.3849 39.4307 34.6875 39.4167C34.9909 39.39 35.2699 39.2393 35.4583 39L40.7708 31.875C41.2943 31.1843 42.2785 31.0489 42.969 31.5725C43.6595 32.0962 43.7947 33.0805 43.2708 33.7708Z" fill="white"/>
</svg>
