<svg width="52" height="52" viewBox="0 0 52 52" fill="none" xmlns="http://www.w3.org/2000/svg">
<g opacity="0.25">
<path fill-rule="evenodd" clip-rule="evenodd" d="M16.0528 50.0146C2.78992 44.5209 -3.50826 29.3158 1.98543 16.0528C7.47912 2.78992 22.6842 -3.50826 35.9472 1.98543C49.2101 7.47912 55.5083 22.6842 50.0146 35.9472C44.5209 49.2101 29.3158 55.5083 16.0528 50.0146Z" fill="#FCBB1B"/>
</g>
<path fill-rule="evenodd" clip-rule="evenodd" d="M17.7324 39.5H36.6074C38.2988 39.5 39.6699 38.1289 39.6699 36.4375V17.5625C39.6699 15.8711 38.2988 14.5 36.6074 14.5H17.7324C16.041 14.5 14.6699 15.8711 14.6699 17.5625V36.4375C14.6699 38.1289 16.041 39.5 17.7324 39.5ZM36.6074 37.4167H17.7324C17.1571 37.4167 16.6908 36.9503 16.6908 36.375V17.625C16.6902 17.3376 16.8085 17.0627 17.0176 16.8654C17.2267 16.6682 17.508 16.5661 17.7949 16.5833H36.5449C37.1202 16.5833 37.5866 17.0497 37.5866 17.625V36.4375C37.5558 36.965 37.1349 37.3859 36.6074 37.4167ZM34.2949 30.7396L32.1387 32.6458C32.0455 32.7247 31.909 32.7247 31.8158 32.6458L30.3887 31.6042C30.0574 31.3697 29.659 31.2491 29.2533 31.2604C28.8227 31.262 28.4076 31.4214 28.0866 31.7083L25.4616 34.0312C25.0338 34.4142 24.9965 35.0711 25.3783 35.5C25.5733 35.7221 25.8535 35.8508 26.1491 35.8542C26.4059 35.8564 26.6544 35.7636 26.847 35.5938L29.1699 33.5104C29.2679 33.4339 29.4053 33.4339 29.5033 33.5104L30.9199 34.5521C31.2653 34.7991 31.6832 34.9237 32.1074 34.9062C32.5373 34.9009 32.9511 34.742 33.2741 34.4583L35.7116 32.2917C36.0099 32.0514 36.1522 31.6669 36.0823 31.2903C36.0125 30.9138 35.7416 30.6059 35.3769 30.4887C35.0123 30.3715 34.6128 30.4639 34.3366 30.7292L34.2949 30.7396ZM29.597 25.0417C29.5609 24.9908 29.5031 24.96 29.4408 24.9583L25.2012 24.625C25.1312 24.622 25.0632 24.6484 25.0137 24.6979C24.9837 24.7605 24.9837 24.8333 25.0137 24.8958L25.9303 29.0625C25.9463 29.1251 25.9879 29.178 26.0449 29.2083C26.1046 29.2351 26.1728 29.2351 26.2324 29.2083C27.9548 28.5221 29.2366 27.0422 29.6699 25.2396C29.6857 25.1651 29.6574 25.0881 29.597 25.0417ZM22.1803 18.4688C22.1182 18.4871 22.0682 18.5333 22.0449 18.5938C22.0182 18.6534 22.0182 18.7216 22.0449 18.7812L24.4199 23.1354C24.4498 23.2063 24.5201 23.2518 24.597 23.25L29.5345 23.6354C29.5998 23.6408 29.6642 23.6181 29.7116 23.5729C29.7537 23.5237 29.776 23.4606 29.7741 23.3958C29.6288 21.6302 28.6735 20.0316 27.1873 19.0673C25.7011 18.103 23.8519 17.8819 22.1803 18.4688ZM20.7533 19.3021C20.6933 19.2766 20.6257 19.2766 20.5658 19.3021C18.5958 20.7888 17.7994 23.3699 18.589 25.7082C19.3787 28.0464 21.577 29.6162 24.0449 29.6042H24.3783C24.4435 29.6026 24.5046 29.5721 24.5449 29.5208C24.5704 29.4609 24.5704 29.3932 24.5449 29.3333L23.3991 24.125V24.0729L20.9199 19.4062C20.884 19.3471 20.8222 19.3085 20.7533 19.3021ZM32.8991 20.2292C32.8991 20.8045 33.3655 21.2708 33.9408 21.2708C34.5161 21.2708 34.9824 20.8045 34.9824 20.2292C34.9824 19.6539 34.5161 19.1875 33.9408 19.1875C33.3655 19.1875 32.8991 19.6539 32.8991 20.2292ZM32.8991 23.3542C32.8991 23.9295 33.3655 24.3958 33.9408 24.3958C34.5161 24.3958 34.9824 23.9295 34.9824 23.3542C34.9824 22.7789 34.5161 22.3125 33.9408 22.3125C33.3655 22.3125 32.8991 22.7789 32.8991 23.3542ZM32.8991 26.4792C32.8991 27.0545 33.3655 27.5208 33.9408 27.5208C34.5161 27.5208 34.9824 27.0545 34.9824 26.4792C34.9824 25.9039 34.5161 25.4375 33.9408 25.4375C33.3655 25.4375 32.8991 25.9039 32.8991 26.4792Z" fill="#FCBB1B"/>
</svg>
