<svg width="40" height="42" viewBox="0 0 40 42" fill="none" xmlns="http://www.w3.org/2000/svg">
<path fill-rule="evenodd" clip-rule="evenodd" d="M28.0558 11.9647H30.9095C32.0397 11.9652 33.1231 11.5132 33.918 10.7097L38.0094 6.61824C38.2073 6.37001 38.2523 6.03291 38.1264 5.74148C38.0004 5.45006 37.7241 5.25178 37.4077 5.22576H32.749C32.5182 5.22595 32.3284 5.0438 32.3192 4.81318V0.910808C32.3504 0.542328 32.1326 0.1981 31.7863 0.0684467C31.476 -0.0664287 31.1149 0.00170938 30.8751 0.240357L26.7665 4.41779C25.9676 5.21436 25.5218 6.29811 25.5287 7.42622L25.5287 9.43757C25.5287 9.71263 25.3052 9.7814 25.1677 9.90173L18.3772 16.7782C17.7332 17.4445 17.7332 18.5014 18.3772 19.1677C19.0457 19.8229 20.1155 19.8229 20.784 19.1677L27.5745 12.3772C27.6948 12.1881 27.7636 11.9647 28.0558 11.9647ZM23.758 34.8803H35.7918C37.6907 34.8803 39.23 33.341 39.23 31.4421V14.5089C39.23 13.5595 38.4603 12.7898 37.5109 12.7898C36.5615 12.7898 35.7918 13.5595 35.7918 14.5089V28.7947C35.7918 29.0321 35.5994 29.2245 35.362 29.2245H3.86799C3.63063 29.2245 3.43821 29.0321 3.43821 28.7947V8.16544C3.44744 7.93482 3.63718 7.75267 3.86799 7.75285H20.2855C21.2349 7.75285 22.0046 6.98318 22.0046 6.03374C22.0046 5.08431 21.2349 4.31464 20.2855 4.31464H3.43821C1.53934 4.31464 0 5.85398 0 7.75285V31.4937C0 33.3926 1.53934 34.9319 3.43821 34.9319H15.472C15.6072 34.9319 15.7346 34.9956 15.8158 35.1038C15.8742 35.2231 15.8742 35.3627 15.8158 35.482C15.4749 36.5592 15.0075 37.5922 14.4233 38.5592C14.3464 38.6855 14.2101 38.7634 14.0623 38.7655H11.9822C11.2796 38.7655 10.71 39.3351 10.71 40.0377C10.71 40.7402 11.2796 41.3098 11.9822 41.3098H28.073C28.7784 41.3004 29.3452 40.7259 29.3451 40.0205C29.3357 39.3246 28.7689 38.7655 28.073 38.7655H25.1333C24.9776 38.7775 24.8294 38.6967 24.7551 38.5592C24.1704 37.5901 23.6975 36.5578 23.3455 35.482C23.287 35.3627 23.287 35.2231 23.3455 35.1038C23.4297 34.9573 23.5893 34.8709 23.758 34.8803ZM17.8615 13.9932C18.5272 13.833 19.0343 13.2931 19.1526 12.6188C19.2709 11.9444 18.9777 11.2642 18.4063 10.887C17.8349 10.5099 17.0942 10.5078 16.5206 10.8816C13.1593 12.3009 11.2725 15.9007 12.0178 19.4725C12.7632 23.0443 15.9322 25.5891 19.5806 25.5456C22.9876 25.531 25.9802 23.2796 26.9384 20.0101C27.2201 19.3962 27.1162 18.6743 26.673 18.1648C26.2297 17.6552 25.5291 17.4524 24.8822 17.6464C24.2353 17.8404 23.7619 18.3952 23.6721 19.0646C23.1189 20.9483 21.3465 22.2071 19.3857 22.109C17.425 22.0109 15.7871 20.5814 15.4247 18.6519C15.0623 16.7224 16.0699 14.796 17.8615 13.9932Z" fill="white"/>
</svg>
