<svg width="72" height="72" viewBox="0 0 72 72" fill="none" xmlns="http://www.w3.org/2000/svg">
<circle opacity="0.27" cx="36" cy="36" r="36" fill="#FCBB1B"/>
<path d="M34.1638 37.5439C40.0991 37.1097 50.5045 40.1859 48.4012 48.0168C46.7016 54.3426 37.1539 55.8318 31.7057 54.6074C18.3578 51.6066 21.2182 38.4903 34.1638 37.5439Z" fill="#FCBB1B"/>
<path d="M35.054 17.0343C42.9365 16.3526 47.3059 25.9916 42.4031 31.9137C38.3023 36.8669 30.5813 35.7299 27.9538 29.9216C25.4653 24.4177 28.8711 17.5677 35.054 17.0343Z" fill="#FCBB1B"/>
<path d="M46.4707 21.5623C52.0989 19.079 57.477 24.4214 55.4889 30.133C53.9746 34.484 48.7381 35.985 45.1841 33.0054C45.5666 32.5315 46.0048 32.1013 46.3529 31.5997C48.4152 28.6373 48.3741 24.5948 46.4707 21.5623Z" fill="#FCBB1B"/>
<path d="M25.0688 21.5639C24.0456 23.3733 23.5214 25.2569 23.6829 27.3576C23.8444 29.4582 24.9179 31.449 26.3501 32.9924C23.0184 35.9469 17.8812 34.5226 16.2028 30.4775C13.848 24.8002 19.3439 18.9827 25.0688 21.5639Z" fill="#FCBB1B"/>
<path d="M26.5532 37.5155L24.5054 38.4884C20.6483 40.6394 17.8077 44.7586 20.2604 49.1082L21.5007 50.7906C19.265 50.731 16.9698 50.3498 15.0306 49.1863C10.9696 46.7508 11.0966 42.2066 14.7725 39.4547C17.9864 37.0496 22.7291 36.4393 26.5545 37.5155H26.5532Z" fill="#FCBB1B"/>
<path d="M50.038 50.7926C50.9315 49.7694 51.7535 48.6667 52.0539 47.31C53.0904 42.6242 49.0876 39.0383 45.0848 37.6141C45.0583 37.581 45.1391 37.491 45.1841 37.4671C45.4859 37.299 47.1908 37.0515 47.613 37.0224C52.365 36.6941 60.9583 39.4328 59.403 45.6421C58.4579 49.4186 53.4689 50.8455 50.0393 50.7926H50.038Z" fill="#FCBB1B"/>
</svg>
