<svg width="86" height="86" viewBox="0 0 86 86" fill="none" xmlns="http://www.w3.org/2000/svg">
<g opacity="0.25">
<path fill-rule="evenodd" clip-rule="evenodd" d="M26.5489 82.7164C4.61409 73.6307 -5.80212 48.4838 3.2836 26.5489C12.3693 4.61409 37.5162 -5.80212 59.4511 3.2836C81.3859 12.3693 91.8021 37.5162 82.7164 59.4511C73.6307 81.3859 48.4838 91.8021 26.5489 82.7164Z" fill="#FCBB1B"/>
</g>
<path d="M43.4457 46.163V42.4457M33.2228 46.163L36.0109 42.4457M53.6685 46.163L50.8804 42.4457M63.8913 64.75C62.2389 62.7001 59.7475 61.5083 57.1145 61.5083C54.4815 61.5083 51.9901 62.7001 50.3377 64.75C48.6288 62.7094 46.1072 61.5262 43.4457 61.5159C40.7841 61.5262 38.2625 62.7094 36.5536 64.75C34.9012 62.7001 32.4098 61.5083 29.7768 61.5083C27.1438 61.5083 24.6524 62.7001 23 64.75M39.2636 26.1821C39.2636 28.4918 41.136 30.3641 43.4457 30.3641C45.7553 30.3641 47.6277 28.4918 47.6277 26.1821C47.6277 23.8724 45.7553 22 43.4457 22C41.136 22 39.2636 23.8724 39.2636 26.1821ZM51.8098 38.7283C50.8348 34.9049 47.3914 32.2293 43.4457 32.2293C39.4999 32.2293 36.0565 34.9049 35.0815 38.7283H51.8098ZM39.2376 55.1777C39.2376 57.5901 41.1932 59.5457 43.6055 59.5457C46.0178 59.5457 47.9734 57.5901 47.9734 55.1777C47.9734 52.7654 46.0178 50.8098 43.6055 50.8098C41.1932 50.8098 39.2376 52.7654 39.2376 55.1777ZM25.4981 55.1777C25.4981 57.5901 27.4537 59.5457 29.866 59.5457C32.2784 59.5457 34.234 57.5901 34.234 55.1777C34.234 52.7654 32.2784 50.8098 29.866 50.8098C27.4537 50.8098 25.4981 52.7654 25.4981 55.1777ZM52.6722 55.1777C52.6722 57.5901 54.6278 59.5457 57.0401 59.5457C59.4525 59.5457 61.4081 57.5901 61.4081 55.1777C61.4081 52.7654 59.4525 50.8098 57.0401 50.8098C54.6278 50.8098 52.6722 52.7654 52.6722 55.1777Z" stroke="#FCBB1B" stroke-width="2.5" stroke-linecap="round" stroke-linejoin="round"/>
</svg>
