<svg width="88" height="75" viewBox="0 0 88 75" fill="none" xmlns="http://www.w3.org/2000/svg">
<path d="M22.7089 64.9672C22.9341 63.0757 24.2806 60.8441 25.5456 59.4554C25.8474 59.125 26.4655 59.01 26.3985 58.4641C24.1847 58.0762 21.9902 56.8503 19.834 56.3858C16.9303 55.7585 14.9513 56.3187 12.153 54.5469C4.68774 49.8204 7.28957 37.8581 15.8617 36.7662C26.0343 35.4733 31.2523 47.7995 23.2935 54.092L30.524 56.6779L37.2754 54.2835C28.8565 49.1691 31.0703 35.7462 40.5385 33.2752C53.5237 29.88 60.9315 47.0525 50.0977 54.2835L56.8491 56.6779L64.0796 54.092C58.8567 50.237 58.9334 42.2637 64.2185 38.4998C73.5334 31.8578 84.6068 43.7483 77.4865 52.5356C74.3863 56.3618 71.6359 55.4999 67.5439 56.3858C65.3877 56.8503 63.1883 58.0762 60.9794 58.4641C60.898 58.761 61.0561 58.7849 61.1711 58.9526C62.3642 60.6765 64.6689 62.6447 64.6689 65.1636V68.1709L84.0989 67.9746V63.2193C84.0989 62.6447 83.0112 60.7483 82.5512 60.2982C81.3149 59.0962 77.659 58.7418 77.9608 56.8982C78.3633 54.4511 81.9187 56.1703 83.1837 56.9461C87.0792 59.3357 87.7644 64.0047 87.1894 68.2475C86.9451 70.0337 85.1099 71.207 83.4137 71.2692L64.7887 71.2597C64.3862 72.7633 63.5621 74.2047 61.9904 74.7123C50.1456 75.287 38.1858 74.7985 26.2978 74.9614C24.2949 74.6597 22.8958 73.2518 22.5939 71.2597L4.14628 71.2788C2.47881 71.2788 0.509462 70.1487 0.217175 68.4104C-0.568647 63.7269 0.691543 58.2247 5.42085 56.2278C6.42229 55.8016 8.8133 54.9539 9.25892 56.4576C9.99682 58.943 6.28813 58.8664 4.82669 60.2934C4.3667 60.7388 3.27901 62.6351 3.27901 63.2145V67.9698L22.0381 68.1757L22.7089 67.874C22.7856 66.9402 22.6035 65.8723 22.7089 64.9624V64.9672ZM42.0909 36.1868C32.6802 37.4606 32.8671 52.1525 42.6276 53.0241C55.4882 54.1734 55.3732 34.391 42.0909 36.1868ZM16.2499 39.8742C8.25268 41.0426 9.33558 54.2692 18.8709 52.7846C26.571 51.5874 25.421 38.5333 16.2499 39.8742ZM68.507 39.8694C66.9545 40.1088 65.1193 41.5358 64.3191 42.8671C60.9171 48.537 66.8827 55.2317 72.9009 52.2196C79.4366 48.9488 76.5569 38.6195 68.507 39.8694ZM61.3244 71.6188C61.6838 71.2597 61.6406 66.3847 61.5448 65.5706C61.2477 63.0134 59.4269 61.0405 57.1461 60.0635C53.7106 58.5886 46.3986 56.0985 42.8097 56.3187C40.2414 56.4768 30.3084 59.5847 28.3582 61.0979C27.2466 61.9599 26.0678 63.8131 25.8666 65.2115C25.7133 66.2602 25.6366 70.2109 25.8235 71.1735C25.8522 71.3267 25.8858 71.4656 25.9912 71.5853L26.4991 71.8535L60.3086 71.8678L61.3244 71.6188Z" fill="#FCBB1B"/>
<path d="M55.8631 8.04647C56.3806 8.52535 56.831 9.53098 56.8837 10.2397C57.1425 13.4817 53.5967 14.4059 51.6753 16.2688C52.0203 18.96 54.7754 22.5756 51.8382 24.764C48.8003 27.0291 46.2416 23.5142 43.7787 22.1446C41.1577 23.2843 38.7284 27.1153 35.5468 24.764C32.7006 22.6618 35.197 19.0415 35.7384 16.4268C34.0039 14.3772 29.8831 13.3572 30.5683 9.9093C31.3445 6.03519 36.0403 7.23238 38.8482 6.92111C39.8879 4.40223 40.1084 -0.0896251 43.7883 0.00136129C47.3053 0.0875589 47.5018 4.45012 48.5368 6.92111C50.8511 7.32816 53.9848 6.29379 55.8631 8.04647ZM43.5966 3.12363C42.9306 3.28166 41.8285 9.27718 40.8559 9.89972C39.7634 10.5941 35.2641 9.75127 33.7787 10.2062L33.6062 10.7761C33.726 11.1448 37.8755 13.7786 38.5415 14.3868C39.0878 14.8848 39.2938 15.2152 39.1836 15.9862C38.9536 17.6288 37.4826 20.1812 37.3149 21.7184C37.2765 22.044 37.3005 22.1541 37.5784 22.3457C38.393 22.5708 42.4035 18.4524 43.7596 18.5195C45.1156 18.5865 49.0064 22.566 49.8066 22.3457C50.0893 22.1494 50.1084 22.0392 50.0701 21.7184C49.8976 20.1812 48.4314 17.6288 48.2014 15.9862C48.1535 15.6606 48.1439 15.4786 48.2445 15.1578C48.5512 14.1809 52.5617 11.9302 53.5057 11.0921C54.0615 10.5414 53.8555 10.1918 53.1223 10.1056C51.7232 9.94282 47.4012 10.4552 46.5291 9.89972C45.657 9.34422 44.7993 4.7566 44.1237 3.56898C44.0135 3.37265 43.8937 3.05659 43.6014 3.12363H43.5966Z" fill="#FCBB1B"/>
<path d="M19.8169 17.0774C22.4475 16.8954 27.1576 17.0055 26.5443 20.8413C26.1514 23.2979 22.8452 24.0929 22.5337 25.0027C22.0833 26.3292 24.6324 28.7236 23.1806 31.0749C21.0723 34.4941 17.838 31.3287 15.6482 29.9495C13.5447 31.5586 10.181 34.4031 8.16373 30.96C6.84125 28.7045 9.30892 26.4298 8.88247 25.0075C8.73393 24.5191 5.97397 23.0633 5.37502 22.096C4.66586 20.9467 4.67065 19.85 5.36544 18.7055C6.65917 16.5841 9.51975 17.2258 11.6041 17.0774C12.3707 15.2433 12.6247 12.0252 15.0493 11.6852C18.6957 11.1728 18.8394 14.5249 19.8169 17.0774ZM23.2908 20.4055H18.9209C18.8586 20.4055 17.8955 20.0655 17.7757 19.9937C17.0186 19.5484 16.228 15.9759 15.9069 14.9655C14.9726 15.6503 14.4455 20.2092 13.2859 20.2092H8.13977C8.82976 21.3537 12.1168 22.843 12.3755 24.0402C12.6343 25.2374 10.7272 28.8912 11.0531 29.3366C12.136 28.7428 14.4982 26.4585 15.6195 26.4106C16.9803 26.3484 19.0838 28.7906 20.3727 29.3366C20.5883 29.078 18.7196 25.0842 19.1029 23.8918C19.4479 22.8095 22.5385 21.4543 23.2908 20.4055Z" fill="#FCBB1B"/>
<path d="M75.7742 17.0774C78.3808 16.8906 83.1101 17.0295 82.5016 20.8413C82.1087 23.2979 78.8025 24.0929 78.491 25.0027C78.0406 26.3292 80.5897 28.7236 79.1379 31.0749C77.0296 34.4941 73.7952 31.3287 71.6055 29.9495C69.502 31.5586 66.1383 34.4031 64.121 30.96C62.7985 28.7045 65.2662 26.4298 64.8397 25.0075C64.6912 24.5191 61.9312 23.0633 61.3323 22.096C60.6231 20.9467 60.6279 19.85 61.3227 18.7055C62.6164 16.5841 65.477 17.2258 67.5614 17.0774C68.328 15.2433 68.582 12.0252 71.0065 11.6852C74.6529 11.1728 74.7967 14.5249 75.7742 17.0774ZM79.2433 20.4055H74.8733C74.8111 20.4055 73.8479 20.0655 73.7282 19.9937C72.9711 19.5484 72.1805 15.9759 71.8594 14.9655C70.9251 15.6503 70.398 20.2092 69.2384 20.2092H64.0923C64.7822 21.3537 68.0693 22.843 68.328 24.0402C68.5868 25.2374 66.6797 28.8912 67.0055 29.3366C68.0884 28.7428 70.4507 26.4585 71.5719 26.4106C72.9327 26.3484 75.0363 28.7906 76.3252 29.3366C76.5408 29.078 74.6721 25.0842 75.0554 23.8918C75.4004 22.8095 78.491 21.4543 79.2433 20.4055Z" fill="#FCBB1B"/>
</svg>
