<svg width="50" height="51" viewBox="0 0 50 51" fill="none" xmlns="http://www.w3.org/2000/svg">
<path fill-rule="evenodd" clip-rule="evenodd" d="M26.923 29.5243C27.2151 29.3885 27.4299 29.1276 27.5072 28.8149C27.5774 28.4997 27.5007 28.1696 27.2986 27.9177C23.707 23.3051 17.8362 21.0901 12.0929 22.1807C6.34947 23.2714 1.69931 27.4842 0.0485595 33.0923C-0.0542854 33.4069 0.00848411 33.7521 0.215481 34.0104C0.407932 34.2785 0.720124 34.4346 1.05009 34.4277L20.7886 34.4277C21.1384 34.428 21.4661 34.2564 21.665 33.9687C22.9486 32.0078 24.7757 30.4634 26.923 29.5243ZM4.70151 9.911C4.70151 15.3847 9.13882 19.822 14.6125 19.822C20.0862 19.822 24.5235 15.3847 24.5235 9.911C24.5235 4.43731 20.0862 0 14.6125 0C9.13882 0 4.70151 4.43731 4.70151 9.911ZM50 24.2663C50 23.6901 49.5329 23.223 48.9567 23.223H44.7837C44.5183 23.2246 44.2639 23.3294 44.0743 23.5152L35.3317 31.8613C35.2063 32.0018 35.0078 32.0514 34.831 31.9865C31.3008 30.7592 27.3789 31.7629 24.8723 34.5352C22.3658 37.3075 21.761 41.3104 23.3366 44.6994C24.9122 48.0885 28.3624 50.2062 32.0976 50.0766C35.0324 50.0754 37.7939 48.6866 39.5449 46.3314C41.296 43.9761 41.8304 40.9317 40.9862 38.1208C40.9384 37.9334 40.994 37.7346 41.1323 37.5992L49.6036 29.2114C49.8062 29.023 49.9199 28.7578 49.9165 28.4811L50 24.2663ZM35.0605 43.045C33.6429 44.4635 31.3437 44.4639 29.9256 43.0461C28.5074 41.6282 28.5074 39.329 29.9256 37.9112C31.3437 36.4933 33.6429 36.4937 35.0605 37.9122C36.4293 39.3546 36.3922 41.6272 34.977 43.0242L35.0605 43.045Z" fill="white"/>
</svg>
