<svg width="86" height="86" viewBox="0 0 86 86" fill="none" xmlns="http://www.w3.org/2000/svg">
<circle cx="43" cy="43" r="43" fill="#DA4436"/>
<path fill-rule="evenodd" clip-rule="evenodd" d="M63.0635 33.0462C62.9252 32.7094 62.6011 32.4861 62.2371 32.477H59.4827V29.7225C59.4827 26.68 57.0162 24.2136 53.9737 24.2136H51.6416C50.6274 24.2136 49.8053 25.0357 49.8053 26.0499C49.8053 27.064 50.6274 27.8862 51.6416 27.8862H53.937C54.9511 27.8862 55.7733 28.7083 55.7733 29.7225V32.477H53.0555C52.6849 32.4788 52.3517 32.7034 52.2108 33.0462C52.0683 33.3869 52.1484 33.7801 52.4128 34.0379L57.0036 38.6286C57.1731 38.8016 57.4041 38.9006 57.6463 38.9041C57.8945 38.9035 58.1322 38.8044 58.3074 38.6286L62.8982 34.0379C63.1411 33.7674 63.2055 33.3808 63.0635 33.0462ZM58.5645 58.0569C58.418 57.9813 58.3208 57.8356 58.3074 57.6713C58.2882 57.5034 58.3667 57.3393 58.5094 57.2489C61.5707 55.223 62.9421 51.43 61.8843 47.9148C60.8265 44.3996 57.5895 41.9934 53.9186 41.9934C50.2477 41.9934 47.0108 44.3996 45.953 47.9148C44.8951 51.43 46.2666 55.223 49.3278 57.2489C49.4643 57.3447 49.5409 57.5049 49.5298 57.6713C49.5093 57.8382 49.4056 57.9834 49.2544 58.0569C46.9616 59.0867 45.0711 60.8417 43.874 63.0517C43.5373 63.7217 43.7985 64.5379 44.4616 64.888C44.6577 64.9984 44.8793 65.0554 45.1043 65.0532H62.6228C63.3834 65.0532 64 64.4366 64 63.676C63.9996 63.4513 63.9428 63.2303 63.8347 63.0333C62.6725 60.8405 60.8203 59.0915 58.5645 58.0569ZM49.5665 48.8753C49.6036 48.7576 49.6882 48.6609 49.7999 48.6085C49.9115 48.5562 50.04 48.553 50.1542 48.5998C52.524 50.1447 55.4076 50.6924 58.1789 50.124C58.2499 50.0175 58.3937 49.9887 58.5002 50.0597C58.6067 50.1307 58.6355 50.2746 58.5645 50.3811C58.3211 52.7019 56.3878 54.4784 54.0547 54.525C51.7217 54.5717 49.7189 52.8739 49.3829 50.5647V50.3811C49.3568 49.8602 49.4188 49.3387 49.5665 48.8386V48.8753ZM42.9558 24.2136H39.7422V22.8363C39.7422 21.8221 38.9201 21 37.9059 21C36.8918 21 36.0696 21.8221 36.0696 22.8363V24.2136H31.4788V22.8363C31.4788 21.8221 30.6567 21 29.6425 21C28.6283 21 27.8062 21.8221 27.8062 22.8363V24.2136H24.5375C21.97 24.3034 19.9501 26.4377 20.0018 29.0063V46.4514C19.9299 49.0581 21.9858 51.2292 24.5926 51.2992H40.6604C41.6746 51.2992 42.4967 50.4771 42.4967 49.4629C42.4967 48.4487 41.6746 47.6266 40.6604 47.6266H24.6661C24.3849 47.6125 24.1213 47.4858 23.9348 47.275C23.7482 47.0642 23.6544 46.7872 23.6745 46.5064V28.9329C23.6527 28.3951 24.0566 27.9347 24.5926 27.8862H27.8062V29.2634C27.8062 30.2776 28.6283 31.0997 29.6425 31.0997C30.6567 31.0997 31.4788 30.2776 31.4788 29.2634V27.8862H36.0696V29.2634C36.0696 30.2776 36.8918 31.0997 37.9059 31.0997C38.9201 31.0997 39.7422 30.2776 39.7422 29.2634V27.8862H42.9007C43.1786 27.905 43.4375 28.0338 43.6201 28.244C43.8028 28.4542 43.8941 28.7286 43.874 29.0063V39.3632C43.874 40.3773 44.6961 41.1995 45.7103 41.1995C46.7244 41.1995 47.5466 40.3773 47.5466 39.3632V29.0614C47.5861 27.8083 47.1234 26.5913 46.2613 25.6809C45.3992 24.7706 44.2092 24.2423 42.9558 24.2136ZM27.3471 38.445H34.6924C35.453 38.445 36.0696 37.8284 36.0696 37.0678C36.0696 36.3071 35.453 35.6905 34.6924 35.6905H27.3471C26.5865 35.6905 25.9699 36.3071 25.9699 37.0678C25.9699 37.8284 26.5865 38.445 27.3471 38.445ZM40.2013 41.1995H27.3471C26.5865 41.1995 25.9699 41.8161 25.9699 42.5767C25.9699 43.3374 26.5865 43.954 27.3471 43.954H40.2013C40.962 43.954 41.5786 43.3374 41.5786 42.5767C41.5786 41.8161 40.962 41.1995 40.2013 41.1995Z" fill="white"/>
</svg>
