<svg width="45" height="45" viewBox="0 0 45 45" fill="none" xmlns="http://www.w3.org/2000/svg">
<path fill-rule="evenodd" clip-rule="evenodd" d="M44.25 21.0375C44.2398 19.2296 42.7767 17.7665 40.9688 17.7562H29.7188C27.9108 17.7665 26.4478 19.2296 26.4375 21.0375V41.6625C26.4224 42.5424 26.7615 43.3916 27.3784 44.0191C27.9954 44.6467 28.8387 45.0001 29.7188 45L40.9688 45C42.7809 45 44.25 43.5309 44.25 41.7188L44.25 21.0375ZM40.5 37.9125C40.5 38.1714 40.2901 38.3812 40.0313 38.3812H30.6563C30.3974 38.3812 30.1875 38.1714 30.1875 37.9125V21.975C30.1875 21.7161 30.3974 21.5062 30.6563 21.5062H40.0313C40.2901 21.5062 40.5 21.7161 40.5 21.975V37.9125ZM22.5 3.75C22.5 1.67893 20.8211 0 18.75 0H3.75001C1.67894 0 1.19295e-05 1.67893 1.19295e-05 3.75V14.475C-0.00230182 15.2621 0.332048 16.0127 0.918761 16.5375C1.62349 17.3725 2.65738 17.8587 3.75001 17.8687H9.00001C9.2589 17.8687 9.46876 18.0786 9.46876 18.3375V19.275C9.46876 19.5339 9.2589 19.7437 9.00001 19.7437H6.56251C5.52698 19.7437 4.68751 20.5832 4.68751 21.6187C4.68751 22.6543 5.52698 23.4937 6.56251 23.4937H15.9375C16.973 23.4937 17.8125 22.6543 17.8125 21.6187C17.8125 20.5832 16.973 19.7437 15.9375 19.7437H13.5938C13.3349 19.7437 13.125 19.5339 13.125 19.275V18.3375C13.125 18.0786 13.3349 17.8687 13.5938 17.8687H18.75C19.8426 17.8587 20.8765 17.3725 21.5813 16.5375C22.168 16.0127 22.5023 15.2621 22.5 14.475V3.75ZM18.375 3.75C18.6339 3.75 18.8438 3.95987 18.8438 4.21875V11.7187C18.8438 11.9776 18.6339 12.1875 18.375 12.1875H4.21876C3.95988 12.1875 3.75001 11.9776 3.75001 11.7187V4.21875C3.75001 3.95987 3.95988 3.75 4.21876 3.75H18.375ZM37.6875 15.3375C38.723 15.3375 39.5625 14.498 39.5625 13.4625V13.125C39.5625 8.98286 36.2046 5.625 32.0625 5.625H27.8438C26.8082 5.625 25.9688 6.46447 25.9688 7.5C25.9688 8.53553 26.8082 9.375 27.8438 9.375H32.0625C34.1336 9.375 35.8125 11.0539 35.8125 13.125V13.5187C35.8429 14.5322 36.6735 15.338 37.6875 15.3375ZM22.2188 37.5H15.1875C13.1164 37.5 11.4375 35.8211 11.4375 33.75V28.4625C11.4375 27.427 10.598 26.5875 9.56251 26.5875C8.52698 26.5875 7.68751 27.427 7.68751 28.4625V33.75C7.68751 37.8921 11.0454 41.25 15.1875 41.25H22.2188C23.2543 41.25 24.0938 40.4105 24.0938 39.375C24.0938 38.3395 23.2543 37.5 22.2188 37.5Z" fill="white"/>
</svg>
