<svg width="59" height="59" viewBox="0 0 59 59" fill="none" xmlns="http://www.w3.org/2000/svg">
<path d="M36.531 24.8318C38.6976 19.1988 45.1971 16.599 50.8301 19.1988C54.7298 20.932 57.3297 24.8318 57.3297 29.1648M1 35.6644H18.3322V18.3322H1V35.6644ZM1 35.6644H46.497C52.5633 35.6644 57.3297 40.4308 57.3297 46.497C57.3297 52.5633 52.5633 57.3297 46.497 57.3297H1M39.9975 7.49958C39.9975 11.0892 42.9074 13.9992 46.497 13.9992C50.0867 13.9992 52.9966 11.0892 52.9966 7.49958C52.9966 3.90996 50.0867 1 46.497 1C42.9074 1 39.9975 3.90996 39.9975 7.49958ZM1.43331 46.497C1.43331 46.9757 1.8213 47.3637 2.29992 47.3637C2.77853 47.3637 3.16653 46.9757 3.16653 46.497C3.16653 46.0184 2.77853 45.6304 2.29992 45.6304C1.8213 45.6304 1.43331 46.0184 1.43331 46.497ZM23.0986 46.497C23.0986 46.9757 23.4866 47.3637 23.9652 47.3637C24.4438 47.3637 24.8318 46.9757 24.8318 46.497C24.8318 46.0184 24.4438 45.6304 23.9652 45.6304C23.4866 45.6304 23.0986 46.0184 23.0986 46.497ZM44.7638 46.497C44.7638 46.9757 45.1518 47.3637 45.6304 47.3637C46.109 47.3637 46.497 46.9757 46.497 46.497C46.497 46.0184 46.109 45.6304 45.6304 45.6304C45.1518 45.6304 44.7638 46.0184 44.7638 46.497Z" stroke="#16A458" stroke-width="2" stroke-linecap="round" stroke-linejoin="round"/>
</svg>
