<svg width="52" height="52" viewBox="0 0 52 52" fill="none" xmlns="http://www.w3.org/2000/svg">
<g opacity="0.25">
<path fill-rule="evenodd" clip-rule="evenodd" d="M16.0528 50.0146C2.78992 44.5209 -3.50826 29.3158 1.98543 16.0528C7.47912 2.78992 22.6842 -3.50826 35.9472 1.98543C49.2101 7.47912 55.5083 22.6842 50.0146 35.9472C44.5209 49.2101 29.3158 55.5083 16.0528 50.0146Z" fill="#FCBB1B"/>
</g>
<path fill-rule="evenodd" clip-rule="evenodd" d="M24.9623 36.7936H21.712C21.4128 36.7936 21.1703 37.0361 21.1703 37.3353C21.1703 38.532 22.1404 39.5021 23.3371 39.5021C24.5338 39.5021 25.504 38.532 25.504 37.3353C25.504 37.0361 25.2614 36.7936 24.9623 36.7936ZM30.3794 28.2887V27.5845C30.3799 26.8884 30.3036 26.1945 30.1518 25.5151C28.6403 24.3774 27.6085 22.7158 27.2591 20.8564C26.5775 20.3247 25.7966 19.9343 24.9623 19.708V18.3754C24.9623 17.4779 24.2347 16.7503 23.3371 16.7503C22.4396 16.7503 21.712 17.4779 21.712 18.3754V19.708C18.5484 20.5639 16.2949 23.8033 16.2949 27.5845V28.2887C16.291 30.5941 15.7533 32.8673 14.7239 34.9301C14.598 35.1997 14.7081 35.5206 14.9731 35.656C15.0479 35.6906 15.1291 35.7091 15.2115 35.7102H31.4628C31.762 35.7102 32.0045 35.4676 32.0045 35.1684C32.0034 35.0861 31.985 35.0048 31.9503 34.9301C30.9209 32.8673 30.3832 30.5941 30.3794 28.2887ZM34.7131 13.5C31.4221 13.5 28.7542 16.1679 28.7542 19.4588C28.7542 22.7498 31.4221 25.4176 34.7131 25.4176C38.004 25.4176 40.6719 22.7498 40.6719 19.4588C40.6719 16.1679 38.004 13.5 34.7131 13.5ZM33.9005 16.2086C33.9005 15.7598 34.2643 15.396 34.7131 15.396C35.1618 15.396 35.5256 15.7598 35.5256 16.2086L35.5256 19.4588C35.5256 19.9076 35.1618 20.2714 34.7131 20.2714C34.2643 20.2714 33.9005 19.9076 33.9005 19.4588L33.9005 16.2086ZM34.7131 23.7925C34.2502 23.8362 33.8025 23.6139 33.5575 23.2187C33.3125 22.8236 33.3125 22.3237 33.5575 21.9286C33.8025 21.5334 34.2502 21.3111 34.7131 21.3548C35.3418 21.4142 35.8223 21.9421 35.8223 22.5737C35.8223 23.2052 35.3418 23.7332 34.7131 23.7925Z" fill="#FCBB1B"/>
</svg>
