<svg width="86" height="86" viewBox="0 0 86 86" fill="none" xmlns="http://www.w3.org/2000/svg">
<path fill-rule="evenodd" clip-rule="evenodd" d="M26.5489 82.7164C4.61409 73.6307 -5.80212 48.4838 3.2836 26.5489C12.3693 4.61409 37.5162 -5.80212 59.4511 3.2836C81.3859 12.3693 91.8021 37.5162 82.7164 59.4511C73.6307 81.3859 48.4838 91.8021 26.5489 82.7164Z" fill="#FCBB1B" fill-opacity="0.26"/>
<path fill-rule="evenodd" clip-rule="evenodd" d="M64.0067 28.4306C64.0165 27.5171 63.6599 26.6379 63.0165 25.9894C62.3694 25.3565 61.4975 25.0065 60.5924 25.0163H26.4498C25.5364 24.9976 24.6569 25.363 24.0257 26.0235C23.3793 26.656 23.0213 27.5263 23.0356 28.4306V40.9097C23.1013 52.9709 31.5058 63.3808 43.2821 65.9874C43.3953 66.0042 43.5104 66.0042 43.6235 65.9874C43.7368 66.0035 43.8517 66.0035 43.965 65.9874C55.7284 63.283 64.0503 52.7921 64.0067 40.7219V28.4306ZM43.5211 55.7446C36.6861 55.744 31.1455 50.203 31.1455 43.368C31.1455 36.5329 36.6861 30.9919 43.5211 30.9913C44.4639 30.9913 45.2282 31.7556 45.2282 32.6984C45.2282 33.6412 44.4639 34.4055 43.5211 34.4055C38.7811 34.4099 34.8641 38.1043 34.5828 42.836C34.3014 47.5676 37.753 51.7002 42.4591 52.2662C47.1652 52.8323 51.4983 49.6361 52.347 44.9727C52.5198 44.0507 53.404 43.4408 54.3272 43.6069C55.2492 43.7797 55.8591 44.664 55.6929 45.5872C54.6338 51.4756 49.504 55.7564 43.5211 55.7446ZM55.471 34.1495C56.1329 34.8153 56.1329 35.8907 55.471 36.5565L45.7404 46.2871C44.5493 47.4675 42.6295 47.4675 41.4384 46.2871L38.3997 43.2314C38.0765 42.9108 37.8948 42.4745 37.8948 42.0193C37.8948 41.5641 38.0765 41.1278 38.3997 40.8073C39.0656 40.1454 40.1409 40.1454 40.8068 40.8073L43.009 43.0095C43.3444 43.326 43.8685 43.326 44.204 43.0095L53.064 34.1495C53.7298 33.4876 54.8052 33.4876 55.471 34.1495Z" fill="#FCBB1B"/>
</svg>
