<svg width="63" height="64" viewBox="0 0 63 64" fill="none" xmlns="http://www.w3.org/2000/svg">
<g clip-path="url(#clip0_5201_20470)">
<path d="M32.6136 0.0485477C33.432 0.148678 34.8799 0.757805 35.603 1.19671C39.9812 3.8535 40.6599 10.095 37.0444 13.7264C38.9688 15.1515 40.4479 17.1575 41.0412 19.5339C41.4702 21.2512 41.8482 23.6676 39.5638 24.0331C34.3935 23.7394 28.8107 24.422 23.688 24.0381C21.1949 23.8512 21.5121 21.4898 21.946 19.6357C22.5163 17.1942 24.0184 15.1999 25.9675 13.728C22.3486 10.0933 23.0339 3.8535 27.4088 1.19838C28.1336 0.759473 29.5798 0.148678 30.3982 0.0502165C30.9011 -0.0115305 32.1091 -0.0115305 32.612 0.0502165L32.6136 0.0485477Z" fill="url(#paint0_linear_5201_20470)"/>
<path d="M54.2678 0.0463064C56.4552 0.535276 58.3781 1.59499 59.6583 3.50414C61.8293 6.74503 61.3922 10.9538 58.6985 13.7241C61.0914 15.443 62.5196 17.9763 63.0027 20.9068V22.5306C62.6083 23.4251 62.1136 23.9441 61.1013 24.0342C56.0099 24.4898 50.2644 23.6821 45.1039 24.0292C42.8163 23.6571 43.2041 21.2623 43.6265 19.53C44.2132 17.1302 45.7038 15.1743 47.6233 13.7224C43.6298 9.71556 44.9757 2.81825 50.1247 0.64542L52.0541 0.0429688H54.2678V0.0463064Z" fill="url(#paint1_linear_5201_20470)"/>
<path d="M10.9613 0.0463103C11.7797 0.146441 13.2276 0.755567 13.9507 1.19447C18.3288 3.85126 19.0076 10.0927 15.392 13.7241C17.3116 15.1643 18.7939 17.1469 19.3889 19.5317C19.8178 21.2489 20.1958 23.6654 17.9114 24.0309C12.7411 23.7372 7.15832 24.4197 2.03569 24.0359C-0.457422 23.849 -0.140237 21.4876 0.293634 19.6335C0.863911 17.192 2.36602 15.1977 4.31516 13.7258C0.697923 10.0894 1.38324 3.8496 5.7581 1.19447C6.48287 0.755567 7.9291 0.144772 8.74754 0.0463103C9.25043 -0.0154368 10.4584 -0.0154368 10.9613 0.0463103Z" fill="url(#paint2_linear_5201_20470)"/>
<path d="M18.3438 40.0195C20.1927 46.7366 26.8568 50.877 33.6262 49.854C38.7686 49.0763 43.3012 45.1245 44.6702 40.0195H58.817C57.4086 49.6688 51.0583 58.0614 42.205 61.8146C30.9014 66.6058 17.997 63.3332 10.2268 53.8208C7.0204 49.8957 4.97759 45.0661 4.19531 40.0195H18.3421H18.3438Z" fill="url(#paint3_linear_5201_20470)"/>
<path d="M59.0638 36.0216H45.2852V29.5882C45.2852 29.5365 45.535 29.0041 45.5974 28.9073C46.005 28.2698 46.5983 28.0762 47.3099 28.0228C50.5573 27.7775 54.1121 28.2081 57.3925 28.0395C57.9956 28.0646 59.0638 29.0041 59.0638 29.5899V36.0233V36.0216Z" fill="url(#paint4_linear_5201_20470)"/>
<path d="M17.7279 36.02H3.94922V29.837C3.94922 29.3647 4.98295 28.33 5.54172 28.33C8.74316 28.5403 12.8255 27.8561 15.9333 28.285C16.2587 28.33 16.801 28.5586 17.0524 28.7723C17.2036 28.9008 17.7279 29.7285 17.7279 29.8353V36.0184V36.02Z" fill="url(#paint5_linear_5201_20470)"/>
<path d="M31.7532 34.025H34.8906C35.7024 34.025 36.7493 35.592 36.3993 36.4315C35.3113 38.2722 34.3269 41.695 33.0483 43.272C31.8683 44.7289 29.574 43.9246 29.5296 42.0822C29.5017 40.9056 30.8707 39.1634 31.2618 38.0219H28.1245C27.3586 38.0219 26.2345 36.4382 26.6158 35.6154C27.7038 33.7747 28.6882 30.3519 29.9668 28.7748C31.1468 27.3179 33.4411 28.1223 33.4854 29.9647C33.5134 31.1413 32.1444 32.8835 31.7532 34.025Z" fill="url(#paint6_linear_5201_20470)"/>
</g>
<defs>
<linearGradient id="paint0_linear_5201_20470" x1="23.6971" y1="0.00390476" x2="39.0737" y2="2.36851" gradientUnits="userSpaceOnUse">
<stop stop-color="#003B6D"/>
<stop offset="1" stop-color="#0072D3"/>
</linearGradient>
<linearGradient id="paint1_linear_5201_20470" x1="45.3514" y1="0.0429673" x2="60.7137" y2="2.40513" gradientUnits="userSpaceOnUse">
<stop stop-color="#003B6D"/>
<stop offset="1" stop-color="#0072D3"/>
</linearGradient>
<linearGradient id="paint2_linear_5201_20470" x1="2.04476" y1="-1.49474e-06" x2="17.4214" y2="2.36445" gradientUnits="userSpaceOnUse">
<stop stop-color="#003B6D"/>
<stop offset="1" stop-color="#0072D3"/>
</linearGradient>
<linearGradient id="paint3_linear_5201_20470" x1="9.87085" y1="40.0195" x2="46.6958" y2="55.8217" gradientUnits="userSpaceOnUse">
<stop stop-color="#003B6D"/>
<stop offset="1" stop-color="#0072D3"/>
</linearGradient>
<linearGradient id="paint4_linear_5201_20470" x1="46.7168" y1="27.9453" x2="56.6871" y2="31.1493" gradientUnits="userSpaceOnUse">
<stop stop-color="#003B6D"/>
<stop offset="1" stop-color="#0072D3"/>
</linearGradient>
<linearGradient id="paint5_linear_5201_20470" x1="5.38091" y1="28.1406" x2="15.3038" y2="31.4097" gradientUnits="userSpaceOnUse">
<stop stop-color="#003B6D"/>
<stop offset="1" stop-color="#0072D3"/>
</linearGradient>
<linearGradient id="paint6_linear_5201_20470" x1="27.5708" y1="28.0234" x2="35.391" y2="28.9378" gradientUnits="userSpaceOnUse">
<stop stop-color="#003B6D"/>
<stop offset="1" stop-color="#0072D3"/>
</linearGradient>
<clipPath id="clip0_5201_20470">
<rect width="63" height="64" fill="white"/>
</clipPath>
</defs>
</svg>
