<svg width="92" height="82" viewBox="0 0 92 82" fill="none" xmlns="http://www.w3.org/2000/svg">
<path fill-rule="evenodd" clip-rule="evenodd" d="M81.2156 47.627L92 40.8889L81.2156 34.1507C78.0041 14.7711 61.1715 0 40.8889 0C18.3063 0 0 18.3063 0 40.8889C0 63.4715 18.3063 81.7778 40.8889 81.7778C61.1715 81.7778 78.0041 67.0067 81.2156 47.627ZM40.8889 71.5556C23.9541 71.5556 10.2222 57.8237 10.2222 40.8889C10.2222 23.9541 23.9541 10.2222 40.8889 10.2222C57.8237 10.2222 71.5556 23.9541 71.5556 40.8889C71.5556 57.8237 57.8237 71.5556 40.8889 71.5556Z" fill="#0072D3"/>
<path d="M38.986 36.0274C36.947 34.9139 34.4719 34.9578 32.4738 36.1431C30.4756 37.3283 29.2504 39.4793 29.25 41.8025V47.4422H32.2265L33.0108 56.8427H38.6505M55.3459 44.3244C56.3745 48.3224 54.59 52.5128 50.995 54.5418C47.3999 56.5708 42.8902 55.9327 39.9993 52.9858C37.1083 50.039 36.5566 45.5179 38.6541 41.9624C40.7516 38.4068 44.9754 36.7029 48.9529 37.8078M51.0643 46.6138C51.0643 49.1378 49.0182 51.1839 46.4943 51.1839C43.9703 51.1839 41.9242 49.1378 41.9242 46.6138C41.9242 44.0899 43.9703 42.0438 46.4943 42.0438M53.0874 39.8574L46.7415 46.6138M53.0874 39.8574L52.8667 34.5782L57.3617 30.4422L57.3661 35.3639H62.02L57.884 39.8574H53.0874ZM30.6596 28.1719C30.6587 31.028 32.9738 33.3438 35.8299 33.3438C38.686 33.3438 41.0011 31.028 41.0002 28.1719C41.0011 25.3158 38.686 23 35.8299 23C32.9738 23 30.6587 25.3158 30.6596 28.1719Z" stroke="#212121" stroke-width="2.5" stroke-linecap="round" stroke-linejoin="round"/>
</svg>
