<svg width="52" height="52" viewBox="0 0 52 52" fill="none" xmlns="http://www.w3.org/2000/svg">
<g opacity="0.25">
<path fill-rule="evenodd" clip-rule="evenodd" d="M16.0528 50.0146C2.78992 44.5209 -3.50826 29.3158 1.98543 16.0528C7.47912 2.78992 22.6842 -3.50826 35.9472 1.98543C49.2101 7.47912 55.5083 22.6842 50.0146 35.9472C44.5209 49.2101 29.3158 55.5083 16.0528 50.0146Z" fill="#FCBB1B"/>
</g>
<path fill-rule="evenodd" clip-rule="evenodd" d="M32.0033 37.4167C32.0033 38.015 32.4883 38.5 33.0866 38.5C33.6849 38.5 34.1699 38.015 34.1699 37.4167V27.125C33.4372 27.1238 32.7081 27.0217 32.0033 26.8217L32.0033 37.4167ZM29.8366 27.6667C29.8366 27.0684 29.3516 26.5833 28.7533 26.5833H20.0866C19.4883 26.5833 19.0033 27.0684 19.0033 27.6667V31.1875H29.8366V27.6667ZM19.0033 34.1667C19.0033 34.765 19.4883 35.25 20.0866 35.25H28.7533C29.3516 35.25 29.8366 34.765 29.8366 34.1667V32.8125H19.0033V34.1667ZM26.3483 16.8333H17.9199C16.125 16.8333 14.6699 18.2884 14.6699 20.0833V37.4167C14.6699 38.015 15.1549 38.5 15.7533 38.5C16.3516 38.5 16.8366 38.015 16.8366 37.4167V22.25H26.7274C26.2783 21.2253 26.0459 20.1188 26.0449 19C26.0461 18.2673 26.1482 17.5382 26.3483 16.8333ZM34.1699 12.5C30.5801 12.5 27.6699 15.4101 27.6699 19C27.6699 22.5899 30.5801 25.5 34.1699 25.5C37.7598 25.5 40.6699 22.5899 40.6699 19C40.6699 15.4101 37.7598 12.5 34.1699 12.5ZM34.1699 14.6667C34.6162 14.6725 34.9766 15.0329 34.9824 15.4792V18.7292C34.9824 19.1779 34.6187 19.5417 34.1699 19.5417C33.7212 19.5417 33.3574 19.1779 33.3574 18.7292L33.3574 15.4792C33.3633 15.0329 33.7236 14.6725 34.1699 14.6667ZM34.1699 23.0625C33.7071 23.1062 33.2594 22.8839 33.0145 22.4888C32.7695 22.0936 32.7695 21.5939 33.0145 21.1987C33.2594 20.8036 33.7071 20.5813 34.1699 20.625C34.7987 20.6843 35.2791 21.2122 35.2791 21.8438C35.2791 22.4753 34.7987 23.0032 34.1699 23.0625Z" fill="#FCBB1B"/>
</svg>
