<svg width="48" height="48" viewBox="0 0 48 48" fill="none" xmlns="http://www.w3.org/2000/svg">
<path fill-rule="evenodd" clip-rule="evenodd" d="M14.0065 20C19.5294 20 24.0065 15.5228 24.0065 10C24.0065 4.47715 19.5294 0 14.0065 0C8.4837 0 4.00655 4.47715 4.00655 10C4.00655 15.5228 8.4837 20 14.0065 20ZM8.20655 8.52C8.28766 8.21758 8.50071 7.9678 8.78654 7.84C9.07282 7.71166 9.40027 7.71166 9.68655 7.84C11.8563 9.2099 14.3609 9.95711 16.9265 10C17.5427 10.0038 18.1581 9.95702 18.7665 9.86C19.0748 9.82565 19.3815 9.93628 19.5969 10.1595C19.8123 10.3827 19.9119 10.6932 19.8665 11C19.2317 13.9505 16.504 15.9701 13.4967 15.7166C10.4894 15.463 8.13844 13.0151 8.00655 10C8.00023 9.49953 8.06762 9.00085 8.20655 8.52ZM26.7265 28.46C26.9165 28.1394 26.9165 27.7406 26.7265 27.42C23.4498 22.665 17.7289 20.2205 12.0278 21.1393C6.32666 22.0582 1.66344 26.1763 0.0465463 31.72C-0.0520347 32.0215 0.00813219 32.3525 0.206546 32.6C0.391016 32.857 0.690261 33.0066 1.00655 33L23.7465 33C24.1173 32.9971 24.456 32.7892 24.6265 32.46L26.7265 28.46ZM37.3065 24.54C36.8003 23.5864 35.8062 22.9931 34.7265 23C33.6516 22.9914 32.6627 23.5864 32.1665 24.54L22.1665 43.82C21.6969 44.7041 21.7351 45.7717 22.2665 46.62C22.7898 47.4776 23.722 48.0005 24.7265 48H44.8465C45.8511 48.0005 46.7833 47.4776 47.3065 46.62C47.838 45.7717 47.8762 44.7041 47.4065 43.82L37.3065 24.54ZM34.7265 30.54C35.555 30.54 36.2265 31.2116 36.2265 32.04V38.04C36.2265 38.8684 35.555 39.54 34.7265 39.54C33.8981 39.54 33.2265 38.8684 33.2265 38.04V32C33.2373 31.1761 33.9026 30.5108 34.7265 30.5V30.54ZM34.7265 44.54C33.622 44.54 32.7265 43.6446 32.7265 42.54C32.7265 41.4354 33.622 40.54 34.7265 40.54C35.8311 40.54 36.7265 41.4354 36.7265 42.54C36.7048 43.6289 35.8157 44.5002 34.7265 44.5V44.54Z" fill="#16A458"/>
</svg>
