<svg width="36" height="36" viewBox="0 0 36 36" fill="none" xmlns="http://www.w3.org/2000/svg">
<path d="M23.8 11.35C23.8 13.0069 21.1136 14.35 17.8 14.35C14.4862 14.35 11.7999 13.0069 11.7999 11.35M23.8 11.35C23.8 9.69318 21.1136 8.35003 17.8 8.35003C14.4862 8.35003 11.7999 9.69318 11.7999 11.35M23.8 11.35V16.45C23.8 18.1 21.1 19.45 17.8 19.45C14.4999 19.45 11.7999 18.1 11.7999 16.45V11.35M11.7999 16.6V21.7C11.7999 23.35 14.4999 24.7 17.8 24.7C21.1 24.7 23.8 23.35 23.8 21.7V16.6M1 5.5V1M1 1H5.5M1 1L6.25 6.25M34.75 5.5V1M34.75 1H30.25M34.75 1L29.5 6.25M1 30.25V34.75M1 34.75H5.5M1 34.75L6.25 29.5M34.75 30.25V34.75M34.75 34.75H30.25M34.75 34.75L29.5 29.5M26.8 25.15C30.4 23.5 32.8 20.95 32.8 17.95C32.8 15.55 31.15 13.3 28.45 11.65M7.44994 11.5C4.59994 13.15 2.79992 15.4 2.79992 17.95C2.79992 20.95 5.19992 23.5 8.79992 25.15" stroke="#DA4436" stroke-width="2" stroke-linecap="round" stroke-linejoin="round"/>
</svg>
