<svg width="86" height="86" viewBox="0 0 86 86" fill="none" xmlns="http://www.w3.org/2000/svg">
<g opacity="0.25">
<path fill-rule="evenodd" clip-rule="evenodd" d="M26.5489 82.7164C4.61409 73.6307 -5.80212 48.4838 3.2836 26.5489C12.3693 4.61409 37.5162 -5.80212 59.4511 3.2836C81.3859 12.3693 91.8021 37.5162 82.7164 59.4511C73.6307 81.3859 48.4838 91.8021 26.5489 82.7164Z" fill="#FCBB1B"/>
</g>
<path fill-rule="evenodd" clip-rule="evenodd" d="M56.5625 42.625C58.4955 42.625 60.0625 41.058 60.0625 39.125V26C60.0625 24.067 58.4955 22.5 56.5625 22.5H52.1875C51.221 22.5 50.4375 23.2835 50.4375 24.25C50.4375 25.2165 51.221 26 52.1875 26H55.6875C56.1707 26 56.5625 26.3918 56.5625 26.875V38.25C56.5625 38.7332 56.1707 39.125 55.6875 39.125H47.375C46.7896 39.128 46.2445 39.4236 45.9225 39.9125L43.3675 43.745C43.2615 43.9092 43.0595 43.9832 42.8725 43.9263C42.6856 43.8694 42.5591 43.6954 42.5625 43.5V40.875C42.5625 39.9085 41.779 39.125 40.8125 39.125H32.0625C31.5793 39.125 31.1875 38.7332 31.1875 38.25V26.875C31.1875 26.3918 31.5793 26 32.0625 26H33.8125C34.779 26 35.5625 25.2165 35.5625 24.25C35.5625 23.2835 34.779 22.5 33.8125 22.5H31.1875C29.2545 22.5 27.6875 24.067 27.6875 26V39.125C27.6875 41.058 29.2545 42.625 31.1875 42.625H38.1875C38.6707 42.625 39.0625 43.0168 39.0625 43.5V46.02C39.0609 47.4188 39.9771 48.653 41.3165 49.0564C42.6558 49.4598 44.1012 48.937 44.8725 47.77L48.0575 43.01C48.2166 42.7691 48.4863 42.6244 48.775 42.625H56.5625ZM24.625 48.75C24.625 51.6495 26.9755 54 29.875 54C32.7745 54 35.125 51.6495 35.125 48.75C35.125 45.8505 32.7745 43.5 29.875 43.5C26.9755 43.5 24.625 45.8505 24.625 48.75ZM29.875 55.75C25.5297 55.7596 22.0096 59.2798 22 63.625C22 64.1082 22.3918 64.5 22.875 64.5H36.875C37.3582 64.5 37.75 64.1082 37.75 63.625C37.7404 59.2798 34.2203 55.7596 29.875 55.75ZM50.875 48.75C50.875 51.6495 53.2255 54 56.125 54C59.0245 54 61.375 51.6495 61.375 48.75C61.375 45.8505 59.0245 43.5 56.125 43.5C53.2255 43.5 50.875 45.8505 50.875 48.75ZM56.125 55.75C51.7798 55.7596 48.2596 59.2798 48.25 63.625C48.25 64.1082 48.6417 64.5 49.125 64.5H63.125C63.6082 64.5 64 64.1082 64 63.625C63.9904 59.2798 60.4702 55.7596 56.125 55.75ZM39.5 37.8125H41.25C41.7332 37.8125 42.125 37.4207 42.125 36.9375V36.0625C42.125 35.5793 42.5168 35.1875 43 35.1875H44.75C45.2332 35.1875 45.625 35.5793 45.625 36.0625V36.9375C45.625 37.4207 46.0168 37.8125 46.5 37.8125H48.25C48.7332 37.8125 49.125 37.4207 49.125 36.9375V26.4375C49.1268 26.1303 48.9674 25.8447 48.705 25.685L44.33 23.06C44.0475 22.901 43.7025 22.901 43.42 23.06L39.045 25.685C38.7826 25.8447 38.6232 26.1303 38.625 26.4375V36.9375C38.625 37.4207 39.0168 37.8125 39.5 37.8125ZM42.125 26.4375H45.625C46.1082 26.4375 46.5 26.8293 46.5 27.3125C46.5 27.7957 46.1082 28.1875 45.625 28.1875H42.125C41.6418 28.1875 41.25 27.7957 41.25 27.3125C41.25 26.8293 41.6418 26.4375 42.125 26.4375ZM42.125 30.8125H45.625C46.1082 30.8125 46.5 31.2043 46.5 31.6875C46.5 32.1707 46.1082 32.5625 45.625 32.5625H42.125C41.6418 32.5625 41.25 32.1707 41.25 31.6875C41.25 31.2043 41.6418 30.8125 42.125 30.8125Z" fill="#FCBB1B"/>
</svg>
