<svg width="96" height="96" viewBox="0 0 96 96" fill="none" xmlns="http://www.w3.org/2000/svg">
<circle opacity="0.27" cx="48.1826" cy="47.8154" r="47.8154" fill="#FCBB1B"/>
<path d="M46.0096 12.9075C68.7439 11.164 79.1063 38.5727 61.3702 51.9209C60.0147 56.6579 60.3911 62.1492 55.2284 64.7033C52.2871 66.1579 44.3354 66.182 41.3715 64.7996C36.0484 62.3138 36.3795 56.8525 35.0734 52.0192C27.8066 46.4034 24.3552 37.6317 26.807 28.7175C29.1147 20.333 37.0583 13.5937 46.0096 12.9075ZM46.4704 20.1143C42.9244 20.4514 39.4319 22.3694 37.1056 24.9476C35.709 26.4965 32.8088 30.5112 35.9249 31.8133C38.7716 33.0051 39.3578 29.7708 40.7256 28.1778C41.9453 26.7553 43.8952 25.5535 45.7587 25.1282C46.8468 24.8794 48.0644 24.9978 49.0003 24.6868C50.9152 24.0508 51.2649 21.5609 49.57 20.4574C48.7103 19.8976 47.4823 20.02 46.4704 20.1163V20.1143Z" fill="#FCBB1B"/>
<path d="M41.0694 68.9147L55.1893 68.8906C57.9002 69.5667 57.8981 73.0035 55.1893 73.6777H41.1969C38.5745 73.0357 38.4346 69.6811 41.0673 68.9147H41.0694Z" fill="#FCBB1B"/>
<path d="M43.0782 76.8796C44.8717 76.6288 51.7023 76.6088 53.4383 76.9077C56.2129 77.3852 56.3137 80.8962 53.6522 81.6366L42.6133 81.6125C40.0094 80.6996 40.2624 77.2749 43.0802 76.8796H43.0782Z" fill="#FCBB1B"/>
</svg>
