<svg width="20" height="22" viewBox="0 0 20 22" fill="none" xmlns="http://www.w3.org/2000/svg">
<path fill-rule="evenodd" clip-rule="evenodd" d="M9.36294 17.015L2.95518 15.2475L5.50807 14.5582C5.84827 14.4671 6.05365 14.1077 5.96759 13.754C5.87603 13.3995 5.52739 13.1869 5.18471 13.2767L0.478873 14.5759C0.177264 14.6566 -0.0241465 14.9517 0.00233328 15.274V19.2509C0.00342479 19.5616 0.212144 19.8298 0.504402 19.8961L9.36294 21.8934V17.015ZM20 15.221C19.9988 14.9192 19.8038 14.6553 19.5235 14.5759L14.8517 13.3033C14.509 13.2134 14.1603 13.426 14.0688 13.7805C13.9827 14.1342 14.1881 14.4937 14.5283 14.5847L16.894 15.2298L10.6394 16.9974V21.8845L19.4979 19.8872C19.7902 19.821 19.9989 19.5528 20 19.2421V15.221ZM13.7965 9.08773C13.5933 9.88447 13.2687 10.6423 12.8349 11.3325C13.1475 11.5279 13.4337 11.7656 13.6858 12.0395C13.841 12.2039 14.0748 12.2581 14.2826 12.1779C14.4904 12.0977 14.6333 11.8981 14.6474 11.6683C14.7358 10.7209 14.4256 9.77998 13.7965 9.08773ZM6.20586 9.08773C5.57675 9.77998 5.26649 10.7209 5.3549 11.6683C5.36901 11.8981 5.51193 12.0977 5.71973 12.1779C5.92752 12.2581 6.16131 12.2039 6.31649 12.0395C6.56867 11.7656 6.85484 11.5279 7.16746 11.3325C6.73366 10.6423 6.40902 9.88447 6.20586 9.08773ZM10.0012 0.842285C10.0012 0.842285 7.02279 2.38886 7.02279 5.48201C7.02279 7.18766 7.51635 11.6683 10.0012 11.6683C12.486 11.6683 12.9795 7.18766 12.9795 5.48201C12.9795 2.38886 10.0012 0.842285 10.0012 0.842285ZM10.0012 6.5867C9.52544 6.59028 9.09463 6.29542 8.91018 5.83999C8.72573 5.38456 8.82409 4.85855 9.15926 4.50792C9.49444 4.15728 10.0002 4.05131 10.4401 4.23955C10.8799 4.42779 11.167 4.87304 11.167 5.36712C11.1693 5.68976 11.0474 5.99999 10.8285 6.22896C10.6097 6.45794 10.3118 6.58671 10.0012 6.5867ZM10.0012 12.6228C9.3432 12.6228 8.80982 13.1767 8.80982 13.86C8.80982 14.5493 9.34592 16.1931 10.0012 16.1931C10.6564 16.1931 11.1925 14.5493 11.1925 13.86C11.1925 13.1767 10.6591 12.6228 10.0012 12.6228Z" fill="#FCBB1B"/>
</svg>
