<svg width="54" height="52" viewBox="0 0 54 52" fill="none" xmlns="http://www.w3.org/2000/svg">
<path d="M34.5457 36.5806C33.4902 33.1229 30.2217 30.5303 26.467 30.5303C22.7126 30.5303 19.4439 33.1229 18.3886 36.5806M47.6768 28.0121C47.6768 20.7916 44.0689 14.414 38.5574 10.5837M14.3786 10.5837C8.8671 14.414 5.25907 20.7916 5.25907 28.0121C5.25907 28.7087 5.29266 29.3977 5.35832 30.0771M31.1744 48.6968C29.6607 49.0397 28.0854 49.221 26.4679 49.221C23.133 49.221 19.9777 48.4511 17.1703 47.0795M26.4668 29.0841C29.129 29.0841 31.287 26.9262 31.287 24.2639C31.287 21.6019 29.129 19.4438 26.4668 19.4438C23.8048 19.4438 21.6467 21.6019 21.6467 24.2639C21.6467 26.9262 23.8048 29.0841 26.4668 29.0841ZM2 41.1798C1.99957 44.3109 4.53778 46.8495 7.66897 46.8495C10.8002 46.8495 13.3384 44.311 13.3379 41.1798C13.3384 38.0486 10.8002 35.51 7.66897 35.51C4.53778 35.51 1.99957 38.0486 2 41.1798ZM31.8094 12.684H21.1254V2H31.8094V12.684ZM38.2814 46.7326L45.1407 35.0164L52 46.7326H38.2814Z" stroke="#16A458" stroke-width="4" stroke-linecap="round" stroke-linejoin="round"/>
</svg>
