<svg width="78" height="78" viewBox="0 0 78 78" fill="none" xmlns="http://www.w3.org/2000/svg">
<mask id="path-1-inside-1_5201_20349" fill="white">
<path d="M41.7437 0C43.1425 0.202025 44.5615 0.323387 45.9438 0.618164C61.7908 4.00944 72.0449 13.5038 76.6392 29.0264C77.3169 31.3147 77.4674 33.7593 77.8647 36.1299C77.9067 36.3781 77.9531 36.6219 77.9995 36.8672V41.2852C77.8196 42.6365 77.6754 43.994 77.4595 45.3379V45.3369C76.7967 49.4749 75.4657 53.3919 73.5405 57.1123C73.3968 57.3906 73.3528 57.7974 73.4321 58.0996C74.879 63.5757 76.349 69.0446 77.8169 74.5146C77.8273 74.5489 77.8348 74.5839 77.8452 74.6182C77.8783 74.7332 77.9471 74.8411 77.9995 74.9531V76.1709C77.6532 77.0448 77.0415 77.6513 76.1704 78H74.9517C74.8228 77.9641 74.6928 77.9265 74.564 77.8906C72.822 77.4028 71.0829 76.9055 69.3364 76.4297C65.645 75.4285 61.9524 74.4296 58.2505 73.4688C57.8622 73.3672 57.3391 73.422 56.981 73.6045C52.1815 76.0618 47.1055 77.5163 41.7183 77.874C41.5222 77.8861 41.3288 77.9566 41.1343 78H37.021C35.5159 77.8055 34.0015 77.6676 32.5083 77.4072C22.6424 75.6906 14.5421 70.9225 8.34814 63.0684C2.36264 55.4776 -0.357715 46.7642 0.0366211 37.1172C0.765352 19.4066 13.9199 4.13574 31.3081 0.763672C32.9948 0.437431 34.7109 0.251408 36.4126 0H41.7437Z"/>
</mask>
<path d="M41.7437 0C43.1425 0.202025 44.5615 0.323387 45.9438 0.618164C61.7908 4.00944 72.0449 13.5038 76.6392 29.0264C77.3169 31.3147 77.4674 33.7593 77.8647 36.1299C77.9067 36.3781 77.9531 36.6219 77.9995 36.8672V41.2852C77.8196 42.6365 77.6754 43.994 77.4595 45.3379V45.3369C76.7967 49.4749 75.4657 53.3919 73.5405 57.1123C73.3968 57.3906 73.3528 57.7974 73.4321 58.0996C74.879 63.5757 76.349 69.0446 77.8169 74.5146C77.8273 74.5489 77.8348 74.5839 77.8452 74.6182C77.8783 74.7332 77.9471 74.8411 77.9995 74.9531V76.1709C77.6532 77.0448 77.0415 77.6513 76.1704 78H74.9517C74.8228 77.9641 74.6928 77.9265 74.564 77.8906C72.822 77.4028 71.0829 76.9055 69.3364 76.4297C65.645 75.4285 61.9524 74.4296 58.2505 73.4688C57.8622 73.3672 57.3391 73.422 56.981 73.6045C52.1815 76.0618 47.1055 77.5163 41.7183 77.874C41.5222 77.8861 41.3288 77.9566 41.1343 78H37.021C35.5159 77.8055 34.0015 77.6676 32.5083 77.4072C22.6424 75.6906 14.5421 70.9225 8.34814 63.0684C2.36264 55.4776 -0.357715 46.7642 0.0366211 37.1172C0.765352 19.4066 13.9199 4.13574 31.3081 0.763672C32.9948 0.437431 34.7109 0.251408 36.4126 0H41.7437Z" fill="#16A458"/>
<path d="M41.7437 0L42.1725 -2.96919L41.9592 -3H41.7437V0ZM45.9438 0.618164L46.5716 -2.31541L46.5695 -2.31587L45.9438 0.618164ZM76.6392 29.0264L73.7625 29.8778L73.7627 29.8783L76.6392 29.0264ZM77.8647 36.1299L74.906 36.6258L74.9067 36.6299L77.8647 36.1299ZM77.9995 36.8672H80.9995V36.5856L80.9471 36.309L77.9995 36.8672ZM77.9995 41.2852L80.9733 41.6811L80.9995 41.484V41.2852H77.9995ZM77.4595 45.3379H74.4595L80.4215 45.8137L77.4595 45.3379ZM77.4595 45.3369H80.4595L74.4972 44.8625L77.4595 45.3369ZM73.5405 57.1123L70.8761 55.7336L70.8752 55.7354L73.5405 57.1123ZM73.4321 58.0996L70.5305 58.8618L70.5317 58.866L73.4321 58.0996ZM77.8169 74.5146L74.9194 75.2922L74.9324 75.3406L74.947 75.3886L77.8169 74.5146ZM77.8452 74.6182L80.7287 73.79L80.7219 73.7667L80.7149 73.7435L77.8452 74.6182ZM77.9995 74.9531H80.9995V74.2863L80.717 73.6822L77.9995 74.9531ZM77.9995 76.1709L80.7885 77.2762L80.9995 76.7437V76.1709H77.9995ZM76.1704 78V81H76.7486L77.2854 80.7851L76.1704 78ZM74.9517 78L74.1466 80.89L74.5416 81H74.9517V78ZM74.564 77.8906L73.755 80.7795L73.759 80.7806L74.564 77.8906ZM69.3364 76.4297L70.125 73.5352L70.1217 73.5343L69.3364 76.4297ZM58.2505 73.4688L57.4914 76.3711L57.4968 76.3725L58.2505 73.4688ZM56.981 73.6045L55.619 70.9314L55.6137 70.9342L56.981 73.6045ZM41.7183 77.874L41.9027 80.8683L41.9099 80.8679L41.917 80.8674L41.7183 77.874ZM41.1343 78V81H41.4645L41.7868 80.9282L41.1343 78ZM37.021 78L36.6365 80.9753L36.8279 81H37.021V78ZM32.5083 77.4072L33.0236 74.4518L33.0226 74.4516L32.5083 77.4072ZM8.34814 63.0684L5.99241 64.9259L5.99253 64.9261L8.34814 63.0684ZM0.0366211 37.1172L-2.96084 36.9939L-2.96088 36.9947L0.0366211 37.1172ZM31.3081 0.763672L30.7384 -2.18174L30.737 -2.18146L31.3081 0.763672ZM36.4126 0V-3H36.1922L35.9741 -2.96779L36.4126 0ZM41.7437 0L41.3148 2.96919C42.9546 3.20602 44.057 3.28325 45.3182 3.55219L45.9438 0.618164L46.5695 -2.31587C45.066 -2.63648 43.3303 -2.80197 42.1725 -2.96919L41.7437 0ZM45.9438 0.618164L45.3161 3.55174C52.798 5.15289 58.8102 8.15841 63.4735 12.4747C68.1366 16.7909 71.5937 22.55 73.7625 29.8778L76.6392 29.0264L79.5158 28.175C77.0904 19.9802 73.1233 13.2308 67.5491 8.0714C61.975 2.91203 54.9366 -0.525291 46.5716 -2.31541L45.9438 0.618164ZM76.6392 29.0264L73.7627 29.8783C74.376 31.9492 74.4352 33.8167 74.906 36.6258L77.8647 36.1299L80.8235 35.634C80.4996 33.7019 80.2578 30.6802 79.5157 28.1744L76.6392 29.0264ZM77.8647 36.1299L74.9067 36.6299C74.9545 36.9128 75.0067 37.1869 75.0519 37.4254L77.9995 36.8672L80.9471 36.309C80.8994 36.0569 80.8589 35.8435 80.8228 35.6299L77.8647 36.1299ZM77.9995 36.8672H74.9995V41.2852H77.9995H80.9995V36.8672H77.9995ZM77.9995 41.2852L75.0257 40.8892C74.831 42.3522 74.7058 43.5651 74.4975 44.862L77.4595 45.3379L80.4215 45.8137C80.6449 44.423 80.8082 42.9208 80.9733 41.6811L77.9995 41.2852ZM77.4595 45.3379H80.4595V45.3369H77.4595H74.4595V45.3379H77.4595ZM77.4595 45.3369L74.4972 44.8625C73.8879 48.6666 72.6634 52.2797 70.8761 55.7336L73.5405 57.1123L76.2049 58.491C78.268 54.504 79.7055 50.2832 80.4217 45.8114L77.4595 45.3369ZM73.5405 57.1123L70.8752 55.7354C70.3887 56.6772 70.2639 57.8465 70.5306 58.8618L73.4321 58.0996L76.3337 57.3375C76.4046 57.6074 76.3975 57.8076 76.3849 57.923C76.3723 58.0382 76.3357 58.2378 76.2059 58.4892L73.5405 57.1123ZM73.4321 58.0996L70.5317 58.866C71.9804 64.3489 73.4521 69.8243 74.9194 75.2922L77.8169 74.5146L80.7144 73.7371C79.2459 68.2649 77.7777 62.8024 76.3326 57.3332L73.4321 58.0996ZM77.8169 74.5146L74.947 75.3886C74.9374 75.357 74.9308 75.3328 74.9277 75.3215C74.9251 75.312 74.9234 75.305 74.9263 75.3164C74.9279 75.3225 74.9342 75.3469 74.9414 75.3738C74.9492 75.4025 74.9607 75.444 74.9756 75.4929L77.8452 74.6182L80.7149 73.7435C80.7245 73.7752 80.7312 73.7995 80.7343 73.8109C80.7369 73.8206 80.7387 73.8276 80.7358 73.8164C80.7343 73.8105 80.728 73.7862 80.7208 73.7594C80.7131 73.7309 80.7016 73.6895 80.6868 73.6407L77.8169 74.5146ZM77.8452 74.6182L74.9618 75.4463C75.057 75.7777 75.1838 76.0331 75.236 76.1368C75.2601 76.1846 75.2936 76.2486 75.2944 76.2502C75.3042 76.2689 75.2955 76.253 75.282 76.224L77.9995 74.9531L80.717 73.6822C80.6964 73.6381 80.6773 73.5992 80.6614 73.5676C80.6457 73.5362 80.6316 73.5088 80.6214 73.4892C80.6163 73.4793 80.6115 73.4701 80.6079 73.4631C80.6038 73.4554 80.6013 73.4505 80.5988 73.4456C80.5938 73.4361 80.5931 73.4346 80.5942 73.4368C80.5956 73.4397 80.6137 73.4753 80.6368 73.5296C80.6604 73.5851 80.6954 73.6743 80.7287 73.79L77.8452 74.6182ZM77.9995 74.9531H74.9995V76.1709H77.9995H80.9995V74.9531H77.9995ZM77.9995 76.1709L75.2106 75.0656C75.1919 75.1127 75.177 75.1379 75.1703 75.1482C75.1668 75.1537 75.1645 75.1566 75.1637 75.1576C75.1632 75.1582 75.1629 75.1585 75.1628 75.1586C75.1627 75.1588 75.1627 75.1588 75.1627 75.1588C75.1627 75.1588 75.1625 75.1589 75.1623 75.1592C75.162 75.1594 75.1614 75.1599 75.1605 75.1606C75.1588 75.162 75.155 75.165 75.1483 75.1693C75.1353 75.1777 75.1066 75.1944 75.0555 75.2149L76.1704 78L77.2854 80.7851C78.9101 80.1347 80.134 78.9275 80.7885 77.2762L77.9995 76.1709ZM76.1704 78V75H74.9517V78V81H76.1704V78ZM74.9517 78L75.7567 75.11C75.7006 75.0944 75.643 75.0781 75.5771 75.0593C75.5136 75.0413 75.4417 75.0209 75.369 75.0006L74.564 77.8906L73.759 80.7806C73.8151 80.7962 73.8726 80.8126 73.9385 80.8313C74.002 80.8493 74.0738 80.8697 74.1466 80.89L74.9517 78ZM74.564 77.8906L75.3729 75.0018C73.6526 74.52 71.8845 74.0146 70.125 73.5352L69.3364 76.4297L68.5478 79.3242C70.2812 79.7965 71.9914 80.2856 73.755 80.7795L74.564 77.8906ZM69.3364 76.4297L70.1217 73.5343C66.4311 72.5333 62.7239 71.5304 59.0041 70.565L58.2505 73.4688L57.4968 76.3725C61.1809 77.3287 64.8589 78.3237 68.5511 79.3251L69.3364 76.4297ZM58.2505 73.4688L59.0095 70.5664C57.9176 70.2808 56.6391 70.4117 55.619 70.9315L56.981 73.6045L58.3429 76.2775C58.1323 76.3848 57.9838 76.4067 57.9215 76.4133C57.8588 76.42 57.7134 76.4292 57.4914 76.3711L58.2505 73.4688ZM56.981 73.6045L55.6137 70.9342C51.1608 73.214 46.4808 74.5512 41.5195 74.8806L41.7183 77.874L41.917 80.8674C47.7302 80.4815 53.2021 78.9096 58.3482 76.2748L56.981 73.6045ZM41.7183 77.874L41.5338 74.8797C41.155 74.903 40.8437 74.978 40.6904 75.0168C40.6185 75.035 40.531 75.0586 40.5097 75.0643C40.4703 75.0748 40.4693 75.0746 40.4818 75.0718L41.1343 78L41.7868 80.9282C41.8966 80.9037 41.9926 80.8785 42.0504 80.8631C42.0655 80.8591 42.0802 80.8552 42.0922 80.852C42.1051 80.8485 42.1149 80.8459 42.1246 80.8433C42.1439 80.8382 42.1544 80.8354 42.161 80.8338C42.1755 80.8301 42.1552 80.8357 42.1158 80.8429C42.075 80.8505 42.0009 80.8623 41.9027 80.8683L41.7183 77.874ZM41.1343 78V75H37.021V78V81H41.1343V78ZM37.021 78L37.4055 75.0247C35.7448 74.8101 34.4354 74.698 33.0236 74.4518L32.5083 77.4072L31.993 80.3626C33.5675 80.6372 35.2869 80.8008 36.6365 80.9753L37.021 78ZM32.5083 77.4072L33.0226 74.4516C23.8723 72.8595 16.4323 68.4747 10.7038 61.2107L8.34814 63.0684L5.99253 64.9261C12.6518 73.3702 21.4125 78.5217 31.994 80.3628L32.5083 77.4072ZM8.34814 63.0684L10.7039 61.2108C5.17568 54.2 2.6681 46.1941 3.03412 37.2397L0.0366211 37.1172L-2.96088 36.9947C-3.38352 47.3344 -0.450406 56.7552 5.99241 64.9259L8.34814 63.0684ZM0.0366211 37.1172L3.03408 37.2405C3.70557 20.9212 15.854 6.81657 31.8793 3.7088L31.3081 0.763672L30.737 -2.18146C11.9859 1.45491 -2.17486 17.892 -2.96084 36.9939L0.0366211 37.1172ZM31.3081 0.763672L31.8778 3.70908C33.4835 3.39851 34.9894 3.24282 36.8511 2.96779L36.4126 0L35.9741 -2.96779C34.4323 -2.74 32.5062 -2.52365 30.7384 -2.18174L31.3081 0.763672ZM36.4126 0V3H41.7437V0V-3H36.4126V0Z" fill="white" mask="url(#path-1-inside-1_5201_20349)"/>
<path d="M38.1304 62.5113C38.1304 62.5113 34.6174 60.96 32.1617 60.0504C30.5513 59.4522 30.7809 56.7357 31.713 55.713C33.3475 54.1112 34.1549 51.8468 33.9026 49.5722C34.042 48.0854 33.5377 46.61 32.5172 45.5197C31.4968 44.4295 30.058 43.8287 28.5652 43.8696C27.0724 43.8287 25.6337 44.4295 24.6132 45.5197C23.5927 46.61 23.0884 48.0854 23.2278 49.5722C22.9755 51.8468 23.7829 54.1112 25.4174 55.713C26.3496 56.7357 26.5791 59.4522 24.9687 60.0504C22.513 60.96 19 62.5113 19 62.5113M46.8261 38.6522H40.7391C40.2589 38.6522 39.8696 38.2629 39.8696 37.7826V27.8852C39.8696 27.5837 40.0258 27.3037 40.2823 27.1453C40.5389 26.9869 40.8591 26.9728 41.1287 27.1078L46.8261 29.9565M46.8261 38.6522V29.9565M46.8261 38.6522H51.1739C51.6542 38.6522 52.0435 38.2629 52.0435 37.7826V32.5652C52.0435 32.085 51.6542 31.6957 51.1739 31.6957H46.8261M46.8261 29.9565V26.4783M39.8696 31.6957H42.4783M39.8696 35.1739H42.4783M59 40.3913C59 41.3518 58.2214 42.1304 57.2609 42.1304H45.9565L40.5878 46.7322C40.4585 46.8415 40.2775 46.8661 40.1236 46.7953C39.9698 46.7245 39.8707 46.5711 39.8696 46.4017V42.1304H32.913C31.9525 42.1304 31.1739 41.3518 31.1739 40.3913V24.7391C31.1739 23.7786 31.9525 23 32.913 23H57.2609C58.2214 23 59 23.7786 59 24.7391V40.3913Z" stroke="white" stroke-width="2.5" stroke-linecap="round" stroke-linejoin="round"/>
</svg>
