<?xml version="1.0" encoding="UTF-8"?>
<svg id="Layer_1" xmlns="http://www.w3.org/2000/svg" version="1.1" viewBox="0 0 45 44">
  <!-- Generator: Adobe Illustrator 29.2.1, SVG Export Plug-In . SVG Version: 2.1.0 Build 116)  -->
  <defs>
    <style>
      .st0 {
        fill: #0072d3;
        fill-rule: evenodd;
      }
    </style>
  </defs>
  <path class="st0" d="M31.7,31.4c0,2.3,1.9,4.2,4.2,4.2s4.2-1.9,4.2-4.2c0-2.3-1.9-4.2-4.2-4.2s-4.2,1.9-4.2,4.2ZM4.3,31.4c0,2.3,1.9,4.2,4.2,4.2s4.2-1.9,4.2-4.2c0-2.3-1.9-4.2-4.2-4.2s-4.2,1.9-4.2,4.2ZM33.5,43.9h10.7c-2-3.7-6.3-5.5-10.3-4.4-.7.2-1.5.6-2.1,1,.7,1.1,1.3,2.2,1.8,3.4ZM12.6,40.4c-.6-.4-1.3-.7-2-.9-4-1.1-8.3.7-10.3,4.4h10.5c.5-1.2,1.1-2.4,1.9-3.5ZM31.5,43.9c-1.5-3.9-5.1-6.5-9.3-6.7-4.2.2-7.9,2.8-9.4,6.7h18.7ZM19.2,13.6c0,1.6,1.3,2.9,2.9,2.9s2.9-1.3,2.9-2.9-1.3-2.9-2.9-2.9-2.9,1.3-2.9,2.9ZM31.3,14.2c-.3-.3-.3-.9,0-1.2l2-2c1.1-1.1,1.2-2.8.5-4.1-.7-1.3-2.3-2-3.8-1.6l-2.7.6c-.5,0-.9-.2-1-.6l-.8-2.7c-.4-1.5-1.8-2.5-3.3-2.5s-2.9,1-3.3,2.5l-.8,2.6c-.1.4-.6.7-1,.6l-2.8-.6c-1.5-.4-3,.3-3.8,1.6-.8,1.3-.6,3.1.5,4.2l1.9,2c.3.3.3.9,0,1.2l-1.9,2.1c-1,1.1-1.2,2.8-.5,4.1.8,1.3,2.3,2,3.8,1.6l2.8-.6c.4-.1.9.2,1,.6l.5,1.6c2.3-1.3,5.1-1.3,7.3,0l.5-1.7c.1-.4.6-.7,1-.6l2.7.6c1.5.4,3-.3,3.8-1.6.8-1.3.6-3-.5-4.1l-2-2ZM22.2,19.4c-2.4,0-4.5-1.4-5.4-3.6s-.4-4.7,1.3-6.4c1.7-1.7,4.2-2.2,6.4-1.3,2.2.9,3.6,3,3.6,5.4,0,1.5-.6,3-1.7,4.1-1.1,1.1-2.6,1.7-4.1,1.7ZM16.7,29.7c0,2.9,2.4,5.3,5.3,5.3s5.3-2.4,5.3-5.3-2.4-5.3-5.3-5.3-5.3,2.4-5.3,5.3Z"/>
</svg>