<svg width="48" height="71" viewBox="0 0 48 71" fill="none" xmlns="http://www.w3.org/2000/svg">
<g clip-path="url(#clip0_5201_20462)">
<path d="M22.226 0.0723042C45.6471 -1.65682 57.1815 28.0598 39.2058 42.8814L39.1613 66.5196C38.6107 70.0836 34.9345 72.0772 31.6957 70.401L24.052 64.4162C23.5904 64.3796 17.8171 69.4164 16.7726 70.0796C13.2787 72.3132 9.26653 70.2545 8.80904 66.2226L8.7888 42.8814C-7.88327 29.1664 0.590421 1.67124 22.226 0.0723042ZM22.3839 5.15797C9.48516 6.22393 1.40014 19.9064 6.62281 31.8679C12.8455 46.1078 32.8252 47.2226 40.469 33.6662C48.1127 20.1098 37.5904 3.89673 22.3839 5.15797Z" fill="url(#paint0_linear_5201_20462)"/>
<path d="M29.5637 17.4788C32.005 18.1501 36.2358 17.5358 37.5314 20.2007C39.2803 23.8095 34.835 25.8234 33.0536 28.2523C33.3208 31.1043 35.4625 35.5106 31.9443 37.1705C29.0455 38.5376 26.5556 35.4251 23.9322 34.6724C21.2277 35.6489 18.418 38.9322 15.4747 36.8044C12.6852 34.7864 14.8026 30.8724 14.9484 28.0936C13.9848 27.0033 12.9119 26.0227 11.9079 24.9731C10.839 23.8583 10.0091 23.4067 10.0739 21.5596C10.2196 17.3608 15.6042 18.081 18.4261 17.3079C20.0739 14.5942 21.248 9.08543 25.584 11.0709C27.5637 11.9782 28.4544 15.6724 29.5678 17.4748L29.5637 17.4788Z" fill="url(#paint1_linear_5201_20462)"/>
</g>
<defs>
<linearGradient id="paint0_linear_5201_20462" x1="4.98747" y1="-4.3935e-06" x2="42.6952" y2="4.80244" gradientUnits="userSpaceOnUse">
<stop stop-color="#003B6D"/>
<stop offset="1" stop-color="#0072D3"/>
</linearGradient>
<linearGradient id="paint1_linear_5201_20462" x1="12.9653" y1="10.6484" x2="34.3897" y2="14.8344" gradientUnits="userSpaceOnUse">
<stop stop-color="#003B6D"/>
<stop offset="1" stop-color="#0072D3"/>
</linearGradient>
<clipPath id="clip0_5201_20462">
<rect width="48" height="71" fill="white"/>
</clipPath>
</defs>
</svg>
