<svg width="62" height="62" viewBox="0 0 62 62" fill="none" xmlns="http://www.w3.org/2000/svg">
<path fill-rule="evenodd" clip-rule="evenodd" d="M1 31C1.00002 47.5685 14.4315 61 31 61C47.5686 61 61 47.5685 61 31C61 14.4315 47.5686 1 31 1C14.4315 1 1 14.4314 1 31Z" fill="#DA4436"/>
<path fill-rule="evenodd" clip-rule="evenodd" d="M1 31C1.00002 47.5685 14.4315 61 31 61C47.5686 61 61 47.5685 61 31C61 14.4315 47.5686 1 31 1C14.4315 1 1 14.4314 1 31Z" stroke="white" stroke-width="2" stroke-linecap="round" stroke-linejoin="round"/>
<path d="M18.25 47.5L15.25 43.72C14.2832 42.5276 13.7539 41.0401 13.75 39.505V31.75C13.75 30.5074 14.7574 29.5 16 29.5C17.2426 29.5 18.25 30.5074 18.25 31.75V37.57M25 47.29V42.79C25.0008 41.4592 24.6038 40.1585 23.86 39.055L22.15 36.49C21.8561 35.9862 21.366 35.6273 20.797 35.4992C20.228 35.3712 19.6313 35.4856 19.15 35.815C18.2834 36.414 17.9947 37.5624 18.475 38.5L20.5 41.875M43.75 47.5L46.75 43.72C47.7168 42.5276 48.2461 41.0401 48.25 39.505V31.75C48.25 30.5074 47.2426 29.5 46 29.5C44.7574 29.5 43.75 30.5074 43.75 31.75V37.585M37 47.29V42.79C36.9992 41.4592 37.3962 40.1585 38.14 39.055L39.85 36.49C40.1439 35.9862 40.634 35.6273 41.203 35.4992C41.772 35.3712 42.3687 35.4856 42.85 35.815C43.7166 36.414 44.0053 37.5624 43.525 38.5L41.5 41.875M25.84 23.41L28.345 20.905M36.16 23.41L33.655 20.905M27.25 18.25C27.25 20.3211 28.9289 22 31 22C33.0711 22 34.75 20.3211 34.75 18.25C34.75 16.1789 33.0711 14.5 31 14.5C28.9289 14.5 27.25 16.1789 27.25 18.25ZM22 25C22 26.2426 23.0074 27.25 24.25 27.25C25.4926 27.25 26.5 26.2426 26.5 25C26.5 23.7574 25.4926 22.75 24.25 22.75C23.0074 22.75 22 23.7574 22 25ZM35.5 25C35.5 26.2426 36.5074 27.25 37.75 27.25C38.9926 27.25 40 26.2426 40 25C40 23.7574 38.9926 22.75 37.75 22.75C36.5074 22.75 35.5 23.7574 35.5 25Z" stroke="white" stroke-width="2" stroke-linecap="round" stroke-linejoin="round"/>
</svg>
