<svg width="86" height="86" viewBox="0 0 86 86" fill="none" xmlns="http://www.w3.org/2000/svg">
<path fill-rule="evenodd" clip-rule="evenodd" d="M26.5489 82.7164C4.61409 73.6307 -5.80212 48.4838 3.2836 26.5489C12.3693 4.61409 37.5162 -5.80212 59.4511 3.2836C81.3859 12.3693 91.8021 37.5162 82.7164 59.4511C73.6307 81.3859 48.4838 91.8021 26.5489 82.7164Z" fill="#FCBB1B" fill-opacity="0.26"/>
<path fill-rule="evenodd" clip-rule="evenodd" d="M47.2869 36.1327C47.2871 35.7925 47.1497 35.4666 46.9059 35.2293C46.6622 34.9919 46.3329 34.8631 45.9928 34.8722H35.9086C35.2125 34.8722 34.6481 35.4365 34.6481 36.1327C34.6481 36.8288 35.2125 37.3932 35.9086 37.3932H45.9928C46.6983 37.4025 47.2777 36.8382 47.2869 36.1327ZM42.7155 54.0321C42.6592 53.8653 42.5049 53.7512 42.3289 53.7464H31.7405C31.2764 53.7464 30.9002 53.3701 30.9002 52.906V31.057C30.9002 30.5929 31.2764 30.2166 31.7405 30.2166H50.2282C50.6923 30.2166 51.0685 30.5929 51.0685 31.057V37.5781C51.0658 37.7013 51.1196 37.8191 51.2146 37.8977C51.3096 37.9763 51.4353 38.0072 51.5559 37.9814C52.2275 37.8657 52.9081 37.8094 53.5896 37.8134C54.2655 37.8095 54.9404 37.8657 55.6064 37.9814C55.7294 38.0133 55.8602 37.9853 55.9594 37.9059C56.0586 37.8265 56.1147 37.7051 56.1106 37.5781L56.1106 27.7292C56.1196 27.0548 55.858 26.4049 55.3842 25.9248C54.9104 25.4447 54.264 25.1745 53.5896 25.1745H46.8668C46.7178 25.1725 46.5821 25.0885 46.5138 24.956C45.3483 23.0086 43.2455 21.8164 40.9759 21.8164C38.7063 21.8164 36.6035 23.0086 35.438 24.956C35.3728 25.0912 35.2352 25.1764 35.0851 25.1745H28.3623C27.6849 25.17 27.0342 25.4382 26.5567 25.9188C26.0793 26.3993 25.8154 27.0518 25.8244 27.7292V56.301C25.8429 57.6934 26.9867 58.8072 28.3791 58.7885H45.1861C45.3594 58.793 45.5178 58.6907 45.5847 58.5307C45.6517 58.3707 45.6135 58.1861 45.4886 58.0658C44.2916 56.9305 43.3468 55.5562 42.7155 54.0321ZM43.7911 43.0908C44.2797 42.3824 44.8432 41.7288 45.4718 41.1412C45.6063 41.0067 45.6735 40.7546 45.0348 40.7546H35.9086C35.2125 40.7546 34.6481 41.3189 34.6481 42.0151C34.6481 42.7113 35.2125 43.2756 35.9086 43.2756H43.4213C43.5692 43.2867 43.7112 43.2157 43.7911 43.0908ZM35.9086 46.637C35.2125 46.637 34.6481 47.2014 34.6481 47.8976C34.6481 48.5937 35.2125 49.1581 35.9086 49.1581H41.4549C41.5695 49.1539 41.6774 49.103 41.7535 49.0173C41.8297 48.9316 41.8675 48.8186 41.8583 48.7043C41.8894 48.1384 41.9681 47.5762 42.0936 47.0236C42.1254 46.9006 42.0974 46.7698 42.0181 46.6706C41.9387 46.5713 41.8172 46.5153 41.6902 46.5194L35.9086 46.637ZM65.6402 59.2591L61.4216 55.0405C61.3036 54.8932 61.3036 54.6837 61.4216 54.5363C63.0396 52.0142 63.3321 48.8633 62.206 46.0865C61.0799 43.3096 58.6754 41.2525 55.7577 40.5697C51.6732 39.6125 47.4563 41.5257 45.4867 45.2297C43.5171 48.9337 44.2887 53.4996 47.3661 56.3507C50.4435 59.2017 55.055 59.623 58.598 57.3767C58.7454 57.2587 58.9549 57.2587 59.1022 57.3767L63.3208 61.5952C63.9876 62.1663 64.9817 62.1279 65.6024 61.5071C66.2232 60.8863 66.2616 59.8923 65.6906 59.2255L65.6402 59.2591ZM53.5896 55.4271C50.3408 55.4271 47.7071 52.7934 47.7071 49.5446C47.7071 46.2959 50.3408 43.6622 53.5896 43.6622C56.8383 43.6622 59.472 46.2959 59.472 49.5446C59.472 52.7934 56.8383 55.4271 53.5896 55.4271Z" fill="#FCBB1B"/>
</svg>
