<svg width="532" height="286" viewBox="0 0 532 286" fill="none" xmlns="http://www.w3.org/2000/svg">
<path fill-rule="evenodd" clip-rule="evenodd" d="M275.125 0V114.064C275.125 159.014 292.982 202.125 324.767 233.91L352.479 261.623L328.648 285.454H426.772V187.329L402.941 211.16L375.228 183.449C356.827 165.046 346.488 140.088 346.488 114.064V0H275.125Z" fill="#DA4436"/>
<path fill-rule="evenodd" clip-rule="evenodd" d="M257.284 0V132.567C257.284 165.666 244.145 197.411 220.754 220.827L179.965 261.657L203.761 285.454H105.637L105.637 187.329L129.503 211.196L170.265 170.392C180.29 160.357 185.921 146.752 185.921 132.567V0H257.284Z" fill="#FCBB1B"/>
<path fill-rule="evenodd" clip-rule="evenodd" d="M364.328 0V35.6817C364.328 84.9479 404.266 124.886 453.532 124.886H462.453V158.589L531.837 89.2045L462.453 19.8199V53.5226H453.532C443.679 53.5226 435.692 45.5349 435.692 35.6817V0H364.328Z" fill="#0072D3"/>
<path fill-rule="evenodd" clip-rule="evenodd" d="M96.7165 0V35.6817C96.7165 45.5349 88.7289 53.5226 78.8757 53.5226H69.957V19.8199L0.572266 89.2045L69.9569 158.589L69.957 124.886H78.8757C128.142 124.886 168.08 84.9479 168.08 35.6817V0H96.7165Z" fill="#16A458"/>
<path fill-rule="evenodd" clip-rule="evenodd" d="M54.4606 76.9719C55.5311 74.9909 57.5489 73.6371 59.804 73.6371C61.4455 73.6288 63.0221 74.2773 64.1827 75.4382C65.3433 76.5991 65.9913 78.1759 65.9824 79.8174V80.8751H63.3337C62.6193 80.8748 61.9752 81.305 61.7017 81.965C61.4283 82.625 61.5795 83.3848 62.0848 83.8898L66.4993 88.3043C67.1887 88.9931 68.3059 88.9931 68.9953 88.3043L73.4098 83.8898C73.9151 83.3848 74.0663 82.625 73.7929 81.965C73.5195 81.305 72.8753 80.8748 72.1609 80.8751H69.5122V79.8156C69.5215 77.2375 68.5015 74.7623 66.6785 72.9392C64.8555 71.1162 62.3803 70.0962 59.8021 70.1055C55.4962 70.1055 51.9903 73.0504 50.6807 76.8284H36.8412C33.9603 76.8335 31.6262 79.1677 31.6211 82.0486V102.429C31.6262 105.31 33.9603 107.644 36.8412 107.649H50.9345C52.612 110.393 55.6139 112.15 59.0977 112.15C61.6755 112.159 64.1502 111.139 65.9728 109.316C67.7954 107.493 68.8152 105.018 68.8059 102.44L68.8059 99.7912C68.8061 98.8158 68.0155 98.0249 67.0401 98.0249C66.0647 98.0249 65.274 98.8158 65.2743 99.7912V102.44C65.2841 104.081 64.6367 105.659 63.4763 106.82C62.3159 107.981 60.7391 108.629 59.0977 108.62C57.6841 108.636 56.3095 108.157 55.2129 107.265C57.178 106.463 58.464 104.553 58.4686 102.431V82.0504C58.4635 79.6353 56.8068 77.5371 54.4588 76.9719H54.4606ZM38.4562 84.826C38.4562 83.8512 39.2471 83.0602 40.222 83.0602H49.8695C50.8221 83.091 51.5783 83.8721 51.5783 84.8251C51.5783 85.7782 50.8221 86.5592 49.8695 86.59H40.222C39.2468 86.59 38.4562 85.7994 38.4562 84.8242V84.826ZM35.1527 82.0467C35.1527 81.1215 35.916 80.3582 36.8412 80.3582H53.2484C54.1737 80.3582 54.9388 81.1215 54.9388 82.0467V89.1375H35.1527V82.0486V82.0467ZM46.8842 94.6373C46.8842 95.6531 46.0607 96.4766 45.0448 96.4766C44.029 96.4766 43.2055 95.6531 43.2055 94.6373C43.2055 93.6214 44.029 92.7979 45.0448 92.7979C46.0607 92.7979 46.8842 93.6214 46.8842 94.6373ZM45.0448 102.973C46.0607 102.973 46.8842 102.15 46.8842 101.134C46.8842 100.118 46.0607 99.2945 45.0448 99.2945C44.029 99.2945 43.2055 100.118 43.2055 101.134C43.2055 102.15 44.029 102.973 45.0448 102.973ZM40.4372 94.6373C40.4372 95.6531 39.6137 96.4766 38.5978 96.4766C37.582 96.4766 36.7585 95.6531 36.7585 94.6373C36.7585 93.6214 37.582 92.7979 38.5978 92.7979C39.6137 92.7979 40.4372 93.6214 40.4372 94.6373ZM38.5978 102.973C39.6137 102.973 40.4372 102.15 40.4372 101.134C40.4372 100.118 39.6137 99.2945 38.5978 99.2945C37.582 99.2945 36.7585 100.118 36.7585 101.134C36.7585 102.15 37.582 102.973 38.5978 102.973ZM53.3312 94.6373C53.3312 95.6531 52.5077 96.4766 51.4918 96.4766C50.476 96.4766 49.6525 95.6531 49.6525 94.6373C49.6525 93.6214 50.476 92.7979 51.4918 92.7979C52.5077 92.7979 53.3312 93.6214 53.3312 94.6373ZM51.4918 102.973C52.5077 102.973 53.3312 102.15 53.3312 101.134C53.3312 100.118 52.5077 99.2945 51.4918 99.2945C50.476 99.2945 49.6525 100.118 49.6525 101.134C49.6525 102.15 50.476 102.973 51.4918 102.973Z" fill="white"/>
<path fill-rule="evenodd" clip-rule="evenodd" d="M482.655 97.3539C482.654 99.6949 484.552 101.593 486.893 101.593C489.234 101.593 491.131 99.6949 491.131 97.3539C491.131 95.013 489.234 93.1151 486.893 93.1151C484.552 93.1151 482.654 95.013 482.655 97.3539ZM455.308 97.3539C455.308 99.6949 457.205 101.593 459.546 101.593C461.887 101.593 463.785 99.6949 463.784 97.3539C463.785 95.013 461.887 93.1151 459.546 93.1151C457.205 93.1151 455.308 95.013 455.308 97.3539ZM484.463 109.867H495.131C493.125 106.178 488.839 104.361 484.792 105.483C484.048 105.725 483.337 106.056 482.673 106.469C483.406 107.524 484.008 108.666 484.463 109.867ZM463.638 106.415C463.011 106.02 462.335 105.707 461.629 105.483C457.582 104.361 453.296 106.178 451.289 109.867H461.775C462.263 108.65 462.888 107.491 463.638 106.415ZM482.472 109.867C480.993 105.984 477.36 103.34 473.21 103.127C468.996 103.278 465.279 105.931 463.766 109.867H482.472ZM470.196 79.5796C470.196 81.1938 471.505 82.5024 473.119 82.5024C474.733 82.5024 476.042 81.1938 476.042 79.5796C476.042 77.9653 474.733 76.6567 473.119 76.6567C471.505 76.6567 470.196 77.9653 470.196 79.5796ZM482.344 80.1824C482.03 79.8347 482.03 79.3061 482.344 78.9585L484.335 76.9856C485.394 75.8737 485.58 74.1924 484.792 72.8753C484.042 71.5525 482.506 70.8885 481.029 71.2495L478.289 71.8889C477.834 71.9753 477.387 71.7085 477.247 71.2678L476.425 68.5642C475.987 67.1047 474.643 66.1055 473.119 66.1055C471.595 66.1055 470.251 67.1047 469.812 68.5642L468.99 71.1765C468.866 71.6202 468.419 71.8916 467.967 71.7976L465.209 71.1582C463.732 70.7906 462.191 71.4563 461.446 72.784C460.623 74.125 460.811 75.8527 461.903 76.9856L463.839 78.9585C464.153 79.3061 464.153 79.8347 463.839 80.1824L461.903 82.2466C460.856 83.3639 460.67 85.037 461.446 86.3568C462.198 87.6755 463.74 88.3268 465.209 87.9461L467.967 87.325C468.415 87.2198 468.866 87.4855 468.99 87.9279L469.484 89.4989C471.75 88.1787 474.558 88.2138 476.791 89.5902L477.302 87.9279C477.442 87.4888 477.893 87.228 478.343 87.325L481.084 87.9461C482.562 88.3271 484.111 87.658 484.847 86.3203C485.635 85.0032 485.448 83.3219 484.39 82.2101L482.344 80.1824ZM473.21 85.4069C470.844 85.4069 468.712 83.9807 467.808 81.7941C466.904 79.6075 467.408 77.0917 469.083 75.4213C470.759 73.7509 473.276 73.2553 475.46 74.1659C477.644 75.0764 479.063 77.2136 479.056 79.5796C479.056 81.1282 478.439 82.6132 477.343 83.7066C476.246 84.8 474.759 85.4118 473.21 85.4069ZM467.712 95.7099C467.712 98.6457 470.092 101.026 473.028 101.026C475.963 101.026 478.343 98.6457 478.343 95.7099C478.343 92.774 475.963 90.394 473.028 90.394C470.092 90.394 467.712 92.774 467.712 95.7099Z" fill="white"/>
<path fill-rule="evenodd" clip-rule="evenodd" d="M386.72 259.463L372.54 255.696L378.19 254.227C378.942 254.033 379.397 253.267 379.206 252.514C379.004 251.758 378.232 251.305 377.474 251.497L367.06 254.265C366.392 254.437 365.947 255.066 366.005 255.753V264.227C366.008 264.889 366.469 265.461 367.116 265.602L386.72 269.858V259.463ZM410.261 255.64C410.258 254.997 409.826 254.434 409.206 254.265L398.867 251.553C398.109 251.362 397.337 251.815 397.135 252.57C396.944 253.324 397.399 254.09 398.152 254.284L403.387 255.659L389.545 259.425V269.839L409.149 265.583C409.796 265.442 410.258 264.87 410.261 264.208V255.64ZM396.532 242.57C396.082 244.268 395.364 245.883 394.404 247.354C395.096 247.77 395.729 248.277 396.287 248.86C396.631 249.211 397.148 249.326 397.608 249.155C398.068 248.984 398.384 248.559 398.415 248.069C398.611 246.05 397.924 244.045 396.532 242.57ZM379.734 242.57C378.342 244.045 377.655 246.05 377.851 248.069C377.882 248.559 378.198 248.984 378.658 249.155C379.118 249.326 379.635 249.211 379.979 248.86C380.537 248.277 381.17 247.77 381.862 247.354C380.902 245.883 380.183 244.268 379.734 242.57ZM388.133 225C388.133 225 381.542 228.296 381.542 234.887C381.542 238.521 382.634 248.069 388.133 248.069C393.632 248.069 394.724 238.521 394.724 234.887C394.724 228.296 388.133 225 388.133 225ZM388.133 237.241C387.08 237.248 386.127 236.62 385.718 235.65C385.31 234.679 385.528 233.558 386.27 232.811C387.011 232.064 388.131 231.838 389.104 232.239C390.078 232.64 390.713 233.589 390.713 234.642C390.718 235.33 390.448 235.991 389.964 236.479C389.479 236.966 388.82 237.241 388.133 237.241ZM388.133 250.103C386.677 250.103 385.496 251.284 385.496 252.74C385.496 254.209 386.683 257.711 388.133 257.711C389.583 257.711 390.769 254.209 390.769 252.74C390.769 251.284 389.589 250.103 388.133 250.103Z" fill="white"/>
<path fill-rule="evenodd" clip-rule="evenodd" d="M163.328 235.881C163.004 235.492 162.437 235.416 162.022 235.705L136.33 253.561C136.018 253.78 135.627 253.857 135.255 253.771C134.883 253.686 134.565 253.446 134.38 253.113L127.597 241.319C127.292 240.787 127.38 240.117 127.811 239.682C128.229 239.234 128.902 239.137 129.429 239.448L136.934 243.619C137.226 243.775 137.577 243.775 137.87 243.619L158.864 232.43C159.151 232.279 159.342 231.993 159.371 231.67C159.404 231.359 159.28 231.052 159.04 230.851C154.364 226.981 148.461 224.907 142.392 225.003C129.488 225.003 119 233.775 119 244.497C119.101 249.815 121.558 254.813 125.706 258.142C125.836 258.244 125.903 258.407 125.881 258.571L125.043 266.271C124.982 266.841 125.255 267.395 125.745 267.694C125.976 267.826 126.239 267.893 126.505 267.889C126.798 267.892 127.084 267.803 127.324 267.636C127.538 267.48 132.353 264.205 134.01 262.996C134.134 262.939 134.276 262.939 134.4 262.996C137.02 263.653 139.696 264.064 142.392 264.224C155.297 264.224 165.784 255.452 165.784 244.731C165.79 241.612 164.941 238.551 163.328 235.881Z" fill="white"/>
</svg>
