<svg width="532" height="286" viewBox="0 0 532 286" fill="none" xmlns="http://www.w3.org/2000/svg">
<path fill-rule="evenodd" clip-rule="evenodd" d="M274.553 0V114.064C274.553 159.014 292.41 202.125 324.195 233.91L351.907 261.623L328.075 285.454H426.2V187.329L402.369 211.16L374.656 183.449C356.254 165.046 345.916 140.088 345.916 114.064V0H274.553Z" fill="#DA4436"/>
<path fill-rule="evenodd" clip-rule="evenodd" d="M256.712 0V132.567C256.712 165.666 243.573 197.411 220.182 220.827L179.392 261.657L203.189 285.454H105.064L105.064 187.329L128.931 211.196L169.693 170.392C179.717 160.357 185.348 146.752 185.348 132.567V0H256.712Z" fill="#FCBB1B"/>
<path fill-rule="evenodd" clip-rule="evenodd" d="M363.756 0V35.6817C363.756 84.9479 403.694 124.886 452.96 124.886H461.88V158.589L531.265 89.2045L461.88 19.8199V53.5226H452.96C443.107 53.5226 435.119 45.5349 435.119 35.6817V0H363.756Z" fill="#0072D3"/>
<path fill-rule="evenodd" clip-rule="evenodd" d="M96.1443 0V35.6817C96.1443 45.5349 88.1566 53.5226 78.3034 53.5226H69.3847V19.8199L0 89.2045L69.3846 158.589L69.3847 124.886H78.3034C127.569 124.886 167.508 84.9479 167.508 35.6817V0H96.1443Z" fill="#16A458"/>
<path fill-rule="evenodd" clip-rule="evenodd" d="M53.8883 76.9719C54.9588 74.9909 56.9766 73.6371 59.2317 73.6371C60.8732 73.6288 62.4499 74.2773 63.6104 75.4382C64.771 76.5991 65.419 78.1759 65.4102 79.8174V80.8751H62.7615C62.0471 80.8748 61.4029 81.305 61.1295 81.965C60.856 82.625 61.0072 83.3848 61.5125 83.8898L65.927 88.3043C66.6165 88.9931 67.7336 88.9931 68.4231 88.3043L72.8376 83.8898C73.3428 83.3848 73.494 82.625 73.2206 81.965C72.9472 81.305 72.303 80.8748 71.5886 80.8751H68.9399V79.8156C68.9493 77.2375 67.9292 74.7623 66.1062 72.9392C64.2832 71.1162 61.808 70.0962 59.2299 70.1055C54.9239 70.1055 51.4181 73.0504 50.1084 76.8284H36.269C33.3881 76.8335 31.0539 79.1677 31.0488 82.0486V102.429C31.0539 105.31 33.3881 107.644 36.269 107.649H50.3622C52.0398 110.393 55.0416 112.15 58.5254 112.15C61.1032 112.159 63.5779 111.139 65.4005 109.316C67.2232 107.493 68.2429 105.018 68.2336 102.44L68.2336 99.7912C68.2339 98.8158 67.4432 98.0249 66.4678 98.0249C65.4924 98.0249 64.7017 98.8158 64.702 99.7912V102.44C64.7119 104.081 64.0644 105.659 62.904 106.82C61.7436 107.981 60.1669 108.629 58.5254 108.62C57.1118 108.636 55.7372 108.157 54.6406 107.265C56.6057 106.463 57.8918 104.553 57.8963 102.431V82.0504C57.8912 79.6353 56.2346 77.5371 53.8865 76.9719H53.8883ZM37.8839 84.826C37.8839 83.8512 38.6749 83.0602 39.6497 83.0602H49.2973C50.2498 83.091 51.0061 83.8721 51.0061 84.8251C51.0061 85.7782 50.2498 86.5592 49.2973 86.59H39.6497C38.6745 86.59 37.8839 85.7994 37.8839 84.8242V84.826ZM34.5804 82.0467C34.5804 81.1215 35.3438 80.3582 36.269 80.3582H52.6762C53.6014 80.3582 54.3666 81.1215 54.3666 82.0467V89.1375H34.5804V82.0486V82.0467ZM46.3119 94.6373C46.3119 95.6531 45.4884 96.4766 44.4726 96.4766C43.4567 96.4766 42.6332 95.6531 42.6332 94.6373C42.6332 93.6214 43.4567 92.7979 44.4726 92.7979C45.4884 92.7979 46.3119 93.6214 46.3119 94.6373ZM44.4726 102.973C45.4884 102.973 46.3119 102.15 46.3119 101.134C46.3119 100.118 45.4884 99.2946 44.4726 99.2946C43.4567 99.2946 42.6332 100.118 42.6332 101.134C42.6332 102.15 43.4567 102.973 44.4726 102.973ZM39.8649 94.6373C39.8649 95.6531 39.0414 96.4766 38.0256 96.4766C37.0097 96.4766 36.1862 95.6531 36.1862 94.6373C36.1862 93.6214 37.0097 92.7979 38.0256 92.7979C39.0414 92.7979 39.8649 93.6214 39.8649 94.6373ZM38.0256 102.973C39.0414 102.973 39.8649 102.15 39.8649 101.134C39.8649 100.118 39.0414 99.2946 38.0256 99.2946C37.0097 99.2946 36.1862 100.118 36.1862 101.134C36.1862 102.15 37.0097 102.973 38.0256 102.973ZM52.759 94.6373C52.759 95.6531 51.9354 96.4766 50.9196 96.4766C49.9037 96.4766 49.0802 95.6531 49.0802 94.6373C49.0802 93.6214 49.9037 92.7979 50.9196 92.7979C51.9354 92.7979 52.759 93.6214 52.759 94.6373ZM50.9196 102.973C51.9354 102.973 52.759 102.15 52.759 101.134C52.759 100.118 51.9354 99.2946 50.9196 99.2946C49.9037 99.2946 49.0802 100.118 49.0802 101.134C49.0802 102.15 49.9037 102.973 50.9196 102.973Z" fill="white"/>
<path fill-rule="evenodd" clip-rule="evenodd" d="M482.082 97.3539C482.082 99.6949 483.979 101.593 486.32 101.593C488.661 101.593 490.559 99.6949 490.558 97.3539C490.559 95.013 488.661 93.1151 486.32 93.1151C483.979 93.1151 482.082 95.013 482.082 97.3539ZM454.736 97.3539C454.735 99.6949 456.633 101.593 458.974 101.593C461.315 101.593 463.212 99.6949 463.212 97.3539C463.212 95.013 461.315 93.1151 458.974 93.1151C456.633 93.1151 454.735 95.013 454.736 97.3539ZM483.891 109.867H494.559C492.553 106.178 488.266 104.361 484.22 105.483C483.476 105.725 482.764 106.056 482.101 106.469C482.834 107.524 483.435 108.666 483.891 109.867ZM463.066 106.415C462.438 106.02 461.763 105.707 461.056 105.483C457.009 104.361 452.723 106.178 450.717 109.867H461.202C461.691 108.65 462.316 107.491 463.066 106.415ZM481.9 109.867C480.421 105.984 476.788 103.34 472.638 103.127C468.423 103.278 464.706 105.931 463.194 109.867H481.9ZM469.624 79.5796C469.624 81.1938 470.932 82.5024 472.547 82.5024C474.161 82.5024 475.469 81.1938 475.469 79.5796C475.469 77.9653 474.161 76.6567 472.547 76.6567C470.932 76.6567 469.624 77.9653 469.624 79.5796ZM481.772 80.1824C481.458 79.8347 481.458 79.3061 481.772 78.9585L483.763 76.9856C484.821 75.8737 485.008 74.1924 484.22 72.8753C483.47 71.5525 481.933 70.8885 480.456 71.2495L477.716 71.8889C477.262 71.9753 476.815 71.7085 476.675 71.2678L475.853 68.5642C475.414 67.1047 474.071 66.1055 472.547 66.1055C471.023 66.1055 469.679 67.1047 469.24 68.5642L468.418 71.1765C468.293 71.6202 467.846 71.8916 467.395 71.7976L464.637 71.1582C463.159 70.7906 461.619 71.4563 460.874 72.784C460.051 74.125 460.239 75.8527 461.33 76.9856L463.267 78.9585C463.58 79.3061 463.58 79.8347 463.267 80.1824L461.33 82.2466C460.284 83.3639 460.098 85.037 460.874 86.3568C461.625 87.6755 463.167 88.3268 464.637 87.9461L467.395 87.325C467.843 87.2198 468.293 87.4855 468.418 87.9279L468.911 89.4989C471.177 88.1787 473.986 88.2138 476.218 89.5902L476.73 87.9279C476.87 87.4888 477.321 87.228 477.771 87.325L480.511 87.9461C481.99 88.3271 483.538 87.658 484.274 86.3203C485.063 85.0032 484.876 83.3219 483.818 82.2101L481.772 80.1824ZM472.638 85.4069C470.272 85.4069 468.139 83.9807 467.236 81.7941C466.332 79.6075 466.835 77.0917 468.511 75.4213C470.187 73.7509 472.704 73.2553 474.888 74.1659C477.071 75.0764 478.491 77.2136 478.484 79.5796C478.484 81.1282 477.867 82.6132 476.77 83.7066C475.674 84.8 474.187 85.4118 472.638 85.4069ZM467.139 95.7099C467.139 98.6457 469.519 101.026 472.455 101.026C475.391 101.026 477.771 98.6457 477.771 95.7099C477.771 92.774 475.391 90.394 472.455 90.394C469.519 90.394 467.139 92.774 467.139 95.7099Z" fill="white"/>
<path fill-rule="evenodd" clip-rule="evenodd" d="M386.148 259.463L371.968 255.696L377.617 254.227C378.37 254.033 378.825 253.267 378.634 252.514C378.432 251.758 377.66 251.305 376.902 251.497L366.487 254.265C365.82 254.437 365.374 255.066 365.433 255.753V264.227C365.435 264.889 365.897 265.461 366.544 265.602L386.148 269.858V259.463ZM409.688 255.64C409.686 254.997 409.254 254.434 408.634 254.265L398.295 251.553C397.537 251.362 396.765 251.815 396.562 252.57C396.372 253.324 396.826 254.09 397.579 254.284L402.815 255.659L388.973 259.425V269.839L408.577 265.583C409.224 265.442 409.686 264.87 409.688 264.208V255.64ZM395.96 242.57C395.51 244.268 394.792 245.883 393.832 247.354C394.524 247.77 395.157 248.277 395.715 248.86C396.058 249.211 396.576 249.326 397.036 249.155C397.495 248.984 397.812 248.559 397.843 248.069C398.039 246.05 397.352 244.045 395.96 242.57ZM379.161 242.57C377.769 244.045 377.083 246.05 377.278 248.069C377.309 248.559 377.626 248.984 378.086 249.155C378.546 249.326 379.063 249.211 379.406 248.86C379.964 248.277 380.598 247.77 381.29 247.354C380.33 245.883 379.611 244.268 379.161 242.57ZM387.561 225C387.561 225 380.969 228.296 380.969 234.887C380.969 238.521 382.062 248.069 387.561 248.069C393.06 248.069 394.152 238.521 394.152 234.887C394.152 228.296 387.561 225 387.561 225ZM387.561 237.241C386.508 237.248 385.554 236.62 385.146 235.65C384.738 234.679 384.956 233.558 385.697 232.811C386.439 232.064 387.558 231.838 388.532 232.239C389.505 232.64 390.141 233.589 390.141 234.642C390.146 235.33 389.876 235.991 389.392 236.479C388.907 236.966 388.248 237.241 387.561 237.241ZM387.561 250.103C386.105 250.103 384.924 251.284 384.924 252.74C384.924 254.209 386.111 257.711 387.561 257.711C389.011 257.711 390.197 254.209 390.197 252.74C390.197 251.284 389.017 250.103 387.561 250.103Z" fill="white"/>
<path fill-rule="evenodd" clip-rule="evenodd" d="M162.756 235.881C162.432 235.492 161.865 235.416 161.45 235.705L135.757 253.561C135.445 253.78 135.055 253.857 134.683 253.771C134.311 253.686 133.993 253.446 133.808 253.113L127.024 241.319C126.72 240.787 126.808 240.117 127.239 239.682C127.657 239.234 128.329 239.137 128.857 239.448L136.362 243.619C136.654 243.775 137.005 243.775 137.297 243.619L158.292 232.43C158.579 232.279 158.77 231.993 158.799 231.67C158.832 231.359 158.708 231.052 158.467 230.851C153.792 226.981 147.889 224.907 141.82 225.003C128.915 225.003 118.428 233.775 118.428 244.497C118.529 249.815 120.985 254.813 125.134 258.142C125.264 258.244 125.33 258.407 125.309 258.571L124.471 266.271C124.41 266.841 124.683 267.395 125.172 267.694C125.404 267.826 125.666 267.893 125.933 267.889C126.225 267.892 126.512 267.803 126.751 267.636C126.966 267.48 131.781 264.205 133.438 262.996C133.562 262.939 133.704 262.939 133.828 262.996C136.448 263.653 139.123 264.064 141.82 264.224C154.725 264.224 165.212 255.452 165.212 244.731C165.218 241.612 164.369 238.551 162.756 235.881Z" fill="white"/>
</svg>
