<svg width="532" height="297" viewBox="0 0 532 297" fill="none" xmlns="http://www.w3.org/2000/svg">
<path fill-rule="evenodd" clip-rule="evenodd" d="M275.125 0V118.459C275.125 165.142 292.982 209.914 324.767 242.924L352.479 271.705L328.648 296.454H426.772V194.548L402.941 219.297L375.228 190.518C356.827 171.406 346.488 145.486 346.488 118.459V0H275.125Z" fill="#16A458"/>
<path fill-rule="evenodd" clip-rule="evenodd" d="M257.284 0V137.675C257.284 172.05 244.145 205.018 220.754 229.336L179.965 271.74L203.761 296.454H105.637L105.637 194.548L129.503 219.334L170.265 176.958C180.29 166.536 185.921 152.407 185.921 137.675V0H257.284Z" fill="#FCBB1B"/>
<path fill-rule="evenodd" clip-rule="evenodd" d="M364.328 0V37.0567C364.328 88.2214 404.266 129.699 453.532 129.699H462.453V164.7L531.837 92.642L462.453 20.5836V55.5851H453.532C443.679 55.5851 435.692 47.2896 435.692 37.0567V0H364.328Z" fill="#0072D3"/>
<path fill-rule="evenodd" clip-rule="evenodd" d="M96.7165 0V37.0567C96.7165 47.2896 88.7289 55.5851 78.8757 55.5851H69.957V20.5836L0.572266 92.642L69.9569 164.7L69.957 129.699H78.8757C128.142 129.699 168.08 88.2214 168.08 37.0567V0H96.7165Z" fill="#DA4436"/>
<path fill-rule="evenodd" clip-rule="evenodd" d="M54.4606 79.9377C55.5311 77.8803 57.5489 76.4744 59.804 76.4744C61.4455 76.4657 63.0221 77.1392 64.1827 78.3448C65.3433 79.5505 65.9913 81.1881 65.9824 82.8928V83.9912H63.3337C62.6193 83.991 61.9752 84.4378 61.7017 85.1232C61.4283 85.8087 61.5795 86.5977 62.0848 87.1221L66.4993 91.7068C67.1887 92.4221 68.3059 92.4221 68.9953 91.7068L73.4098 87.1221C73.9151 86.5977 74.0663 85.8087 73.7929 85.1232C73.5195 84.4378 72.8753 83.991 72.1609 83.9912H69.5122V82.8909C69.5215 80.2135 68.5015 77.6429 66.6785 75.7496C64.8555 73.8563 62.3803 72.797 59.8021 72.8067C55.4962 72.8067 51.9903 75.865 50.6807 79.7887H36.8412C33.9603 79.7939 31.6262 82.2181 31.6211 85.21V106.376C31.6262 109.368 33.9603 111.792 36.8412 111.797H50.9345C52.612 114.647 55.6139 116.471 59.0977 116.471C61.6755 116.48 64.1502 115.421 65.9728 113.528C67.7954 111.634 68.8152 109.064 68.8059 106.387L68.8059 103.636C68.8061 102.623 68.0155 101.802 67.0401 101.802C66.0647 101.802 65.274 102.623 65.2743 103.636V106.387C65.2841 108.092 64.6367 109.73 63.4763 110.936C62.3159 112.141 60.7391 112.815 59.0977 112.806C57.6841 112.822 56.3095 112.324 55.2129 111.398C57.178 110.565 58.464 108.582 58.4686 106.378V85.2119C58.4635 82.7037 56.8068 80.5246 54.4588 79.9377H54.4606ZM38.4562 88.0945C38.4562 87.082 39.2471 86.2606 40.222 86.2606H49.8695C50.8221 86.2926 51.5783 87.1037 51.5783 88.0935C51.5783 89.0833 50.8221 89.8945 49.8695 89.9264H40.222C39.2468 89.9264 38.4562 89.1054 38.4562 88.0926V88.0945ZM35.1527 85.2081C35.1527 84.2472 35.916 83.4545 36.8412 83.4545H53.2484C54.1737 83.4545 54.9388 84.2472 54.9388 85.2081V92.5721H35.1527V85.21V85.2081ZM46.8842 98.2838C46.8842 99.3388 46.0607 100.194 45.0448 100.194C44.029 100.194 43.2055 99.3388 43.2055 98.2838C43.2055 97.2288 44.029 96.3735 45.0448 96.3735C46.0607 96.3735 46.8842 97.2288 46.8842 98.2838ZM45.0448 106.941C46.0607 106.941 46.8842 106.086 46.8842 105.031C46.8842 103.976 46.0607 103.121 45.0448 103.121C44.029 103.121 43.2055 103.976 43.2055 105.031C43.2055 106.086 44.029 106.941 45.0448 106.941ZM40.4372 98.2838C40.4372 99.3388 39.6137 100.194 38.5978 100.194C37.582 100.194 36.7585 99.3388 36.7585 98.2838C36.7585 97.2288 37.582 96.3735 38.5978 96.3735C39.6137 96.3735 40.4372 97.2288 40.4372 98.2838ZM38.5978 106.941C39.6137 106.941 40.4372 106.086 40.4372 105.031C40.4372 103.976 39.6137 103.121 38.5978 103.121C37.582 103.121 36.7585 103.976 36.7585 105.031C36.7585 106.086 37.582 106.941 38.5978 106.941ZM53.3312 98.2838C53.3312 99.3388 52.5077 100.194 51.4918 100.194C50.476 100.194 49.6525 99.3388 49.6525 98.2838C49.6525 97.2288 50.476 96.3735 51.4918 96.3735C52.5077 96.3735 53.3312 97.2288 53.3312 98.2838ZM51.4918 106.941C52.5077 106.941 53.3312 106.086 53.3312 105.031C53.3312 103.976 52.5077 103.121 51.4918 103.121C50.476 103.121 49.6525 103.976 49.6525 105.031C49.6525 106.086 50.476 106.941 51.4918 106.941Z" fill="white"/>
<path fill-rule="evenodd" clip-rule="evenodd" d="M482.655 101.106C482.654 103.537 484.552 105.508 486.893 105.508C489.234 105.508 491.131 103.537 491.131 101.106C491.131 98.6748 489.234 96.7038 486.893 96.7038C484.552 96.7038 482.654 98.6748 482.655 101.106ZM455.308 101.106C455.308 103.537 457.205 105.508 459.546 105.508C461.887 105.508 463.785 103.537 463.784 101.106C463.785 98.6748 461.887 96.7038 459.546 96.7038C457.205 96.7038 455.308 98.6748 455.308 101.106ZM484.463 114.101H495.131C493.125 110.27 488.839 108.383 484.792 109.548C484.048 109.8 483.337 110.144 482.673 110.573C483.406 111.668 484.008 112.854 484.463 114.101ZM463.638 110.516C463.011 110.106 462.335 109.781 461.629 109.548C457.582 108.383 453.296 110.27 451.289 114.101H461.775C462.263 112.837 462.888 111.634 463.638 110.516ZM482.472 114.101C480.993 110.068 477.36 107.322 473.21 107.101C468.996 107.258 465.279 110.013 463.766 114.101H482.472ZM470.196 82.6466C470.196 84.3231 471.505 85.6821 473.119 85.6821C474.733 85.6821 476.042 84.3231 476.042 82.6466C476.042 80.9702 474.733 79.6112 473.119 79.6112C471.505 79.6112 470.196 80.9702 470.196 82.6466ZM482.344 83.2727C482.03 82.9116 482.03 82.3626 482.344 82.0016L484.335 79.9527C485.394 78.798 485.58 77.0519 484.792 75.6841C484.042 74.3103 482.506 73.6207 481.029 73.9956L478.289 74.6596C477.834 74.7493 477.387 74.4723 477.247 74.0146L476.425 71.2068C475.987 69.691 474.643 68.6533 473.119 68.6533C471.595 68.6533 470.251 69.691 469.812 71.2068L468.99 73.9197C468.866 74.3805 468.419 74.6624 467.967 74.5647L465.209 73.9007C463.732 73.519 462.191 74.2104 461.446 75.5892C460.623 76.9819 460.811 78.7761 461.903 79.9527L463.839 82.0016C464.153 82.3626 464.153 82.9116 463.839 83.2727L461.903 85.4165C460.856 86.5768 460.67 88.3144 461.446 89.6851C462.198 91.0546 463.74 91.7309 465.209 91.3356L467.967 90.6906C468.415 90.5813 468.866 90.8572 468.99 91.3166L469.484 92.9482C471.75 91.5771 474.558 91.6136 476.791 93.043L477.302 91.3166C477.442 90.8607 477.893 90.5898 478.343 90.6906L481.084 91.3356C482.562 91.7313 484.111 91.0364 484.847 89.6471C485.635 88.2793 485.448 86.5332 484.39 85.3785L482.344 83.2727ZM473.21 88.6986C470.844 88.6985 468.712 87.2174 467.808 84.9465C466.904 82.6756 467.408 80.0629 469.083 78.3282C470.759 76.5934 473.276 76.0787 475.46 77.0243C477.644 77.97 479.063 80.1895 479.056 82.6466C479.056 84.255 478.439 85.7972 477.343 86.9327C476.246 88.0682 474.759 88.7036 473.21 88.6986ZM467.712 99.3985C467.712 102.448 470.092 104.919 473.028 104.919C475.963 104.919 478.343 102.448 478.343 99.3985C478.343 96.3495 475.963 93.8778 473.028 93.8778C470.092 93.8778 467.712 96.3495 467.712 99.3985Z" fill="white"/>
<path fill-rule="evenodd" clip-rule="evenodd" d="M139.742 269.831L125.561 265.919L131.211 264.394C131.964 264.192 132.418 263.397 132.228 262.614C132.025 261.829 131.254 261.359 130.495 261.558L120.081 264.433C119.414 264.612 118.968 265.265 119.027 265.978V274.779C119.029 275.466 119.491 276.06 120.138 276.207L139.742 280.627V269.831ZM163.282 265.861C163.279 265.193 162.848 264.609 162.227 264.433L151.889 261.617C151.13 261.418 150.359 261.888 150.156 262.673C149.966 263.455 150.42 264.251 151.173 264.452L156.408 265.88L142.567 269.792V280.607L162.171 276.187C162.818 276.04 163.28 275.447 163.282 274.759V265.861ZM149.553 252.287C149.104 254.051 148.385 255.728 147.425 257.255C148.117 257.688 148.751 258.214 149.309 258.82C149.652 259.184 150.169 259.304 150.629 259.126C151.089 258.949 151.405 258.507 151.437 257.998C151.632 255.902 150.946 253.819 149.553 252.287ZM132.755 252.287C131.363 253.819 130.676 255.902 130.872 257.998C130.903 258.507 131.22 258.949 131.679 259.126C132.139 259.304 132.657 259.184 133 258.82C133.558 258.214 134.191 257.688 134.883 257.255C133.923 255.728 133.205 254.051 132.755 252.287ZM141.154 234.04C141.154 234.04 134.563 237.463 134.563 244.308C134.563 248.083 135.655 257.998 141.154 257.998C146.653 257.998 147.746 248.083 147.746 244.308C147.746 237.463 141.154 234.04 141.154 234.04ZM141.154 246.753C140.102 246.761 139.148 246.108 138.74 245.1C138.332 244.092 138.549 242.928 139.291 242.152C140.033 241.376 141.152 241.142 142.126 241.558C143.099 241.975 143.734 242.96 143.734 244.054C143.739 244.768 143.47 245.454 142.985 245.961C142.501 246.468 141.842 246.753 141.154 246.753ZM141.154 260.111C139.698 260.111 138.518 261.336 138.518 262.849C138.518 264.374 139.704 268.012 141.154 268.012C142.604 268.012 143.791 264.374 143.791 262.849C143.791 261.336 142.61 260.111 141.154 260.111Z" fill="white"/>
<path fill-rule="evenodd" clip-rule="evenodd" d="M407.477 249.498C407.153 249.095 406.586 249.015 406.171 249.316L380.478 267.86C380.166 268.088 379.775 268.167 379.404 268.078C379.032 267.989 378.714 267.741 378.529 267.394L371.745 255.146C371.441 254.594 371.528 253.898 371.96 253.446C372.377 252.981 373.05 252.88 373.577 253.203L381.082 257.535C381.375 257.697 381.726 257.697 382.018 257.535L403.013 245.915C403.3 245.758 403.491 245.461 403.52 245.125C403.553 244.802 403.429 244.483 403.188 244.275C398.513 240.256 392.609 238.102 386.541 238.202C373.636 238.202 363.148 247.312 363.148 258.446C363.25 263.969 365.706 269.16 369.854 272.618C369.984 272.723 370.051 272.893 370.03 273.063L369.191 281.06C369.13 281.652 369.404 282.227 369.893 282.537C370.124 282.675 370.387 282.745 370.653 282.74C370.946 282.743 371.232 282.651 371.472 282.477C371.687 282.315 376.502 278.914 378.158 277.658C378.282 277.6 378.425 277.6 378.548 277.658C381.168 278.341 383.844 278.768 386.541 278.934C399.445 278.934 409.933 269.824 409.933 258.689C409.939 255.45 409.089 252.271 407.477 249.498Z" fill="white"/>
</svg>
