<svg width="427" height="364" viewBox="0 0 427 364" fill="none" xmlns="http://www.w3.org/2000/svg">
<path fill-rule="evenodd" clip-rule="evenodd" d="M63.0571 63.0571C63.0571 80.1937 49.1652 94.0857 32.0286 94.0857C14.8919 94.0857 1 80.1937 1 63.0571C1 45.9205 14.8919 32.0286 32.0286 32.0286C49.1652 32.0286 63.0571 45.9205 63.0571 63.0571ZM156.143 47.5429V1L32.0286 1V32.0286C49.1652 32.0286 63.0571 45.9205 63.0571 63.0571C63.0571 80.1937 49.1652 94.0857 32.0286 94.0857V125.114H78.5714V47.5429H156.143Z" fill="#B83024"/>
<path fill-rule="evenodd" clip-rule="evenodd" d="M363 63.0571C363 80.1937 376.892 94.0857 394.028 94.0857C411.165 94.0857 425.057 80.1937 425.057 63.0571C425.057 45.9205 411.165 32.0286 394.028 32.0286C376.892 32.0286 363 45.9205 363 63.0571ZM269.914 47.5429V1L394.028 1V32.0286C376.892 32.0286 363 45.9205 363 63.0571C363 80.1937 376.892 94.0857 394.028 94.0857V125.114H347.485V47.5429H269.914Z" fill="#DA4436"/>
<path fill-rule="evenodd" clip-rule="evenodd" d="M63.0571 300.94C63.0571 283.803 49.1652 269.911 32.0286 269.911C14.892 269.911 1 283.803 1 300.94C0.999998 318.077 14.8919 331.969 32.0286 331.969C49.1651 331.969 63.0571 318.077 63.0571 300.94ZM156.143 316.454V362.997H32.0286V331.969C49.1651 331.969 63.0571 318.077 63.0571 300.94C63.0571 283.803 49.1652 269.911 32.0286 269.911V238.883L78.5714 238.883V316.454H156.143Z" fill="#FF8175"/>
<path fill-rule="evenodd" clip-rule="evenodd" d="M363 300.94C363 283.803 376.892 269.911 394.028 269.911C411.165 269.911 425.057 283.803 425.057 300.94C425.057 318.077 411.165 331.969 394.028 331.969C376.892 331.969 363 318.077 363 300.94ZM269.914 316.454L269.914 362.997H394.028V331.969C376.892 331.969 363 318.077 363 300.94C363 283.803 376.892 269.911 394.028 269.911V238.883L347.485 238.883V316.454H269.914Z" fill="#FC5B4C"/>
<path fill-rule="evenodd" clip-rule="evenodd" d="M251.449 229.605C252.244 230.4 253.345 230.81 254.466 230.731C255.587 230.652 256.618 230.09 257.293 229.191L262.801 221.848C263.443 220.991 263.27 219.775 262.413 219.133C261.556 218.49 260.34 218.664 259.698 219.521L254.19 226.864L251.191 223.865C250.434 223.108 249.207 223.108 248.45 223.865C247.705 224.636 247.705 225.86 248.45 226.631L251.449 229.605ZM262.413 234.001C261.58 233.442 260.459 233.61 259.827 234.388L254.19 241.732L251.191 238.732C250.434 237.976 249.207 237.976 248.45 238.732C247.721 239.501 247.721 240.705 248.45 241.473L251.449 244.447C252.241 245.244 253.339 245.66 254.46 245.585C255.581 245.511 256.614 244.954 257.293 244.059L262.801 236.716C263.443 235.859 263.27 234.643 262.413 234.001ZM286.77 221.563H272.497C271.426 221.563 270.558 222.432 270.558 223.503C270.558 224.574 271.426 225.442 272.497 225.442H286.719C287.79 225.442 288.658 224.574 288.658 223.503C288.658 222.432 287.79 221.563 286.719 221.563H286.77ZM280.616 251.661C280.616 253.832 282.376 255.592 284.547 255.592C286.717 255.592 288.477 253.832 288.477 251.661C288.477 249.49 286.717 247.73 284.547 247.73C282.376 247.73 280.616 249.49 280.616 251.661ZM299.673 248.041C301.113 246.551 301.395 244.289 300.364 242.491C299.334 240.693 297.239 239.794 295.226 240.284L291.528 241.137C290.923 241.287 290.307 240.934 290.132 240.336L289.02 236.69C288.432 234.717 286.618 233.365 284.559 233.365C282.501 233.365 280.687 234.717 280.099 236.69L278.987 240.336C278.812 240.934 278.196 241.287 277.591 241.137L273.893 240.284C271.88 239.794 269.785 240.693 268.754 242.491C267.724 244.289 268.006 246.551 269.446 248.041L272.032 250.834C272.449 251.296 272.449 252 272.032 252.463L269.446 255.255C268.047 256.756 267.79 258.993 268.81 260.773C269.831 262.553 271.891 263.461 273.893 263.012L277.669 262.159C278.274 262.009 278.889 262.363 279.065 262.961L280.177 266.606C280.765 268.579 282.579 269.931 284.637 269.931C286.695 269.931 288.509 268.579 289.097 266.606L290.209 262.961C290.385 262.363 291.001 262.009 291.606 262.159L295.303 263.012C297.305 263.461 299.366 262.553 300.386 260.773C301.407 258.993 301.149 256.756 299.751 255.255L297.165 252.463C296.721 252.01 296.721 251.286 297.165 250.834L299.673 248.041ZM284.547 259.573C280.262 259.573 276.789 256.1 276.789 251.816C276.789 247.532 280.262 244.059 284.547 244.059C288.831 244.059 292.304 247.532 292.304 251.816C292.234 256.071 288.802 259.504 284.547 259.573ZM272.807 267.02C269.77 267.025 266.964 265.395 265.464 262.754C263.991 260.229 263.913 257.127 265.257 254.531L248.631 254.531C245.418 254.531 242.813 251.926 242.813 248.713V217.685C242.813 214.472 245.418 211.867 248.631 211.867H291.295C294.508 211.867 297.113 214.472 297.113 217.685V232.553C297.113 233.624 297.981 234.492 299.052 234.492C300.123 234.492 300.992 233.624 300.992 232.553V217.685C300.992 212.33 296.65 207.988 291.295 207.988H248.631C243.261 207.974 238.897 212.315 238.883 217.685V248.713C238.897 254.063 243.23 258.396 248.579 258.41H259.931L258.638 266.167H254.397C253.326 266.167 252.458 267.035 252.458 268.106C252.458 269.177 253.326 270.045 254.397 270.045L272.497 270.045C273.568 270.045 274.436 269.177 274.436 268.106V266.839C273.9 266.949 273.355 267.009 272.807 267.02Z" fill="#FC5B4C"/>
<path fill-rule="evenodd" clip-rule="evenodd" d="M176.825 238.893C176.604 238.752 176.321 238.752 176.101 238.893C174.353 239.619 172.504 240.072 170.619 240.237C170.422 240.234 170.237 240.327 170.123 240.488C170.009 240.648 169.982 240.855 170.05 241.039C170.212 241.637 170.273 242.257 170.231 242.875C170.092 244.396 169.288 245.778 168.033 246.65C166.478 247.722 164.793 248.591 163.017 249.236C162.787 249.337 162.629 249.554 162.603 249.805C162.6 250.062 162.739 250.301 162.965 250.425C164.181 251.046 165.37 251.718 166.585 252.442C170.814 255.056 173.26 259.788 172.946 264.75V269.327C172.946 269.684 173.236 269.973 173.593 269.973H186.521C186.878 269.973 187.168 269.684 187.168 269.327V266.017C187.344 263.355 186.043 260.811 183.78 259.398C181.326 257.935 178.726 256.73 176.023 255.803C175.325 255.545 174.601 254.95 174.601 254.252V253.373C174.594 253.207 174.66 253.046 174.782 252.933C174.902 252.803 175.071 252.729 175.247 252.726C178.563 252.955 181.857 252.043 184.582 250.141C184.805 249.955 184.937 249.681 184.944 249.391C184.958 249.092 184.846 248.801 184.634 248.589C183.382 247.415 182.663 245.781 182.643 244.064C182.597 243.841 182.441 243.656 182.229 243.573C181.395 243.249 180.638 242.756 180.005 242.125L176.825 238.893ZM150.968 222.086V221.129C150.979 220.832 150.787 220.565 150.502 220.483C149.394 220.157 148.244 219.992 147.089 219.991C145.77 219.997 144.46 220.216 143.21 220.638C137.574 221.465 131.678 225.576 131.032 235.092C130.618 241.168 129.687 242.099 128.058 243.728C127.78 243.996 127.635 244.375 127.666 244.76C127.696 245.146 127.897 245.497 128.213 245.719C131.454 248.032 135.382 249.18 139.358 248.977H139.746C139.919 248.97 140.088 249.035 140.211 249.158C140.334 249.281 140.399 249.45 140.392 249.624V250.71C140.392 251.563 139.513 252.313 138.685 252.597C135.387 253.731 132.216 255.204 129.222 256.993C126.457 258.745 124.878 261.873 125.11 265.138V269.275C125.11 269.632 125.4 269.921 125.757 269.921H164.749C165.106 269.921 165.396 269.632 165.396 269.275V265.138C165.639 261.877 164.069 258.747 161.31 256.993C158.37 255.216 155.26 253.735 152.028 252.571C151.174 252.287 150.295 251.537 150.295 250.684V249.598C150.321 249.463 150.384 249.337 150.476 249.236C150.602 249.118 150.769 249.053 150.942 249.055C155.047 249.337 159.123 248.186 162.474 245.797C162.774 245.543 162.96 245.18 162.991 244.788C162.997 244.389 162.838 244.006 162.552 243.728C160.955 242.271 160.021 240.226 159.966 238.065C159.935 237.873 159.822 237.703 159.656 237.6C154.244 234.305 150.949 228.421 150.968 222.086ZM169.068 207.864C163.029 207.916 157.682 211.776 155.731 217.491C153.78 223.206 155.651 229.529 160.397 233.263C165.144 236.996 171.73 237.325 176.825 234.083C177.063 233.907 177.388 233.907 177.626 234.083L182.798 239.255C183.283 239.744 183.944 240.02 184.634 240.02C185.323 240.02 185.984 239.744 186.469 239.255C186.959 238.769 187.234 238.108 187.234 237.419C187.234 236.729 186.959 236.069 186.469 235.583L181.298 230.412C181.121 230.174 181.121 229.848 181.298 229.61C184.048 225.201 184.174 219.643 181.626 215.113C179.079 210.584 174.264 207.805 169.068 207.864ZM160.018 222.086C160.018 217.087 164.069 213.036 169.068 213.036C174.066 213.036 178.118 217.087 178.118 222.086C178.118 227.084 174.066 231.136 169.068 231.136C164.069 231.136 160.018 227.084 160.018 222.086Z" fill="#FF8175"/>
<path fill-rule="evenodd" clip-rule="evenodd" d="M286.072 152.265H240.822C239.751 152.265 238.883 153.134 238.883 154.205C238.883 155.276 239.751 156.144 240.822 156.144H286.072C287.143 156.144 288.011 155.276 288.011 154.205C288.011 153.134 287.143 152.265 286.072 152.265ZM242.761 118.651C242.047 118.651 241.469 119.23 241.469 119.944V149.033C241.469 149.39 241.758 149.68 242.115 149.68H251.165C251.522 149.68 251.811 149.39 251.811 149.033V119.944C251.811 119.23 251.233 118.651 250.519 118.651H242.761ZM256.983 149.033C256.983 149.39 257.272 149.68 257.629 149.68H266.679C267.036 149.68 267.326 149.39 267.326 149.033V132.226C267.326 131.502 266.757 131.58 266.033 131.58H258.276C257.562 131.58 256.983 132.159 256.983 132.873V149.033ZM282.194 149.68C282.551 149.68 282.84 149.39 282.84 149.033V138.044C282.84 137.346 282.271 137.398 281.547 137.398H273.79C273.076 137.398 272.497 137.976 272.497 138.69V149.033C272.497 149.39 272.787 149.68 273.144 149.68H282.194ZM293.648 123.409C293.458 123.166 293.458 122.825 293.648 122.581C299.04 114.896 297.661 104.364 290.472 98.326C283.283 92.2881 272.671 92.749 266.033 99.3874C259.394 106.026 258.933 116.638 264.971 123.827C271.009 131.016 281.541 132.395 289.227 127.003C289.47 126.813 289.811 126.813 290.054 127.003L296.57 133.545C297.056 134.034 297.717 134.31 298.406 134.31C299.095 134.31 299.756 134.034 300.242 133.545C300.731 133.059 301.007 132.398 301.007 131.709C301.007 131.02 300.731 130.359 300.242 129.873L293.648 123.409ZM278.78 125.115C271.64 125.115 265.852 119.327 265.852 112.187C265.852 105.047 271.64 99.2583 278.78 99.2583C285.921 99.2583 291.709 105.047 291.709 112.187C291.709 119.327 285.921 125.115 278.78 125.115Z" fill="#DA4436"/>
<path fill-rule="evenodd" clip-rule="evenodd" d="M127.697 103.576C127.697 108.817 131.946 113.066 137.187 113.066C142.428 113.066 146.676 108.817 146.676 103.576C146.676 98.3347 142.428 94.0859 137.187 94.0859C131.946 94.0859 127.697 98.3347 127.697 103.576ZM137.885 136.13C137.878 129.812 140.49 123.774 145.099 119.452C141.53 116.356 136.482 115.626 132.182 117.584C127.882 119.542 125.119 123.829 125.111 128.554V138.897H130.567L132.015 156.143H142.358L142.823 150.325C139.626 146.285 137.886 141.283 137.885 136.13ZM178.299 130.571H177.886L174.24 130.286C175.043 132.148 175.457 134.154 175.455 136.182C175.438 142.584 171.254 148.23 165.134 150.109C159.013 151.988 152.382 149.663 148.775 144.373C145.169 139.083 145.426 132.061 149.412 127.05C153.397 122.038 160.18 120.206 166.147 122.529L165.785 118.495C165.746 118.16 165.746 117.822 165.785 117.487C164.096 117.048 162.358 116.831 160.613 116.84C152.335 117.002 145.086 122.436 142.609 130.337C140.131 138.238 142.98 146.837 149.684 151.697C156.388 156.557 165.447 156.589 172.185 151.777C178.923 146.965 181.833 138.385 179.411 130.467C179.047 130.551 178.673 130.585 178.299 130.571ZM166.095 137.087C165.609 139.739 163.241 141.627 160.547 141.511C157.853 141.396 155.657 139.311 155.4 136.627C155.143 133.943 156.904 131.48 159.527 130.855L163.38 126.795C162.535 126.579 161.667 126.466 160.794 126.459C155.453 126.459 151.124 130.789 151.124 136.13C151.124 141.471 155.453 145.8 160.794 145.8C166.135 145.8 170.465 141.471 170.465 136.13C170.46 135.077 170.294 134.03 169.973 133.027L166.095 137.087ZM184.583 117.099L180.601 115.78L179.256 111.772C179.11 111.343 178.754 111.019 178.313 110.914C177.872 110.809 177.408 110.938 177.084 111.255L171.137 117.177C170.592 117.72 170.317 118.478 170.387 119.245L170.723 122.813L159.372 134.785C158.616 135.542 158.616 136.769 159.372 137.526C159.724 137.873 160.197 138.068 160.691 138.069C161.231 138.069 161.746 137.844 162.113 137.449L173.335 125.606L177.007 125.942C177.773 126.013 178.532 125.738 179.075 125.192L184.996 119.271C185.318 118.962 185.462 118.511 185.379 118.073C185.295 117.634 184.996 117.268 184.583 117.099Z" fill="#B83024"/>
<path d="M402.658 76.9814V80.2773H388.068V77.4648L394.968 70.0674C395.661 69.2959 396.208 68.6172 396.608 68.0312C397.009 67.4355 397.297 66.9033 397.473 66.4346C397.658 65.9561 397.751 65.502 397.751 65.0723C397.751 64.4277 397.644 63.876 397.429 63.417C397.214 62.9482 396.896 62.5869 396.477 62.333C396.066 62.0791 395.559 61.9521 394.953 61.9521C394.309 61.9521 393.752 62.1084 393.283 62.4209C392.824 62.7334 392.473 63.168 392.229 63.7246C391.994 64.2812 391.877 64.9111 391.877 65.6143H387.644C387.644 64.3447 387.946 63.1826 388.552 62.1279C389.157 61.0635 390.012 60.2188 391.115 59.5938C392.219 58.959 393.527 58.6416 395.041 58.6416C396.535 58.6416 397.795 58.8857 398.82 59.374C399.855 59.8525 400.637 60.5459 401.164 61.4541C401.701 62.3525 401.97 63.4268 401.97 64.6768C401.97 65.3799 401.857 66.0684 401.633 66.7422C401.408 67.4062 401.086 68.0703 400.666 68.7344C400.256 69.3887 399.758 70.0527 399.172 70.7266C398.586 71.4004 397.937 72.0986 397.224 72.8213L393.518 76.9814H402.658Z" fill="white"/>
<path d="M36.3516 58.9053V80.2773H32.1328V63.7686L27.0645 65.3799V62.0547L35.8975 58.9053H36.3516Z" fill="white"/>
<path d="M41.0098 310.203V313.514H25.6436L25.4385 310.95L34.3301 296.844H37.6846L34.0518 302.923L29.6279 310.203H41.0098ZM38.5928 296.844V318.172H34.374V296.844H38.5928Z" fill="white"/>
<path d="M392.39 305.677H394.646C395.368 305.677 395.964 305.555 396.433 305.311C396.901 305.057 397.248 304.705 397.473 304.256C397.707 303.797 397.824 303.265 397.824 302.659C397.824 302.112 397.717 301.629 397.502 301.209C397.297 300.779 396.979 300.447 396.55 300.213C396.12 299.969 395.578 299.847 394.924 299.847C394.406 299.847 393.928 299.949 393.488 300.154C393.049 300.359 392.697 300.647 392.434 301.019C392.17 301.39 392.038 301.839 392.038 302.366H387.805C387.805 301.194 388.117 300.174 388.742 299.305C389.377 298.436 390.227 297.757 391.291 297.269C392.355 296.78 393.527 296.536 394.807 296.536C396.252 296.536 397.517 296.771 398.601 297.239C399.685 297.698 400.529 298.377 401.135 299.275C401.74 300.174 402.043 301.287 402.043 302.615C402.043 303.289 401.887 303.943 401.574 304.578C401.262 305.203 400.812 305.77 400.227 306.277C399.65 306.775 398.947 307.176 398.117 307.479C397.287 307.771 396.354 307.918 395.319 307.918H392.39V305.677ZM392.39 308.885V306.702H395.319C396.481 306.702 397.502 306.834 398.381 307.098C399.26 307.361 399.997 307.742 400.593 308.24C401.188 308.729 401.638 309.31 401.94 309.983C402.243 310.647 402.395 311.385 402.395 312.195C402.395 313.191 402.204 314.08 401.823 314.861C401.442 315.633 400.905 316.287 400.212 316.824C399.528 317.361 398.728 317.771 397.81 318.055C396.892 318.328 395.891 318.465 394.807 318.465C393.908 318.465 393.024 318.343 392.155 318.099C391.296 317.845 390.515 317.469 389.812 316.971C389.118 316.463 388.562 315.828 388.142 315.066C387.731 314.295 387.526 313.382 387.526 312.327H391.76C391.76 312.874 391.896 313.362 392.17 313.792C392.443 314.222 392.819 314.559 393.298 314.803C393.786 315.047 394.328 315.169 394.924 315.169C395.598 315.169 396.174 315.047 396.652 314.803C397.141 314.549 397.512 314.197 397.766 313.748C398.029 313.289 398.161 312.757 398.161 312.151C398.161 311.37 398.02 310.745 397.736 310.276C397.453 309.798 397.048 309.446 396.521 309.222C395.993 308.997 395.368 308.885 394.646 308.885H392.39Z" fill="white"/>
<path d="M32.0286 94.0857C49.1652 94.0857 63.0571 80.1938 63.0571 63.0571C63.0571 45.9205 49.1652 32.0286 32.0286 32.0286M32.0286 94.0857C14.8919 94.0857 1 80.1938 1 63.0571C1 45.9205 14.8919 32.0286 32.0286 32.0286M32.0286 94.0857V125.114H78.5714V47.5429H156.143V1H32.0286V32.0286" stroke="white" stroke-width="2" stroke-linecap="round" stroke-linejoin="round"/>
<path d="M394.028 94.0857C376.892 94.0857 363 80.1938 363 63.0571C363 45.9205 376.892 32.0286 394.028 32.0286M394.028 94.0857C411.165 94.0857 425.057 80.1938 425.057 63.0571C425.057 45.9205 411.165 32.0286 394.028 32.0286M394.028 94.0857V125.114H347.485V47.5429H269.914V1H394.028V32.0286" stroke="white" stroke-width="2" stroke-linecap="round" stroke-linejoin="round"/>
<path d="M32.0286 269.911C49.1652 269.911 63.0571 283.803 63.0571 300.94C63.0571 318.077 49.1651 331.969 32.0286 331.969M32.0286 269.911C14.892 269.911 1 283.803 1 300.94C1 318.077 14.8919 331.969 32.0286 331.969M32.0286 269.911V238.883H78.5714V316.454H156.143V362.997H32.0286V331.969" stroke="white" stroke-width="2" stroke-linecap="round" stroke-linejoin="round"/>
<path d="M394.028 269.911C376.892 269.911 363 283.803 363 300.94C363 318.077 376.892 331.969 394.028 331.969M394.028 269.911C411.165 269.911 425.057 283.803 425.057 300.94C425.057 318.077 411.165 331.969 394.028 331.969M394.028 269.911V238.883H347.485V316.454H269.914V362.997H394.028V331.969" stroke="white" stroke-width="2" stroke-linecap="round" stroke-linejoin="round"/>
<path d="M213.027 42.3711V182M213.027 182V321.628M213.027 182H73.3984M213.027 182H352.656" stroke="#484848" stroke-width="2" stroke-linecap="round" stroke-linejoin="round" stroke-dasharray="5 7"/>
</svg>
