<svg width="232" height="310" viewBox="0 0 232 310" fill="none" xmlns="http://www.w3.org/2000/svg">
<path fill-rule="evenodd" clip-rule="evenodd" d="M104.057 269.62C112.665 276.749 120.412 289.657 125.987 309.002L136.192 279.572C137.746 274.875 137.881 268.36 136.749 261.164C130.997 264.254 123.233 265.783 115.242 267.579C111.06 268.527 107.36 269.185 104.049 269.62H104.057Z" fill="#ED1B24"/>
<path fill-rule="evenodd" clip-rule="evenodd" d="M115.368 218.011C110.663 213.605 105.307 210.347 99.3941 208.93C55.7876 198.443 62.3514 212.801 62.3514 212.801C64.5816 219.328 86.9423 223.656 115.368 218.011Z" fill="#ED1B24"/>
<path fill-rule="evenodd" clip-rule="evenodd" d="M144.47 253.654C140.095 262.557 127.955 264.71 115.25 267.577C97.5865 271.56 88.4293 270.612 81.3249 268.391C75.2595 255.328 62.3516 212.8 62.3516 212.8C64.5987 219.382 87.2804 223.733 116.027 217.887C144.775 212.042 164.973 193.935 167.001 188C167.001 188 148.846 244.751 144.47 253.654Z" fill="#ED1B24"/>
<path fill-rule="evenodd" clip-rule="evenodd" d="M140.236 210.001C155.543 202.414 165.436 192.698 166.819 188.66C166.819 188.66 166.684 189.082 166.439 189.847L167.164 188.194C169.281 181.151 169.821 174.607 169.053 168.551C159.001 175.971 140.515 182.593 118.748 186.42C127.907 192.775 135.505 200.972 140.245 210.001H140.236Z" fill="#FCBB1B"/>
<path fill-rule="evenodd" clip-rule="evenodd" d="M117.204 135.562C124.98 134.264 132.384 132.512 139.334 130.449C125.469 122.518 108.172 117.138 90.4618 114.277C79.7092 112.535 70.3396 111.493 62.2435 111.371C26.9496 110.827 32.288 125.08 32.288 125.08C35.5517 134.608 71.5371 143.16 117.196 135.573L117.204 135.562Z" fill="#FCBB1B"/>
<path fill-rule="evenodd" clip-rule="evenodd" d="M199.001 95C199.001 95 181.231 150.026 176.214 160.697C171.187 171.367 146.739 181.827 116.412 186.829C81.8096 192.53 59.1996 186.729 51.8119 182.104C45.3097 168.228 32.2969 125.07 32.2969 125.07C35.5606 134.598 71.5461 143.149 117.205 135.563C162.863 127.976 195.754 104.472 199.001 95Z" fill="#FCBB1B"/>
<path fill-rule="evenodd" clip-rule="evenodd" d="M118.156 52.7019C135.23 50.1362 151.037 46.1094 165.104 41.3351L165.132 41.3259C142.4 29.8154 111.526 22.3409 80.7826 19.4282C66.8591 18.1128 54.1951 17.5079 42.9075 17.9792C-4.90544 19.984 1.25906 36.6835 1.25906 36.6835C5.55696 49.2773 55.4603 62.1166 118.156 52.6907V52.7019Z" fill="#16A458"/>
<path fill-rule="evenodd" clip-rule="evenodd" d="M167.375 119.989C185.403 110.965 196.912 100.948 198.77 95.5153C198.77 95.5153 198.753 95.5822 198.71 95.6938L199.251 94.3998C201.092 88.1977 201.227 82.3303 199.918 76.8086C188.789 85.3755 168.355 94.7456 142.871 101.115C152.877 106.67 161.346 113.095 167.375 120V119.989Z" fill="#16A458"/>
<path fill-rule="evenodd" clip-rule="evenodd" d="M231 1C231 1 214.086 54.9338 208.395 67.4941C202.713 80.0545 165.391 99.174 117.328 106.135C65.719 113.898 29.5708 102.911 21.8784 95.8163C14.9206 80.9692 1.25 36.6956 1.25 36.6956C5.5479 49.2894 55.4513 62.1286 118.147 52.7028C180.843 43.2769 226.524 14.1293 230.991 1.0111L231 1Z" fill="#16A458"/>
<path fill-rule="evenodd" clip-rule="evenodd" d="M104.057 269.62C112.665 276.749 120.412 289.657 125.987 309.002L136.192 279.572C137.746 274.875 137.881 268.36 136.749 261.164C130.997 264.254 123.233 265.783 115.242 267.579C111.06 268.527 107.36 269.185 104.049 269.62H104.057Z" stroke="white" stroke-width="2" stroke-linecap="round" stroke-linejoin="round"/>
<path fill-rule="evenodd" clip-rule="evenodd" d="M115.368 218.011C110.663 213.605 105.307 210.347 99.3941 208.93C55.7877 198.443 62.3514 212.801 62.3514 212.801C64.5816 219.328 86.9423 223.656 115.368 218.011Z" stroke="white" stroke-width="2" stroke-linecap="round" stroke-linejoin="round"/>
<path fill-rule="evenodd" clip-rule="evenodd" d="M144.47 253.654C140.095 262.557 127.955 264.71 115.25 267.577C97.5865 271.56 88.4293 270.612 81.3249 268.391C75.2595 255.328 62.3516 212.8 62.3516 212.8C64.5987 219.382 87.2804 223.733 116.027 217.887C144.775 212.042 164.973 193.935 167 188C167 188 148.846 244.751 144.47 253.654Z" stroke="white" stroke-width="2" stroke-linecap="round" stroke-linejoin="round"/>
<path fill-rule="evenodd" clip-rule="evenodd" d="M140.236 210.001C155.543 202.414 165.436 192.698 166.819 188.66C166.819 188.66 166.684 189.082 166.439 189.847L167.164 188.194C169.281 181.151 169.821 174.607 169.053 168.551C159.001 175.971 140.515 182.593 118.748 186.42C127.907 192.775 135.505 200.972 140.245 210.001H140.236Z" stroke="white" stroke-width="2" stroke-linecap="round" stroke-linejoin="round"/>
<path fill-rule="evenodd" clip-rule="evenodd" d="M117.204 135.562C124.98 134.264 132.384 132.512 139.333 130.449C125.469 122.518 108.172 117.138 90.4618 114.277C79.7092 112.535 70.3396 111.493 62.2435 111.371C26.9496 110.827 32.288 125.08 32.288 125.08C35.5517 134.608 71.5371 143.16 117.196 135.573L117.204 135.562Z" stroke="white" stroke-width="2" stroke-linecap="round" stroke-linejoin="round"/>
<path fill-rule="evenodd" clip-rule="evenodd" d="M199.001 95C199.001 95 181.231 150.026 176.213 160.697C171.187 171.367 146.739 181.827 116.412 186.829C81.8096 192.53 59.1996 186.729 51.8119 182.104C45.3097 168.228 32.2969 125.07 32.2969 125.07C35.5606 134.598 71.5461 143.149 117.205 135.563C162.863 127.976 195.754 104.472 199.001 95Z" stroke="white" stroke-width="2" stroke-linecap="round" stroke-linejoin="round"/>
<path fill-rule="evenodd" clip-rule="evenodd" d="M118.156 52.7019C135.23 50.1362 151.037 46.1094 165.104 41.3351L165.132 41.3259C142.4 29.8154 111.526 22.3409 80.7826 19.4282C66.8591 18.1128 54.1951 17.5079 42.9075 17.9792C-4.90544 19.984 1.25906 36.6835 1.25906 36.6835C5.55696 49.2773 55.4603 62.1166 118.156 52.6907V52.7019Z" stroke="white" stroke-width="2" stroke-linecap="round" stroke-linejoin="round"/>
<path fill-rule="evenodd" clip-rule="evenodd" d="M167.375 119.989C185.403 110.965 196.912 100.948 198.77 95.5153C198.77 95.5153 198.753 95.5822 198.71 95.6938L199.251 94.3998C201.092 88.1977 201.227 82.3303 199.918 76.8086C188.789 85.3755 168.355 94.7456 142.871 101.115C152.877 106.67 161.346 113.095 167.375 120V119.989Z" stroke="white" stroke-width="2" stroke-linecap="round" stroke-linejoin="round"/>
<path fill-rule="evenodd" clip-rule="evenodd" d="M230.999 1C230.999 1 214.086 54.9337 208.395 67.4941C202.713 80.0545 165.391 99.174 117.328 106.135C65.719 113.898 29.5708 102.911 21.8784 95.8163C14.9206 80.9692 1.25 36.6956 1.25 36.6956C5.5479 49.2894 55.4513 62.1286 118.147 52.7028C180.843 43.2769 226.524 14.1293 230.991 1.0111L230.999 1Z" stroke="white" stroke-width="2" stroke-linecap="round" stroke-linejoin="round"/>
</svg>
