<svg width="371" height="371" viewBox="0 0 371 371" fill="none" xmlns="http://www.w3.org/2000/svg">
<path fill-rule="evenodd" clip-rule="evenodd" d="M27.2949 75.6498C27.2949 106.57 52.3606 131.636 83.2807 131.636C114.201 131.636 139.266 106.57 139.266 75.6498C139.266 44.7298 114.201 19.6641 83.2807 19.6641C52.3606 19.6641 27.2949 44.7298 27.2949 75.6498Z" fill="#0072D3"/>
<path fill-rule="evenodd" clip-rule="evenodd" d="M212.219 35.783L174.895 1.00391V22.9785C157.023 24.1384 139.437 28.2249 122.847 35.097C122.621 35.1902 122.396 35.2839 122.172 35.3782C130.189 43.1208 135.899 53.2348 138.175 64.5903C149.955 60.0117 162.324 57.172 174.895 56.1483V70.562L212.219 35.783ZM67.8867 129.494C56.8245 126.337 47.1611 119.863 40.0411 111.216C37.9381 115.288 36.0035 119.452 34.2442 123.699C28.178 138.345 24.2824 158.007 22.6543 173.715L35.7785 159.63L55.2527 180.529C56.3118 166.82 59.5305 149.102 64.8085 136.36C65.7696 134.039 66.7962 131.75 67.8867 129.494Z" fill="#0072D3"/>
<path fill-rule="evenodd" clip-rule="evenodd" d="M27.2988 289.408C27.2988 320.328 52.3645 345.393 83.2846 345.393C114.205 345.393 139.27 320.328 139.27 289.408C139.27 258.488 114.205 233.422 83.2846 233.422C52.3645 233.422 27.2988 258.488 27.2988 289.408Z" fill="#DA4436"/>
<path fill-rule="evenodd" clip-rule="evenodd" d="M35.779 159.633L70.5581 196.957H55.2961C56.3974 210.479 59.6005 223.77 64.809 236.345C64.834 236.405 64.859 236.465 64.8841 236.525C53.8627 240.359 44.4083 247.54 37.7384 256.85C36.5068 254.269 35.3417 251.653 34.2447 249.005C27.3727 232.414 23.2862 214.829 22.1263 196.957H1L35.779 159.633ZM116.225 334.691C118.408 335.711 120.616 336.683 122.847 337.607C138.102 343.926 158.44 347.89 174.827 349.389L159.626 335.225L179.62 316.594C166.222 315.553 148.982 312.449 136.325 307.377C132.582 318.437 125.477 327.947 116.225 334.691Z" fill="#DA4436"/>
<path fill-rule="evenodd" clip-rule="evenodd" d="M241.061 289.408C241.061 320.328 266.126 345.393 297.046 345.393C327.966 345.393 353.032 320.328 353.032 289.408C353.032 258.488 327.966 233.422 297.046 233.422C266.126 233.422 241.061 258.488 241.061 289.408Z" fill="#FCBB1B"/>
<path fill-rule="evenodd" clip-rule="evenodd" d="M335.223 212.227L348.443 198.04C346.875 214.077 342.945 234.066 336.757 249.006C336.665 249.229 336.572 249.451 336.479 249.673C328.595 241.852 318.396 236.36 307.002 234.316C311.897 221.531 314.862 204.655 315.807 191.391L335.223 212.227ZM242.903 303.702C240.472 304.892 238.001 306.006 235.494 307.045C223.183 312.144 210.185 315.321 196.955 316.486V300.448L159.631 335.227L196.955 370.006V349.67C214.535 348.438 231.826 344.372 248.155 337.609C252.368 335.864 256.499 333.947 260.539 331.863C252.083 324.583 245.827 314.818 242.903 303.702Z" fill="#FCBB1B"/>
<path fill-rule="evenodd" clip-rule="evenodd" d="M241.061 75.642C241.061 106.562 266.126 131.628 297.046 131.628C327.966 131.628 353.032 106.562 353.032 75.642C353.032 44.7219 327.966 19.6562 297.046 19.6562C266.126 19.6562 241.061 44.7219 241.061 75.642Z" fill="#16A458"/>
<path fill-rule="evenodd" clip-rule="evenodd" d="M334.095 117.628C325.843 124.917 315.424 129.81 303.93 131.219C304.719 132.914 305.473 134.629 306.19 136.36C311.29 148.672 314.467 161.67 315.631 174.899H300.441L335.22 212.223L369.999 174.899H348.816C347.583 157.32 343.517 140.028 336.754 123.699C335.908 121.657 335.021 119.632 334.095 117.628ZM255.355 38.2861C252.983 37.1668 250.581 36.1034 248.152 35.0972C233.826 29.1634 214.518 25.3065 199.165 23.6172L212.221 35.7832L190.479 56.0433C204.478 57.0337 222.489 60.2753 235.492 65.6615C237.531 66.5059 239.545 67.401 241.535 68.3456C243.03 56.8704 248.001 46.4871 255.355 38.2861Z" fill="#16A458"/>
<path fill-rule="evenodd" clip-rule="evenodd" d="M89.0336 51.2196C89.2683 50.6035 89.8587 50.1961 90.518 50.1953H100.591C101.47 50.1953 102.182 50.9074 102.182 51.7858V60.7881C102.181 61.4144 101.813 61.982 101.241 62.2379C100.669 62.4938 100.001 62.3903 99.533 61.9735L96.1505 58.9516L86.9171 67.7524C86.1132 68.517 84.8558 68.5327 84.033 67.7884L79.0706 63.2968L64.8027 76.8967C63.9547 77.7046 62.6124 77.6722 61.8044 76.8244C60.9963 75.9765 61.0285 74.6342 61.8762 73.826L77.5692 58.8667C78.3734 58.1008 79.6323 58.0851 80.4554 58.8307L85.4178 63.3223L92.978 56.1162L89.4577 52.9713C88.9672 52.5316 88.7985 51.835 89.0336 51.2196ZM76.6615 76.8713C75.3689 79.618 75.9068 82.8777 78.0133 85.0635C80.1198 87.2494 83.3574 87.9074 86.15 86.7171C88.9427 85.5269 90.7102 82.7358 90.5922 79.7024C89.1197 80.1706 87.5843 80.4109 86.0392 80.4149C82.4001 80.4149 79.2318 79.011 76.6615 76.8713ZM83.2823 69.4934C78.2118 69.4913 73.8646 73.1137 72.9519 78.1013C72.0393 83.0889 74.8221 88.016 79.5647 89.8095C74.3975 90.9061 69.9341 94.1349 67.2754 98.6994C66.9883 99.1914 66.9863 99.7993 67.27 100.293C67.5538 100.787 68.08 101.092 68.6496 101.091H97.9149C98.4846 101.092 99.0108 100.787 99.2945 100.293C99.5783 99.7993 99.5762 99.1914 99.2891 98.6994C96.6305 94.1349 92.1671 90.9061 86.9998 89.8095C91.7323 88.008 94.5052 83.0858 93.5937 78.1048C92.6823 73.1237 88.3461 69.5024 83.2823 69.4934ZM84.8728 90.3694C83.8185 90.5294 82.7461 90.5294 81.6918 90.3694L81.6918 96.9159C81.6918 97.7943 82.4039 98.5064 83.2823 98.5064C84.1607 98.5064 84.8728 97.7943 84.8728 96.9159V90.3694Z" fill="white"/>
<path fill-rule="evenodd" clip-rule="evenodd" d="M291.195 82.0196H291.619C292.758 81.9879 293.794 81.3488 294.333 80.3442L296.92 75.6576C297.01 75.4836 297.191 75.3765 297.387 75.3819L299.508 75.3819C300.679 75.3819 301.628 74.4324 301.628 73.2612C301.628 72.09 300.679 71.1405 299.508 71.1405H296.348C295.2 71.1628 294.157 71.8147 293.633 72.8371L292.425 74.9577C292.319 75.1341 292.12 75.2333 291.916 75.2122C291.711 75.2041 291.533 75.0684 291.47 74.8729L288.841 67.3657C288.458 66.0589 287.295 65.1336 285.935 65.0542C284.577 65.0463 283.362 65.8963 282.903 67.1749L280.782 72.3917C280.69 72.5632 280.51 72.6701 280.316 72.6701C280.121 72.6701 279.942 72.5632 279.849 72.3917C279.344 71.5159 278.4 70.9869 277.389 71.0133L273.72 71.0133C272.549 71.0133 271.6 71.9627 271.6 73.134C271.6 74.3052 272.549 75.2546 273.72 75.2546H276.286C276.514 75.2581 276.716 75.4013 276.795 75.6151L277.431 77.4813C277.796 78.8088 278.945 79.7716 280.316 79.8989C281.655 79.8621 282.841 79.0265 283.327 77.7782L285.214 72.8583C285.3 72.6528 285.501 72.519 285.723 72.519C285.948 72.5186 286.146 72.665 286.211 72.8795L288.565 79.7292C288.935 80.9302 289.954 81.8176 291.195 82.0196ZM306.76 50.2095C299.882 49.5954 293.297 53.1296 290.007 59.2011C289.422 60.2318 289.782 61.5419 290.813 62.1275C291.844 62.7131 293.154 62.3523 293.739 61.3218C296.221 56.695 301.238 54.0109 306.463 54.5144C312.231 55.203 316.912 59.5009 318.09 65.1884C319.268 70.8758 316.679 76.6796 311.659 79.602C308.196 81.582 305.994 85.2021 305.827 89.1875C305.738 91.6571 304.518 93.9486 302.519 95.401C300.597 96.8117 298.126 97.2431 295.839 96.5674C292.763 95.616 290.551 92.9205 290.219 89.7176C290.108 88.5462 289.068 87.6867 287.897 87.7979C286.726 87.9092 285.866 88.9492 285.978 90.1206C286.434 95.0939 289.867 99.2907 294.651 100.724C295.71 100.998 296.802 101.127 297.896 101.106C300.411 101.112 302.862 100.317 304.894 98.8365C307.95 96.6322 309.819 93.1432 309.963 89.3783C310.041 86.832 311.45 84.5135 313.674 83.2708C320.358 79.4522 323.819 71.7604 322.243 64.2254C320.668 56.6903 314.415 51.0298 306.76 50.2095ZM310.493 72.0948H310.768C311.833 72.1053 312.74 71.3251 312.889 70.271C313.593 66.3081 311.835 62.3121 308.436 60.1551C305.038 57.998 300.673 58.1071 297.387 60.4311C296.738 60.8606 296.376 61.6112 296.445 62.3866C296.513 63.1619 297.001 63.8373 297.716 64.1462C298.43 64.4551 299.256 64.3478 299.868 63.8666C301.162 62.9962 302.744 62.6617 304.279 62.9335C307.262 63.7137 309.163 66.6338 308.669 69.6773C308.584 70.2406 308.73 70.8142 309.073 71.269C309.416 71.7238 309.928 72.0214 310.493 72.0948Z" fill="white"/>
<path fill-rule="evenodd" clip-rule="evenodd" d="M90.662 296.06C89.5324 297.478 87.8513 298.347 86.0411 298.448C84.2308 298.55 82.4633 297.874 81.1826 296.59L73.4846 288.892C70.9957 286.409 70.991 282.379 73.474 279.89C75.9569 277.401 79.9874 277.396 82.4762 279.879L85.1483 282.573L92.7191 273.072C91.4444 272.216 90.0511 271.552 88.5838 271.1V267.134C88.5838 265.377 87.1596 263.953 85.4027 263.953H81.1614C79.4046 263.953 77.9804 265.377 77.9804 267.134V271.079C76.6217 271.472 75.3125 272.02 74.0783 272.712L71.2791 269.912C70.6854 269.311 69.8759 268.973 69.0311 268.973C68.1864 268.973 67.3769 269.311 66.7832 269.912L63.7931 272.902C63.1903 273.494 62.8536 274.305 62.86 275.15C62.8511 275.996 63.1882 276.808 63.7931 277.398L66.5712 280.197C65.8989 281.438 65.3587 282.746 64.9594 284.1H61.015C59.2582 284.1 57.834 285.524 57.834 287.281V291.522C57.834 293.279 59.2582 294.703 61.015 294.703H64.9594C65.3549 296.058 65.8953 297.366 66.5712 298.605L63.7931 301.404C62.5527 302.646 62.5527 304.658 63.7931 305.9L66.7832 308.89C68.039 310.097 70.0233 310.097 71.2791 308.89L74.0783 306.112C75.3173 306.788 76.6256 307.328 77.9804 307.724V311.668C77.9804 313.425 79.4046 314.849 81.1614 314.849H85.4027C87.1596 314.849 88.5838 313.425 88.5838 311.668V307.724C89.9318 307.328 91.233 306.788 92.4646 306.112L95.2639 308.89C95.8575 309.491 96.6671 309.829 97.5118 309.829C98.3565 309.829 99.1661 309.491 99.7597 308.89L102.771 305.9C104.011 304.658 104.011 302.646 102.771 301.404L99.9718 298.605C100.657 297.37 101.197 296.061 101.583 294.703H105.528C106.375 294.709 107.19 294.376 107.791 293.779C108.392 293.182 108.73 292.369 108.73 291.522V287.281C108.73 285.524 107.306 284.1 105.549 284.1H101.583C101.456 283.697 101.308 283.294 101.159 282.891L90.662 296.06ZM107.521 264.653C106.864 264.127 106.025 263.886 105.189 263.981C104.353 264.077 103.589 264.502 103.068 265.162L85.4027 287.281L80.2283 282.127C78.9809 280.886 76.9635 280.891 75.7222 282.138C74.4808 283.385 74.4854 285.403 75.7325 286.644L83.4305 294.342C84.0783 294.963 84.9542 295.288 85.8502 295.24C86.7462 295.192 87.5823 294.775 88.1596 294.088L108.03 269.128C108.557 268.467 108.799 267.624 108.704 266.785C108.609 265.945 108.183 265.178 107.521 264.653Z" fill="white"/>
<path fill-rule="evenodd" clip-rule="evenodd" d="M321.881 311.223L316.6 305.964C316.455 305.768 316.455 305.501 316.6 305.306C319.825 300.252 318.728 293.581 314.054 289.827C309.379 286.072 302.628 286.44 298.389 290.679C294.15 294.918 293.782 301.669 297.537 306.343C301.291 311.018 307.962 312.115 313.016 308.89C313.212 308.745 313.479 308.745 313.674 308.89L318.933 314.171C319.765 315.002 321.113 315.002 321.944 314.171C322.776 313.339 322.776 311.991 321.944 311.159L321.881 311.223ZM306.654 306.494C302.52 306.494 299.168 303.142 299.168 299.008C299.168 294.873 302.52 291.522 306.654 291.522C310.789 291.522 314.14 294.873 314.14 299.008C314.14 303.142 310.789 306.494 306.654 306.494ZM291.746 299.008C291.747 298.011 291.847 297.016 292.043 296.039H289.922V290.589H294.418C295.242 289.391 296.234 288.32 297.366 287.408L289.859 287.408V281.979H298.447V286.56C299.445 285.912 300.512 285.379 301.628 284.969V281.979H309.051V284.29C310.139 284.474 311.206 284.773 312.232 285.181V269.022C312.232 266.231 309.975 263.965 307.185 263.953H276.668C273.869 263.953 271.6 266.222 271.6 269.022V294.173C271.611 296.964 273.877 299.22 276.668 299.22L291.746 299.22V299.008ZM301.628 273.348H309.051V278.798H301.628V273.348ZM289.859 273.348H298.447V278.798H289.859V273.348ZM286.678 296.039H276.668C275.634 296.039 274.792 295.207 274.781 294.173V290.589H286.678V296.039ZM286.678 287.408H274.781V281.979H286.678V287.408ZM286.678 278.798H274.781V273.348H286.678V278.798Z" fill="white"/>
<path fill-rule="evenodd" clip-rule="evenodd" d="M27.2949 75.6498C27.2949 106.57 52.3606 131.636 83.2807 131.636C114.201 131.636 139.266 106.57 139.266 75.6498C139.266 44.7298 114.201 19.6641 83.2807 19.6641C52.3606 19.6641 27.2949 44.7298 27.2949 75.6498Z" stroke="white" stroke-width="2" stroke-linecap="round" stroke-linejoin="round"/>
<path fill-rule="evenodd" clip-rule="evenodd" d="M212.218 35.783L174.895 1.00391V22.9785C157.023 24.1384 139.437 28.2249 122.847 35.097C122.622 35.1902 122.397 35.2839 122.172 35.3782C130.188 43.1208 135.899 53.2348 138.175 64.5903C149.955 60.0117 162.325 57.172 174.895 56.1483V70.562L212.218 35.783ZM67.8867 129.494C56.8245 126.337 47.1611 119.863 40.0411 111.216C37.9381 115.288 36.0035 119.452 34.2442 123.699C28.178 138.345 24.2824 158.006 22.6543 173.715L35.7785 159.63L55.2527 180.529C56.3118 166.82 59.5305 149.102 64.8085 136.36C65.7696 134.039 66.7962 131.75 67.8867 129.494Z" stroke="white" stroke-width="2" stroke-linecap="round" stroke-linejoin="round"/>
<path fill-rule="evenodd" clip-rule="evenodd" d="M27.2988 289.408C27.2988 320.328 52.3645 345.393 83.2846 345.393C114.205 345.393 139.27 320.328 139.27 289.408C139.27 258.488 114.205 233.422 83.2846 233.422C52.3645 233.422 27.2988 258.488 27.2988 289.408Z" stroke="white" stroke-width="2" stroke-linecap="round" stroke-linejoin="round"/>
<path fill-rule="evenodd" clip-rule="evenodd" d="M35.7791 159.633L70.5581 196.957H55.2961C56.3974 210.479 59.6005 223.77 64.809 236.345C64.834 236.405 64.859 236.465 64.8841 236.525C53.8627 240.359 44.4083 247.539 37.7384 256.85C36.5068 254.269 35.3417 251.653 34.2447 249.005C27.3727 232.414 23.2862 214.829 22.1263 196.957H1L35.7791 159.633ZM116.225 334.691C118.408 335.711 120.616 336.683 122.847 337.607C138.102 343.926 158.44 347.89 174.827 349.389L159.626 335.225L179.62 316.594C166.222 315.553 148.982 312.449 136.326 307.376C132.582 318.437 125.476 327.947 116.225 334.691Z" stroke="white" stroke-width="2" stroke-linecap="round" stroke-linejoin="round"/>
<path fill-rule="evenodd" clip-rule="evenodd" d="M241.061 289.408C241.061 320.328 266.126 345.393 297.046 345.393C327.966 345.393 353.032 320.328 353.032 289.408C353.032 258.488 327.966 233.422 297.046 233.422C266.126 233.422 241.061 258.488 241.061 289.408Z" stroke="white" stroke-width="2" stroke-linecap="round" stroke-linejoin="round"/>
<path fill-rule="evenodd" clip-rule="evenodd" d="M335.223 212.227L348.443 198.04C346.875 214.077 342.946 234.066 336.757 249.006C336.665 249.229 336.572 249.451 336.479 249.673C328.595 241.852 318.396 236.36 307.001 234.316C311.897 221.531 314.862 204.655 315.807 191.391L335.223 212.227ZM242.903 303.702C240.472 304.891 238.001 306.006 235.494 307.045C223.183 312.144 210.185 315.321 196.955 316.486V300.447L159.631 335.226L196.955 370.005V349.67C214.535 348.437 231.826 344.372 248.154 337.609C252.368 335.864 256.499 333.946 260.539 331.863C252.083 324.582 245.827 314.818 242.903 303.702Z" stroke="white" stroke-width="2" stroke-linecap="round" stroke-linejoin="round"/>
<path fill-rule="evenodd" clip-rule="evenodd" d="M241.061 75.642C241.061 106.562 266.126 131.628 297.046 131.628C327.966 131.628 353.032 106.562 353.032 75.642C353.032 44.7219 327.966 19.6562 297.046 19.6562C266.126 19.6562 241.061 44.7219 241.061 75.642Z" stroke="white" stroke-width="2" stroke-linecap="round" stroke-linejoin="round"/>
<path fill-rule="evenodd" clip-rule="evenodd" d="M334.094 117.629C325.842 124.917 315.425 129.81 303.93 131.219C304.719 132.915 305.473 134.629 306.19 136.36C311.29 148.671 314.467 161.669 315.631 174.9H300.441L335.22 212.223L369.999 174.9H348.816C347.583 157.319 343.518 140.028 336.754 123.7C335.908 121.656 335.021 119.632 334.094 117.629ZM255.355 38.2861C252.983 37.1668 250.581 36.1034 248.152 35.0972C233.826 29.1634 214.518 25.3065 199.165 23.6172L212.221 35.7832L190.479 56.0433C204.478 57.0337 222.489 60.2753 235.492 65.6615C237.531 66.5059 239.545 67.401 241.535 68.3456C243.03 56.8704 248.001 46.4871 255.355 38.2861Z" stroke="white" stroke-width="2" stroke-linecap="round" stroke-linejoin="round"/>
</svg>
