<svg width="23" height="23" viewBox="0 0 23 23" fill="none" xmlns="http://www.w3.org/2000/svg">
<g clip-path="url(#clip0_5591_28768)">
<path d="M11.7359 2.64225C13.1687 2.64225 14.1043 2.64573 14.5424 2.65268C14.9806 2.65964 15.4849 2.67703 16.0553 2.70485C16.57 2.73267 16.9804 2.78484 17.2864 2.86135C17.5924 2.93786 17.8428 3.01089 18.0376 3.08045C18.288 3.17782 18.5071 3.28911 18.6949 3.41431C18.8827 3.53951 19.074 3.69253 19.2687 3.87337C19.4496 4.05422 19.6026 4.24202 19.7278 4.43677C19.853 4.63153 19.9643 4.8541 20.0616 5.1045C20.1312 5.28534 20.2042 5.52879 20.2807 5.83483C20.3573 6.14087 20.4094 6.5582 20.4372 7.08682C20.4512 7.64326 20.4651 8.14406 20.479 8.58921C20.4929 9.03436 20.4998 9.97335 20.4998 11.4062C20.4998 12.8251 20.4929 13.7571 20.479 14.2023C20.4651 14.6475 20.4512 15.1482 20.4372 15.7047C20.4094 16.2333 20.3573 16.6506 20.2807 16.9567C20.2042 17.2627 20.1312 17.5062 20.0616 17.687C19.9643 17.9374 19.853 18.16 19.7278 18.3547C19.6026 18.5495 19.4496 18.7373 19.2687 18.9181C19.074 19.1129 18.8827 19.2729 18.6949 19.3981C18.5071 19.5233 18.288 19.6346 18.0376 19.7319C17.8428 19.8015 17.5924 19.8745 17.2864 19.951C16.9804 20.0275 16.57 20.0727 16.0553 20.0867C15.4849 20.1145 14.9806 20.1319 14.5424 20.1388C14.1043 20.1458 13.1687 20.1493 11.7359 20.1493C10.317 20.1493 9.38494 20.1458 8.93979 20.1388C8.49464 20.1319 7.98689 20.1145 7.41653 20.0867C6.90183 20.0727 6.49145 20.0275 6.18541 19.951C5.87937 19.8745 5.62897 19.8015 5.43421 19.7319C5.19773 19.6346 4.98211 19.5233 4.78735 19.3981C4.5926 19.2729 4.4048 19.1129 4.22396 18.9181C4.0292 18.7373 3.86923 18.5495 3.74403 18.3547C3.61883 18.16 3.50754 17.9444 3.41016 17.7079C3.34061 17.5131 3.26757 17.2627 3.19106 16.9567C3.11455 16.6506 3.06934 16.2403 3.05543 15.7256C3.02761 15.1552 3.01022 14.6475 3.00327 14.2023C2.99631 13.7571 2.99283 12.8251 2.99283 11.4062C2.99283 9.97335 2.99631 9.03436 3.00327 8.58921C3.01022 8.14406 3.02761 7.64326 3.05543 7.08682C3.06934 6.57211 3.11455 6.16174 3.19106 5.85569C3.26757 5.54965 3.34061 5.29925 3.41016 5.1045C3.50754 4.8541 3.61883 4.635 3.74403 4.4472C3.86923 4.25941 4.02225 4.06813 4.20309 3.87337C4.39784 3.69253 4.58912 3.53951 4.77692 3.41431C4.96472 3.28911 5.18382 3.17782 5.43421 3.08045C5.62897 3.01089 5.87937 2.93786 6.18541 2.86135C6.49145 2.78484 6.90183 2.73267 7.41653 2.70485C7.98689 2.67703 8.49116 2.65964 8.92936 2.65268C9.36755 2.64573 10.3031 2.64225 11.7359 2.64225ZM11.7359 0.72253C10.2892 0.72253 9.33625 0.726007 8.87719 0.732964C8.41813 0.73992 7.90342 0.757307 7.33307 0.78513C6.76272 0.812952 6.27235 0.868595 5.86198 0.952063C5.4516 1.03553 5.07948 1.14682 4.74562 1.28593C4.38393 1.42504 4.05007 1.59197 3.74403 1.78672C3.43798 1.98148 3.1389 2.22492 2.84677 2.51705C2.55464 2.80918 2.31119 3.10827 2.11644 3.41431C1.92168 3.72035 1.75475 4.05422 1.61564 4.4159C1.47653 4.74977 1.36524 5.12189 1.28178 5.53226C1.19831 5.94264 1.14267 6.433 1.11485 7.00335C1.08702 7.5737 1.06963 8.08841 1.06268 8.54747C1.05572 9.00654 1.05225 9.95944 1.05225 11.4062C1.05225 12.8529 1.05572 13.8058 1.06268 14.2649C1.06963 14.724 1.08702 15.2387 1.11485 15.809C1.14267 16.3794 1.19831 16.8697 1.28178 17.2801C1.36524 17.6905 1.47653 18.0626 1.61564 18.3965C1.75475 18.7582 1.92168 19.092 2.11644 19.3981C2.31119 19.7041 2.55464 20.0032 2.84677 20.2953C3.1389 20.5875 3.43798 20.8309 3.74403 21.0257C4.05007 21.2204 4.38393 21.3873 4.74562 21.5264C5.07948 21.6516 5.4516 21.7595 5.86198 21.8499C6.27235 21.9403 6.76272 21.9994 7.33307 22.0272C7.90342 22.0551 8.41813 22.0725 8.87719 22.0794C9.33625 22.0864 10.2892 22.0898 11.7359 22.0898C13.1826 22.0898 14.1356 22.0864 14.5946 22.0794C15.0537 22.0725 15.5684 22.0551 16.1387 22.0272C16.7091 21.9994 17.1995 21.9403 17.6098 21.8499C18.0202 21.7595 18.3923 21.6516 18.7262 21.5264C19.074 21.3873 19.4009 21.2204 19.7069 21.0257C20.013 20.8309 20.319 20.5875 20.625 20.2953C20.9172 20.0032 21.1606 19.7041 21.3554 19.3981C21.5501 19.092 21.7171 18.7582 21.8562 18.3965C21.9814 18.0626 22.0892 17.6905 22.1796 17.2801C22.27 16.8697 22.3222 16.3794 22.3361 15.809C22.3639 15.2387 22.3813 14.724 22.3883 14.2649C22.3952 13.8058 22.3987 12.8529 22.3987 11.4062C22.3987 9.95944 22.3952 9.00654 22.3883 8.54747C22.3813 8.08841 22.3639 7.5737 22.3361 7.00335C22.3222 6.433 22.27 5.94264 22.1796 5.53226C22.0892 5.12189 21.9814 4.74977 21.8562 4.4159C21.7171 4.06813 21.5501 3.73774 21.3554 3.42474C21.1606 3.11175 20.9172 2.80918 20.625 2.51705C20.3329 2.22492 20.0338 1.98148 19.7278 1.78672C19.4217 1.59197 19.0879 1.42504 18.7262 1.28593C18.3923 1.16073 18.0202 1.05292 17.6098 0.962496C17.1995 0.872074 16.7091 0.812952 16.1387 0.78513C15.5684 0.757307 15.0537 0.73992 14.5946 0.732964C14.1356 0.726007 13.1826 0.72253 11.7359 0.72253ZM11.7359 5.91829C10.9847 5.91829 10.2752 6.06436 9.60752 6.35649C8.93979 6.63471 8.35553 7.02422 7.85473 7.52501C7.35393 8.02581 6.96443 8.61007 6.68621 9.2778C6.39407 9.94553 6.24801 10.655 6.24801 11.4062C6.24801 12.1574 6.39407 12.8668 6.68621 13.5346C6.96443 14.2023 7.35393 14.7866 7.85473 15.2874C8.35553 15.7882 8.93979 16.1777 9.60752 16.4559C10.2752 16.748 10.9847 16.8941 11.7359 16.8941C12.4871 16.8941 13.1966 16.748 13.8643 16.4559C14.532 16.1777 15.1163 15.7882 15.6171 15.2874C16.1179 14.7866 16.5074 14.2023 16.7856 13.5346C17.0777 12.8668 17.2238 12.1574 17.2238 11.4062C17.2238 10.655 17.0777 9.94553 16.7856 9.2778C16.5074 8.61007 16.1179 8.02581 15.6171 7.52501C15.1163 7.02422 14.532 6.63471 13.8643 6.35649C13.1966 6.06436 12.4871 5.91829 11.7359 5.91829ZM11.7359 14.9744C10.7482 14.9744 9.9066 14.6266 9.21105 13.931C8.5155 13.2355 8.16773 12.3939 8.16773 11.4062C8.16773 10.4185 8.5155 9.57689 9.21105 8.88134C9.9066 8.18579 10.7482 7.83801 11.7359 7.83801C12.7236 7.83801 13.5652 8.18579 14.2608 8.88134C14.9563 9.57689 15.3041 10.4185 15.3041 11.4062C15.3041 12.3939 14.9563 13.2355 14.2608 13.931C13.5652 14.6266 12.7236 14.9744 11.7359 14.9744ZM18.7262 5.70963C18.7262 6.0574 18.601 6.35649 18.3506 6.60689C18.1002 6.85729 17.7941 6.98249 17.4325 6.98249C17.0847 6.98249 16.7856 6.85729 16.5352 6.60689C16.2848 6.35649 16.1596 6.0574 16.1596 5.70963C16.1596 5.34794 16.2848 5.0419 16.5352 4.7915C16.7856 4.5411 17.0847 4.4159 17.4325 4.4159C17.7941 4.4159 18.1002 4.5411 18.3506 4.7915C18.601 5.0419 18.7262 5.34794 18.7262 5.70963Z" fill="white"/>
</g>
<defs>
<clipPath id="clip0_5591_28768">
<rect width="21.6745" height="21.3673" fill="white" transform="matrix(1 0 0 -1 0.897949 22.0898)"/>
</clipPath>
</defs>
</svg>
