<svg width="500" height="500" viewBox="0 0 500 500" fill="none" xmlns="http://www.w3.org/2000/svg">
<path d="M352.33 62.5703V120.07H360.4V134.01L374.35 120.07H450.89V62.5703H352.33Z" fill="#EBEBEB"/>
<path d="M420.24 91.3184C420.24 92.2421 420.514 93.145 421.027 93.9129C421.54 94.6809 422.269 95.2795 423.123 95.6329C423.976 95.9864 424.915 96.0789 425.821 95.8987C426.727 95.7185 427.559 95.2737 428.212 94.6206C428.865 93.9675 429.31 93.1354 429.49 92.2295C429.67 91.3236 429.578 90.3846 429.224 89.5313C428.871 88.678 428.272 87.9486 427.504 87.4355C426.736 86.9223 425.833 86.6484 424.91 86.6484C424.296 86.6484 423.689 86.7692 423.123 87.0039C422.556 87.2386 422.041 87.5826 421.608 88.0163C421.174 88.4499 420.83 88.9647 420.595 89.5313C420.361 90.0979 420.24 90.7052 420.24 91.3184Z" fill="white"/>
<path d="M396.94 91.3184C396.94 92.2421 397.214 93.145 397.727 93.9129C398.24 94.6809 398.969 95.2795 399.823 95.6329C400.676 95.9864 401.615 96.0789 402.521 95.8987C403.427 95.7185 404.259 95.2737 404.912 94.6206C405.565 93.9675 406.01 93.1354 406.19 92.2295C406.37 91.3236 406.278 90.3846 405.924 89.5313C405.571 88.678 404.972 87.9486 404.204 87.4355C403.436 86.9223 402.534 86.6484 401.61 86.6484C400.371 86.6484 399.184 87.1405 398.308 88.0163C397.432 88.892 396.94 90.0799 396.94 91.3184Z" fill="white"/>
<path d="M373.64 91.3184C373.64 92.2425 373.914 93.1458 374.428 93.914C374.941 94.6822 375.671 95.2807 376.525 95.6339C377.379 95.9871 378.318 96.079 379.225 95.898C380.131 95.717 380.963 95.2712 381.616 94.6171C382.268 93.963 382.712 93.1299 382.891 92.2234C383.07 91.3168 382.977 90.3775 382.622 89.5244C382.267 88.6712 381.666 87.9426 380.897 87.4306C380.128 86.9187 379.224 86.6465 378.3 86.6484C377.063 86.6511 375.878 87.1443 375.004 88.0198C374.131 88.8953 373.64 90.0816 373.64 91.3184Z" fill="white"/>
<path d="M186.99 244.727V325.167H175.7V344.677L156.19 325.167H49.1099V244.727H186.99Z" fill="white"/>
<path d="M187 244.734C187.07 267.604 187.58 302.574 187.6 325.174V325.764H187L175.71 325.814L176.36 325.164L176.45 344.674V346.464L175.18 345.204L155.59 325.764C132.03 326.554 74.2299 325.874 48.1299 326.144V325.144L48.2599 244.704V243.844H49.1099C83.4899 244.004 152.63 244.384 186.99 244.694L187 244.734ZM187 244.734C152.64 245.044 83.4699 245.424 49.1199 245.584L49.9699 244.734L50.0999 325.174L49.0999 324.174C75.9999 324.174 129.65 324.254 156.54 324.304L156.78 324.554L176.22 344.134L174.95 344.664L175.04 325.154V324.494H175.69L186.98 324.544L186.38 325.144C186.53 302.694 186.79 267.404 186.98 244.704L187 244.734Z" fill="#EBEBEB"/>
<path d="M91.9999 284.999C92.0019 286.293 91.62 287.558 90.9026 288.635C90.1852 289.712 89.1645 290.552 87.9696 291.048C86.7748 291.545 85.4595 291.676 84.1902 291.424C82.9209 291.173 81.7546 290.551 80.839 289.637C79.9233 288.723 79.2995 287.557 79.0463 286.288C78.7932 285.019 78.9221 283.704 79.4168 282.508C79.9115 281.313 80.7497 280.291 81.8255 279.572C82.9012 278.853 84.166 278.469 85.4599 278.469C86.3183 278.467 87.1685 278.635 87.9619 278.963C88.7553 279.291 89.4764 279.771 90.0838 280.378C90.6912 280.984 91.1731 281.705 91.5019 282.498C91.8307 283.29 91.9999 284.14 91.9999 284.999Z" fill="#EBEBEB"/>
<path d="M124.59 284.999C124.592 286.293 124.21 287.558 123.492 288.635C122.775 289.712 121.754 290.552 120.559 291.048C119.365 291.545 118.049 291.676 116.78 291.424C115.511 291.173 114.344 290.551 113.429 289.637C112.513 288.723 111.889 287.557 111.636 286.288C111.383 285.019 111.512 283.704 112.007 282.508C112.501 281.313 113.34 280.291 114.415 279.572C115.491 278.853 116.756 278.469 118.05 278.469C118.908 278.467 119.758 278.635 120.552 278.963C121.345 279.291 122.066 279.771 122.674 280.378C123.281 280.984 123.763 281.705 124.092 282.498C124.421 283.29 124.59 284.14 124.59 284.999Z" fill="#EBEBEB"/>
<path d="M157.19 284.999C157.192 286.293 156.81 287.558 156.093 288.635C155.375 289.712 154.354 290.552 153.16 291.048C151.965 291.545 150.649 291.676 149.38 291.424C148.111 291.173 146.945 290.551 146.029 289.637C145.113 288.723 144.489 287.557 144.236 286.288C143.983 285.019 144.112 283.704 144.607 282.508C145.101 281.313 145.94 280.291 147.015 279.572C148.091 278.853 149.356 278.469 150.65 278.469C151.508 278.467 152.358 278.635 153.152 278.963C153.945 279.291 154.666 279.771 155.274 280.378C155.881 280.984 156.363 281.705 156.692 282.498C157.021 283.29 157.19 284.14 157.19 284.999Z" fill="#EBEBEB"/>
<path d="M67.3499 92.5625L71.7299 99.0925L79.2999 101.243L74.4399 107.423L74.7299 115.283L67.3499 112.573L59.9699 115.283L60.2599 107.423L55.4099 101.243L62.9699 99.0925L67.3499 92.5625Z" fill="#EBEBEB"/>
<path d="M101.14 92.5625L105.52 99.0925L113.08 101.243L108.23 107.423L108.52 115.283L101.14 112.573L93.7499 115.283L94.0499 107.423L89.1899 101.243L96.7599 99.0925L101.14 92.5625Z" fill="#EBEBEB"/>
<path d="M134.92 92.5625L139.31 99.0925L146.87 101.243L142.01 107.423L142.31 115.283L134.92 112.573L127.54 115.283L127.83 107.423L122.98 101.243L130.54 99.0925L134.92 92.5625Z" fill="#EBEBEB"/>
<path d="M168.71 92.5625L173.09 99.0925L180.66 101.243L175.8 107.423L176.09 115.283L168.71 112.573L161.33 115.283L161.62 107.423L156.76 101.243L164.33 99.0925L168.71 92.5625Z" fill="#EBEBEB"/>
<path d="M210.41 116.003L202.5 113.103L194.59 116.003L194.9 107.583L189.7 101.003L197.8 98.7031L202.5 91.7031L207.19 98.7031L215.3 101.003L210.1 107.633L210.41 116.003ZM202.5 112.003L209.35 114.513L209.08 107.223L213.59 101.473L206.59 99.4731L202.52 93.4031L198.45 99.4731L191.45 101.473L195.96 107.223L195.69 114.513L202.5 112.003Z" fill="#EBEBEB"/>
<path d="M202.5 112.573V92.5625L198.12 99.0925L190.55 101.243L195.41 107.423L195.11 115.283L202.5 112.573Z" fill="#EBEBEB"/>
<path fill-rule="evenodd" clip-rule="evenodd" d="M379.37 245.182C377.37 243.952 375.7 242.182 373.08 242.432C372.08 242.542 372.29 241.702 372.28 241.162L372.16 211.602C372.16 210.892 372.16 210.302 372.98 209.902C380.49 206.082 383.73 198.602 388.32 192.212C390.673 189.036 392.362 185.418 393.287 181.575C394.211 177.731 394.351 173.741 393.7 169.842C393.38 167.622 394.41 166.632 396.41 166.172C398.81 165.612 401.21 166.272 402.04 167.922C404.215 171.938 405.683 176.299 406.38 180.812C406.82 184.552 405.5 188.192 405.04 191.892C404.71 194.592 404.04 197.272 403.58 200.012C404.24 200.492 405.01 200.242 405.72 200.242C414.04 200.242 422.373 200.219 430.72 200.172C434.22 200.172 435.95 201.172 436.44 203.492C436.714 204.924 436.51 206.406 435.86 207.711C435.209 209.015 434.148 210.07 432.84 210.712C432.22 211.032 431.09 210.712 431.02 211.712C430.95 212.712 432.11 212.602 432.68 213.002C435.68 215.062 435.16 219.322 431.68 221.802C430.84 222.392 429.22 222.122 429.18 223.352C429.18 224.352 430.69 224.352 431.38 225.002C433.82 227.402 432.62 231.892 428.99 233.722C428.491 233.876 428.003 234.063 427.53 234.282C427.12 234.562 426.72 234.882 427.53 235.442C431.14 238.002 431.08 241.592 427.46 244.222L426.38 245.002C425.068 245.804 423.53 246.155 422 246.002C408.953 246.076 395.9 246.122 382.84 246.142C382.227 246.221 381.604 246.177 381.008 246.013C380.412 245.848 379.855 245.565 379.37 245.182Z" fill="#EBEBEB"/>
<path fill-rule="evenodd" clip-rule="evenodd" d="M342.2 227.925C342.2 221.675 342.2 215.405 342.11 209.155C342.11 207.875 342.23 207.255 343.79 207.265C351.43 207.335 359.05 207.265 366.69 207.195C368.19 207.195 368.42 207.695 368.42 209.025C368.42 221.619 368.463 234.212 368.55 246.805C368.55 248.415 368.13 248.865 366.55 248.805C359.14 248.745 351.74 248.755 344.34 248.895C342.5 248.895 342.24 248.285 342.25 246.675C342.3 240.455 342.22 234.195 342.2 227.925Z" fill="#EBEBEB"/>
<path fill-rule="evenodd" clip-rule="evenodd" d="M234.81 328.844C236.29 329.784 237.58 331.134 239.57 330.944C240.34 330.874 240.17 331.504 240.17 331.944C240.17 339.431 240.17 346.911 240.17 354.384C240.17 354.924 240.17 355.384 239.54 355.674C233.83 358.554 231.35 364.214 227.86 369.064C226.059 371.472 224.762 374.22 224.049 377.141C223.336 380.062 223.221 383.097 223.71 386.064C223.95 387.754 223.17 388.504 221.65 388.844C219.82 389.264 218.01 388.764 217.38 387.504C215.735 384.451 214.632 381.135 214.12 377.704C213.79 374.874 214.81 372.104 215.12 369.304C215.38 367.244 215.86 365.224 216.25 363.144C215.75 362.774 215.17 362.964 214.63 362.954H195.74C193.07 362.954 191.74 362.184 191.4 360.424C191.197 359.336 191.356 358.211 191.853 357.222C192.349 356.232 193.156 355.432 194.15 354.944C194.62 354.704 195.48 354.944 195.54 354.184C195.6 353.424 194.71 353.504 194.28 353.184C191.99 351.624 192.42 348.384 195.06 346.514C195.7 346.064 196.93 346.274 196.96 345.344C196.96 344.594 195.82 344.604 195.3 344.084C193.45 342.254 194.37 338.854 197.13 337.474C197.51 337.358 197.881 337.214 198.24 337.044C198.55 336.834 198.86 336.604 198.24 336.164C195.51 334.164 195.57 331.494 198.32 329.504L199.14 328.914C200.142 328.318 201.311 328.065 202.47 328.194C212.376 328.194 222.283 328.194 232.19 328.194C233.115 328.058 234.056 328.291 234.81 328.844Z" fill="#EBEBEB"/>
<path fill-rule="evenodd" clip-rule="evenodd" d="M263 342.002C263 346.752 263 351.512 263 356.262C263 357.262 262.91 357.702 261.73 357.682C255.93 357.615 250.133 357.615 244.34 357.682C243.21 357.682 243.03 357.302 243.04 356.292C243.04 346.732 243.04 337.172 243.04 327.612C243.04 326.392 243.37 326.042 244.59 326.072C250.21 326.132 255.83 326.142 261.45 326.072C262.85 326.072 263.04 326.542 263.02 327.772C262.93 332.532 263 337.282 263 342.002Z" fill="#EBEBEB"/>
<path d="M43.6001 452.996C175.83 452.376 324.17 452.376 456.4 452.996C324.17 453.606 175.83 453.606 43.6001 452.996Z" fill="#263238"/>
<path d="M316.23 95.7266L321.31 103.047L329.85 105.617L324.44 112.707L324.64 121.617L316.23 118.667L307.82 121.617L308.02 112.707L302.62 105.617L311.16 103.047L316.23 95.7266Z" fill="#DA4436"/>
<path d="M141.15 220.477L146.22 227.807L154.76 230.367L149.36 237.457L149.56 246.367L141.15 243.427L132.73 246.367L132.94 237.457L127.53 230.367L136.07 227.807L141.15 220.477Z" fill="#FFC727"/>
<path d="M202.95 301.062L205.49 304.723L209.76 306.003L207.06 309.552L207.16 314.003L202.95 312.533L198.74 314.003L198.84 309.552L196.15 306.003L200.41 304.723L202.95 301.062Z" fill="#FFC727"/>
<path d="M365.66 210.227L368.2 213.897L372.46 215.177L369.76 218.717L369.87 223.177L365.66 221.707L361.45 223.177L361.55 218.717L358.85 215.177L363.12 213.897L365.66 210.227Z" fill="#FFC727"/>
<path d="M286.98 80.4531L289.52 84.1131L293.79 85.3931L291.09 88.9431L291.19 93.4031L286.98 91.9231L282.78 93.4031L282.88 88.9431L280.18 85.3931L284.45 84.1131L286.98 80.4531Z" fill="#DA4436"/>
<path d="M212.86 452.533C215.31 453.412 287.7 454.842 290.43 453.182C290.74 453.012 291.92 429.062 291.92 429.062C291.84 428.722 293.05 426.413 294.92 423.203C300.08 414.203 310.17 398.062 310.17 398.062L267.17 385.062L249.52 420.413L245.02 429.413C245.02 429.413 235.15 433.262 226.54 437.112C221.24 439.472 216.62 441.643 215.54 442.443C212.77 444.633 210.42 451.662 212.86 452.533Z" fill="#FFC4C0"/>
<path d="M212.86 452.532C215.31 453.412 287.7 454.842 290.43 453.182C290.74 453.012 291.92 429.062 291.92 429.062C291.84 428.722 293.05 426.412 294.92 423.202L249.56 420.422L245.06 429.422C245.06 429.422 235.19 433.272 226.58 437.122C221.28 439.482 216.66 441.652 215.58 442.452C212.77 444.632 210.42 451.662 212.86 452.532Z" fill="white"/>
<path d="M212.56 452.802C215.08 453.692 287.56 454.933 290.36 453.233C291.42 452.593 292.7 441.432 291.92 429.062L245.19 428.312C245.19 428.312 218.12 440.313 215.26 442.473C212.4 444.633 210 451.912 212.56 452.802Z" fill="#DA4436"/>
<path opacity="0.1" d="M290.36 453.228C289.36 453.848 279.04 454.078 266.24 454.078L290.78 429.078H291.91C292.7 441.428 291.42 452.588 290.36 453.228Z" fill="black"/>
<path d="M213.65 449.913C225.81 449.823 274.84 450.613 286.87 451.443C286.96 451.443 286.96 451.523 286.87 451.523C274.82 451.873 225.79 450.693 213.65 450.113C213.39 450.103 213.39 449.923 213.65 449.913Z" fill="#263238"/>
<path d="M220 439.946C221.352 439.933 222.692 440.201 223.934 440.733C225.177 441.264 226.296 442.049 227.22 443.036C228.897 444.8 229.832 447.142 229.83 449.576C229.83 449.646 229.69 449.646 229.68 449.576C229.306 447.163 228.161 444.937 226.416 443.23C224.671 441.523 222.42 440.427 220 440.106C219.979 440.106 219.958 440.097 219.943 440.082C219.928 440.067 219.92 440.047 219.92 440.026C219.92 440.005 219.928 439.984 219.943 439.969C219.958 439.954 219.979 439.946 220 439.946Z" fill="#263238"/>
<path d="M241.35 429.469C246.22 429.469 251.83 431.289 254.78 435.319C254.9 435.479 254.67 435.639 254.53 435.559C250.315 433.259 245.866 431.415 241.26 430.059C241.188 430.04 241.126 429.996 241.085 429.934C241.044 429.872 241.028 429.797 241.039 429.723C241.05 429.65 241.088 429.584 241.145 429.537C241.203 429.49 241.276 429.466 241.35 429.469Z" fill="#263238"/>
<path d="M237.57 430.859C242.44 430.859 248.05 432.689 251 436.719C251.12 436.879 250.89 437.039 250.75 436.959C246.535 434.659 242.086 432.816 237.48 431.459C237.413 431.435 237.357 431.388 237.321 431.326C237.285 431.265 237.271 431.193 237.282 431.123C237.292 431.053 237.326 430.988 237.379 430.94C237.432 430.892 237.499 430.864 237.57 430.859Z" fill="#263238"/>
<path d="M233.8 432.266C238.66 432.266 244.27 434.096 247.22 438.126C247.34 438.286 247.11 438.446 246.97 438.366C242.755 436.066 238.306 434.222 233.7 432.866C233.633 432.84 233.576 432.792 233.54 432.73C233.505 432.668 233.491 432.595 233.503 432.525C233.515 432.454 233.551 432.389 233.605 432.342C233.659 432.295 233.728 432.268 233.8 432.266Z" fill="#263238"/>
<path d="M230 433.664C234.86 433.664 240.47 435.494 243.42 439.524C243.54 439.684 243.31 439.844 243.17 439.764C238.955 437.464 234.506 435.62 229.9 434.264C229.833 434.239 229.776 434.191 229.741 434.129C229.705 434.067 229.692 433.994 229.703 433.923C229.715 433.852 229.751 433.788 229.805 433.74C229.859 433.693 229.928 433.666 230 433.664Z" fill="#263238"/>
<path d="M284 439.853C289.46 439.963 289.29 448.443 283.83 448.333C278.37 448.223 278.5 439.743 284 439.853Z" fill="#263238"/>
<path d="M236.59 423.531C239.15 426.961 243.12 429.161 246.54 431.621C246.621 431.667 246.711 431.693 246.804 431.698C246.897 431.704 246.989 431.687 247.075 431.65C247.16 431.613 247.236 431.557 247.295 431.486C247.355 431.415 247.398 431.331 247.42 431.241C247.44 431.246 247.461 431.247 247.481 431.242C247.501 431.237 247.519 431.227 247.534 431.213C247.549 431.199 247.561 431.181 247.567 431.162C247.573 431.142 247.574 431.121 247.57 431.101C247.29 426.635 245.842 422.321 243.37 418.591C241.89 416.451 238.82 414.401 236.32 416.401C233.82 418.401 235.09 421.531 236.59 423.531ZM236.43 419.531C237.01 414.251 241.71 418.391 242.74 420.021C243.388 421.084 243.963 422.19 244.46 423.331C245.53 425.681 246.25 428.141 247.08 430.581C245.47 429.271 243.76 428.111 242.08 426.871C240.14 425.351 236.11 422.411 236.43 419.501V419.531Z" fill="#263238"/>
<path d="M264.9 428.303C264.57 425.123 260.96 424.373 258.39 424.823C253.994 425.672 249.9 427.666 246.52 430.603C246.504 430.614 246.49 430.628 246.481 430.646C246.471 430.663 246.466 430.683 246.466 430.703C246.466 430.722 246.471 430.742 246.481 430.759C246.49 430.777 246.504 430.792 246.52 430.803C246.47 430.882 246.439 430.972 246.43 431.066C246.421 431.159 246.434 431.253 246.468 431.341C246.502 431.428 246.556 431.507 246.626 431.57C246.696 431.632 246.779 431.678 246.87 431.703C251.02 432.413 255.37 433.703 259.61 433.113C262.1 432.783 265.21 431.313 264.9 428.303ZM253.4 431.503C251.35 431.193 249.32 430.793 247.26 430.563C249.58 429.443 251.84 428.233 254.26 427.343C255.426 426.901 256.618 426.533 257.83 426.243C259.71 425.843 265.96 426.243 262.6 430.403C260.75 432.673 255.84 431.863 253.4 431.503Z" fill="#263238"/>
<path d="M298.18 423.004L250 415.734C250 415.734 273.18 369.534 287.52 344.464C295.52 330.524 317.33 329.844 327.94 346.544C342.12 368.854 353.13 389.764 359.43 401.354L370.37 402.294L368 420.164L331.65 428.304C317.72 429.964 307.95 405.174 307.72 405.594C305.93 408.854 298.18 423.004 298.18 423.004Z" fill="#37474F"/>
<path d="M307.44 405.702C308.81 402.892 309.88 399.912 311.1 397.042C312.32 394.172 313.46 391.472 314.63 388.682C317 383.052 319.45 377.442 321.74 371.782C323.03 368.602 324.21 365.382 325.42 362.172C325.42 362.102 325.56 362.172 325.54 362.172C324.61 365.172 323.64 368.232 322.62 371.242C322.89 370.722 323.16 370.242 323.44 369.692C324.22 368.312 325.02 366.942 325.82 365.572C325.82 365.522 325.93 365.572 325.9 365.622C325.16 367.002 324.42 368.372 323.65 369.732C323.27 370.402 322.85 371.072 322.45 371.732C319.64 380.171 316.3 388.424 312.45 396.442C310.91 399.592 309.12 402.602 307.58 405.742C307.53 405.892 307.39 405.802 307.44 405.702Z" fill="#263238"/>
<path d="M327 365.664C331.15 373.084 335.4 380.454 339.57 387.864C341.68 391.604 343.79 395.354 345.87 399.104C346.87 400.874 347.81 402.664 348.87 404.414C349.743 406.063 351.064 407.432 352.68 408.364C354.596 409.285 356.609 409.993 358.68 410.474C361.03 411.164 363.36 411.904 365.68 412.544C365.78 412.544 365.73 412.744 365.63 412.714C363.52 412.154 361.4 411.714 359.29 411.144C357.346 410.733 355.427 410.216 353.54 409.594C351.872 409.033 350.396 408.014 349.28 406.654C348.14 405.076 347.136 403.403 346.28 401.654C342.113 394.028 337.983 386.384 333.89 378.724C331.56 374.374 329.25 370.004 326.89 365.664C327 365.654 327 365.634 327 365.664Z" fill="#263238"/>
<path d="M299.27 416.271C296.38 415.751 293.42 415.491 290.51 415.121L281.75 414.001C275.92 413.231 256.09 410.081 254.59 409.581C254.49 409.581 254.53 409.391 254.59 409.391C256.01 409.391 269 411.081 271.91 411.501C277.74 412.361 283.53 413.401 289.33 414.371C290.99 414.651 292.64 414.971 294.33 415.261C296.02 415.551 297.64 415.911 299.33 416.131C299.4 416.131 299.37 416.291 299.27 416.271Z" fill="#263238"/>
<path d="M267.06 463.433C267.98 461.003 314.14 405.223 317.17 404.243C317.52 404.113 336.43 418.853 336.43 418.853C337.19 419.963 374.62 413.733 374.62 413.733L373 458.493L305.5 454.123C305.5 454.123 296.14 459.123 287.6 463.123C282.35 465.603 277.7 467.693 276.39 467.973C273 468.673 266.12 465.853 267.06 463.433Z" fill="#FFC4C0"/>
<path d="M276.4 467.999C277.71 467.719 282.4 465.639 287.61 463.149C296.14 459.149 305.5 454.149 305.5 454.149L320.5 455.149L345.69 418.149C340.49 418.839 336.61 419.219 336.36 418.859C336.36 418.859 317.46 404.129 317.11 404.259C314.11 405.259 267.92 461.019 267 463.449C266.08 465.879 273 468.669 276.4 467.999Z" fill="white"/>
<path d="M266.65 463.489C267.65 460.999 313.98 405.269 317.09 404.259C318.27 403.869 327.56 410.179 336.43 418.849L306.5 454.749C306.5 454.749 279.77 467.449 276.24 468.189C272.71 468.929 265.69 465.999 266.65 463.489Z" fill="#DA4436"/>
<path d="M269.55 464.55C277.55 455.4 308.95 417.72 316.17 408.07C316.22 407.99 316.17 407.95 316.11 408.02C307.98 416.92 276.88 454.84 269.4 464.42C269.24 464.62 269.38 464.74 269.55 464.55Z" fill="#263238"/>
<path d="M281.23 466.273C282.12 465.255 282.791 464.065 283.198 462.776C283.606 461.487 283.743 460.127 283.6 458.783C283.355 456.364 282.188 454.133 280.34 452.553C280.34 452.503 280.2 452.603 280.25 452.663C281.837 454.518 282.779 456.838 282.934 459.274C283.09 461.711 282.449 464.131 281.11 466.173C281.102 466.189 281.099 466.207 281.103 466.225C281.106 466.243 281.116 466.259 281.13 466.271C281.144 466.282 281.161 466.289 281.18 466.289C281.198 466.29 281.216 466.284 281.23 466.273Z" fill="#263238"/>
<path d="M303.12 456.899C306.29 453.199 308.57 447.769 307.45 442.899C307.4 442.709 307.13 442.779 307.1 442.899C306.097 447.597 304.592 452.173 302.61 456.549C302.564 456.617 302.546 456.7 302.561 456.781C302.576 456.861 302.622 456.933 302.69 456.979C302.758 457.025 302.841 457.043 302.922 457.028C303.002 457.013 303.074 456.967 303.12 456.899Z" fill="#263238"/>
<path d="M299.6 458.852C302.76 455.152 305.04 449.722 303.92 444.852C303.92 444.662 303.61 444.732 303.57 444.852C302.566 449.546 301.06 454.119 299.08 458.492C299.032 458.561 299.014 458.646 299.029 458.729C299.044 458.811 299.091 458.884 299.16 458.932C299.229 458.98 299.314 458.998 299.396 458.983C299.479 458.968 299.552 458.921 299.6 458.852Z" fill="#263238"/>
<path d="M296.07 460.805C299.23 457.105 301.52 451.675 300.39 446.805C300.39 446.615 300.08 446.685 300.05 446.805C299.041 451.498 297.536 456.071 295.56 460.445C295.536 460.479 295.52 460.517 295.511 460.557C295.502 460.596 295.501 460.638 295.507 460.678C295.514 460.719 295.529 460.757 295.551 460.792C295.573 460.827 295.602 460.857 295.635 460.88C295.669 460.904 295.706 460.921 295.746 460.93C295.786 460.939 295.828 460.94 295.868 460.933C295.908 460.926 295.947 460.911 295.982 460.889C296.016 460.867 296.046 460.839 296.07 460.805Z" fill="#263238"/>
<path d="M292.54 462.751C295.71 459.051 297.99 453.621 296.87 448.751C296.82 448.561 296.55 448.631 296.52 448.751C295.509 453.46 293.993 458.046 292 462.431C291.957 462.502 291.945 462.588 291.966 462.668C291.986 462.749 292.038 462.818 292.11 462.86C292.181 462.903 292.267 462.915 292.348 462.895C292.428 462.874 292.497 462.822 292.54 462.751Z" fill="#263238"/>
<path d="M323.06 417.832C326.54 413.622 320.01 408.212 316.52 412.422C313.03 416.632 319.58 422.002 323.06 417.832Z" fill="#263238"/>
<path d="M309.74 469.239C312.89 468.649 313.33 464.989 312.68 462.469C311.467 458.16 309.143 454.245 305.94 451.119C305.927 451.104 305.911 451.092 305.892 451.084C305.874 451.075 305.855 451.071 305.835 451.071C305.815 451.071 305.795 451.075 305.777 451.084C305.759 451.092 305.743 451.104 305.73 451.119C305.646 451.077 305.554 451.055 305.461 451.055C305.368 451.055 305.276 451.076 305.192 451.118C305.109 451.16 305.036 451.22 304.98 451.295C304.924 451.37 304.886 451.457 304.87 451.549C304.5 455.739 303.58 460.179 304.51 464.359C305.05 466.819 306.77 469.789 309.74 469.239ZM305.61 457.999C305.74 455.929 305.98 453.879 306.03 451.809C307.407 453.982 308.672 456.225 309.82 458.529C310.362 459.649 310.826 460.805 311.21 461.989C311.77 463.829 311.84 470.099 307.46 467.089C305.05 465.469 305.45 460.499 305.61 457.999Z" fill="#263238"/>
<path d="M312.28 440.672C309.07 443.512 307.2 447.672 305.04 451.252C304.998 451.336 304.976 451.429 304.977 451.524C304.978 451.618 305.002 451.71 305.046 451.793C305.09 451.877 305.153 451.948 305.23 452.002C305.308 452.056 305.397 452.09 305.49 452.102C305.49 452.182 305.54 452.262 305.64 452.242C310.071 451.593 314.252 449.785 317.76 447.002C319.76 445.352 321.57 442.122 319.37 439.802C317.17 437.482 314.15 439.002 312.28 440.672ZM316.28 440.182C321.59 440.322 317.84 445.352 316.28 446.512C315.275 447.252 314.219 447.921 313.12 448.512C310.842 449.696 308.506 450.764 306.12 451.712C307.29 450.002 308.3 448.212 309.41 446.462C310.76 444.362 313.36 440.112 316.29 440.182H316.28Z" fill="#263238"/>
<path d="M362.86 399.808C362.86 399.808 410.75 394.648 429.7 399.758C456.13 406.868 459.15 438.618 438.8 450.698C413 465.998 323.57 457.478 323.57 457.478L348.57 415.388C348.57 415.388 386.04 408.388 419.63 411.118L351.86 419.498L362.86 399.808Z" fill="#37474F"/>
<path d="M346.81 418.219C346.836 418.147 346.856 418.074 346.87 417.999C346.881 417.934 346.897 417.87 346.92 417.809L347.04 417.379C347.132 417.083 347.238 416.793 347.36 416.509C347.48 416.219 347.6 415.949 347.74 415.669C347.878 415.396 348.039 415.135 348.22 414.889H348.29H348.35H348.42C352.53 414.229 380.42 411.069 384.59 410.729C388.76 410.389 392.95 410.139 397.14 409.939C405.488 409.504 413.855 409.534 422.2 410.029C422.98 410.029 423.76 410.149 424.54 410.209C424.71 410.209 424.89 410.139 425.06 410.099C425.47 410.009 425.87 409.919 426.28 409.849C427.04 409.719 427.8 409.629 428.56 409.539C430.15 409.339 431.75 409.229 433.33 408.969C433.43 408.969 433.46 409.119 433.33 409.139C431.73 409.449 430.16 409.889 428.56 410.199L427.18 410.459C430.23 410.769 433.28 411.159 436.32 411.599C436.41 411.599 436.41 411.779 436.32 411.769C432.18 411.319 427.99 411.099 423.83 410.999C419.67 410.899 415.56 410.819 411.42 410.899C403.05 411.059 394.67 411.519 386.32 412.119C381.63 412.449 353.17 415.769 348.47 415.779H348.41C348.374 415.899 348.327 416.016 348.27 416.129C348.13 416.409 347.99 416.679 347.84 416.949C347.69 417.219 347.55 417.459 347.38 417.699L347.14 418.069L347.01 418.249C346.961 418.308 346.917 418.372 346.88 418.439C346.9 418.409 346.75 418.329 346.81 418.219Z" fill="#263238"/>
<path d="M336.4 454.849C337.88 452.429 339.16 449.849 340.52 447.329C341.88 444.809 343.25 442.329 344.62 439.809C347.36 434.809 357.13 417.999 358.07 416.809C358.13 416.739 358.24 416.809 358.21 416.919C357.73 418.229 351.6 429.369 350.21 431.849C347.39 436.849 344.45 441.669 341.55 446.559C340.72 447.959 339.87 449.339 339.03 450.729C338.19 452.119 337.3 453.479 336.52 454.909C336.47 454.999 336.35 454.939 336.4 454.849Z" fill="#263238"/>
<path d="M359.59 421.454C362.08 420.914 364.59 420.604 367.13 420.194C369.67 419.784 372.13 419.374 374.68 418.974C379.707 418.16 384.747 417.4 389.8 416.694C399.86 415.284 409.95 414.184 420.08 413.554C425.79 413.204 431.51 413.054 437.23 412.844C437.35 412.844 437.34 413.044 437.23 413.054C427.03 413.269 416.849 414.03 406.73 415.334C396.73 416.474 386.73 417.757 376.73 419.184L368.26 420.404C365.4 420.824 362.53 421.404 359.65 421.644C359.626 421.649 359.6 421.645 359.578 421.633C359.557 421.62 359.54 421.6 359.533 421.576C359.525 421.552 359.527 421.527 359.538 421.504C359.548 421.481 359.567 421.463 359.59 421.454Z" fill="#263238"/>
<path d="M381.73 332.002C383.55 336.662 386.15 340.902 387.61 345.732C389.032 350.168 389.448 354.865 388.83 359.482C386.24 376.382 364.23 386.482 348.77 381.282C341.38 378.762 334.94 372.762 332.98 365.072C330.58 355.642 335.61 346.582 338.67 337.972C340.359 333.153 341.198 328.078 341.15 322.972C341.15 318.502 340.88 313.972 341.78 309.532C342.43 306.382 344.58 297.222 356.18 293.532C364.51 290.912 372.95 295.462 376.83 303.372C381.34 312.592 378.12 322.762 381.73 332.002Z" fill="#263238"/>
<path d="M342 333.381C338.4 341.091 333.67 348.961 332.28 357.471C331.14 364.531 333.04 372.161 339.18 376.351C339.18 376.351 339.29 376.351 339.24 376.271C332.79 371.271 331.99 362.641 333.8 355.211C335.65 347.601 340.11 340.981 342.36 333.531C342.368 333.486 342.36 333.44 342.338 333.401C342.316 333.361 342.282 333.33 342.24 333.312C342.198 333.295 342.151 333.292 342.108 333.305C342.064 333.317 342.026 333.344 342 333.381Z" fill="#263238"/>
<path d="M340.41 332.934C337.68 343.004 329.36 351.004 328.83 361.774C328.83 361.894 329.02 361.934 329.03 361.774C329.73 351.024 339.03 343.394 340.61 332.934C340.63 332.834 340.44 332.814 340.41 332.934Z" fill="#263238"/>
<path d="M382.31 331.829C380.571 328.102 379.501 324.097 379.15 319.999C379.14 319.955 379.115 319.916 379.08 319.887C379.044 319.859 379 319.844 378.955 319.844C378.91 319.844 378.866 319.859 378.83 319.887C378.795 319.916 378.77 319.955 378.76 319.999C377.76 334.839 394.76 345.999 390.27 361.329C390.27 361.429 390.4 361.509 390.43 361.399C392.61 355.059 390.92 348.729 388.08 342.889C386.26 339.109 384.06 335.589 382.31 331.829Z" fill="#263238"/>
<path d="M378.87 317.745C378.87 317.465 378.42 317.545 378.44 317.815C378.843 323.374 380.638 328.742 383.66 333.425C385.14 335.735 386.95 337.805 388.38 340.145C389.95 342.715 391.15 345.475 392.47 348.145C392.476 348.16 392.489 348.171 392.504 348.177C392.519 348.183 392.535 348.182 392.55 348.175C392.564 348.169 392.576 348.157 392.581 348.142C392.587 348.127 392.586 348.11 392.58 348.095C390.87 342.985 388.18 338.915 385.11 334.565C381.667 329.563 379.523 323.783 378.87 317.745Z" fill="#263238"/>
<path d="M346 345.089C323.37 360.309 305 374.849 303.07 384.999C300.35 399.049 308.86 403.399 312.76 403.619C323.37 404.239 347.62 368.359 355.12 352.259C362.41 336.619 351 341.739 346 345.089Z" fill="#DA4436"/>
<path opacity="0.1" d="M355.12 352.258C347.61 368.358 323.37 404.258 312.76 403.618C310.05 403.468 305.13 401.328 303.27 395.338L357.19 342.898C357.87 344.388 357.45 347.268 355.12 352.258Z" fill="black"/>
<path d="M398.26 399.753C398.26 399.753 371.26 403.293 358.17 403.153C346.43 403.033 334.91 397.323 334.91 397.323L340.24 377.743C340.24 377.743 334.93 370.973 339.04 363.633C341.97 358.413 351.15 347.233 356.04 342.003C367.04 330.193 376.28 336.893 379.04 340.643C389.32 355.003 398.26 399.753 398.26 399.753Z" fill="#DA4436"/>
<path d="M356.66 376.202C354.17 376.123 351.678 376.253 349.21 376.592C347.98 376.782 346.77 377.032 345.55 377.312C344.94 377.452 344.33 377.562 343.72 377.682C343.089 377.817 342.444 377.867 341.8 377.832C341.787 377.832 341.774 377.837 341.765 377.847C341.755 377.856 341.75 377.869 341.75 377.882C341.75 377.895 341.755 377.908 341.765 377.918C341.774 377.927 341.787 377.932 341.8 377.932C342.394 378.044 342.996 378.111 343.6 378.132C344.193 378.131 344.784 378.084 345.37 377.992C346.62 377.812 347.86 377.572 349.11 377.382C351.63 377.002 354.11 376.612 356.67 376.432C356.78 376.422 356.78 376.202 356.66 376.202Z" fill="#263238"/>
<path d="M362.38 379.463C360.405 378.962 358.402 378.584 356.38 378.333C355.38 378.213 354.38 378.153 353.33 378.133H351.86C351.32 378.133 350.78 378.233 350.24 378.233C350.227 378.233 350.214 378.238 350.205 378.247C350.195 378.257 350.19 378.27 350.19 378.283C350.19 378.296 350.195 378.309 350.205 378.318C350.214 378.328 350.227 378.333 350.24 378.333C350.74 378.333 351.24 378.463 351.75 378.513L353.27 378.673L356.27 378.993C358.27 379.183 360.32 379.393 362.35 379.663C362.47 379.673 362.48 379.493 362.38 379.463Z" fill="#263238"/>
<path d="M381 344.285C399.35 360.195 412.44 382.415 411.88 396.895C411.32 411.195 406.41 409.565 405 409.405C396.39 408.405 378 367.645 372.59 351.135C367.18 334.625 376.43 340.355 381 344.285Z" fill="#DA4436"/>
<path d="M394 397.681C393.09 395.831 392.15 394.001 391.26 392.131L388.55 386.581C386.77 382.871 384.95 379.181 383.22 375.441C381.49 371.701 379.72 368.001 378 364.251C377.14 362.371 376.3 360.491 375.5 358.601C374.7 356.711 373.9 354.811 373.12 352.891C374.297 356.85 375.689 360.742 377.29 364.551C378.86 368.371 380.58 372.121 382.29 375.871C384 379.621 385.9 383.281 387.84 386.931C389.78 390.581 391.82 394.191 394 397.681Z" fill="#263238"/>
<path d="M374.93 357.785C374.605 357.124 374.241 356.483 373.84 355.865C373.64 355.565 373.45 355.255 373.24 354.955C373.03 354.655 372.83 354.345 372.58 354.055C372.716 354.798 373.001 355.506 373.42 356.135C373.817 356.773 374.329 357.333 374.93 357.785Z" fill="#263238"/>
<path d="M358.29 350.392C358.29 350.392 370.64 340.532 377.1 340.762L382.57 345.642C382.57 345.642 384.37 346.242 384.92 345.102C386.31 342.282 386.6 335.462 380.74 331.022C375.37 326.952 364.34 327.762 357 329.682C349.95 331.522 346.05 335.682 348.21 340.262C350.37 344.842 358.29 350.392 358.29 350.392Z" fill="#DA4436"/>
<path opacity="0.1" d="M357.59 348.233C357.59 348.233 351.87 342.313 351.05 338.883C350.23 335.453 357.05 332.203 361.51 330.933C368.36 328.933 373.02 329.413 376.85 333.073C380.68 336.733 357.59 348.233 357.59 348.233Z" fill="black"/>
<path d="M367.55 338.065C367.44 339.265 362.3 345.325 356.96 345.805C355.22 345.955 354.6 338.725 354.6 338.725L354.35 338.045L350.83 328.575L361.3 319.645L362.83 318.445C362.83 318.445 363.62 321.105 364.57 324.445C364.62 324.595 364.66 324.755 364.71 324.915C364.76 325.075 364.83 325.275 364.87 325.455C365.02 325.945 365.17 326.455 365.31 326.955C365.45 327.455 365.52 327.715 365.62 328.125L365.94 329.335C366.674 332.205 367.212 335.122 367.55 338.065Z" fill="#FFC4C0"/>
<path d="M364.57 324.408C363.956 327.28 362.724 329.984 360.959 332.331C359.194 334.678 356.938 336.612 354.35 337.998L350.83 328.528L361.3 319.598L362.83 318.398C362.83 318.398 363.62 321.098 364.57 324.408Z" fill="#263238"/>
<path d="M340 308.194C333.1 324.534 342.11 330.514 345.63 331.994C348.83 333.344 359.89 337.524 368.45 321.994C377.01 306.464 371.59 298.084 364.45 294.614C357.31 291.144 347 291.864 340 308.194Z" fill="#FFC4C0"/>
<path d="M344 307.2C344.396 307.297 344.796 307.374 345.2 307.43C345.615 307.57 346.065 307.57 346.48 307.43C346.6 307.36 346.693 307.253 346.745 307.124C346.798 306.996 346.807 306.854 346.77 306.72C346.657 306.464 346.478 306.243 346.251 306.08C346.025 305.916 345.758 305.816 345.48 305.79C344.928 305.648 344.342 305.72 343.84 305.99C343.731 306.058 343.643 306.156 343.588 306.273C343.533 306.389 343.513 306.519 343.53 306.647C343.547 306.774 343.6 306.894 343.684 306.992C343.767 307.091 343.877 307.163 344 307.2Z" fill="#263238"/>
<path d="M355.56 311.113C355.213 310.903 354.879 310.673 354.56 310.423C354.17 310.153 353.84 309.983 353.66 309.523C353.627 309.389 353.637 309.248 353.689 309.12C353.741 308.993 353.833 308.885 353.95 308.813C354.21 308.71 354.493 308.679 354.769 308.723C355.045 308.767 355.305 308.884 355.52 309.063C356.003 309.357 356.359 309.82 356.52 310.363C356.55 310.487 356.543 310.618 356.501 310.739C356.458 310.86 356.382 310.967 356.281 311.046C356.18 311.125 356.058 311.173 355.93 311.185C355.802 311.197 355.674 311.172 355.56 311.113Z" fill="#263238"/>
<path d="M351.84 313.273C351.84 313.273 351.91 313.363 351.89 313.413C351.37 314.503 350.95 315.833 351.79 316.643C351.79 316.643 351.79 316.723 351.79 316.703C350.61 316.003 351.18 314.223 351.84 313.273Z" fill="#263238"/>
<path d="M353.34 312.549C355.18 313.199 353.75 316.819 352.05 316.229C350.35 315.639 351.8 311.999 353.34 312.549Z" fill="#263238"/>
<path d="M354 313.005C354.23 313.335 354.4 313.825 354.77 314.005C355.14 314.185 355.67 314.005 356.11 313.725C356.11 313.725 356.17 313.725 356.11 313.795C355.85 314.495 355.3 315.105 354.52 314.915C354.184 314.783 353.91 314.531 353.749 314.207C353.588 313.884 353.553 313.513 353.65 313.165C353.69 313.005 353.88 312.895 354 313.005Z" fill="#263238"/>
<path d="M345.41 310.481C345.41 310.431 345.3 310.481 345.28 310.551C344.88 311.691 344.28 312.931 343.07 312.911C343.07 312.911 343.02 312.971 343.07 312.981C344.37 313.281 345.21 311.631 345.41 310.481Z" fill="#263238"/>
<path d="M344.85 308.924C343.09 308.084 341.55 311.664 343.18 312.444C344.81 313.224 346.33 309.624 344.85 308.924Z" fill="#263238"/>
<path d="M344 308.834C343.63 308.904 343.2 309.124 342.85 309.004C342.5 308.884 342.33 308.354 342.24 307.874C342.24 307.824 342.19 307.874 342.17 307.874C341.85 308.554 341.77 309.364 342.37 309.774C342.97 310.184 343.61 309.774 344.07 309.144C344.17 309.004 344.15 308.804 344 308.834Z" fill="#263238"/>
<path d="M348.27 322.313C347.92 322.513 347.55 322.823 347.11 322.753C346.678 322.629 346.276 322.418 345.93 322.133C345.93 322.133 345.85 322.133 345.87 322.183C345.978 322.454 346.158 322.691 346.39 322.867C346.623 323.043 346.9 323.152 347.19 323.183C347.444 323.184 347.693 323.109 347.904 322.966C348.115 322.823 348.277 322.62 348.37 322.383C348.41 322.333 348.33 322.283 348.27 322.313Z" fill="#263238"/>
<path d="M344.78 316.636C344.78 316.636 344 318.276 343.78 319.086C343.78 319.166 343.94 319.266 344.21 319.366C344.864 319.718 345.604 319.882 346.345 319.837C347.087 319.793 347.802 319.543 348.41 319.116C348.5 319.056 348.41 318.936 348.33 318.966C347.071 319.34 345.725 319.301 344.49 318.856C344.49 318.616 345.92 316.086 345.8 316.036C345.144 315.886 344.471 315.829 343.8 315.866C345.33 312.396 347.41 309.196 348.88 305.716C348.93 305.596 348.76 305.496 348.69 305.596C346.36 308.956 344.37 312.541 342.75 316.296C342.55 316.746 344.41 316.666 344.78 316.636Z" fill="#263238"/>
<path d="M344.35 319.079C344.59 319.885 345.031 320.618 345.63 321.209C345.972 321.51 346.397 321.702 346.85 321.759C347.85 321.869 348.19 321.049 348.3 320.279C348.344 319.867 348.344 319.451 348.3 319.039C347.021 319.475 345.637 319.489 344.35 319.079Z" fill="#263238"/>
<path d="M345.63 321.21C345.972 321.511 346.397 321.703 346.85 321.76C347.85 321.87 348.19 321.05 348.3 320.28C347.815 320.114 347.288 320.115 346.804 320.284C346.32 320.452 345.907 320.778 345.63 321.21Z" fill="#FF9ABB"/>
<path d="M367.09 321.372C364 321.002 365 313.782 365 313.782C365 313.782 352.62 308.172 354.3 297.332C351.045 300.94 346.708 303.396 341.94 304.332C341.94 304.332 347.11 291.742 356.87 291.902C356.87 291.902 367.87 290.992 372.46 301.722C377.12 312.702 369.2 321.652 367.09 321.372Z" fill="#263238"/>
<path d="M354.46 296.539C353.881 298.139 353.646 299.842 353.77 301.539C353.869 303.247 354.322 304.915 355.1 306.439C355.288 306.823 355.502 307.194 355.74 307.549L356.08 308.089C356.21 308.269 356.34 308.429 356.48 308.589C356.75 308.919 357.01 309.259 357.3 309.589C357.59 309.919 357.91 310.179 358.22 310.459L358.69 310.889L359.21 311.259L360.21 311.989C360.94 312.419 361.68 312.799 362.43 313.179C361.77 312.659 361.07 312.179 360.43 311.689L359.49 310.889L359.03 310.489C358.88 310.339 358.75 310.189 358.61 310.039L357.77 309.149C357.51 308.839 357.28 308.499 357.03 308.149L356.66 307.669L356.35 307.149C356.134 306.807 355.937 306.453 355.76 306.089C355.019 304.644 354.535 303.08 354.33 301.469C354.221 300.661 354.178 299.845 354.2 299.029C354.221 298.193 354.307 297.361 354.46 296.539Z" fill="#263238"/>
<path d="M365.08 320.142C365.08 320.142 370.46 316.072 372.43 318.142C374.4 320.212 369.15 326.962 366.01 327.142C365.607 327.187 365.199 327.151 364.811 327.034C364.422 326.917 364.062 326.723 363.751 326.464C363.439 326.204 363.184 325.884 363 325.522C362.816 325.161 362.707 324.766 362.68 324.362L365.08 320.142Z" fill="#FFC4C0"/>
<path d="M370.88 320.054V320.134C368.65 320.294 367.03 321.784 365.69 323.444C365.867 323.284 366.077 323.165 366.305 323.094C366.534 323.023 366.774 323.003 367.011 323.034C367.248 323.066 367.475 323.148 367.677 323.276C367.879 323.403 368.05 323.573 368.18 323.774C368.18 323.824 368.18 323.894 368.1 323.864C367.789 323.642 367.417 323.522 367.035 323.522C366.653 323.522 366.281 323.642 365.97 323.864C365.446 324.23 364.966 324.657 364.54 325.134C364.39 325.274 364.1 325.074 364.23 324.894C365 322.314 368.1 319.434 370.88 320.054Z" fill="#263238"/>
<path d="M357.59 348.234C357.59 348.234 367.97 334.584 377.95 333.234L377.1 340.724C377.1 340.724 368.78 340.854 358.29 350.354L357.59 348.234Z" fill="#DA4436"/>
<path d="M379.79 340.909C377.974 340.758 376.147 340.997 374.43 341.609C367.58 343.219 360.59 348.839 360.59 348.839L358.59 350.689L358.37 350.889L358.12 350.759C354.77 348.939 351.4 344.699 350.77 343.869C353.105 346.194 355.691 348.253 358.48 350.009L358.01 350.089L360.01 348.189C360.71 347.579 368.36 342.549 374.29 341.119C374.73 340.999 375.2 340.919 375.65 340.829C376.1 340.739 376.57 340.699 377.03 340.679C377.956 340.599 378.89 340.677 379.79 340.909Z" fill="#263238"/>
<path d="M382.57 345.646C380.549 344.254 378.712 342.615 377.1 340.766C378.111 341.453 379.079 342.201 380 343.006C380.914 343.828 381.773 344.71 382.57 345.646Z" fill="#263238"/>
<path d="M361 346.641C361.83 349.7 362.396 352.825 362.69 355.981C362.91 358.181 362.69 366.161 360.21 366.061C357.73 365.961 361.33 360.551 361.7 356.331C362.07 352.111 360.7 349.141 360.37 346.651L361 346.641Z" fill="#263238"/>
<path d="M354.06 346.531C353.046 349.246 352.27 352.043 351.74 354.891C351.35 356.891 350.89 364.141 353.14 364.261C355.39 364.381 352.59 359.161 352.61 355.261C352.63 351.361 354.11 348.801 354.61 346.571L354.06 346.531Z" fill="#263238"/>
<path d="M306.83 364.562C307.55 357.802 309.15 348.363 311.49 346.323C313.83 344.283 322.88 336.983 325.49 335.983C328.1 334.983 339.76 330.113 341.96 331.293C343.73 332.243 341.82 336.872 336.28 339.242C333.276 340.601 330.357 342.14 327.54 343.853C326.12 344.523 322.81 349.283 323.82 351.323C324.41 352.513 327.99 353.833 330.16 352.763C332.33 351.693 332.73 347.333 335.16 345.193C337.59 343.053 342.05 343.193 342.34 344.353C342.63 345.513 341.19 346.153 339.06 350.293C337.68 352.953 337.79 359.232 334.63 363.832C333.03 366.553 331.598 369.368 330.34 372.263L306.83 364.562Z" fill="#FFC4C0"/>
<path d="M337.47 343.262C338.276 343.12 339.025 342.753 339.63 342.202C339.874 341.953 340.038 341.635 340.1 341.292C340.13 341.103 340.13 340.911 340.1 340.722C340.085 340.524 340.004 340.338 339.87 340.192C339.82 340.192 339.87 340.112 339.87 340.192C339.87 340.272 340.02 340.362 340.08 340.452C340.134 340.531 340.181 340.614 340.22 340.702C340.291 340.877 340.328 341.063 340.33 341.252C340.33 341.663 340.189 342.062 339.93 342.382C339.621 342.73 339.235 343.002 338.803 343.176C338.371 343.349 337.904 343.42 337.44 343.382L337.47 343.262Z" fill="#263238"/>
<path d="M311.49 346.322C313.49 342.892 318.79 336.662 324.14 334.402C327.75 332.882 340.56 338.602 340.27 341.032C339.98 343.462 337.83 343.522 334.63 343.252C333.46 343.152 327.25 341.152 326.24 342.472C324.8 344.372 323.1 350.762 323.1 350.762L311.49 346.322Z" fill="#FFC4C0"/>
<path d="M339.93 340.088C338.29 337.568 334.82 336.298 331.38 335.328V335.408C332.26 335.658 337.89 338.028 339.92 340.138C339.91 340.158 339.94 340.118 339.93 340.088Z" fill="#263238"/>
<path d="M311.49 346.324C313.49 342.894 318.79 336.664 324.14 334.404C327.75 332.884 337.98 340.404 337.69 342.834C337.4 345.264 334.32 345.544 330.86 344.464C329.74 344.124 325.95 341.634 324.95 342.954C323.5 344.854 319.95 349.574 319.95 349.574L311.49 346.324Z" fill="#FFC4C0"/>
<path d="M322 346.65C322.32 346.11 322.44 345.92 322.77 345.39C323.1 344.86 323.45 344.33 323.82 343.82C324.109 343.35 324.478 342.933 324.91 342.59C325.359 342.316 325.885 342.193 326.41 342.24C327.595 342.45 328.722 342.906 329.72 343.58C330.87 344.18 333.23 345.15 335.01 344.91C335.498 344.865 335.971 344.718 336.4 344.48C336.729 344.321 337.011 344.08 337.22 343.78C337.95 342.44 336.94 340.97 335.92 339.95C333.91 338.093 331.583 336.613 329.05 335.58C328.45 335.31 327.84 335.05 327.23 334.8C326.551 334.462 325.808 334.275 325.05 334.25C323.81 334.25 321.82 335.61 321.2 336.01C321.2 336.01 321.12 335.96 321.2 335.93C321.94 335.43 323.78 333.83 325.78 333.86C326.514 333.947 327.228 334.16 327.89 334.49C328.59 334.77 329.29 335.07 329.98 335.39C331.326 335.999 332.623 336.711 333.86 337.52C335.097 338.262 336.189 339.225 337.08 340.36C337.453 340.867 337.68 341.467 337.739 342.094C337.797 342.721 337.683 343.352 337.41 343.92C337.157 344.281 336.828 344.582 336.446 344.801C336.064 345.021 335.639 345.153 335.2 345.19C334.679 345.265 334.151 345.265 333.63 345.19C332.457 344.975 331.301 344.678 330.17 344.3C329.07 343.9 328.07 343.21 326.94 342.9C326.674 342.819 326.395 342.791 326.119 342.819C325.842 342.846 325.574 342.928 325.33 343.06C324.88 343.38 324.482 343.768 324.15 344.21C323.43 344.969 322.78 345.793 322.21 346.67C322 347 321.87 346.88 322 346.65Z" fill="#263238"/>
<path d="M310 349.3C310.73 347.67 311.84 341.05 313 338.99C314.16 336.93 319.78 329.76 322.5 329.99C325.91 330.26 322.57 336.51 320.87 339.1C319.17 341.69 319.61 345.96 319.61 345.96L310 349.3Z" fill="#FFC4C0"/>
<path d="M319.71 346.664C319.636 348.31 319.98 349.947 320.71 351.424C321.047 352.173 321.434 352.898 321.87 353.594C322.318 354.293 322.813 354.961 323.35 355.594C324.378 356.778 325.254 358.084 325.96 359.484C326.625 360.926 327.112 362.444 327.41 364.004C327.471 362.367 327.213 360.733 326.65 359.194C326.05 357.655 325.195 356.228 324.12 354.974C323.097 353.775 322.199 352.475 321.44 351.094C320.619 349.725 320.034 348.227 319.71 346.664Z" fill="#263238"/>
<path d="M313.88 403.005C320.47 401.825 324.33 390.545 331.06 370.715C332.24 367.235 314 346.945 311.78 350.185C308.98 354.265 301.94 376.635 301.35 382.675C300.21 394.585 306.18 404.385 313.88 403.005Z" fill="#FFC4C0"/>
<path d="M327.53 381.772L305.26 361.922C305.26 361.922 299.96 380.062 300.85 387.532C301.74 395.002 304.72 403.422 313.76 403.532C320.53 403.562 327.53 381.772 327.53 381.772Z" fill="#DA4436"/>
<path d="M321.24 396.443C321.96 395.323 322.6 394.143 323.24 392.963C323.88 391.783 324.43 390.573 324.98 389.363C325.53 388.153 326.04 386.903 326.47 385.643C326.944 384.388 327.305 383.093 327.55 381.773C327.04 383.003 326.49 384.213 325.94 385.423L324.3 389.053C323.77 390.273 323.22 391.483 322.72 392.723C322.22 393.963 321.69 395.183 321.24 396.443Z" fill="#263238"/>
<path d="M323.08 385.59C322 384.49 320.81 383.49 319.66 382.46C318.51 381.43 317.35 380.46 316.18 379.46C313.83 377.46 311.48 375.46 309.1 373.46C308.45 372.93 307.79 372.39 307.1 371.87C306.41 371.35 305.61 370.87 304.91 370.27C304.86 370.22 304.79 370.27 304.84 370.35C305.41 370.85 305.91 371.44 306.47 371.95C307.03 372.46 307.63 373.01 308.22 373.52C309.39 374.52 310.55 375.52 311.73 376.52C314.07 378.52 316.42 380.52 318.83 382.45C320.19 383.54 321.53 384.68 322.95 385.69C322.963 385.707 322.983 385.719 323.004 385.721C323.026 385.724 323.048 385.718 323.065 385.705C323.082 385.692 323.093 385.672 323.096 385.651C323.099 385.629 323.093 385.607 323.08 385.59Z" fill="#263238"/>
<path d="M351.44 347.005L360.44 374.935C360.544 375.086 360.605 375.262 360.616 375.445C360.627 375.628 360.588 375.81 360.502 375.972C360.417 376.134 360.288 376.27 360.131 376.364C359.973 376.458 359.793 376.507 359.61 376.505L344.95 377.505C344.501 377.501 344.062 377.368 343.685 377.124C343.307 376.88 343.008 376.533 342.82 376.125L333.82 348.205C333.46 347.385 333.82 346.685 334.65 346.625L349.3 345.625C349.75 345.631 350.19 345.764 350.568 346.008C350.946 346.252 351.249 346.597 351.44 347.005Z" fill="#37474F"/>
<path d="M349.7 347.122L358.7 375.052C358.804 375.203 358.866 375.379 358.877 375.562C358.888 375.745 358.848 375.928 358.762 376.09C358.677 376.252 358.548 376.387 358.391 376.481C358.233 376.575 358.053 376.624 357.87 376.622L343.21 377.622C342.761 377.618 342.322 377.486 341.945 377.241C341.568 376.997 341.268 376.65 341.08 376.242L332.08 348.312C331.976 348.162 331.914 347.985 331.903 347.802C331.892 347.619 331.932 347.437 332.018 347.275C332.103 347.113 332.232 346.977 332.389 346.883C332.547 346.79 332.727 346.741 332.91 346.742L347.56 345.742C348.01 345.748 348.45 345.881 348.828 346.125C349.207 346.369 349.509 346.715 349.7 347.122Z" fill="#455A64"/>
<path d="M345.76 348.683C345.781 348.929 345.874 349.164 346.028 349.357C346.182 349.551 346.39 349.694 346.626 349.769C346.861 349.844 347.114 349.848 347.352 349.779C347.589 349.711 347.801 349.574 347.961 349.385C348.12 349.196 348.22 348.964 348.248 348.718C348.275 348.472 348.23 348.224 348.116 348.004C348.002 347.784 347.826 347.603 347.61 347.484C347.393 347.364 347.146 347.312 346.9 347.333C346.57 347.361 346.264 347.519 346.051 347.772C345.837 348.025 345.732 348.352 345.76 348.683Z" fill="#263238"/>
<path d="M407 409.245C400.6 410.125 392.62 405.155 371.94 390.055C369.08 387.975 378.39 363.805 381.56 365.885C385.56 368.495 400.49 379.495 401.48 380.435C409.86 388.385 411.37 408.655 407 409.245Z" fill="#FFC4C0"/>
<path d="M389 373.19C389 373.19 383.11 364.92 378.67 361.54C373.967 358.135 368.507 355.925 362.76 355.1C356.56 354.19 340.95 356.27 340.76 360.87C340.59 365.04 356.45 362.11 356.45 362.11C356.45 362.11 339.79 362.43 340.51 367.48C341.23 372.53 359.44 368.08 359.44 368.08C359.44 368.08 342.33 368.8 343.9 373.89C345.08 377.74 361.8 374.64 361.8 374.64C361.8 374.64 347.1 375.36 348.15 379.37C349.3 383.8 364.92 381.91 364.92 381.91C369.3 391.65 375.57 394.4 380.13 395.91C381.22 396.28 389 373.19 389 373.19Z" fill="#FFC4C0"/>
<path d="M362.18 361.632C360.18 361.632 358.24 361.552 356.29 361.692C354.34 361.832 352.38 362.042 350.45 362.362C347.915 362.743 345.432 363.414 343.05 364.362C347.4 363.012 354.39 362.362 356.34 362.252C358.29 362.142 360.24 361.872 362.19 361.732C362.24 361.702 362.23 361.632 362.18 361.632Z" fill="#263238"/>
<path d="M362.82 368.672C360.32 368.742 357.82 368.672 355.33 368.892C352.84 369.112 350.5 369.452 348.03 369.802C347.84 369.802 347.91 369.922 348.11 369.902C350.59 369.652 352.9 369.612 355.38 369.392C357.86 369.172 360.38 368.862 362.83 368.732C362.86 368.732 362.86 368.672 362.82 368.672Z" fill="#263238"/>
<path d="M364.45 374.625C360.602 374.635 356.765 375.041 353 375.835C352.81 375.835 352.92 375.985 353.12 375.955C356.91 375.485 359.88 375.085 364.42 374.765C364.52 374.755 364.53 374.635 364.45 374.625Z" fill="#263238"/>
<path d="M389 369.898L380.85 399.598C380.85 399.598 402.71 412.468 407.54 409.058C412.37 405.648 409.21 388.508 403.75 381.968C401.45 379.248 389 369.898 389 369.898Z" fill="#DA4436"/>
<path d="M388.71 370.893L389.03 369.893H388.95C391.01 371.583 393.08 373.253 395.13 374.953C397.18 376.653 399.22 378.352 401.13 380.152C402.113 381.025 403.038 381.96 403.9 382.953C404.724 383.972 405.46 385.059 406.1 386.203C407.367 388.535 408.258 391.052 408.74 393.663C408.529 390.976 407.802 388.355 406.6 385.943C405.999 384.729 405.272 383.583 404.43 382.522C403.561 381.489 402.626 380.514 401.63 379.603C399.63 377.803 397.57 376.123 395.47 374.483C393.37 372.843 391.19 371.293 388.97 369.812H388.9V369.883L388.71 370.893Z" fill="#263238"/>
<path d="M393.77 377.274C393.27 378.734 392.89 380.274 392.48 381.724C392.07 383.174 391.67 384.724 391.29 386.194C390.53 389.194 389.79 392.194 389.09 395.194C388.9 396.024 388.71 396.844 388.53 397.664C388.35 398.484 388.26 399.454 388.06 400.334C388.06 400.404 388.15 400.434 388.17 400.334C388.37 399.604 388.67 398.894 388.89 398.174C389.11 397.454 389.31 396.654 389.51 395.894C389.91 394.404 390.3 392.894 390.68 391.414C391.44 388.414 392.19 385.414 392.85 382.414C393.22 380.704 393.65 379.004 393.92 377.284C393.925 377.272 393.928 377.26 393.927 377.247C393.926 377.234 393.922 377.221 393.915 377.21C393.909 377.199 393.899 377.19 393.888 377.184C393.877 377.177 393.865 377.173 393.852 377.172C393.839 377.171 393.827 377.173 393.815 377.179C393.803 377.184 393.793 377.192 393.785 377.202C393.776 377.212 393.771 377.224 393.768 377.236C393.766 377.249 393.766 377.262 393.77 377.274Z" fill="#263238"/>
<path d="M381.55 397C381.488 397.919 381.354 398.832 381.15 399.73L381 399.36C382.656 400.255 384.234 401.285 385.72 402.44C383.904 401.888 382.191 401.04 380.65 399.93L380.43 399.78C380.731 398.826 381.106 397.896 381.55 397Z" fill="#263238"/>
<path d="M80.4399 356.625C80.4399 356.625 58.3299 395.725 58.3199 395.755C54.7599 403.635 51.7899 410.615 50.5899 414.365C50.5855 414.385 50.5855 414.405 50.5899 414.425C50.2133 415.273 50.0387 416.198 50.0799 417.125C50.0799 417.125 50.0799 417.175 50.0799 417.195C51.7099 419.835 113.89 450.055 116.41 450.375C118.93 450.695 120.06 443.535 118.58 440.435C117.1 437.335 98.4599 415.125 98.4599 415.125L120.17 375.875L80.4399 356.625Z" fill="#EB9481"/>
<path d="M115.42 450.158C112.9 449.828 51.7099 419.838 50.0799 417.158C50.0766 417.135 50.0766 417.111 50.0799 417.088C50.0387 416.16 50.2133 415.236 50.5899 414.388C50.5843 414.368 50.5843 414.347 50.5899 414.328C51.7899 410.578 54.7699 403.598 58.3099 395.708C58.3099 395.708 62.0399 388.878 63.5199 386.508L103.07 406.998L98.4599 415.138C98.4599 415.138 116.1 437.138 117.58 440.218C119.06 443.298 118 450.488 115.42 450.158Z" fill="#EBEBEB"/>
<path d="M116.55 449.307C114.01 448.927 52.0601 417.007 50.4801 414.307C49.8601 413.307 53.9801 403.987 59.2901 392.897L59.4601 392.547L99.6601 412.697L99.2901 413.367C99.2901 413.367 117.54 436.187 118.97 439.367C120.4 442.547 119.09 449.707 116.55 449.307Z" fill="#DA4436"/>
<path d="M117.09 446.547C106.78 440.907 64.6599 419.147 54.0899 414.367C53.9999 414.367 53.9699 414.367 54.0899 414.427C64.1799 420.237 106.48 441.657 117.09 446.717C117.23 446.827 117.31 446.667 117.09 446.547Z" fill="white"/>
<path d="M102.59 415.205C98.87 412.315 93.52 410.355 88.87 411.665C88.69 411.725 88.77 411.975 88.87 412.005C93.45 412.759 97.9357 414.002 102.25 415.715C102.283 415.737 102.321 415.753 102.361 415.76C102.4 415.768 102.441 415.768 102.48 415.76C102.52 415.752 102.557 415.737 102.591 415.714C102.624 415.692 102.653 415.663 102.675 415.63C102.697 415.596 102.713 415.559 102.721 415.519C102.728 415.48 102.728 415.439 102.721 415.4C102.713 415.36 102.697 415.323 102.675 415.289C102.652 415.256 102.623 415.227 102.59 415.205Z" fill="#263238"/>
<path d="M104.63 418.515C100.92 415.635 95.5699 413.675 90.9199 414.985C90.7399 415.035 90.8099 415.295 90.9199 415.315C95.5154 416.057 100.018 417.291 104.35 418.995C104.411 419.01 104.474 419.005 104.532 418.98C104.589 418.956 104.637 418.913 104.669 418.859C104.7 418.806 104.713 418.743 104.706 418.681C104.699 418.619 104.673 418.561 104.63 418.515Z" fill="#263238"/>
<path d="M106.68 421.839C103 418.999 97.6099 416.999 92.9999 418.309C92.8199 418.359 92.8999 418.609 93.0499 418.639C97.6302 419.392 102.116 420.635 106.43 422.349C106.492 422.357 106.555 422.345 106.61 422.316C106.665 422.286 106.71 422.24 106.737 422.183C106.765 422.127 106.774 422.064 106.764 422.002C106.754 421.94 106.724 421.883 106.68 421.839Z" fill="#263238"/>
<path d="M66.11 404.744C62.78 400.184 55.69 405.364 59.03 409.924C62.37 414.484 69.45 409.314 66.11 404.744Z" fill="white"/>
<path opacity="0.1" d="M102 416.773L106.45 444.593C109.727 446.335 113.092 447.907 116.53 449.303C119.06 449.703 120.36 442.493 118.95 439.303C117.89 436.993 107.16 423.263 102 416.773Z" fill="black"/>
<path d="M118.64 447.578C119.53 448.578 117.37 452.178 116.42 452.058C115.47 451.938 48.07 416.848 47.06 415.998C46.05 415.148 48.59 411.248 50.06 411.728C51.53 412.208 118.64 447.578 118.64 447.578Z" fill="#263238"/>
<path d="M63.4299 382.899L108 406.689C108 406.689 164.24 326.529 165.36 305.479C166.92 276.389 142.08 184.059 142.08 184.059L102.47 183.789C102.47 183.789 118.58 278.789 117.27 294.949C116.57 303.419 63.4299 382.899 63.4299 382.899Z" fill="#263238"/>
<path d="M111.87 397.48C109.58 395.82 88.46 383.59 72.38 375.77C72.3694 375.764 72.3579 375.76 72.3459 375.758C72.3339 375.757 72.3218 375.758 72.3102 375.761C72.2986 375.764 72.2877 375.77 72.2783 375.777C72.2688 375.785 72.2609 375.794 72.255 375.805C72.249 375.815 72.2453 375.827 72.2438 375.839C72.2424 375.851 72.2433 375.863 72.2466 375.874C72.2498 375.886 72.2553 375.897 72.2628 375.906C72.2702 375.916 72.2794 375.924 72.29 375.93C77.17 379.15 108.7 396.42 111.76 397.65C111.86 397.69 112 397.55 111.87 397.48Z" fill="#37474F"/>
<path d="M122.76 274.656C120.92 260.756 118.89 246.886 116.58 233.056C114.27 219.226 111.82 205.296 108.92 191.516C108.56 189.836 108.193 188.169 107.82 186.516C107.815 186.489 107.804 186.464 107.789 186.442C107.774 186.42 107.755 186.401 107.733 186.386C107.711 186.371 107.686 186.361 107.659 186.355C107.633 186.35 107.606 186.35 107.58 186.356C107.554 186.361 107.529 186.371 107.506 186.386C107.484 186.401 107.465 186.42 107.45 186.442C107.435 186.465 107.425 186.49 107.42 186.516C107.415 186.542 107.415 186.569 107.42 186.596C109.86 200.266 112.42 213.916 114.61 227.596C116.8 241.276 119 254.996 120.84 268.776C121.3 272.176 121.75 275.582 122.19 278.996C122.732 282.509 123.066 286.052 123.19 289.606C123.251 292.999 122.678 296.373 121.5 299.556C120.242 302.664 118.713 305.656 116.93 308.496C109.77 320.616 77.6698 373.596 76.8398 375.136C76.8398 375.236 76.9298 375.346 76.9898 375.246C84.6898 363.246 108.58 325.126 115.85 312.806C119.13 307.246 122.85 301.616 123.96 295.136C125.08 288.396 123.64 281.346 122.76 274.656Z" fill="#37474F"/>
<path d="M111.34 382.898C111.34 382.898 110.9 428.088 110.9 428.118C111.13 436.758 111.5 444.328 112.05 448.238C112.045 448.258 112.045 448.279 112.05 448.298C112.081 449.224 112.324 450.131 112.76 450.948L112.82 450.998C115.44 452.668 184.57 452.778 186.98 451.998C189.39 451.218 187.28 444.248 184.6 442.108C181.92 439.968 155.46 428.108 155.46 428.108V382.948L111.34 382.898Z" fill="#EB9481"/>
<path d="M111 418.837C111 418.837 110.91 428.087 110.91 428.117C111.14 436.757 111.51 444.327 112.06 448.237C112.055 448.257 112.055 448.278 112.06 448.297C112.194 449.205 112.433 450.094 112.77 450.948L112.83 450.997C115.45 452.667 184.58 452.777 186.99 451.997C189.4 451.217 187.29 444.247 184.61 442.107C181.93 439.967 155.47 428.107 155.47 428.107V418.688L111 418.837Z" fill="#EBEBEB"/>
<path d="M187 451.889C184.56 452.659 114.88 451.439 112.26 449.699C111.26 449.059 110.84 438.899 110.69 426.609V426.219L155.69 426.509V427.269C155.69 427.269 182.15 439.669 184.83 441.879C187.51 444.089 189.47 451.119 187 451.889Z" fill="#DA4436"/>
<path d="M186.28 449.171C174.54 448.671 127.14 447.791 115.5 448.171C115.41 448.171 115.4 448.241 115.5 448.241C127.12 448.991 174.5 449.491 186.28 449.341C186.53 449.361 186.53 449.181 186.28 449.171Z" fill="white"/>
<path d="M159.41 427.464C154.81 426.524 149.14 427.134 145.55 430.364C145.41 430.494 145.55 430.684 145.74 430.644C150.183 429.292 154.76 428.424 159.39 428.054C159.459 428.044 159.523 428.01 159.57 427.957C159.617 427.905 159.644 427.838 159.646 427.767C159.649 427.697 159.626 427.628 159.583 427.573C159.54 427.518 159.479 427.479 159.41 427.464Z" fill="#263238"/>
<path d="M162.72 429.534C158.11 428.594 152.44 429.204 148.85 432.434C148.71 432.554 148.85 432.754 149.04 432.714C153.484 431.362 158.06 430.494 162.69 430.124C162.76 430.116 162.825 430.083 162.872 430.031C162.92 429.979 162.949 429.912 162.952 429.842C162.956 429.772 162.935 429.702 162.892 429.646C162.85 429.59 162.789 429.55 162.72 429.534Z" fill="#263238"/>
<path d="M166 431.605C161.39 430.665 155.72 431.275 152.13 434.505C152 434.625 152.13 434.825 152.33 434.785C156.78 433.431 161.363 432.562 166 432.195C166.069 432.182 166.131 432.146 166.176 432.092C166.221 432.038 166.245 431.97 166.245 431.9C166.245 431.83 166.221 431.762 166.176 431.708C166.131 431.654 166.069 431.617 166 431.605Z" fill="#263238"/>
<path d="M188.13 449.403C189.37 449.903 189.03 454.083 188.13 454.403C187.23 454.723 111.26 453.053 109.97 452.743C108.68 452.433 109.24 447.803 110.75 447.593C112.26 447.383 188.13 449.403 188.13 449.403Z" fill="#263238"/>
<path d="M122.08 434.227C117.08 431.607 113 439.387 118.01 442.007C123.02 444.627 127.09 436.847 122.08 434.227Z" fill="white"/>
<path d="M141.57 183.993C141.31 184.813 127.07 223.823 125.73 224.443C124.21 225.143 157.18 280.513 159.13 306.243C160.37 322.693 157.93 415.803 157.93 415.803H109.73C109.73 415.803 112.04 332.093 113.14 305.573C113.57 295.283 80.0499 244.073 79.6399 212.193C79.5099 202.143 86.7299 183.773 86.7299 183.773L141.57 183.993Z" fill="#263238"/>
<path d="M113.42 304.864C113.42 304.434 113.08 304.304 113.05 304.734C111.96 319.094 111.71 333.364 111.05 347.734C110.39 362.104 110.76 365.524 110.12 379.864C109.76 387.974 110.12 396.114 109.91 404.234C109.91 404.26 109.92 404.285 109.939 404.304C109.958 404.323 109.983 404.334 110.01 404.334C110.036 404.334 110.062 404.323 110.081 404.304C110.099 404.285 110.11 404.26 110.11 404.234C111.58 389.994 113.41 312.994 113.42 304.864Z" fill="#37474F"/>
<path d="M159.12 306.816C159.052 303.273 158.718 299.74 158.12 296.246C157.446 292.85 156.441 289.527 155.12 286.326C152.45 279.616 149.31 273.066 146.3 266.506C143.29 259.946 140.14 253.236 136.93 246.656C135.117 242.97 133.297 239.283 131.47 235.596C129.62 231.876 127.63 228.216 125.69 224.536C125.672 224.512 125.646 224.495 125.617 224.488C125.588 224.481 125.557 224.484 125.53 224.497C125.503 224.51 125.481 224.532 125.468 224.559C125.456 224.586 125.453 224.617 125.46 224.646C128.55 231.276 131.59 237.926 134.68 244.556C137.77 251.186 140.8 257.846 143.84 264.506C146.88 271.166 149.84 277.606 152.63 284.236C154.034 287.386 155.185 290.643 156.07 293.976C156.864 297.425 157.336 300.94 157.48 304.476C157.94 312.706 158.17 320.966 158.98 329.176C158.98 329.276 159.16 329.266 159.16 329.176C159.46 321.736 159.34 314.246 159.12 306.816Z" fill="#37474F"/>
<path d="M154.43 406.288C151.63 405.928 130.27 405.188 112.43 405.948C112.406 405.948 112.383 405.957 112.366 405.974C112.349 405.991 112.34 406.014 112.34 406.038C112.34 406.062 112.349 406.084 112.366 406.101C112.383 406.118 112.406 406.128 112.43 406.128C118.26 406.648 151.15 406.868 154.43 406.498C154.51 406.488 154.56 406.308 154.43 406.288Z" fill="#37474F"/>
<path d="M132.38 222.289C127.216 223.596 122.174 225.346 117.31 227.519C117.29 227.527 117.271 227.538 117.255 227.552C117.239 227.567 117.226 227.584 117.216 227.604C117.207 227.623 117.202 227.644 117.201 227.666C117.2 227.687 117.203 227.709 117.21 227.729C117.217 227.75 117.228 227.769 117.243 227.785C117.257 227.801 117.275 227.814 117.294 227.823C117.314 227.832 117.335 227.838 117.356 227.839C117.378 227.84 117.4 227.837 117.42 227.829C122.42 226.239 127.62 224.759 132.58 222.899C132.661 222.873 132.728 222.815 132.766 222.739C132.805 222.663 132.811 222.575 132.785 222.494C132.758 222.414 132.701 222.346 132.625 222.308C132.549 222.27 132.461 222.263 132.38 222.289Z" fill="#37474F"/>
<path d="M137.24 189.256C137.24 189.086 136.96 189.016 136.94 189.196C136.39 194.956 135.5 199.976 134.47 205.306C133.99 207.776 130.56 221.366 126.34 219.916C125.63 219.666 125.34 218.916 125.34 217.816C125.501 216.39 125.837 214.99 126.34 213.646C127.12 210.806 127.8 207.946 128.34 205.056C129.4 199.679 129.899 194.206 129.83 188.726C129.83 188.689 129.815 188.653 129.789 188.627C129.763 188.601 129.727 188.586 129.69 188.586C129.653 188.586 129.617 188.601 129.591 188.627C129.565 188.653 129.55 188.689 129.55 188.726C128.91 196.27 127.7 203.755 125.93 211.116C125.02 214.656 122.66 219.866 126.35 220.806C130.04 221.746 133.52 212.966 134.24 210.536C136.158 203.603 137.166 196.449 137.24 189.256Z" fill="#37474F"/>
<path d="M126.42 220.296C125.938 221.188 125.514 222.11 125.15 223.056C124.795 223.78 124.578 224.563 124.51 225.366C124.51 225.516 124.71 225.556 124.8 225.456C125.32 224.796 125.738 224.061 126.04 223.276C126.46 222.426 126.9 221.586 127.29 220.716C127.346 220.601 127.353 220.468 127.311 220.347C127.269 220.226 127.18 220.127 127.065 220.071C126.95 220.016 126.817 220.008 126.696 220.05C126.575 220.093 126.476 220.181 126.42 220.296Z" fill="#37474F"/>
<path d="M118.35 318.996C118.6 312.146 119.35 304.996 117.11 298.346C115.886 295.112 114.418 291.977 112.72 288.966C111.053 285.746 109.413 282.509 107.8 279.256C101.36 266.256 95.29 253.036 89.87 239.576C87.26 233.086 84.93 226.436 84 219.476C83.1433 212.167 83.5971 204.765 85.34 197.616C85.75 195.836 86.18 194.056 86.67 192.296C86.67 192.166 86.51 192.096 86.47 192.226C84.1896 198.968 82.9225 206.011 82.71 213.126C82.7564 219.952 83.9846 226.718 86.34 233.126C88.65 239.846 91.54 246.386 94.34 252.896C97.28 259.616 100.333 266.282 103.5 272.896C106.65 279.466 110.01 285.896 113.34 292.406C115.058 295.486 116.305 298.806 117.04 302.256C117.553 305.828 117.687 309.445 117.44 313.046C116.87 328.195 115.56 378.646 115.37 393.766C115.37 395.686 115.37 397.605 115.3 399.516C115.3 399.686 115.56 399.715 115.57 399.516C116.58 384.465 117.81 334.136 118.35 318.996Z" fill="#37474F"/>
<path d="M107.54 193.786C107.54 193.676 107.38 193.696 107.36 193.786C106.79 197.956 106.47 202.286 104.45 206.066C102.61 209.536 99.38 211.776 95.87 213.346C93.8242 214.223 91.7348 214.994 89.61 215.656C89.46 215.706 89.5 215.936 89.61 215.906C93.61 215.076 97.61 214.146 101.12 211.906C104.82 209.516 106.73 205.676 107.34 201.386C107.671 198.867 107.738 196.32 107.54 193.786Z" fill="#37474F"/>
<path d="M136 127.724C144.19 143.364 169.92 165.964 178.12 167.944C188.24 170.374 210.7 153.434 219.41 143.454C223.01 139.324 208 121.324 201.54 122.164C197.98 122.634 179.77 140.924 176.76 139.664C169.51 136.664 159.43 130.444 145.04 122.114C137.21 117.584 130.91 117.994 136 127.724Z" fill="#EB9481"/>
<path d="M193.78 128.197C193.78 128.197 197.86 120.927 200.36 118.127C202.86 115.327 216 108.307 217.68 111.057C219.84 114.617 213.05 120.157 209.37 122.437C209.37 122.437 214.37 130.657 210.37 135.697C206.37 140.737 193.78 128.197 193.78 128.197Z" fill="#EB9481"/>
<path d="M216.65 146.136C219.43 144.546 231.52 136.136 234.36 133.066C237.2 129.996 244.73 120.496 242.59 118.066C240.45 115.636 238.02 118.246 238.02 118.246C238.02 118.246 240.56 113.746 238.18 111.506C235.8 109.266 232.18 113.436 232.18 113.436C232.18 113.436 234.46 108.616 231.92 106.556C229.38 104.496 226.43 109.306 226.43 109.306C226.43 109.306 228.71 104.996 225.91 104.176C222.54 103.176 219.22 111.616 215.83 114.786C215.06 115.506 199.17 128.296 199.17 128.296L216.65 146.136Z" fill="#EB9481"/>
<path d="M226.67 108.909C224.21 115.099 222.07 117.379 216.77 121.239C216.67 121.319 216.77 121.489 216.87 121.419C222.4 118.109 225.51 115.639 226.97 109.019C227.05 108.689 226.79 108.619 226.67 108.909Z" fill="#263238"/>
<path d="M232.34 113.001C229.23 119.201 226.93 121.701 221.68 126.151C221.6 126.211 221.68 126.351 221.78 126.291C227.3 122.351 230.34 119.811 232.63 113.201C232.74 112.871 232.49 112.681 232.34 113.001Z" fill="#263238"/>
<path d="M237.74 118.481C234.29 124.271 231.88 127.121 226.23 130.781C226.207 130.801 226.192 130.828 226.187 130.858C226.182 130.888 226.188 130.918 226.204 130.945C226.219 130.971 226.243 130.991 226.272 131.001C226.3 131.011 226.331 131.011 226.36 131.001C232.48 127.821 235.51 124.291 237.91 118.611C238.07 118.221 238 118.121 237.74 118.481Z" fill="#263238"/>
<path d="M218 112.227C217.64 116.897 212.61 119.577 209.21 122.057C209.158 122.092 209.116 122.14 209.087 122.196C209.058 122.252 209.043 122.314 209.043 122.377C209.043 122.439 209.058 122.501 209.087 122.557C209.116 122.613 209.158 122.661 209.21 122.697C211.08 126.277 212.68 131.877 210.7 135.697C210.692 135.719 210.691 135.743 210.699 135.765C210.707 135.788 210.722 135.806 210.743 135.818C210.763 135.83 210.787 135.835 210.81 135.831C210.834 135.827 210.855 135.815 210.87 135.797C213.54 132.027 212.42 126.397 210.12 122.597C213.65 120.117 218.57 117.197 218.07 112.267L218 112.227Z" fill="#263238"/>
<path d="M164.21 131.3L154 154.91C154 154.91 136.21 132.91 132.81 124.96C129 116 134.38 116 143 119.38C151.62 122.76 164.21 131.3 164.21 131.3Z" fill="#455A64"/>
<path d="M157.75 129.424C157.451 129.415 157.159 129.333 156.9 129.184C156.656 129.04 156.454 128.833 156.315 128.586C156.177 128.338 156.106 128.058 156.11 127.774C156.102 127.401 155.986 127.039 155.774 126.731C155.563 126.424 155.266 126.185 154.92 126.044C154.6 125.93 154.256 125.895 153.92 125.944C153.6 125.944 153.27 126.014 152.92 126.074L153.92 126.194C154.223 126.201 154.52 126.276 154.79 126.414C155.039 126.548 155.248 126.745 155.396 126.985C155.543 127.226 155.624 127.502 155.63 127.784C155.626 128.156 155.73 128.521 155.931 128.834C156.132 129.147 156.42 129.394 156.76 129.544C157.074 129.683 157.42 129.731 157.76 129.684C158.09 129.634 158.42 129.614 158.76 129.554C158.41 129.494 158.08 129.464 157.75 129.424ZM132.75 123.984C132.75 123.654 132.68 123.334 132.62 122.984C132.56 123.314 132.54 123.634 132.5 123.984C132.505 124.024 132.505 124.065 132.5 124.104L132.75 124.724C132.784 124.481 132.773 124.234 132.72 123.994L132.75 123.984ZM148.94 138.284C148.721 138.491 148.452 138.639 148.16 138.714C147.887 138.785 147.6 138.782 147.327 138.707C147.055 138.631 146.808 138.486 146.61 138.284C146.342 138.026 146.004 137.851 145.638 137.781C145.272 137.712 144.894 137.751 144.55 137.894C144.227 138.044 143.948 138.275 143.74 138.564C143.54 138.824 143.33 139.064 143.14 139.344C143.41 139.154 143.66 138.944 143.92 138.744C144.138 138.531 144.401 138.37 144.69 138.274C144.961 138.196 145.247 138.189 145.521 138.256C145.795 138.323 146.046 138.46 146.25 138.654C146.44 138.852 146.671 139.005 146.926 139.104C147.182 139.203 147.456 139.245 147.729 139.227C148.003 139.209 148.269 139.131 148.509 139C148.749 138.868 148.958 138.685 149.12 138.464C149.32 138.204 149.53 137.954 149.72 137.684C149.42 137.874 149.17 138.084 148.91 138.284H148.94Z" fill="white"/>
<path d="M159.58 130.28C157.87 133.11 153.94 142.28 153.28 143.84C152.93 144.64 151.67 147.84 151.28 148.68C151.28 148.78 151.4 148.83 151.44 148.68C152.12 147.17 152.96 145.68 153.65 144.21C154.34 142.74 158.65 133.47 159.65 130.29C159.641 130.282 159.629 130.276 159.617 130.274C159.604 130.272 159.591 130.274 159.58 130.28Z" fill="#263238"/>
<path opacity="0.1" d="M132.8 124.998C136.2 132.998 153.99 154.998 153.99 154.998L159.25 142.828L134.53 117.398C131.52 117.468 130.52 119.628 132.8 124.998Z" fill="black"/>
<path d="M80.2099 194.22L148.34 207.42C148.08 208.76 151.26 160.42 146.28 126.87C144.81 116.95 133.67 112.26 123.28 121.03C101.35 139.49 80.0499 195.09 80.2099 194.22Z" fill="#455A64"/>
<path d="M94.3298 163.15L94.0098 163.79L94.2098 163.57C94.3998 163.31 94.6198 163.06 94.7998 162.79C94.6398 162.9 94.4798 163 94.3298 163.15ZM147.69 194.15C147.422 193.892 147.083 193.718 146.717 193.65C146.351 193.583 145.973 193.624 145.63 193.77C145.306 193.914 145.027 194.142 144.82 194.43C144.62 194.69 144.41 194.94 144.22 195.21C144.49 195.02 144.74 194.81 145 194.61C145.218 194.4 145.482 194.243 145.77 194.15C146.04 194.069 146.327 194.062 146.601 194.129C146.875 194.195 147.127 194.334 147.33 194.53C147.52 194.719 147.747 194.868 147.996 194.967C148.245 195.067 148.512 195.116 148.78 195.11C148.78 194.95 148.78 194.79 148.78 194.63C148.364 194.607 147.974 194.424 147.69 194.12V194.15ZM107.74 197.77C107.518 197.976 107.251 198.127 106.96 198.21C106.686 198.278 106.398 198.274 106.126 198.196C105.854 198.119 105.607 197.972 105.41 197.77C105.139 197.512 104.799 197.339 104.432 197.271C104.064 197.204 103.684 197.245 103.34 197.39C103.02 197.536 102.744 197.763 102.54 198.05L102.18 198.51H102.32L102.71 198.21C102.925 198.002 103.185 197.844 103.47 197.75C103.742 197.668 104.03 197.661 104.306 197.727C104.582 197.794 104.835 197.933 105.04 198.13C105.23 198.327 105.462 198.48 105.718 198.578C105.974 198.676 106.248 198.717 106.521 198.698C106.795 198.679 107.061 198.6 107.301 198.468C107.54 198.335 107.748 198.151 107.91 197.93C108.11 197.67 108.32 197.43 108.51 197.15C108.25 197.33 108 197.54 107.74 197.74V197.77ZM125.6 162.59C125.383 162.795 125.118 162.942 124.83 163.02C124.555 163.093 124.266 163.092 123.991 163.017C123.717 162.941 123.468 162.794 123.27 162.59C123.003 162.329 122.665 162.154 122.298 162.087C121.931 162.019 121.552 162.062 121.21 162.21C120.886 162.354 120.607 162.582 120.4 162.87C120.2 163.13 119.99 163.38 119.8 163.65C120.07 163.46 120.32 163.25 120.58 163.05C120.794 162.835 121.059 162.677 121.35 162.59C121.619 162.507 121.906 162.497 122.18 162.562C122.455 162.627 122.706 162.765 122.91 162.96C123.166 163.217 123.49 163.396 123.844 163.476C124.199 163.556 124.568 163.533 124.91 163.41C125.242 163.281 125.531 163.059 125.74 162.77C125.94 162.51 126.15 162.26 126.34 161.99C126.11 162.15 125.86 162.36 125.6 162.56V162.59ZM147.67 138.79C147.259 138.783 146.867 138.614 146.58 138.32C146.312 138.061 145.974 137.886 145.608 137.817C145.242 137.748 144.864 137.787 144.52 137.93C144.197 138.08 143.918 138.311 143.71 138.6C143.51 138.86 143.3 139.1 143.11 139.38C143.38 139.19 143.63 138.98 143.89 138.78C144.107 138.567 144.371 138.406 144.66 138.31C144.93 138.231 145.217 138.225 145.491 138.292C145.764 138.358 146.016 138.496 146.22 138.69C146.414 138.885 146.647 139.037 146.904 139.135C147.16 139.234 147.435 139.276 147.71 139.26C147.708 139.093 147.694 138.926 147.67 138.76V138.79ZM148.82 157.79C148.504 157.839 148.204 157.967 147.95 158.16C147.695 158.354 147.492 158.608 147.36 158.9C147.232 159.217 147.187 159.561 147.23 159.9C147.23 160.22 147.3 160.55 147.36 160.9C147.42 160.58 147.44 160.25 147.48 159.9C147.497 159.598 147.583 159.304 147.73 159.04C147.848 158.839 148.009 158.666 148.2 158.533C148.392 158.4 148.61 158.31 148.84 158.27C148.83 158.07 148.82 157.9 148.82 157.72V157.79ZM108.82 150.24C108.82 149.91 108.75 149.58 108.69 149.24C108.63 149.56 108.61 149.89 108.56 150.24C108.555 150.539 108.483 150.833 108.35 151.1C108.216 151.348 108.019 151.557 107.778 151.704C107.537 151.852 107.262 151.933 106.98 151.94C106.607 151.937 106.242 152.043 105.928 152.243C105.614 152.444 105.364 152.731 105.21 153.07C105.082 153.387 105.037 153.731 105.08 154.07C105.08 154.4 105.15 154.72 105.21 155.07C105.27 154.74 105.29 154.42 105.34 154.07C105.349 153.768 105.432 153.473 105.58 153.21C105.726 152.967 105.933 152.766 106.18 152.628C106.427 152.489 106.706 152.418 106.99 152.42C107.363 152.414 107.726 152.297 108.034 152.086C108.342 151.874 108.58 151.576 108.72 151.23C108.855 150.894 108.897 150.528 108.84 150.17L108.82 150.24ZM93.3798 183.32C93.3798 183 93.3098 182.67 93.2498 182.32C93.1898 182.65 93.1698 182.98 93.1298 183.32C93.1234 183.623 93.0481 183.92 92.9098 184.19C92.7767 184.439 92.5796 184.648 92.3388 184.796C92.098 184.943 91.8222 185.024 91.5398 185.03C91.1681 185.026 90.8032 185.13 90.4904 185.331C90.1775 185.532 89.9305 185.82 89.7798 186.16C89.6429 186.474 89.5944 186.82 89.6398 187.16C89.6398 187.48 89.7098 187.81 89.7698 188.16C89.8298 187.84 89.8498 187.51 89.8998 187.16C89.908 186.858 89.9904 186.563 90.1398 186.3C90.2844 186.056 90.4909 185.854 90.7385 185.715C90.9861 185.577 91.266 185.506 91.5498 185.51C91.9229 185.502 92.2856 185.386 92.593 185.174C92.9005 184.963 93.1393 184.666 93.2798 184.32C93.3944 184 93.4287 183.657 93.3798 183.32ZM124.96 181.32C124.96 181 124.89 180.67 124.83 180.32C124.77 180.64 124.75 180.97 124.7 181.32C124.696 181.622 124.625 181.92 124.49 182.19C124.356 182.438 124.159 182.647 123.918 182.794C123.677 182.942 123.402 183.023 123.12 183.03C122.747 183.029 122.383 183.134 122.069 183.335C121.755 183.535 121.505 183.822 121.35 184.16C121.222 184.477 121.177 184.821 121.22 185.16C121.22 185.48 121.29 185.81 121.35 186.16C121.41 185.84 121.43 185.51 121.48 185.16C121.488 184.858 121.57 184.563 121.72 184.3C121.864 184.056 122.071 183.854 122.319 183.715C122.566 183.577 122.846 183.506 123.13 183.51C123.503 183.502 123.866 183.386 124.173 183.174C124.48 182.963 124.719 182.666 124.86 182.32C124.996 181.988 125.045 181.626 125 181.27L124.96 181.32ZM132.72 124C132.72 123.67 132.65 123.35 132.59 123C132.53 123.33 132.51 123.65 132.47 124C132.459 124.302 132.384 124.599 132.25 124.87C132.115 125.117 131.918 125.324 131.677 125.47C131.436 125.616 131.161 125.695 130.88 125.7C130.507 125.699 130.143 125.804 129.829 126.005C129.515 126.205 129.265 126.492 129.11 126.83C128.982 127.147 128.937 127.491 128.98 127.83C128.98 128.16 129.05 128.48 129.11 128.83C129.17 128.5 129.19 128.18 129.24 127.83C129.248 127.531 129.33 127.239 129.48 126.98C129.623 126.734 129.829 126.531 130.077 126.392C130.325 126.254 130.606 126.184 130.89 126.19C131.262 126.18 131.624 126.062 131.931 125.851C132.238 125.64 132.477 125.344 132.62 125C132.734 124.68 132.769 124.336 132.72 124ZM113.28 135.8C113.068 136.013 112.807 136.171 112.52 136.26C112.25 136.343 111.964 136.353 111.689 136.288C111.415 136.223 111.163 136.085 110.96 135.89C110.837 135.759 110.691 135.65 110.53 135.57C110.437 135.71 110.337 135.85 110.23 135.99C110.362 136.062 110.484 136.153 110.59 136.26C110.859 136.52 111.199 136.695 111.567 136.763C111.936 136.83 112.316 136.788 112.66 136.64C112.98 136.494 113.256 136.267 113.46 135.98C113.66 135.72 113.88 135.47 114.06 135.2C113.79 135.39 113.54 135.6 113.28 135.8ZM142.91 174.63C142.608 174.621 142.313 174.538 142.05 174.39C141.808 174.243 141.608 174.036 141.469 173.789C141.331 173.542 141.259 173.263 141.26 172.98C141.253 172.607 141.137 172.243 140.926 171.936C140.714 171.628 140.416 171.389 140.07 171.25C139.75 171.132 139.406 171.098 139.07 171.15C138.74 171.15 138.41 171.22 138.07 171.27C138.39 171.33 138.72 171.36 139.07 171.4C139.369 171.408 139.663 171.483 139.93 171.62C140.18 171.752 140.389 171.949 140.537 172.19C140.685 172.431 140.765 172.707 140.77 172.99C140.768 173.361 140.874 173.725 141.074 174.037C141.275 174.35 141.562 174.597 141.9 174.75C142.214 174.886 142.56 174.934 142.9 174.89C143.23 174.89 143.55 174.82 143.9 174.76C143.56 174.7 143.24 174.67 142.91 174.63ZM125.12 202.2C125.116 201.826 125.001 201.462 124.789 201.153C124.577 200.845 124.278 200.607 123.93 200.47C123.612 200.345 123.266 200.31 122.93 200.37C122.6 200.37 122.27 200.43 121.93 200.49C122.25 200.55 122.58 200.58 122.93 200.62C123.23 200.623 123.525 200.698 123.79 200.84C124.04 200.972 124.249 201.169 124.397 201.41C124.545 201.651 124.625 201.927 124.63 202.21C124.627 202.425 124.664 202.639 124.74 202.84L125.34 202.96C125.201 202.73 125.125 202.468 125.12 202.2ZM107.23 176.52C106.928 176.511 106.633 176.428 106.37 176.28C106.126 176.135 105.924 175.929 105.785 175.681C105.646 175.434 105.576 175.154 105.58 174.87C105.573 174.497 105.457 174.133 105.246 173.826C105.034 173.518 104.736 173.279 104.39 173.14C104.07 173.025 103.726 172.991 103.39 173.04C103.07 173.04 102.74 173.11 102.39 173.17C102.71 173.22 103.04 173.25 103.39 173.29C103.693 173.296 103.99 173.372 104.26 173.51C104.509 173.643 104.718 173.84 104.866 174.081C105.013 174.322 105.094 174.598 105.1 174.88C105.095 175.154 105.151 175.427 105.262 175.677C105.373 175.928 105.538 176.152 105.745 176.333C105.951 176.514 106.194 176.647 106.458 176.725C106.721 176.802 106.998 176.821 107.27 176.78C107.59 176.73 107.92 176.71 108.27 176.65C107.88 176.59 107.55 176.56 107.23 176.52ZM131.23 147.76C130.93 147.752 130.637 147.666 130.38 147.51C130.136 147.368 129.934 147.163 129.795 146.917C129.656 146.671 129.585 146.393 129.59 146.11C129.581 145.737 129.464 145.375 129.252 145.068C129.041 144.761 128.745 144.522 128.4 144.38C128.081 144.259 127.737 144.221 127.4 144.27C127.07 144.27 126.75 144.34 126.4 144.4C126.73 144.46 127.05 144.49 127.4 144.53C127.703 144.532 128.002 144.607 128.27 144.75C128.518 144.884 128.727 145.081 128.874 145.322C129.022 145.562 129.103 145.838 129.11 146.12C129.107 146.49 129.211 146.853 129.41 147.165C129.609 147.478 129.893 147.726 130.23 147.88C130.545 148.013 130.891 148.058 131.23 148.01C131.56 148.01 131.89 147.94 132.23 147.88C131.91 147.83 131.58 147.8 131.25 147.76H131.23Z" fill="white"/>
<path d="M141.75 128.994C138.43 129.724 131.61 125.704 129.34 120.944C129.19 120.614 129.86 117.304 130.48 113.234C130.85 110.774 131.21 108.014 131.35 105.474C131.35 104.954 147.06 110.234 147.06 110.234C145.975 113.357 145.277 116.601 144.98 119.894C144.964 120.228 144.981 120.563 145.03 120.894C145.03 120.894 145.03 120.994 145.03 121.064C145.25 123.134 145.3 128.244 141.75 128.994Z" fill="#EB9481"/>
<path d="M145 120.998C145 120.998 145 121.108 145 121.168C144.454 121.213 143.906 121.213 143.36 121.168C134 120.448 132.18 108.578 131.87 105.578C134.68 106.138 147.02 110.298 147.02 110.298C145.93 113.42 145.228 116.665 144.93 119.958C144.928 120.306 144.951 120.654 145 120.998Z" fill="#263238"/>
<path d="M129.5 85.5686C127.63 91.1786 130.23 107.569 134.16 111.319C139.87 116.739 149.4 117.469 154.05 110.569C158.56 103.889 154.8 82.5686 150.39 79.1486C143.89 74.1186 132.24 77.2786 129.5 85.5686Z" fill="#EB9481"/>
<path d="M145.19 95.7266C145.19 95.7266 145.11 95.7866 145.12 95.8366C145.33 96.9366 145.38 98.2266 144.43 98.7466C144.43 98.7466 144.43 98.8166 144.43 98.8066C145.65 98.4466 145.56 96.7366 145.19 95.7266Z" fill="#263238"/>
<path d="M144 94.7134C142.2 94.8534 142.61 98.4434 144.27 98.3134C145.93 98.1834 145.54 94.6034 144 94.7134Z" fill="#263238"/>
<path d="M151.65 95.1797C151.65 95.1797 151.74 95.1797 151.74 95.2697C151.84 96.3797 152.13 97.6397 153.17 97.8997V97.9597C151.93 97.9297 151.56 96.2497 151.65 95.1797Z" fill="#263238"/>
<path d="M152.51 93.9056C154.28 93.5656 154.83 97.1356 153.19 97.4456C151.55 97.7556 151 94.1856 152.51 93.9056Z" fill="#263238"/>
<path d="M142.43 93.2366C142.885 93.0476 143.329 92.834 143.76 92.5966C144.26 92.4284 144.694 92.1064 145 91.6766C145.064 91.5203 145.076 91.3475 145.035 91.1837C144.993 91.02 144.901 90.8738 144.77 90.7666C144.479 90.5971 144.147 90.5078 143.81 90.5078C143.473 90.5078 143.142 90.5971 142.85 90.7666C142.212 91.0341 141.693 91.5246 141.39 92.1466C141.327 92.2941 141.309 92.4567 141.338 92.6144C141.366 92.7722 141.441 92.918 141.551 93.034C141.662 93.15 141.804 93.231 141.96 93.267C142.116 93.303 142.28 93.2924 142.43 93.2366Z" fill="#263238"/>
<path d="M153.69 91.939C153.196 91.8991 152.705 91.829 152.22 91.729C151.695 91.7336 151.184 91.5609 150.77 91.239C150.657 91.111 150.59 90.9493 150.579 90.7792C150.569 90.6091 150.614 90.4402 150.71 90.299C150.938 90.0512 151.227 89.8687 151.549 89.7702C151.871 89.6718 152.213 89.661 152.54 89.739C153.229 89.7897 153.875 90.0965 154.35 90.599C154.45 90.7208 154.513 90.8688 154.531 91.0253C154.549 91.1819 154.521 91.3403 154.452 91.4817C154.382 91.6231 154.273 91.7414 154.138 91.8225C154.003 91.9036 153.847 91.944 153.69 91.939Z" fill="#263238"/>
<path d="M146.13 102.7C146.461 103.108 146.872 103.442 147.339 103.683C147.805 103.924 148.316 104.066 148.84 104.1C149.299 104.132 149.76 104.098 150.21 104C150.299 103.991 150.386 103.971 150.47 103.94C150.552 103.929 150.632 103.909 150.71 103.88C150.768 103.864 150.819 103.829 150.853 103.779C150.888 103.73 150.904 103.67 150.9 103.61C150.905 103.57 150.905 103.53 150.9 103.49V103.39C150.83 102.53 150.6 101.24 150.6 101.24C150.93 101.36 152.6 101.9 152.53 101.45C151.994 97.6056 151.066 93.8259 149.76 90.1703C149.76 90.1438 149.749 90.1184 149.731 90.0996C149.712 90.0808 149.686 90.0703 149.66 90.0703C149.633 90.0703 149.608 90.0808 149.589 90.0996C149.57 90.1184 149.56 90.1438 149.56 90.1703C150.04 93.7203 151.14 97.1703 151.67 100.74C151.073 100.538 150.45 100.423 149.82 100.4C149.71 100.4 150.31 102.89 150.32 103.28C149.628 103.43 148.912 103.439 148.217 103.307C147.521 103.175 146.859 102.904 146.27 102.51C146.13 102.53 146.05 102.62 146.13 102.7Z" fill="#263238"/>
<path d="M150 103.798C149.552 104.51 148.929 105.095 148.19 105.497C147.782 105.701 147.32 105.771 146.87 105.697C145.87 105.537 145.77 104.697 145.87 103.887C145.926 103.476 146.034 103.073 146.19 102.688C147.309 103.454 148.644 103.843 150 103.798Z" fill="#263238"/>
<path d="M148.16 105.498C147.752 105.701 147.29 105.771 146.84 105.698C145.84 105.538 145.74 104.698 145.84 103.888C146.352 103.854 146.859 103.996 147.281 104.288C147.702 104.58 148.012 105.007 148.16 105.498Z" fill="#FF9ABB"/>
<path d="M134.76 94.7311C135.82 91.5311 133.94 86.2011 135.53 84.7311C138.95 81.6011 146.07 87.4911 150.92 87.4811C155.77 87.4711 157.16 84.4811 156.28 80.6211C155.4 76.7611 152.14 74.281 146.86 73.541C142.248 73.0507 137.61 74.1898 133.75 76.7611C133.75 76.7611 134.92 74.8511 134.47 74.2611C134.02 73.6711 131.73 75.5211 131.03 76.2611C130.522 76.9487 130.14 77.7205 129.9 78.541C129.2 78.3694 128.48 78.2987 127.76 78.3311C126.711 78.4373 125.733 78.912 125 79.671C124.92 79.951 126.63 80.161 127.83 80.211C127.83 80.211 125.62 83.211 125.69 85.741C125.76 88.271 129.81 100.321 130.76 100.441C132 100.601 134.33 96.0011 134.76 94.7311Z" fill="#263238"/>
<path d="M128.27 79.8984C128.27 79.8984 128.37 79.8984 128.33 79.9584C127.175 80.9104 126.307 82.1633 125.82 83.5784C125.35 85.2935 125.35 87.1034 125.82 88.8184C126.59 92.1484 128.25 95.1684 129.69 98.2284C129.69 98.3184 129.58 98.3984 129.54 98.3084C127.627 95.1658 126.213 91.745 125.35 88.1684C124.77 85.1284 125.45 81.6184 128.27 79.8984Z" fill="#263238"/>
<path d="M135.33 83.5142C136.756 83.3239 138.205 83.4053 139.6 83.7542C140.892 84.1942 142.125 84.7921 143.27 85.5342C145.894 87.1091 148.91 87.9099 151.97 87.8442V87.9042C149.165 88.166 146.346 87.5882 143.87 86.2442C142.642 85.5005 141.37 84.8326 140.06 84.2442C138.521 83.8196 136.924 83.6473 135.33 83.7342C135.311 83.7225 135.296 83.7063 135.285 83.687C135.275 83.6678 135.269 83.6462 135.269 83.6242C135.269 83.6022 135.275 83.5806 135.285 83.5614C135.296 83.5422 135.311 83.5259 135.33 83.5142Z" fill="#263238"/>
<path d="M136.63 75.4165C138.525 74.4696 140.545 73.7962 142.63 73.4165C144.626 72.9805 146.683 72.8925 148.71 73.1565C152.19 73.6965 155.42 75.8865 156.26 79.4565C156.723 81.2856 156.488 83.2218 155.6 84.8865C155.594 84.8983 155.586 84.9089 155.576 84.9175C155.566 84.9262 155.554 84.9328 155.542 84.937C155.529 84.9412 155.516 84.9428 155.503 84.9419C155.49 84.941 155.477 84.9374 155.465 84.9315C155.453 84.9256 155.443 84.9174 155.434 84.9075C155.425 84.8975 155.419 84.8859 155.414 84.8733C155.41 84.8608 155.409 84.8476 155.41 84.8344C155.41 84.8212 155.414 84.8083 155.42 84.7965C156.149 83.2653 156.361 81.539 156.026 79.8766C155.691 78.2143 154.825 76.7054 153.56 75.5765C150.68 73.1265 146.67 72.9665 143.11 73.5765C140.885 73.9853 138.709 74.6289 136.62 75.4965L136.63 75.4165Z" fill="#263238"/>
<path d="M133.3 99.1558C133.3 99.1558 129.63 93.8658 127.23 95.1558C124.83 96.4458 127.57 104.156 130.38 105.156C130.731 105.317 131.11 105.405 131.496 105.415C131.882 105.425 132.266 105.357 132.624 105.215C132.983 105.073 133.309 104.86 133.584 104.589C133.858 104.317 134.074 103.993 134.22 103.636L133.3 99.1558Z" fill="#EB9481"/>
<path d="M128.07 97.3438C128.07 97.3438 128.07 97.4038 128.07 97.4238C130.07 98.2238 131.07 100.064 131.79 101.964C131.675 101.766 131.519 101.595 131.331 101.464C131.144 101.332 130.931 101.242 130.706 101.2C130.481 101.158 130.25 101.166 130.028 101.221C129.806 101.277 129.598 101.38 129.42 101.524C129.42 101.524 129.42 101.634 129.48 101.624C129.826 101.516 130.198 101.517 130.543 101.628C130.889 101.739 131.192 101.954 131.41 102.244C131.776 102.734 132.085 103.264 132.33 103.824C132.43 103.994 132.75 103.904 132.68 103.704C132.71 101.134 130.77 97.6138 128.07 97.3438Z" fill="#263238"/>
<path d="M257.17 77.4672L299.88 139.147L357.41 151.867L371.74 160.717L326.29 220.407L327.98 295.407L257.17 270.627L186.35 295.407L172.02 286.567L188.04 220.407L142.59 160.717L214.44 139.147L242.84 68.6172L257.17 77.4672Z" fill="#FFC727"/>
<path opacity="0.1" d="M257.17 77.4672L299.88 139.147L357.41 151.867L371.74 160.717L326.29 220.407L327.98 295.407L257.17 270.627L186.35 295.407L172.02 286.567L188.04 220.407L142.59 160.717L214.44 139.147L242.84 68.6172L257.17 77.4672Z" fill="black"/>
<path d="M242.84 68.6172L285.56 130.297L357.41 151.867L311.96 211.557L313.65 286.567L242.84 261.777L172.02 286.567L173.71 211.557L128.26 151.867L200.12 130.297L242.84 68.6172Z" fill="#FFC727"/>
<g opacity="0.2">
<path d="M172.94 245.753L173.71 211.563L163.86 198.623L263.71 98.7734L285.55 130.303L287.73 130.963L172.94 245.753Z" fill="white"/>
<path d="M348.89 149.31L232.97 265.23L199.72 276.87L332.27 144.32L348.89 149.31Z" fill="white"/>
<path d="M165.69 140.633L139.58 166.743L130.24 154.483L134.82 149.903L165.69 140.633Z" fill="white"/>
<path d="M260.24 93.76L160.19 193.81L159.27 192.6L259.37 92.5L260.24 93.76Z" fill="white"/>
<path d="M312.9 253.289L288.44 277.749L286.87 277.199L312.85 251.219L312.9 253.289Z" fill="white"/>
</g>
<path d="M119.34 132.737C116.86 149.257 110.69 183.407 117.6 193.677C126.67 207.157 156.99 216.327 164.94 219.057C168.4 220.247 177.65 197.697 175.75 194.287C173.85 190.877 142.37 177.997 140.24 175.997C138.11 173.997 135.36 146.937 132.59 132.997C129.1 115.467 121.44 118.757 119.34 132.737Z" fill="#EB9481"/>
<path d="M185.19 202.335C183.95 200.935 184.67 200.275 187.94 200.875C191.21 201.475 203.62 206.585 205.04 202.105C206.46 197.625 188.84 190.655 183.33 190.105C177.82 189.555 168.7 190.535 168.7 190.535C171.86 192.555 179 198.245 185.19 202.335Z" fill="#EB9481"/>
<path d="M156.29 215.28C165.39 220.71 176.4 228.03 188.36 228.1C189.688 228.138 190.991 227.73 192.06 226.94C197.42 227.07 199.06 224.58 199.06 224.58C204.06 223.17 205.45 220.38 205.45 220.38C205.45 220.38 211.74 220.46 212.45 216.67C213.23 212.41 204.23 213.13 199.05 210.5C187.16 204.5 171.95 192.6 168.7 190.5L156.29 215.28Z" fill="#EB9481"/>
<path d="M182.16 212.995C185.618 214.793 189.192 216.357 192.86 217.675C196.966 218.864 201.154 219.746 205.39 220.315C205.417 220.315 205.442 220.326 205.461 220.345C205.479 220.363 205.49 220.389 205.49 220.415C205.49 220.442 205.479 220.467 205.461 220.486C205.442 220.505 205.417 220.515 205.39 220.515C197.098 220.242 189.04 217.692 182.1 213.145C181.92 212.995 182 212.855 182.16 212.995Z" fill="#263238"/>
<path d="M177.48 219.586C181.01 221.056 187.23 223.586 199.1 224.446C199.1 224.446 199.15 224.516 199.1 224.516C191.568 224.973 184.058 223.325 177.41 219.756C177.2 219.646 177.25 219.486 177.48 219.586Z" fill="#263238"/>
<path d="M175 223.21C181.1 225.47 185.23 226.13 192 226.91V226.99C184.21 226.9 181.39 225.99 174.9 223.41C174.7 223.32 174.8 223.12 175 223.21Z" fill="#263238"/>
<path d="M137.16 151.996L112.94 160.056C112.94 160.056 117.45 132.346 121.08 124.576C125.16 115.826 128.74 119.826 131.95 128.416C135.16 137.006 137.16 151.996 137.16 151.996Z" fill="#455A64"/>
<path d="M131.25 147.757C130.95 147.749 130.657 147.663 130.4 147.507C130.156 147.365 129.954 147.161 129.815 146.915C129.676 146.669 129.605 146.39 129.61 146.107C129.601 145.735 129.484 145.373 129.272 145.065C129.061 144.758 128.765 144.519 128.42 144.378C128.101 144.256 127.757 144.218 127.42 144.268C127.09 144.268 126.77 144.337 126.42 144.397C126.75 144.457 127.07 144.487 127.42 144.527C127.723 144.529 128.022 144.605 128.29 144.747C128.538 144.881 128.747 145.079 128.894 145.319C129.042 145.56 129.123 145.835 129.13 146.117C129.127 146.488 129.231 146.851 129.43 147.163C129.629 147.475 129.913 147.723 130.25 147.878C130.565 148.011 130.911 148.056 131.25 148.007C131.58 148.007 131.91 147.938 132.25 147.878C131.91 147.828 131.58 147.797 131.25 147.757ZM130.84 125.688C130.476 125.701 130.123 125.813 129.818 126.012C129.513 126.211 129.268 126.489 129.11 126.817C128.982 127.134 128.937 127.479 128.98 127.817C128.98 128.147 129.05 128.468 129.11 128.818C129.17 128.488 129.19 128.167 129.24 127.817C129.248 127.519 129.331 127.227 129.48 126.967C129.623 126.722 129.829 126.519 130.077 126.38C130.325 126.241 130.606 126.171 130.89 126.177C130.946 126.187 131.004 126.187 131.06 126.177C131 125.997 130.91 125.858 130.84 125.688Z" fill="white"/>
<path d="M134.85 147.925C131.63 148.525 122.22 151.715 120.66 152.225C119.83 152.495 116.6 153.715 115.78 153.975C115.67 153.975 115.78 154.165 115.85 154.135C117.42 153.635 119.04 153.295 120.62 152.805C122.2 152.315 131.89 149.425 134.89 148.045C135 147.995 134.92 147.905 134.85 147.925Z" fill="#263238"/>
<path d="M117.88 135.418C117.88 135.298 117.73 135.278 117.7 135.418C117.05 137.718 116.46 140.028 115.91 142.358C115.912 141.107 116.029 139.858 116.26 138.628C116.26 138.568 116.19 138.558 116.17 138.628C115.855 140.042 115.724 141.491 115.78 142.938C115.4 144.558 115.03 146.178 114.68 147.808C113.8 151.948 112.87 156.088 112.22 160.268C112.213 160.319 112.22 160.371 112.239 160.419C112.259 160.466 112.29 160.508 112.33 160.54C112.37 160.572 112.418 160.594 112.469 160.602C112.52 160.61 112.572 160.606 112.62 160.588C113.45 160.278 114.27 159.948 115.08 159.588C115.16 159.588 115.14 159.398 115.08 159.418C114.36 159.558 113.65 159.748 112.94 159.928C113.94 155.928 114.65 151.928 115.5 147.928C116.35 143.928 117.17 139.588 117.88 135.418Z" fill="#263238"/>
<path d="M135.74 141.154C135.65 139.804 135.55 138.464 135.42 137.154C135.42 138.154 135.5 139.154 135.56 140.154C135.13 138.224 134.67 136.304 134.12 134.414C134.53 137.414 135.12 140.324 135.57 143.284C136.02 146.244 136.57 149.074 137.06 151.964C136.54 152.234 136.01 152.484 135.48 152.734C135.465 152.746 135.455 152.762 135.45 152.78C135.445 152.799 135.445 152.818 135.452 152.836C135.459 152.853 135.471 152.869 135.487 152.879C135.502 152.89 135.521 152.895 135.54 152.894C136.16 152.724 136.78 152.554 137.41 152.404C137.483 152.394 137.55 152.356 137.596 152.299C137.643 152.241 137.666 152.168 137.66 152.094C137.1 148.404 136.5 144.764 135.74 141.154Z" fill="#263238"/>
<path d="M375.05 273.336V295.826H379.49V303.496L387.16 295.826H452.09V273.336H375.05Z" fill="white"/>
<path d="M375.05 273.334C375.12 280.914 375.32 288.414 375.35 295.824L375.05 295.524H379.49H379.81V295.854V303.524L379.18 303.254L386.8 295.554L386.93 295.434H387.11L452.04 295.364L451.55 295.854V273.364L452 273.814C429.81 273.814 397.5 273.544 375 273.364L375.05 273.334ZM375.05 273.334C397.81 273.214 429.63 272.864 452.05 272.884H452.5V273.334V295.824V296.314H452.01L387.08 296.254L387.38 296.124L379.67 303.754L379.03 304.384V303.494V295.824L379.36 296.154H374.92H374.62V295.854C374.62 288.274 374.85 280.774 374.91 273.364L375.05 273.334Z" fill="#263238"/>
<path d="M386.54 279.305L388.29 281.915L391.32 282.775L389.38 285.245L389.49 288.395L386.54 287.305L383.58 288.395L383.7 285.245L381.76 282.775L384.79 281.915L386.54 279.305Z" fill="#FFC727"/>
<path d="M400.06 279.305L401.81 281.915L404.83 282.775L402.89 285.245L403.01 288.395L400.06 287.305L397.1 288.395L397.22 285.245L395.27 282.775L398.3 281.915L400.06 279.305Z" fill="#FFC727"/>
<path d="M413.57 279.305L415.32 281.915L418.35 282.775L416.41 285.245L416.52 288.395L413.57 287.305L410.62 288.395L410.74 285.245L408.79 282.775L411.82 281.915L413.57 279.305Z" fill="#FFC727"/>
<path d="M427.09 279.305L428.84 281.915L431.87 282.775L429.92 285.245L430.04 288.395L427.09 287.305L424.13 288.395L424.25 285.245L422.31 282.775L425.33 281.915L427.09 279.305Z" fill="#FFC727"/>
<path d="M440.6 287.305V279.305L438.85 281.915L435.82 282.775L437.77 285.245L437.65 288.395L440.6 287.305Z" fill="#FFC727"/>
<path d="M440.6 279.305L442.44 281.855C443.14 281.955 444.5 282.395 445.44 282.615L445.67 282.675L445.52 282.875L443.62 285.385V285.245L443.76 288.385V288.725L443.44 288.605L440.44 287.545H440.61L437.61 288.605L437.28 288.725V288.385L437.41 285.245L437.46 285.385L435.55 282.875L435.4 282.675L435.64 282.615C436.56 282.395 437.93 281.945 438.64 281.855L440.47 279.305H440.6ZM440.6 279.305L438.93 282.005C437.93 282.395 436.88 282.645 435.87 283.005L435.95 282.745L437.95 285.185C437.964 285.206 437.971 285.23 437.971 285.255C437.971 285.28 437.964 285.304 437.95 285.325L437.85 288.475L437.54 288.245L440.49 287.145C440.58 287.145 440.57 287.145 440.66 287.145L443.61 288.245L443.3 288.475L443.2 285.325C443.2 285.245 443.2 285.245 443.2 285.185L445.2 282.745L445.29 283.005C444.29 282.675 443.21 282.425 442.23 282.005L440.55 279.345L440.6 279.305Z" fill="#263238"/>
<path d="M160.03 38.5703V76.8503H164.46V84.5203L172.13 76.8503H250.3V38.5703H160.03Z" fill="white"/>
<path d="M160 38.5709C160.13 49.8609 160.22 65.7609 160.28 76.8509L160 76.5709H164.73V76.8609V84.5309L164.17 84.3009L171.81 76.6109L171.92 76.5009L230.7 76.3709H250.24L249.79 76.8109L249.88 38.5309L250.24 38.9009C227.74 38.9009 182.47 38.6709 159.97 38.5309L160 38.5709ZM160 38.5709C182.49 38.4409 227.78 38.2309 250.27 38.2109H250.63V38.5709L250.72 76.8509V77.3009H250.27C228.47 77.4109 194.15 77.3009 172.1 77.2209L172.36 77.1109L164.66 84.7509L164.11 85.3009V84.5209V76.8509L164.4 77.1509H159.97H159.69C159.7 65.8809 160 50.0009 160 38.5709Z" fill="#263238"/>
<path d="M191.06 57.7594C191.06 59.9152 190.421 62.0226 189.223 63.8151C188.025 65.6076 186.323 67.0047 184.331 67.8297C182.34 68.6547 180.148 68.8705 178.034 68.4499C175.919 68.0294 173.977 66.9912 172.453 65.4668C170.928 63.9424 169.89 62.0003 169.469 59.8859C169.049 57.7715 169.265 55.5798 170.09 53.5881C170.915 51.5964 172.312 49.8941 174.104 48.6964C175.897 47.4986 178.004 46.8594 180.16 46.8594C183.051 46.8594 185.823 48.0078 187.867 50.0519C189.912 52.0961 191.06 54.8685 191.06 57.7594Z" fill="#EBEBEB"/>
<path d="M180.3 59.6178C182.194 59.6178 183.73 58.0821 183.73 56.1878C183.73 54.2935 182.194 52.7578 180.3 52.7578C178.406 52.7578 176.87 54.2935 176.87 56.1878C176.87 58.0821 178.406 59.6178 180.3 59.6178Z" fill="white"/>
<path d="M174.38 65.65V67.06C175.383 67.6864 176.48 68.1458 177.63 68.42C179.082 68.7801 180.591 68.8452 182.068 68.6116C183.545 68.378 184.96 67.8504 186.23 67.06V65.65C186.263 64.8515 186.134 64.0545 185.851 63.307C185.568 62.5596 185.137 61.877 184.583 61.3004C184.03 60.7238 183.366 60.265 182.63 59.9515C181.895 59.6381 181.104 59.4766 180.305 59.4766C179.506 59.4766 178.715 59.6381 177.98 59.9515C177.244 60.265 176.58 60.7238 176.027 61.3004C175.473 61.877 175.042 62.5596 174.759 63.307C174.476 64.0545 174.347 64.8515 174.38 65.65Z" fill="white"/>
<path d="M239.66 51.1406H198.78V51.7606H239.66V51.1406Z" fill="#EBEBEB"/>
<path d="M239.66 55.3828H198.78V56.0028H239.66V55.3828Z" fill="#EBEBEB"/>
<path d="M239.66 59.6172H198.78V60.2372H239.66V59.6172Z" fill="#EBEBEB"/>
<path d="M219.04 63.8594H198.78V64.4794H219.04V63.8594Z" fill="#EBEBEB"/>
</svg>
