<svg width="529" height="529" viewBox="0 0 529 529" fill="none" xmlns="http://www.w3.org/2000/svg">
<path d="M265.674 486.49C400.587 486.49 509.956 423.344 509.956 345.448C509.956 267.553 400.587 204.406 265.674 204.406C130.761 204.406 21.3928 267.553 21.3928 345.448C21.3928 423.344 130.761 486.49 265.674 486.49Z" fill="#F5F5F5"/>
<path d="M89.454 434.68L86.1319 432.722C85.5818 432.359 85.1241 431.873 84.7953 431.301C84.4665 430.73 84.2757 430.09 84.238 429.432V183.204C84.2773 182.547 84.4689 181.909 84.7976 181.34C85.1263 180.771 85.5831 180.286 86.1319 179.924L238.907 91.7079C239.496 91.4119 240.147 91.2578 240.806 91.2578C241.466 91.2578 242.116 91.4119 242.705 91.7079L246.027 93.6334C246.578 93.9943 247.037 94.4787 247.368 95.048C247.698 95.6174 247.891 96.2561 247.932 96.9132V343.184C247.893 343.843 247.701 344.484 247.37 345.055C247.039 345.626 246.579 346.112 246.027 346.474L93.2522 434.68C92.6629 434.976 92.0125 435.13 91.3531 435.13C90.6936 435.13 90.0433 434.976 89.454 434.68Z" fill="#37474F"/>
<path d="M247.911 96.6064C247.773 95.633 246.979 95.2733 246.027 95.8235L93.2521 184.029C92.6905 184.375 92.2277 184.859 91.9084 185.436L84.7881 181.331C85.1104 180.756 85.5726 180.272 86.1318 179.924L238.907 91.7079C239.496 91.4119 240.147 91.2578 240.806 91.2578C241.465 91.2578 242.116 91.4119 242.705 91.7079L246.027 93.6334C246.536 93.9648 246.968 94.4019 247.293 94.9149C247.618 95.4278 247.828 96.0047 247.911 96.6064Z" fill="#455A64"/>
<path d="M92.9136 434.835C92.8789 434.844 92.8426 434.844 92.8078 434.835L92.6068 434.91H92.5328C92.4164 434.91 92.3 434.973 92.1836 435.005C91.4308 435.151 90.6527 435.092 89.9301 434.835C89.7844 434.783 89.6429 434.719 89.5069 434.645L86.1319 432.719C85.5818 432.356 85.1241 431.87 84.7953 431.299C84.4665 430.727 84.2757 430.087 84.238 429.429V183.201C84.2613 182.54 84.4505 181.896 84.7882 181.328L91.9085 185.433C91.5641 185.999 91.371 186.644 91.3478 187.306V433.587C91.3308 433.941 91.4313 434.291 91.6335 434.582C91.7623 434.729 91.9293 434.837 92.1161 434.895C92.3029 434.953 92.502 434.958 92.6915 434.91L92.9136 434.835Z" fill="#263238"/>
<path d="M146.48 173.32C146.431 173.062 146.314 172.821 146.142 172.622L146.015 172.516C145.915 172.441 145.798 172.392 145.674 172.373C145.55 172.355 145.424 172.368 145.306 172.411C145.212 172.433 145.122 172.473 145.041 172.527C144.572 172.851 144.204 173.302 143.983 173.828C143.701 174.424 143.549 175.073 143.539 175.733C143.496 176.225 143.648 176.715 143.962 177.097C144.102 177.232 144.283 177.314 144.476 177.329C144.669 177.345 144.861 177.293 145.02 177.182C145.247 177.046 145.447 176.87 145.613 176.664C145.764 176.467 145.898 176.258 146.015 176.039C146.34 175.403 146.517 174.701 146.533 173.987C146.539 173.763 146.521 173.54 146.48 173.32ZM171.322 117.807C170.771 117.483 170.142 117.315 169.502 117.32C168.289 117.377 167.109 117.741 166.074 118.378C163.187 120.146 160.957 122.81 159.726 125.964C159.525 126.409 159.335 126.874 159.166 127.329C158.996 127.784 158.817 128.25 158.668 128.726C158.52 129.202 158.351 129.678 158.213 130.154C158.161 130.313 158.118 130.482 158.065 130.63L157.79 131.593C157.795 131.639 157.795 131.685 157.79 131.73C157.632 132.312 157.483 132.915 157.314 133.508C157.23 133.836 157.156 134.143 157.071 134.46L156.828 135.402C156.489 136.661 156.15 137.867 155.77 139.02L155.526 139.718C155.41 140.046 155.293 140.374 155.166 140.692C155.04 141.009 154.965 141.178 154.87 141.401C154.712 141.792 154.542 142.162 154.362 142.522C154.183 142.882 154.14 142.977 154.024 143.199C151.347 148.341 148.078 150.351 146.184 152.996C144.523 155.303 144.068 157.144 141.825 160.794C141.116 161.957 140.228 163.301 139.064 164.909C135.837 169.353 134.684 171.554 134.292 172.887C134.288 172.922 134.288 172.957 134.292 172.992C134.292 173.098 134.292 173.193 134.218 173.289C134.214 173.32 134.214 173.352 134.218 173.384C134.214 173.468 134.214 173.553 134.218 173.638C134.181 173.897 134.163 174.159 134.165 174.421V184.302L137.72 186.355V176.463C137.711 175.946 137.786 175.432 137.942 174.939C138.334 173.606 139.476 171.416 142.714 166.972C143.878 165.354 144.766 164.01 145.475 162.846C147.697 159.207 148.173 157.355 149.834 155.07C151.728 152.414 154.997 150.415 157.674 145.262C158.06 144.47 158.403 143.658 158.7 142.829C160.414 138.597 161.186 132.894 163.292 128.101C164.52 124.952 166.751 122.293 169.64 120.537C171.809 119.288 173.396 119.183 174.612 119.754L171.322 117.807ZM186.906 130.44C186.611 130.271 186.294 130.143 185.965 130.059C184.621 129.741 182.622 130.524 180.611 130.292C183.436 133.942 187.361 131.593 189.52 132.111C189.855 132.192 190.177 132.324 190.472 132.503L186.906 130.44ZM194.439 144.014C194.334 144.078 194.235 144.153 194.143 144.236L193.995 144.384L193.858 144.543C193.264 145.31 192.937 146.25 192.926 147.22C192.891 147.706 193.038 148.189 193.339 148.574C193.379 148.612 193.422 148.647 193.466 148.68C193.564 148.755 193.679 148.804 193.802 148.823C193.924 148.841 194.049 148.828 194.164 148.785C194.262 148.762 194.355 148.723 194.439 148.669C194.545 148.606 194.64 148.521 194.746 148.447C194.9 148.303 195.038 148.143 195.159 147.971C195.662 147.234 195.938 146.366 195.952 145.474C195.952 144.194 195.275 143.527 194.439 144.014ZM196.767 135.074C195.625 134.437 194.384 133.997 193.096 133.772C192.546 133.645 192.038 133.508 191.625 133.37C193.041 134.63 194.776 135.476 196.64 135.814C197.772 136.034 198.873 136.39 199.92 136.872L196.767 135.074Z" fill="#FCBB1B"/>
<path d="M200.206 137.056L199.92 136.887C198.873 136.404 197.772 136.049 196.64 135.829C194.775 135.492 193.039 134.646 191.625 133.385C191.271 133.057 190.885 132.767 190.472 132.517C190.176 132.342 189.855 132.214 189.52 132.136C187.404 131.618 183.436 133.967 180.622 130.316L180.527 130.2C178.559 127.545 177.839 121.62 174.888 119.885L174.591 119.715C173.375 119.144 171.788 119.25 169.619 120.498C161.8 125.016 161.536 135.744 158.721 142.801C155.907 149.858 151.908 152.069 149.739 155.105C147.57 158.142 147.422 160.395 142.608 167.019C137.794 173.642 137.614 175.271 137.614 176.541V186.422L201.644 149.392V139.511C201.683 139.004 201.566 138.497 201.309 138.058C201.052 137.62 200.667 137.27 200.206 137.056ZM145.041 177.186C144.206 177.673 143.539 177.027 143.539 175.736C143.531 175.128 143.662 174.525 143.922 173.975C144.183 173.425 144.565 172.942 145.041 172.562C145.877 172.076 146.544 172.732 146.544 174.022C146.552 174.63 146.421 175.23 146.161 175.779C145.9 176.327 145.517 176.809 145.041 177.186ZM169.619 147.414C169.218 147.719 168.75 147.924 168.254 148.013C167.757 148.101 167.247 148.07 166.765 147.922C166.284 147.775 165.844 147.514 165.483 147.163C165.122 146.811 164.849 146.378 164.688 145.901C164.136 144.65 163.872 143.29 163.916 141.923C163.916 137.067 166.466 131.66 169.619 129.84C170.045 129.586 170.509 129.404 170.994 129.301C173.491 128.804 175.321 131.195 175.321 135.331C175.321 140.188 172.772 145.594 169.619 147.414ZM194.439 148.662C193.604 149.149 192.926 148.504 192.926 147.223C192.92 146.614 193.053 146.011 193.315 145.461C193.578 144.911 193.962 144.428 194.439 144.049C195.275 143.573 195.952 144.219 195.952 145.509C195.959 146.116 195.825 146.715 195.563 147.262C195.301 147.809 194.916 148.288 194.439 148.662Z" fill="#FCBB1B"/>
<path opacity="0.1" d="M200.206 137.056L199.92 136.887C198.873 136.404 197.772 136.049 196.64 135.829C194.775 135.492 193.039 134.646 191.625 133.385C191.271 133.057 190.885 132.767 190.472 132.517C190.176 132.342 189.855 132.214 189.52 132.136C187.404 131.618 183.436 133.967 180.622 130.316L180.527 130.2C178.559 127.545 177.839 121.62 174.888 119.885L174.591 119.715C173.375 119.144 171.788 119.25 169.619 120.498C161.8 125.016 161.536 135.744 158.721 142.801C155.907 149.858 151.908 152.069 149.739 155.105C147.57 158.142 147.422 160.395 142.608 167.019C137.794 173.642 137.614 175.271 137.614 176.541V186.422L201.644 149.392V139.511C201.683 139.004 201.566 138.497 201.309 138.058C201.052 137.62 200.667 137.27 200.206 137.056ZM145.041 177.186C144.206 177.673 143.539 177.027 143.539 175.736C143.531 175.128 143.662 174.525 143.922 173.975C144.183 173.425 144.565 172.942 145.041 172.562C145.877 172.076 146.544 172.732 146.544 174.022C146.552 174.63 146.421 175.23 146.161 175.779C145.9 176.327 145.517 176.809 145.041 177.186ZM169.619 147.414C169.218 147.719 168.75 147.924 168.254 148.013C167.757 148.101 167.247 148.07 166.765 147.922C166.284 147.775 165.844 147.514 165.483 147.163C165.122 146.811 164.849 146.378 164.688 145.901C164.136 144.65 163.872 143.29 163.916 141.923C163.916 137.067 166.466 131.66 169.619 129.84C170.045 129.586 170.509 129.404 170.994 129.301C173.491 128.804 175.321 131.195 175.321 135.331C175.321 140.188 172.772 145.594 169.619 147.414ZM194.439 148.662C193.604 149.149 192.926 148.504 192.926 147.223C192.92 146.614 193.053 146.011 193.315 145.461C193.578 144.911 193.962 144.428 194.439 144.049C195.275 143.573 195.952 144.219 195.952 145.509C195.959 146.116 195.825 146.715 195.563 147.262C195.301 147.809 194.916 148.288 194.439 148.662Z" fill="black"/>
<path opacity="0.25" d="M137.836 174.982C137.68 175.475 137.605 175.989 137.614 176.506V186.398L134.059 184.346V174.464C134.057 174.202 134.075 173.94 134.112 173.681C134.108 173.596 134.108 173.512 134.112 173.427C134.108 173.395 134.108 173.363 134.112 173.332C134.112 173.237 134.112 173.141 134.186 173.035V172.93L137.836 174.982Z" fill="black"/>
<path opacity="0.25" d="M149.728 155.11C148.067 157.396 147.612 159.247 145.369 162.887L141.825 160.813C144.047 157.163 144.523 155.322 146.184 153.016L149.728 155.11Z" fill="black"/>
<path opacity="0.25" d="M163.313 128.019C161.197 132.811 160.435 138.461 158.721 142.746C158.388 143.603 158.007 144.44 157.579 145.253L154.024 143.211C154.14 142.989 154.256 142.756 154.362 142.534C154.468 142.312 154.711 141.804 154.87 141.413C154.965 141.191 155.071 140.947 155.166 140.704C155.262 140.461 155.41 140.059 155.526 139.731L155.769 139.032C156.15 137.879 156.489 136.673 156.827 135.414L157.071 134.472C157.155 134.155 157.229 133.848 157.314 133.52C157.483 132.928 157.631 132.325 157.79 131.743C157.795 131.697 157.795 131.651 157.79 131.605L158.065 130.642C158.118 130.494 158.16 130.325 158.213 130.166C158.351 129.69 158.51 129.214 158.668 128.738C158.827 128.262 158.986 127.807 159.166 127.341C159.345 126.876 159.525 126.421 159.726 125.977L163.313 128.019Z" fill="black"/>
<path d="M143.973 173.828C143.69 174.424 143.538 175.073 143.528 175.733C143.486 176.226 143.638 176.715 143.951 177.098C143.647 176.711 143.5 176.223 143.539 175.733C143.551 175.075 143.698 174.426 143.973 173.828ZM146.554 173.987C146.553 173.763 146.528 173.539 146.48 173.321C146.525 173.54 146.546 173.763 146.544 173.987C146.531 174.701 146.357 175.402 146.036 176.04C146.361 175.403 146.538 174.702 146.554 173.987ZM193.466 148.68C193.564 148.755 193.679 148.804 193.801 148.823C193.923 148.841 194.048 148.828 194.164 148.785C194.047 148.822 193.924 148.832 193.803 148.813C193.682 148.795 193.567 148.749 193.466 148.68Z" fill="#FCBB1B"/>
<path d="M175.332 135.33C175.332 140.186 172.772 145.593 169.619 147.412C169.215 147.706 168.748 147.903 168.255 147.986C167.762 148.068 167.257 148.036 166.779 147.89C166.301 147.744 165.863 147.49 165.501 147.146C165.138 146.803 164.86 146.379 164.688 145.91C165.178 145.805 165.646 145.619 166.074 145.36C169.248 143.529 171.777 138.134 171.777 133.277C171.823 131.909 171.556 130.548 170.994 129.299C173.512 128.802 175.332 131.193 175.332 135.33Z" fill="#FCBB1B"/>
<path opacity="0.3" d="M175.332 135.33C175.332 140.186 172.772 145.593 169.619 147.412C169.215 147.706 168.748 147.903 168.255 147.986C167.762 148.068 167.257 148.036 166.779 147.89C166.301 147.744 165.863 147.49 165.501 147.146C165.138 146.803 164.86 146.379 164.688 145.91C165.178 145.805 165.646 145.619 166.074 145.36C169.248 143.529 171.777 138.134 171.777 133.277C171.823 131.909 171.556 130.548 170.994 129.299C173.512 128.802 175.332 131.193 175.332 135.33Z" fill="black"/>
<path d="M146.004 176.04C145.897 176.262 145.766 176.471 145.613 176.664C145.447 176.87 145.247 177.046 145.02 177.182C144.861 177.293 144.669 177.345 144.476 177.329C144.283 177.314 144.101 177.232 143.962 177.098C143.648 176.715 143.496 176.226 143.539 175.733C143.549 175.074 143.701 174.424 143.983 173.828C144.204 173.302 144.572 172.851 145.041 172.527C145.122 172.473 145.211 172.433 145.306 172.411C145.451 172.36 145.607 172.354 145.756 172.391C145.904 172.429 146.038 172.509 146.142 172.622C146.314 172.821 146.431 173.062 146.48 173.321C146.528 173.54 146.553 173.763 146.554 173.987C146.538 174.706 146.349 175.409 146.004 176.04Z" fill="#37474F"/>
<path d="M195.952 145.479C195.938 146.371 195.662 147.239 195.159 147.976C195.038 148.148 194.9 148.308 194.746 148.452C194.64 148.526 194.545 148.611 194.439 148.674C194.355 148.728 194.262 148.767 194.164 148.79C194.021 148.839 193.867 148.844 193.72 148.807C193.574 148.769 193.441 148.69 193.339 148.579C193.038 148.194 192.891 147.712 192.926 147.225C192.937 146.255 193.264 145.315 193.857 144.548L193.995 144.389L194.143 144.241C194.235 144.158 194.334 144.083 194.439 144.019C195.275 143.532 195.952 144.199 195.952 145.479Z" fill="#37474F"/>
<path d="M103.166 207.059L236.114 130.301C236.467 130.124 236.856 130.031 237.251 130.031C237.646 130.031 238.036 130.124 238.389 130.301L239.669 131.042C240 131.26 240.276 131.553 240.474 131.896C240.672 132.24 240.788 132.625 240.811 133.021V335.839C240.789 336.234 240.674 336.618 240.475 336.96C240.277 337.301 240 337.592 239.669 337.807L106.72 414.565C106.369 414.748 105.979 414.843 105.583 414.843C105.187 414.843 104.797 414.748 104.446 414.565L103.166 413.824C102.833 413.61 102.557 413.319 102.358 412.977C102.16 412.635 102.045 412.251 102.023 411.856V209.038C102.044 208.641 102.158 208.255 102.357 207.912C102.556 207.568 102.833 207.276 103.166 207.059Z" fill="#F5F5F5"/>
<path d="M240.769 132.676C240.621 132.211 240.187 132.063 239.711 132.359L106.721 209.117C106.384 209.329 106.107 209.624 105.916 209.974L102.362 207.921C102.545 207.569 102.824 207.276 103.166 207.075L236.114 130.317C236.463 130.134 236.852 130.039 237.246 130.039C237.64 130.039 238.029 130.134 238.378 130.317L239.669 131.047C239.951 131.232 240.194 131.471 240.383 131.751C240.572 132.031 240.703 132.345 240.769 132.676Z" fill="#FAFAFA"/>
<path d="M106.456 414.74C106.319 414.791 106.177 414.827 106.033 414.846H105.811C105.582 414.872 105.351 414.872 105.123 414.846C104.978 414.828 104.836 414.792 104.7 414.74L104.446 414.613L103.166 413.872C102.832 413.659 102.555 413.369 102.356 413.027C102.157 412.684 102.043 412.3 102.023 411.904V209.043C102.034 208.646 102.151 208.259 102.362 207.922L105.916 209.974C105.716 210.315 105.603 210.701 105.588 211.096V413.914C105.588 414.539 105.948 414.846 106.456 414.74Z" fill="#E0E0E0"/>
<path d="M158.975 160.477L158.795 160.773C158.371 161.466 158.064 162.223 157.885 163.016C157.885 163.079 157.885 163.111 157.885 163.143C157.883 163.16 157.883 163.178 157.885 163.196L155.716 175.405L155.039 179.309C155.039 179.468 154.965 179.626 154.923 179.796C154.882 179.953 154.832 180.109 154.775 180.261C154.775 180.367 154.701 180.473 154.658 180.579L158.213 182.631C158.383 182.223 158.507 181.797 158.584 181.361L159.282 177.457L161.398 165.248C161.559 164.27 161.938 163.34 162.509 162.529L158.975 160.477Z" fill="#FCBB1B"/>
<path d="M134.493 199.87C134.133 200.441 133.795 201.013 133.435 201.584C133.287 201.859 133.139 202.134 133.001 202.409C132.864 202.684 132.663 203.118 132.514 203.467C132.366 203.816 132.176 204.25 132.028 204.652C131.88 205.054 131.732 205.456 131.594 205.858C131.456 206.26 131.287 206.8 131.16 207.276C131.076 207.583 130.991 207.89 130.906 208.218C130.709 208.965 130.529 209.727 130.367 210.503C130.367 210.767 130.25 211.043 130.208 211.307C130.166 211.572 130.07 211.963 130.018 212.28C130.018 212.28 130.018 212.28 130.018 212.333C130.018 212.587 130.018 212.756 130.145 212.831C130.161 212.838 130.179 212.842 130.197 212.842C130.216 212.842 130.234 212.838 130.25 212.831L133.308 210.439L133.805 210.048L134.049 209.868L134.313 209.657L134.525 209.498L134.705 209.35C135.597 206.115 137.087 203.076 139.095 200.388L135.54 198.336C135.191 198.844 134.831 199.362 134.493 199.87Z" fill="#FCBB1B"/>
<path d="M172.962 133.617C172.793 133.892 172.645 134.167 172.496 134.442C172.399 134.594 172.314 134.753 172.243 134.919C172.116 135.141 172.01 135.373 171.893 135.606C171.777 135.839 171.703 135.977 171.618 136.167C171.439 136.527 171.28 136.886 171.132 137.225C170.984 137.564 170.793 138.008 170.645 138.399C170.497 138.748 170.38 139.098 170.264 139.457C170.074 139.986 169.915 140.515 169.767 141.055C169.682 141.341 169.619 141.616 169.545 141.891C169.546 141.912 169.546 141.933 169.545 141.954C169.545 142.102 169.471 142.24 169.449 142.388C169.365 142.716 169.301 143.055 169.248 143.383C169.196 143.711 169.143 143.901 169.069 144.165C168.995 144.43 168.931 144.716 168.846 144.991C168.762 145.266 168.677 145.509 168.592 145.774C168.592 145.774 168.592 145.774 168.592 145.848C168.487 146.133 168.37 146.43 168.243 146.726C168.116 147.022 168.011 147.308 167.862 147.615C167.826 147.694 167.794 147.775 167.767 147.858C167.661 148.08 167.545 148.302 167.439 148.535L166.879 149.593C166.752 149.847 166.625 150.08 166.487 150.323L170.053 152.376C171.334 150.214 172.269 147.865 172.824 145.414C173.497 141.95 174.764 138.628 176.57 135.596L172.962 133.617Z" fill="#FCBB1B"/>
<path d="M194.111 141.526C193.935 141.419 193.736 141.354 193.53 141.336C193.875 141.887 194.339 142.354 194.888 142.702C195.438 143.049 196.058 143.27 196.704 143.346C197.009 143.35 197.312 143.415 197.592 143.537L194.111 141.526Z" fill="#FCBB1B"/>
<path opacity="0.4" d="M194.111 141.526C193.935 141.419 193.736 141.354 193.53 141.336C193.875 141.887 194.339 142.354 194.888 142.702C195.438 143.049 196.058 143.27 196.704 143.346C197.009 143.35 197.312 143.415 197.592 143.537L194.111 141.526Z" fill="white"/>
<path d="M207.368 156.983C206.81 156.71 206.193 156.577 205.572 156.595C204.951 156.614 204.344 156.783 203.803 157.089C199.666 158.909 197.878 159.734 195.741 160.622C195.328 163.373 196.947 163.627 197.751 163.299C200.755 162.114 202.29 161.384 207.368 159.152C207.905 158.851 208.506 158.683 209.121 158.663C209.736 158.643 210.346 158.77 210.902 159.035L207.368 156.983Z" fill="#FCBB1B"/>
<path opacity="0.4" d="M207.368 156.983C206.81 156.71 206.193 156.577 205.572 156.595C204.951 156.614 204.344 156.783 203.803 157.089C199.666 158.909 197.878 159.734 195.741 160.622C195.328 163.373 196.947 163.627 197.751 163.299C200.755 162.114 202.29 161.384 207.368 159.152C207.905 158.851 208.506 158.683 209.121 158.663C209.736 158.643 210.346 158.77 210.902 159.035L207.368 156.983Z" fill="white"/>
<path d="M158.192 182.631C157.427 184.306 156.349 185.822 155.018 187.095L143.888 195.464C142.109 196.913 140.504 198.564 139.106 200.384L135.551 198.331C136.946 196.506 138.551 194.851 140.333 193.401L151.485 185.043C152.792 183.76 153.85 182.247 154.606 180.578L158.192 182.631Z" fill="#FCBB1B"/>
<path opacity="0.4" d="M158.192 182.631C157.427 184.306 156.349 185.822 155.018 187.095L143.888 195.464C142.109 196.913 140.504 198.564 139.106 200.384L135.551 198.331C136.946 196.506 138.551 194.851 140.333 193.401L151.485 185.043C152.792 183.76 153.85 182.247 154.606 180.578L158.192 182.631Z" fill="white"/>
<path d="M169.999 152.459C168.464 155.298 166.573 157.929 164.371 160.288C163.678 160.967 163.06 161.719 162.53 162.531L158.975 160.478C159.497 159.66 160.115 158.907 160.816 158.235C163.014 155.875 164.902 153.244 166.434 150.406L169.999 152.459Z" fill="#FCBB1B"/>
<path opacity="0.4" d="M169.999 152.459C168.464 155.298 166.573 157.929 164.371 160.288C163.678 160.967 163.06 161.719 162.53 162.531L158.975 160.478C159.497 159.66 160.115 158.907 160.816 158.235C163.014 155.875 164.902 153.244 166.434 150.406L169.999 152.459Z" fill="white"/>
<path d="M190.08 126.185C188.769 125.497 187.023 125.614 184.97 126.693C181.923 128.291 178.855 131.676 176.506 135.675L172.951 133.559C175.279 129.56 178.347 126.153 181.415 124.577C182.412 124.014 183.53 123.699 184.674 123.657C185.359 123.648 186.034 123.819 186.631 124.154L190.08 126.185Z" fill="#FCBB1B"/>
<path opacity="0.4" d="M190.08 126.185C188.769 125.497 187.023 125.614 184.97 126.693C181.923 128.291 178.855 131.676 176.506 135.675L172.951 133.559C175.279 129.56 178.347 126.153 181.415 124.577C182.412 124.014 183.53 123.699 184.674 123.657C185.359 123.648 186.034 123.819 186.631 124.154L190.08 126.185Z" fill="white"/>
<path opacity="0.15" d="M139.138 200.383C137.129 203.071 135.64 206.11 134.747 209.344L134.567 209.492L134.356 209.651L134.091 209.863L133.848 210.042L133.35 210.434L130.335 212.846C130.319 212.854 130.3 212.858 130.282 212.858C130.264 212.858 130.246 212.854 130.229 212.846C130.113 212.772 130.06 212.603 130.102 212.349C130.102 212.349 130.102 212.349 130.102 212.296C130.102 211.979 130.219 211.651 130.293 211.323C130.367 210.995 130.399 210.783 130.452 210.519C130.614 209.75 130.794 208.988 130.991 208.233C131.076 207.905 131.16 207.598 131.245 207.292C131.372 206.816 131.52 206.35 131.679 205.874C131.837 205.398 131.954 205.07 132.113 204.668C132.271 204.266 132.419 203.874 132.599 203.483C132.779 203.091 132.917 202.753 133.086 202.425C133.255 202.097 133.372 201.875 133.52 201.6C133.827 201.028 134.165 200.457 134.578 199.886C134.99 199.314 135.276 198.828 135.636 198.352L139.138 200.383Z" fill="black"/>
<path opacity="0.15" d="M162.53 162.529C161.96 163.34 161.58 164.27 161.419 165.248L159.303 177.457L158.605 181.361C158.529 181.797 158.404 182.223 158.235 182.631L154.68 180.579C154.68 180.473 154.764 180.367 154.796 180.261C154.854 180.109 154.903 179.953 154.944 179.796C154.944 179.626 155.029 179.468 155.061 179.309L155.738 175.405L157.907 163.196C157.904 163.178 157.904 163.16 157.907 163.143C157.907 163.143 157.907 163.079 157.907 163.016C158.085 162.223 158.392 161.466 158.816 160.773L158.996 160.477L162.53 162.529Z" fill="black"/>
<path opacity="0.15" d="M176.517 135.682C174.711 138.714 173.444 142.036 172.772 145.5C172.216 147.951 171.281 150.3 170 152.461L166.434 150.409C166.572 150.166 166.699 149.933 166.826 149.679L167.386 148.621C167.492 148.388 167.608 148.166 167.714 147.944C167.741 147.861 167.773 147.78 167.809 147.7C167.947 147.404 168.074 147.097 168.19 146.812C168.307 146.526 168.434 146.219 168.54 145.934C168.54 145.934 168.54 145.881 168.54 145.86C168.624 145.595 168.719 145.341 168.793 145.077C168.867 144.812 168.952 144.526 169.016 144.251C169.079 143.976 169.143 143.722 169.195 143.468C169.248 143.215 169.312 142.802 169.396 142.474C169.396 142.326 169.46 142.188 169.492 142.04C169.494 142.019 169.494 141.998 169.492 141.977C169.566 141.702 169.629 141.427 169.714 141.141C169.862 140.601 170.021 140.083 170.211 139.543C170.328 139.184 170.444 138.834 170.592 138.485C170.74 138.094 170.909 137.702 171.079 137.311C171.248 136.919 171.386 136.591 171.565 136.253C171.65 136.062 171.745 135.883 171.84 135.692C171.936 135.502 172.063 135.227 172.19 135.004C172.261 134.839 172.346 134.68 172.444 134.528C172.592 134.253 172.74 133.978 172.909 133.703L176.517 135.682Z" fill="black"/>
<path d="M130.303 212.85L133.308 210.438C132.113 211.4 130.483 212.659 130.303 212.85Z" fill="#FCBB1B"/>
<path d="M210.912 159.058C210.356 158.793 209.744 158.665 209.128 158.683C208.511 158.701 207.908 158.866 207.368 159.164C202.3 161.407 200.766 162.137 197.762 163.333C196.957 163.65 195.339 163.396 195.751 160.645C195.747 160.585 195.747 160.525 195.751 160.465L196.439 156.561L198.365 145.918C198.365 145.918 198.798 144.236 197.687 143.612H197.603C197.33 143.477 197.029 143.412 196.725 143.421C196.077 143.342 195.456 143.118 194.907 142.766C194.358 142.415 193.894 141.944 193.551 141.39C192.957 140.506 192.545 139.513 192.34 138.469C192.134 137.424 192.14 136.349 192.355 135.306C193.17 130.736 192.281 127.541 190.239 126.356L190.08 126.25C188.769 125.562 187.023 125.678 184.97 126.758C179.564 129.593 174.105 138.004 172.772 145.558C171.936 150.319 167.143 157.651 164.371 160.37C161.599 163.089 161.419 165.332 161.419 165.332L159.303 177.542L158.605 181.446C158.097 184.366 155.103 187.191 155.103 187.191L143.888 195.464C139.439 199.004 136.227 203.864 134.715 209.345C134.715 209.345 130.483 212.583 130.272 212.847L131.7 212.032L208.638 167.797C208.638 167.797 209.527 167.321 209.696 167.194C209.865 167.067 212.986 164.147 212.986 164.147C212.933 161.629 212.203 159.831 210.912 159.058ZM188.694 136.618C187.869 141.263 184.526 146.436 181.204 148.182C178.908 149.378 177.226 148.637 176.665 146.521C176.419 145.335 176.419 144.11 176.665 142.924C177.48 138.279 180.844 133.106 184.166 131.37C184.474 131.203 184.796 131.065 185.129 130.958C187.848 130.133 189.382 132.45 188.673 136.618H188.694Z" fill="#FCBB1B"/>
<path d="M130.314 212.859L208.69 167.809L209.748 167.206C209.939 167.09 213.039 164.148 213.039 164.148L134.747 209.346C134.747 209.346 130.007 213.028 130.314 212.859Z" fill="#FCBB1B"/>
<path opacity="0.3" d="M130.314 212.859L208.69 167.809L209.748 167.206C209.939 167.09 213.039 164.148 213.039 164.148L134.747 209.346C134.747 209.346 130.007 213.028 130.314 212.859Z" fill="black"/>
<path d="M185.15 130.962C184.817 131.07 184.495 131.208 184.187 131.375C180.865 133.11 177.501 138.284 176.686 142.928C176.44 144.115 176.44 145.339 176.686 146.526C177.247 148.642 178.929 149.382 181.225 148.187C184.547 146.441 187.89 141.267 188.715 136.623C189.382 132.454 187.848 130.137 185.15 130.962ZM176.898 146.441C176.664 145.296 176.664 144.116 176.898 142.971C177.712 138.379 181.024 133.269 184.304 131.566C184.576 131.421 184.859 131.298 185.15 131.195C185.367 132.313 185.367 133.463 185.15 134.581C184.335 139.225 180.982 144.399 177.649 146.145C177.407 146.272 177.156 146.382 176.898 146.473V146.441Z" fill="#FCBB1B"/>
<path opacity="0.4" d="M185.15 130.962C184.817 131.07 184.495 131.208 184.187 131.375C180.865 133.11 177.501 138.284 176.686 142.928C176.44 144.115 176.44 145.339 176.686 146.526C177.247 148.642 178.929 149.382 181.225 148.187C184.547 146.441 187.89 141.267 188.715 136.623C189.382 132.454 187.848 130.137 185.15 130.962ZM176.898 146.441C176.664 145.296 176.664 144.116 176.898 142.971C177.712 138.379 181.024 133.269 184.304 131.566C184.576 131.421 184.859 131.298 185.15 131.195C185.367 132.313 185.367 133.463 185.15 134.581C184.335 139.225 180.982 144.399 177.649 146.145C177.407 146.272 177.156 146.382 176.898 146.473V146.441Z" fill="black"/>
<path d="M123.437 272.635C123.27 272.635 123.105 272.591 122.961 272.508C122.787 272.395 122.647 272.237 122.557 272.05C122.468 271.864 122.432 271.656 122.453 271.45V266.932C122.469 266.526 122.583 266.13 122.786 265.778C122.988 265.426 123.274 265.128 123.617 264.911L127.563 262.636C127.727 262.528 127.917 262.468 128.113 262.461C128.309 262.455 128.503 262.504 128.673 262.601C128.844 262.699 128.983 262.842 129.077 263.015C129.17 263.187 129.214 263.382 129.203 263.578V268.138C129.189 268.544 129.076 268.941 128.873 269.293C128.67 269.646 128.384 269.943 128.039 270.159L124.093 272.444C123.895 272.564 123.668 272.63 123.437 272.635ZM128.219 263.388C128.156 263.405 128.096 263.43 128.039 263.462L124.093 265.736C123.895 265.87 123.73 266.047 123.61 266.254C123.491 266.462 123.421 266.693 123.405 266.932V271.492C123.388 271.554 123.388 271.62 123.405 271.682C123.468 271.672 123.529 271.65 123.585 271.619L127.531 269.334C127.73 269.2 127.895 269.023 128.014 268.816C128.133 268.608 128.203 268.377 128.219 268.138V263.578C128.224 263.532 128.224 263.486 128.219 263.441V263.388Z" fill="#455A64"/>
<path d="M132.557 261.986L148.11 253.003C148.628 252.707 149.041 252.94 149.041 253.532V254.749C149.022 255.07 148.928 255.382 148.766 255.659C148.605 255.937 148.38 256.172 148.11 256.347L132.557 265.329C132.049 265.625 131.626 265.393 131.626 264.8V263.583C131.645 263.263 131.739 262.951 131.9 262.673C132.062 262.396 132.287 262.16 132.557 261.986Z" fill="#E0E0E0"/>
<path d="M161.98 250.387C161.813 250.388 161.648 250.345 161.504 250.26C161.328 250.149 161.186 249.991 161.094 249.804C161.003 249.617 160.965 249.409 160.985 249.202V244.642C161.003 244.235 161.119 243.839 161.324 243.487C161.528 243.135 161.815 242.838 162.16 242.621L166.106 240.346C166.269 240.229 166.462 240.161 166.663 240.15C166.863 240.139 167.063 240.185 167.238 240.283C167.409 240.386 167.547 240.534 167.637 240.712C167.727 240.89 167.764 241.09 167.746 241.288V245.848C167.732 246.254 167.619 246.651 167.416 247.003C167.213 247.355 166.927 247.653 166.582 247.869L162.636 250.154C162.442 250.289 162.215 250.369 161.98 250.387ZM166.751 241.14C166.693 241.161 166.637 241.186 166.582 241.214L162.636 243.489C162.436 243.622 162.269 243.798 162.148 244.006C162.027 244.213 161.955 244.445 161.937 244.684V249.244C161.917 249.306 161.917 249.373 161.937 249.435C162 249.422 162.061 249.401 162.117 249.371L166.064 247.086C166.263 246.953 166.429 246.776 166.548 246.569C166.668 246.362 166.737 246.129 166.751 245.89V241.33C166.77 241.268 166.77 241.202 166.751 241.14Z" fill="#455A64"/>
<path d="M171.1 239.736L186.652 230.753C187.171 230.457 187.583 230.69 187.583 231.282V232.499C187.565 232.82 187.471 233.132 187.309 233.409C187.147 233.687 186.922 233.922 186.652 234.097L171.1 243.079C170.581 243.375 170.169 243.143 170.169 242.55V241.333C170.193 241.014 170.289 240.704 170.45 240.428C170.612 240.151 170.834 239.914 171.1 239.736Z" fill="#E0E0E0"/>
<path d="M200.512 228.138C200.345 228.139 200.181 228.095 200.036 228.011C199.864 227.897 199.725 227.738 199.636 227.552C199.547 227.366 199.509 227.159 199.528 226.953V222.393C199.545 221.987 199.659 221.592 199.862 221.24C200.065 220.888 200.35 220.59 200.692 220.372L204.638 218.097C204.803 217.985 204.996 217.922 205.194 217.915C205.393 217.907 205.59 217.956 205.762 218.056C205.935 218.155 206.076 218.301 206.169 218.477C206.262 218.653 206.303 218.851 206.289 219.05V223.599C206.273 224.006 206.157 224.403 205.953 224.755C205.748 225.108 205.46 225.404 205.114 225.62L201.168 227.905C200.975 228.041 200.748 228.121 200.512 228.138ZM201.168 221.24C200.971 221.375 200.808 221.553 200.689 221.759C200.57 221.966 200.499 222.197 200.48 222.435V226.995C200.459 227.057 200.459 227.124 200.48 227.186C200.541 227.179 200.599 227.157 200.65 227.122L204.596 224.837C204.796 224.704 204.962 224.527 205.083 224.32C205.204 224.113 205.277 223.881 205.294 223.641V219.092C205.314 219.026 205.314 218.957 205.294 218.891C205.294 218.891 205.231 218.891 205.114 218.965L201.168 221.24Z" fill="#455A64"/>
<path d="M209.643 217.486L225.195 208.503C225.703 208.207 226.126 208.44 226.126 209.032V210.249C226.102 210.568 226.006 210.878 225.845 211.155C225.683 211.432 225.461 211.668 225.195 211.847L209.643 220.829C209.124 221.125 208.712 220.893 208.712 220.3V219.083C208.73 218.763 208.824 218.451 208.986 218.173C209.148 217.896 209.373 217.66 209.643 217.486Z" fill="#E0E0E0"/>
<path d="M132.599 239.726V241.503C132.599 242.476 133.276 242.868 134.112 242.381L225.1 189.894C225.541 189.604 225.908 189.215 226.171 188.757C226.434 188.299 226.585 187.786 226.613 187.259V185.471C226.613 184.509 225.936 184.117 225.1 184.593L134.112 237.091C133.671 237.381 133.304 237.77 133.041 238.228C132.778 238.686 132.627 239.199 132.599 239.726Z" fill="#E0E0E0"/>
<path d="M125.669 225.843V227.62C125.669 228.594 126.347 228.985 127.193 228.498L218.128 176.011C218.572 175.724 218.942 175.335 219.207 174.877C219.472 174.419 219.624 173.905 219.652 173.377V171.588C219.652 170.626 218.974 170.234 218.128 170.71L127.193 223.24C126.753 223.524 126.386 223.908 126.121 224.36C125.856 224.812 125.702 225.32 125.669 225.843Z" fill="#455A64"/>
<path d="M132.599 250.481V252.269C132.599 253.231 133.276 253.623 134.112 253.147L225.1 200.659C225.541 200.37 225.908 199.98 226.171 199.523C226.434 199.065 226.585 198.552 226.613 198.025V196.237C226.613 195.274 225.936 194.883 225.1 195.359L134.112 247.857C133.672 248.145 133.306 248.533 133.044 248.989C132.781 249.444 132.629 249.955 132.599 250.481Z" fill="#E0E0E0"/>
<path d="M122.633 251.4C125.013 249.041 125.606 248.036 125.606 247.168C125.606 246.301 125.257 245.835 124.188 246.449C123.726 246.717 123.329 247.084 123.023 247.523C122.718 247.961 122.513 248.461 122.421 248.988L119.819 249.57C120.045 248.206 120.56 246.907 121.328 245.757C122.096 244.608 123.1 243.636 124.273 242.905C126.875 241.402 128.388 242.524 128.388 245.021C128.243 247.451 127.185 249.737 125.426 251.421V253.485L122.633 255.093V251.4Z" fill="#455A64"/>
<path d="M122.601 258.255C122.597 257.746 122.725 257.246 122.974 256.802C123.223 256.359 123.583 255.988 124.019 255.726C124.95 255.187 125.426 255.663 125.426 256.625C125.434 257.136 125.308 257.64 125.062 258.087C124.815 258.535 124.455 258.91 124.019 259.175C123.077 259.715 122.601 259.207 122.601 258.255Z" fill="#455A64"/>
<path d="M124.051 266.931L125.214 267.81L124.156 269.82C124.065 269.942 124.016 270.09 124.016 270.243C124.016 270.395 124.065 270.544 124.156 270.666C124.357 270.814 124.643 270.666 124.812 270.349L125.87 268.349L127.034 269.227C127.203 269.354 127.457 269.227 127.605 268.952C127.684 268.847 127.726 268.719 127.726 268.587C127.726 268.456 127.684 268.328 127.605 268.222L126.442 267.344L127.5 265.334C127.591 265.211 127.64 265.063 127.64 264.911C127.64 264.758 127.591 264.61 127.5 264.487C127.299 264.339 127.013 264.487 126.844 264.805L125.786 266.815L124.622 265.937C124.453 265.81 124.199 265.937 124.051 266.201C123.972 266.307 123.93 266.435 123.93 266.566C123.93 266.698 123.972 266.826 124.051 266.931Z" fill="#FCBB1B"/>
<path d="M123.437 312.807C123.271 312.811 123.106 312.771 122.961 312.691C122.787 312.578 122.647 312.42 122.557 312.233C122.468 312.047 122.432 311.839 122.453 311.633V307.073C122.467 306.666 122.58 306.27 122.783 305.917C122.986 305.565 123.272 305.268 123.617 305.052L127.563 302.777C127.727 302.669 127.917 302.608 128.113 302.602C128.309 302.596 128.503 302.644 128.673 302.742C128.844 302.84 128.983 302.983 129.077 303.155C129.17 303.328 129.214 303.523 129.203 303.719V308.279C129.189 308.685 129.076 309.082 128.873 309.434C128.67 309.786 128.384 310.083 128.039 310.299L124.093 312.574C123.899 312.709 123.672 312.789 123.437 312.807ZM128.219 303.571C128.155 303.582 128.093 303.608 128.039 303.645L124.093 305.919C123.895 306.053 123.73 306.23 123.61 306.437C123.491 306.645 123.421 306.876 123.405 307.115V311.675C123.388 311.737 123.388 311.803 123.405 311.865C123.468 311.855 123.529 311.833 123.585 311.802L127.531 309.517C127.73 309.383 127.895 309.206 128.014 308.999C128.133 308.791 128.203 308.56 128.219 308.321V303.761C128.229 303.698 128.229 303.634 128.219 303.571Z" fill="#455A64"/>
<path d="M132.557 302.155L148.11 293.183C148.628 292.887 149.041 293.12 149.041 293.712V294.918C149.024 295.241 148.931 295.555 148.769 295.834C148.607 296.114 148.381 296.351 148.11 296.526L132.557 305.509C132.049 305.805 131.626 305.562 131.626 304.969V303.763C131.644 303.441 131.737 303.127 131.899 302.848C132.061 302.568 132.286 302.331 132.557 302.155Z" fill="#E0E0E0"/>
<path d="M161.98 290.556C161.813 290.561 161.649 290.521 161.504 290.439C161.328 290.329 161.186 290.171 161.094 289.984C161.003 289.797 160.965 289.589 160.985 289.381V284.821C161.001 284.414 161.117 284.017 161.321 283.665C161.526 283.313 161.814 283.016 162.16 282.801L166.106 280.526C166.269 280.409 166.462 280.341 166.663 280.33C166.863 280.319 167.063 280.365 167.238 280.462C167.409 280.565 167.547 280.714 167.637 280.892C167.727 281.07 167.764 281.269 167.746 281.468V286.028C167.732 286.434 167.619 286.831 167.416 287.183C167.213 287.535 166.927 287.832 166.582 288.048L162.636 290.323C162.442 290.458 162.215 290.538 161.98 290.556ZM166.751 281.319C166.691 281.334 166.634 281.359 166.582 281.394L162.636 283.668C162.436 283.801 162.269 283.978 162.148 284.185C162.027 284.392 161.955 284.624 161.937 284.864V289.424C161.917 289.485 161.917 289.552 161.937 289.614C162 289.602 162.061 289.581 162.117 289.551L166.064 287.265C166.262 287.132 166.427 286.955 166.546 286.747C166.665 286.54 166.736 286.308 166.751 286.07V281.51C166.77 281.448 166.77 281.382 166.751 281.319Z" fill="#455A64"/>
<path d="M171.1 279.905L186.652 270.933C187.171 270.637 187.583 270.87 187.583 271.462V272.668C187.566 272.991 187.473 273.305 187.311 273.584C187.15 273.864 186.924 274.101 186.652 274.276L171.1 283.259C170.581 283.555 170.169 283.259 170.169 282.719V281.513C170.191 281.192 170.287 280.88 170.448 280.601C170.61 280.323 170.832 280.084 171.1 279.905Z" fill="#E0E0E0"/>
<path d="M200.512 268.306C200.346 268.311 200.182 268.271 200.036 268.19C199.864 268.076 199.725 267.918 199.636 267.731C199.547 267.545 199.509 267.338 199.528 267.132V262.572C199.545 262.166 199.659 261.771 199.862 261.419C200.065 261.067 200.35 260.769 200.692 260.551L204.638 258.277C204.802 258.165 204.994 258.102 205.192 258.095C205.389 258.087 205.585 258.135 205.757 258.233C205.929 258.331 206.07 258.475 206.164 258.649C206.258 258.824 206.301 259.021 206.289 259.218V263.778C206.273 264.185 206.157 264.582 205.953 264.935C205.748 265.287 205.46 265.584 205.114 265.799L201.168 268.074C200.975 268.209 200.748 268.29 200.512 268.306ZM201.168 261.419C200.971 261.554 200.808 261.732 200.689 261.939C200.57 262.145 200.499 262.376 200.48 262.614V267.174C200.459 267.236 200.459 267.303 200.48 267.365C200.539 267.351 200.596 267.33 200.65 267.301L204.596 265.016C204.796 264.883 204.962 264.706 205.083 264.499C205.204 264.292 205.277 264.06 205.294 263.821V259.261C205.313 259.198 205.313 259.132 205.294 259.07C205.231 259.086 205.17 259.111 205.114 259.144L201.168 261.419Z" fill="#455A64"/>
<path d="M209.643 257.655L225.195 248.683C225.703 248.387 226.126 248.62 226.126 249.212V250.418C226.104 250.739 226.008 251.051 225.847 251.33C225.685 251.609 225.463 251.847 225.195 252.026L209.643 261.009C209.124 261.305 208.712 261.062 208.712 260.469V259.263C208.729 258.941 208.822 258.627 208.984 258.347C209.146 258.067 209.371 257.83 209.643 257.655Z" fill="#E0E0E0"/>
<path d="M132.599 279.895V281.683C132.599 282.645 133.276 283.037 134.112 282.561L225.1 230.073C225.541 229.784 225.908 229.394 226.171 228.937C226.434 228.479 226.585 227.966 226.613 227.439V225.651C226.613 224.688 225.936 224.297 225.1 224.773L134.112 277.271C133.672 277.559 133.306 277.947 133.044 278.403C132.781 278.859 132.629 279.369 132.599 279.895Z" fill="#E0E0E0"/>
<path d="M132.599 290.667V292.455C132.599 293.418 133.276 293.809 134.112 293.333L225.1 240.835C225.542 240.549 225.91 240.162 226.173 239.706C226.436 239.249 226.587 238.737 226.613 238.211V236.423C226.613 235.45 225.936 235.058 225.1 235.545L134.112 288.043C133.672 288.332 133.306 288.719 133.044 289.175C132.781 289.631 132.629 290.142 132.599 290.667Z" fill="#E0E0E0"/>
<path d="M122.633 291.586C125.013 289.227 125.606 288.222 125.606 287.354C125.606 286.487 125.257 286.021 124.188 286.635C123.726 286.903 123.329 287.27 123.023 287.709C122.718 288.147 122.513 288.647 122.421 289.174L119.819 289.756C120.045 288.392 120.56 287.093 121.328 285.943C122.096 284.794 123.1 283.821 124.273 283.09C126.875 281.588 128.388 282.71 128.388 285.259C128.243 287.69 127.185 289.976 125.426 291.66V293.723L122.633 295.332V291.586Z" fill="#455A64"/>
<path d="M122.601 298.442C122.597 297.934 122.725 297.433 122.974 296.99C123.223 296.546 123.583 296.175 124.019 295.914C124.95 295.374 125.426 295.85 125.426 296.813C125.433 297.323 125.307 297.827 125.06 298.274C124.813 298.721 124.455 299.096 124.019 299.363C123.077 299.902 122.601 299.416 122.601 298.442Z" fill="#455A64"/>
<path d="M162.594 284.825L163.757 285.703L162.699 287.714C162.608 287.836 162.559 287.984 162.559 288.137C162.559 288.289 162.608 288.438 162.699 288.56C162.89 288.708 163.186 288.56 163.355 288.243L164.413 286.243L165.577 287.121C165.746 287.248 166 287.121 166.138 286.846C166.216 286.74 166.258 286.612 166.258 286.481C166.258 286.35 166.216 286.222 166.138 286.116L164.974 285.238L166.032 283.228C166.117 283.1 166.158 282.949 166.149 282.796C166.139 282.643 166.08 282.497 165.979 282.381C165.789 282.244 165.493 282.381 165.323 282.699L164.265 284.709L163.101 283.831C162.943 283.704 162.689 283.831 162.541 284.095C162.468 284.206 162.434 284.337 162.444 284.469C162.453 284.601 162.506 284.726 162.594 284.825Z" fill="#FCBB1B"/>
<path d="M123.437 352.991C123.27 352.992 123.106 352.948 122.961 352.864C122.79 352.761 122.652 352.613 122.562 352.435C122.472 352.257 122.435 352.057 122.453 351.859V347.299C122.467 346.893 122.58 346.496 122.783 346.144C122.986 345.791 123.272 345.494 123.617 345.278L127.563 343.004C127.727 342.895 127.917 342.835 128.113 342.829C128.31 342.822 128.503 342.871 128.674 342.969C128.844 343.066 128.983 343.209 129.077 343.382C129.17 343.554 129.214 343.749 129.203 343.945V348.505C129.189 348.912 129.076 349.308 128.873 349.661C128.67 350.013 128.384 350.31 128.039 350.526L124.093 352.801C123.895 352.92 123.669 352.986 123.437 352.991ZM128.219 343.755C128.155 343.767 128.093 343.792 128.039 343.829L124.093 346.104C123.895 346.237 123.73 346.414 123.61 346.622C123.491 346.829 123.421 347.061 123.405 347.299V351.859C123.389 351.922 123.389 351.987 123.405 352.05C123.47 352.038 123.531 352.013 123.585 351.975L127.531 349.701C127.73 349.567 127.895 349.39 128.014 349.183C128.133 348.976 128.203 348.744 128.219 348.505V343.945C128.229 343.882 128.229 343.818 128.219 343.755Z" fill="#455A64"/>
<path d="M132.557 342.335L148.11 333.353C148.628 333.057 149.041 333.3 149.041 333.892V335.099C149.024 335.421 148.931 335.735 148.769 336.015C148.607 336.294 148.381 336.531 148.11 336.707L132.557 345.689C132.049 345.985 131.626 345.742 131.626 345.15V343.943C131.644 343.621 131.737 343.307 131.899 343.028C132.061 342.748 132.286 342.511 132.557 342.335Z" fill="#E0E0E0"/>
<path d="M161.98 330.743C161.812 330.745 161.648 330.701 161.504 330.616C161.331 330.515 161.191 330.367 161.099 330.189C161.007 330.011 160.968 329.811 160.985 329.611V325.051C161.001 324.644 161.117 324.247 161.321 323.895C161.526 323.543 161.814 323.246 162.16 323.03L166.106 320.756C166.271 320.644 166.463 320.578 166.662 320.565C166.861 320.552 167.06 320.592 167.238 320.682C167.41 320.796 167.549 320.954 167.638 321.14C167.728 321.327 167.765 321.534 167.746 321.74V326.3C167.732 326.706 167.618 327.103 167.416 327.455C167.213 327.807 166.926 328.104 166.582 328.32L162.636 330.595C162.434 330.7 162.208 330.751 161.98 330.743ZM166.751 321.507C166.691 321.522 166.634 321.547 166.582 321.581L162.636 323.856C162.436 323.989 162.269 324.165 162.148 324.373C162.027 324.58 161.955 324.812 161.937 325.051V329.611C161.919 329.673 161.919 329.739 161.937 329.802C162.001 329.788 162.062 329.763 162.117 329.727L166.106 327.453C166.304 327.319 166.469 327.142 166.589 326.935C166.708 326.728 166.778 326.496 166.794 326.257V321.697C166.801 321.631 166.787 321.564 166.751 321.507Z" fill="#455A64"/>
<path d="M171.1 320.088L186.652 311.106C187.171 310.82 187.583 311.053 187.583 311.646V312.852C187.566 313.174 187.473 313.488 187.311 313.768C187.15 314.047 186.924 314.285 186.652 314.46L171.1 323.442C170.581 323.738 170.169 323.495 170.169 322.903V321.697C170.191 321.375 170.287 321.064 170.448 320.785C170.61 320.506 170.832 320.268 171.1 320.088Z" fill="#E0E0E0"/>
<path d="M200.512 308.489C200.345 308.49 200.181 308.446 200.036 308.362C199.865 308.259 199.727 308.111 199.637 307.933C199.548 307.755 199.51 307.555 199.528 307.357V302.797C199.542 302.391 199.656 301.994 199.859 301.642C200.061 301.289 200.348 300.992 200.692 300.776L204.638 298.502C204.8 298.386 204.991 298.319 205.189 298.307C205.387 298.295 205.585 298.338 205.759 298.433C205.933 298.528 206.078 298.67 206.175 298.843C206.272 299.016 206.319 299.213 206.31 299.411V303.971C206.294 304.379 206.179 304.776 205.974 305.128C205.769 305.48 205.481 305.777 205.136 305.992L201.189 308.267C200.989 308.403 200.754 308.48 200.512 308.489ZM201.168 301.602C200.972 301.737 200.808 301.914 200.689 302.121C200.57 302.328 200.499 302.559 200.48 302.797V307.357C200.462 307.419 200.462 307.485 200.48 307.548C200.541 307.533 200.598 307.507 200.65 307.473L204.596 305.199C204.796 305.066 204.963 304.889 205.084 304.682C205.205 304.475 205.277 304.242 205.294 304.003V299.411C205.313 299.349 205.313 299.283 205.294 299.221C205.232 299.235 205.172 299.256 205.115 299.285L201.168 301.602Z" fill="#455A64"/>
<path d="M209.643 297.837L225.195 288.855C225.703 288.569 226.126 288.855 226.126 289.394V290.601C226.104 290.922 226.008 291.234 225.847 291.512C225.685 291.791 225.463 292.029 225.195 292.209L209.643 301.191C209.124 301.487 208.712 301.244 208.712 300.652V299.414C208.733 299.097 208.829 298.789 208.991 298.515C209.152 298.242 209.376 298.009 209.643 297.837Z" fill="#E0E0E0"/>
<path d="M132.599 320.079V321.867C132.599 322.83 133.276 323.221 134.112 322.745L225.1 270.247C225.542 269.961 225.91 269.574 226.173 269.118C226.436 268.662 226.587 268.149 226.613 267.623V265.835C226.613 264.873 225.936 264.471 225.1 264.957L134.112 317.455C133.672 317.744 133.306 318.132 133.044 318.587C132.781 319.043 132.629 319.554 132.599 320.079Z" fill="#E0E0E0"/>
<path d="M132.599 330.847V332.635C132.599 333.597 133.276 333.989 134.112 333.502L225.1 281.015C225.541 280.727 225.908 280.34 226.171 279.884C226.434 279.428 226.585 278.916 226.613 278.391V276.603C226.613 275.63 225.936 275.238 225.1 275.725L134.112 328.223C133.671 328.51 133.304 328.897 133.041 329.353C132.779 329.809 132.627 330.321 132.599 330.847Z" fill="#E0E0E0"/>
<path d="M122.633 331.767C125.013 329.408 125.606 328.403 125.606 327.535C125.606 326.668 125.257 326.192 124.188 326.816C123.726 327.085 123.329 327.451 123.023 327.89C122.718 328.328 122.513 328.829 122.421 329.355L119.819 329.927C120.047 328.565 120.562 327.267 121.33 326.12C122.098 324.972 123.101 324.002 124.273 323.272C126.875 321.769 128.388 322.891 128.388 325.388C128.243 327.818 127.185 330.105 125.426 331.789V333.852L122.633 335.46V331.767Z" fill="#455A64"/>
<path d="M122.601 338.626C122.596 338.116 122.724 337.613 122.973 337.168C123.222 336.723 123.582 336.35 124.019 336.087C124.95 335.558 125.426 336.034 125.426 336.996C125.432 337.507 125.305 338.01 125.059 338.457C124.812 338.904 124.454 339.279 124.019 339.546C123.077 340.086 122.601 339.62 122.601 338.626Z" fill="#455A64"/>
<path d="M201.136 302.759L202.29 303.638L201.232 305.648C201.139 305.769 201.089 305.918 201.089 306.071C201.089 306.224 201.139 306.373 201.232 306.494C201.422 306.642 201.718 306.494 201.888 306.177L202.946 304.167L204.109 305.045C204.279 305.172 204.522 305.045 204.67 304.78C204.75 304.675 204.793 304.547 204.793 304.415C204.793 304.283 204.75 304.155 204.67 304.05L203.506 303.172L204.564 301.162C204.645 301.033 204.683 300.882 204.673 300.73C204.664 300.579 204.607 300.434 204.511 300.316C204.321 300.167 204.025 300.316 203.855 300.633L202.797 302.643L201.634 301.754C201.464 301.627 201.21 301.754 201.073 302.029C201.002 302.141 200.97 302.273 200.981 302.405C200.993 302.537 201.047 302.662 201.136 302.759Z" fill="#FCBB1B"/>
<path d="M123.437 393.173C123.27 393.173 123.106 393.129 122.961 393.046C122.79 392.943 122.652 392.794 122.562 392.616C122.472 392.438 122.435 392.239 122.453 392.04V387.481C122.467 387.074 122.58 386.678 122.783 386.325C122.986 385.973 123.272 385.676 123.617 385.46L127.563 383.174C127.73 383.067 127.923 383.005 128.121 382.994C128.319 382.983 128.517 383.023 128.695 383.111C128.869 383.223 129.009 383.382 129.099 383.568C129.188 383.755 129.224 383.963 129.203 384.169V388.729C129.186 389.135 129.072 389.53 128.869 389.882C128.667 390.234 128.382 390.532 128.039 390.75L124.093 393.024C123.891 393.13 123.665 393.181 123.437 393.173ZM128.219 383.936C128.156 383.947 128.095 383.968 128.039 384L124.093 386.285C123.895 386.419 123.73 386.596 123.61 386.803C123.491 387.01 123.421 387.242 123.405 387.481V392.04C123.389 392.103 123.389 392.169 123.405 392.231C123.468 392.213 123.528 392.189 123.585 392.157L127.531 389.882C127.73 389.749 127.895 389.571 128.014 389.364C128.133 389.157 128.203 388.925 128.219 388.687V384.127C128.231 384.064 128.231 383.999 128.219 383.936Z" fill="#455A64"/>
<path d="M132.557 382.523L148.11 373.54C148.628 373.244 149.041 373.487 149.041 374.08V375.286C149.024 375.609 148.931 375.923 148.769 376.202C148.607 376.482 148.381 376.719 148.11 376.894L132.557 385.877C132.049 386.173 131.626 385.877 131.626 385.337V384.131C131.644 383.808 131.737 383.495 131.899 383.215C132.061 382.936 132.286 382.699 132.557 382.523Z" fill="#E0E0E0"/>
<path d="M161.98 370.922C161.813 370.924 161.648 370.88 161.504 370.795C161.322 370.69 161.176 370.534 161.084 370.345C160.991 370.157 160.957 369.945 160.985 369.737V365.177C161.001 364.77 161.117 364.373 161.322 364.021C161.526 363.669 161.814 363.372 162.16 363.157L166.106 360.871C166.271 360.762 166.462 360.702 166.659 360.696C166.856 360.69 167.051 360.739 167.222 360.838C167.392 360.937 167.532 361.082 167.624 361.256C167.717 361.43 167.759 361.627 167.746 361.823V366.383C167.732 366.79 167.619 367.186 167.416 367.539C167.213 367.891 166.927 368.188 166.582 368.404L162.636 370.679C162.443 370.817 162.217 370.901 161.98 370.922ZM166.752 361.686C166.693 361.699 166.636 361.721 166.582 361.749L162.636 364.035C162.436 364.168 162.27 364.345 162.149 364.552C162.027 364.759 161.955 364.991 161.938 365.23V369.79C161.919 369.852 161.919 369.919 161.938 369.981C162 369.961 162.06 369.936 162.117 369.907L166.064 367.632C166.262 367.498 166.427 367.321 166.546 367.114C166.666 366.907 166.736 366.675 166.752 366.436V361.834C166.764 361.785 166.764 361.734 166.752 361.686Z" fill="#455A64"/>
<path d="M171.1 360.272L186.652 351.289C187.171 350.993 187.583 351.289 187.583 351.829V353.035C187.566 353.357 187.473 353.671 187.311 353.951C187.15 354.231 186.924 354.468 186.652 354.643L171.1 363.625C170.581 363.922 170.169 363.678 170.169 363.086V361.837C170.197 361.524 170.296 361.22 170.457 360.949C170.618 360.678 170.838 360.447 171.1 360.272Z" fill="#E0E0E0"/>
<path d="M200.512 348.672C200.345 348.673 200.181 348.629 200.036 348.545C199.865 348.443 199.727 348.294 199.637 348.116C199.548 347.938 199.51 347.739 199.528 347.54V342.98C199.542 342.574 199.656 342.177 199.859 341.825C200.061 341.473 200.348 341.176 200.692 340.96L204.638 338.674C204.808 338.567 205.001 338.505 205.201 338.494C205.401 338.483 205.601 338.523 205.781 338.611C205.953 338.725 206.092 338.883 206.181 339.07C206.271 339.256 206.308 339.463 206.289 339.669V344.229C206.271 344.635 206.155 345.032 205.95 345.384C205.746 345.736 205.459 346.033 205.115 346.25L201.168 348.524C200.966 348.63 200.74 348.681 200.512 348.672ZM201.168 341.785C200.972 341.92 200.808 342.098 200.689 342.305C200.57 342.511 200.499 342.742 200.48 342.98V347.54C200.462 347.602 200.462 347.669 200.48 347.731C200.538 347.71 200.595 347.685 200.65 347.657L204.596 345.382C204.796 345.249 204.963 345.072 205.084 344.865C205.205 344.658 205.277 344.426 205.294 344.187V339.616C205.315 339.554 205.315 339.487 205.294 339.426C205.232 339.44 205.172 339.461 205.115 339.489L201.168 341.785Z" fill="#455A64"/>
<path d="M209.643 338.023L225.195 329.04C225.703 328.744 226.126 328.987 226.126 329.58V330.786C226.104 331.107 226.008 331.419 225.847 331.698C225.685 331.976 225.463 332.215 225.195 332.394L209.643 341.377C209.124 341.673 208.712 341.377 208.712 340.837V339.62C208.73 339.3 208.824 338.988 208.986 338.71C209.148 338.432 209.373 338.197 209.643 338.023Z" fill="#E0E0E0"/>
<path d="M132.599 360.261V362.049C132.599 363.011 133.276 363.403 134.112 362.916L225.1 310.429C225.541 310.141 225.908 309.754 226.171 309.298C226.434 308.842 226.585 308.33 226.613 307.805V306.017C226.613 305.044 225.936 304.652 225.1 305.139L134.112 357.637C133.671 357.924 133.304 358.312 133.041 358.768C132.779 359.223 132.627 359.735 132.599 360.261Z" fill="#E0E0E0"/>
<path d="M132.599 371.034V372.822C132.599 373.785 133.276 374.176 134.112 373.69L225.1 321.202C225.54 320.914 225.906 320.526 226.168 320.07C226.431 319.614 226.583 319.104 226.613 318.578V316.79C226.613 315.817 225.936 315.426 225.1 315.912L134.112 368.41C133.671 368.698 133.304 369.085 133.041 369.541C132.779 369.997 132.627 370.508 132.599 371.034Z" fill="#E0E0E0"/>
<path d="M122.633 371.953C125.013 369.594 125.606 368.589 125.606 367.721C125.606 366.854 125.257 366.378 124.188 367.002C123.727 367.269 123.331 367.634 123.025 368.071C122.72 368.508 122.514 369.006 122.421 369.531L119.819 370.112C120.047 368.751 120.562 367.453 121.33 366.306C122.098 365.158 123.101 364.188 124.273 363.458C126.875 361.955 128.388 363.077 128.388 365.627C128.243 368.057 127.185 370.343 125.426 372.027V374.091L122.633 375.699V371.953Z" fill="#455A64"/>
<path d="M122.601 378.768C122.596 378.258 122.724 377.756 122.973 377.31C123.222 376.865 123.582 376.492 124.019 376.229C124.95 375.7 125.426 376.166 125.426 377.139C125.433 377.648 125.307 378.15 125.06 378.596C124.814 379.041 124.455 379.414 124.019 379.678C123.077 380.271 122.601 379.826 122.601 378.768Z" fill="#455A64"/>
<path d="M201.136 343.111L202.29 343.989L201.232 345.999C201.139 346.121 201.089 346.27 201.089 346.423C201.089 346.576 201.139 346.724 201.232 346.846C201.422 346.994 201.718 346.846 201.888 346.528L202.946 344.518L204.109 345.407C204.279 345.534 204.522 345.407 204.67 345.132C204.75 345.027 204.793 344.899 204.793 344.767C204.793 344.635 204.75 344.507 204.67 344.402L203.506 343.524L204.564 341.513C204.645 341.384 204.683 341.234 204.673 341.082C204.664 340.93 204.607 340.785 204.511 340.667C204.321 340.519 204.025 340.667 203.855 340.984L202.797 342.995L201.634 342.106C201.464 341.99 201.21 342.106 201.073 342.381C201.002 342.493 200.97 342.625 200.981 342.757C200.993 342.889 201.047 343.013 201.136 343.111Z" fill="#FCBB1B"/>
<path d="M304.207 171.886L296.43 167.4L296.356 167.347C292.484 165.157 287.183 165.485 281.312 168.881C275.81 172.055 270.795 177.345 267.018 183.45C262.648 190.496 259.908 198.643 259.908 205.954C259.908 212.778 262.289 217.592 266.15 219.803L274.054 224.321C277.947 226.807 283.459 226.585 289.564 223.062C301.392 216.227 310.978 199.627 310.978 185.979C310.967 178.901 308.365 174.002 304.207 171.886Z" fill="#DA4436"/>
<path opacity="0.1" d="M273.884 224.302L266.14 219.869C262.278 217.626 259.898 212.833 259.898 206.019C259.898 198.709 262.638 190.562 267.007 183.516L275.27 188.287C270.901 195.323 268.161 203.47 268.161 210.77C268.14 217.245 270.319 221.91 273.884 224.302Z" fill="black"/>
<path opacity="0.4" d="M304.048 171.799C300.239 169.948 295.15 170.413 289.553 173.64C283.957 176.867 279.037 182.104 275.249 188.241L266.986 183.469C270.763 177.343 275.789 172.064 281.28 168.9C287.152 165.504 292.452 165.187 296.325 167.366L296.399 167.419L304.048 171.799Z" fill="white"/>
<path d="M284.824 191.985C284.839 192.809 284.663 193.625 284.311 194.37C283.959 195.115 283.439 195.769 282.793 196.28C281.671 196.926 280.761 196.058 280.761 194.333C280.746 193.509 280.922 192.693 281.274 191.948C281.627 191.203 282.146 190.549 282.793 190.038C283.914 189.382 284.824 190.26 284.824 191.985Z" fill="#455A64"/>
<path d="M296.388 185.308C296.403 186.133 296.227 186.949 295.875 187.694C295.523 188.439 295.003 189.093 294.357 189.604C293.235 190.249 292.325 189.382 292.325 187.657C292.31 186.833 292.486 186.017 292.838 185.272C293.191 184.527 293.71 183.873 294.357 183.362C295.478 182.716 296.388 183.584 296.388 185.308Z" fill="#455A64"/>
<path d="M277.916 217.779C277.835 217.79 277.753 217.79 277.672 217.779C277.522 217.749 277.38 217.689 277.253 217.604C277.127 217.518 277.018 217.408 276.935 217.28C276.851 217.152 276.794 217.009 276.766 216.858C276.738 216.708 276.74 216.553 276.773 216.404C278.614 207.654 283.301 199.994 288.707 196.873C289.808 196.143 291.064 195.68 292.376 195.522C293.688 195.364 295.018 195.515 296.261 195.963C298.811 197.021 300.779 199.571 301.795 203.19C301.846 203.477 301.788 203.774 301.632 204.021C301.476 204.269 301.234 204.449 300.952 204.527C300.67 204.605 300.369 204.575 300.108 204.443C299.847 204.312 299.645 204.087 299.541 203.814C298.737 200.915 297.256 198.894 295.383 198.122C294.469 197.822 293.498 197.736 292.546 197.872C291.594 198.008 290.686 198.361 289.892 198.905C285.11 201.666 280.762 208.892 279.079 216.891C279.015 217.149 278.864 217.377 278.653 217.539C278.441 217.7 278.181 217.785 277.916 217.779Z" fill="#455A64"/>
<path d="M304.207 104.185L296.43 99.6988H296.356C292.484 97.5087 287.183 97.8367 281.312 101.233C275.81 104.407 270.795 109.697 267.018 115.802C262.648 122.848 259.908 130.994 259.908 138.305C259.908 145.129 262.289 149.943 266.15 152.154L274.054 156.672C277.947 159.158 283.459 158.936 289.564 155.413C301.392 148.578 310.978 131.978 310.978 118.383C310.967 111.199 308.365 106.301 304.207 104.185Z" fill="#FCBB1B"/>
<path opacity="0.1" d="M273.884 156.583L266.14 152.15C262.278 149.907 259.898 145.114 259.898 138.301C259.898 130.99 262.638 122.843 267.007 115.797L275.27 120.568C270.901 127.604 268.161 135.751 268.161 143.051C268.14 149.547 270.319 154.213 273.884 156.583Z" fill="black"/>
<path opacity="0.4" d="M304.048 104.104C300.239 102.252 295.15 102.718 289.553 105.945C283.957 109.172 279.037 114.409 275.249 120.545L266.986 115.774C270.763 109.648 275.789 104.368 281.28 101.205C287.152 97.8088 292.452 97.4914 296.325 99.6709H296.399L304.048 104.104Z" fill="white"/>
<path d="M284.697 146.733C283.692 146.736 282.697 146.542 281.767 146.162C279.005 145.03 276.889 142.269 275.799 138.365C275.726 138.049 275.777 137.717 275.942 137.437C276.108 137.158 276.374 136.954 276.687 136.866C276.999 136.779 277.333 136.816 277.619 136.969C277.905 137.122 278.121 137.379 278.222 137.688C279.1 140.862 280.698 142.978 282.719 143.835C283.707 144.164 284.758 144.26 285.79 144.115C286.822 143.97 287.806 143.588 288.665 142.999C293.817 140.026 298.515 132.218 300.303 123.584C300.374 123.259 300.57 122.974 300.849 122.792C301.128 122.61 301.468 122.545 301.795 122.611C301.956 122.645 302.11 122.711 302.247 122.804C302.383 122.897 302.5 123.017 302.59 123.155C302.681 123.294 302.743 123.449 302.773 123.611C302.804 123.774 302.802 123.941 302.768 124.103C300.779 133.54 295.722 141.814 289.892 145.189C288.324 146.146 286.534 146.678 284.697 146.733Z" fill="white"/>
<path d="M284.465 125.781C284.48 126.671 284.29 127.553 283.911 128.359C283.531 129.164 282.971 129.871 282.274 130.426C281.058 131.124 280.084 130.182 280.084 128.31C280.067 127.421 280.255 126.54 280.635 125.736C281.015 124.932 281.576 124.227 282.274 123.676C283.481 122.978 284.465 123.919 284.465 125.781Z" fill="white"/>
<path d="M296.949 118.58C296.964 119.468 296.775 120.349 296.395 121.152C296.015 121.956 295.455 122.661 294.759 123.214C293.553 123.912 292.569 122.97 292.569 121.098C292.553 120.209 292.743 119.328 293.123 118.525C293.503 117.721 294.062 117.016 294.759 116.464C295.965 115.765 296.949 116.717 296.949 118.58Z" fill="white"/>
<path d="M320.119 294.72L264.045 327.094C263.481 327.382 262.858 327.531 262.225 327.531C261.593 327.531 260.969 327.382 260.406 327.094L257.433 325.37C256.9 325.023 256.457 324.554 256.141 324.002C255.824 323.45 255.643 322.831 255.613 322.196V257.446C255.643 256.811 255.824 256.192 256.141 255.64C256.457 255.089 256.9 254.62 257.433 254.272L313.507 221.898C314.068 221.611 314.69 221.461 315.321 221.461C315.952 221.461 316.574 221.611 317.135 221.898L320.108 223.633C320.642 223.979 321.086 224.447 321.403 224.999C321.719 225.551 321.899 226.171 321.928 226.807V291.567C321.895 292.198 321.715 292.812 321.4 293.359C321.086 293.907 320.647 294.373 320.119 294.72Z" fill="#455A64"/>
<path d="M263.738 327.235C263.205 327.45 262.632 327.548 262.057 327.525C261.483 327.501 260.92 327.355 260.405 327.098L257.432 325.363C256.9 325.016 256.458 324.547 256.143 323.995C255.828 323.443 255.65 322.824 255.623 322.189V257.439C255.639 256.804 255.821 256.183 256.152 255.641L262.754 259.481C262.428 260.022 262.246 260.638 262.225 261.269V326.019C262.225 327.087 262.871 327.574 263.738 327.235Z" fill="#263238"/>
<path d="M320.119 294.719L264.045 327.094C263.04 327.676 262.225 327.21 262.225 326.036V261.328C262.256 260.693 262.437 260.074 262.753 259.522C263.07 258.971 263.512 258.502 264.045 258.154L320.119 225.78C321.124 225.198 321.939 225.674 321.939 226.838V291.598C321.9 292.224 321.715 292.832 321.399 293.374C321.083 293.916 320.645 294.377 320.119 294.719Z" fill="#37474F"/>
<path fill-rule="evenodd" clip-rule="evenodd" d="M290.548 278.588L275.313 300.171C282.042 306.974 294.992 301.864 304.238 288.755C309.793 280.894 312.777 272.409 312.777 264.484L294.336 275.086C292.872 276.015 291.589 277.201 290.548 278.588Z" fill="#DA4436"/>
<path opacity="0.3" fill-rule="evenodd" clip-rule="evenodd" d="M290.548 278.588L275.313 300.171C282.042 306.974 294.992 301.864 304.238 288.755C309.793 280.894 312.777 272.409 312.777 264.484L294.336 275.086C292.872 276.015 291.589 277.201 290.548 278.588Z" fill="black"/>
<path d="M274.54 299.62L289.776 278.037C290.895 276.551 292.28 275.285 293.86 274.302L312.301 263.659C312.445 263.575 312.61 263.531 312.777 263.531C312.944 263.531 313.108 263.575 313.253 263.659C313.398 263.743 313.518 263.863 313.601 264.008C313.685 264.153 313.729 264.317 313.729 264.484C313.729 272.652 310.714 281.243 305.021 289.305C298.896 297.98 291.024 303.503 283.967 304.117C282.268 304.314 280.546 304.124 278.93 303.561C277.314 302.999 275.846 302.078 274.636 300.869C274.49 300.721 274.396 300.529 274.369 300.322C274.342 300.116 274.384 299.907 274.488 299.726C274.494 299.686 274.512 299.649 274.54 299.62ZM311.782 266.156L294.854 275.953C293.509 276.792 292.326 277.868 291.363 279.127L276.604 300.022C277.606 300.843 278.763 301.454 280.006 301.817C281.25 302.181 282.554 302.29 283.84 302.138C290.252 301.609 297.785 296.256 303.487 288.162C304.461 286.797 305.339 285.411 306.143 284.025C309.401 278.595 311.333 272.473 311.782 266.156Z" fill="white"/>
<path fill-rule="evenodd" clip-rule="evenodd" d="M291.236 273.948L285.66 257.391C274.784 267.748 268.827 284.676 272.361 295.193C272.929 297.062 273.938 298.767 275.302 300.166L290.537 278.582C290.969 277.901 291.254 277.137 291.374 276.339C291.495 275.541 291.447 274.727 291.236 273.948Z" fill="#DA4436"/>
<path d="M285.015 256.707C285.128 256.595 285.269 256.514 285.422 256.472C285.576 256.429 285.738 256.426 285.893 256.463C286.048 256.504 286.191 256.583 286.309 256.691C286.427 256.8 286.516 256.936 286.57 257.088L292.135 273.645C292.393 274.566 292.455 275.53 292.316 276.476C292.178 277.422 291.842 278.328 291.331 279.136L276.138 300.719C276.055 300.83 275.951 300.922 275.83 300.989C275.71 301.057 275.577 301.098 275.44 301.111C275.3 301.125 275.159 301.108 275.027 301.061C274.895 301.013 274.776 300.936 274.678 300.836C273.216 299.349 272.128 297.536 271.504 295.546C268.933 287.897 271.218 276.957 276.699 267.467C278.941 263.5 281.742 259.877 285.015 256.707ZM289.776 278.036C290.119 277.475 290.345 276.85 290.44 276.199C290.534 275.547 290.495 274.884 290.326 274.248L285.247 259.14C275.323 269.318 269.97 285.061 273.271 294.9C273.693 296.253 274.356 297.518 275.228 298.635L289.776 278.036Z" fill="white"/>
<path fill-rule="evenodd" clip-rule="evenodd" d="M293.584 274.288L308.82 252.704C303.445 247.266 294.367 249.097 285.671 257.391L291.236 273.949C291.691 275.324 292.749 275.473 293.584 274.288Z" fill="#DA4436"/>
<path opacity="0.1" fill-rule="evenodd" clip-rule="evenodd" d="M293.584 274.288L308.82 252.704C303.445 247.266 294.367 249.097 285.671 257.391L291.236 273.949C291.691 275.324 292.749 275.473 293.584 274.288Z" fill="black"/>
<path d="M285.015 256.704C294.113 248.028 303.731 246.198 309.497 252.038C309.654 252.196 309.751 252.405 309.77 252.627C309.79 252.85 309.73 253.072 309.603 253.255L294.357 274.838C294.169 275.259 293.848 275.608 293.444 275.83C293.039 276.052 292.573 276.136 292.117 276.069C291.66 276.002 291.238 275.788 290.915 275.458C290.592 275.129 290.385 274.703 290.326 274.246L284.761 257.688C284.719 257.561 284.705 257.426 284.72 257.293C284.734 257.159 284.777 257.031 284.845 256.916C284.886 256.834 284.944 256.762 285.015 256.704ZM307.561 252.863C302.62 248.631 294.6 250.441 286.76 257.688L292.135 273.664C292.193 273.842 292.279 274.009 292.389 274.161C292.561 274.068 292.704 273.929 292.802 273.759L307.561 252.863Z" fill="white"/>
<path fill-rule="evenodd" clip-rule="evenodd" d="M294.336 275.082L312.777 264.502C312.777 259.212 311.507 255.456 308.82 252.727L293.584 274.31C292.749 275.474 293.066 275.844 294.336 275.082Z" fill="#DA4436"/>
<path opacity="0.2" fill-rule="evenodd" clip-rule="evenodd" d="M294.336 275.082L312.777 264.502C312.777 259.212 311.507 255.456 308.82 252.727L293.584 274.31C292.749 275.474 293.066 275.844 294.336 275.082Z" fill="black"/>
<path d="M292.802 273.737L308.047 252.154C308.128 252.041 308.232 251.948 308.353 251.88C308.473 251.812 308.608 251.772 308.746 251.762C308.883 251.749 309.023 251.766 309.153 251.814C309.283 251.862 309.4 251.938 309.497 252.037C312.385 254.957 313.729 258.914 313.729 264.479C313.729 264.647 313.685 264.811 313.601 264.956C313.518 265.101 313.398 265.221 313.253 265.305L294.822 275.948C294.42 276.181 293.214 276.879 292.474 276.065C292.267 275.792 292.155 275.46 292.155 275.118C292.155 274.776 292.267 274.443 292.474 274.171L292.802 273.737ZM308.936 254.238L295.383 273.441L311.846 263.919C311.74 259.718 310.809 256.597 308.936 254.238Z" fill="white"/>
<path d="M437.747 197.313C436.769 196.841 435.693 196.606 434.607 196.626C433.521 196.646 432.455 196.922 431.495 197.43L335.069 253.102C334.139 253.719 333.367 254.546 332.816 255.517C332.264 256.487 331.949 257.573 331.895 258.688V286.196C331.853 287.296 332.112 288.387 332.644 289.351C333.176 290.315 333.961 291.116 334.915 291.666C335.868 292.217 336.954 292.497 338.055 292.477C339.156 292.456 340.23 292.136 341.163 291.55L437.589 235.878C438.519 235.26 439.29 234.433 439.842 233.463C440.393 232.492 440.708 231.406 440.763 230.291V202.783C440.724 201.699 440.431 200.639 439.907 199.689C439.384 198.739 438.644 197.925 437.747 197.313Z" fill="#263238"/>
<path d="M440.731 202.2C440.467 200.571 439.144 199.999 437.557 200.931L397.353 224.132L341.131 256.592C340.177 257.184 339.39 258.011 338.846 258.994L332.794 255.502C333.337 254.52 334.12 253.69 335.069 253.09L431.495 197.429C432.383 196.865 433.403 196.545 434.453 196.498C435.504 196.452 436.548 196.681 437.482 197.164C438.416 197.646 439.208 198.365 439.778 199.249C440.348 200.133 440.677 201.15 440.731 202.2Z" fill="#455A64"/>
<path d="M337.894 262.181V289.689C337.894 291.742 339.343 292.578 341.12 291.551L437.547 235.879C438.476 235.262 439.248 234.435 439.799 233.465C440.351 232.494 440.666 231.408 440.721 230.293V202.785C440.721 200.733 439.282 199.897 437.547 200.923L397.343 224.136L341.11 256.595C340.173 257.208 339.393 258.034 338.834 259.004C338.276 259.975 337.953 261.063 337.894 262.181Z" fill="#37474F"/>
<path d="M354.292 258.144L355.869 261.487C355.887 261.535 355.915 261.579 355.951 261.615C355.987 261.652 356.031 261.68 356.079 261.699C356.126 261.718 356.177 261.727 356.229 261.725C356.28 261.723 356.331 261.71 356.377 261.688L359.9 260.344C360.461 260.122 360.683 260.916 360.281 261.677L357.731 266.459C357.577 266.737 357.508 267.053 357.53 267.369L358.133 271.707C358.228 272.395 357.646 273.294 357.149 273.231L353.975 272.839C353.847 272.845 353.723 272.882 353.612 272.946C353.502 273.011 353.408 273.101 353.34 273.21L350.166 277.24C349.669 277.875 349.108 277.643 349.182 276.849L349.785 271.824C349.812 271.701 349.807 271.574 349.772 271.454C349.737 271.334 349.672 271.225 349.584 271.136L347.035 269.295C346.633 268.999 346.855 267.951 347.415 267.528L350.939 264.809C351.185 264.603 351.363 264.326 351.446 264.015L353.023 258.852C353.372 258.038 354.039 257.625 354.292 258.144Z" fill="#FCBB1B"/>
<path d="M372.12 247.947L373.696 251.29C373.713 251.34 373.74 251.384 373.776 251.422C373.812 251.459 373.856 251.489 373.904 251.508C373.952 251.527 374.004 251.535 374.056 251.532C374.108 251.53 374.158 251.516 374.204 251.492L377.727 250.148C378.288 249.926 378.51 250.719 378.108 251.481L375.59 256.263C375.436 256.544 375.366 256.864 375.389 257.184L375.992 261.511C376.087 262.198 375.505 263.098 375.008 263.034L371.834 262.653C371.707 262.654 371.581 262.688 371.47 262.751C371.359 262.814 371.266 262.904 371.199 263.013L368.025 267.044C367.528 267.679 366.967 267.457 367.041 266.653L367.644 261.627C367.671 261.505 367.666 261.378 367.631 261.258C367.596 261.138 367.532 261.028 367.443 260.939L364.894 259.099C364.492 258.802 364.714 257.765 365.275 257.332L368.798 254.613C369.044 254.407 369.222 254.129 369.306 253.819L370.882 248.656C371.146 247.831 371.866 247.418 372.12 247.947Z" fill="#FCBB1B"/>
<path d="M389.947 237.749L391.523 241.092C391.542 241.14 391.57 241.184 391.606 241.221C391.642 241.257 391.685 241.286 391.733 241.305C391.781 241.324 391.832 241.332 391.883 241.33C391.935 241.328 391.985 241.316 392.031 241.293L395.554 239.939C396.115 239.728 396.337 240.51 395.935 241.272L393.386 246.054C393.232 246.336 393.162 246.655 393.184 246.975L393.788 251.302C393.883 251.99 393.301 252.9 392.804 252.836L389.63 252.445C389.502 252.451 389.377 252.487 389.267 252.552C389.156 252.616 389.063 252.707 388.995 252.815L385.821 256.835C385.324 257.481 384.763 257.248 384.837 256.455L385.44 251.429C385.466 251.305 385.462 251.177 385.427 251.055C385.392 250.933 385.327 250.822 385.239 250.731L382.689 248.89C382.287 248.604 382.509 247.557 383.07 247.123L386.593 244.404C386.84 244.198 387.017 243.921 387.101 243.61L388.677 238.447C388.974 237.633 389.693 237.209 389.947 237.749Z" fill="#FCBB1B"/>
<path d="M407.774 227.541L409.351 230.884C409.369 230.932 409.397 230.976 409.433 231.012C409.469 231.049 409.513 231.077 409.56 231.096C409.608 231.115 409.659 231.124 409.711 231.122C409.762 231.12 409.812 231.107 409.859 231.085L413.382 229.731C413.943 229.519 414.165 230.302 413.763 231.064L411.213 235.846C411.06 236.127 410.99 236.447 411.012 236.766L411.615 241.094C411.71 241.781 411.128 242.691 410.631 242.628L407.457 242.236C407.329 242.242 407.205 242.279 407.094 242.344C406.984 242.408 406.89 242.498 406.822 242.607L403.648 246.627C403.151 247.272 402.59 247.04 402.664 246.246L403.267 241.221C403.294 241.098 403.289 240.971 403.254 240.851C403.219 240.731 403.154 240.622 403.066 240.533L400.517 238.692C400.114 238.396 400.337 237.348 400.897 236.915L404.421 234.206C404.663 233.996 404.839 233.721 404.928 233.413L406.505 228.25C406.801 227.467 407.52 227.012 407.774 227.541Z" fill="#FCBB1B"/>
<path d="M425.602 217.329L427.178 220.672C427.196 220.72 427.225 220.764 427.261 220.8C427.297 220.837 427.34 220.865 427.388 220.884C427.436 220.903 427.487 220.912 427.538 220.91C427.589 220.908 427.64 220.896 427.686 220.873L431.209 219.529C431.77 219.307 431.992 220.101 431.59 220.863L429.04 225.645C428.887 225.922 428.817 226.238 428.839 226.555L429.442 230.892C429.537 231.58 428.956 232.479 428.458 232.416L425.284 232.024C425.156 232.03 425.032 232.067 424.921 232.132C424.811 232.196 424.718 232.286 424.649 232.395L421.475 236.426C420.978 237.061 420.417 236.828 420.492 236.034L421.095 231.009C421.121 230.886 421.116 230.759 421.081 230.639C421.046 230.519 420.982 230.41 420.894 230.321L418.386 228.522C417.984 228.226 418.206 227.179 418.767 226.756L422.29 224.037C422.537 223.83 422.714 223.553 422.798 223.243L424.374 218.08C424.628 217.212 425.316 216.8 425.602 217.329Z" fill="#FCBB1B"/>
<path d="M351.637 240.552L346.347 237.505C346.242 237.459 346.153 237.381 346.093 237.283L345.12 235.59L348.294 233.781L348.198 234.056L351.637 240.552Z" fill="#DA4436"/>
<path opacity="0.2" d="M351.637 240.552L346.347 237.505C346.242 237.459 346.153 237.381 346.093 237.283L345.12 235.59L348.294 233.781L348.198 234.056L351.637 240.552Z" fill="black"/>
<path d="M347.796 234.036L351.457 240.384C351.508 240.476 351.585 240.551 351.678 240.599C351.771 240.648 351.876 240.669 351.98 240.658C352.085 240.648 352.184 240.608 352.266 240.542C352.347 240.477 352.408 240.389 352.441 240.289L356.303 229.148L347.796 234.036Z" fill="#DA4436"/>
<path d="M440.128 145.577C440.082 144.693 439.826 143.832 439.383 143.065C438.94 142.298 438.321 141.647 437.578 141.166C436.787 140.769 435.914 140.562 435.028 140.562C434.143 140.562 433.27 140.769 432.479 141.166L334.444 197.737C333.702 198.222 333.084 198.875 332.641 199.644C332.198 200.412 331.943 201.274 331.895 202.159V234.428C331.943 235.314 332.198 236.176 332.641 236.944C333.084 237.712 333.702 238.365 334.444 238.851C335.234 239.252 336.108 239.461 336.994 239.461C337.88 239.461 338.754 239.252 339.544 238.851L437.821 182.121C440.117 180.809 440.139 179.497 440.139 177.889L440.128 145.577Z" fill="#DA4436"/>
<path opacity="0.2" d="M331.852 234.42C331.9 235.305 332.156 236.167 332.599 236.935C333.042 237.704 333.66 238.357 334.402 238.842C335.12 239.208 335.907 239.417 336.711 239.455C337.515 239.493 338.319 239.36 339.068 239.064C337.872 239.519 336.952 238.832 336.952 237.372V205.092C336.981 204.205 337.24 203.341 337.703 202.585L332.593 199.633C332.138 200.397 331.884 201.263 331.852 202.151V234.42Z" fill="black"/>
<path opacity="0.4" d="M440.012 144.858C439.715 143.8 438.721 143.429 437.547 144.107L339.502 200.678C338.745 201.143 338.125 201.8 337.703 202.582L332.604 199.63C333.034 198.855 333.652 198.2 334.402 197.726L432.436 141.165C433.226 140.764 434.1 140.555 434.986 140.555C435.872 140.555 436.746 140.764 437.536 141.165C438.179 141.58 438.73 142.121 439.155 142.756C439.581 143.391 439.873 144.106 440.012 144.858Z" fill="white"/>
<path d="M343.85 205.666L431.886 154.734C432.743 154.247 433.442 154.469 433.442 155.242C433.378 155.718 433.205 156.172 432.935 156.569C432.665 156.966 432.306 157.294 431.886 157.527L343.85 208.427C343.004 208.925 342.305 208.703 342.305 207.93C342.372 207.46 342.546 207.011 342.814 206.618C343.082 206.226 343.436 205.9 343.85 205.666Z" fill="white"/>
<path d="M343.85 220.058L419.36 176.468C420.217 175.971 420.904 176.193 420.904 176.966C420.842 177.442 420.67 177.897 420.402 178.295C420.134 178.694 419.777 179.025 419.36 179.261L343.85 222.84C343.004 223.338 342.305 223.105 342.305 222.333C342.376 221.862 342.551 221.413 342.819 221.019C343.086 220.626 343.439 220.297 343.85 220.058Z" fill="white"/>
<path d="M343.85 227.068L430.088 177.215C430.934 176.718 431.632 176.951 431.632 177.723C431.563 178.196 431.389 178.647 431.121 179.042C430.854 179.438 430.501 179.768 430.088 180.008L343.85 229.851C343.004 230.348 342.305 230.126 342.305 229.353C342.369 228.879 342.542 228.426 342.81 228.03C343.078 227.633 343.434 227.304 343.85 227.068Z" fill="white"/>
<path d="M343.85 212.654L430.088 162.801C430.934 162.304 431.632 162.537 431.632 163.309C431.568 163.783 431.395 164.236 431.127 164.632C430.859 165.029 430.504 165.358 430.088 165.594L343.85 215.49C343.004 215.976 342.305 215.754 342.305 214.982C342.363 214.5 342.532 214.038 342.801 213.634C343.069 213.23 343.428 212.894 343.85 212.654Z" fill="white"/>
<path d="M437.747 90.126C436.769 89.6539 435.693 89.4185 434.607 89.4387C433.521 89.4589 432.455 89.7342 431.495 90.2423L335.069 145.904C334.14 146.523 333.37 147.35 332.819 148.32C332.268 149.29 331.951 150.376 331.895 151.49V178.998C331.853 180.098 332.112 181.189 332.644 182.153C333.176 183.117 333.961 183.917 334.915 184.468C335.868 185.019 336.954 185.299 338.055 185.279C339.156 185.258 340.23 184.937 341.163 184.351L437.589 128.679C438.519 128.062 439.29 127.235 439.842 126.265C440.393 125.294 440.708 124.208 440.763 123.093V95.5852C440.723 94.5028 440.429 93.4448 439.905 92.4966C439.381 91.5484 438.642 90.7364 437.747 90.126Z" fill="#263238"/>
<path d="M440.731 95.0204C440.467 93.3911 439.144 92.8198 437.557 93.7402L397.353 116.942L341.131 149.402C340.179 150.001 339.393 150.831 338.846 151.814L332.794 148.322C333.334 147.338 334.117 146.507 335.069 145.91L431.495 90.2488C432.383 89.6856 433.403 89.3648 434.453 89.3184C435.504 89.2719 436.548 89.5014 437.482 89.9841C438.416 90.4667 439.208 91.1856 439.778 92.0692C440.348 92.9528 440.677 93.9703 440.731 95.0204Z" fill="#455A64"/>
<path d="M337.894 154.994V182.502C337.894 184.554 339.343 185.39 341.12 184.364L437.547 128.692C438.476 128.075 439.248 127.248 439.799 126.277C440.351 125.307 440.666 124.22 440.721 123.106V95.5977C440.721 93.5452 439.282 92.7094 437.547 93.7357L397.343 116.938L341.11 149.408C340.173 150.021 339.393 150.846 338.834 151.817C338.276 152.787 337.953 153.876 337.894 154.994Z" fill="#37474F"/>
<path d="M354.292 150.978L355.869 154.322C355.887 154.37 355.915 154.413 355.951 154.45C355.987 154.486 356.031 154.515 356.079 154.534C356.126 154.553 356.177 154.562 356.229 154.56C356.28 154.558 356.331 154.545 356.377 154.523L359.9 153.169C360.461 152.957 360.683 153.75 360.281 154.502L357.731 159.284C357.578 159.565 357.508 159.885 357.53 160.204L358.133 164.531C358.228 165.219 357.646 166.129 357.149 166.066L353.975 165.674C353.847 165.68 353.723 165.717 353.612 165.781C353.502 165.846 353.408 165.936 353.34 166.044L350.166 170.065C349.669 170.71 349.108 170.477 349.182 169.684L349.785 164.658C349.812 164.536 349.807 164.409 349.772 164.289C349.737 164.169 349.672 164.06 349.584 163.971L347.035 162.13C346.633 161.834 346.855 160.786 347.415 160.352L350.939 157.644C351.183 157.436 351.36 157.159 351.446 156.85L353.023 151.687C353.372 150.862 354.039 150.449 354.292 150.978Z" fill="#FCBB1B"/>
<path d="M372.12 140.768L373.696 144.111C373.715 144.159 373.743 144.202 373.779 144.239C373.815 144.276 373.858 144.304 373.906 144.323C373.954 144.342 374.005 144.351 374.056 144.349C374.108 144.347 374.158 144.334 374.204 144.312L377.727 142.968C378.288 142.746 378.51 143.539 378.108 144.301L375.59 149.083C375.436 149.361 375.367 149.677 375.389 149.993L375.992 154.331C376.087 155.019 375.505 155.918 375.008 155.855L371.834 155.463C371.706 155.469 371.582 155.506 371.471 155.57C371.361 155.635 371.267 155.725 371.199 155.833L368.025 159.864C367.528 160.499 366.967 160.277 367.041 159.473L367.644 154.447C367.671 154.325 367.666 154.198 367.631 154.078C367.596 153.958 367.532 153.849 367.443 153.76L364.894 151.919C364.492 151.623 364.714 150.575 365.275 150.152L368.798 147.433C369.044 147.227 369.222 146.95 369.306 146.639L370.882 141.476C371.146 140.651 371.866 140.239 372.12 140.768Z" fill="#FCBB1B"/>
<path d="M389.947 130.555L391.523 133.908C391.542 133.956 391.57 134 391.606 134.037C391.642 134.073 391.685 134.102 391.733 134.121C391.781 134.14 391.832 134.148 391.883 134.146C391.935 134.144 391.985 134.132 392.031 134.109L395.554 132.755C396.115 132.544 396.337 133.326 395.935 134.088L393.386 138.87C393.231 139.151 393.161 139.471 393.184 139.791L393.788 144.118C393.883 144.806 393.301 145.705 392.804 145.652L389.63 145.261C389.502 145.262 389.377 145.295 389.266 145.358C389.155 145.421 389.061 145.511 388.995 145.62L385.821 149.651C385.324 150.286 384.763 150.064 384.837 149.26L385.44 144.234C385.465 144.112 385.46 143.985 385.425 143.865C385.39 143.746 385.326 143.636 385.239 143.547L382.689 141.706C382.287 141.42 382.509 140.373 383.07 139.939L386.593 137.22C386.84 137.014 387.017 136.737 387.101 136.426L388.677 131.263C388.974 130.449 389.693 130.026 389.947 130.555Z" fill="#FCBB1B"/>
<path d="M407.774 120.359L409.351 123.703C409.369 123.751 409.397 123.794 409.433 123.831C409.469 123.867 409.513 123.896 409.56 123.915C409.608 123.934 409.659 123.943 409.711 123.941C409.762 123.939 409.812 123.926 409.859 123.904L413.382 122.549C413.943 122.338 414.165 123.121 413.763 123.883L411.213 128.665C411.06 128.946 410.99 129.265 411.012 129.585L411.615 133.912C411.71 134.6 411.128 135.51 410.631 135.446L407.457 135.055C407.329 135.061 407.205 135.098 407.094 135.162C406.984 135.227 406.89 135.317 406.822 135.425L403.648 139.446C403.151 140.091 402.59 139.858 402.664 139.065L403.267 134.039C403.303 133.913 403.307 133.78 403.277 133.652C403.248 133.525 403.186 133.407 403.098 133.309L400.548 131.468C400.146 131.183 400.368 130.135 400.929 129.702L404.452 126.993C404.697 126.781 404.873 126.501 404.96 126.189L406.537 121.026C406.801 120.243 407.52 119.82 407.774 120.359Z" fill="#FCBB1B"/>
<path d="M425.602 110.149L427.178 113.492C427.196 113.54 427.224 113.584 427.26 113.621C427.297 113.657 427.34 113.686 427.388 113.705C427.435 113.724 427.487 113.732 427.538 113.73C427.589 113.728 427.64 113.716 427.686 113.693L431.209 112.339C431.77 112.128 431.992 112.921 431.59 113.672L429.04 118.497C428.887 118.778 428.817 119.098 428.839 119.417L429.442 123.744C429.537 124.432 428.955 125.342 428.458 125.279L425.284 124.887C425.156 124.893 425.032 124.93 424.921 124.994C424.811 125.059 424.717 125.149 424.649 125.257L421.475 129.278C420.978 129.923 420.417 129.69 420.491 128.897L421.094 123.871C421.121 123.749 421.116 123.622 421.081 123.502C421.046 123.382 420.982 123.273 420.893 123.184L418.344 121.343C417.942 121.047 418.164 119.999 418.725 119.565L422.248 116.857C422.494 116.651 422.672 116.374 422.756 116.063L424.332 110.9C424.628 110.033 425.316 109.62 425.602 110.149Z" fill="#455A64"/>
<path d="M351.637 133.373L346.347 130.326C346.242 130.279 346.153 130.201 346.093 130.104L345.12 128.411L348.294 126.602L348.198 126.877L351.637 133.373Z" fill="#DA4436"/>
<path opacity="0.2" d="M351.637 133.373L346.347 130.326C346.242 130.279 346.153 130.201 346.093 130.104L345.12 128.411L348.294 126.602L348.198 126.877L351.637 133.373Z" fill="black"/>
<path d="M347.796 126.849L351.457 133.197C351.508 133.288 351.585 133.363 351.678 133.412C351.771 133.46 351.876 133.481 351.98 133.471C352.085 133.461 352.184 133.421 352.266 133.355C352.347 133.289 352.408 133.201 352.441 133.102L356.303 121.961L347.796 126.849Z" fill="#DA4436"/>
<path d="M440.128 38.3925C440.08 37.5069 439.824 36.6451 439.381 35.8769C438.938 35.1086 438.321 34.4553 437.578 33.97C436.788 33.5686 435.915 33.3594 435.028 33.3594C434.142 33.3594 433.269 33.5686 432.479 33.97L334.402 90.5413C333.66 91.0266 333.042 91.6798 332.599 92.4481C332.156 93.2164 331.9 94.0782 331.852 94.9637V127.233C331.9 128.118 332.156 128.98 332.599 129.748C333.042 130.517 333.66 131.17 334.402 131.655C335.192 132.057 336.066 132.266 336.952 132.266C337.838 132.266 338.712 132.057 339.502 131.655L437.779 74.9146C440.075 73.6133 440.096 72.3014 440.096 70.6826L440.128 38.3925Z" fill="#DA4436"/>
<path opacity="0.2" d="M331.852 127.232C331.9 128.118 332.156 128.98 332.599 129.748C333.042 130.516 333.66 131.169 334.402 131.655C335.12 132.021 335.907 132.23 336.712 132.266C337.517 132.303 338.32 132.166 339.068 131.866C337.872 132.321 336.952 131.644 336.952 130.184V97.9046C336.983 97.0148 337.241 96.1479 337.703 95.3866L332.593 92.4453C332.138 93.2091 331.884 94.0751 331.852 94.9634V127.232Z" fill="black"/>
<path opacity="0.4" d="M440.012 37.6732C439.715 36.6152 438.721 36.2449 437.547 36.922L339.502 93.4933C338.745 93.9587 338.125 94.6157 337.703 95.3977L332.604 92.4459C333.034 91.6703 333.652 91.0155 334.402 90.5415L432.436 33.9702C433.228 33.5737 434.101 33.3672 434.986 33.3672C435.871 33.3672 436.744 33.5737 437.536 33.9702C438.18 34.3856 438.731 34.9285 439.157 35.5654C439.583 36.2022 439.874 36.9196 440.012 37.6732Z" fill="white"/>
<path d="M343.85 98.468L431.886 47.5465C432.743 47.0598 433.442 47.282 433.442 48.0543C433.378 48.5301 433.205 48.9845 432.935 49.3813C432.665 49.7781 432.306 50.1063 431.886 50.3396L343.85 101.261C343.004 101.758 342.305 101.536 342.305 100.764C342.373 100.289 342.547 99.8364 342.814 99.4388C343.082 99.0411 343.436 98.7093 343.85 98.468Z" fill="white"/>
<path d="M343.85 112.863L419.36 69.273C420.217 68.7758 420.904 68.9979 420.904 69.7703C420.843 70.2453 420.671 70.6995 420.403 71.0963C420.135 71.4931 419.778 71.8217 419.36 72.0556L343.85 115.656C343.004 116.142 342.305 115.92 342.305 115.148C342.37 114.674 342.543 114.221 342.811 113.825C343.079 113.428 343.434 113.099 343.85 112.863Z" fill="white"/>
<path d="M343.85 119.871L430.088 70.0282C430.934 69.531 431.632 69.7637 431.632 70.5255C431.565 70.9999 431.391 71.453 431.123 71.8506C430.856 72.2482 430.502 72.5801 430.088 72.8213L343.85 122.664C343.004 123.161 342.305 122.939 342.305 122.166C342.373 121.692 342.547 121.239 342.814 120.841C343.082 120.444 343.436 120.112 343.85 119.871Z" fill="white"/>
<path d="M343.85 105.514L430.088 55.6605C430.934 55.1633 431.632 55.396 431.632 56.1684C431.563 56.641 431.389 57.0919 431.121 57.4876C430.854 57.8833 430.501 58.2135 430.088 58.4537L343.85 108.296C343.004 108.793 342.305 108.571 342.305 107.799C342.369 107.324 342.542 106.871 342.81 106.475C343.078 106.078 343.434 105.749 343.85 105.514Z" fill="white"/>
<path d="M380.436 299.94L417.519 292.672C417.753 292.633 417.993 292.668 418.207 292.771C418.42 292.874 418.597 293.04 418.713 293.247C418.828 293.454 418.877 293.692 418.853 293.928C418.829 294.164 418.732 294.386 418.577 294.565L393.428 323.047L380.436 299.94Z" fill="#FFA8A7"/>
<path d="M418.598 294.565C418.753 294.386 418.85 294.164 418.874 293.928C418.898 293.692 418.849 293.454 418.734 293.247C418.618 293.04 418.441 292.874 418.228 292.771C418.014 292.668 417.774 292.633 417.54 292.672L410.282 294.121C411.276 294.737 412.08 295.615 412.606 296.658C413.133 297.702 413.361 298.87 413.266 300.035V300.691L418.598 294.565Z" fill="#DA4436"/>
<path d="M255.179 402.347L258.205 400.601L261.876 398.485L393.438 323.018C394.645 318.933 394.267 314.543 392.38 310.724C389.746 304.842 384.646 300.144 380.414 299.922L248.958 375.378L241.965 379.388C246.641 377.039 259.834 399.924 255.179 402.347Z" fill="#37474F"/>
<path d="M266.743 395.75L273.514 391.857C275.514 390.799 274.371 385.879 272.033 380.801C268.933 374.05 262.85 367.512 260.194 368.919L255.2 371.786L253.433 372.844C256.089 371.437 262.183 377.965 265.272 384.726C267.505 389.593 268.647 394.322 266.944 395.613C266.891 395.676 266.821 395.723 266.743 395.75Z" fill="#EBEBEB"/>
<path d="M268.425 394.767C273.07 392.302 259.771 369.375 255.116 371.851L248.334 375.723C252.978 373.268 266.32 396.174 261.633 398.639L268.425 394.767Z" fill="#DA4436"/>
<path d="M255.179 402.343L261.876 398.513C266.457 396.122 253.804 373.904 248.958 375.375C248.861 375.393 248.767 375.429 248.683 375.48L241.965 379.384C246.641 377.036 259.834 399.92 255.179 402.343Z" fill="#EBEBEB"/>
<path opacity="0.15" d="M418.767 293.317L417.519 292.672L390.614 307.389L251.487 387.225C251.222 386.813 251.011 386.781 250.841 387.067C254.798 393.235 257.782 401 255.179 402.355L258.205 400.609L261.876 398.493L393.439 323.026L418.587 294.545C418.743 294.385 418.844 294.18 418.876 293.96C418.908 293.74 418.87 293.515 418.767 293.317Z" fill="black"/>
<path d="M226.751 418.609L255.179 402.348C257.168 401.29 256.068 396.444 253.772 391.397C250.693 384.637 244.631 378.035 241.965 379.389L213.42 395.693C207.749 398.962 212.965 411.256 219.281 416.758C221.63 418.863 224.296 419.783 226.751 418.609Z" fill="#F28F8F"/>
<path opacity="0.1" d="M228.444 409.791C226.814 403.379 221.63 397.095 216.858 395.751C216.158 395.503 215.408 395.427 214.672 395.528C213.935 395.629 213.234 395.905 212.626 396.333C208.394 400.3 213.335 411.579 219.313 416.784C221.609 418.815 224.18 419.725 226.634 418.657C228.729 417.408 229.586 414.128 228.444 409.791Z" fill="black"/>
</svg>
