<svg width="500" height="500" viewBox="0 0 500 500" fill="none" xmlns="http://www.w3.org/2000/svg">
<path d="M443.92 334.412H263.174C259.942 334.412 257.312 331.782 257.312 328.549V65.2759C257.312 62.0435 259.942 59.4141 263.174 59.4141H443.92C447.153 59.4141 449.783 62.0435 449.783 65.2759V328.549C449.783 331.782 447.153 334.412 443.92 334.412ZM263.174 59.6641C260.08 59.6641 257.562 62.1817 257.562 65.2759V328.549C257.562 331.644 260.08 334.162 263.174 334.162H443.92C447.015 334.162 449.533 331.644 449.533 328.549V65.2759C449.533 62.1817 447.015 59.6641 443.92 59.6641H263.174Z" fill="#E0E0E0"/>
<path d="M235.493 334.412H54.7461C51.5137 334.412 48.8843 331.782 48.8843 328.549V65.2759C48.8843 62.0435 51.5137 59.4141 54.7461 59.4141H235.493C238.725 59.4141 241.355 62.0435 241.355 65.2759V328.549C241.355 331.782 238.725 334.412 235.493 334.412ZM54.7461 59.6641C51.6519 59.6641 49.1343 62.1817 49.1343 65.2759V328.549C49.1343 331.644 51.6519 334.162 54.7461 334.162H235.493C238.587 334.162 241.105 331.644 241.105 328.549V65.2759C241.105 62.1817 238.587 59.6641 235.493 59.6641H54.7461Z" fill="#E0E0E0"/>
<path d="M500 395.484H0V395.734H500V395.484Z" fill="#E0E0E0"/>
<path d="M67.7324 409.742H51.6724V409.992H67.7324V409.742Z" fill="#E0E0E0"/>
<path d="M223.882 407.039H170.352V407.289H223.882V407.039Z" fill="#E0E0E0"/>
<path d="M104.982 419.039H68.7324V419.289H104.982V419.039Z" fill="#E0E0E0"/>
<path d="M421.542 406.906H378.352V407.156H421.542V406.906Z" fill="#E0E0E0"/>
<path d="M436.782 406.906H430.452V407.156H436.782V406.906Z" fill="#E0E0E0"/>
<path d="M370.102 413.133H316.212V413.383H370.102V413.133Z" fill="#E0E0E0"/>
<path d="M352.129 168.744C349.971 167.114 346.823 166.929 344.489 168.296C341.392 162.037 332.761 159.275 326.605 162.572C324.999 155.828 318.355 150.644 311.422 150.728C304.489 150.811 297.971 156.153 296.528 162.934C296.299 164.012 296.147 165.193 295.376 165.98C294.124 167.259 292.033 166.83 290.249 166.69C284.635 166.252 278.985 170.194 277.458 175.614L354.774 175.333C355.451 172.715 354.286 170.374 352.129 168.744Z" fill="#E6E6E6"/>
<path d="M291.973 112.003C290.353 110.778 287.988 110.64 286.235 111.666C283.909 106.965 277.425 104.89 272.801 107.367C271.595 102.301 266.604 98.4069 261.396 98.4695C256.189 98.5322 251.292 102.545 250.208 107.639C250.036 108.448 249.922 109.335 249.343 109.926C248.402 110.887 246.832 110.565 245.491 110.46C241.274 110.131 237.031 113.092 235.884 117.164L293.961 116.952C294.47 114.986 293.594 113.227 291.973 112.003Z" fill="#F0F0F0"/>
<path d="M431.404 141.407C430.104 140.425 428.208 140.314 426.803 141.137C424.937 137.367 419.739 135.703 416.031 137.69C415.064 133.628 411.062 130.505 406.887 130.556C402.711 130.606 398.785 133.823 397.916 137.908C397.778 138.557 397.687 139.268 397.222 139.742C396.468 140.512 395.209 140.254 394.134 140.17C390.753 139.906 387.35 142.28 386.431 145.545L432.997 145.375C433.405 143.798 432.703 142.388 431.404 141.407Z" fill="#F0F0F0"/>
<path d="M360.303 72.2892C359.004 71.3075 357.108 71.1962 355.702 72.0194C353.837 68.2497 348.638 66.586 344.931 68.5722C343.964 64.5102 339.962 61.3879 335.786 61.4381C331.611 61.4884 327.685 64.7059 326.816 68.7902C326.678 69.4393 326.586 70.1503 326.122 70.6243C325.368 71.3948 324.109 71.1362 323.034 71.0524C319.653 70.7885 316.25 73.1626 315.33 76.4271L361.897 76.2577C362.305 74.681 361.603 73.2709 360.303 72.2892Z" fill="#F5F5F5"/>
<path d="M120.196 92.8622C118.575 91.6378 116.21 91.4991 114.458 92.5257C112.131 87.8242 105.648 85.7493 101.024 88.2264C99.8174 83.1603 94.826 79.2663 89.6184 79.3289C84.411 79.3916 79.5146 83.4044 78.4305 88.4983C78.2583 89.3078 78.1443 90.1946 77.5653 90.7858C76.6248 91.7467 75.0544 91.4242 73.7139 91.3197C69.4967 90.9906 65.2531 93.9515 64.1062 98.023L122.183 97.8117C122.692 95.8453 121.817 94.0866 120.196 92.8622Z" fill="#F0F0F0"/>
<path d="M206.268 54.5643C204.111 52.9343 200.963 52.7496 198.629 54.1163C195.532 47.8574 186.901 45.0951 180.745 48.3928C179.139 41.6485 172.494 36.4645 165.562 36.5479C158.629 36.6313 152.111 41.9734 150.668 48.7548C150.438 49.8324 150.287 51.013 149.516 51.8C148.264 53.0792 146.173 52.6499 144.389 52.5108C138.774 52.0727 133.125 56.0144 131.598 61.4346L208.914 61.1533C209.591 58.5355 208.426 56.1943 206.268 54.5643Z" fill="#E6E6E6"/>
<path d="M431.352 451.445C431.352 454.831 346.287 457.577 241.355 457.577C136.423 457.577 51.3582 454.831 51.3582 451.445C51.3582 448.058 136.423 445.312 241.355 445.312C346.287 445.312 431.352 448.058 431.352 451.445Z" fill="#F5F5F5"/>
<path d="M437.032 491.101H436.532V435.182C415.847 435.222 11.5342 436.02 7.48389 435.176L7.58545 434.686C11.602 435.522 432.53 434.689 436.781 434.681L437.032 434.68V491.101Z" fill="#263238"/>
<path d="M442.398 449.781H441.898V476.187H442.398V449.781Z" fill="#263238"/>
<path d="M442.506 445.469H442.006V448.143H442.506V445.469Z" fill="#263238"/>
<path d="M236.883 413.872C236.305 412.899 235.016 411.704 234.112 411.024C233.209 410.343 231.97 410.003 230.923 410.432C229.586 410.979 228.97 412.619 229.156 414.051C229.343 415.483 230.026 417.293 230.84 418.485C234.316 423.574 237.533 428.232 242.898 432.019C242.898 425.698 240.092 419.263 236.883 413.872Z" fill="#DA4436"/>
<path d="M254.58 414.746C253.38 414.088 251.148 415.02 250.053 415.841C247.881 417.468 246.559 419.172 245.235 421.54C243.555 424.548 243.36 428.772 243.146 431.454C247.395 428.005 251.722 424.469 254.631 419.835C255.138 419.026 255.61 418.157 255.701 417.207C255.792 416.256 255.418 415.204 254.58 414.746Z" fill="#DA4436"/>
<path d="M243.849 435.487C243.733 435.487 243.629 435.407 243.604 435.29C242.598 430.638 240.499 425.447 237.991 421.405C237.918 421.288 237.954 421.133 238.071 421.06C238.189 420.989 238.343 421.024 238.415 421.141C240.953 425.23 243.075 430.479 244.093 435.184C244.122 435.319 244.037 435.452 243.901 435.481C243.884 435.485 243.866 435.487 243.849 435.487Z" fill="#263238"/>
<path d="M242.973 432.116C242.945 432.116 242.916 432.111 242.888 432.102C242.758 432.055 242.691 431.911 242.738 431.781C243.877 428.639 245.54 425.744 247.682 423.176C247.771 423.069 247.928 423.056 248.034 423.144C248.14 423.233 248.154 423.39 248.065 423.496C245.961 426.02 244.327 428.864 243.208 431.951C243.171 432.053 243.075 432.116 242.973 432.116Z" fill="#263238"/>
<path d="M419.051 107.864C424.857 97.8715 421.464 85.0642 411.472 79.258C401.48 73.4518 388.672 76.845 382.866 86.8373C378.384 94.5514 379.403 103.93 384.69 110.484L383.67 116.685L390.155 115.254C390.255 115.314 390.344 115.384 390.446 115.443C400.438 121.249 413.245 117.856 419.051 107.864Z" fill="#DA4436"/>
<g opacity="0.6">
<path d="M419.051 107.864C424.857 97.8715 421.464 85.0642 411.472 79.258C401.48 73.4518 388.672 76.845 382.866 86.8373C378.384 94.5514 379.403 103.93 384.69 110.484L383.67 116.685L390.155 115.254C390.255 115.314 390.344 115.384 390.446 115.443C400.438 121.249 413.245 117.856 419.051 107.864Z" fill="white"/>
</g>
<path d="M424.432 97.2599L424.414 97.2594C424.276 97.2492 424.172 97.1295 424.183 96.9918C424.664 90.3161 421.507 83.4181 416.14 79.4191C416.029 79.3366 416.006 79.1798 416.089 79.069C416.171 78.9586 416.328 78.9362 416.438 79.0177C421.938 83.1168 425.174 90.1862 424.681 97.028C424.672 97.1593 424.561 97.2599 424.432 97.2599Z" fill="#DA4436"/>
<path d="M423.47 103.394C423.437 103.394 423.402 103.387 423.37 103.373C423.243 103.318 423.186 103.171 423.24 103.044C423.639 102.128 423.849 101.117 423.847 100.118C423.847 99.9795 423.958 99.8677 424.097 99.8672C424.235 99.8672 424.347 99.979 424.347 100.117C424.349 101.184 424.125 102.265 423.699 103.244C423.658 103.338 423.567 103.394 423.47 103.394Z" fill="#DA4436"/>
<path d="M409.725 95.2266H390.178V100.113H409.725V95.2266Z" fill="white"/>
<path d="M407.918 92.5703V102.443L412.732 97.5068L407.918 92.5703Z" fill="white"/>
<path d="M178.866 113.787C182.791 106.195 181.897 96.6607 175.87 89.9015C168.064 81.1462 154.638 80.3771 145.883 88.1835C137.382 95.7627 136.435 108.626 143.53 117.382L141.658 124.065L147.88 121.444C155.764 126.949 166.662 126.568 174.152 119.889C174.241 119.81 174.316 119.722 174.403 119.642L182.084 120.565L178.866 113.787Z" fill="#DA4436"/>
<path d="M136.706 99.4957L136.679 99.4942C136.541 99.48 136.442 99.357 136.457 99.2198C137.184 92.2965 141.677 85.8116 147.904 82.6983C148.027 82.6368 148.178 82.6861 148.24 82.8101C148.301 82.9337 148.251 83.0841 148.128 83.1456C142.049 86.1842 137.664 92.5142 136.954 99.2716C136.94 99.4005 136.832 99.4957 136.706 99.4957Z" fill="#DA4436"/>
<path d="M136.572 105.792C136.459 105.792 136.356 105.715 136.329 105.6C136.078 104.547 136.047 103.427 136.24 102.361C136.264 102.225 136.394 102.137 136.53 102.16C136.666 102.185 136.756 102.315 136.732 102.45C136.551 103.449 136.58 104.498 136.815 105.484C136.847 105.618 136.764 105.754 136.63 105.785C136.61 105.79 136.591 105.792 136.572 105.792Z" fill="#DA4436"/>
<path d="M157.962 113.827C157.414 113.299 157.14 112.656 157.14 111.899C157.14 111.141 157.409 110.508 157.948 110C158.486 109.492 159.173 109.238 160.01 109.238C160.847 109.238 161.535 109.492 162.073 110C162.611 110.508 162.88 111.141 162.88 111.899C162.88 112.656 162.606 113.299 162.058 113.827C161.51 114.355 160.827 114.619 160.01 114.619C159.193 114.619 158.51 114.355 157.962 113.827ZM157.23 93.4529H162.791L161.864 107.115H158.157L157.23 93.4529Z" fill="white"/>
<path d="M408.191 184.178C408.191 184.178 414.421 179.421 416.049 179.874C417.678 180.328 418.636 181.415 418.636 181.415C418.636 181.415 431.731 180.405 431.636 182.312C431.584 183.344 428.407 184.118 422.209 184.508C422.209 184.508 424.496 186.902 422.57 187.986C422.57 187.986 424.162 189.934 422.067 191.438C422.067 191.438 422.127 193.702 420.378 194.273C418.628 194.843 411.488 195.286 408.022 194.176C404.556 193.066 405.749 185.859 405.749 185.859L408.191 184.178Z" fill="#EEC1BB"/>
<path opacity="0.3" d="M412.037 188.46C411.557 188.46 411.092 188.359 410.681 188.156C410.557 188.095 410.506 187.945 410.566 187.821C410.629 187.698 410.78 187.648 410.901 187.708C411.733 188.119 412.832 188.025 413.768 187.462C414.657 186.931 415.807 185.61 416.325 184.709C416.374 184.623 416.467 184.57 416.567 184.585C416.666 184.594 416.749 184.662 416.779 184.755C417.194 186.021 418.934 187.578 420.154 187.496C420.808 187.453 421.059 187.223 421.117 186.614C421.142 186.347 420.72 185.729 420.493 185.396C420.407 185.271 420.331 185.158 420.276 185.069C419.949 184.533 419.548 183.816 419.159 183.123C418.773 182.434 418.374 181.721 418.052 181.192C417.979 181.075 418.016 180.92 418.135 180.849C418.251 180.778 418.405 180.813 418.477 180.932C418.806 181.468 419.207 182.185 419.596 182.878C419.981 183.567 420.381 184.28 420.703 184.809C420.755 184.892 420.826 184.997 420.906 185.114C421.317 185.716 421.654 186.248 421.615 186.661C421.534 187.513 421.08 187.937 420.187 187.995C418.829 188.072 417.174 186.695 416.499 185.372C415.886 186.277 414.876 187.383 414.025 187.891C413.397 188.268 412.702 188.46 412.037 188.46Z" fill="black"/>
<path opacity="0.3" d="M417.843 194.36C417.648 194.36 417.452 194.345 417.257 194.302C416.731 194.188 416.311 193.873 416.13 193.46C415.81 192.727 416.281 191.914 416.855 191.469C417.144 191.245 417.468 191.072 417.812 190.955C417.685 190.891 417.565 190.818 417.454 190.738C416.783 190.256 416.397 189.471 416.47 188.738C416.552 187.902 417.279 187.203 418.063 187.203H418.079C418.218 187.205 418.328 187.318 418.326 187.457C418.324 187.594 418.2 187.697 418.073 187.703H418.063C417.534 187.703 417.024 188.207 416.968 188.788C416.912 189.346 417.218 189.952 417.745 190.332C418.042 190.544 418.408 190.694 418.825 190.777C419.094 190.776 419.355 190.798 419.615 190.857C419.74 190.886 419.823 191.004 419.808 191.131C419.793 191.257 419.686 191.351 419.56 191.351H419.557C419.287 191.348 419.029 191.323 418.785 191.278C418.201 191.3 417.626 191.502 417.161 191.864C416.722 192.205 416.384 192.793 416.588 193.26C416.704 193.526 416.994 193.733 417.364 193.814C417.729 193.894 418.124 193.854 418.506 193.816C418.638 193.797 418.766 193.902 418.779 194.04C418.793 194.177 418.692 194.299 418.555 194.313C418.33 194.335 418.089 194.36 417.843 194.36Z" fill="black"/>
<path d="M405.158 184.681C404.823 184.969 375.991 196.035 375.991 196.035L369.656 178.011C368.143 173.707 366.247 169.547 363.961 165.599C361.133 160.716 357.473 155.221 355.688 155.957C350.568 158.071 350.272 179.925 350.489 180.148C350.838 180.508 359.894 217.764 372.534 216.449C385.173 215.135 408.584 194.904 408.584 194.904L405.158 184.681Z" fill="#FCBB1B"/>
<path d="M309.787 253.114L312.801 263.258C312.801 263.258 311.765 265.554 311.422 267.342C311.08 269.13 310.761 271.42 312.331 274.006C313.9 276.593 314.686 274.496 314.686 274.496C316.613 276.872 318.533 275.069 318.533 275.069C320.164 277.187 322.367 275.458 322.367 275.458C322.367 275.458 325.139 273.876 325.889 272.617C326.639 271.359 325.361 266.245 325.361 266.245L321.864 262.264L320.52 250.344C320.315 250.385 309.787 253.114 309.787 253.114Z" fill="#EEC1BB"/>
<path d="M335.001 119.6L334.278 119.01C333.424 118.941 332.525 119.066 331.814 119.545C331.104 120.024 330.63 120.907 330.803 121.746C330.96 122.507 331.602 123.09 332.31 123.409C333.1 123.765 334.033 123.847 334.837 123.523C335.64 123.199 336.28 122.436 336.349 121.572C336.417 120.708 335.842 119.806 335.001 119.6Z" fill="#FCBB1B"/>
<path d="M344.962 150.384C344.962 150.384 346.481 143.916 343.695 132.201C343.696 132.189 344.318 131.948 344.319 131.936C343.936 130.298 343.517 128.781 343.117 127.465C343.109 127.427 343.11 127.414 343.11 127.414L358.434 137.949C357.883 141.625 358.861 148.828 359.505 151.88C359.505 151.88 361.234 157.437 353.961 157.321C348.646 157.237 344.962 150.384 344.962 150.384Z" fill="#EEC1BB"/>
<path d="M339.731 100.634C339.731 100.634 344.454 89.8567 357.609 94.3289C365.901 97.1479 371.794 100.852 370.918 108.338C370.336 113.316 365.528 117.031 362.468 116.818C359.408 116.605 337.099 108.894 337.099 108.894C337.099 108.894 332.082 102.747 339.731 100.634Z" fill="#263238"/>
<path opacity="0.3" d="M350.198 140.612C352.097 142.786 355.399 144.01 358.426 144.075C358.382 143.805 358.39 143.401 358.358 143.132C358.307 142.711 358.311 142.066 358.287 141.623C358.263 141.078 358.254 140.487 358.282 139.924C358.308 139.7 358.398 139.733 358.424 139.509L358.478 139.05L349.31 135.938C348.566 136.48 348.667 138.847 350.198 140.612Z" fill="black"/>
<path d="M337.79 118.114C335.593 108.272 344.144 99.2082 354.352 101.576C364.713 103.979 368.424 118.518 367.714 127.789C366.926 138.09 355.382 144.6 346.606 138.13C340.772 133.829 339.986 127.957 337.79 118.114Z" fill="#EEC1BB"/>
<path d="M344.871 102.66C344.871 102.66 353.646 110.824 362.219 106.604C370.792 102.384 351.88 93.9553 344.871 102.66Z" fill="#263238"/>
<path d="M346.624 121.607C345.024 123.462 343.639 121.575 339.839 119.561C339.318 119.285 338.744 119.067 337.949 119.043C338.842 122.335 339.703 125.066 340.398 127.03C340.606 127.618 340.829 128.154 341.075 128.649C338.13 125.112 334.747 120.907 333.681 119.004C333.465 118.62 333.294 118.247 333.163 117.884C333.22 117.751 333.277 117.62 333.342 117.493C333.613 116.934 333.955 116.421 334.348 115.947C334.971 115.2 335.734 114.553 336.577 113.996C339.308 112.183 342.386 111.382 344.999 110.953C345.26 114.082 347.933 120.086 346.624 121.607Z" fill="#263238"/>
<path d="M347.294 105.111C347.294 105.111 344.915 107.059 344.947 109.432C344.98 111.806 345.687 114.247 345.687 114.247C345.687 114.247 338.469 116.496 336.693 116.002C334.916 115.509 334.041 110.304 334.041 110.304C334.041 110.304 342.922 101.691 346.077 102.236C349.232 102.781 347.294 105.111 347.294 105.111Z" fill="#263238"/>
<path d="M340.031 102.23C340.031 102.23 335.959 101.099 333.204 105.353C330.449 109.607 331.533 115.062 333.163 117.882C334.792 120.702 344.879 111.749 340.031 102.23Z" fill="#263238"/>
<path d="M352.038 120.286C352.129 121.312 352.747 122.09 353.418 122.025C354.089 121.959 354.56 121.073 354.469 120.047C354.379 119.021 353.761 118.243 353.09 118.309C352.419 118.374 351.948 119.26 352.038 120.286Z" fill="#263238"/>
<path d="M361.985 119.614C362.075 120.64 362.693 121.419 363.364 121.353C364.035 121.287 364.506 120.402 364.416 119.375C364.325 118.349 363.707 117.571 363.036 117.637C362.365 117.703 361.894 118.588 361.985 119.614Z" fill="#263238"/>
<path d="M359.025 118.383C359.025 118.383 362.723 123.195 363.948 125.179C362.634 126.595 360.121 126.218 360.121 126.218L359.025 118.383Z" fill="#D8847C"/>
<path d="M349.402 114.736C349.563 114.786 349.746 114.75 349.878 114.626C351.421 113.187 353.038 113.513 353.207 113.551C353.466 113.613 353.728 113.454 353.793 113.196C353.857 112.938 353.698 112.679 353.441 112.616C353.35 112.594 351.18 112.1 349.221 113.927C349.025 114.11 349.014 114.414 349.195 114.607C349.254 114.67 349.325 114.712 349.402 114.736Z" fill="#263238"/>
<path d="M366.478 113.94C366.565 113.913 366.646 113.861 366.709 113.784C366.878 113.577 366.849 113.272 366.645 113.103C364.594 111.411 362.481 112.081 362.382 112.099C362.129 112.181 361.987 112.453 362.066 112.707C362.145 112.96 362.412 113.1 362.664 113.022C362.751 112.99 364.386 112.495 366.032 113.853C366.161 113.96 366.329 113.987 366.478 113.94Z" fill="#263238"/>
<path d="M352.751 128.367C352.751 128.367 355.229 129.907 359.572 129.912C359.572 129.912 358.785 132.888 356 132.643C352.633 132.345 352.751 128.367 352.751 128.367Z" fill="white"/>
<path d="M355.889 127.063C357.482 127.111 359.041 127.659 360.225 128.726C360.683 129.138 361.07 129.611 361.229 130.116C361.737 131.733 356.001 130.602 353.648 129.7C351.296 128.798 351.84 127.877 353.166 127.333C353.802 127.073 354.909 127.033 355.889 127.063Z" fill="#263238"/>
<path opacity="0.3" d="M345.153 111.734C345.153 111.734 340.97 114.424 336.786 113.651C332.601 112.878 331.516 111.954 331.516 111.954L331.82 114.232C331.82 114.232 335.351 116.311 339.673 116.075C343.996 115.839 345.826 114.76 345.826 114.76L345.153 111.734Z" fill="white"/>
<path d="M330.884 252.697C330.884 252.697 325.446 276.412 336.462 292.685C347.478 308.959 369.178 349.024 370.227 356.534C371.276 364.045 385.44 435.859 385.44 435.859L405.405 434.985C405.405 434.985 398.607 374.002 396.981 351.181C395.402 329.026 374.424 263.547 374.424 263.547C374.424 263.547 377.047 243.543 375.473 243.395C373.899 243.247 333.507 239.352 333.507 239.352L330.884 252.697Z" fill="#263238"/>
<path d="M326.163 337.602L330.858 274.539L360.785 298.455C360.785 298.455 356.364 346.451 350.593 354.588C344.823 362.724 291.835 419.587 291.835 419.587L275.127 402.596L326.163 337.602Z" fill="#263238"/>
<path d="M366.834 162.758L360.98 154.149L359.123 148.148L344.715 138.554C344.715 138.554 342.979 142.72 342.933 142.934L373.909 185.864L371.862 174.945C371.043 170.58 369.332 166.431 366.834 162.758Z" fill="#263238"/>
<path opacity="0.7" d="M366.834 162.758L360.98 154.149L359.123 148.148L344.715 138.554C344.715 138.554 342.979 142.72 342.933 142.934L373.909 185.864L371.862 174.945C371.043 170.58 369.332 166.431 366.834 162.758Z" fill="white"/>
<path d="M330.818 194.265L332.992 222.652C332.992 222.652 326.701 249.919 326.592 266.119H381.165C381.165 266.119 380.438 244.315 379.007 227.508C377.577 210.7 376.127 193.518 373.59 180.445C371.052 167.373 359.011 153.179 359.011 153.179L343.211 141.039L339.135 147.118C339.135 147.118 328.235 153.099 324.567 156.167C321.858 158.434 306.549 204.276 304.736 210.252C302.924 216.228 310.537 260.718 310.537 260.718L322.481 259.013L321.756 214.061L330.818 194.265Z" fill="#FCBB1B"/>
<path opacity="0.6" d="M356.47 333.438C356.47 333.438 327.924 288.675 330.74 276.125L357.611 325.732L356.47 333.438Z" fill="black"/>
<path d="M296.237 386.453L280.357 407.197L286.994 412.738L307.351 396.546L296.237 386.453Z" fill="#263238"/>
<path d="M271.167 411.942L275.193 418.222C275.193 418.222 276.682 419.059 277.07 419.862C277.455 420.664 278.62 423.566 278.62 423.566L289.312 440.24C289.926 439.659 290.442 439.095 290.874 438.554C291.4 437.894 291.8 437.263 292.093 436.659C293.117 434.545 292.813 432.751 291.927 431.156C290.576 428.727 290.769 418.235 290.769 418.235C290.769 418.235 289.992 414.971 292.737 413.007C293.766 412.27 294.057 409.867 293.685 409.051C292.927 407.385 291.418 407.156 289.751 407.911L287.816 408.791L286.107 404.917C286.107 404.917 285.613 400.178 283.972 401.475C283.036 402.216 278.97 405.673 275.68 408.315C274.913 408.932 274.187 409.514 273.55 410.025L273.55 410.027C272.137 411.161 271.167 411.942 271.167 411.942Z" fill="#263238"/>
<g opacity="0.2">
<path d="M289.312 440.237L278.62 423.562C278.62 423.562 277.455 420.66 277.07 419.859C276.682 419.055 275.193 418.219 275.193 418.219L271.167 411.939C271.167 411.939 272.137 411.158 273.55 410.023L290.874 438.551C290.442 439.092 289.926 439.656 289.312 440.237Z" fill="white"/>
</g>
<path d="M291.295 423.056C291.321 422.93 291.252 422.806 291.135 422.754C290.595 422.517 289.985 422.418 289.348 422.494C289.012 422.534 289.004 423.066 289.344 423.026C289.91 422.959 290.447 423.043 290.92 423.249C291.077 423.318 291.258 423.231 291.293 423.062L291.295 423.056Z" fill="#FCBB1B"/>
<path d="M291.225 421.236C291.251 421.11 291.183 420.986 291.065 420.934C290.526 420.697 289.916 420.598 289.278 420.673C288.943 420.713 288.935 421.246 289.274 421.205C289.841 421.138 290.378 421.222 290.85 421.429C291.008 421.498 291.189 421.41 291.224 421.241L291.225 421.236Z" fill="#FCBB1B"/>
<path d="M291.077 419.4C291.104 419.274 291.035 419.15 290.918 419.098C290.378 418.861 289.768 418.762 289.131 418.837C288.795 418.877 288.787 419.41 289.126 419.37C289.693 419.302 290.23 419.386 290.702 419.593C290.86 419.662 291.041 419.574 291.076 419.406L291.077 419.4Z" fill="#FCBB1B"/>
<path d="M381.165 414.889L390.987 439.096L399.129 436.187L395.5 410.43L381.165 414.889Z" fill="#263238"/>
<path d="M390.416 449.424L397.87 449.14C397.87 449.14 399.347 448.281 400.236 448.354C401.122 448.429 404.214 448.897 404.214 448.897L424.008 448.141C423.818 447.317 423.594 446.586 423.347 445.94C423.045 445.151 422.704 444.487 422.332 443.928C421.029 441.973 419.329 441.325 417.505 441.28C414.727 441.212 405.782 435.723 405.782 435.723C405.782 435.723 402.576 434.737 402.275 431.375C402.162 430.115 400.239 428.644 399.347 428.552C397.526 428.359 396.564 429.544 396.369 431.364L396.146 433.477L391.94 432.986C391.94 432.986 387.605 431.007 387.891 433.079C388.054 434.261 388.971 439.519 389.579 443.695C389.722 444.669 389.855 445.59 389.972 446.398L389.974 446.398C390.235 448.192 390.416 449.424 390.416 449.424Z" fill="#263238"/>
<g opacity="0.2">
<path d="M424.008 448.139L404.214 448.895C404.214 448.895 401.122 448.427 400.236 448.352C399.347 448.279 397.87 449.138 397.87 449.138L390.416 449.422C390.416 449.422 390.235 448.19 389.975 446.396L423.347 445.938C423.594 446.584 423.818 447.315 424.008 448.139Z" fill="white"/>
</g>
<path d="M410.207 437.717C410.112 437.631 409.97 437.626 409.866 437.702C409.388 438.046 408.993 438.522 408.735 439.109C408.599 439.419 409.054 439.696 409.191 439.383C409.421 438.861 409.766 438.44 410.183 438.138C410.323 438.037 410.339 437.837 410.211 437.721L410.207 437.717Z" fill="#FCBB1B"/>
<path d="M408.597 436.85C408.502 436.763 408.36 436.759 408.256 436.834C407.778 437.179 407.383 437.655 407.125 438.242C406.989 438.552 407.444 438.828 407.581 438.516C407.811 437.994 408.156 437.573 408.573 437.271C408.713 437.17 408.729 436.969 408.601 436.854L408.597 436.85Z" fill="#FCBB1B"/>
<path d="M406.94 436.045C406.845 435.959 406.703 435.954 406.599 436.03C406.121 436.374 405.726 436.85 405.468 437.438C405.332 437.747 405.787 438.024 405.924 437.711C406.154 437.189 406.499 436.768 406.916 436.467C407.056 436.366 407.072 436.165 406.945 436.049L406.94 436.045Z" fill="#FCBB1B"/>
<path opacity="0.3" d="M330.817 194.263L332.042 210.25L336.986 181.406L330.817 194.263Z" fill="black"/>
<path opacity="0.3" d="M339.135 147.118C339.556 147.548 357.079 158.638 357.079 158.638L359.957 159.484L359.508 162.532L373.096 178.318C373.096 178.318 371.193 172.329 369.534 169.214C367.875 166.099 362.721 157.456 359.011 153.179L343.211 141.039C341.693 143.31 340.32 145.357 339.135 147.118Z" fill="black"/>
<path d="M332.835 117.608C332.835 117.608 363.144 114.586 366.201 115.512C366.201 115.512 367.301 117.141 367.446 122.033L334.688 122.327L332.835 117.608Z" fill="#FCBB1B"/>
<path d="M335.042 125.27C336.11 127.873 338.284 129.728 340.437 130.57C343.675 131.837 344.532 128.343 343.949 125.094C343.424 122.169 342.246 118.654 338.844 118.777C335.492 118.897 333.822 122.294 335.042 125.27Z" fill="#EEC1BB"/>
<path opacity="0.2" d="M342.184 125.128C342.068 125.128 341.964 125.046 341.939 124.928C341.767 124.083 341.375 123.294 340.806 122.647C340.435 122.228 339.834 121.703 339.065 121.584C338.374 121.476 337.67 121.782 337.381 122.305C337.313 122.426 337.16 122.469 337.041 122.402C336.92 122.336 336.877 122.183 336.943 122.063C337.338 121.352 338.241 120.951 339.142 121.09C340.058 121.232 340.756 121.835 341.181 122.316C341.808 123.029 342.239 123.898 342.43 124.828C342.457 124.963 342.37 125.095 342.234 125.123C342.218 125.127 342.201 125.128 342.184 125.128Z" fill="black"/>
<path d="M334.27 124.861C333.824 124.04 333.224 123.316 332.627 122.597L332.124 122.367C330.767 122.851 329.609 123.87 328.956 125.153C328.303 126.437 328.161 127.973 328.569 129.355C329.041 130.958 330.183 132.264 331.293 133.514C332.481 132.4 333.476 131.082 334.222 129.635C334.561 128.979 334.852 128.282 334.918 127.546C335.002 126.616 334.716 125.682 334.27 124.861Z" fill="#FCBB1B"/>
<path d="M330.35 125.014C331.32 124.397 332.14 123.648 332.954 122.905L333.163 122.359C332.32 121.126 330.83 120.205 329.088 119.838C327.346 119.472 325.369 119.664 323.681 120.364C321.721 121.177 320.251 122.585 318.848 123.949C320.463 124.88 322.306 125.576 324.271 125.999C325.163 126.191 326.098 126.327 327.045 126.233C328.242 126.114 329.381 125.631 330.35 125.014Z" fill="#FCBB1B"/>
<path opacity="0.3" d="M341.638 237.172H367.474L366.17 244.585H339.696L341.638 237.172Z" fill="black"/>
<path opacity="0.3" d="M379.98 214.233L375.991 196.039L377.906 215.075L379.98 214.233Z" fill="black"/>
<path d="M228.768 170.332C228.642 170.548 228.507 170.765 228.36 170.974C232.9 174.5 228.27 179.139 226.87 179.859C225.806 180.423 224.663 180.834 223.478 181.078C217.888 182.276 213.095 179.321 210.524 177.863C206.825 175.761 206.996 168.311 204.889 164.448C202.135 159.395 197.496 146.911 201.685 137.547C203.693 133.142 205.554 131.419 205.554 131.419C207.848 129.179 211.338 128.821 214.404 129.809C217.469 130.798 220.019 132.99 222.259 135.415C226.306 139.711 229.236 144.868 230.817 150.477C232.256 155.784 230.558 157.534 229.403 160.898L229.424 161.004C230.358 164.1 230.334 167.657 228.768 170.332Z" fill="#263238"/>
<path d="M218.015 181.585C218.015 181.585 210.21 180.698 202.077 180.686C197.39 180.677 198.729 175.556 193.115 179.473C191.087 175.739 192.101 171.093 194.34 167.473C194.808 166.701 195.373 165.992 196.019 165.362C196.496 164.894 197.017 164.473 197.574 164.105C197.878 163.905 198.192 163.723 198.516 163.56C199.357 163.098 200.255 162.749 201.187 162.521C202.745 162.136 204.367 162.084 205.946 162.368C208.213 162.828 210.329 163.85 212.098 165.34C212.949 166.039 213.725 166.824 214.415 167.682C214.765 168.102 215.097 168.55 215.409 169.027C215.808 169.633 216.169 170.262 216.49 170.912C216.508 170.975 216.521 171.039 216.528 171.104C217.317 173.197 217.608 175.444 217.378 177.668C217.259 179.068 218.215 180.432 218.015 181.585Z" fill="#263238"/>
<path d="M213.559 191.04C211.905 192.747 210.394 192.177 208.185 191.274C195.044 186.548 198.933 180.203 198.933 180.203C201.426 177.277 201.536 173.778 200.627 168.445C200.609 168.289 200.602 168.132 200.607 167.976C200.615 167.264 200.844 166.573 201.261 165.996C202.359 164.39 204.552 163.978 206.158 165.076L206.162 165.079L212.045 166.76C212.061 166.841 212.078 166.922 212.096 167.013C212.112 169.93 212.029 172.195 212.049 173.977C212.092 174.189 212.053 174.417 212.063 174.625C212.106 174.837 212.089 175.072 212.089 175.282C212.231 177.722 216.359 181.306 218.042 182.157C219.062 182.741 219.174 185.284 213.559 191.04Z" fill="#FFB594"/>
<path d="M196.185 148.176C196.411 158.237 196.283 162.485 201.063 167.948C208.261 176.153 220.314 173.964 223.088 164.091C225.513 155.202 224.786 140.272 215.302 135.655C205.816 131.038 195.967 138.103 196.185 148.176Z" fill="#FFB594"/>
<path d="M207.454 149.054C204.898 150.495 202.778 152.599 201.318 155.145L201.064 155.553C200.736 156.122 200.423 156.71 200.124 157.316C199.63 158.362 199.207 159.44 198.857 160.543C198.677 161.114 198.504 161.664 198.381 162.308C198.257 162.953 198.059 163.801 197.948 164.559C197.914 164.807 197.879 165.056 197.855 165.302C197.38 169.616 198.053 173.979 199.806 177.949C199.807 177.98 199.814 178.011 199.824 178.04L199.626 177.943C199.662 183.095 196.854 180.426 196.854 180.426C196.854 180.426 189.622 183.179 186.983 184.274C177.286 188.314 174.159 179.138 178.335 172.178C178.713 171.546 181.097 169.073 181.305 168.853C178.807 168.832 176.8 166.79 176.821 164.293C176.826 163.737 176.933 163.186 177.137 162.669C178.061 159.511 180.324 156.905 182.655 154.695C183.079 154.295 183.55 153.917 183.95 153.554C183.63 153.686 183.287 153.755 182.94 153.756C181.552 153.794 180.269 153.021 179.655 151.776C177.708 146.975 186.647 149.127 192.729 133.467C195.049 127.467 200.883 129.22 206.322 130.36L206.596 130.421C212.3 131.676 215.417 134.13 216.233 137.003C217.451 140.888 214.265 145.601 207.454 149.054Z" fill="#263238"/>
<path d="M199.84 148.433C201.872 149.456 201.546 158.912 196.698 158.516C191.849 158.12 193.171 145.081 199.84 148.433Z" fill="#263238"/>
<path d="M191.73 156.794C192.748 158.966 194.576 160.43 196.315 161.026C198.932 161.923 200.675 157.742 199.99 154.987C199.372 152.507 196.88 150.689 194.235 150.995C191.628 151.296 190.567 154.311 191.73 156.794Z" fill="#FFB594"/>
<path opacity="0.2" d="M197.424 156.98H197.42C197.282 156.978 197.172 156.864 197.174 156.726C197.19 155.824 196.84 154.935 196.216 154.286C195.591 153.636 194.715 153.253 193.815 153.234C193.677 153.231 193.567 153.117 193.57 152.979C193.573 152.843 193.684 152.734 193.82 152.734H193.825C194.857 152.756 195.86 153.195 196.576 153.939C197.292 154.683 197.692 155.702 197.674 156.734C197.672 156.871 197.561 156.98 197.424 156.98Z" fill="black"/>
<path d="M200.786 134.198C199.723 137.499 196.772 137.344 194.921 140.277C193.07 143.21 191.993 147.229 194.052 150.011C194.727 150.745 195.362 151.516 195.953 152.32C197.316 154.726 195.769 157.704 195.712 160.468C195.669 163.039 195.52 166.074 197.59 167.446C199.318 168.597 200.374 170.52 200.417 172.596C200.437 173.244 198.413 177.661 198.308 178.302C198.171 179.23 200.794 176.326 201.722 176.463C202.405 176.564 203.081 176.242 203.433 175.648C203.489 175.551 203.539 175.449 203.582 175.345C205.19 172.218 205.321 168.537 203.938 165.305C203.142 163.478 202.261 161.7 201.466 159.874C200.565 158.078 200.223 156.054 200.482 154.062C201.351 149.581 212 139.478 203.511 131.279C203.399 131.167 203.246 131.103 203.087 131.101C202.353 131.148 201.695 131.569 201.346 132.216C201.086 132.854 200.898 133.519 200.786 134.198Z" fill="#263238"/>
<path d="M209.293 152.507C209.252 153.58 209.756 154.506 210.419 154.576C211.082 154.646 211.652 153.833 211.693 152.76C211.734 151.688 211.229 150.762 210.566 150.692C209.904 150.622 209.333 151.434 209.293 152.507Z" fill="#263238"/>
<path d="M219.253 153.323C219.216 154.362 219.722 155.262 220.383 155.332C221.043 155.401 221.609 154.615 221.647 153.575C221.684 152.536 221.178 151.637 220.517 151.567C219.857 151.497 219.291 152.283 219.253 153.323Z" fill="#263238"/>
<path d="M211.632 147.337C211.513 147.284 211.377 147.281 211.253 147.338C209.328 148.243 207.806 147.227 207.789 147.215C207.563 147.064 207.267 147.125 207.13 147.36C206.993 147.595 207.067 147.911 207.294 148.067C207.373 148.121 209.282 149.398 211.672 148.274C211.91 148.162 212.01 147.862 211.895 147.603C211.839 147.479 211.743 147.386 211.632 147.337Z" fill="#263238"/>
<path d="M219.266 146.625C219.158 146.631 219.056 146.681 218.983 146.775C218.831 146.971 218.861 147.282 219.047 147.47C220.922 149.353 222.843 148.868 222.925 148.846C223.154 148.784 223.28 148.521 223.205 148.257C223.132 147.993 222.886 147.828 222.657 147.888C222.582 147.908 221.086 148.26 219.596 146.762C219.499 146.665 219.38 146.62 219.266 146.625Z" fill="#263238"/>
<path d="M216.586 152.602C216.586 152.602 217.846 156.515 219.429 159.022C219.706 159.46 219.462 160.045 218.963 160.182C217.677 160.536 216.253 159.997 216.253 159.997L216.586 152.602Z" fill="#A24E3F"/>
<path d="M210.182 150.703L212.546 150.352C212.546 150.352 211.133 151.973 210.182 150.703Z" fill="#263238"/>
<path d="M220.277 151.57L222.641 151.219C222.641 151.219 221.227 152.84 220.277 151.57Z" fill="#263238"/>
<path d="M215.368 164.388C215.78 163.532 215.897 162.507 215.43 161.679C214.963 160.851 214.067 160.299 213.123 160.187C212.179 160.075 211.206 160.383 210.455 160.966C210.08 161.256 209.74 161.647 209.693 162.118C209.639 162.66 209.998 163.176 210.458 163.466C210.918 163.757 211.467 163.865 212.003 163.962C212.538 164.059 213.087 164.154 213.561 164.423C213.787 164.552 213.999 164.722 214.254 164.775C214.254 164.775 215.091 164.962 215.368 164.388Z" fill="#263238"/>
<path d="M211.324 160.456C211.542 160.539 214.949 161.813 215.126 161.777C215.28 161.745 215.289 161.518 215.288 161.44C215.21 161.327 215.136 161.211 215.042 161.111C215.017 161.085 214.988 161.057 214.961 161.029C214.472 160.546 213.815 160.226 213.129 160.145C212.511 160.071 211.897 160.21 211.324 160.456Z" fill="white"/>
<path d="M213.392 163.209C212.165 162.387 209.769 162.552 209.742 162.554C209.851 162.924 210.125 163.254 210.458 163.464C210.918 163.754 211.467 163.863 212.003 163.959C212.538 164.056 213.087 164.151 213.561 164.42C213.787 164.549 213.999 164.719 214.254 164.773C214.254 164.773 214.456 164.817 214.693 164.795C214.573 164.442 214.25 163.783 213.392 163.209Z" fill="#DE5753"/>
<path d="M272.805 217.721C272.583 217.684 263.437 222.306 263.437 222.306L259.049 211.656L266.434 211.711C266.434 211.711 273.174 217.573 272.989 217.647" fill="#FFB594"/>
<path d="M266.055 211.833C266.055 211.833 266.195 208.418 268.296 206.528C270.396 204.638 271.57 202.57 273.229 201.273C274.888 199.975 274.338 202.764 273.745 204.188C273.153 205.612 272.496 207.233 273.638 207.504C274.779 207.777 284.461 204.922 286.001 205.479C287.542 206.037 286.12 206.988 286.12 206.988C286.12 206.988 288.295 206.364 288.995 207.229C289.695 208.094 288.446 208.896 288.446 208.896C288.446 208.896 289.921 208.529 290.061 209.599C290.201 210.668 282.778 214.196 282.527 214.537C282.527 214.537 286.264 211.679 287.32 212.586C288.375 213.493 285.774 215.135 283.728 216.488C281.681 217.84 279.086 218.618 276.598 218.321C274.11 218.025 269.781 218.834 268.252 216.375C266.723 213.917 266.055 211.833 266.055 211.833Z" fill="#FFB594"/>
<g opacity="0.3">
<path d="M288.197 209.208C285.716 209.937 283.262 210.747 280.857 211.64C281.074 212.281 281.234 212.927 281.359 213.594C281.41 213.926 280.893 213.882 280.83 213.56C280.469 211.551 279.637 209.615 278.386 207.836C278.184 207.547 278.609 207.335 278.811 207.623C279.123 208.068 279.403 208.51 279.658 208.972C279.673 208.928 279.709 208.898 279.756 208.879C281.58 208.038 283.509 207.421 285.543 207.027C285.853 206.974 286.038 207.465 285.716 207.528C283.727 207.914 281.834 208.512 280.057 209.334C279.987 209.362 280.317 210.089 280.252 210.06C280.575 210.653 280.453 210.532 280.683 211.151C283.088 210.257 285.531 209.446 288.024 208.718C288.325 208.631 288.499 209.12 288.197 209.208Z" fill="black"/>
</g>
<g opacity="0.3">
<path d="M277.801 210.968C274.805 210.285 272.112 211.38 270.792 213.756C270.645 214.026 270.171 213.749 270.318 213.479C271.746 210.897 274.657 209.764 277.886 210.489C278.218 210.573 278.122 211.04 277.801 210.968Z" fill="black"/>
</g>
<path d="M224.624 180.939C229.349 183.254 232.932 187.374 234.6 192.364C237.591 201.315 239.308 215.05 239.308 215.05C239.308 215.05 259.776 210.345 264.482 209.657L268.385 220.568C268.385 220.568 241.36 233.189 238.712 233.896C230.877 235.984 226.844 222.433 226.844 222.433L224.095 180.68L224.624 180.939Z" fill="#DA4436"/>
<path d="M182.822 430.707L183.842 432.127L185.865 431.255L187.126 437.493L195.661 449.415C195.661 449.415 198.909 449.936 196.35 443.162C196.234 442.853 196.141 442.514 196.08 442.135C195.32 438.083 196.992 430.315 196.992 430.315L192.309 423.773C192.309 423.773 191.82 423.782 190.99 423.918C189.05 424.242 185.17 425.188 182.822 430.707Z" fill="#DA4436"/>
<path opacity="0.2" d="M182.822 430.707L183.842 432.127L185.865 431.255L187.126 437.493L195.661 449.415C195.661 449.415 198.909 449.936 196.35 443.162C196.234 442.853 196.141 442.514 196.08 442.135C195.32 438.083 196.992 430.315 196.992 430.315L192.309 423.773C192.309 423.773 191.82 423.782 190.99 423.918C189.05 424.242 185.17 425.188 182.822 430.707Z" fill="black"/>
<path d="M190.99 423.916L190.97 423.93C192.543 424.099 191.163 431.081 191.796 434.999C192.367 438.494 193.873 441.791 196.08 442.133C195.32 438.081 198.06 428.846 198.06 428.846L194.294 423.586C194.294 423.586 191.82 423.779 190.99 423.916Z" fill="#A24E3F"/>
<path d="M194.172 448.969L195.911 448.967L196.394 446.803L202.149 449.422H216.733C216.733 449.422 219.052 447.072 212.107 445.199C211.791 445.113 211.463 444.991 211.123 444.82C207.419 443.069 202.149 437.156 202.149 437.156H194.147C194.147 437.156 193.868 437.56 193.491 438.319C192.617 440.094 191.107 443.819 194.172 448.969Z" fill="#DA4436"/>
<path d="M193.491 438.321V438.346C194.548 437.159 199.357 442.373 202.878 444.148C206.023 445.728 209.557 446.425 211.123 444.822C207.419 443.071 201.539 435.031 201.539 435.031L195.109 435.227C195.109 435.227 193.868 437.562 193.491 438.321Z" fill="#FFB594"/>
<path d="M209.143 367.843C213.112 356.902 217.972 346.141 223.812 337.432C199.945 268.967 200.692 238.336 200.692 238.336L229.433 238.312L232.495 249.763C232.495 249.763 239.676 278.267 241.77 294.63L247.768 331.008V331.111C248.176 338.665 246.509 346.168 242.934 352.812C239.028 360.072 232.12 368.689 228.328 376.513C223.341 386.838 218.634 397.189 214.613 406.45C210.377 416.21 206.929 424.739 204.779 430.665C202.743 430.896 196.599 427.202 194.83 423.854C194.83 423.854 199.181 395.303 209.143 367.843Z" fill="#263238"/>
<path opacity="0.2" d="M217.168 317.068C213.667 305.432 209.747 298.799 207.966 290.156C207.95 288.139 214.654 279.503 218.069 276.023C218.069 276.023 222.175 292.529 217.168 317.068Z" fill="black"/>
<path opacity="0.2" d="M214.614 406.45C210.377 416.211 206.929 424.74 204.779 430.666C202.744 430.897 196.599 427.203 194.83 423.855C194.83 423.855 199.181 395.304 209.143 367.844C211.166 379.182 213.431 393.508 214.614 406.45Z" fill="black"/>
<path d="M222.175 238.961C222.175 238.961 211.236 314.589 209.963 331.616C209.963 331.616 203.205 414.212 204.417 434.972L189.345 435.705C189.345 435.705 179.208 373.146 184.333 333.001C184.778 327.767 180.109 293.634 179.371 280.037C177.596 247.324 190.87 238.336 190.87 238.336L222.175 238.961Z" fill="#263238"/>
<path d="M217.29 182.535L212.785 176.346L210.639 180.03L204.14 175.234L200.641 176.881L203.8 186.15C203.8 186.15 211.696 189.382 212.115 189.382C212.533 189.382 217.29 182.535 217.29 182.535Z" fill="white"/>
<path opacity="0.2" d="M203.088 240.102L200.692 277.667L179.208 275.106V271.245L203.088 240.102Z" fill="black"/>
<path d="M192.695 241.04C191.855 231.511 188.471 214.047 182.644 195.706C180.749 189.741 187.318 182.313 187.318 182.313C187.318 182.313 191.893 182.803 192.695 182.713C193.572 182.61 194.476 182.52 195.379 182.443C202.186 181.879 207.758 181.468 213.827 181.815C215.354 181.905 216.918 182.033 218.458 182.161C218.954 182.213 222.175 182.261 222.658 182.313C222.658 182.313 231.384 192.523 231.855 199.731C232.11 203.759 234.056 205.492 233.839 215.124C233.801 221.666 229.053 231.196 228.621 240.392L192.695 241.04Z" fill="white"/>
<path d="M199.481 274.609L174.198 271.967L190.218 227.084C190.218 227.084 188.891 226.635 186.6 218.042C185.493 213.86 184.336 209.423 183.356 205.472C181.931 199.777 180.863 195.057 180.786 193.518C180.532 188.709 186.365 181.08 186.365 181.08L201.162 179.258C201.162 179.258 203.992 189.478 204.59 209.012C205.188 228.534 199.481 274.609 199.481 274.609Z" fill="#DA4436"/>
<path d="M213.93 178.133C213.93 178.133 226.648 193.48 229.772 204.553C231.826 211.835 227.775 232.814 228.248 238.366C229.026 247.513 233.067 258.708 238.305 275.107L241.77 274.615L232.228 238.319C232.228 238.319 236.643 210.969 235.469 204.125C234.294 197.281 224.095 180.688 224.095 180.688L219.44 180.367L213.93 178.133Z" fill="#DA4436"/>
<path d="M200.778 177.11C200.778 177.11 206.499 188.401 204.335 216.814L194.83 196.389L198.271 190.808L193.705 181.685C193.705 181.685 198.589 178.544 200.641 176.883L200.778 177.11Z" fill="#DA4436"/>
<path opacity="0.3" d="M233.087 232.66L235.575 210.43V234.123C235.575 234.123 233.977 233.302 233.087 232.66Z" fill="black"/>
<path opacity="0.3" d="M188.725 231.271C188.725 231.271 189.497 232.454 192.773 231.271C196.05 230.089 211.469 201.37 211.469 201.37L210.216 198.672L188.725 230.281V231.271Z" fill="black"/>
<path d="M214.743 187.301C214.552 187.419 210.709 196.918 210.709 196.918L200.396 191.789L205.992 186.97C205.992 186.97 214.924 186.946 214.834 187.124" fill="#FFB594"/>
<path d="M205.788 187.312C205.788 187.312 203.646 184.649 203.984 181.844C204.321 179.038 203.844 176.708 204.239 174.64C204.634 172.572 206.055 175.033 206.547 176.495C207.038 177.957 207.61 179.61 208.648 179.063C209.687 178.516 215.097 169.995 216.624 169.401C218.15 168.807 217.706 170.459 217.706 170.459C217.706 170.459 218.933 168.557 220.029 168.748C221.125 168.938 220.713 170.365 220.713 170.365C220.713 170.365 221.582 169.117 222.391 169.83C223.201 170.543 219.934 178.085 219.969 178.506C219.969 178.506 220.902 173.895 222.293 173.884C223.685 173.872 222.807 176.819 222.157 179.185C221.507 181.55 220.065 183.844 217.996 185.258C215.928 186.672 213.201 190.131 210.432 189.286C207.662 188.442 205.788 187.312 205.788 187.312Z" fill="#FFB594"/>
<path d="M186.365 181.086C186.365 181.086 182.214 180.324 179.208 186.333C176.202 192.341 174.175 225.652 177.667 228.286C181.159 230.92 185.332 232.598 191.148 229.9C196.963 227.201 212.517 195.701 212.517 195.701L201.329 189.835L189.416 202.257L186.365 181.086Z" fill="#DA4436"/>
<path opacity="0.3" d="M191.445 200.622C193.712 198.07 195.559 195.955 195.41 196.007C193.767 196.587 192.327 197.431 191.069 198.414C190.481 195.477 189.416 190.664 189.416 190.664C189.416 190.664 189.358 196.544 189.363 199.934C185.323 204.01 183.736 209.225 183.736 209.225C183.736 209.225 188.058 204.435 191.445 200.622Z" fill="black"/>
<path d="M128.421 140.585L126.562 132.595C126.357 131.713 125.84 130.935 125.106 130.404L115.965 123.797C115.965 123.797 115.116 124.94 115.965 126.165L113.702 125.267C113.702 125.267 112.948 126.736 114.456 127.879C115.965 129.022 118.323 131.635 118.323 131.635L113.136 129.186C113.136 129.186 111.816 129.675 113.136 131.308C114.456 132.941 118.606 135.146 118.606 135.146C118.606 135.146 119.309 143.588 120.818 145.058C122.327 146.528 127.434 146.083 127.434 146.083L128.421 140.585Z" fill="#E9B376"/>
<path d="M92.9001 169.239C92.9001 169.239 93.8158 162.669 89.9701 151.282C89.9701 151.27 90.5654 150.974 90.5654 150.961C90.0346 149.369 89.4791 147.9 88.9604 146.628C88.9482 146.591 88.9482 146.578 88.9482 146.578L105.148 155.641C104.938 159.345 106.572 166.414 107.492 169.389C107.492 169.389 110.922 175.932 103.682 176.486C98.3919 176.891 92.9001 169.239 92.9001 169.239Z" fill="#E9B376"/>
<path opacity="0.2" d="M105.644 160.816L96.4761 159.164C97.4229 161.952 100.067 165.19 106.397 165.188C106.397 165.188 105.63 162.055 105.644 160.816Z" fill="#263238"/>
<path d="M114.865 127.907C116.881 131.476 117.889 139.474 112.003 138.054C106.118 136.634 111.401 121.773 114.865 127.907Z" fill="#263238"/>
<path d="M88.4925 138.914C89.9917 148.869 90.6364 154.514 96.1512 159.157C104.447 166.142 116.138 160.603 117.647 150.371C119.005 141.161 116.326 126.429 106.165 123.406C96.154 120.429 86.9934 128.959 88.4925 138.914Z" fill="#E9B376"/>
<path d="M85.3657 125.853C86.2525 120.216 93.1197 116.544 97.2299 119.021C97.8441 119.391 93.6148 121.276 94.0952 121.051L94.5087 129.208C93.9033 129.129 92.7984 129.926 92.3571 131.824C92.3571 131.824 94.7641 142.292 90.8078 147.118C79.5411 143.08 78.1448 128.83 85.3657 125.853Z" fill="#263238"/>
<path d="M85.2767 147.614C86.3045 150.121 88.3982 151.907 90.471 152.718C93.5889 153.937 95.5118 151.217 94.9501 148.088C94.4445 145.272 92.2131 141.244 88.937 141.362C85.7093 141.478 84.1017 144.749 85.2767 147.614Z" fill="#E9B376"/>
<path d="M103.075 140.54C103.165 141.565 103.782 142.342 104.452 142.276C105.122 142.21 105.591 141.326 105.501 140.302C105.411 139.277 104.794 138.501 104.124 138.566C103.454 138.632 102.985 139.516 103.075 140.54Z" fill="#263238"/>
<path d="M113.138 139.853C113.228 140.877 113.845 141.654 114.515 141.588C115.185 141.522 115.654 140.639 115.564 139.614C115.474 138.59 114.857 137.813 114.188 137.879C113.517 137.945 113.048 138.828 113.138 139.853Z" fill="#263238"/>
<path d="M109.819 139.578C109.819 139.578 113.511 144.381 114.734 146.362C113.422 147.776 110.914 147.399 110.914 147.399L109.819 139.578Z" fill="#D58745"/>
<path d="M104.163 134.493C103.996 134.482 103.826 134.559 103.726 134.71C102.532 136.504 100.759 136.521 100.741 136.521C100.476 136.521 100.257 136.736 100.254 137.001C100.251 137.266 100.465 137.482 100.729 137.483C100.823 137.484 103.045 137.463 104.526 135.237C104.674 135.014 104.614 134.716 104.394 134.571C104.322 134.524 104.243 134.499 104.163 134.493Z" fill="#263238"/>
<path d="M113.316 132.933C113.225 132.943 113.136 132.979 113.06 133.042C112.856 133.213 112.825 133.517 112.994 133.721C114.683 135.769 116.881 135.513 116.981 135.515C117.244 135.482 117.435 135.243 117.405 134.979C117.376 134.715 117.141 134.528 116.879 134.557C116.788 134.571 115.092 134.746 113.737 133.102C113.631 132.974 113.471 132.915 113.316 132.933Z" fill="#263238"/>
<path d="M121.783 122.986C121.298 120.423 118.529 118.404 116.01 119.08C116.822 117.41 116.092 115.159 114.454 114.283C112.816 113.407 110.539 114.049 109.601 115.652C109.508 114.096 107.843 112.95 106.288 113.071C104.734 113.193 103.397 114.312 102.609 115.657C102.125 116.482 101.775 117.44 101.001 118.001C99.7891 118.88 98.1233 118.427 96.6301 118.314C94.1207 118.124 91.5469 119.078 89.7682 120.859C87.9897 122.639 87.0378 125.214 87.2306 127.723C85.8435 128.1 85.1562 129.218 84.2554 130.338L91.9293 131.566C94.0809 127.548 99.8876 130.656 102.794 131.76C104.883 132.554 106.944 132.613 108.531 132.554C110.118 132.495 110.838 131.332 110.859 129.744C113.292 130.685 116.146 130.746 118.435 129.495C120.724 128.244 122.268 125.549 121.783 122.986Z" fill="#263238"/>
<path d="M85.8228 126.32C85.774 126.32 85.7247 126.306 85.6817 126.277C84.1856 125.253 82.4107 124.602 81.0498 124.578C80.9117 124.576 80.8018 124.462 80.8042 124.324C80.8067 124.186 80.9068 124.095 81.0586 124.078C82.5337 124.104 84.3677 124.772 85.9639 125.864C86.0777 125.942 86.107 126.098 86.0293 126.211C85.9805 126.282 85.9024 126.32 85.8228 126.32Z" fill="#263238"/>
<path d="M85.6337 126.212C85.5536 126.212 85.4745 126.173 85.4262 126.101C84.2983 124.425 83.8168 122.316 84.1049 120.316C84.1249 120.179 84.2524 120.085 84.3881 120.104C84.5248 120.124 84.6196 120.25 84.6 120.387C84.329 122.266 84.7817 124.247 85.8412 125.822C85.9184 125.937 85.8876 126.092 85.7734 126.169C85.7304 126.198 85.6821 126.212 85.6337 126.212Z" fill="#263238"/>
<path d="M109.982 153.838C110.355 152.642 110.31 151.283 109.542 150.293C108.774 149.303 107.499 148.756 106.247 148.791C104.994 148.826 103.784 149.416 102.916 150.32C102.484 150.77 102.116 151.345 102.145 151.969C102.179 152.686 102.746 153.29 103.402 153.58C104.058 153.87 104.795 153.906 105.512 153.929C106.229 153.952 106.963 153.97 107.632 154.23C107.952 154.355 108.261 154.536 108.604 154.556C108.604 154.556 109.732 154.639 109.982 153.838Z" fill="#263238"/>
<path d="M103.952 149.49C104.253 149.555 108.94 150.561 109.165 150.48C109.359 150.409 109.328 150.111 109.311 150.01C109.188 149.877 109.068 149.741 108.926 149.628C108.89 149.599 108.846 149.568 108.805 149.537C108.074 149.001 107.157 148.71 106.247 148.736C105.427 148.759 104.652 149.058 103.952 149.49Z" fill="white"/>
<path d="M107.179 152.682C105.421 151.848 102.327 152.523 102.293 152.531C102.507 152.993 102.928 153.37 103.402 153.58C104.058 153.87 104.795 153.906 105.512 153.929C106.229 153.952 106.963 153.97 107.632 154.23C107.952 154.355 108.261 154.536 108.604 154.556C108.604 154.556 108.875 154.575 109.181 154.501C108.956 154.064 108.408 153.266 107.179 152.682Z" fill="#DE5753"/>
<path opacity="0.2" d="M92.1534 147.488C92.0371 147.488 91.9331 147.406 91.9087 147.287C91.7437 146.475 91.3667 145.718 90.8189 145.095C90.4639 144.693 89.8858 144.189 89.149 144.075C88.4922 143.971 87.814 144.263 87.5371 144.764C87.4703 144.886 87.3184 144.928 87.1973 144.862C87.0767 144.795 87.0328 144.643 87.0996 144.522C87.481 143.834 88.357 143.448 89.2251 143.581C90.1099 143.718 90.7842 144.3 91.1939 144.765C91.7994 145.452 92.2159 146.29 92.399 147.188C92.4263 147.323 92.3389 147.455 92.2037 147.483C92.1871 147.486 92.17 147.488 92.1534 147.488Z" fill="#263238"/>
<path d="M73.8643 141.48L76.9109 131.347C77.0875 130.759 77.4622 130.247 77.9745 129.892L86.3202 124.109C86.3202 124.109 87.1689 125.292 86.3202 126.559L88.5835 125.63C88.5835 125.63 89.3379 127.151 87.829 128.333C86.3202 129.516 83.9626 132.219 83.9626 132.219L89.1492 129.685C89.1492 129.685 90.4696 130.192 89.1492 131.882C87.829 133.571 83.6798 135.852 83.6798 135.852C83.6798 135.852 82.7407 143.746 81.2319 145.267C79.723 146.787 74.8511 147.169 74.8511 147.169L73.8643 141.48Z" fill="#E9B376"/>
<path d="M143.976 417.454L152.078 439.322L159.422 436.949L156.889 413.867L143.976 417.454Z" fill="#003B6D"/>
<path d="M151.287 448.519L157.945 448.469C157.945 448.469 159.286 447.743 160.078 447.833C160.866 447.923 163.612 448.425 163.612 448.425L181.294 448.292C181.147 447.552 180.968 446.894 180.764 446.31C180.517 445.598 180.231 444.996 179.914 444.487C178.805 442.707 177.306 442.083 175.68 441.992C173.202 441.856 165.372 436.714 165.372 436.714C165.372 436.714 162.538 435.747 162.362 432.739C162.295 431.611 160.619 430.246 159.825 430.139C158.207 429.918 157.315 430.949 157.092 432.567L156.835 434.447L153.096 433.893C153.096 433.893 149.282 432.009 149.48 433.866C149.594 434.925 150.268 439.642 150.697 443.384C150.797 444.257 150.891 445.082 150.973 445.806L150.975 445.807C151.159 447.414 151.287 448.519 151.287 448.519Z" fill="#003B6D"/>
<g opacity="0.2">
<path d="M181.294 448.29L163.612 448.423C163.612 448.423 160.866 447.921 160.078 447.83C159.286 447.741 157.945 448.467 157.945 448.467L151.287 448.516C151.287 448.516 151.159 447.412 150.975 445.805L180.764 446.308C180.968 446.891 181.147 447.55 181.294 448.29Z" fill="white"/>
</g>
<path d="M169.265 438.613C169.183 438.533 169.056 438.526 168.961 438.59C168.525 438.884 168.16 439.298 167.914 439.815C167.784 440.088 168.182 440.347 168.314 440.072C168.532 439.612 168.852 439.246 169.233 438.988C169.36 438.902 169.38 438.723 169.269 438.617L169.265 438.613Z" fill="#DA4436"/>
<path d="M167.853 437.801C167.77 437.721 167.644 437.713 167.549 437.777C167.113 438.072 166.747 438.486 166.501 439.003C166.371 439.275 166.77 439.534 166.901 439.259C167.12 438.8 167.439 438.434 167.82 438.176C167.947 438.09 167.967 437.911 167.856 437.804L167.853 437.801Z" fill="#DA4436"/>
<path d="M166.396 437.035C166.313 436.955 166.187 436.948 166.092 437.012C165.656 437.306 165.291 437.72 165.044 438.237C164.914 438.51 165.313 438.769 165.444 438.493C165.663 438.034 165.982 437.668 166.363 437.41C166.49 437.324 166.51 437.145 166.4 437.038L166.396 437.035Z" fill="#DA4436"/>
<path d="M91.0994 414.578L87.856 438.376L80.1002 438.768L77.5889 415.826L91.0994 414.578Z" fill="#003B6D"/>
<path d="M73.4966 449.422H90.8445C90.8445 449.422 91.223 448.694 90.7905 446.754C90.7246 446.452 90.6385 446.12 90.5264 445.757C90.5204 445.739 90.5165 445.721 90.5105 445.703C90.3484 445.167 90.162 444.506 89.964 443.794C89.1694 440.889 88.2346 437.094 88.2346 437.094C88.2346 437.094 85.3483 430.915 81.9715 432.458C79.009 433.812 79.7117 437.685 79.7117 437.685C79.7117 437.685 79.4215 439.958 77.1756 441.964C75.7865 443.203 74.4054 444.162 73.7408 445.703C73.6166 445.991 73.5187 446.298 73.4487 446.63C73.4407 446.67 73.4325 446.712 73.4265 446.754C73.2884 447.497 73.2965 448.367 73.4966 449.422Z" fill="#003B6D"/>
<g opacity="0.2">
<path d="M90.7905 446.758C91.223 448.698 90.8445 449.426 90.8445 449.426H73.4966C73.2965 448.371 73.2884 447.501 73.4265 446.758H90.7905Z" fill="white"/>
</g>
<path d="M80.4102 438.659C81.3859 437.899 82.6662 437.998 83.5438 438.854C83.7798 439.084 84.1422 438.722 83.9058 438.492C82.8105 437.423 81.2466 437.364 80.0482 438.297C79.7885 438.5 80.1533 438.86 80.4102 438.659Z" fill="#DA4436"/>
<path d="M79.9205 440.276C80.8964 439.516 82.1765 439.615 83.0542 440.471C83.2901 440.701 83.6525 440.339 83.4162 440.109C82.3208 439.04 80.7569 438.981 79.5584 439.914C79.2989 440.117 79.6635 440.477 79.9205 440.276Z" fill="#DA4436"/>
<path d="M79.4288 441.769C80.4045 441.008 81.6846 441.107 82.5624 441.963C82.7982 442.193 83.1607 441.832 82.9243 441.601C81.8289 440.533 80.265 440.473 79.0668 441.407C78.807 441.609 79.1717 441.969 79.4288 441.769Z" fill="#DA4436"/>
<path d="M73.1735 263.627L110.622 263.944L132.404 260.133C132.404 260.133 149.428 332.262 150.786 345.258C152.144 358.254 166.475 431.516 166.475 431.516L147.472 434.547C147.472 434.547 125.941 357.41 124.487 350.378C123.221 344.249 109.217 304.961 105.641 294.972C105.281 297.018 104.912 299.073 104.536 301.111C103.631 310.322 100.731 339.689 99.4681 350.617C99.4681 350.617 94.7153 416.7 94.0419 435.445L76.1944 434.547C73.9924 408.812 73.2449 315.069 73.2449 315.069L73.2478 315.068C72.0127 295.434 73.1735 263.627 73.1735 263.627Z" fill="#212121"/>
<g opacity="0.5">
<path d="M124.068 273.573C126.186 280.535 131.849 286.127 138.836 288.16C139.212 288.27 139.052 288.86 138.673 288.75C131.48 286.656 125.659 280.902 123.478 273.736C123.364 273.359 123.953 273.197 124.068 273.573Z" fill="#003B6D"/>
<path d="M105.045 273.571C105.457 279.662 105.86 285.762 106.273 291.853C106.293 292.246 106.902 292.246 106.882 291.853C106.666 288.729 106.46 285.595 106.253 282.461C107.756 283.621 109.515 282.216 110.006 280.664C110.811 278.149 110.507 275.162 109.878 272.647C109.78 272.264 109.191 272.431 109.289 272.805C109.731 274.573 109.918 276.38 109.79 278.198C109.731 279.121 109.642 280.182 109.21 281.027C108.729 281.97 107.511 282.766 106.538 281.911C106.43 281.823 106.312 281.813 106.214 281.862C106.027 279.102 105.841 276.331 105.654 273.571C105.634 273.178 105.025 273.178 105.045 273.571Z" fill="#003B6D"/>
<path d="M87.134 274.61C87.22 282.684 81.0046 289.446 72.9672 290.081C72.5819 290.111 72.5839 289.511 72.9672 289.48C80.6795 288.872 86.6157 282.337 86.5335 274.61C86.5293 274.224 87.1299 274.224 87.134 274.61Z" fill="#003B6D"/>
</g>
<path opacity="0.6" d="M129.243 264.75L116.402 265.93L116.914 271.507L129.756 270.327L129.243 264.75Z" fill="#003B6D"/>
<path opacity="0.6" d="M101.365 267.443L88.4795 267.953L88.7011 273.55L101.586 273.04L101.365 267.443Z" fill="#003B6D"/>
<path opacity="0.6" d="M115.061 266.172L102.219 267.352L102.732 272.929L115.573 271.749L115.061 266.172Z" fill="#003B6D"/>
<path d="M117.993 170.396C112.897 170.079 91.886 169.713 71.0847 173.887L75.923 243.719C75.923 243.719 76.2963 251.724 74.9521 262.324C96.7079 270.732 119.467 268.99 133.325 260.354C133.325 260.247 133.626 260.285 132.272 247.527C129.886 225.044 127.294 192.928 123.584 172.709C123.485 172.21 118.5 170.427 117.993 170.396Z" fill="white"/>
<path d="M96.6601 213.207C95.4613 192.288 88.9769 167.68 88.9769 167.68L72.6412 169.864L69.7598 189.979C69.7598 189.979 74.904 238.819 74.952 242.897L67.4197 286.721C67.5891 290.229 90.2092 288.96 98.6526 288.041C101.506 287.679 97.8589 234.126 96.6601 213.207Z" fill="#003B6D"/>
<path d="M109.468 167.903C109.468 167.903 119.254 190.298 119.971 224.86C120.687 259.424 124.826 286.191 124.826 286.191C124.826 286.191 140.229 286.471 141.884 283.299C142.796 281.565 134.186 246.941 134.186 246.941C134.186 246.941 131.883 171.811 130.514 167.902C130.514 167.902 109.124 167.823 109.468 167.903Z" fill="#003B6D"/>
<path d="M92.3868 162.562L88.0599 168.093L86.7103 178.769C86.5519 182.412 87.6988 185.993 89.9472 188.875L91.5783 190.966L88.6723 193.466C87.753 194.257 87.4144 195.526 87.8187 196.666L96.9207 222.324C96.7382 215.58 97.2594 203.438 94.6926 185.638C93.7321 178.638 92.5106 170.201 92.3868 162.562Z" fill="#003B6D"/>
<path d="M107.592 167.684C107.592 167.684 110.993 170.804 112.974 178.195C114.954 185.587 119.788 218.105 119.893 222.208L120.299 221.874L123.584 193.65C123.382 192.265 122.592 191.032 121.414 190.264L118.251 188.202C120.424 185.054 120.926 181.058 119.605 177.474C118.328 174.01 116.745 170.095 115.772 169.071C113.609 166.972 109.552 164.827 106.821 163.391L107.592 167.684Z" fill="#003B6D"/>
<path d="M101.314 177.894L103.836 181.681L107.143 181.507L108.048 177.145L104.069 172.891L101.314 177.894Z" fill="#DA4436"/>
<path opacity="0.2" d="M103.836 181.68L100.744 251.985L110.369 262.32L115.288 251.291L106.165 182.082L103.836 181.68Z" fill="#003B6D"/>
<path d="M103.836 181.681L103.348 251.887L110.369 262.321L116.372 251.293L107.161 181.422L103.836 181.681Z" fill="#DA4436"/>
<path opacity="0.2" d="M93.3984 176.959L100.155 181.682L104.268 174.279L108.85 179.643L109.86 170.68C109.86 170.68 107.378 176.185 107.313 175.993C107.249 175.801 104.304 173.09 104.304 173.09L98.7971 176.634L93.0408 172.891C93.0516 172.944 93.3984 176.959 93.3984 176.959Z" fill="#003B6D"/>
<path d="M92.3987 163.164L103.504 170.22L106.814 163.391L109.86 170.682L108.46 178.257L104.069 172.894C104.069 172.894 100.045 180.128 99.7184 180.27C99.3921 180.411 93.2197 174.284 93.2197 174.284C92.7242 170.682 92.4647 166.969 92.3987 163.164Z" fill="white"/>
<path d="M72.1379 139.734C72.1379 139.734 33.5846 152.411 30.4866 156.886C27.3886 161.36 28.5933 165.837 30.4866 168.595C32.3798 171.352 71.6216 191.461 72.1379 191.175C72.6543 190.889 80.9157 171.269 80.9157 171.269L51.9961 161.293L75.9244 150.055L72.1379 139.734Z" fill="#003B6D"/>
<path d="M130.164 136.555C130.164 136.555 168.717 149.232 171.816 153.706C174.914 158.18 173.709 162.657 171.816 165.415C169.922 168.172 130.681 188.281 130.164 187.995C129.648 187.71 121.386 168.089 121.386 168.089L150.306 158.114L126.378 146.876L130.164 136.555Z" fill="#003B6D"/>
</svg>
