<svg width="23" height="23" viewBox="0 0 23 23" fill="none" xmlns="http://www.w3.org/2000/svg">
<g clip-path="url(#clip0_5591_28774)">
<path d="M18.6958 0.72253H4.50652C3.51884 0.72253 2.67375 1.07378 1.97124 1.77629C1.26873 2.4788 0.91748 3.32389 0.91748 4.31157V18.5008C0.91748 19.4885 1.26873 20.3336 1.97124 21.0361C2.67375 21.7386 3.51884 22.0898 4.50652 22.0898H18.6958C19.6834 22.0898 20.5285 21.7386 21.231 21.0361C21.9335 20.3336 22.2848 19.4885 22.2848 18.5008V4.31157C22.2848 3.32389 21.9335 2.4788 21.231 1.77629C20.5285 1.07378 19.6834 0.72253 18.6958 0.72253ZM8.93022 18.0835H6.25931V8.73527H8.93022V18.0835ZM7.59477 7.39982C7.21917 7.39982 6.90269 7.27114 6.64534 7.01379C6.38799 6.75643 6.25931 6.43996 6.25931 6.06436C6.25931 5.68876 6.38799 5.37229 6.64534 5.11493C6.90269 4.85758 7.21917 4.7289 7.59477 4.7289C7.97036 4.7289 8.28684 4.85758 8.54419 5.11493C8.80155 5.37229 8.93022 5.68876 8.93022 6.06436C8.93022 6.43996 8.80155 6.75643 8.54419 7.01379C8.28684 7.27114 7.97036 7.39982 7.59477 7.39982ZM18.2784 18.0835H15.6075V12.7416C15.6075 12.366 15.4788 12.0496 15.2215 11.7922C14.9641 11.5349 14.6476 11.4062 14.2721 11.4062C13.8965 11.4062 13.58 11.5349 13.3226 11.7922C13.0653 12.0496 12.9366 12.366 12.9366 12.7416V18.0835H10.2657V8.73527H12.9366V10.3837C13.2148 10.0081 13.5556 9.63949 13.9591 9.2778C14.3625 8.91612 14.8007 8.73527 15.2736 8.73527C16.1083 8.73527 16.8178 9.06218 17.402 9.716C17.9863 10.3698 18.2784 11.1558 18.2784 12.0739V18.0835Z" fill="white"/>
</g>
<defs>
<clipPath id="clip0_5591_28774">
<rect width="21.6745" height="21.3673" fill="white" transform="matrix(1 0 0 -1 0.763184 22.0898)"/>
</clipPath>
</defs>
</svg>
