<svg width="19" height="23" viewBox="0 0 19 23" fill="none" xmlns="http://www.w3.org/2000/svg">
<path d="M8.30221 0.0299886C13.4805 -0.384212 17.7022 3.54302 18.1881 8.66684C18.6741 13.7907 15.0143 18.3315 11.5216 21.3997C11.0964 21.7678 9.77523 22.9337 9.30447 22.9951C8.54519 23.0718 7.6796 22.2281 7.11773 21.7525C2.33423 17.7025 -2.25186 11.2441 1.21048 4.83165C2.60757 2.23906 5.341 0.2601 8.30221 0.0299886ZM8.83371 2.30042C5.2347 2.45383 2.4709 5.59868 2.27348 9.15774C2.03051 13.5912 5.93324 17.8406 9.12224 20.4025C13.2528 17.0276 18.1729 11.2287 14.8321 5.62937C13.6476 3.65041 11.5671 2.39247 9.28929 2.28508H8.81853L8.83371 2.30042Z" fill="#FCBB1B"/>
<path d="M8.6823 4.6167C13.1925 4.21784 15.4551 9.87858 11.9776 12.7933C9.83642 14.5729 6.51074 13.8979 5.15921 11.4894C3.54953 8.58995 5.40219 4.90817 8.6823 4.6167ZM8.72786 6.93315C5.96406 7.31667 6.37407 11.7962 9.35047 11.4894C12.3269 11.1825 11.9169 6.48827 8.72786 6.93315Z" fill="#FCBB1B"/>
</svg>
