<svg width="56" height="57" viewBox="0 0 56 57" fill="none" xmlns="http://www.w3.org/2000/svg">
<g filter="url(#filter0_i_5720_10527)">
<path d="M55.3451 33.0268C55.4994 32.0665 55.6022 31.0966 55.7308 30.131V26.9744C55.6976 26.799 55.6643 26.6248 55.6343 26.4472C55.3504 24.7534 55.2433 23.0072 54.7591 21.3723C51.4766 10.2813 44.1499 3.49752 32.8271 1.07444C31.8394 0.863785 30.8259 0.777171 29.8264 0.632812H26.0168C24.8009 0.812458 23.5753 0.945054 22.3701 1.17817C9.94602 3.58734 0.547389 14.4987 0.0267306 27.153C-0.255025 34.0458 1.68834 40.2714 5.96502 45.695C10.3906 51.3068 16.1779 54.7136 23.2271 55.9401C24.2941 56.1262 25.3762 56.2246 26.4518 56.3636H29.3904C29.5296 56.3326 29.6678 56.2823 29.8082 56.2738C33.6574 56.0182 37.2838 54.9788 40.7131 53.223C40.9691 53.0925 41.343 53.053 41.6205 53.1257C44.2656 53.8122 46.9031 54.5265 49.5407 55.2419C50.7888 55.5819 52.0315 55.9369 53.2764 56.2855C53.3685 56.3112 53.4607 56.3379 53.5528 56.3636H54.4238C55.0462 56.1144 55.4833 55.6814 55.7308 55.0569V54.1864C55.6933 54.1063 55.644 54.0293 55.6204 53.9469C55.6129 53.9223 55.6076 53.8977 55.6001 53.8731C54.5512 49.9648 53.5014 46.0575 52.4675 42.1448C52.4108 41.9288 52.4418 41.638 52.5447 41.4391C53.9202 38.7808 54.8716 35.9824 55.3451 33.0257V33.0268ZM38.6551 41.1258C37.6995 42.6998 36.3078 43.9627 34.4802 44.9165C32.6525 45.8704 30.4981 46.3473 28.0169 46.3473C25.6697 46.3473 23.5571 45.9377 21.6791 45.1176C19.801 44.2974 18.3258 43.134 17.2524 41.6284C16.1789 40.1228 15.6422 38.3648 15.6422 36.3566H21.7787C21.9126 37.8633 22.5083 39.1016 23.5646 40.0714C24.6209 41.0424 26.1047 41.5279 28.0159 41.5279C29.9271 41.5279 31.5373 41.0509 32.644 40.0971C33.7506 39.1433 34.3034 37.9136 34.3034 36.4069C34.3034 35.236 33.9595 34.2821 33.2728 33.5454C32.585 32.8097 31.7301 32.2397 30.707 31.8387C29.6839 31.4367 28.2676 31.0025 26.456 30.5331C24.1752 29.9311 22.3229 29.3205 20.8981 28.7003C19.4721 28.0812 18.2573 27.1188 17.2513 25.8131C16.2453 24.5075 15.7418 22.7677 15.7418 20.5917C15.7418 18.5835 16.2453 16.8266 17.2513 15.3199C18.2573 13.8132 19.6661 12.6594 21.4766 11.8553C23.2871 11.0523 25.3826 10.6502 27.7641 10.6502C31.1505 10.6502 33.9263 11.496 36.0893 13.1855C38.2523 14.8761 39.4511 17.1944 39.6857 20.1393H33.3478C33.2471 18.8679 32.644 17.7793 31.5373 16.8758C30.4306 15.9722 28.9715 15.5199 27.161 15.5199C25.5176 15.5199 24.1763 15.939 23.1371 16.7753C22.0969 17.6125 21.5784 18.8177 21.5784 20.3906C21.5784 21.4621 21.9051 22.3411 22.5586 23.0265C23.2132 23.713 24.0424 24.2562 25.0483 24.6583C26.0543 25.0603 27.4288 25.4955 29.1729 25.9639C31.4869 26.6002 33.3735 27.2364 34.8316 27.8716C36.2907 28.5078 37.5302 29.4873 38.5544 30.809C39.5764 32.1317 40.0885 33.8972 40.0885 36.1053C40.0885 37.8793 39.6107 39.5528 38.6551 41.1258Z" fill="#FCBB1B"/>
</g>
<defs>
<filter id="filter0_i_5720_10527" x="-1.29509" y="0.632812" width="57.0258" height="57.6734" filterUnits="userSpaceOnUse" color-interpolation-filters="sRGB">
<feFlood flood-opacity="0" result="BackgroundImageFix"/>
<feBlend mode="normal" in="SourceGraphic" in2="BackgroundImageFix" result="shape"/>
<feColorMatrix in="SourceAlpha" type="matrix" values="0 0 0 0 0 0 0 0 0 0 0 0 0 0 0 0 0 0 127 0" result="hardAlpha"/>
<feOffset dx="-1.29509" dy="1.94264"/>
<feGaussianBlur stdDeviation="2.26641"/>
<feComposite in2="hardAlpha" operator="arithmetic" k2="-1" k3="1"/>
<feColorMatrix type="matrix" values="0 0 0 0 0 0 0 0 0 0 0 0 0 0 0 0 0 0 0.2 0"/>
<feBlend mode="multiply" in2="shape" result="effect1_innerShadow_5720_10527"/>
</filter>
</defs>
</svg>
