<svg width="197" height="73" viewBox="0 0 197 73" fill="none" xmlns="http://www.w3.org/2000/svg">
<path d="M163.477 0C164.771 0.186821 166.082 0.298668 167.361 0.571289C182.014 3.7071 191.495 12.4866 195.744 26.8398C196.37 28.9558 196.509 31.2162 196.876 33.4082C196.915 33.6377 196.958 33.8631 197.001 34.0898V38.1748C196.835 39.4244 196.702 40.6801 196.502 41.9229L196.38 42.6367C195.734 46.1999 194.547 49.5844 192.878 52.8096C192.745 53.0669 192.705 53.4431 192.779 53.7227C194.117 58.7862 195.475 63.8434 196.832 68.9014C196.842 68.9331 196.849 68.9653 196.859 68.9971C196.889 69.1034 196.953 69.203 197.001 69.3066V70.4326C196.681 71.2408 196.115 71.8016 195.31 72.124H194.183C194.064 72.0909 193.945 72.0566 193.826 72.0234C192.215 71.5723 190.606 71.1129 188.991 70.6729C185.577 69.747 182.164 68.822 178.741 67.9336C178.382 67.8395 177.897 67.8907 177.566 68.0596C173.128 70.3318 168.435 71.6771 163.454 72.0078C163.272 72.0189 163.093 72.0839 162.913 72.124H159.11C157.718 71.9441 156.318 71.8169 154.937 71.5762C145.814 69.9889 138.324 65.5798 132.597 58.3174C127.062 51.2985 124.547 43.2416 124.912 34.3213C125.585 17.9447 137.749 3.82394 153.828 0.706055C155.387 0.404373 156.974 0.232489 158.547 0H163.477Z" fill="#16A458"/>
<path d="M15.1798 57.958C14.1572 57.958 13.0994 57.9227 12.0063 57.8522C10.9485 57.8169 9.8554 57.7464 8.72705 57.6406C7.63397 57.4996 6.59377 57.3585 5.60647 57.2175C4.61917 57.0412 3.72002 56.8473 2.90902 56.6357V50.4474C3.96684 50.5532 5.16571 50.6414 6.50562 50.7119C7.84553 50.7824 9.23834 50.8353 10.684 50.8705C12.1297 50.9058 13.5049 50.9234 14.8095 50.9234C16.1495 50.9234 17.2954 50.8177 18.2475 50.6061C19.2348 50.3593 19.9929 49.9538 20.5218 49.3896C21.0507 48.7902 21.3152 47.9792 21.3152 46.9566V45.5285C21.3152 44.3649 20.9626 43.4834 20.2573 42.884C19.5874 42.2493 18.6177 41.9319 17.3483 41.9319H14.0162C10.2785 41.9319 7.40477 41.1209 5.39491 39.4989C3.4203 37.8417 2.433 35.0384 2.433 31.0892V29.1851C2.433 25.377 3.52608 22.5914 5.71225 20.8283C7.89843 19.0653 11.019 18.1838 15.074 18.1838C16.5197 18.1838 17.9478 18.2543 19.3582 18.3953C20.8039 18.5364 22.1791 18.7127 23.4837 18.9242C24.8236 19.1005 25.9696 19.2945 26.9216 19.506V25.6943C25.2996 25.5885 23.4837 25.4827 21.4738 25.377C19.4992 25.2712 17.6657 25.2183 15.9732 25.2183C14.7743 25.2183 13.6988 25.3417 12.7468 25.5885C11.83 25.8001 11.1248 26.2232 10.6311 26.8579C10.1375 27.4926 9.89066 28.3918 9.89066 29.5554V30.6132C9.89066 31.9884 10.2785 32.9757 11.0543 33.5751C11.83 34.1745 12.976 34.4743 14.4922 34.4743H18.3533C20.7157 34.4743 22.6551 34.915 24.1713 35.7965C25.7228 36.6428 26.8688 37.824 27.6092 39.3403C28.385 40.8565 28.7728 42.5843 28.7728 44.5236V46.745C28.7728 49.8127 28.191 52.1576 27.0274 53.7796C25.8991 55.4016 24.3123 56.5123 22.2672 57.1117C20.2573 57.6759 17.8949 57.958 15.1798 57.958ZM46.1141 57.9051C42.9759 57.9051 40.4724 57.4996 38.6036 56.6886C36.7348 55.8423 35.3772 54.3614 34.531 52.2457C33.72 50.1301 33.3145 47.2034 33.3145 43.4658C33.3145 39.6223 33.7023 36.6428 34.4781 34.5272C35.2538 32.4115 36.5585 30.9305 38.392 30.0843C40.2256 29.238 42.7115 28.8149 45.8497 28.8149C48.6705 28.8149 50.9272 29.097 52.6198 29.6612C54.3123 30.2253 55.5288 31.2126 56.2693 32.6231C57.045 34.0335 57.4329 36.0257 57.4329 38.5998C57.4329 40.5039 57.045 42.0201 56.2693 43.1484C55.5288 44.2415 54.471 45.0349 53.0958 45.5285C51.7206 45.9869 50.0986 46.2161 48.2298 46.2161H41.0895C41.16 47.6618 41.3716 48.8254 41.7242 49.7069C42.112 50.5532 42.7996 51.1703 43.7869 51.5581C44.8095 51.9107 46.2728 52.087 48.1769 52.087H56.4808V56.6886C55.1056 56.9707 53.5894 57.2528 51.9322 57.5348C50.3102 57.7817 48.3708 57.9051 46.1141 57.9051ZM40.9837 41.5617H47.4364C48.4942 41.5617 49.27 41.3501 49.7636 40.927C50.2573 40.5039 50.5041 39.7458 50.5041 38.6527C50.5041 37.6301 50.3454 36.8191 50.0281 36.2197C49.7107 35.585 49.2171 35.1442 48.5471 34.8974C47.8772 34.6153 46.978 34.4743 45.8497 34.4743C44.6508 34.4743 43.6988 34.6858 42.9936 35.109C42.2883 35.4968 41.7771 36.202 41.4597 37.2246C41.1424 38.2472 40.9837 39.6929 40.9837 41.5617ZM62.5691 57.6406V29.238H69.0218L70.397 32.147C71.4548 31.2655 72.7771 30.4898 74.3638 29.8198C75.9858 29.1146 77.6431 28.762 79.3356 28.762C81.6628 28.762 83.4611 29.2204 84.7305 30.1372C85.9999 31.054 86.8814 32.2881 87.3751 33.8396C87.904 35.3558 88.1685 37.0483 88.1685 38.9171V57.6406H80.3406V39.9221C80.3406 39.0053 80.1643 38.2472 79.8116 37.6477C79.4943 37.0483 79.0359 36.5899 78.4365 36.2726C77.837 35.9552 77.1142 35.7965 76.2679 35.7965C75.5275 35.7965 74.8046 35.8847 74.0994 36.061C73.4294 36.2373 72.7771 36.4841 72.1424 36.8015C71.543 37.1188 70.9612 37.4891 70.397 37.9122V57.6406H62.5691ZM104.815 57.6406C102.629 57.6406 100.848 57.3233 99.4727 56.6886C98.1328 56.0539 97.1631 54.9961 96.5637 53.5151C95.9643 52.0342 95.6998 50.0419 95.7703 47.5384L96.0348 35.5321H91.5919V30.5074L96.2992 29.238L97.3571 21.3043H103.545V29.238H110.21V35.5321H103.545V47.4855C103.545 48.2612 103.616 48.8959 103.757 49.3896C103.898 49.8832 104.092 50.2887 104.339 50.6061C104.621 50.8882 104.938 51.0997 105.291 51.2408C105.643 51.3818 105.996 51.47 106.349 51.5052L109.945 51.8226V57.6406H104.815ZM115.534 25.0596C114.794 25.0596 114.424 24.707 114.424 24.0018V18.8185C114.424 18.078 114.794 17.7077 115.534 17.7077H121.564C121.881 17.7077 122.128 17.8135 122.304 18.0251C122.481 18.2367 122.569 18.5011 122.569 18.8185V24.0018C122.569 24.707 122.234 25.0596 121.564 25.0596H115.534ZM114.582 57.6406V29.238H122.41V57.6406H114.582Z" fill="#212121"/>
<path d="M141.965 57.958C139.673 57.958 137.646 57.6935 135.883 57.1646C134.155 56.6357 132.674 55.666 131.44 54.2556C130.241 52.8452 129.324 50.8353 128.689 48.226C128.09 45.5814 127.79 42.1611 127.79 37.9651C127.79 33.9101 128.108 30.5956 128.742 28.0215C129.412 25.4122 130.364 23.4024 131.598 21.9919C132.832 20.5462 134.331 19.5413 136.094 18.9771C137.857 18.413 139.849 18.1309 142.071 18.1309C143.834 18.1309 145.473 18.2366 146.99 18.4482C148.541 18.6245 149.934 18.8537 151.168 19.1358C152.402 19.3826 153.442 19.6647 154.289 19.9821V26.0646C153.654 25.9235 152.79 25.7825 151.697 25.6414C150.639 25.5004 149.423 25.3946 148.048 25.3241C146.672 25.2183 145.227 25.1654 143.71 25.1654C142.23 25.1654 140.96 25.3417 139.902 25.6943C138.88 26.0117 138.051 26.6287 137.416 27.5455C136.817 28.427 136.359 29.714 136.041 31.4066C135.759 33.0991 135.618 35.3029 135.618 38.018C135.618 40.6273 135.742 42.7782 135.988 44.4707C136.27 46.1632 136.711 47.4855 137.311 48.4375C137.91 49.3543 138.721 50.0067 139.744 50.3945C140.801 50.7471 142.124 50.9234 143.71 50.9234C146.39 50.9234 148.559 50.8705 150.216 50.7648C151.909 50.659 153.266 50.5356 154.289 50.3945V56.4241C153.337 56.7415 152.244 57.0236 151.009 57.2704C149.775 57.482 148.418 57.6406 146.937 57.7464C145.456 57.8875 143.799 57.958 141.965 57.958ZM181.736 57.6406L157.3 18.5011H165.974L190.41 57.6406H181.736ZM157.459 57.6406L170.576 36.2726L174.596 42.884L166.133 57.6406H157.459ZM177.24 40.3452L173.273 33.7338L181.948 18.5011H190.569L177.24 40.3452Z" fill="white"/>
</svg>
