<svg width="21" height="16" viewBox="0 0 21 16" fill="none" xmlns="http://www.w3.org/2000/svg">
<path d="M-0.000488281 12.799V3.20096C0.22516 1.54476 1.53916 0.195161 3.25638 0.00693195L17.5257 0C19.3998 0.176498 20.8263 1.71806 20.9411 3.53903C21.1274 6.49843 20.7957 9.64234 20.9411 12.6209C20.8219 14.3849 19.3806 15.8587 17.5667 16H3.37166C1.68941 15.8923 0.155771 14.4472 -0.000488281 12.7985V12.799ZM17.381 2.04119H3.47602L9.55758 7.03219C10.3039 7.45664 11.0705 7.33613 11.7157 6.79917L17.381 2.04119ZM18.7305 3.60088L12.5844 8.60894C11.2147 9.52236 9.5696 9.5101 8.20697 8.59295L2.08552 3.60088V12.8193C2.08552 13.3856 3.11323 14.1572 3.70167 14.0788C8.30423 14.0479 12.9183 14.1438 17.5148 14.0297C18.1355 13.9066 18.7561 13.2406 18.7698 12.6135C18.7709 12.5543 18.731 12.5122 18.731 12.4994V3.60088H18.7305Z" fill="#FCBB1B"/>
</svg>
