<svg width="92" height="82" viewBox="0 0 92 82" fill="none" xmlns="http://www.w3.org/2000/svg">
<path fill-rule="evenodd" clip-rule="evenodd" d="M81.2156 47.8458L92 41.1076L81.2156 34.3695C78.0041 14.9899 61.1715 0.21875 40.8889 0.21875C18.3063 0.21875 0 18.525 0 41.1076C0 63.6902 18.3063 81.9965 40.8889 81.9965C61.1715 81.9965 78.0041 67.2254 81.2156 47.8458ZM40.8889 71.7743C23.9541 71.7743 10.2222 58.0425 10.2222 41.1076C10.2222 24.1728 23.9541 10.441 40.8889 10.441C57.8237 10.441 71.5556 24.1728 71.5556 41.1076C71.5556 58.0425 57.8237 71.7743 40.8889 71.7743Z" fill="#0072D3"/>
<path fill-rule="evenodd" clip-rule="evenodd" d="M29.165 59H54.835C57.1353 59 59 57.1353 59 54.835V29.165C59 26.8647 57.1353 25 54.835 25H29.165C26.8647 25 25 26.8647 25 29.165V54.835C25 57.1353 26.8647 59 29.165 59ZM54.835 56.1667H29.165C28.3826 56.1667 27.7483 55.5324 27.7483 54.75V29.25C27.7476 28.8591 27.9085 28.4852 28.1929 28.217C28.4772 27.9487 28.8598 27.8099 29.25 27.8333H54.75C55.5324 27.8333 56.1667 28.4676 56.1667 29.25V54.835C56.1248 55.5524 55.5524 56.1248 54.835 56.1667ZM51.69 47.0858L48.7575 49.6783C48.6307 49.7856 48.4451 49.7856 48.3183 49.6783L46.3775 48.2617C45.9269 47.9428 45.3851 47.7788 44.8333 47.7942C44.2477 47.7963 43.6833 48.0131 43.2467 48.4033L39.6767 51.5625C39.0948 52.0833 39.0441 52.9767 39.5633 53.56C39.8286 53.862 40.2097 54.0371 40.6117 54.0417C40.9609 54.0446 41.2989 53.9185 41.5608 53.6875L44.72 50.8542C44.8532 50.7502 45.0401 50.7502 45.1733 50.8542L47.1 52.2708C47.5697 52.6068 48.138 52.7763 48.715 52.7525C49.2996 52.7452 49.8624 52.5291 50.3017 52.1433L53.6167 49.1967C54.0223 48.8699 54.216 48.347 54.1209 47.8348C54.0258 47.3227 53.6574 46.9041 53.1616 46.7447C52.6657 46.5853 52.1223 46.7108 51.7467 47.0717L51.69 47.0858ZM45.3008 39.3367C45.2518 39.2675 45.1731 39.2255 45.0883 39.2233L39.3225 38.77C39.2274 38.7659 39.1349 38.8019 39.0675 38.8692C39.0268 38.9543 39.0268 39.0532 39.0675 39.1383L40.3142 44.805C40.3358 44.8901 40.3924 44.9621 40.47 45.0033C40.5511 45.0397 40.6439 45.0397 40.725 45.0033C43.0674 44.0701 44.8107 42.0574 45.4 39.6058C45.4215 39.5045 45.3829 39.3998 45.3008 39.3367ZM35.2142 30.3975C35.1297 30.4225 35.0616 30.4853 35.03 30.5675C34.9936 30.6486 34.9936 30.7414 35.03 30.8225L38.26 36.7442C38.3007 36.8406 38.3962 36.9024 38.5008 36.9L45.2158 37.4242C45.3046 37.4315 45.3922 37.4006 45.4567 37.3392C45.514 37.2723 45.5443 37.1864 45.5417 37.0983C45.3441 34.6971 44.0449 32.5229 42.0236 31.2115C40.0024 29.9 37.4875 29.5994 35.2142 30.3975ZM33.2733 31.5308C33.1919 31.4962 33.0998 31.4962 33.0183 31.5308C30.3392 33.5528 29.256 37.0631 30.33 40.2431C31.4039 43.4231 34.3936 45.558 37.75 45.5417H38.2033C38.292 45.5396 38.3751 45.498 38.43 45.4283C38.4646 45.3469 38.4646 45.2548 38.43 45.1733L36.8717 38.09V38.0192L33.5 31.6725C33.4511 31.5921 33.367 31.5395 33.2733 31.5308ZM49.7917 32.7917C49.7917 33.5741 50.4259 34.2083 51.2083 34.2083C51.9907 34.2083 52.625 33.5741 52.625 32.7917C52.625 32.0093 51.9907 31.375 51.2083 31.375C50.4259 31.375 49.7917 32.0093 49.7917 32.7917ZM49.7917 37.0417C49.7917 37.8241 50.4259 38.4583 51.2083 38.4583C51.9907 38.4583 52.625 37.8241 52.625 37.0417C52.625 36.2593 51.9907 35.625 51.2083 35.625C50.4259 35.625 49.7917 36.2593 49.7917 37.0417ZM49.7917 41.2917C49.7917 42.0741 50.4259 42.7083 51.2083 42.7083C51.9907 42.7083 52.625 42.0741 52.625 41.2917C52.625 40.5093 51.9907 39.875 51.2083 39.875C50.4259 39.875 49.7917 40.5093 49.7917 41.2917Z" fill="#212121"/>
</svg>
