<svg width="92" height="82" viewBox="0 0 92 82" fill="none" xmlns="http://www.w3.org/2000/svg">
<path fill-rule="evenodd" clip-rule="evenodd" d="M81.2156 47.8458L92 41.1076L81.2156 34.3695C78.0041 14.9899 61.1715 0.21875 40.8889 0.21875C18.3063 0.21875 0 18.525 0 41.1076C0 63.6902 18.3063 81.9965 40.8889 81.9965C61.1715 81.9965 78.0041 67.2254 81.2156 47.8458ZM40.8889 71.7743C23.9541 71.7743 10.2222 58.0425 10.2222 41.1076C10.2222 24.1728 23.9541 10.441 40.8889 10.441C57.8237 10.441 71.5556 24.1728 71.5556 41.1076C71.5556 58.0425 57.8237 71.7743 40.8889 71.7743Z" fill="#0072D3"/>
<path fill-rule="evenodd" clip-rule="evenodd" d="M32.987 43.6676C32.9858 38.689 37.0214 34.6524 42 34.6524C46.9786 34.6524 51.0142 38.689 51.013 43.6676H32.987ZM48.5629 26.4466C48.5195 22.7893 45.531 19.8535 41.8736 19.8751C38.2161 19.8968 35.2626 22.8678 35.2626 26.5254C35.2626 30.1829 38.2161 33.154 41.8736 33.1756C45.531 33.1973 48.5195 30.2614 48.5629 26.6041V26.4466ZM42 30.5418C39.8321 30.5322 38.0798 28.772 38.0798 26.6041C38.0718 25.8937 38.266 25.1957 38.6398 24.5915C40.4414 26.6326 43.023 27.8153 45.7452 27.8467C45.2044 29.4556 43.6974 30.5402 42 30.5418ZM62.6161 47.1152L58.2409 42.7925C57.8724 42.4236 57.3204 42.3078 56.8347 42.4976C56.349 42.6873 56.0217 43.1465 56.0008 43.6676V46.7302H27.9992V43.6676C27.9783 43.1465 27.651 42.6873 27.1653 42.4976C26.6796 42.3078 26.1276 42.4236 25.7591 42.7925L21.3839 47.1678C20.872 47.6802 20.872 48.5104 21.3839 49.0229L25.7591 53.2931C26.1276 53.662 26.6796 53.7778 27.1653 53.588C27.651 53.3983 27.9783 52.9391 27.9992 52.418V49.3554H40.6874V55.0432H37.6248C37.0956 55.0396 36.6174 55.3584 36.4172 55.8482C36.2108 56.3391 36.3214 56.906 36.6972 57.2833L41.0724 61.6585C41.5849 62.1704 42.4151 62.1704 42.9276 61.6585L47.3028 57.2833C47.6786 56.906 47.7892 56.3391 47.5828 55.8482C47.3826 55.3584 46.9044 55.0396 46.3752 55.0432H43.3126V49.3554H56.0008V52.418C56.0012 52.9486 56.321 53.4267 56.8112 53.6296C57.3014 53.8326 57.8655 53.7205 58.2409 53.3456L62.6161 48.9704C63.128 48.4579 63.128 47.6277 62.6161 47.1152Z" fill="#212121"/>
</svg>
