<svg width="92" height="82" viewBox="0 0 92 82" fill="none" xmlns="http://www.w3.org/2000/svg">
<path fill-rule="evenodd" clip-rule="evenodd" d="M59.375 37.25H56.125C55.7593 37.2479 55.4401 37.0019 55.345 36.6487C55.1267 35.7469 54.8443 34.8617 54.5 34C54.3841 33.6924 54.4535 33.3456 54.6787 33.1062L57.0187 30.75C57.6488 30.1162 57.6488 29.0926 57.0187 28.4587L53.5575 24.9812C52.9237 24.3512 51.9001 24.3512 51.2662 24.9812L48.9262 27.3213C48.6848 27.5679 48.3158 27.6391 48 27.5C47.1238 27.1369 46.2222 26.8382 45.3025 26.6062C44.9853 26.4995 44.766 26.2093 44.75 25.875V22.625C44.75 21.7275 44.0225 21 43.125 21H39.875C38.9775 21 38.25 21.7275 38.25 22.625V25.875C38.2479 26.2407 38.0019 26.5599 37.6487 26.655C36.7469 26.8733 35.8617 27.1557 35 27.5C34.6924 27.6159 34.3456 27.5465 34.1062 27.3212L31.75 24.9812C31.1162 24.3512 30.0926 24.3512 29.4587 24.9812L25.9812 28.4425C25.6736 28.7476 25.5006 29.163 25.5006 29.5962C25.5006 30.0295 25.6736 30.4449 25.9812 30.75L28.3213 33.0575C28.5665 33.3063 28.6371 33.6787 28.5 34C28.1369 34.8762 27.8382 35.7778 27.6062 36.6975C27.4995 37.0147 27.2093 37.234 26.875 37.25H23.625C22.7275 37.25 22 37.9775 22 38.875V42.125C22 43.0225 22.7275 43.75 23.625 43.75H26.875C27.2407 43.7521 27.5599 43.9981 27.655 44.3512C27.8733 45.2531 28.1557 46.1383 28.5 47C28.6159 47.3076 28.5465 47.6544 28.3212 47.8937L25.9812 50.25C25.3512 50.8838 25.3512 51.9074 25.9812 52.5412L29.4425 56.0025C30.0763 56.6325 31.0999 56.6325 31.7337 56.0025L34.0575 53.6625C34.3056 53.4142 34.6831 53.3491 35 53.5C35.8762 53.8631 36.7778 54.1618 37.6975 54.3937C38.0147 54.5005 38.234 54.7907 38.25 55.125V58.375C38.25 59.2725 38.9775 60 39.875 60H43.125C44.0225 60 44.75 59.2725 44.75 58.375V55.125C44.7521 54.7593 44.9981 54.4401 45.3512 54.345C46.2531 54.1267 47.1383 53.8443 48 53.5C48.3023 53.3828 48.6451 53.4527 48.8775 53.6787L51.25 56.0187C51.8838 56.6488 52.9074 56.6488 53.5412 56.0187L57.0025 52.5575C57.6325 51.9237 57.6325 50.9001 57.0025 50.2662L54.6625 47.9425C54.4228 47.69 54.3587 47.3181 54.5 47C54.8631 46.1238 55.1618 45.2222 55.3937 44.3025C55.5005 43.9853 55.7907 43.766 56.125 43.75H59.375C60.2725 43.75 61 43.0225 61 42.125V38.875C61 37.9775 60.2725 37.25 59.375 37.25ZM50.405 45.0825C50.211 45.2055 49.9846 45.2677 49.755 45.2612C49.3414 45.2654 48.9548 45.0567 48.7312 44.7087L48.2112 43.8962L41.1587 46.09C41.5487 47.0487 41.695 47.0975 42.475 47.3737C43.042 47.5666 43.3849 48.1429 43.2838 48.7333C43.1827 49.3236 42.6677 49.753 42.0687 49.7462C41.9343 49.7696 41.7969 49.7696 41.6625 49.7462C39.9075 49.1125 39.5663 48.7712 38.835 46.8862L35.4875 47.9425H35.2437C34.9675 47.942 34.7104 47.8013 34.5613 47.5687L33.57 45.9437C33.3692 45.6617 33.3692 45.2833 33.57 45.0013L42.0525 34.2275L41.3213 33.09C40.9623 32.5201 41.1332 31.7671 41.7031 31.4081C42.273 31.0491 43.026 31.2201 43.385 31.79L50.73 43.36C50.921 43.6297 50.9942 43.9654 50.9329 44.2902C50.8717 44.615 50.6811 44.9009 50.405 45.0825Z" fill="#212121"/>
<path fill-rule="evenodd" clip-rule="evenodd" d="M81.2156 47.8458L92 41.1076L81.2156 34.3695C78.0041 14.9899 61.1715 0.21875 40.8889 0.21875C18.3063 0.21875 0 18.525 0 41.1076C0 63.6902 18.3063 81.9965 40.8889 81.9965C61.1715 81.9965 78.0041 67.2254 81.2156 47.8458ZM40.8889 71.7743C23.9541 71.7743 10.2222 58.0425 10.2222 41.1076C10.2222 24.1728 23.9541 10.441 40.8889 10.441C57.8237 10.441 71.5556 24.1728 71.5556 41.1076C71.5556 58.0425 57.8237 71.7743 40.8889 71.7743Z" fill="#0072D3"/>
</svg>
