<svg width="92" height="82" viewBox="0 0 92 82" fill="none" xmlns="http://www.w3.org/2000/svg">
<path fill-rule="evenodd" clip-rule="evenodd" d="M60.9848 40.9954C60.9955 38.2597 59.6067 35.7085 57.3034 34.2324C57.8803 31.5651 57.0629 28.7873 55.1332 26.8577C53.2035 24.928 50.4258 24.1106 47.7585 24.6875C46.2773 22.3889 43.7299 21 40.9954 21C38.2609 21 35.7136 22.3889 34.2324 24.6875C31.5651 24.1106 28.7873 24.928 26.8577 26.8577C24.928 28.7873 24.1106 31.5651 24.6875 34.2324C22.3889 35.7136 21 38.2609 21 40.9954C21 43.7299 22.3889 46.2773 24.6875 47.7585C24.1106 50.4258 24.928 53.2035 26.8577 55.1332C28.7873 57.0629 31.5651 57.8803 34.2324 57.3034C35.7136 59.602 38.2609 60.9909 40.9954 60.9909C43.7299 60.9909 46.2773 59.602 47.7585 57.3034C50.4258 57.8803 53.2035 57.0629 55.1332 55.1332C57.0629 53.2035 57.8803 50.4258 57.3034 47.7585C59.6067 46.2824 60.9955 43.7311 60.9848 40.9954ZM40.9954 31.0008C41.9154 31.0008 42.6612 31.7466 42.6612 32.6665V41.8283C42.6612 42.7483 41.9154 43.4941 40.9954 43.4941C40.0755 43.4941 39.3297 42.7483 39.3297 41.8283V32.6665C39.3297 31.7466 40.0755 31.0008 40.9954 31.0008ZM40.9954 45.9928C42.3754 45.9928 43.4941 47.1115 43.4941 48.4915C43.4941 49.8714 42.3754 50.9901 40.9954 50.9901C39.6155 50.9901 38.4968 49.8714 38.4968 48.4915C38.4968 47.1115 39.6155 45.9928 40.9954 45.9928Z" fill="#212121"/>
<path fill-rule="evenodd" clip-rule="evenodd" d="M81.2156 47.8458L92 41.1076L81.2156 34.3695C78.0041 14.9899 61.1715 0.21875 40.8889 0.21875C18.3063 0.21875 0 18.525 0 41.1076C0 63.6902 18.3063 81.9965 40.8889 81.9965C61.1715 81.9965 78.0041 67.2254 81.2156 47.8458ZM40.8889 71.7743C23.9541 71.7743 10.2222 58.0425 10.2222 41.1076C10.2222 24.1728 23.9541 10.441 40.8889 10.441C57.8237 10.441 71.5556 24.1728 71.5556 41.1076C71.5556 58.0425 57.8237 71.7743 40.8889 71.7743Z" fill="#0072D3"/>
</svg>
