<svg width="92" height="82" viewBox="0 0 92 82" fill="none" xmlns="http://www.w3.org/2000/svg">
<path fill-rule="evenodd" clip-rule="evenodd" d="M81.2156 47.8458L92 41.1076L81.2156 34.3695C78.0041 14.9899 61.1715 0.21875 40.8889 0.21875C18.3063 0.21875 0 18.525 0 41.1076C0 63.6902 18.3063 81.9965 40.8889 81.9965C61.1715 81.9965 78.0041 67.2254 81.2156 47.8458ZM40.8889 71.7743C23.9541 71.7743 10.2222 58.0425 10.2222 41.1076C10.2222 24.1728 23.9541 10.441 40.8889 10.441C57.8237 10.441 71.5556 24.1728 71.5556 41.1076C71.5556 58.0425 57.8237 71.7743 40.8889 71.7743Z" fill="#0072D3"/>
<path fill-rule="evenodd" clip-rule="evenodd" d="M41.9993 49.1042C47.4195 49.119 52.7182 50.7115 57.2486 53.6873C57.6191 53.934 58.1181 53.846 58.3818 53.4873C60.7866 50.0769 62.0524 45.9938 61.9983 41.8212C61.9431 30.776 52.9445 21.8669 41.8993 21.9221C30.8541 21.9774 21.945 30.976 22.0003 42.0212C21.9948 46.1195 23.2581 50.119 25.6167 53.4706C25.8804 53.8293 26.3795 53.9174 26.75 53.6706C31.2822 50.7007 36.5807 49.1141 41.9993 49.1042ZM40.7494 27.8552C40.7494 27.1649 41.309 26.6052 41.9993 26.6052C42.6896 26.6052 43.2492 27.1649 43.2492 27.8552V30.3551C43.2492 31.0454 42.6896 31.605 41.9993 31.605C41.309 31.605 40.7494 31.0454 40.7494 30.3551V27.8552ZM30.3332 43.2711H27.8333C27.143 43.2711 26.5834 42.7115 26.5834 42.0212C26.5834 41.3308 27.143 40.7712 27.8333 40.7712H30.3332C31.0235 40.7712 31.5831 41.3308 31.5831 42.0212C31.5831 42.7115 31.0235 43.2711 30.3332 43.2711ZM34.633 34.6549C34.145 35.1423 33.3544 35.1423 32.8664 34.6549L31.0998 32.8883C30.6409 32.3958 30.6544 31.6283 31.1304 31.1523C31.6064 30.6763 32.3739 30.6628 32.8664 31.1217L34.633 32.8883C35.1204 33.3763 35.1204 34.1668 34.633 34.6549ZM41.866 46.1043C40.2537 46.1238 38.7914 45.1613 38.1718 43.6727C37.5521 42.1841 37.8995 40.4683 39.0494 39.338C40.316 38.088 50.7155 31.6217 51.9821 30.8884C52.3116 30.6795 52.7417 30.7271 53.0175 31.0029C53.2933 31.2787 53.3409 31.7089 53.1321 32.0383C52.3988 33.2383 45.9324 43.7044 44.6825 44.971C43.9281 45.7027 42.9169 46.1096 41.866 46.1043ZM53.6654 43.2711C52.9751 43.2711 52.4155 42.7115 52.4155 42.0212C52.4155 41.3308 52.9751 40.7712 53.6654 40.7712H56.1653C56.8556 40.7712 57.4152 41.3308 57.4152 42.0212C57.4152 42.7115 56.8556 43.2711 56.1653 43.2711H53.6654ZM41.9993 51.604C37.2824 51.5983 32.6602 52.9272 28.6666 55.4372C28.4458 55.5733 28.301 55.8045 28.2748 56.0626C28.2487 56.3206 28.3442 56.5762 28.5333 56.7538C36.18 63.7653 47.9186 63.7653 55.5653 56.7538C55.7543 56.5762 55.8499 56.3206 55.8237 56.0626C55.7976 55.8045 55.6528 55.5733 55.432 55.4372C51.4096 52.909 46.7501 51.5794 41.9993 51.604Z" fill="#212121"/>
</svg>
