<svg width="92" height="82" viewBox="0 0 92 82" fill="none" xmlns="http://www.w3.org/2000/svg">
<path fill-rule="evenodd" clip-rule="evenodd" d="M81.2156 47.8458L92 41.1076L81.2156 34.3695C78.0041 14.9899 61.1715 0.21875 40.8889 0.21875C18.3063 0.21875 0 18.525 0 41.1076C0 63.6902 18.3063 81.9965 40.8889 81.9965C61.1715 81.9965 78.0041 67.2254 81.2156 47.8458ZM40.8889 71.7743C23.9541 71.7743 10.2222 58.0425 10.2222 41.1076C10.2222 24.1728 23.9541 10.441 40.8889 10.441C57.8237 10.441 71.5556 24.1728 71.5556 41.1076C71.5556 58.0425 57.8237 71.7743 40.8889 71.7743Z" fill="#0072D3"/>
<path fill-rule="evenodd" clip-rule="evenodd" d="M36.5573 48.7929C35.4228 48.4577 34.5014 47.626 34.052 46.5316C33.9572 46.1871 33.6447 45.9477 33.2874 45.946H21.7694C21.5003 45.9423 21.2482 46.0776 21.1024 46.3039C20.9659 46.5404 20.9659 46.8319 21.1024 47.0685C22.4871 50.3335 25.6901 52.4539 29.2366 52.4533H36.0042C36.2226 52.4535 36.4022 52.2811 36.4109 52.0629C36.4459 51.1183 36.5822 50.1802 36.8176 49.2647C36.8624 49.0643 36.7508 48.8619 36.5573 48.7929ZM26.6499 43.522C27.5484 43.522 28.2768 42.7936 28.2768 41.8952V28.8805C28.2768 27.982 29.0051 27.2537 29.9036 27.2537H49.4256C50.3241 27.2537 51.0524 27.982 51.0524 28.8805V39.1946C51.0498 39.3961 51.1952 39.5691 51.3941 39.6013C52.2029 39.7268 52.9982 39.9284 53.7692 40.2033C53.88 40.2672 54.0164 40.2672 54.1271 40.2033C54.2378 40.1319 54.3051 40.0096 54.3061 39.8779L54.3061 28.8805C54.3061 26.1851 52.121 24 49.4256 24H29.9036C27.2082 24 25.0231 26.1851 25.0231 28.8805V41.8952C25.0231 42.7936 25.7515 43.522 26.6499 43.522ZM49.4256 41.8952C43.5855 41.8952 38.8512 46.6295 38.8512 52.4696C38.8512 58.3097 43.5855 63.044 49.4256 63.044C55.2657 63.044 60 58.3097 60 52.4696C59.991 46.6332 55.262 41.9041 49.4256 41.8952ZM49.4256 60.6037C48.5271 60.6037 47.7988 59.8754 47.7988 58.9769C47.7988 58.0784 48.5271 57.3501 49.4256 57.3501C50.3241 57.3501 51.0524 58.0784 51.0524 58.9769C51.0524 59.8754 50.3241 60.6037 49.4256 60.6037ZM50.906 53.8361C50.7509 53.8959 50.6479 54.0441 50.6457 54.2103V54.5031C50.6457 55.177 50.0994 55.7232 49.4256 55.7232C48.7517 55.7232 48.2055 55.177 48.2055 54.5031V53.6084C48.2091 52.6449 48.8883 51.8163 49.8323 51.6236C50.6682 51.4297 51.2651 50.6921 51.2802 49.8341C51.3458 49.139 51.012 48.4668 50.4186 48.0989C49.8253 47.7311 49.0747 47.7311 48.4814 48.0989C47.888 48.4668 47.5542 49.139 47.6198 49.8341C47.6198 50.508 47.0735 51.0542 46.3997 51.0542C45.7258 51.0542 45.1796 50.508 45.1796 49.8341C45.0815 48.2455 45.8733 46.7338 47.235 45.9098C48.5967 45.0858 50.3033 45.0858 51.665 45.9098C53.0267 46.7338 53.8185 48.2455 53.7204 49.8341C53.7034 51.6228 52.5836 53.2152 50.906 53.8361Z" fill="#212121"/>
</svg>
