<svg width="73" height="73" viewBox="0 0 73 73" fill="none" xmlns="http://www.w3.org/2000/svg">
<path opacity="0.2" d="M38.6 0C39.8936 0.186821 41.2055 0.298668 42.4838 0.571289C57.137 3.7071 66.6185 12.4866 70.8666 26.8398C71.4933 28.9558 71.632 31.2162 71.9994 33.4082C72.0382 33.6377 72.0815 33.8631 72.1244 34.0898V38.1748C71.9581 39.4244 71.8251 40.6801 71.6254 41.9229L71.5033 42.6367C70.8566 46.1999 69.6702 49.5844 68.0014 52.8096C67.8683 53.0669 67.8283 53.4431 67.9018 53.7227C69.2397 58.7862 70.5982 63.8434 71.9555 68.9014C71.9651 68.9331 71.9722 68.9653 71.9818 68.9971C72.0124 69.1034 72.076 69.203 72.1244 69.3066V70.4326C71.8042 71.2408 71.2385 71.8016 70.433 72.124H69.3061C69.187 72.0909 69.0677 72.0566 68.9486 72.0234C67.3376 71.5723 65.7288 71.1129 64.1137 70.6729C60.7003 69.747 57.2868 68.822 53.8637 67.9336C53.5046 67.8395 53.0202 67.8907 52.6889 68.0596C48.251 70.3318 43.5579 71.6771 38.5766 72.0078C38.395 72.0189 38.2157 72.0839 38.0356 72.124H34.2328C32.841 71.9441 31.4408 71.8169 30.06 71.5762C20.9372 69.9889 13.4475 65.5798 7.72013 58.3174C2.18548 51.2985 -0.33002 43.2416 0.0345819 34.3213C0.708392 17.9447 12.8721 3.82394 28.9506 0.706055C30.5103 0.404373 32.0967 0.232489 33.6703 0H38.6Z" fill="#16A458"/>
<path fill-rule="evenodd" clip-rule="evenodd" d="M53.4379 16.5975C50.6879 16.0291 48.7079 15.4241 46.3795 15.0208C45.8477 14.9401 45.3073 15.097 44.9014 15.4499C44.4955 15.8029 44.2651 16.3163 44.2712 16.8541V23.9309C44.2712 24.4372 43.8607 24.8476 43.3545 24.8476C42.8482 24.8476 42.4378 24.4372 42.4378 23.9309V18.4308H41.5211C40.5086 18.4308 39.6878 19.2516 39.6878 20.2642V29.211L44.2712 32.6393C44.8273 33.0893 45.1616 33.7578 45.1878 34.4727V37.6811H53.4379V32.181L55.2713 29.431V19.3475C55.2713 18.0091 55.1796 17.1841 53.4379 16.5975ZM31.1627 19.5858L28.4126 17.7525H18.3292C17.0091 17.7525 16.1658 17.8441 15.5791 19.5858C15.0108 22.3542 14.4241 24.3159 14.0208 26.6443C13.9401 27.1761 14.097 27.7165 14.4499 28.1224C14.8029 28.5283 15.3163 28.7587 15.8541 28.7526H22.9126C23.4188 28.7526 23.8292 29.163 23.8292 29.6693C23.8292 30.1756 23.4188 30.586 22.9126 30.586H17.4125V31.521C17.4125 32.5335 18.2333 33.3543 19.2458 33.3543H28.1926L31.621 28.7526C32.0709 28.1965 32.7395 27.8622 33.4544 27.8359H36.6811V19.5858H31.1627ZM27.7526 41.4028C27.1885 40.9593 26.8523 40.2868 26.8359 39.5694V36.361H18.5858V41.8611L16.7525 44.6111V54.6946C16.7525 56.033 16.8441 56.858 18.5858 57.4446C21.3359 58.013 23.3159 58.618 25.6443 58.9663C26.1761 59.0471 26.7165 58.8901 27.1224 58.5372C27.5283 58.1842 27.7587 57.6708 27.7526 57.133V50.1112C27.7526 49.6049 28.163 49.1945 28.6693 49.1945C29.1756 49.1945 29.586 49.6049 29.586 50.1112V55.6113H30.521C31.5335 55.6113 32.3543 54.7905 32.3543 53.7779V44.8312L27.7526 41.4028ZM56.188 45.2528H49.1296C48.6233 45.2528 48.2129 44.8424 48.2129 44.3361C48.2129 43.8299 48.6233 43.4195 49.1296 43.4195H54.6296V42.5211C54.6296 41.5086 53.8088 40.6878 52.7963 40.6878H43.8495L40.4211 45.2712C39.9712 45.8273 39.3026 46.1616 38.5877 46.1878H35.361V54.4379H40.8611L43.6111 56.2713H53.6946C55.0146 56.2713 55.858 56.2713 56.4446 54.4379C57.013 51.6879 57.5997 49.7079 57.9663 47.3795C58.0515 46.8543 57.9044 46.318 57.5631 45.9098C57.2218 45.5017 56.72 45.2619 56.188 45.2528Z" fill="#16A458"/>
</svg>
