<svg width="73" height="73" viewBox="0 0 73 73" fill="none" xmlns="http://www.w3.org/2000/svg">
<path opacity="0.2" d="M38.6 0C39.8936 0.186821 41.2055 0.298668 42.4838 0.571289C57.137 3.7071 66.6185 12.4866 70.8666 26.8398C71.4933 28.9558 71.632 31.2162 71.9994 33.4082C72.0382 33.6377 72.0815 33.8631 72.1244 34.0898V38.1748C71.9581 39.4244 71.8251 40.6801 71.6254 41.9229L71.5033 42.6367C70.8566 46.1999 69.6702 49.5844 68.0014 52.8096C67.8683 53.0669 67.8283 53.4431 67.9018 53.7227C69.2397 58.7862 70.5982 63.8434 71.9555 68.9014C71.9651 68.9331 71.9722 68.9653 71.9818 68.9971C72.0124 69.1034 72.076 69.203 72.1244 69.3066V70.4326C71.8042 71.2408 71.2385 71.8016 70.433 72.124H69.3061C69.187 72.0909 69.0677 72.0566 68.9486 72.0234C67.3376 71.5723 65.7288 71.1129 64.1137 70.6729C60.7003 69.747 57.2868 68.822 53.8637 67.9336C53.5046 67.8395 53.0202 67.8907 52.6889 68.0596C48.251 70.3318 43.5579 71.6771 38.5766 72.0078C38.395 72.0189 38.2157 72.0839 38.0356 72.124H34.2328C32.841 71.9441 31.4408 71.8169 30.06 71.5762C20.9372 69.9889 13.4475 65.5798 7.72013 58.3174C2.18548 51.2985 -0.33002 43.2416 0.0345819 34.3213C0.708392 17.9447 12.8721 3.82394 28.9506 0.706055C30.5103 0.404373 32.0967 0.232489 33.6703 0H38.6Z" fill="#16A458"/>
<path fill-rule="evenodd" clip-rule="evenodd" d="M36.0913 18.6519C26.5215 18.6519 18.9274 26.4048 18.9274 35.8157C18.9204 39.0017 19.8108 42.1252 21.4965 44.8286L24.0346 42.2905C24.2959 42.03 24.6883 41.9524 25.0291 42.0939C25.3699 42.2353 25.592 42.568 25.5921 42.9369V51.7014C25.5921 52.2057 25.1834 52.6144 24.6792 52.6144H15.9146C15.5449 52.6151 15.2112 52.3926 15.0696 52.051C14.928 51.7095 15.0064 51.3162 15.2682 51.0551L18.8581 47.4671C16.517 44.0331 15.2683 39.9718 15.2756 35.8157C15.2756 24.4109 24.4801 15 36.0913 15C38.8978 15 41.6915 15.5989 44.0981 16.6014C45.029 16.9895 45.469 18.0589 45.0807 18.9898C44.6924 19.9207 43.6229 20.3605 42.6921 19.972C40.5982 19.1083 38.3563 18.66 36.0913 18.6519ZM46.4079 21.3908C46.4079 20.8866 46.8166 20.4778 47.3208 20.4778H56.0854C56.4551 20.4772 56.7888 20.6996 56.9304 21.0412C57.072 21.3828 56.9935 21.776 56.7318 22.0372L53.7116 25.0536C55.6888 28.2947 56.7314 32.0192 56.7244 35.8157C56.7244 47.2206 47.518 56.6315 35.9087 56.6315C33.161 56.6235 30.4413 56.0795 27.9019 55.0301C26.9714 54.6418 26.5317 53.5726 26.9199 52.6419C27.3081 51.7113 28.3772 51.2714 29.3079 51.6594C31.4018 52.5231 33.6437 52.9715 35.9087 52.9796C45.4803 52.9796 53.0726 45.2267 53.0726 35.8157C53.0726 32.8796 52.3422 30.1425 51.0385 27.7268L47.9672 30.8017C47.7061 31.0635 47.3128 31.1419 46.9712 31.0003C46.6297 30.8587 46.4072 30.5251 46.4079 30.1553V21.3908ZM43.5466 37.4591L44.8248 38.1895C45.3726 38.5547 45.5552 39.285 45.3726 39.8328L44.277 41.6588C44.0944 42.0239 43.9118 42.2065 43.5466 42.2065C43.1814 42.2065 42.8162 42.2065 42.6336 42.0239L41.3555 41.2936C40.4425 42.2065 39.347 42.7543 38.2514 43.1195V44.5803C38.2514 45.1281 37.7036 45.6758 37.1558 45.6758H34.9647C34.4169 45.6758 33.8691 45.1281 33.8691 44.5803V43.1195C32.591 42.7543 31.678 42.0239 30.765 41.2936L29.4869 42.0239C29.1217 42.2065 28.9391 42.2065 28.5739 42.2065C28.2087 42.0239 28.0261 41.8414 27.8435 41.6588L26.7479 39.8328C26.3828 39.285 26.5654 38.7373 27.1131 38.3721L28.3913 37.6417C28.2087 36.5461 28.0261 35.4506 28.3913 34.1724L27.1131 33.442C26.7479 33.2594 26.5654 33.0768 26.5654 32.7116C26.5654 32.3465 26.5654 31.9813 26.7479 31.7987L27.8435 29.9727C28.0261 29.6075 28.2087 29.4249 28.5739 29.4249C28.9391 29.4249 29.3043 29.4249 29.4869 29.6075L30.765 30.3379C31.678 29.4249 32.7736 28.8772 33.8691 28.512V27.0512C33.8691 26.5034 34.4169 25.9557 34.9647 25.9557H37.1558C37.7036 25.9557 38.2514 26.5034 38.2514 27.0512V28.512C39.347 28.8772 40.2599 29.6075 41.1729 30.3379L42.4511 29.6075C42.8162 29.4249 42.9988 29.4249 43.364 29.4249C43.7292 29.6075 43.9118 29.7901 44.0944 29.9727L45.19 31.7987C45.5552 32.3465 45.3726 32.8942 44.8248 33.2594L43.5466 33.9898C43.7292 35.0854 43.9118 36.1809 43.5466 37.4591ZM32.9562 35.8157C32.9562 37.6417 34.4169 39.1024 36.2428 39.1024C38.0688 39.1024 39.5295 37.6417 39.5295 35.8157C39.5295 33.9898 38.0688 32.529 36.2428 32.529C34.4169 32.529 32.9562 33.9898 32.9562 35.8157Z" fill="#16A458"/>
</svg>
