<svg width="21" height="21" viewBox="0 0 21 21" fill="none" xmlns="http://www.w3.org/2000/svg">
<path d="M2.56169 0.068126C3.35491 -0.0268136 5.91538 -0.0359801 6.65032 0.127709C7.76188 0.375206 8.43459 1.12097 8.88328 2.11882C9.26581 2.96869 10.1835 5.07766 10.1887 5.92557C10.1927 6.57705 9.911 7.30252 9.53961 7.83025C9.1145 8.43459 8.26821 8.98851 8.72083 9.84428C8.89638 10.1762 10.4861 11.7346 10.8483 12.039C11.8918 12.9144 12.3732 12.0141 13.1671 11.4569C13.7239 11.0661 14.4326 10.7996 15.121 10.8087C15.8632 10.8186 18.4832 11.8799 19.2254 12.2597C20.1057 12.7101 20.8393 13.6713 20.9396 14.6711C21.0208 15.4804 21.0411 18.0294 20.861 18.7548C20.1365 21.6783 16.4671 21.072 14.2544 20.6163C7.18612 19.1582 1.55296 13.4048 0.286804 6.29223C0.0739223 5.0973 -0.220181 2.93726 0.254708 1.83793C0.637894 0.952046 1.59095 0.184672 2.56169 0.068126ZM2.95404 2.12995C2.45099 2.20197 2.12806 2.57518 2.08221 3.07542C2.03243 3.61887 2.16016 4.66058 2.23614 5.22891C3.1833 12.3566 9.05489 18.0575 16.2064 18.8131C16.6937 18.8648 17.8682 18.9847 18.2789 18.8236C18.645 18.6802 18.8442 18.3365 18.8828 17.9541C18.9535 17.2489 18.9418 15.8693 18.8854 15.1537C18.8559 14.7818 18.7282 14.4204 18.4086 14.2063C18.0038 13.9352 15.9686 13.1488 15.4426 12.9969C14.5164 12.7298 14.1483 13.4585 13.4664 13.9142C12.2416 14.732 10.7389 14.6823 9.59856 13.7322C8.99397 13.2287 7.22346 11.474 6.88874 10.8428C6.29268 9.71791 6.40272 8.50661 7.12324 7.47603C7.58372 6.81735 8.26363 6.47229 7.99966 5.5576C7.85752 5.06522 7.02368 2.91762 6.77084 2.56274C6.58088 2.29691 6.2501 2.15811 5.93241 2.12406C5.29377 2.05465 3.57435 2.04156 2.9547 2.13061L2.95404 2.12995Z" fill="#FCBB1B"/>
</svg>
