<svg width="233" height="56" viewBox="0 0 233 56" fill="none" xmlns="http://www.w3.org/2000/svg">
<g filter="url(#filter0_i_5320_5398)">
<path d="M48.9675 32.1294C49.1038 31.2811 49.1947 30.4243 49.3082 29.5712V26.7826C49.2789 26.6277 49.2495 26.4737 49.223 26.3169C48.9722 24.8205 48.8776 23.2779 48.4498 21.8335C45.55 12.0354 39.0774 6.04247 29.0746 3.90187C28.202 3.71577 27.3067 3.63925 26.4236 3.51172H23.0581C21.9839 3.67042 20.9012 3.78756 19.8365 3.9935C8.8608 6.12183 0.557797 15.7612 0.0978332 26.9403C-0.151077 33.0296 1.56574 38.5295 5.34388 43.3208C9.25356 48.2784 14.3662 51.2881 20.5936 52.3716C21.5363 52.536 22.4922 52.6229 23.4424 52.7457H26.0384C26.1615 52.7183 26.2836 52.6739 26.4075 52.6664C29.8081 52.4406 33.0117 51.5224 36.0412 49.9713C36.2674 49.856 36.5977 49.821 36.8428 49.8853C39.1796 50.4918 41.5097 51.1228 43.8398 51.7548C44.9424 52.0552 46.0402 52.3688 47.14 52.6768C47.2214 52.6994 47.3027 52.7231 47.3841 52.7457H48.1536C48.7035 52.5256 49.0896 52.143 49.3082 51.5914V50.8224C49.2751 50.7515 49.2316 50.6835 49.2107 50.6108C49.2041 50.5891 49.1994 50.5673 49.1928 50.5456C48.2662 47.0929 47.3387 43.6411 46.4254 40.1845C46.3753 39.9937 46.4027 39.7368 46.4936 39.5611C47.7088 37.2126 48.5492 34.7404 48.9675 32.1284V32.1294ZM34.2231 39.2843C33.3789 40.6748 32.1495 41.7905 30.5349 42.6331C28.9203 43.4757 27.017 43.8971 24.8251 43.8971C22.7515 43.8971 20.8851 43.5353 19.2261 42.8107C17.567 42.0861 16.2637 41.0583 15.3154 39.7283C14.3671 38.3982 13.8929 36.8451 13.8929 35.0711H19.3141C19.4324 36.4021 19.9586 37.496 20.8918 38.3528C21.8249 39.2106 23.1357 39.6395 24.8242 39.6395C26.5126 39.6395 27.9351 39.2181 28.9127 38.3755C29.8904 37.5329 30.3788 36.4465 30.3788 35.1155C30.3788 34.0811 30.0749 33.2384 29.4683 32.5875C28.8607 31.9376 28.1054 31.4341 27.2016 31.0799C26.2978 30.7247 25.0466 30.3411 23.4462 29.9264C21.4312 29.3946 19.7949 28.8552 18.5361 28.3073C17.2764 27.7603 16.2032 26.9101 15.3145 25.7567C14.4258 24.6032 13.981 23.0663 13.981 21.1439C13.981 19.3698 14.4258 17.8177 15.3145 16.4867C16.2032 15.1557 17.4477 14.1364 19.0472 13.426C20.6466 12.7165 22.4979 12.3613 24.6018 12.3613C27.5934 12.3613 30.0456 13.1086 31.9564 14.6011C33.8673 16.0946 34.9263 18.1427 35.1336 20.7443H29.5345C29.4456 19.6211 28.9127 18.6594 27.9351 17.8612C26.9574 17.0629 25.6684 16.6633 24.0689 16.6633C22.6171 16.6633 21.4322 17.0336 20.5141 17.7724C19.5952 18.512 19.1371 19.5767 19.1371 20.9663C19.1371 21.9128 19.4258 22.6893 20.0031 23.2949C20.5813 23.9014 21.3139 24.3812 22.2026 24.7364C23.0913 25.0916 24.3055 25.4761 25.8463 25.8899C27.8906 26.4519 29.5573 27.014 30.8453 27.5752C32.1344 28.1372 33.2294 29.0025 34.1342 30.1701C35.0371 31.3387 35.4895 32.8983 35.4895 34.8491C35.4895 36.4163 35.0673 37.8947 34.2231 39.2843Z" fill="#FCBB1B"/>
</g>
<path d="M64.271 31.5017C63.6683 31.5017 63.0208 31.4794 62.3288 31.4347C61.659 31.4124 60.9669 31.3678 60.2525 31.3008C59.5605 31.2115 58.9019 31.1333 58.2768 31.0664C57.6517 30.9771 57.0936 30.8766 56.6024 30.765V27.5167C57.2275 27.5614 57.9531 27.606 58.7791 27.6507C59.6274 27.6953 60.5093 27.7288 61.4246 27.7511C62.3399 27.7734 63.2218 27.7846 64.0701 27.7846C64.9631 27.7846 65.7556 27.7065 66.4477 27.5502C67.1398 27.3716 67.6756 27.0702 68.0551 26.646C68.4346 26.2219 68.6244 25.6191 68.6244 24.8377V23.6657C68.6244 22.795 68.3788 22.1252 67.8877 21.6564C67.3965 21.1876 66.671 20.9532 65.711 20.9532H63.4004C61.1455 20.9532 59.4042 20.462 58.1763 19.4797C56.9708 18.4974 56.368 16.8119 56.368 14.4231V13.1506C56.368 10.7619 57.0266 9.04284 58.3438 7.99357C59.6833 6.92198 61.592 6.38618 64.0701 6.38618C64.9185 6.38618 65.7891 6.43083 66.6821 6.52013C67.5974 6.5871 68.4681 6.6764 69.2941 6.78803C70.1202 6.89965 70.8234 7.02244 71.4038 7.15639V10.4047C70.4215 10.3377 69.2941 10.2707 68.0216 10.2037C66.7714 10.1368 65.6105 10.1033 64.5389 10.1033C63.6906 10.1033 62.9427 10.1926 62.2953 10.3712C61.6479 10.5498 61.1567 10.8735 60.8218 11.3423C60.487 11.7888 60.3195 12.4586 60.3195 13.3516V14.1552C60.3195 15.2045 60.5986 15.9412 61.1567 16.3654C61.7372 16.7896 62.5632 17.0017 63.6348 17.0017H66.2133C67.6644 17.0017 68.8588 17.2696 69.7964 17.8054C70.7341 18.3412 71.4262 19.0779 71.8727 20.0155C72.3415 20.9309 72.5759 21.9801 72.5759 23.1634V24.7373C72.5759 26.5679 72.2187 27.9744 71.5043 28.9567C70.7899 29.939 69.8076 30.6087 68.5574 30.9659C67.3072 31.3231 65.8784 31.5017 64.271 31.5017ZM83.6924 31.4682C81.7501 31.4682 80.1985 31.2003 79.0377 30.6645C77.8991 30.1287 77.0731 29.2022 76.5596 27.8851C76.0461 26.5456 75.7894 24.6926 75.7894 22.3262C75.7894 19.9151 76.0349 18.0509 76.5261 16.7338C77.0172 15.3943 77.8321 14.4566 78.9707 13.9208C80.1092 13.385 81.6497 13.1171 83.5919 13.1171C85.311 13.1171 86.6839 13.2957 87.7109 13.6529C88.7601 13.9878 89.5192 14.6017 89.988 15.4947C90.4792 16.3654 90.7247 17.6044 90.7247 19.2118C90.7247 20.3504 90.5015 21.2657 90.055 21.9578C89.6085 22.6276 88.9611 23.1075 88.1127 23.3978C87.2867 23.688 86.3044 23.8331 85.1658 23.8331H79.9083C79.953 24.9493 80.0981 25.8423 80.3437 26.5121C80.6116 27.1595 81.0804 27.6283 81.7501 27.9186C82.4422 28.2088 83.4468 28.3539 84.764 28.3539H90.1889V30.7985C89.2736 30.9771 88.3025 31.1333 87.2755 31.2673C86.2709 31.4012 85.0765 31.4682 83.6924 31.4682ZM79.8748 21.3215H84.764C85.5454 21.3215 86.1146 21.1764 86.4718 20.8862C86.8514 20.5737 87.0411 20.0155 87.0411 19.2118C87.0411 18.4305 86.9295 17.8165 86.7063 17.37C86.483 16.9235 86.1146 16.611 85.6012 16.4324C85.0877 16.2315 84.418 16.131 83.5919 16.131C82.6543 16.131 81.9176 16.2761 81.3818 16.5663C80.846 16.8566 80.4553 17.3812 80.2097 18.1402C79.9865 18.877 79.8748 19.9374 79.8748 21.3215ZM94.4104 31.3008V13.3516H97.7927L98.5629 15.2268C99.2996 14.6687 100.193 14.1664 101.242 13.7199C102.313 13.2734 103.419 13.0502 104.557 13.0502C105.964 13.0502 107.069 13.3404 107.872 13.9208C108.676 14.479 109.245 15.238 109.58 16.198C109.937 17.1579 110.116 18.2072 110.116 19.3458V31.3008H105.964V19.8481C105.964 19.2007 105.841 18.6537 105.595 18.2072C105.35 17.7607 105.004 17.4147 104.557 17.1691C104.133 16.9235 103.608 16.8008 102.983 16.8008C102.403 16.8008 101.856 16.8566 101.342 16.9682C100.851 17.0798 100.382 17.2472 99.9359 17.4705C99.4894 17.6937 99.0317 17.9616 98.5629 18.2742V31.3008H94.4104ZM120.791 31.3008C119.496 31.3008 118.436 31.111 117.61 30.7315C116.784 30.3296 116.181 29.6711 115.801 28.7557C115.444 27.8404 115.277 26.6349 115.299 25.1391L115.433 16.7003H112.62V14.0213L115.567 13.3516L116.17 8.32845H119.418V13.3516H123.972V16.7003H119.418V25.1056C119.418 25.6861 119.474 26.1661 119.585 26.5456C119.697 26.9028 119.853 27.193 120.054 27.4162C120.277 27.6172 120.512 27.7623 120.757 27.8516C121.003 27.9409 121.26 27.9967 121.528 28.019L123.771 28.2534V31.3008H120.791ZM127.551 10.5051C127.126 10.5051 126.914 10.3042 126.914 9.90235V6.855C126.914 6.4085 127.126 6.18525 127.551 6.18525H130.698C130.899 6.18525 131.044 6.25223 131.134 6.38618C131.245 6.52013 131.301 6.6764 131.301 6.855V9.90235C131.301 10.3042 131.1 10.5051 130.698 10.5051H127.551ZM127.015 31.3008V13.3516H131.167V31.3008H127.015ZM135.855 31.3008V13.4185H137.931L138.5 15.3943C139.393 14.7692 140.387 14.2334 141.481 13.7869C142.597 13.3404 143.836 13.1171 145.198 13.1171C146.314 13.1171 147.263 13.3739 148.044 13.8873C148.848 14.3785 149.451 15.0036 149.852 15.7626C150.411 15.3608 151.08 14.9589 151.862 14.5571C152.665 14.1552 153.514 13.8204 154.407 13.5525C155.322 13.2623 156.204 13.1171 157.052 13.1171C158.347 13.1171 159.407 13.3962 160.234 13.9543C161.06 14.4901 161.662 15.2268 162.042 16.1645C162.444 17.0798 162.645 18.1068 162.645 19.2453V31.3008H159.999V19.4463C159.999 18.6872 159.843 18.0175 159.53 17.437C159.24 16.8342 158.816 16.3654 158.258 16.0305C157.7 15.6957 157.019 15.5282 156.215 15.5282C155.21 15.5282 154.183 15.718 153.134 16.0975C152.085 16.477 151.114 16.9347 150.221 17.4705C150.332 17.8054 150.411 18.1402 150.455 18.4751C150.522 18.7877 150.556 19.1225 150.556 19.4797V31.3008H147.91V19.4463C147.91 18.6872 147.754 18.0175 147.441 17.437C147.151 16.8342 146.727 16.3654 146.169 16.0305C145.633 15.6957 144.963 15.5282 144.16 15.5282C143.423 15.5282 142.731 15.6064 142.083 15.7626C141.458 15.8966 140.855 16.0975 140.275 16.3654C139.717 16.611 139.125 16.9124 138.5 17.2696V31.3008H135.855ZM174.44 31.5017C172.565 31.5017 171.08 31.2226 169.986 30.6645C168.915 30.1064 168.145 29.1576 167.676 27.8181C167.207 26.4786 166.973 24.648 166.973 22.3262C166.973 19.9597 167.207 18.1179 167.676 16.8008C168.167 15.4613 168.96 14.5236 170.053 13.9878C171.147 13.452 172.621 13.1841 174.474 13.1841C176.059 13.1841 177.343 13.3627 178.325 13.7199C179.329 14.0771 180.066 14.691 180.535 15.5617C181.026 16.4101 181.272 17.5933 181.272 19.1114C181.272 20.1607 181.06 21.009 180.635 21.6564C180.234 22.2815 179.642 22.7392 178.861 23.0294C178.102 23.2973 177.197 23.4312 176.148 23.4312H169.618C169.64 24.8824 169.797 26.0544 170.087 26.9474C170.377 27.8181 170.902 28.4544 171.661 28.8562C172.442 29.2357 173.581 29.4255 175.077 29.4255H180.836V31.0329C179.809 31.1668 178.805 31.2785 177.822 31.3678C176.84 31.4571 175.713 31.5017 174.44 31.5017ZM169.585 21.6899H175.947C176.952 21.6899 177.689 21.5113 178.157 21.1541C178.649 20.7746 178.894 20.1048 178.894 19.1449C178.894 18.1179 178.738 17.3254 178.425 16.7673C178.135 16.1868 177.666 15.785 177.019 15.5617C176.394 15.3161 175.545 15.1934 174.474 15.1934C173.224 15.1934 172.241 15.3831 171.527 15.7626C170.812 16.1198 170.31 16.7673 170.02 17.7049C169.73 18.6426 169.585 19.9709 169.585 21.6899ZM191.653 31.3008C190.492 31.3008 189.532 31.111 188.773 30.7315C188.014 30.352 187.456 29.738 187.099 28.8897C186.742 28.0413 186.574 26.9139 186.597 25.5075L186.697 15.5952H183.851V13.8873L186.731 13.4185L187.166 8.42891H189.209V13.4185H194.366V15.5952H189.209V25.5075C189.209 26.2888 189.287 26.9139 189.443 27.3828C189.622 27.8516 189.845 28.2088 190.113 28.4544C190.403 28.6999 190.704 28.8785 191.017 28.9902C191.33 29.0795 191.631 29.1353 191.921 29.1576L194.098 29.3585V31.3008H191.653ZM204.854 31.5017C202.978 31.5017 201.494 31.2226 200.4 30.6645C199.328 30.1064 198.558 29.1576 198.089 27.8181C197.62 26.4786 197.386 24.648 197.386 22.3262C197.386 19.9597 197.62 18.1179 198.089 16.8008C198.58 15.4613 199.373 14.5236 200.467 13.9878C201.561 13.452 203.034 13.1841 204.887 13.1841C206.472 13.1841 207.756 13.3627 208.738 13.7199C209.743 14.0771 210.479 14.691 210.948 15.5617C211.439 16.4101 211.685 17.5933 211.685 19.1114C211.685 20.1607 211.473 21.009 211.049 21.6564C210.647 22.2815 210.055 22.7392 209.274 23.0294C208.515 23.2973 207.611 23.4312 206.561 23.4312H200.031C200.054 24.8824 200.21 26.0544 200.5 26.9474C200.79 27.8181 201.315 28.4544 202.074 28.8562C202.856 29.2357 203.994 29.4255 205.49 29.4255H211.25V31.0329C210.223 31.1668 209.218 31.2785 208.236 31.3678C207.254 31.4571 206.126 31.5017 204.854 31.5017ZM199.998 21.6899H206.361C207.365 21.6899 208.102 21.5113 208.571 21.1541C209.062 20.7746 209.307 20.1048 209.307 19.1449C209.307 18.1179 209.151 17.3254 208.839 16.7673C208.548 16.1868 208.08 15.785 207.432 15.5617C206.807 15.3161 205.959 15.1934 204.887 15.1934C203.637 15.1934 202.655 15.3831 201.94 15.7626C201.226 16.1198 200.723 16.7673 200.433 17.7049C200.143 18.6426 199.998 19.9709 199.998 21.6899ZM216.139 31.3008V13.4185H218.149L218.785 16.5329C219.589 15.5729 220.482 14.7803 221.464 14.1552C222.468 13.5302 223.618 13.2176 224.913 13.2176C225.226 13.2176 225.516 13.2288 225.784 13.2511C226.074 13.2734 226.342 13.3181 226.587 13.385V16.0975C226.297 16.0529 225.985 16.0194 225.65 15.9971C225.315 15.9524 224.98 15.9301 224.645 15.9301C223.819 15.9301 223.082 16.0305 222.435 16.2315C221.788 16.4324 221.174 16.7338 220.593 17.1356C220.013 17.5375 219.41 18.0286 218.785 18.6091V31.3008H216.139Z" fill="#003B6D"/>
<path d="M60.9022 48.9543C60.2286 48.9543 59.6692 48.7545 59.224 48.3549C58.7901 47.9439 58.5732 47.3788 58.5732 46.6596V45.9403C58.5732 45.2325 58.813 44.656 59.2925 44.2107C59.7834 43.7541 60.5197 43.5257 61.5016 43.5257H64.3614V42.5667C64.3614 42.2128 64.2986 41.916 64.173 41.6762C64.0589 41.4251 63.842 41.2367 63.5223 41.1111C63.2026 40.9855 62.7289 40.9227 62.1009 40.9227H59.2925V39.9124C59.7035 39.821 60.183 39.7411 60.7309 39.6726C61.2904 39.6041 61.9411 39.5642 62.6832 39.5528C63.4367 39.5528 64.0646 39.6498 64.5669 39.8439C65.0807 40.0265 65.4631 40.3348 65.7143 40.7686C65.9655 41.191 66.091 41.7562 66.091 42.464V48.8516H64.7382L64.447 47.8412C64.3785 47.8869 64.2358 47.9725 64.0189 48.0981C63.802 48.2122 63.5223 48.3378 63.1798 48.4748C62.8487 48.6118 62.4834 48.726 62.0838 48.8173C61.6956 48.9086 61.3018 48.9543 60.9022 48.9543ZM61.6899 47.7042C61.8612 47.7156 62.061 47.6985 62.2893 47.6528C62.5291 47.6072 62.7631 47.5558 62.9914 47.4987C63.2312 47.4302 63.4481 47.3617 63.6422 47.2932C63.8477 47.2247 64.0132 47.1676 64.1388 47.1219C64.2758 47.0649 64.35 47.0306 64.3614 47.0192V44.382L61.9639 44.4847C61.3703 44.519 60.9422 44.6674 60.6796 44.93C60.4284 45.1925 60.3028 45.535 60.3028 45.9575V46.3685C60.3028 46.6995 60.3713 46.9678 60.5083 47.1733C60.6453 47.3674 60.8166 47.5044 61.0221 47.5843C61.239 47.6642 61.4616 47.7042 61.6899 47.7042ZM68.4183 48.8516V39.6898H69.7883L70.1308 40.683C70.5418 40.3862 71.027 40.1236 71.5864 39.8953C72.1572 39.6555 72.7452 39.5356 73.3502 39.5356C74.0352 39.5356 74.5832 39.684 74.9942 39.9809C75.4166 40.2663 75.7192 40.6487 75.9018 41.1282C76.0845 41.6077 76.1758 42.1272 76.1758 42.6866V48.8516H74.4634V42.8921C74.4634 42.5268 74.3892 42.2128 74.2407 41.9502C74.1037 41.6762 73.9097 41.465 73.6585 41.3166C73.4073 41.1682 73.0991 41.094 72.7337 41.094C72.3912 41.094 72.0716 41.1282 71.7748 41.1967C71.4893 41.2652 71.2153 41.3623 70.9528 41.4879C70.6902 41.602 70.4162 41.7447 70.1308 41.916V48.8516H68.4183ZM152.818 48.9543C152.282 48.9543 151.785 48.8858 151.328 48.7488C150.883 48.6004 150.489 48.3549 150.147 48.0124C149.816 47.6699 149.559 47.1962 149.376 46.5911C149.193 45.986 149.102 45.2211 149.102 44.2963C149.102 43.3488 149.188 42.5724 149.359 41.9674C149.53 41.3509 149.776 40.8714 150.095 40.5289C150.426 40.175 150.826 39.9295 151.294 39.7925C151.762 39.6555 152.287 39.587 152.869 39.587C153.349 39.587 153.851 39.6098 154.376 39.6555C154.913 39.7012 155.432 39.7754 155.935 39.8781V40.8885H153.349C152.79 40.8885 152.321 40.9798 151.945 41.1625C151.568 41.3337 151.288 41.6705 151.106 42.1729C150.923 42.6638 150.832 43.3773 150.832 44.3135C150.832 45.2154 150.929 45.9118 151.123 46.4027C151.317 46.8822 151.597 47.2076 151.962 47.3788C152.339 47.5501 152.807 47.6357 153.366 47.6357H156.072V48.6118C155.809 48.6803 155.495 48.7431 155.13 48.8002C154.776 48.8459 154.399 48.8801 154 48.9029C153.612 48.9372 153.218 48.9543 152.818 48.9543ZM161.539 48.9543C160.842 48.9543 160.237 48.8801 159.723 48.7317C159.221 48.5833 158.804 48.3378 158.473 47.9953C158.142 47.6414 157.897 47.1619 157.737 46.5568C157.577 45.9518 157.497 45.1868 157.497 44.2621C157.497 43.3031 157.577 42.5211 157.737 41.916C157.897 41.2995 158.142 40.82 158.473 40.4775C158.804 40.135 159.227 39.901 159.741 39.7754C160.254 39.6384 160.854 39.5699 161.539 39.5699C162.224 39.5699 162.823 39.6384 163.337 39.7754C163.851 39.9124 164.273 40.1521 164.604 40.4946C164.935 40.8371 165.181 41.3166 165.34 41.9331C165.5 42.5382 165.58 43.3145 165.58 44.2621C165.58 45.1983 165.5 45.9746 165.34 46.5911C165.181 47.1962 164.935 47.6699 164.604 48.0124C164.284 48.3549 163.868 48.6004 163.354 48.7488C162.84 48.8858 162.235 48.9543 161.539 48.9543ZM161.539 47.5501C161.915 47.5501 162.246 47.5158 162.532 47.4473C162.829 47.3788 163.074 47.2361 163.268 47.0192C163.462 46.7909 163.611 46.4541 163.714 46.0088C163.816 45.5636 163.868 44.9756 163.868 44.245C163.868 43.5143 163.816 42.9321 163.714 42.4982C163.611 42.053 163.462 41.7219 163.268 41.505C163.074 41.2881 162.829 41.1454 162.532 41.0769C162.246 40.997 161.915 40.957 161.539 40.957C161.151 40.957 160.808 40.997 160.511 41.0769C160.226 41.1454 159.986 41.2881 159.792 41.505C159.609 41.7219 159.467 42.053 159.364 42.4982C159.272 42.9321 159.227 43.5143 159.227 44.245C159.227 44.9756 159.272 45.5636 159.364 46.0088C159.467 46.4541 159.609 46.7909 159.792 47.0192C159.986 47.2361 160.226 47.3788 160.511 47.4473C160.808 47.5158 161.151 47.5501 161.539 47.5501ZM167.672 48.8516V39.6898H169.042L169.385 40.683C169.83 40.3747 170.321 40.1065 170.858 39.8781C171.394 39.6498 172.011 39.5356 172.707 39.5356C173.278 39.5356 173.763 39.6612 174.163 39.9124C174.562 40.1635 174.865 40.4832 175.07 40.8714C175.344 40.6659 175.675 40.4604 176.064 40.2549C176.452 40.0494 176.868 39.8781 177.314 39.7411C177.759 39.6041 178.187 39.5356 178.598 39.5356C179.283 39.5356 179.837 39.6783 180.259 39.9638C180.693 40.2377 181.001 40.6202 181.184 41.1111C181.378 41.5906 181.475 42.1386 181.475 42.7551V48.8516H179.762V42.8921C179.762 42.5268 179.688 42.2128 179.54 41.9502C179.403 41.6762 179.203 41.465 178.94 41.3166C178.689 41.1682 178.381 41.094 178.016 41.094C177.559 41.094 177.091 41.1853 176.612 41.368C176.132 41.5392 175.692 41.7504 175.293 42.0016C175.339 42.15 175.373 42.3042 175.396 42.464C175.418 42.6124 175.43 42.7608 175.43 42.9092V48.8516H173.717V42.8921C173.717 42.5268 173.643 42.2128 173.495 41.9502C173.358 41.6762 173.164 41.465 172.913 41.3166C172.661 41.1682 172.353 41.094 171.988 41.094C171.645 41.094 171.326 41.1282 171.029 41.1967C170.743 41.2652 170.469 41.3623 170.207 41.4879C169.944 41.602 169.67 41.7447 169.385 41.916V48.8516H167.672ZM183.827 52.9102V39.6898H185.231L185.54 40.6145C185.757 40.4547 186.014 40.2948 186.31 40.135C186.619 39.9752 186.95 39.8439 187.304 39.7411C187.669 39.627 188.034 39.5699 188.4 39.5699C188.982 39.5699 189.478 39.6898 189.889 39.9295C190.312 40.1693 190.654 40.506 190.917 40.9399C191.18 41.3623 191.368 41.8589 191.482 42.4297C191.608 43.0006 191.67 43.6114 191.67 44.2621C191.67 45.2782 191.556 46.1401 191.328 46.848C191.111 47.5444 190.763 48.0752 190.283 48.4406C189.815 48.7945 189.187 48.9714 188.4 48.9714C187.92 48.9714 187.429 48.9029 186.927 48.7659C186.425 48.6175 185.962 48.4234 185.54 48.1837V52.9102H183.827ZM187.886 47.5329C188.274 47.5329 188.622 47.4359 188.93 47.2418C189.239 47.0477 189.484 46.7167 189.667 46.2486C189.861 45.7691 189.958 45.1069 189.958 44.2621C189.958 43.4629 189.861 42.8236 189.667 42.3441C189.473 41.8532 189.222 41.505 188.913 41.2995C188.605 41.0826 188.268 40.9741 187.903 40.9741C187.423 40.9741 186.984 41.0483 186.584 41.1967C186.196 41.3452 185.848 41.4993 185.54 41.6591V46.8822C185.894 47.0763 186.27 47.2361 186.67 47.3617C187.081 47.4759 187.486 47.5329 187.886 47.5329ZM195.593 48.9543C194.92 48.9543 194.36 48.7545 193.915 48.3549C193.481 47.9439 193.264 47.3788 193.264 46.6596V45.9403C193.264 45.2325 193.504 44.656 193.984 44.2107C194.475 43.7541 195.211 43.5257 196.193 43.5257H199.053V42.5667C199.053 42.2128 198.99 41.916 198.864 41.6762C198.75 41.4251 198.533 41.2367 198.213 41.1111C197.894 40.9855 197.42 40.9227 196.792 40.9227H193.984V39.9124C194.395 39.821 194.874 39.7411 195.422 39.6726C195.982 39.6041 196.632 39.5642 197.374 39.5528C198.128 39.5528 198.756 39.6498 199.258 39.8439C199.772 40.0265 200.154 40.3348 200.405 40.7686C200.657 41.191 200.782 41.7562 200.782 42.464V48.8516H199.429L199.138 47.8412C199.07 47.8869 198.927 47.9725 198.71 48.0981C198.493 48.2122 198.213 48.3378 197.871 48.4748C197.54 48.6118 197.175 48.726 196.775 48.8173C196.387 48.9086 195.993 48.9543 195.593 48.9543ZM196.381 47.7042C196.552 47.7156 196.752 47.6985 196.98 47.6528C197.22 47.6072 197.454 47.5558 197.683 47.4987C197.922 47.4302 198.139 47.3617 198.333 47.2932C198.539 47.2247 198.704 47.1676 198.83 47.1219C198.967 47.0649 199.041 47.0306 199.053 47.0192V44.382L196.655 44.4847C196.061 44.519 195.633 44.6674 195.371 44.93C195.12 45.1925 194.994 45.535 194.994 45.9575V46.3685C194.994 46.6995 195.062 46.9678 195.199 47.1733C195.336 47.3674 195.508 47.5044 195.713 47.5843C195.93 47.6642 196.153 47.7042 196.381 47.7042ZM203.109 48.8516V39.6898H204.479L204.822 40.683C205.233 40.3862 205.718 40.1236 206.278 39.8953C206.848 39.6555 207.436 39.5356 208.041 39.5356C208.726 39.5356 209.274 39.684 209.685 39.9809C210.108 40.2663 210.41 40.6487 210.593 41.1282C210.776 41.6077 210.867 42.1272 210.867 42.6866V48.8516H209.155V42.8921C209.155 42.5268 209.08 42.2128 208.932 41.9502C208.795 41.6762 208.601 41.465 208.35 41.3166C208.098 41.1682 207.79 41.094 207.425 41.094C207.082 41.094 206.763 41.1282 206.466 41.1967C206.181 41.2652 205.907 41.3623 205.644 41.4879C205.381 41.602 205.107 41.7447 204.822 41.916V48.8516H203.109ZM215.796 52.9102L216.909 48.8516C216.544 48.8401 216.196 48.7659 215.865 48.6289C215.534 48.4805 215.237 48.2465 214.974 47.9268C214.723 47.5957 214.518 47.1562 214.358 46.6082L212.303 39.6898H214.101L215.95 46.2486C216.053 46.5568 216.167 46.7909 216.293 46.9507C216.43 47.1105 216.561 47.2247 216.687 47.2932C216.824 47.3503 216.944 47.3845 217.046 47.3959C217.149 47.4074 217.212 47.4131 217.235 47.4131L219.375 39.6898H221.139L217.988 51.2148L217.166 52.9102H215.796Z" fill="#003B6D"/>
<path d="M84.9004 48.9543C84.2269 48.9543 83.6674 48.7545 83.2222 48.3549C82.7884 47.9439 82.5715 47.3788 82.5715 46.6596V45.9403C82.5715 45.2325 82.8112 44.656 83.2907 44.2107C83.7816 43.7541 84.518 43.5257 85.4998 43.5257H88.3597V42.5667C88.3597 42.2128 88.2969 41.916 88.1713 41.6762C88.0571 41.4251 87.8402 41.2367 87.5205 41.1111C87.2009 40.9855 86.7271 40.9227 86.0992 40.9227H83.2907V39.9124C83.7017 39.821 84.1812 39.7411 84.7292 39.6726C85.2886 39.6041 85.9393 39.5642 86.6814 39.5528C87.4349 39.5528 88.0628 39.6498 88.5652 39.8439C89.0789 40.0265 89.4614 40.3348 89.7125 40.7686C89.9637 41.191 90.0893 41.7562 90.0893 42.464V48.8516H88.7364L88.4453 47.8412C88.3768 47.8869 88.2341 47.9725 88.0172 48.0981C87.8002 48.2122 87.5205 48.3378 87.178 48.4748C86.847 48.6118 86.4816 48.726 86.0821 48.8173C85.6939 48.9086 85.3 48.9543 84.9004 48.9543ZM85.6882 47.7042C85.8594 47.7156 86.0592 47.6985 86.2876 47.6528C86.5273 47.6072 86.7613 47.5558 86.9897 47.4987C87.2294 47.4302 87.4463 47.3617 87.6404 47.2932C87.8459 47.2247 88.0115 47.1676 88.137 47.1219C88.274 47.0649 88.3482 47.0306 88.3597 47.0192V44.382L85.9622 44.4847C85.3685 44.519 84.9404 44.6674 84.6778 44.93C84.4266 45.1925 84.3011 45.535 84.3011 45.9575V46.3685C84.3011 46.6995 84.3696 46.9678 84.5066 47.1733C84.6436 47.3674 84.8148 47.5044 85.0203 47.5843C85.2372 47.6642 85.4598 47.7042 85.6882 47.7042ZM116.791 48.9543C116.551 48.9543 116.266 48.9486 115.935 48.9372C115.604 48.9258 115.261 48.9029 114.907 48.8687C114.565 48.8459 114.245 48.8173 113.948 48.7831C113.663 48.7488 113.434 48.7089 113.263 48.6632V47.6357H117.116C117.447 47.6357 117.733 47.6129 117.972 47.5672C118.212 47.5101 118.395 47.3959 118.52 47.2247C118.657 47.0535 118.726 46.8023 118.726 46.4712V46.0945C118.726 45.752 118.612 45.4837 118.383 45.2896C118.155 45.0955 117.778 44.9985 117.253 44.9985H115.917C115.381 44.9985 114.901 44.93 114.479 44.793C114.068 44.6446 113.743 44.3991 113.503 44.0566C113.275 43.7141 113.16 43.2517 113.16 42.6695V42.1729C113.16 41.5906 113.269 41.1111 113.486 40.7344C113.714 40.3576 114.074 40.0779 114.565 39.8953C115.056 39.7012 115.706 39.6041 116.517 39.6041C116.859 39.6041 117.236 39.6213 117.647 39.6555C118.069 39.6783 118.48 39.7126 118.88 39.7583C119.28 39.8039 119.599 39.8553 119.839 39.9124V40.9399H116.209C115.706 40.9399 115.318 41.0255 115.044 41.1967C114.782 41.368 114.65 41.6934 114.65 42.1729V42.5154C114.65 42.8122 114.713 43.0405 114.839 43.2004C114.964 43.3602 115.141 43.4629 115.369 43.5086C115.609 43.5543 115.889 43.5771 116.209 43.5771H117.579C118.446 43.5771 119.103 43.7826 119.548 44.1936C119.993 44.5932 120.216 45.1583 120.216 45.889V46.5911C120.216 47.2076 120.073 47.6871 119.788 48.0296C119.502 48.3721 119.103 48.6118 118.589 48.7488C118.087 48.8858 117.487 48.9543 116.791 48.9543Z" fill="#518DCC"/>
<path d="M92.4165 48.8516V39.6898H93.7351L94.129 41.231C94.5172 40.7629 94.951 40.369 95.4305 40.0494C95.91 39.7297 96.4694 39.5699 97.1087 39.5699C97.2572 39.5699 97.3999 39.5813 97.5369 39.6041C97.6739 39.6155 97.8051 39.6384 97.9307 39.6726V41.4365C97.7709 41.4137 97.6054 41.3965 97.4341 41.3851C97.2629 41.3623 97.0859 41.3509 96.9032 41.3509C96.5151 41.3509 96.1669 41.3965 95.8586 41.4879C95.5504 41.5792 95.2535 41.7219 94.9681 41.916C94.6941 42.0987 94.4144 42.327 94.129 42.601V48.8516H92.4165ZM104.199 48.9543C103.776 48.9543 103.382 48.9029 103.017 48.8002C102.663 48.6974 102.338 48.5719 102.041 48.4234C101.756 48.2636 101.493 48.1038 101.253 47.9439L100.945 48.8516H99.5407V35.7853H101.253V40.4604C101.676 40.232 102.144 40.0265 102.657 39.8439C103.183 39.6612 103.668 39.5699 104.113 39.5699C104.867 39.5699 105.483 39.7297 105.963 40.0494C106.442 40.3576 106.796 40.86 107.024 41.5564C107.264 42.2528 107.384 43.1832 107.384 44.3477C107.384 45.3181 107.275 46.1515 107.059 46.848C106.842 47.5329 106.499 48.0581 106.031 48.4234C105.563 48.7774 104.952 48.9543 104.199 48.9543ZM103.599 47.5329C104.045 47.5329 104.416 47.4245 104.712 47.2076C105.021 46.9792 105.255 46.6253 105.415 46.1458C105.586 45.6549 105.671 45.027 105.671 44.2621C105.671 43.3259 105.58 42.6238 105.397 42.1557C105.215 41.6877 104.969 41.3737 104.661 41.2139C104.353 41.054 103.999 40.9741 103.599 40.9741C103.143 40.9741 102.726 41.0426 102.349 41.1796C101.984 41.3052 101.619 41.465 101.253 41.6591V46.8822C101.561 47.042 101.91 47.1904 102.298 47.3274C102.686 47.4644 103.12 47.5329 103.599 47.5329ZM109.714 38.1485C109.509 38.1485 109.406 38.0515 109.406 37.8574V36.4189C109.406 36.2134 109.509 36.1107 109.714 36.1107H110.981C111.073 36.1107 111.141 36.1392 111.187 36.1963C111.233 36.2534 111.255 36.3276 111.255 36.4189V37.8574C111.255 38.0515 111.164 38.1485 110.981 38.1485H109.714ZM109.474 48.8516V39.6898H111.187V48.8516H109.474ZM125.901 48.9543C125.204 48.9543 124.599 48.8801 124.086 48.7317C123.583 48.5833 123.167 48.3378 122.836 47.9953C122.504 47.6414 122.259 47.1619 122.099 46.5568C121.939 45.9518 121.859 45.1868 121.859 44.2621C121.859 43.3031 121.939 42.5211 122.099 41.916C122.259 41.2995 122.504 40.82 122.836 40.4775C123.167 40.135 123.589 39.901 124.103 39.7754C124.617 39.6384 125.216 39.5699 125.901 39.5699C126.586 39.5699 127.185 39.6384 127.699 39.7754C128.213 39.9124 128.635 40.1521 128.966 40.4946C129.297 40.8371 129.543 41.3166 129.703 41.9331C129.862 42.5382 129.942 43.3145 129.942 44.2621C129.942 45.1983 129.862 45.9746 129.703 46.5911C129.543 47.1962 129.297 47.6699 128.966 48.0124C128.647 48.3549 128.23 48.6004 127.716 48.7488C127.202 48.8858 126.597 48.9543 125.901 48.9543ZM125.901 47.5501C126.278 47.5501 126.609 47.5158 126.894 47.4473C127.191 47.3788 127.436 47.2361 127.63 47.0192C127.825 46.7909 127.973 46.4541 128.076 46.0088C128.178 45.5636 128.23 44.9756 128.23 44.245C128.23 43.5143 128.178 42.9321 128.076 42.4982C127.973 42.053 127.825 41.7219 127.63 41.505C127.436 41.2881 127.191 41.1454 126.894 41.0769C126.609 40.997 126.278 40.957 125.901 40.957C125.513 40.957 125.17 40.997 124.873 41.0769C124.588 41.1454 124.348 41.2881 124.154 41.505C123.971 41.7219 123.829 42.053 123.726 42.4982C123.635 42.9321 123.589 43.5143 123.589 44.245C123.589 44.9756 123.635 45.5636 123.726 46.0088C123.829 46.4541 123.971 46.7909 124.154 47.0192C124.348 47.2361 124.588 47.3788 124.873 47.4473C125.17 47.5158 125.513 47.5501 125.901 47.5501ZM132.583 48.8516V41.094H131.213V39.9809L132.583 39.6898V38.7821C132.583 38.0971 132.668 37.5263 132.839 37.0696C133.011 36.6016 133.296 36.2534 133.696 36.025C134.095 35.7967 134.643 35.6825 135.34 35.6825C135.739 35.6825 136.082 35.7054 136.367 35.751C136.664 35.7967 136.921 35.8367 137.138 35.8709V37.1039H135.648C135.283 37.1039 135.003 37.161 134.809 37.2751C134.615 37.3893 134.478 37.5663 134.398 37.806C134.329 38.0458 134.295 38.3426 134.295 38.6965V39.6898H136.984V41.094H134.295V48.8516H132.583ZM141.624 48.8516C141.008 48.8516 140.494 48.7545 140.083 48.5604C139.684 48.3549 139.387 48.0296 139.193 47.5843C139.01 47.1391 138.924 46.5454 138.936 45.8033L139.004 41.094H137.549V39.9809L139.039 39.6898L139.295 37.121H140.648V39.6898H143.131V41.094H140.648V45.7862C140.648 46.1401 140.683 46.4255 140.751 46.6425C140.82 46.8594 140.917 47.0249 141.042 47.1391C141.168 47.2532 141.305 47.3389 141.453 47.3959C141.602 47.4416 141.744 47.4702 141.881 47.4816L143.012 47.5843V48.8516H141.624Z" fill="#7E7F7F"/>
<defs>
<filter id="filter0_i_5320_5398" x="-1.0699" y="3.51172" width="50.3782" height="50.9506" filterUnits="userSpaceOnUse" color-interpolation-filters="sRGB">
<feFlood flood-opacity="0" result="BackgroundImageFix"/>
<feBlend mode="normal" in="SourceGraphic" in2="BackgroundImageFix" result="shape"/>
<feColorMatrix in="SourceAlpha" type="matrix" values="0 0 0 0 0 0 0 0 0 0 0 0 0 0 0 0 0 0 127 0" result="hardAlpha"/>
<feOffset dx="-1.14412" dy="1.71618"/>
<feGaussianBlur stdDeviation="2.00221"/>
<feComposite in2="hardAlpha" operator="arithmetic" k2="-1" k3="1"/>
<feColorMatrix type="matrix" values="0 0 0 0 0 0 0 0 0 0 0 0 0 0 0 0 0 0 0.2 0"/>
<feBlend mode="normal" in2="shape" result="effect1_innerShadow_5320_5398"/>
</filter>
</defs>
</svg>
