<svg width="157" height="25" viewBox="0 0 157 25" fill="none" xmlns="http://www.w3.org/2000/svg">
<g filter="url(#filter0_i_5591_28718)">
<path d="M24.2613 14.6538C24.3271 14.244 24.371 13.83 24.4259 13.4179V12.0707C24.4117 11.9958 24.3976 11.9214 24.3848 11.8457C24.2636 11.1228 24.2179 10.3775 24.0112 9.67967C22.6102 4.94607 19.4832 2.05078 14.6507 1.01661C14.2291 0.926704 13.7966 0.889737 13.37 0.828125H11.7441C11.2251 0.904797 10.702 0.961389 10.1876 1.06088C4.88508 2.08911 0.873761 6.74604 0.651545 12.1469C0.531293 15.0887 1.36072 17.7458 3.186 20.0606C5.07483 22.4557 7.54481 23.9097 10.5534 24.4332C11.0088 24.5126 11.4706 24.5546 11.9297 24.6139H13.1839C13.2433 24.6007 13.3023 24.5792 13.3622 24.5756C15.005 24.4665 16.5528 24.0229 18.0164 23.2735C18.1257 23.2178 18.2852 23.2009 18.4037 23.232C19.5326 23.525 20.6583 23.8298 21.784 24.1352C22.3167 24.2803 22.8471 24.4318 23.3784 24.5806C23.4177 24.5915 23.457 24.6029 23.4963 24.6139H23.8681C24.1337 24.5076 24.3203 24.3227 24.4259 24.0562V23.6847C24.4099 23.6505 24.3889 23.6176 24.3788 23.5825C24.3756 23.572 24.3733 23.5615 24.3701 23.551C23.9225 21.8829 23.4744 20.2153 23.0332 18.5454C23.0089 18.4532 23.0222 18.329 23.0661 18.2442C23.6532 17.1096 24.0592 15.9152 24.2613 14.6533V14.6538ZM17.138 18.1104C16.7302 18.7822 16.1362 19.3212 15.3562 19.7283C14.5762 20.1354 13.6567 20.339 12.5977 20.339C11.5959 20.339 10.6942 20.1642 9.89271 19.8141C9.09118 19.4641 8.46157 18.9675 8.00342 18.3249C7.54527 17.6824 7.31619 16.9321 7.31619 16.075H9.93523C9.99239 16.718 10.2466 17.2465 10.6974 17.6604C11.1483 18.0748 11.7815 18.282 12.5973 18.282C13.413 18.282 14.1002 18.0785 14.5725 17.6714C15.0448 17.2643 15.2808 16.7395 15.2808 16.0964C15.2808 15.5967 15.134 15.1896 14.8409 14.8751C14.5474 14.5611 14.1825 14.3179 13.7458 14.1468C13.3092 13.9752 12.7047 13.7899 11.9315 13.5895C10.9581 13.3326 10.1675 13.072 9.55939 12.8073C8.95081 12.543 8.4323 12.1323 8.00296 11.575C7.57362 11.0178 7.35872 10.2753 7.35872 9.34651C7.35872 8.48943 7.57362 7.73959 8.00296 7.09655C8.4323 6.4535 9.03357 5.96106 9.80629 5.61787C10.579 5.27512 11.4734 5.10352 12.4898 5.10352C13.9351 5.10352 15.1198 5.46452 16.043 6.18561C16.9661 6.90715 17.4778 7.89659 17.5779 9.15346H14.8729C14.8299 8.61083 14.5725 8.14623 14.1002 7.76058C13.6279 7.37494 13.0051 7.18189 12.2324 7.18189C11.531 7.18189 10.9585 7.36079 10.515 7.71768C10.071 8.07503 9.84973 8.58938 9.84973 9.26071C9.84973 9.71801 9.98919 10.0932 10.2681 10.3857C10.5475 10.6787 10.9014 10.9105 11.3307 11.0821C11.7601 11.2537 12.3467 11.4395 13.0911 11.6394C14.0787 11.9109 14.8839 12.1825 15.5062 12.4536C16.1289 12.7251 16.658 13.1432 17.0951 13.7073C17.5313 14.2718 17.7498 15.0253 17.7498 15.9677C17.7498 16.7249 17.5459 17.4391 17.138 18.1104Z" fill="#FCBB1B"/>
</g>
<path d="M36.237 22.9722C35.8049 22.9722 35.3408 22.9562 34.8447 22.9242C34.3645 22.9081 33.8684 22.8761 33.3563 22.8281C32.8601 22.7641 32.388 22.7081 31.9399 22.6601C31.4917 22.5961 31.0916 22.524 30.7395 22.444V20.1154C31.1877 20.1474 31.7078 20.1794 32.3 20.2114C32.9081 20.2434 33.5403 20.2674 34.1965 20.2834C34.8527 20.2994 35.4848 20.3074 36.093 20.3074C36.7332 20.3074 37.3013 20.2514 37.7975 20.1394C38.2936 20.0114 38.6777 19.7953 38.9498 19.4912C39.2218 19.1871 39.3579 18.755 39.3579 18.1949V17.3546C39.3579 16.7305 39.1818 16.2503 38.8297 15.9142C38.4776 15.5782 37.9575 15.4101 37.2693 15.4101H35.6129C33.9964 15.4101 32.7481 15.058 31.8679 14.3538C31.0036 13.6496 30.5715 12.4413 30.5715 10.7288V9.81659C30.5715 8.10413 31.0436 6.8718 31.9879 6.11959C32.9481 5.35138 34.3165 4.96728 36.093 4.96728C36.7012 4.96728 37.3253 4.99929 37.9655 5.06331C38.6217 5.11132 39.2459 5.17534 39.838 5.25536C40.4302 5.33538 40.9343 5.4234 41.3504 5.51943V7.84806C40.6462 7.80005 39.838 7.75203 38.9258 7.70402C38.0295 7.65601 37.1973 7.632 36.4291 7.632C35.8209 7.632 35.2848 7.69602 34.8207 7.82406C34.3565 7.95209 34.0044 8.18415 33.7644 8.52024C33.5243 8.84033 33.4043 9.32046 33.4043 9.96063V10.5368C33.4043 11.289 33.6043 11.8171 34.0044 12.1212C34.4205 12.4253 35.0127 12.5773 35.7809 12.5773H37.6294C38.6697 12.5773 39.5259 12.7694 40.1981 13.1535C40.8703 13.5376 41.3664 14.0657 41.6865 14.7379C42.0226 15.3941 42.1907 16.1463 42.1907 16.9945V18.1228C42.1907 19.4352 41.9346 20.4435 41.4224 21.1477C40.9103 21.8519 40.2061 22.332 39.3099 22.5881C38.4136 22.8441 37.3893 22.9722 36.237 22.9722ZM50.1599 22.9482C48.7675 22.9482 47.6552 22.7561 46.823 22.372C46.0067 21.9879 45.4146 21.3237 45.0465 20.3795C44.6784 19.4192 44.4943 18.0908 44.4943 16.3944C44.4943 14.6659 44.6704 13.3295 45.0225 12.3853C45.3746 11.425 45.9587 10.7528 46.775 10.3687C47.5912 9.98464 48.6955 9.79259 50.0879 9.79259C51.3202 9.79259 52.3045 9.92062 53.0407 10.1767C53.7929 10.4168 54.337 10.8569 54.6731 11.4971C55.0252 12.1212 55.2012 13.0095 55.2012 14.1618C55.2012 14.978 55.0412 15.6342 54.7211 16.1303C54.401 16.6104 53.9369 16.9545 53.3287 17.1626C52.7366 17.3706 52.0324 17.4747 51.2162 17.4747H47.4471C47.4791 18.2749 47.5832 18.9151 47.7592 19.3952C47.9513 19.8593 48.2874 20.1954 48.7675 20.4035C49.2636 20.6115 49.9838 20.7156 50.9281 20.7156H54.8171V22.468C54.161 22.5961 53.4648 22.7081 52.7286 22.8041C52.0084 22.9001 51.1521 22.9482 50.1599 22.9482ZM47.4231 15.6742H50.9281C51.4882 15.6742 51.8963 15.5702 52.1524 15.3621C52.4245 15.138 52.5605 14.7379 52.5605 14.1618C52.5605 13.6016 52.4805 13.1615 52.3205 12.8414C52.1604 12.5213 51.8963 12.2973 51.5282 12.1692C51.1601 12.0252 50.68 11.9532 50.0879 11.9532C49.4157 11.9532 48.8875 12.0572 48.5034 12.2653C48.1193 12.4733 47.8392 12.8494 47.6632 13.3936C47.5032 13.9217 47.4231 14.6819 47.4231 15.6742ZM57.8435 22.8281V9.96063H60.2681L60.8203 11.305C61.3484 10.9049 61.9886 10.5448 62.7408 10.2247C63.509 9.90462 64.3012 9.74458 65.1174 9.74458C66.1257 9.74458 66.9179 9.95263 67.4941 10.3687C68.0702 10.7689 68.4783 11.313 68.7184 12.0012C68.9745 12.6894 69.1025 13.4416 69.1025 14.2578V22.8281H66.1257V14.6179C66.1257 14.1538 66.0377 13.7617 65.8616 13.4416C65.6856 13.1215 65.4375 12.8734 65.1174 12.6974C64.8134 12.5213 64.4372 12.4333 63.9891 12.4333C63.573 12.4333 63.1809 12.4733 62.8128 12.5533C62.4607 12.6334 62.1246 12.7534 61.8045 12.9134C61.4844 13.0735 61.1564 13.2655 60.8203 13.4896V22.8281H57.8435ZM76.7552 22.8281C75.8269 22.8281 75.0667 22.6921 74.4745 22.42C73.8824 22.1319 73.4503 21.6598 73.1782 21.0036C72.9221 20.3475 72.8021 19.4832 72.8181 18.4109L72.9141 12.3613H70.8976V10.4408L73.0101 9.96063L73.4423 6.35966H75.7709V9.96063H79.0358V12.3613H75.7709V18.3869C75.7709 18.803 75.8109 19.1471 75.8909 19.4192C75.9709 19.6753 76.083 19.8833 76.227 20.0434C76.3871 20.1874 76.5551 20.2914 76.7311 20.3555C76.9072 20.4195 77.0912 20.4595 77.2833 20.4755L78.8917 20.6435V22.8281H76.7552ZM81.6011 7.92008C81.297 7.92008 81.145 7.77604 81.145 7.48796V5.30337C81.145 4.98328 81.297 4.82324 81.6011 4.82324H83.8577C84.0017 4.82324 84.1058 4.87125 84.1698 4.96728C84.2498 5.06331 84.2898 5.17534 84.2898 5.30337V7.48796C84.2898 7.77604 84.1458 7.92008 83.8577 7.92008H81.6011ZM81.217 22.8281V9.96063H84.1938V22.8281H81.217ZM87.5541 22.8281V10.0086H89.0425L89.4507 11.425C90.0908 10.9769 90.803 10.5928 91.5872 10.2727C92.3875 9.95263 93.2757 9.79259 94.252 9.79259C95.0522 9.79259 95.7324 9.97664 96.2925 10.3447C96.8687 10.6968 97.3008 11.145 97.5889 11.6891C97.989 11.401 98.4691 11.1129 99.0293 10.8249C99.6054 10.5368 100.214 10.2967 100.854 10.1047C101.51 9.89662 102.142 9.79259 102.75 9.79259C103.679 9.79259 104.439 9.99264 105.031 10.3928C105.623 10.7769 106.055 11.305 106.327 11.9772C106.615 12.6334 106.759 13.3696 106.759 14.1858V22.8281H104.863V14.3298C104.863 13.7857 104.751 13.3055 104.527 12.8894C104.319 12.4573 104.015 12.1212 103.615 11.8812C103.214 11.6411 102.726 11.5211 102.15 11.5211C101.43 11.5211 100.694 11.6571 99.9415 11.9292C99.1893 12.2012 98.4931 12.5293 97.8529 12.9134C97.933 13.1535 97.989 13.3936 98.021 13.6336C98.069 13.8577 98.093 14.0978 98.093 14.3538V22.8281H96.1965V14.3298C96.1965 13.7857 96.0845 13.3055 95.8604 12.8894C95.6523 12.4573 95.3483 12.1212 94.9481 11.8812C94.564 11.6411 94.0839 11.5211 93.5078 11.5211C92.9796 11.5211 92.4835 11.5771 92.0194 11.6891C91.5712 11.7851 91.1391 11.9292 90.723 12.1212C90.3229 12.2973 89.8988 12.5133 89.4507 12.7694V22.8281H87.5541ZM115.215 22.9722C113.871 22.9722 112.807 22.7721 112.023 22.372C111.254 21.9719 110.702 21.2917 110.366 20.3314C110.03 19.3712 109.862 18.0588 109.862 16.3944C109.862 14.6979 110.03 13.3776 110.366 12.4333C110.718 11.473 111.286 10.8009 112.071 10.4168C112.855 10.0327 113.911 9.8406 115.239 9.8406C116.376 9.8406 117.296 9.96864 118 10.2247C118.72 10.4808 119.249 10.9209 119.585 11.5451C119.937 12.1532 120.113 13.0015 120.113 14.0898C120.113 14.842 119.961 15.4501 119.657 15.9142C119.369 16.3624 118.944 16.6905 118.384 16.8985C117.84 17.0906 117.192 17.1866 116.44 17.1866H111.759C111.775 18.2269 111.887 19.0671 112.095 19.7073C112.303 20.3314 112.679 20.7876 113.223 21.0756C113.783 21.3477 114.599 21.4838 115.672 21.4838H119.801V22.6361C119.065 22.7321 118.344 22.8121 117.64 22.8761C116.936 22.9402 116.128 22.9722 115.215 22.9722ZM111.735 15.9383H116.296C117.016 15.9383 117.544 15.8102 117.88 15.5542C118.232 15.2821 118.408 14.8019 118.408 14.1138C118.408 13.3776 118.296 12.8094 118.072 12.4093C117.864 11.9932 117.528 11.7051 117.064 11.5451C116.616 11.369 116.008 11.281 115.239 11.281C114.343 11.281 113.639 11.417 113.127 11.6891C112.615 11.9452 112.255 12.4093 112.047 13.0815C111.839 13.7537 111.735 14.7059 111.735 15.9383ZM127.555 22.8281C126.723 22.8281 126.035 22.6921 125.491 22.42C124.946 22.1479 124.546 21.7078 124.29 21.0997C124.034 20.4915 123.914 19.6833 123.93 18.675L124.002 11.5691H121.962V10.3447L124.026 10.0086L124.338 6.43168H125.803V10.0086H129.5V11.5691H125.803V18.675C125.803 19.2352 125.859 19.6833 125.971 20.0194C126.099 20.3555 126.259 20.6115 126.451 20.7876C126.659 20.9636 126.875 21.0917 127.099 21.1717C127.323 21.2357 127.539 21.2757 127.747 21.2917L129.308 21.4357V22.8281H127.555ZM137.018 22.9722C135.674 22.9722 134.61 22.7721 133.825 22.372C133.057 21.9719 132.505 21.2917 132.169 20.3314C131.833 19.3712 131.665 18.0588 131.665 16.3944C131.665 14.6979 131.833 13.3776 132.169 12.4333C132.521 11.473 133.089 10.8009 133.873 10.4168C134.658 10.0327 135.714 9.8406 137.042 9.8406C138.179 9.8406 139.099 9.96864 139.803 10.2247C140.523 10.4808 141.051 10.9209 141.387 11.5451C141.74 12.1532 141.916 13.0015 141.916 14.0898C141.916 14.842 141.764 15.4501 141.459 15.9142C141.171 16.3624 140.747 16.6905 140.187 16.8985C139.643 17.0906 138.995 17.1866 138.243 17.1866H133.561C133.577 18.2269 133.689 19.0671 133.897 19.7073C134.105 20.3314 134.482 20.7876 135.026 21.0756C135.586 21.3477 136.402 21.4838 137.474 21.4838H141.603V22.6361C140.867 22.7321 140.147 22.8121 139.443 22.8761C138.739 22.9402 137.93 22.9722 137.018 22.9722ZM133.537 15.9383H138.099C138.819 15.9383 139.347 15.8102 139.683 15.5542C140.035 15.2821 140.211 14.8019 140.211 14.1138C140.211 13.3776 140.099 12.8094 139.875 12.4093C139.667 11.9932 139.331 11.7051 138.867 11.5451C138.419 11.369 137.81 11.281 137.042 11.281C136.146 11.281 135.442 11.417 134.93 11.6891C134.418 11.9452 134.057 12.4093 133.849 13.0815C133.641 13.7537 133.537 14.7059 133.537 15.9383ZM145.109 22.8281V10.0086H146.549L147.005 12.2413C147.581 11.5531 148.222 10.9849 148.926 10.5368C149.646 10.0887 150.47 9.86461 151.399 9.86461C151.623 9.86461 151.831 9.87261 152.023 9.88861C152.231 9.90462 152.423 9.93663 152.599 9.98464V11.9292C152.391 11.8972 152.167 11.8732 151.927 11.8571C151.687 11.8251 151.447 11.8091 151.206 11.8091C150.614 11.8091 150.086 11.8812 149.622 12.0252C149.158 12.1692 148.718 12.3853 148.302 12.6734C147.886 12.9614 147.453 13.3135 147.005 13.7297V22.8281H145.109Z" fill="white"/>
<defs>
<filter id="filter0_i_5591_28718" x="-0.180062" y="0.828125" width="24.6061" height="25.0164" filterUnits="userSpaceOnUse" color-interpolation-filters="sRGB">
<feFlood flood-opacity="0" result="BackgroundImageFix"/>
<feBlend mode="normal" in="SourceGraphic" in2="BackgroundImageFix" result="shape"/>
<feColorMatrix in="SourceAlpha" type="matrix" values="0 0 0 0 0 0 0 0 0 0 0 0 0 0 0 0 0 0 127 0" result="hardAlpha"/>
<feOffset dx="-0.820199" dy="1.2303"/>
<feGaussianBlur stdDeviation="1.43535"/>
<feComposite in2="hardAlpha" operator="arithmetic" k2="-1" k3="1"/>
<feColorMatrix type="matrix" values="0 0 0 0 0 0 0 0 0 0 0 0 0 0 0 0 0 0 0.2 0"/>
<feBlend mode="normal" in2="shape" result="effect1_innerShadow_5591_28718"/>
</filter>
</defs>
</svg>
