<svg width="186" height="92" viewBox="0 0 186 92" fill="none" xmlns="http://www.w3.org/2000/svg">
<path d="M3.27141 82.0526C3.0827 82.0526 2.88266 82.0375 2.6713 82.0073C2.45994 81.9696 2.25613 81.8979 2.05986 81.7922C1.87115 81.679 1.7164 81.5091 1.59563 81.2827C1.47485 81.0562 1.41446 80.7505 1.41446 80.3655V75.4061C1.41446 75.0739 1.46353 74.7947 1.56166 74.5682C1.66734 74.3417 1.80321 74.1643 1.96928 74.036C2.13535 73.9001 2.32029 73.8058 2.5241 73.7529C2.73546 73.6926 2.94305 73.6624 3.14686 73.6624C3.63752 73.6699 4.08666 73.6812 4.49428 73.6963C4.90946 73.7039 5.29443 73.7152 5.64922 73.7303C6.004 73.7454 6.34369 73.7605 6.66828 73.7756V74.7154H3.45258C3.17328 74.7154 2.95437 74.7871 2.79585 74.9305C2.63733 75.0739 2.55807 75.3004 2.55807 75.6099V77.3423L6.15875 77.4102V78.2934L2.55807 78.3727V80.0824C2.55807 80.3391 2.59959 80.5316 2.68262 80.6599C2.77321 80.7882 2.88643 80.875 3.02231 80.9203C3.16573 80.9656 3.3167 80.9883 3.47522 80.9883H6.66828V81.9281C6.32104 81.9507 5.95493 81.9734 5.56996 81.996C5.18498 82.0111 4.79623 82.0224 4.4037 82.03C4.01872 82.0451 3.64129 82.0526 3.27141 82.0526ZM8.05922 82.0073V75.9496H8.96505L9.19151 76.6063C9.4859 76.4025 9.81049 76.2251 10.1653 76.0741C10.5201 75.9232 10.9277 75.8477 11.3881 75.8477C11.7656 75.8477 12.0864 75.9307 12.3506 76.0968C12.6148 76.2629 12.8148 76.4742 12.9507 76.7309C13.1319 76.595 13.3508 76.4591 13.6074 76.3232C13.8641 76.1874 14.1396 76.0741 14.434 75.9836C14.7284 75.893 15.0115 75.8477 15.2832 75.8477C15.7361 75.8477 16.1022 75.942 16.3815 76.1308C16.6684 76.3119 16.8722 76.5648 16.993 76.8894C17.1213 77.2064 17.1855 77.5688 17.1855 77.9764V82.0073H16.0532V78.067C16.0532 77.8254 16.0041 77.6178 15.906 77.4442C15.8154 77.263 15.6833 77.1234 15.5097 77.0253C15.3436 76.9271 15.1398 76.8781 14.8982 76.8781C14.5963 76.8781 14.2868 76.9384 13.9698 77.0592C13.6527 77.1725 13.3621 77.3121 13.0979 77.4782C13.1281 77.5763 13.1507 77.6782 13.1658 77.7839C13.1809 77.882 13.1885 77.9802 13.1885 78.0783V82.0073H12.0562V78.067C12.0562 77.8254 12.0071 77.6178 11.909 77.4442C11.8184 77.263 11.6901 77.1234 11.524 77.0253C11.358 76.9271 11.1541 76.8781 10.9126 76.8781C10.6861 76.8781 10.4748 76.9007 10.2785 76.946C10.0898 76.9913 9.90862 77.0555 9.73501 77.1385C9.56139 77.214 9.38022 77.3083 9.19151 77.4216V82.0073H8.05922ZM18.7408 84.6908V75.9496H19.6692L19.8731 76.561C20.0165 76.4553 20.1863 76.3497 20.3826 76.244C20.5864 76.1383 20.8053 76.0515 21.0393 75.9836C21.2809 75.9081 21.5224 75.8703 21.764 75.8703C22.1489 75.8703 22.4773 75.9496 22.7491 76.1081C23.0284 76.2666 23.2548 76.4893 23.4284 76.7762C23.6021 77.0555 23.7266 77.3838 23.8021 77.7612C23.8851 78.1387 23.9266 78.5425 23.9266 78.9728C23.9266 79.6446 23.8512 80.2145 23.7002 80.6825C23.5568 81.143 23.3265 81.494 23.0095 81.7356C22.7 81.9696 22.2848 82.0866 21.764 82.0866C21.4469 82.0866 21.1223 82.0413 20.7902 81.9507C20.4581 81.8526 20.1523 81.7243 19.8731 81.5657V84.6908H18.7408ZM21.4243 81.1355C21.6809 81.1355 21.9112 81.0713 22.115 80.943C22.3188 80.8146 22.4811 80.5957 22.6019 80.2862C22.7302 79.9692 22.7944 79.5314 22.7944 78.9728C22.7944 78.4444 22.7302 78.0217 22.6019 77.7046C22.4735 77.38 22.3075 77.1498 22.1037 77.0139C21.8998 76.8705 21.6772 76.7988 21.4356 76.7988C21.1186 76.7988 20.8279 76.8479 20.5637 76.946C20.3071 77.0441 20.0769 77.146 19.8731 77.2517V80.7052C20.1071 80.8335 20.3562 80.9392 20.6204 81.0222C20.8921 81.0977 21.1601 81.1355 21.4243 81.1355ZM26.996 82.0186C26.6261 82.0186 26.3129 81.9545 26.0562 81.8262C25.8071 81.6978 25.6184 81.494 25.4901 81.2147C25.3693 80.9279 25.3089 80.5429 25.3089 80.0598V73.368H26.4412V79.9126C26.4412 80.2296 26.4714 80.475 26.5318 80.6486C26.5997 80.8146 26.6903 80.9317 26.8035 80.9996C26.9243 81.0675 27.064 81.1128 27.2225 81.1355L27.7886 81.2034V82.0186H26.996ZM31.172 82.0753C30.7115 82.0753 30.3114 82.0262 29.9717 81.9281C29.6396 81.8299 29.3641 81.6676 29.1452 81.4412C28.9263 81.2072 28.764 80.8901 28.6583 80.4901C28.5526 80.09 28.4998 79.5842 28.4998 78.9728C28.4998 78.3387 28.5526 77.8216 28.6583 77.4216C28.764 77.0139 28.9263 76.6969 29.1452 76.4704C29.3641 76.244 29.6434 76.0892 29.9831 76.0062C30.3227 75.9156 30.719 75.8703 31.172 75.8703C31.6249 75.8703 32.0212 75.9156 32.3609 76.0062C32.7005 76.0968 32.9798 76.2553 33.1988 76.4818C33.4177 76.7082 33.58 77.0253 33.6856 77.4329C33.7913 77.833 33.8442 78.3463 33.8442 78.9728C33.8442 79.5918 33.7913 80.1051 33.6856 80.5127C33.58 80.9128 33.4177 81.226 33.1988 81.4525C32.9874 81.679 32.7119 81.8413 32.3722 81.9394C32.0325 82.03 31.6324 82.0753 31.172 82.0753ZM31.172 81.1468C31.4211 81.1468 31.64 81.1241 31.8287 81.0788C32.0249 81.0336 32.1872 80.9392 32.3156 80.7958C32.4439 80.6448 32.542 80.4221 32.61 80.1277C32.6779 79.8333 32.7119 79.4446 32.7119 78.9615C32.7119 78.4784 32.6779 78.0934 32.61 77.8065C32.542 77.5121 32.4439 77.2932 32.3156 77.1498C32.1872 77.0064 32.0249 76.912 31.8287 76.8667C31.64 76.8139 31.4211 76.7875 31.172 76.7875C30.9153 76.7875 30.6888 76.8139 30.4926 76.8667C30.3039 76.912 30.1453 77.0064 30.017 77.1498C29.8962 77.2932 29.8019 77.5121 29.734 77.8065C29.6736 78.0934 29.6434 78.4784 29.6434 78.9615C29.6434 79.4446 29.6736 79.8333 29.734 80.1277C29.8019 80.4221 29.8962 80.6448 30.017 80.7958C30.1453 80.9392 30.3039 81.0336 30.4926 81.0788C30.6888 81.1241 30.9153 81.1468 31.172 81.1468ZM36.7161 84.6908L37.4521 82.0073C37.2105 81.9998 36.9803 81.9507 36.7614 81.8601C36.5425 81.762 36.3462 81.6072 36.1726 81.3959C36.0065 81.177 35.8707 80.8864 35.765 80.524L34.4062 75.9496H35.5951L36.818 80.2862C36.8859 80.4901 36.9614 80.6448 37.0445 80.7505C37.135 80.8562 37.2219 80.9317 37.3049 80.9769C37.3955 81.0147 37.4747 81.0373 37.5427 81.0449C37.6106 81.0524 37.6521 81.0562 37.6672 81.0562L39.0826 75.9496H40.2488L38.1654 83.5699L37.6219 84.6908H36.7161ZM43.6208 82.0753C42.9792 82.0753 42.4659 81.9809 42.0809 81.7922C41.7035 81.6035 41.4317 81.2864 41.2657 80.8411C41.1072 80.3882 41.0279 79.7654 41.0279 78.9728C41.0279 78.1651 41.1072 77.5386 41.2657 77.0932C41.4317 76.6403 41.7035 76.3232 42.0809 76.1421C42.4584 75.9609 42.9679 75.8703 43.6095 75.8703C44.1681 75.8703 44.6173 75.9307 44.9569 76.0515C45.3042 76.1647 45.5571 76.3723 45.7156 76.6742C45.8816 76.9686 45.9647 77.38 45.9647 77.9084C45.9647 78.2783 45.8892 78.5727 45.7382 78.7916C45.5948 79.0105 45.3872 79.1691 45.1155 79.2672C44.8513 79.3653 44.5342 79.4144 44.1643 79.4144H42.1602C42.1677 79.8522 42.2168 80.2032 42.3074 80.4674C42.4055 80.7241 42.5754 80.9128 42.8169 81.0336C43.066 81.1468 43.4283 81.2034 43.9039 81.2034H45.7948V81.8828C45.4702 81.9281 45.1381 81.9696 44.7984 82.0073C44.4587 82.0526 44.0662 82.0753 43.6208 82.0753ZM42.1489 78.701H44.0624C44.3644 78.701 44.5871 78.6444 44.7305 78.5312C44.8739 78.418 44.9456 78.2104 44.9456 77.9084C44.9456 77.6065 44.9003 77.3687 44.8097 77.1951C44.7267 77.0215 44.5871 76.8969 44.3908 76.8214C44.1945 76.746 43.9341 76.7082 43.6095 76.7082C43.2396 76.7082 42.9452 76.7648 42.7263 76.8781C42.515 76.9913 42.364 77.1913 42.2734 77.4782C42.1904 77.765 42.1489 78.1726 42.1489 78.701ZM49.7356 82.0753C49.094 82.0753 48.5807 81.9809 48.1957 81.7922C47.8183 81.6035 47.5465 81.2864 47.3805 80.8411C47.222 80.3882 47.1427 79.7654 47.1427 78.9728C47.1427 78.1651 47.222 77.5386 47.3805 77.0932C47.5465 76.6403 47.8183 76.3232 48.1957 76.1421C48.5732 75.9609 49.0827 75.8703 49.7243 75.8703C50.2829 75.8703 50.732 75.9307 51.0717 76.0515C51.419 76.1647 51.6718 76.3723 51.8304 76.6742C51.9964 76.9686 52.0795 77.38 52.0795 77.9084C52.0795 78.2783 52.004 78.5727 51.853 78.7916C51.7096 79.0105 51.502 79.1691 51.2303 79.2672C50.9661 79.3653 50.649 79.4144 50.2791 79.4144H48.275C48.2825 79.8522 48.3316 80.2032 48.4222 80.4674C48.5203 80.7241 48.6902 80.9128 48.9317 81.0336C49.1808 81.1468 49.5431 81.2034 50.0187 81.2034H51.9096V81.8828C51.585 81.9281 51.2529 81.9696 50.9132 82.0073C50.5735 82.0526 50.181 82.0753 49.7356 82.0753ZM48.2637 78.701H50.1772C50.4792 78.701 50.7019 78.6444 50.8453 78.5312C50.9887 78.418 51.0604 78.2104 51.0604 77.9084C51.0604 77.6065 51.0151 77.3687 50.9245 77.1951C50.8415 77.0215 50.7019 76.8969 50.5056 76.8214C50.3093 76.746 50.0489 76.7082 49.7243 76.7082C49.3544 76.7082 49.06 76.7648 48.8411 76.8781C48.6298 76.9913 48.4788 77.1913 48.3882 77.4782C48.3052 77.765 48.2637 78.1726 48.2637 78.701ZM58.3599 82.0526C58.1711 82.0526 57.9711 82.0375 57.7598 82.0073C57.5484 81.9696 57.3446 81.8979 57.1483 81.7922C56.9596 81.679 56.8049 81.5091 56.6841 81.2827C56.5633 81.0562 56.5029 80.7505 56.5029 80.3655V75.4061C56.5029 75.0739 56.552 74.7947 56.6501 74.5682C56.7558 74.3417 56.8917 74.1643 57.0577 74.036C57.2238 73.9001 57.4087 73.8058 57.6126 73.7529C57.8239 73.6926 58.0315 73.6624 58.2353 73.6624C58.726 73.6699 59.1751 73.6812 59.5827 73.6963C59.9979 73.7039 60.3829 73.7152 60.7377 73.7303C61.0925 73.7454 61.4321 73.7605 61.7567 73.7756V74.7154H58.541C58.2617 74.7154 58.0428 74.7871 57.8843 74.9305C57.7258 75.0739 57.6465 75.3004 57.6465 75.6099V77.3423L61.2472 77.4102V78.2934L57.6465 78.3727V80.0824C57.6465 80.3391 57.688 80.5316 57.7711 80.6599C57.8617 80.7882 57.9749 80.875 58.1108 80.9203C58.2542 80.9656 58.4052 80.9883 58.5637 80.9883H61.7567V81.9281C61.4095 81.9507 61.0434 81.9734 60.6584 81.996C60.2734 82.0111 59.8847 82.0224 59.4922 82.03C59.1072 82.0451 58.7297 82.0526 58.3599 82.0526ZM66.8616 82.0073L62.5589 75.9496H63.7138L68.0165 82.0073H66.8616ZM62.5589 82.0073L64.8574 78.6444L65.2764 79.6861L63.7138 82.0073H62.5589ZM65.7066 79.3351L65.2198 78.4066L66.8616 75.9609L68.0165 75.9496L65.7066 79.3351ZM69.0081 84.6908V75.9496H69.9366L70.1404 76.561C70.2839 76.4553 70.4537 76.3497 70.65 76.244C70.8538 76.1383 71.0727 76.0515 71.3067 75.9836C71.5482 75.9081 71.7898 75.8703 72.0314 75.8703C72.4163 75.8703 72.7447 75.9496 73.0164 76.1081C73.2957 76.2666 73.5222 76.4893 73.6958 76.7762C73.8694 77.0555 73.994 77.3838 74.0695 77.7612C74.1525 78.1387 74.194 78.5425 74.194 78.9728C74.194 79.6446 74.1185 80.2145 73.9676 80.6825C73.8241 81.143 73.5939 81.494 73.2769 81.7356C72.9674 81.9696 72.5522 82.0866 72.0314 82.0866C71.7143 82.0866 71.3897 82.0413 71.0576 81.9507C70.7255 81.8526 70.4197 81.7243 70.1404 81.5657V84.6908H69.0081ZM71.6917 81.1355C71.9483 81.1355 72.1786 81.0713 72.3824 80.943C72.5862 80.8146 72.7485 80.5957 72.8692 80.2862C72.9976 79.9692 73.0617 79.5314 73.0617 78.9728C73.0617 78.4444 72.9976 78.0217 72.8692 77.7046C72.7409 77.38 72.5749 77.1498 72.371 77.0139C72.1672 76.8705 71.9445 76.7988 71.703 76.7988C71.386 76.7988 71.0953 76.8479 70.8311 76.946C70.5745 77.0441 70.3442 77.146 70.1404 77.2517V80.7052C70.3744 80.8335 70.6235 80.9392 70.8877 81.0222C71.1595 81.0977 71.4275 81.1355 71.6917 81.1355ZM77.9654 82.0753C77.3238 82.0753 76.8105 81.9809 76.4255 81.7922C76.0481 81.6035 75.7763 81.2864 75.6103 80.8411C75.4517 80.3882 75.3725 79.7654 75.3725 78.9728C75.3725 78.1651 75.4517 77.5386 75.6103 77.0932C75.7763 76.6403 76.0481 76.3232 76.4255 76.1421C76.8029 75.9609 77.3125 75.8703 77.9541 75.8703C78.5127 75.8703 78.9618 75.9307 79.3015 76.0515C79.6488 76.1647 79.9016 76.3723 80.0602 76.6742C80.2262 76.9686 80.3093 77.38 80.3093 77.9084C80.3093 78.2783 80.2338 78.5727 80.0828 78.7916C79.9394 79.0105 79.7318 79.1691 79.46 79.2672C79.1958 79.3653 78.8788 79.4144 78.5089 79.4144H76.5048C76.5123 79.8522 76.5614 80.2032 76.652 80.4674C76.7501 80.7241 76.9199 80.9128 77.1615 81.0336C77.4106 81.1468 77.7729 81.2034 78.2485 81.2034H80.1394V81.8828C79.8148 81.9281 79.4827 81.9696 79.143 82.0073C78.8033 82.0526 78.4108 82.0753 77.9654 82.0753ZM76.4935 78.701H78.407C78.709 78.701 78.9316 78.6444 79.0751 78.5312C79.2185 78.418 79.2902 78.2104 79.2902 77.9084C79.2902 77.6065 79.2449 77.3687 79.1543 77.1951C79.0713 77.0215 78.9316 76.8969 78.7354 76.8214C78.5391 76.746 78.2787 76.7082 77.9541 76.7082C77.5842 76.7082 77.2898 76.7648 77.0709 76.8781C76.8596 76.9913 76.7086 77.1913 76.618 77.4782C76.535 77.765 76.4935 78.1726 76.4935 78.701ZM81.6911 82.0073V75.9496H82.563L82.8234 76.9686C83.08 76.6592 83.3669 76.3987 83.6839 76.1874C84.001 75.976 84.3708 75.8703 84.7936 75.8703C84.8917 75.8703 84.986 75.8779 85.0766 75.893C85.1672 75.9005 85.254 75.9156 85.3371 75.9383V77.1045C85.2314 77.0894 85.1219 77.0781 85.0087 77.0705C84.8955 77.0555 84.7785 77.0479 84.6577 77.0479C84.401 77.0479 84.1708 77.0781 83.967 77.1385C83.7632 77.1989 83.5669 77.2932 83.3782 77.4216C83.197 77.5423 83.0121 77.6933 82.8234 77.8745V82.0073H81.6911ZM86.5601 74.9305C86.4242 74.9305 86.3563 74.8664 86.3563 74.738V73.7869C86.3563 73.651 86.4242 73.5831 86.5601 73.5831H87.398C87.4584 73.5831 87.5037 73.602 87.5339 73.6397C87.5641 73.6775 87.5792 73.7265 87.5792 73.7869V74.738C87.5792 74.8664 87.5188 74.9305 87.398 74.9305H86.5601ZM86.4016 82.0073V75.9496H87.5339V82.0073H86.4016ZM91.5109 82.0753C90.8692 82.0753 90.3559 81.9809 89.9709 81.7922C89.5935 81.6035 89.3218 81.2864 89.1557 80.8411C88.9972 80.3882 88.9179 79.7654 88.9179 78.9728C88.9179 78.1651 88.9972 77.5386 89.1557 77.0932C89.3218 76.6403 89.5935 76.3232 89.9709 76.1421C90.3484 75.9609 90.8579 75.8703 91.4995 75.8703C92.0581 75.8703 92.5073 75.9307 92.847 76.0515C93.1942 76.1647 93.4471 76.3723 93.6056 76.6742C93.7717 76.9686 93.8547 77.38 93.8547 77.9084C93.8547 78.2783 93.7792 78.5727 93.6282 78.7916C93.4848 79.0105 93.2772 79.1691 93.0055 79.2672C92.7413 79.3653 92.4242 79.4144 92.0544 79.4144H90.0502C90.0578 79.8522 90.1068 80.2032 90.1974 80.4674C90.2955 80.7241 90.4654 80.9128 90.7069 81.0336C90.956 81.1468 91.3184 81.2034 91.7939 81.2034H93.6849V81.8828C93.3603 81.9281 93.0281 81.9696 92.6884 82.0073C92.3488 82.0526 91.9562 82.0753 91.5109 82.0753ZM90.0389 78.701H91.9525C92.2544 78.701 92.4771 78.6444 92.6205 78.5312C92.7639 78.418 92.8356 78.2104 92.8356 77.9084C92.8356 77.6065 92.7903 77.3687 92.6998 77.1951C92.6167 77.0215 92.4771 76.8969 92.2808 76.8214C92.0846 76.746 91.8241 76.7082 91.4995 76.7082C91.1297 76.7082 90.8353 76.7648 90.6164 76.8781C90.405 76.9913 90.254 77.1913 90.1634 77.4782C90.0804 77.765 90.0389 78.1726 90.0389 78.701ZM95.2365 82.0073V75.9496H96.1424L96.3688 76.6063C96.6406 76.41 96.9614 76.2364 97.3313 76.0855C97.7087 75.9269 98.0974 75.8477 98.4975 75.8477C98.9504 75.8477 99.3128 75.9458 99.5845 76.1421C99.8638 76.3308 100.064 76.5837 100.185 76.9007C100.305 77.2177 100.366 77.5612 100.366 77.9311V82.0073H99.2335V78.067C99.2335 77.8254 99.1844 77.6178 99.0863 77.4442C98.9957 77.263 98.8674 77.1234 98.7013 77.0253C98.5353 76.9271 98.3314 76.8781 98.0899 76.8781C97.8634 76.8781 97.6521 76.9007 97.4558 76.946C97.2671 76.9913 97.0859 77.0555 96.9123 77.1385C96.7387 77.214 96.5575 77.3083 96.3688 77.4216V82.0073H95.2365ZM104.169 82.0753C103.814 82.0753 103.485 82.03 103.183 81.9394C102.889 81.8413 102.629 81.679 102.402 81.4525C102.183 81.226 102.013 80.9128 101.893 80.5127C101.772 80.1126 101.711 79.6069 101.711 78.9954C101.711 78.3689 101.768 77.8556 101.881 77.4555C101.995 77.0479 102.157 76.7309 102.368 76.5044C102.587 76.2704 102.851 76.1081 103.161 76.0175C103.47 75.9269 103.817 75.8816 104.202 75.8816C104.52 75.8816 104.852 75.8967 105.199 75.9269C105.554 75.9571 105.897 76.0062 106.229 76.0741V76.7422H104.52C104.15 76.7422 103.84 76.8026 103.591 76.9234C103.342 77.0366 103.157 77.2593 103.036 77.5914C102.915 77.916 102.855 78.3878 102.855 79.0068C102.855 79.6031 102.919 80.0636 103.048 80.3882C103.176 80.7052 103.361 80.9203 103.602 81.0336C103.851 81.1468 104.161 81.2034 104.531 81.2034H106.32V81.8488C106.146 81.8941 105.939 81.9356 105.697 81.9734C105.463 82.0035 105.214 82.0262 104.95 82.0413C104.693 82.0639 104.433 82.0753 104.169 82.0753ZM109.855 82.0753C109.214 82.0753 108.7 81.9809 108.315 81.7922C107.938 81.6035 107.666 81.2864 107.5 80.8411C107.342 80.3882 107.262 79.7654 107.262 78.9728C107.262 78.1651 107.342 77.5386 107.5 77.0932C107.666 76.6403 107.938 76.3232 108.315 76.1421C108.693 75.9609 109.202 75.8703 109.844 75.8703C110.403 75.8703 110.852 75.9307 111.191 76.0515C111.539 76.1647 111.791 76.3723 111.95 76.6742C112.116 76.9686 112.199 77.38 112.199 77.9084C112.199 78.2783 112.124 78.5727 111.973 78.7916C111.829 79.0105 111.622 79.1691 111.35 79.2672C111.086 79.3653 110.769 79.4144 110.399 79.4144H108.395C108.402 79.8522 108.451 80.2032 108.542 80.4674C108.64 80.7241 108.81 80.9128 109.051 81.0336C109.3 81.1468 109.663 81.2034 110.138 81.2034H112.029V81.8828C111.705 81.9281 111.373 81.9696 111.033 82.0073C110.693 82.0526 110.301 82.0753 109.855 82.0753ZM108.383 78.701H110.297C110.599 78.701 110.821 78.6444 110.965 78.5312C111.108 78.418 111.18 78.2104 111.18 77.9084C111.18 77.6065 111.135 77.3687 111.044 77.1951C110.961 77.0215 110.821 76.8969 110.625 76.8214C110.429 76.746 110.169 76.7082 109.844 76.7082C109.474 76.7082 109.18 76.7648 108.961 76.8781C108.749 76.9913 108.598 77.1913 108.508 77.4782C108.425 77.765 108.383 78.1726 108.383 78.701ZM116.396 82.0073L117.347 73.6624H118.479L120.608 80.6259L122.703 73.6624H123.847L124.82 82.0073H123.722L122.907 75.0551L123.099 75.0777L121.129 82.0073H120.076L118.072 75.0777L118.276 75.0664L117.494 82.0073H116.396ZM127.31 82.0753C126.864 82.0753 126.494 81.9432 126.2 81.679C125.913 81.4072 125.77 81.0336 125.77 80.558V80.0824C125.77 79.6144 125.928 79.2332 126.245 78.9388C126.57 78.6369 127.057 78.4859 127.706 78.4859H129.597V77.8518C129.597 77.6178 129.555 77.4216 129.472 77.263C129.397 77.097 129.253 76.9724 129.042 76.8894C128.831 76.8063 128.517 76.7648 128.102 76.7648H126.245V76.0968C126.517 76.0364 126.834 75.9836 127.196 75.9383C127.566 75.893 127.996 75.8666 128.487 75.859C128.985 75.859 129.401 75.9232 129.733 76.0515C130.072 76.1723 130.325 76.3761 130.491 76.6629C130.657 76.9422 130.74 77.3159 130.74 77.7839V82.0073H129.846L129.653 81.3393C129.608 81.3695 129.514 81.4261 129.37 81.5091C129.227 81.5846 129.042 81.6676 128.815 81.7582C128.597 81.8488 128.355 81.9243 128.091 81.9847C127.834 82.0451 127.574 82.0753 127.31 82.0753ZM127.83 81.2487C127.944 81.2562 128.076 81.2449 128.227 81.2147C128.385 81.1845 128.54 81.1506 128.691 81.1128C128.849 81.0675 128.993 81.0222 129.121 80.9769C129.257 80.9317 129.367 80.8939 129.45 80.8637C129.54 80.826 129.589 80.8033 129.597 80.7958V79.0521L128.012 79.12C127.619 79.1426 127.336 79.2408 127.162 79.4144C126.996 79.588 126.913 79.8145 126.913 80.0938V80.3655C126.913 80.5844 126.959 80.7618 127.049 80.8977C127.14 81.026 127.253 81.1166 127.389 81.1694C127.532 81.2223 127.679 81.2487 127.83 81.2487ZM132.279 82.0073V75.9496H133.185L133.411 76.6063C133.683 76.41 134.004 76.2364 134.374 76.0855C134.751 75.9269 135.14 75.8477 135.54 75.8477C135.993 75.8477 136.355 75.9458 136.627 76.1421C136.906 76.3308 137.106 76.5837 137.227 76.9007C137.348 77.2177 137.408 77.5612 137.408 77.9311V82.0073H136.276V78.067C136.276 77.8254 136.227 77.6178 136.129 77.4442C136.038 77.263 135.91 77.1234 135.744 77.0253C135.578 76.9271 135.374 76.8781 135.133 76.8781C134.906 76.8781 134.695 76.9007 134.498 76.946C134.31 76.9913 134.129 77.0555 133.955 77.1385C133.781 77.214 133.6 77.3083 133.411 77.4216V82.0073H132.279ZM140.169 82.0753C139.724 82.0753 139.354 81.9432 139.06 81.679C138.773 81.4072 138.63 81.0336 138.63 80.558V80.0824C138.63 79.6144 138.788 79.2332 139.105 78.9388C139.43 78.6369 139.917 78.4859 140.566 78.4859H142.457V77.8518C142.457 77.6178 142.415 77.4216 142.332 77.263C142.257 77.097 142.113 76.9724 141.902 76.8894C141.69 76.8063 141.377 76.7648 140.962 76.7648H139.105V76.0968C139.377 76.0364 139.694 75.9836 140.056 75.9383C140.426 75.893 140.856 75.8666 141.347 75.859C141.845 75.859 142.26 75.9232 142.593 76.0515C142.932 76.1723 143.185 76.3761 143.351 76.6629C143.517 76.9422 143.6 77.3159 143.6 77.7839V82.0073H142.706L142.513 81.3393C142.468 81.3695 142.374 81.4261 142.23 81.5091C142.087 81.5846 141.902 81.6676 141.675 81.7582C141.456 81.8488 141.215 81.9243 140.951 81.9847C140.694 82.0451 140.434 82.0753 140.169 82.0753ZM140.69 81.2487C140.803 81.2562 140.936 81.2449 141.087 81.2147C141.245 81.1845 141.4 81.1506 141.551 81.1128C141.709 81.0675 141.853 81.0222 141.981 80.9769C142.117 80.9317 142.226 80.8939 142.309 80.8637C142.4 80.826 142.449 80.8033 142.457 80.7958V79.0521L140.871 79.12C140.479 79.1426 140.196 79.2408 140.022 79.4144C139.856 79.588 139.773 79.8145 139.773 80.0938V80.3655C139.773 80.5844 139.818 80.7618 139.909 80.8977C140 81.026 140.113 81.1166 140.249 81.1694C140.392 81.2223 140.539 81.2487 140.69 81.2487ZM146.645 84.7928C146.26 84.7928 145.917 84.7361 145.615 84.6229C145.32 84.5172 145.086 84.3512 144.913 84.1247C144.739 83.9058 144.652 83.634 144.652 83.3095V83.0604C144.652 82.7207 144.746 82.4338 144.935 82.1998C145.131 81.9734 145.377 81.7997 145.671 81.679C145.966 81.5582 146.271 81.4978 146.588 81.4978L146.894 81.9167C146.69 81.9167 146.498 81.9469 146.317 82.0073C146.143 82.0753 146 82.1772 145.886 82.313C145.781 82.4565 145.728 82.6376 145.728 82.8565V83.0717C145.728 83.3887 145.833 83.6189 146.045 83.7624C146.264 83.9058 146.562 83.9775 146.939 83.9775H148.264C148.664 83.9775 148.981 83.8982 149.215 83.7397C149.449 83.5888 149.566 83.351 149.566 83.0264V82.8112C149.566 82.6301 149.525 82.4716 149.442 82.3357C149.366 82.1998 149.242 82.0941 149.068 82.0186C148.894 81.9507 148.657 81.9167 148.355 81.9167H146.679C146.143 81.9167 145.735 81.8073 145.456 81.5884C145.177 81.3695 145.037 81.0939 145.037 80.7618C145.037 80.4599 145.124 80.2183 145.298 80.0371C145.479 79.8484 145.732 79.7201 146.056 79.6522C145.784 79.5314 145.569 79.3766 145.411 79.1879C145.26 78.9992 145.154 78.7954 145.094 78.5765C145.033 78.35 145.003 78.1236 145.003 77.8971C145.003 77.4367 145.097 77.063 145.286 76.7762C145.475 76.4893 145.747 76.2779 146.101 76.1421C146.464 76.0062 146.894 75.9383 147.392 75.9383H150.653V76.5837L149.419 76.7082C149.51 76.7762 149.608 76.8667 149.713 76.98C149.819 77.0856 149.91 77.2328 149.985 77.4216C150.061 77.6103 150.098 77.8594 150.098 78.1689C150.098 78.4935 150.027 78.7954 149.883 79.0747C149.747 79.354 149.521 79.5805 149.204 79.7541C148.894 79.9277 148.472 80.0145 147.936 80.0145H146.939C146.652 80.0145 146.426 80.056 146.26 80.139C146.094 80.2221 146.011 80.3693 146.011 80.5806C146.011 80.7543 146.075 80.875 146.203 80.943C146.332 81.0109 146.468 81.0449 146.611 81.0449H148.525C148.985 81.0449 149.37 81.1053 149.679 81.226C149.997 81.3468 150.234 81.5318 150.393 81.7809C150.551 82.03 150.631 82.3546 150.631 82.7546V82.9698C150.631 83.5435 150.442 83.9888 150.064 84.3059C149.695 84.6305 149.132 84.7928 148.377 84.7928H146.645ZM147.143 79.1426H147.811C148.151 79.1426 148.408 79.0936 148.581 78.9954C148.762 78.8898 148.887 78.7539 148.955 78.5878C149.023 78.4217 149.057 78.2368 149.057 78.033C149.057 77.7311 149.008 77.4933 148.91 77.3197C148.811 77.1385 148.676 77.0102 148.502 76.9347C148.336 76.8516 148.132 76.8101 147.89 76.8101H147.256C146.871 76.8101 146.569 76.8969 146.351 77.0705C146.139 77.2442 146.034 77.5423 146.034 77.9651C146.034 78.3802 146.132 78.6822 146.328 78.8709C146.524 79.0521 146.796 79.1426 147.143 79.1426ZM154.074 82.0753C153.433 82.0753 152.919 81.9809 152.534 81.7922C152.157 81.6035 151.885 81.2864 151.719 80.8411C151.56 80.3882 151.481 79.7654 151.481 78.9728C151.481 78.1651 151.56 77.5386 151.719 77.0932C151.885 76.6403 152.157 76.3232 152.534 76.1421C152.912 75.9609 153.421 75.8703 154.063 75.8703C154.621 75.8703 155.071 75.9307 155.41 76.0515C155.758 76.1647 156.01 76.3723 156.169 76.6742C156.335 76.9686 156.418 77.38 156.418 77.9084C156.418 78.2783 156.343 78.5727 156.192 78.7916C156.048 79.0105 155.841 79.1691 155.569 79.2672C155.305 79.3653 154.988 79.4144 154.618 79.4144H152.614C152.621 79.8522 152.67 80.2032 152.761 80.4674C152.859 80.7241 153.029 80.9128 153.27 81.0336C153.519 81.1468 153.882 81.2034 154.357 81.2034H156.248V81.8828C155.924 81.9281 155.591 81.9696 155.252 82.0073C154.912 82.0526 154.52 82.0753 154.074 82.0753ZM152.602 78.701H154.516C154.818 78.701 155.04 78.6444 155.184 78.5312C155.327 78.418 155.399 78.2104 155.399 77.9084C155.399 77.6065 155.354 77.3687 155.263 77.1951C155.18 77.0215 155.04 76.8969 154.844 76.8214C154.648 76.746 154.387 76.7082 154.063 76.7082C153.693 76.7082 153.399 76.7648 153.18 76.8781C152.968 76.9913 152.817 77.1913 152.727 77.4782C152.644 77.765 152.602 78.1726 152.602 78.701ZM157.8 82.0073V75.9496H158.706L158.932 76.6063C159.227 76.4025 159.551 76.2251 159.906 76.0741C160.261 75.9232 160.668 75.8477 161.129 75.8477C161.506 75.8477 161.827 75.9307 162.091 76.0968C162.355 76.2629 162.555 76.4742 162.691 76.7309C162.872 76.595 163.091 76.4591 163.348 76.3232C163.605 76.1874 163.88 76.0741 164.175 75.9836C164.469 75.893 164.752 75.8477 165.024 75.8477C165.477 75.8477 165.843 75.942 166.122 76.1308C166.409 76.3119 166.613 76.5648 166.734 76.8894C166.862 77.2064 166.926 77.5688 166.926 77.9764V82.0073H165.794V78.067C165.794 77.8254 165.745 77.6178 165.647 77.4442C165.556 77.263 165.424 77.1234 165.25 77.0253C165.084 76.9271 164.88 76.8781 164.639 76.8781C164.337 76.8781 164.027 76.9384 163.71 77.0592C163.393 77.1725 163.103 77.3121 162.839 77.4782C162.869 77.5763 162.891 77.6782 162.906 77.7839C162.922 77.882 162.929 77.9802 162.929 78.0783V82.0073H161.797V78.067C161.797 77.8254 161.748 77.6178 161.65 77.4442C161.559 77.263 161.431 77.1234 161.265 77.0253C161.099 76.9271 160.895 76.8781 160.653 76.8781C160.427 76.8781 160.215 76.9007 160.019 76.946C159.83 76.9913 159.649 77.0555 159.476 77.1385C159.302 77.214 159.121 77.3083 158.932 77.4216V82.0073H157.8ZM170.871 82.0753C170.229 82.0753 169.716 81.9809 169.331 81.7922C168.953 81.6035 168.681 81.2864 168.515 80.8411C168.357 80.3882 168.278 79.7654 168.278 78.9728C168.278 78.1651 168.357 77.5386 168.515 77.0932C168.681 76.6403 168.953 76.3232 169.331 76.1421C169.708 75.9609 170.218 75.8703 170.859 75.8703C171.418 75.8703 171.867 75.9307 172.207 76.0515C172.554 76.1647 172.807 76.3723 172.965 76.6742C173.131 76.9686 173.214 77.38 173.214 77.9084C173.214 78.2783 173.139 78.5727 172.988 78.7916C172.844 79.0105 172.637 79.1691 172.365 79.2672C172.101 79.3653 171.784 79.4144 171.414 79.4144H169.41C169.417 79.8522 169.466 80.2032 169.557 80.4674C169.655 80.7241 169.825 80.9128 170.067 81.0336C170.316 81.1468 170.678 81.2034 171.154 81.2034H173.045V81.8828C172.72 81.9281 172.388 81.9696 172.048 82.0073C171.708 82.0526 171.316 82.0753 170.871 82.0753ZM169.399 78.701H171.312C171.614 78.701 171.837 78.6444 171.98 78.5312C172.124 78.418 172.195 78.2104 172.195 77.9084C172.195 77.6065 172.15 77.3687 172.059 77.1951C171.976 77.0215 171.837 76.8969 171.64 76.8214C171.444 76.746 171.184 76.7082 170.859 76.7082C170.489 76.7082 170.195 76.7648 169.976 76.8781C169.765 76.9913 169.614 77.1913 169.523 77.4782C169.44 77.765 169.399 78.1726 169.399 78.701ZM174.596 82.0073V75.9496H175.502L175.728 76.6063C176 76.41 176.321 76.2364 176.691 76.0855C177.068 75.9269 177.457 75.8477 177.857 75.8477C178.31 75.8477 178.672 75.9458 178.944 76.1421C179.223 76.3308 179.423 76.5837 179.544 76.9007C179.665 77.2177 179.725 77.5612 179.725 77.9311V82.0073H178.593V78.067C178.593 77.8254 178.544 77.6178 178.446 77.4442C178.355 77.263 178.227 77.1234 178.061 77.0253C177.895 76.9271 177.691 76.8781 177.45 76.8781C177.223 76.8781 177.012 76.9007 176.815 76.946C176.627 76.9913 176.446 77.0555 176.272 77.1385C176.098 77.214 175.917 77.3083 175.728 77.4216V82.0073H174.596ZM183.37 82.0073C182.962 82.0073 182.622 81.9432 182.351 81.8148C182.086 81.679 181.89 81.4638 181.762 81.1694C181.641 80.875 181.584 80.4825 181.592 79.9919L181.637 76.8781H180.675V76.1421L181.66 75.9496L181.83 74.2512H182.724V75.9496H184.366V76.8781H182.724V79.9805C182.724 80.2145 182.747 80.4032 182.792 80.5467C182.837 80.6901 182.902 80.7996 182.985 80.875C183.068 80.9505 183.158 81.0071 183.256 81.0449C183.355 81.0751 183.449 81.0939 183.539 81.1015L184.287 81.1694V82.0073H183.37Z" fill="white"/>
<path d="M152.595 0C153.774 0.17032 154.971 0.272944 156.136 0.521484C169.498 3.38104 178.145 11.3869 182.019 24.4756C182.59 26.4048 182.716 28.4653 183.051 30.4639C183.086 30.6732 183.126 30.8791 183.165 31.0859V34.8115C183.014 35.9509 182.892 37.0955 182.71 38.2285V38.2275C182.151 41.7166 181.029 45.0192 179.406 48.1562C179.284 48.3909 179.247 48.7344 179.314 48.9893C180.534 53.6066 181.773 58.2178 183.011 62.8301C183.02 62.8589 183.026 62.8881 183.034 62.917C183.062 63.0141 183.121 63.1056 183.165 63.2002V64.2275C182.873 64.9644 182.357 65.4755 181.622 65.7695H180.595C180.486 65.7393 180.377 65.707 180.269 65.6768C178.8 65.2654 177.332 64.8466 175.86 64.4453C172.747 63.6011 169.634 62.7583 166.513 61.9482C166.186 61.8626 165.745 61.9096 165.443 62.0635C161.396 64.1355 157.116 65.3615 152.574 65.6631C152.408 65.6732 152.245 65.7329 152.08 65.7695H148.613C147.343 65.6055 146.066 65.4891 144.807 65.2695C136.488 63.8221 129.658 59.8013 124.435 53.1787C119.388 46.7783 117.095 39.4311 117.427 31.2969C118.042 16.3634 129.134 3.48678 143.795 0.643555C145.217 0.368469 146.664 0.211986 148.099 0H152.595Z" fill="#FCBB1B"/>
<path d="M17.3648 52.869C16.4323 52.869 15.4677 52.8368 14.4709 52.7725C13.5063 52.7404 12.5095 52.6761 11.4806 52.5796C10.4838 52.451 9.53526 52.3224 8.63495 52.1937C7.73464 52.033 6.91471 51.8561 6.17517 51.6632V46.0202C7.13979 46.1166 8.23302 46.197 9.45488 46.2613C10.6767 46.3256 11.9468 46.3739 13.2651 46.406C14.5834 46.4382 15.8375 46.4542 17.0271 46.4542C18.249 46.4542 19.294 46.3578 20.1622 46.1649C21.0625 45.9398 21.7538 45.57 22.2361 45.0555C22.7184 44.5089 22.9596 43.7694 22.9596 42.8369V41.5347C22.9596 40.4736 22.638 39.6697 21.9949 39.1231C21.384 38.5444 20.4998 38.255 19.3422 38.255H16.3037C12.8954 38.255 10.2748 37.5154 8.44203 36.0363C6.6414 34.5251 5.74109 31.9689 5.74109 28.3676V26.6313C5.74109 23.1587 6.73786 20.6185 8.73141 19.0108C10.725 17.4031 13.5706 16.5992 17.2683 16.5992C18.5866 16.5992 19.8889 16.6635 21.175 16.7922C22.4933 16.9208 23.7473 17.0816 24.937 17.2745C26.1589 17.4352 27.2039 17.6121 28.0721 17.805V23.448C26.593 23.3516 24.937 23.2551 23.1043 23.1587C21.3036 23.0622 19.6316 23.014 18.0882 23.014C16.995 23.014 16.0143 23.1265 15.1461 23.3516C14.3101 23.5445 13.6671 23.9304 13.2169 24.5091C12.7667 25.0879 12.5417 25.9078 12.5417 26.9689V27.9335C12.5417 29.1875 12.8954 30.0879 13.6027 30.6345C14.3101 31.1811 15.3551 31.4544 16.7378 31.4544H20.2586C22.4129 31.4544 24.1814 31.8563 25.564 32.6602C26.9788 33.4319 28.0238 34.509 28.6991 35.8917C29.4064 37.2743 29.7601 38.8498 29.7601 40.6183V42.644C29.7601 45.4414 29.2296 47.5796 28.1685 49.0587C27.1396 50.5378 25.6927 51.5507 23.8277 52.0973C21.9949 52.6117 19.8406 52.869 17.3648 52.869ZM45.5735 52.8207C42.7118 52.8207 40.4289 52.451 38.7247 51.7114C37.0205 50.9397 35.7826 49.5893 35.0109 47.66C34.2714 45.7308 33.9016 43.062 33.9016 39.6537C33.9016 36.1489 34.2553 33.4319 34.9627 31.5026C35.6701 29.5734 36.8598 28.2229 38.5318 27.4512C40.2038 26.6795 42.4707 26.2937 45.3324 26.2937C47.9047 26.2937 49.9625 26.5509 51.5059 27.0654C53.0493 27.5798 54.1586 28.4802 54.8339 29.7663C55.5413 31.0525 55.895 32.8692 55.895 35.2164C55.895 36.9527 55.5413 38.3354 54.8339 39.3643C54.1586 40.3611 53.194 41.0845 51.94 41.5347C50.686 41.9527 49.2069 42.1617 47.5028 42.1617H40.9916C41.0559 43.48 41.2488 44.5411 41.5703 45.3449C41.924 46.1166 42.551 46.6793 43.4513 47.033C44.3838 47.3546 45.7182 47.5153 47.4545 47.5153H55.0268V51.7114C53.7728 51.9687 52.3902 52.2259 50.8789 52.4831C49.3998 52.7082 47.6314 52.8207 45.5735 52.8207ZM40.8951 37.9174H46.7793C47.7439 37.9174 48.4513 37.7244 48.9015 37.3386C49.3516 36.9527 49.5767 36.2614 49.5767 35.2646C49.5767 34.3322 49.432 33.5926 49.1426 33.046C48.8532 32.4672 48.4031 32.0653 47.7921 31.8402C47.1812 31.583 46.3613 31.4544 45.3324 31.4544C44.2391 31.4544 43.371 31.6473 42.7279 32.0332C42.0848 32.3869 41.6186 33.0299 41.3292 33.9624C41.0398 34.8949 40.8951 36.2132 40.8951 37.9174ZM60.5786 52.5796V26.6795H66.4628L67.7168 29.3322C68.6815 28.5284 69.8872 27.821 71.3342 27.2101C72.8132 26.567 74.3245 26.2454 75.8679 26.2454C77.99 26.2454 79.6299 26.6634 80.7874 27.4995C81.945 28.3355 82.7488 29.4608 83.199 30.8756C83.6813 32.2582 83.9225 33.8016 83.9225 35.5058V52.5796H76.7843V36.4222C76.7843 35.5862 76.6235 34.8949 76.302 34.3483C76.0126 33.8016 75.5946 33.3836 75.0479 33.0943C74.5013 32.8049 73.8422 32.6602 73.0705 32.6602C72.3952 32.6602 71.7361 32.7406 71.093 32.9013C70.4821 33.0621 69.8872 33.2872 69.3085 33.5766C68.7618 33.8659 68.2313 34.2036 67.7168 34.5894V52.5796H60.5786ZM99.102 52.5796C97.1085 52.5796 95.4847 52.2902 94.2307 51.7114C93.0089 51.1327 92.1246 50.168 91.578 48.8176C91.0314 47.4671 90.7902 45.6504 90.8545 43.3675L91.0957 32.419H87.0443V27.8371L91.3369 26.6795L92.3015 19.4449H97.9445V26.6795H104.022V32.419H97.9445V43.3192C97.9445 44.0266 98.0088 44.6054 98.1374 45.0555C98.266 45.5057 98.4429 45.8755 98.668 46.1649C98.9252 46.4221 99.2146 46.615 99.5361 46.7436C99.8577 46.8723 100.179 46.9526 100.501 46.9848L103.78 47.2742V52.5796H99.102ZM108.877 22.8693C108.202 22.8693 107.864 22.5477 107.864 21.9047V17.178C107.864 16.5028 108.202 16.1652 108.877 16.1652H114.375C114.665 16.1652 114.89 16.2616 115.051 16.4545C115.211 16.6475 115.292 16.8886 115.292 17.178V21.9047C115.292 22.5477 114.986 22.8693 114.375 22.8693H108.877ZM108.009 52.5796V26.6795H115.147V52.5796H108.009Z" fill="white"/>
<path d="M129.651 52.8207C128.879 52.8207 127.995 52.7404 126.998 52.5796C126.002 52.451 125.037 52.1294 124.105 51.615C123.204 51.1005 122.449 50.3288 121.838 49.2999C121.259 48.2388 120.97 46.7919 120.97 44.9591V25.0397C120.97 23.4641 121.211 22.1458 121.693 21.0847C122.175 20.0236 122.818 19.1876 123.622 18.5767C124.426 17.9658 125.31 17.5317 126.275 17.2745C127.24 17.0172 128.188 16.8886 129.121 16.8886C131.532 16.8886 133.654 16.9208 135.487 16.9851C137.352 17.0494 139.024 17.1298 140.503 17.2262C141.982 17.2906 143.333 17.387 144.555 17.5156V23.4963H131.243C130.246 23.4963 129.474 23.7374 128.928 24.2197C128.381 24.7021 128.108 25.4416 128.108 26.4384V31.5991L142.239 31.9849V37.628L128.108 38.0138V42.9334C128.108 43.7694 128.236 44.4285 128.494 44.9109C128.783 45.361 129.153 45.6826 129.603 45.8755C130.085 46.0362 130.584 46.1166 131.098 46.1166H144.555V52.0973C143.14 52.258 141.564 52.3867 139.828 52.4831C138.124 52.5796 136.387 52.66 134.619 52.7243C132.883 52.7886 131.227 52.8207 129.651 52.8207ZM169.764 52.5796L147.481 16.8886H155.391L177.674 52.5796H169.764ZM147.626 52.5796L159.587 33.0943L163.253 39.1231L155.536 52.5796H147.626ZM165.664 36.808L162.047 30.7792L169.957 16.8886H177.818L165.664 36.808Z" fill="#003B6D"/>
</svg>
