<svg width="124" height="62" viewBox="0 0 124 62" fill="none" xmlns="http://www.w3.org/2000/svg">
<path d="M2.37407 55.4174C2.24846 55.4174 2.11531 55.4073 1.97463 55.3872C1.83394 55.3621 1.69828 55.3144 1.56765 55.244C1.44204 55.1686 1.33904 55.0556 1.25865 54.9049C1.17826 54.7541 1.13806 54.5506 1.13806 54.2944V50.9934C1.13806 50.7723 1.17072 50.5864 1.23604 50.4357C1.30638 50.2849 1.39682 50.1668 1.50736 50.0814C1.61789 49.991 1.74099 49.9282 1.87665 49.893C2.01733 49.8528 2.15551 49.8327 2.29116 49.8327C2.61775 49.8377 2.9167 49.8453 3.18802 49.8553C3.46436 49.8604 3.72061 49.8679 3.95676 49.8779C4.1929 49.888 4.419 49.898 4.63505 49.9081V50.5336H2.49465C2.30875 50.5336 2.16304 50.5814 2.05753 50.6768C1.95202 50.7723 1.89926 50.923 1.89926 51.129V52.2821L4.2959 52.3273V52.9152L1.89926 52.968V54.106C1.89926 54.2768 1.9269 54.4049 1.98216 54.4904C2.04246 54.5758 2.11782 54.6335 2.20826 54.6637C2.30373 54.6938 2.40421 54.7089 2.50973 54.7089H4.63505V55.3345C4.40393 55.3495 4.16024 55.3646 3.904 55.3797C3.64775 55.3897 3.389 55.3973 3.12773 55.4023C2.87148 55.4123 2.62026 55.4174 2.37407 55.4174ZM5.56088 55.3872V51.3551H6.1638L6.31454 51.7922C6.51049 51.6566 6.72654 51.5385 6.96269 51.438C7.19883 51.3375 7.47015 51.2873 7.77664 51.2873C8.02786 51.2873 8.2414 51.3426 8.41725 51.4531C8.59311 51.5636 8.72625 51.7043 8.81669 51.8751C8.93728 51.7847 9.08299 51.6943 9.25382 51.6038C9.42465 51.5134 9.60804 51.438 9.80399 51.3777C9.99994 51.3174 10.1884 51.2873 10.3692 51.2873C10.6707 51.2873 10.9144 51.3501 11.1003 51.4757C11.2912 51.5963 11.4269 51.7646 11.5073 51.9807C11.5927 52.1917 11.6354 52.4329 11.6354 52.7042V55.3872H10.8817V52.7645C10.8817 52.6037 10.8491 52.4655 10.7837 52.35C10.7235 52.2294 10.6355 52.1364 10.52 52.0711C10.4094 52.0058 10.2738 51.9731 10.113 51.9731C9.91201 51.9731 9.70601 52.0133 9.49499 52.0937C9.28396 52.1691 9.09052 52.262 8.91467 52.3726C8.93477 52.4379 8.94984 52.5057 8.95989 52.5761C8.96994 52.6414 8.97496 52.7067 8.97496 52.772V55.3872H8.2213V52.7645C8.2213 52.6037 8.18864 52.4655 8.12332 52.35C8.06303 52.2294 7.97762 52.1364 7.86708 52.0711C7.75654 52.0058 7.62088 51.9731 7.4601 51.9731C7.30937 51.9731 7.16869 51.9882 7.03805 52.0183C6.91244 52.0485 6.79186 52.0912 6.67629 52.1465C6.56073 52.1967 6.44015 52.2595 6.31454 52.3349V55.3872H5.56088ZM12.6706 57.1734V51.3551H13.2886L13.4243 51.7621C13.5197 51.6918 13.6328 51.6214 13.7634 51.5511C13.8991 51.4807 14.0448 51.4229 14.2005 51.3777C14.3613 51.3275 14.5221 51.3024 14.6829 51.3024C14.9391 51.3024 15.1577 51.3551 15.3386 51.4606C15.5245 51.5661 15.6752 51.7144 15.7908 51.9053C15.9063 52.0912 15.9892 52.3098 16.0395 52.561C16.0947 52.8122 16.1224 53.081 16.1224 53.3674C16.1224 53.8146 16.0721 54.1939 15.9716 54.5054C15.8762 54.8119 15.7229 55.0455 15.5119 55.2063C15.3059 55.3621 15.0296 55.44 14.6829 55.44C14.4719 55.44 14.2558 55.4098 14.0347 55.3495C13.8137 55.2842 13.6102 55.1988 13.4243 55.0933V57.1734H12.6706ZM14.4568 54.8069C14.6276 54.8069 14.7809 54.7642 14.9165 54.6788C15.0522 54.5934 15.1602 54.4476 15.2406 54.2416C15.326 54.0306 15.3687 53.7392 15.3687 53.3674C15.3687 53.0157 15.326 52.7343 15.2406 52.5233C15.1552 52.3072 15.0446 52.154 14.909 52.0636C14.7733 51.9681 14.6251 51.9204 14.4643 51.9204C14.2533 51.9204 14.0599 51.953 13.884 52.0183C13.7132 52.0837 13.5599 52.1515 13.4243 52.2218V54.5205C13.58 54.6059 13.7458 54.6763 13.9217 54.7315C14.1026 54.7818 14.2809 54.8069 14.4568 54.8069ZM18.1654 55.3947C17.9192 55.3947 17.7107 55.352 17.5398 55.2666C17.374 55.1812 17.2484 55.0455 17.163 54.8596C17.0826 54.6687 17.0424 54.4125 17.0424 54.0909V49.6368H17.7961V53.9929C17.7961 54.204 17.8162 54.3673 17.8564 54.4828C17.9016 54.5934 17.9619 54.6712 18.0373 54.7164C18.1177 54.7617 18.2106 54.7918 18.3161 54.8069L18.6929 54.8521V55.3947H18.1654ZM20.9449 55.4324C20.6384 55.4324 20.3721 55.3998 20.146 55.3345C19.925 55.2691 19.7416 55.1611 19.5959 55.0104C19.4502 54.8546 19.3421 54.6436 19.2718 54.3773C19.2015 54.111 19.1663 53.7744 19.1663 53.3674C19.1663 52.9453 19.2015 52.6012 19.2718 52.3349C19.3421 52.0636 19.4502 51.8525 19.5959 51.7018C19.7416 51.5511 19.9275 51.4481 20.1536 51.3928C20.3797 51.3325 20.6435 51.3024 20.9449 51.3024C21.2464 51.3024 21.5102 51.3325 21.7363 51.3928C21.9624 51.4531 22.1483 51.5586 22.294 51.7093C22.4397 51.8601 22.5477 52.0711 22.6181 52.3424C22.6884 52.6087 22.7236 52.9504 22.7236 53.3674C22.7236 53.7794 22.6884 54.1211 22.6181 54.3924C22.5477 54.6587 22.4397 54.8672 22.294 55.0179C22.1533 55.1686 21.9699 55.2767 21.7438 55.342C21.5177 55.4023 21.2514 55.4324 20.9449 55.4324ZM20.9449 54.8144C21.1107 54.8144 21.2564 54.7994 21.382 54.7692C21.5127 54.7391 21.6207 54.6763 21.7061 54.5808C21.7915 54.4803 21.8569 54.3321 21.9021 54.1361C21.9473 53.9402 21.9699 53.6814 21.9699 53.3599C21.9699 53.0383 21.9473 52.7821 21.9021 52.5911C21.8569 52.3952 21.7915 52.2495 21.7061 52.154C21.6207 52.0585 21.5127 51.9957 21.382 51.9656C21.2564 51.9304 21.1107 51.9128 20.9449 51.9128C20.7741 51.9128 20.6234 51.9304 20.4927 51.9656C20.3671 51.9957 20.2616 52.0585 20.1762 52.154C20.0958 52.2495 20.033 52.3952 19.9878 52.5911C19.9476 52.7821 19.9275 53.0383 19.9275 53.3599C19.9275 53.6814 19.9476 53.9402 19.9878 54.1361C20.033 54.3321 20.0958 54.4803 20.1762 54.5808C20.2616 54.6763 20.3671 54.7391 20.4927 54.7692C20.6234 54.7994 20.7741 54.8144 20.9449 54.8144ZM24.6352 57.1734L25.125 55.3872C24.9643 55.3822 24.811 55.3495 24.6653 55.2892C24.5196 55.2239 24.389 55.1209 24.2734 54.9802C24.1629 54.8345 24.0724 54.6411 24.0021 54.3999L23.0977 51.3551H23.889L24.703 54.2416C24.7482 54.3773 24.7984 54.4803 24.8537 54.5506C24.914 54.621 24.9718 54.6712 25.0271 54.7014C25.0874 54.7265 25.1401 54.7416 25.1853 54.7466C25.2305 54.7516 25.2582 54.7541 25.2682 54.7541L26.2103 51.3551H26.9866L25.5998 56.4273L25.2381 57.1734H24.6352ZM29.231 55.4324C28.8039 55.4324 28.4623 55.3696 28.206 55.244C27.9548 55.1184 27.7739 54.9074 27.6634 54.6109C27.5579 54.3095 27.5051 53.895 27.5051 53.3674C27.5051 52.8298 27.5579 52.4128 27.6634 52.1163C27.7739 51.8149 27.9548 51.6038 28.206 51.4832C28.4573 51.3627 28.7964 51.3024 29.2235 51.3024C29.5953 51.3024 29.8942 51.3426 30.1203 51.4229C30.3515 51.4983 30.5198 51.6365 30.6253 51.8375C30.7358 52.0334 30.7911 52.3072 30.7911 52.659C30.7911 52.9051 30.7408 53.1011 30.6404 53.2468C30.5449 53.3925 30.4067 53.498 30.2258 53.5633C30.05 53.6287 29.839 53.6613 29.5928 53.6613H28.2588C28.2638 53.9527 28.2965 54.1864 28.3568 54.3622C28.4221 54.5331 28.5351 54.6587 28.6959 54.7391C28.8617 54.8144 29.1029 54.8521 29.4194 54.8521H30.678V55.3043C30.462 55.3345 30.2409 55.3621 30.0148 55.3872C29.7887 55.4174 29.5275 55.4324 29.231 55.4324ZM28.2513 53.1865H29.5249C29.7259 53.1865 29.8741 53.1488 29.9696 53.0735C30.0651 52.9981 30.1128 52.8599 30.1128 52.659C30.1128 52.458 30.0827 52.2997 30.0224 52.1841C29.9671 52.0686 29.8741 51.9857 29.7435 51.9354C29.6129 51.8852 29.4395 51.8601 29.2235 51.8601C28.9773 51.8601 28.7813 51.8978 28.6356 51.9731C28.4949 52.0485 28.3945 52.1816 28.3342 52.3726C28.2789 52.5635 28.2513 52.8348 28.2513 53.1865ZM33.3011 55.4324C32.874 55.4324 32.5323 55.3696 32.2761 55.244C32.0249 55.1184 31.844 54.9074 31.7335 54.6109C31.628 54.3095 31.5752 53.895 31.5752 53.3674C31.5752 52.8298 31.628 52.4128 31.7335 52.1163C31.844 51.8149 32.0249 51.6038 32.2761 51.4832C32.5273 51.3627 32.8665 51.3024 33.2935 51.3024C33.6653 51.3024 33.9643 51.3426 34.1904 51.4229C34.4215 51.4983 34.5898 51.6365 34.6954 51.8375C34.8059 52.0334 34.8612 52.3072 34.8612 52.659C34.8612 52.9051 34.8109 53.1011 34.7104 53.2468C34.615 53.3925 34.4768 53.498 34.2959 53.5633C34.1201 53.6287 33.909 53.6613 33.6628 53.6613H32.3289C32.3339 53.9527 32.3665 54.1864 32.4268 54.3622C32.4921 54.5331 32.6052 54.6587 32.766 54.7391C32.9318 54.8144 33.173 54.8521 33.4895 54.8521H34.7481V55.3043C34.5321 55.3345 34.311 55.3621 34.0849 55.3872C33.8588 55.4174 33.5975 55.4324 33.3011 55.4324ZM32.3213 53.1865H33.595C33.796 53.1865 33.9442 53.1488 34.0397 53.0735C34.1351 52.9981 34.1829 52.8599 34.1829 52.659C34.1829 52.458 34.1527 52.2997 34.0924 52.1841C34.0372 52.0686 33.9442 51.9857 33.8136 51.9354C33.6829 51.8852 33.5096 51.8601 33.2935 51.8601C33.0473 51.8601 32.8514 51.8978 32.7057 51.9731C32.565 52.0485 32.4645 52.1816 32.4042 52.3726C32.349 52.5635 32.3213 52.8348 32.3213 53.1865ZM39.0414 55.4174C38.9158 55.4174 38.7827 55.4073 38.642 55.3872C38.5013 55.3621 38.3657 55.3144 38.235 55.244C38.1094 55.1686 38.0064 55.0556 37.926 54.9049C37.8456 54.7541 37.8054 54.5506 37.8054 54.2944V50.9934C37.8054 50.7723 37.8381 50.5864 37.9034 50.4357C37.9738 50.2849 38.0642 50.1668 38.1747 50.0814C38.2853 49.991 38.4084 49.9282 38.544 49.893C38.6847 49.8528 38.8229 49.8327 38.9585 49.8327C39.2851 49.8377 39.5841 49.8453 39.8554 49.8553C40.1317 49.8604 40.388 49.8679 40.6241 49.8779C40.8603 49.888 41.0864 49.898 41.3024 49.9081V50.5336H39.162C38.9761 50.5336 38.8304 50.5814 38.7249 50.6768C38.6194 50.7723 38.5666 50.923 38.5666 51.129V52.2821L40.9633 52.3273V52.9152L38.5666 52.968V54.106C38.5666 54.2768 38.5943 54.4049 38.6495 54.4904C38.7098 54.5758 38.7852 54.6335 38.8756 54.6637C38.9711 54.6938 39.0716 54.7089 39.1771 54.7089H41.3024V55.3345C41.0713 55.3495 40.8276 55.3646 40.5714 55.3797C40.3151 55.3897 40.0564 55.3973 39.7951 55.4023C39.5389 55.4123 39.2876 55.4174 39.0414 55.4174ZM44.7003 55.3872L41.8364 51.3551H42.6051L45.469 55.3872H44.7003ZM41.8364 55.3872L43.3663 53.1488L43.6451 53.8422L42.6051 55.3872H41.8364ZM43.9315 53.6086L43.6075 52.9906L44.7003 51.3627L45.469 51.3551L43.9315 53.6086ZM46.129 57.1734V51.3551H46.747L46.8827 51.7621C46.9782 51.6918 47.0912 51.6214 47.2218 51.5511C47.3575 51.4807 47.5032 51.4229 47.659 51.3777C47.8198 51.3275 47.9805 51.3024 48.1413 51.3024C48.3976 51.3024 48.6161 51.3551 48.797 51.4606C48.9829 51.5661 49.1336 51.7144 49.2492 51.9053C49.3648 52.0912 49.4477 52.3098 49.4979 52.561C49.5532 52.8122 49.5808 53.081 49.5808 53.3674C49.5808 53.8146 49.5306 54.1939 49.4301 54.5054C49.3346 54.8119 49.1814 55.0455 48.9703 55.2063C48.7643 55.3621 48.488 55.44 48.1413 55.44C47.9303 55.44 47.7142 55.4098 47.4932 55.3495C47.2721 55.2842 47.0686 55.1988 46.8827 55.0933V57.1734H46.129ZM47.9152 54.8069C48.086 54.8069 48.2393 54.7642 48.3749 54.6788C48.5106 54.5934 48.6186 54.4476 48.699 54.2416C48.7844 54.0306 48.8271 53.7392 48.8271 53.3674C48.8271 53.0157 48.7844 52.7343 48.699 52.5233C48.6136 52.3072 48.5031 52.154 48.3674 52.0636C48.2318 51.9681 48.0835 51.9204 47.9228 51.9204C47.7117 51.9204 47.5183 51.953 47.3424 52.0183C47.1716 52.0837 47.0184 52.1515 46.8827 52.2218V54.5205C47.0385 54.6059 47.2043 54.6763 47.3801 54.7315C47.561 54.7818 47.7394 54.8069 47.9152 54.8069ZM52.0911 55.4324C51.664 55.4324 51.3224 55.3696 51.0661 55.244C50.8149 55.1184 50.634 54.9074 50.5235 54.6109C50.418 54.3095 50.3652 53.895 50.3652 53.3674C50.3652 52.8298 50.418 52.4128 50.5235 52.1163C50.634 51.8149 50.8149 51.6038 51.0661 51.4832C51.3173 51.3627 51.6565 51.3024 52.0835 51.3024C52.4554 51.3024 52.7543 51.3426 52.9804 51.4229C53.2115 51.4983 53.3798 51.6365 53.4854 51.8375C53.5959 52.0334 53.6512 52.3072 53.6512 52.659C53.6512 52.9051 53.6009 53.1011 53.5004 53.2468C53.405 53.3925 53.2668 53.498 53.0859 53.5633C52.9101 53.6287 52.699 53.6613 52.4528 53.6613H51.1189C51.1239 53.9527 51.1565 54.1864 51.2168 54.3622C51.2822 54.5331 51.3952 54.6587 51.556 54.7391C51.7218 54.8144 51.963 54.8521 52.2795 54.8521H53.5381V55.3043C53.3221 55.3345 53.101 55.3621 52.8749 55.3872C52.6488 55.4174 52.3875 55.4324 52.0911 55.4324ZM51.1113 53.1865H52.385C52.586 53.1865 52.7342 53.1488 52.8297 53.0735C52.9251 52.9981 52.9729 52.8599 52.9729 52.659C52.9729 52.458 52.9427 52.2997 52.8824 52.1841C52.8272 52.0686 52.7342 51.9857 52.6036 51.9354C52.4729 51.8852 52.2996 51.8601 52.0835 51.8601C51.8374 51.8601 51.6414 51.8978 51.4957 51.9731C51.355 52.0485 51.2545 52.1816 51.1942 52.3726C51.139 52.5635 51.1113 52.8348 51.1113 53.1865ZM54.5709 55.3872V51.3551H55.1512L55.3246 52.0334C55.4954 51.8274 55.6863 51.6541 55.8974 51.5134C56.1084 51.3727 56.3546 51.3024 56.636 51.3024C56.7013 51.3024 56.7641 51.3074 56.8244 51.3174C56.8847 51.3225 56.9424 51.3325 56.9977 51.3476V52.1239C56.9274 52.1138 56.8545 52.1063 56.7792 52.1012C56.7038 52.0912 56.6259 52.0862 56.5455 52.0862C56.3747 52.0862 56.2214 52.1063 56.0858 52.1465C55.9501 52.1867 55.8195 52.2495 55.6939 52.3349C55.5733 52.4153 55.4502 52.5158 55.3246 52.6363V55.3872H54.5709ZM57.8118 50.6768C57.7213 50.6768 57.6761 50.6341 57.6761 50.5487V49.9156C57.6761 49.8252 57.7213 49.78 57.8118 49.78H58.3695C58.4097 49.78 58.4398 49.7925 58.4599 49.8177C58.48 49.8428 58.4901 49.8754 58.4901 49.9156V50.5487C58.4901 50.6341 58.4499 50.6768 58.3695 50.6768H57.8118ZM57.7063 55.3872V51.3551H58.4599V55.3872H57.7063ZM61.107 55.4324C60.68 55.4324 60.3383 55.3696 60.0821 55.244C59.8308 55.1184 59.65 54.9074 59.5394 54.6109C59.4339 54.3095 59.3812 53.895 59.3812 53.3674C59.3812 52.8298 59.4339 52.4128 59.5394 52.1163C59.65 51.8149 59.8308 51.6038 60.0821 51.4832C60.3333 51.3627 60.6724 51.3024 61.0995 51.3024C61.4713 51.3024 61.7703 51.3426 61.9964 51.4229C62.2275 51.4983 62.3958 51.6365 62.5013 51.8375C62.6119 52.0334 62.6671 52.3072 62.6671 52.659C62.6671 52.9051 62.6169 53.1011 62.5164 53.2468C62.4209 53.3925 62.2828 53.498 62.1019 53.5633C61.926 53.6287 61.715 53.6613 61.4688 53.6613H60.1348C60.1399 53.9527 60.1725 54.1864 60.2328 54.3622C60.2981 54.5331 60.4112 54.6587 60.5719 54.7391C60.7378 54.8144 60.9789 54.8521 61.2955 54.8521H62.5541V55.3043C62.338 55.3345 62.117 55.3621 61.8909 55.3872C61.6648 55.4174 61.4035 55.4324 61.107 55.4324ZM60.1273 53.1865H61.401C61.602 53.1865 61.7502 53.1488 61.8456 53.0735C61.9411 52.9981 61.9888 52.8599 61.9888 52.659C61.9888 52.458 61.9587 52.2997 61.8984 52.1841C61.8431 52.0686 61.7502 51.9857 61.6195 51.9354C61.4889 51.8852 61.3156 51.8601 61.0995 51.8601C60.8533 51.8601 60.6574 51.8978 60.5117 51.9731C60.371 52.0485 60.2705 52.1816 60.2102 52.3726C60.1549 52.5635 60.1273 52.8348 60.1273 53.1865ZM63.5869 55.3872V51.3551H64.1898L64.3405 51.7922C64.5214 51.6616 64.735 51.546 64.9812 51.4456C65.2324 51.34 65.4911 51.2873 65.7574 51.2873C66.0589 51.2873 66.3001 51.3526 66.4809 51.4832C66.6669 51.6089 66.8 51.7772 66.8804 51.9882C66.9608 52.1992 67.001 52.4278 67.001 52.674V55.3872H66.2473V52.7645C66.2473 52.6037 66.2147 52.4655 66.1493 52.35C66.089 52.2294 66.0036 52.1364 65.8931 52.0711C65.7826 52.0058 65.6469 51.9731 65.4861 51.9731C65.3354 51.9731 65.1947 51.9882 65.0641 52.0183C64.9385 52.0485 64.8179 52.0912 64.7023 52.1465C64.5867 52.1967 64.4662 52.2595 64.3405 52.3349V55.3872H63.5869ZM69.5321 55.4324C69.2959 55.4324 69.0774 55.4023 68.8764 55.342C68.6805 55.2767 68.5071 55.1686 68.3564 55.0179C68.2107 54.8672 68.0976 54.6587 68.0172 54.3924C67.9368 54.1261 67.8966 53.7894 67.8966 53.3825C67.8966 52.9654 67.9343 52.6238 68.0097 52.3575C68.0851 52.0862 68.1931 51.8751 68.3338 51.7244C68.4795 51.5687 68.6553 51.4606 68.8613 51.4003C69.0673 51.34 69.2985 51.3099 69.5547 51.3099C69.7657 51.3099 69.9868 51.3199 70.2179 51.34C70.4541 51.3601 70.6827 51.3928 70.9038 51.438V51.8827H69.7657C69.5195 51.8827 69.3135 51.9229 69.1477 52.0033C68.9819 52.0786 68.8588 52.2269 68.7784 52.4479C68.698 52.664 68.6578 52.978 68.6578 53.39C68.6578 53.7869 68.7006 54.0934 68.786 54.3095C68.8714 54.5205 68.9945 54.6637 69.1553 54.7391C69.3211 54.8144 69.5271 54.8521 69.7733 54.8521H70.964V55.2817C70.8485 55.3118 70.7103 55.3395 70.5495 55.3646C70.3938 55.3847 70.228 55.3998 70.0521 55.4098C69.8813 55.4249 69.7079 55.4324 69.5321 55.4324ZM73.3172 55.4324C72.8902 55.4324 72.5485 55.3696 72.2923 55.244C72.041 55.1184 71.8602 54.9074 71.7496 54.6109C71.6441 54.3095 71.5914 53.895 71.5914 53.3674C71.5914 52.8298 71.6441 52.4128 71.7496 52.1163C71.8602 51.8149 72.041 51.6038 72.2923 51.4832C72.5435 51.3627 72.8826 51.3024 73.3097 51.3024C73.6815 51.3024 73.9805 51.3426 74.2066 51.4229C74.4377 51.4983 74.606 51.6365 74.7115 51.8375C74.8221 52.0334 74.8773 52.3072 74.8773 52.659C74.8773 52.9051 74.8271 53.1011 74.7266 53.2468C74.6311 53.3925 74.493 53.498 74.3121 53.5633C74.1362 53.6287 73.9252 53.6613 73.679 53.6613H72.345C72.35 53.9527 72.3827 54.1864 72.443 54.3622C72.5083 54.5331 72.6214 54.6587 72.7821 54.7391C72.9479 54.8144 73.1891 54.8521 73.5057 54.8521H74.7643V55.3043C74.5482 55.3345 74.3271 55.3621 74.1011 55.3872C73.875 55.4174 73.6137 55.4324 73.3172 55.4324ZM72.3375 53.1865H73.6112C73.8121 53.1865 73.9604 53.1488 74.0558 53.0735C74.1513 52.9981 74.199 52.8599 74.199 52.659C74.199 52.458 74.1689 52.2997 74.1086 52.1841C74.0533 52.0686 73.9604 51.9857 73.8297 51.9354C73.6991 51.8852 73.5258 51.8601 73.3097 51.8601C73.0635 51.8601 72.8676 51.8978 72.7219 51.9731C72.5812 52.0485 72.4807 52.1816 72.4204 52.3726C72.3651 52.5635 72.3375 52.8348 72.3375 53.1865ZM77.6709 55.3872L78.3039 49.8327H79.0576L80.4745 54.4677L81.8688 49.8327H82.63L83.2781 55.3872H82.5471L82.0044 50.7597L82.1325 50.7748L80.8212 55.3872H80.1203L78.7863 50.7748L78.9219 50.7673L78.4019 55.3872H77.6709ZM84.935 55.4324C84.6385 55.4324 84.3923 55.3445 84.1964 55.1686C84.0055 54.9878 83.91 54.7391 83.91 54.4225V54.106C83.91 53.7945 84.0155 53.5407 84.2265 53.3448C84.4426 53.1438 84.7667 53.0433 85.1988 53.0433H86.4574V52.6213C86.4574 52.4655 86.4297 52.3349 86.3745 52.2294C86.3242 52.1188 86.2288 52.0359 86.0881 51.9807C85.9474 51.9254 85.7389 51.8978 85.4625 51.8978H84.2265V51.4531C84.4074 51.4129 84.6184 51.3777 84.8596 51.3476C85.1058 51.3174 85.3922 51.2999 85.7188 51.2948C86.0504 51.2948 86.3267 51.3375 86.5478 51.4229C86.7739 51.5033 86.9422 51.639 87.0528 51.8299C87.1633 52.0158 87.2186 52.2645 87.2186 52.5761V55.3872H86.6232L86.4951 54.9425C86.4649 54.9626 86.4021 55.0003 86.3066 55.0556C86.2112 55.1058 86.0881 55.1611 85.9374 55.2214C85.7916 55.2817 85.6309 55.3319 85.455 55.3721C85.2842 55.4123 85.1108 55.4324 84.935 55.4324ZM85.2817 54.8823C85.357 54.8873 85.445 54.8797 85.5455 54.8596C85.651 54.8395 85.754 54.8169 85.8545 54.7918C85.96 54.7617 86.0554 54.7315 86.1408 54.7014C86.2313 54.6712 86.3041 54.6461 86.3594 54.626C86.4197 54.6009 86.4524 54.5858 86.4574 54.5808V53.4202L85.4023 53.4654C85.141 53.4804 84.9526 53.5458 84.837 53.6613C84.7265 53.7769 84.6712 53.9276 84.6712 54.1135V54.2944C84.6712 54.4401 84.7014 54.5582 84.7616 54.6486C84.8219 54.734 84.8973 54.7943 84.9877 54.8295C85.0832 54.8647 85.1812 54.8823 85.2817 54.8823ZM88.2428 55.3872V51.3551H88.8457L88.9965 51.7922C89.1773 51.6616 89.3909 51.546 89.6371 51.4456C89.8883 51.34 90.147 51.2873 90.4133 51.2873C90.7148 51.2873 90.956 51.3526 91.1369 51.4832C91.3228 51.6089 91.4559 51.7772 91.5363 51.9882C91.6167 52.1992 91.6569 52.4278 91.6569 52.674V55.3872H90.9032V52.7645C90.9032 52.6037 90.8706 52.4655 90.8052 52.35C90.745 52.2294 90.6595 52.1364 90.549 52.0711C90.4385 52.0058 90.3028 51.9731 90.142 51.9731C89.9913 51.9731 89.8506 51.9882 89.72 52.0183C89.5944 52.0485 89.4738 52.0912 89.3582 52.1465C89.2427 52.1967 89.1221 52.2595 88.9965 52.3349V55.3872H88.2428ZM93.4946 55.4324C93.1982 55.4324 92.952 55.3445 92.756 55.1686C92.5651 54.9878 92.4697 54.7391 92.4697 54.4225V54.106C92.4697 53.7945 92.5752 53.5407 92.7862 53.3448C93.0022 53.1438 93.3263 53.0433 93.7584 53.0433H95.017V52.6213C95.017 52.4655 94.9894 52.3349 94.9341 52.2294C94.8839 52.1188 94.7884 52.0359 94.6477 51.9807C94.5071 51.9254 94.2985 51.8978 94.0222 51.8978H92.7862V51.4531C92.9671 51.4129 93.1781 51.3777 93.4193 51.3476C93.6655 51.3174 93.9519 51.2999 94.2784 51.2948C94.6101 51.2948 94.8864 51.3375 95.1075 51.4229C95.3336 51.5033 95.5019 51.639 95.6124 51.8299C95.723 52.0158 95.7782 52.2645 95.7782 52.5761V55.3872H95.1828L95.0547 54.9425C95.0246 54.9626 94.9618 55.0003 94.8663 55.0556C94.7708 55.1058 94.6477 55.1611 94.497 55.2214C94.3513 55.2817 94.1905 55.3319 94.0147 55.3721C93.8438 55.4123 93.6705 55.4324 93.4946 55.4324ZM93.8413 54.8823C93.9167 54.8873 94.0046 54.8797 94.1051 54.8596C94.2106 54.8395 94.3136 54.8169 94.4141 54.7918C94.5196 54.7617 94.6151 54.7315 94.7005 54.7014C94.7909 54.6712 94.8638 54.6461 94.9191 54.626C94.9793 54.6009 95.012 54.5858 95.017 54.5808V53.4202L93.9619 53.4654C93.7006 53.4804 93.5122 53.5458 93.3967 53.6613C93.2861 53.7769 93.2309 53.9276 93.2309 54.1135V54.2944C93.2309 54.4401 93.261 54.5582 93.3213 54.6486C93.3816 54.734 93.4569 54.7943 93.5474 54.8295C93.6429 54.8647 93.7408 54.8823 93.8413 54.8823ZM97.8048 57.2412C97.5486 57.2412 97.32 57.2035 97.119 57.1282C96.923 57.0578 96.7673 56.9473 96.6517 56.7966C96.5361 56.6508 96.4784 56.47 96.4784 56.2539V56.0881C96.4784 55.862 96.5412 55.6711 96.6668 55.5153C96.7974 55.3646 96.9607 55.249 97.1567 55.1686C97.3526 55.0883 97.5561 55.0481 97.7671 55.0481L97.9706 55.3269C97.835 55.3269 97.7068 55.347 97.5862 55.3872C97.4707 55.4324 97.3752 55.5003 97.2999 55.5907C97.2295 55.6862 97.1943 55.8067 97.1943 55.9525V56.0956C97.1943 56.3067 97.2647 56.4599 97.4054 56.5554C97.5511 56.6508 97.7495 56.6986 98.0008 56.6986H98.8825C99.1488 56.6986 99.3599 56.6458 99.5156 56.5403C99.6714 56.4398 99.7493 56.2816 99.7493 56.0655V55.9223C99.7493 55.8017 99.7216 55.6962 99.6664 55.6058C99.6161 55.5153 99.5332 55.445 99.4176 55.3947C99.3021 55.3495 99.1438 55.3269 98.9428 55.3269H97.8274C97.4707 55.3269 97.1994 55.2541 97.0135 55.1084C96.8276 54.9626 96.7346 54.7793 96.7346 54.5582C96.7346 54.3572 96.7924 54.1964 96.908 54.0758C97.0285 53.9502 97.1969 53.8648 97.4129 53.8196C97.232 53.7392 97.0888 53.6362 96.9833 53.5106C96.8828 53.385 96.8125 53.2493 96.7723 53.1036C96.7321 52.9529 96.712 52.8021 96.712 52.6514C96.712 52.3449 96.7748 52.0962 96.9004 51.9053C97.026 51.7144 97.2069 51.5737 97.4431 51.4832C97.6842 51.3928 97.9706 51.3476 98.3022 51.3476H100.473V51.7772L99.6513 51.8601C99.7116 51.9053 99.7769 51.9656 99.8472 52.041C99.9176 52.1113 99.9779 52.2093 100.028 52.3349C100.078 52.4605 100.103 52.6263 100.103 52.8323C100.103 53.0483 100.056 53.2493 99.9603 53.4352C99.8698 53.6211 99.7191 53.7719 99.5081 53.8874C99.3021 54.003 99.0207 54.0608 98.664 54.0608H98.0008C97.8098 54.0608 97.6591 54.0884 97.5486 54.1437C97.438 54.1989 97.3828 54.2969 97.3828 54.4376C97.3828 54.5532 97.4255 54.6335 97.5109 54.6788C97.5963 54.724 97.6867 54.7466 97.7822 54.7466H99.0559C99.3624 54.7466 99.6186 54.7868 99.8246 54.8672C100.036 54.9476 100.194 55.0707 100.299 55.2365C100.405 55.4023 100.458 55.6183 100.458 55.8846V56.0278C100.458 56.4097 100.332 56.7061 100.081 56.9171C99.8347 57.1332 99.4604 57.2412 98.9579 57.2412H97.8048ZM98.1364 53.4804H98.5811C98.8072 53.4804 98.978 53.4478 99.0936 53.3825C99.2142 53.3121 99.2971 53.2217 99.3423 53.1112C99.3875 53.0006 99.4101 52.8775 99.4101 52.7419C99.4101 52.5409 99.3775 52.3826 99.3121 52.267C99.2468 52.1465 99.1564 52.061 99.0408 52.0108C98.9303 51.9555 98.7946 51.9279 98.6338 51.9279H98.2118C97.9555 51.9279 97.7546 51.9857 97.6089 52.1012C97.4682 52.2168 97.3978 52.4153 97.3978 52.6966C97.3978 52.973 97.4632 53.174 97.5938 53.2996C97.7244 53.4202 97.9053 53.4804 98.1364 53.4804ZM102.75 55.4324C102.323 55.4324 101.981 55.3696 101.725 55.244C101.474 55.1184 101.293 54.9074 101.182 54.6109C101.077 54.3095 101.024 53.895 101.024 53.3674C101.024 52.8298 101.077 52.4128 101.182 52.1163C101.293 51.8149 101.474 51.6038 101.725 51.4832C101.976 51.3627 102.315 51.3024 102.742 51.3024C103.114 51.3024 103.413 51.3426 103.639 51.4229C103.87 51.4983 104.039 51.6365 104.144 51.8375C104.255 52.0334 104.31 52.3072 104.31 52.659C104.31 52.9051 104.26 53.1011 104.159 53.2468C104.064 53.3925 103.925 53.498 103.745 53.5633C103.569 53.6287 103.358 53.6613 103.112 53.6613H101.778C101.783 53.9527 101.815 54.1864 101.876 54.3622C101.941 54.5331 102.054 54.6587 102.215 54.7391C102.38 54.8144 102.622 54.8521 102.938 54.8521H104.197V55.3043C103.981 55.3345 103.76 55.3621 103.534 55.3872C103.307 55.4174 103.046 55.4324 102.75 55.4324ZM101.77 53.1865H103.044C103.245 53.1865 103.393 53.1488 103.488 53.0735C103.584 52.9981 103.632 52.8599 103.632 52.659C103.632 52.458 103.601 52.2997 103.541 52.1841C103.486 52.0686 103.393 51.9857 103.262 51.9354C103.132 51.8852 102.958 51.8601 102.742 51.8601C102.496 51.8601 102.3 51.8978 102.154 51.9731C102.014 52.0485 101.913 52.1816 101.853 52.3726C101.798 52.5635 101.77 52.8348 101.77 53.1865ZM105.23 55.3872V51.3551H105.833L105.983 51.7922C106.179 51.6566 106.395 51.5385 106.631 51.438C106.868 51.3375 107.139 51.2873 107.445 51.2873C107.697 51.2873 107.91 51.3426 108.086 51.4531C108.262 51.5636 108.395 51.7043 108.485 51.8751C108.606 51.7847 108.752 51.6943 108.923 51.6038C109.093 51.5134 109.277 51.438 109.473 51.3777C109.669 51.3174 109.857 51.2873 110.038 51.2873C110.339 51.2873 110.583 51.3501 110.769 51.4757C110.96 51.5963 111.096 51.7646 111.176 51.9807C111.261 52.1917 111.304 52.4329 111.304 52.7042V55.3872H110.55V52.7645C110.55 52.6037 110.518 52.4655 110.452 52.35C110.392 52.2294 110.304 52.1364 110.189 52.0711C110.078 52.0058 109.942 51.9731 109.782 51.9731C109.581 51.9731 109.375 52.0133 109.164 52.0937C108.953 52.1691 108.759 52.262 108.583 52.3726C108.603 52.4379 108.619 52.5057 108.629 52.5761C108.639 52.6414 108.644 52.7067 108.644 52.772V55.3872H107.89V52.7645C107.89 52.6037 107.857 52.4655 107.792 52.35C107.732 52.2294 107.646 52.1364 107.536 52.0711C107.425 52.0058 107.29 51.9731 107.129 51.9731C106.978 51.9731 106.837 51.9882 106.707 52.0183C106.581 52.0485 106.461 52.0912 106.345 52.1465C106.229 52.1967 106.109 52.2595 105.983 52.3349V55.3872H105.23ZM113.93 55.4324C113.502 55.4324 113.161 55.3696 112.905 55.244C112.653 55.1184 112.472 54.9074 112.362 54.6109C112.256 54.3095 112.204 53.895 112.204 53.3674C112.204 52.8298 112.256 52.4128 112.362 52.1163C112.472 51.8149 112.653 51.6038 112.905 51.4832C113.156 51.3627 113.495 51.3024 113.922 51.3024C114.294 51.3024 114.593 51.3426 114.819 51.4229C115.05 51.4983 115.218 51.6365 115.324 51.8375C115.434 52.0334 115.49 52.3072 115.49 52.659C115.49 52.9051 115.439 53.1011 115.339 53.2468C115.243 53.3925 115.105 53.498 114.924 53.5633C114.749 53.6287 114.538 53.6613 114.291 53.6613H112.957C112.962 53.9527 112.995 54.1864 113.055 54.3622C113.121 54.5331 113.234 54.6587 113.394 54.7391C113.56 54.8144 113.801 54.8521 114.118 54.8521H115.377V55.3043C115.161 55.3345 114.939 55.3621 114.713 55.3872C114.487 55.4174 114.226 55.4324 113.93 55.4324ZM112.95 53.1865H114.223C114.424 53.1865 114.573 53.1488 114.668 53.0735C114.764 52.9981 114.811 52.8599 114.811 52.659C114.811 52.458 114.781 52.2997 114.721 52.1841C114.666 52.0686 114.573 51.9857 114.442 51.9354C114.311 51.8852 114.138 51.8601 113.922 51.8601C113.676 51.8601 113.48 51.8978 113.334 51.9731C113.193 52.0485 113.093 52.1816 113.033 52.3726C112.977 52.5635 112.95 52.8348 112.95 53.1865ZM116.409 55.3872V51.3551H117.012L117.163 51.7922C117.344 51.6616 117.557 51.546 117.804 51.4456C118.055 51.34 118.314 51.2873 118.58 51.2873C118.881 51.2873 119.123 51.3526 119.303 51.4832C119.489 51.6089 119.623 51.7772 119.703 51.9882C119.783 52.1992 119.823 52.4278 119.823 52.674V55.3872H119.07V52.7645C119.07 52.6037 119.037 52.4655 118.972 52.35C118.912 52.2294 118.826 52.1364 118.716 52.0711C118.605 52.0058 118.469 51.9731 118.309 51.9731C118.158 51.9731 118.017 51.9882 117.887 52.0183C117.761 52.0485 117.64 52.0912 117.525 52.1465C117.409 52.1967 117.289 52.2595 117.163 52.3349V55.3872H116.409ZM122.249 55.3872C121.978 55.3872 121.752 55.3445 121.571 55.2591C121.395 55.1686 121.264 55.0254 121.179 54.8295C121.099 54.6335 121.061 54.3723 121.066 54.0457L121.096 51.9731H120.455V51.4832L121.111 51.3551L121.224 50.2246H121.82V51.3551H122.912V51.9731H121.82V54.0382C121.82 54.1939 121.835 54.3195 121.865 54.415C121.895 54.5104 121.938 54.5833 121.993 54.6335C122.048 54.6838 122.108 54.7215 122.174 54.7466C122.239 54.7667 122.302 54.7793 122.362 54.7843L122.86 54.8295V55.3872H122.249Z" fill="white"/>
<path d="M101.765 0.78125C102.55 0.894589 103.346 0.962566 104.122 1.12793C113.016 3.03126 118.771 8.3603 121.349 17.0723C121.729 18.3565 121.814 19.7281 122.037 21.0586C122.06 21.198 122.087 21.3349 122.113 21.4727V23.9521C122.012 24.7105 121.931 25.4724 121.81 26.2266V26.2256C121.438 28.548 120.69 30.7469 119.61 32.835C119.529 32.9911 119.505 33.2192 119.549 33.3887C120.361 36.462 121.186 39.5316 122.01 42.6016C122.016 42.6207 122.02 42.64 122.026 42.6592C122.044 42.7238 122.083 42.7847 122.113 42.8477V43.5312C121.918 44.0216 121.575 44.3619 121.086 44.5576H120.402C120.33 44.5375 120.257 44.5162 120.185 44.4961C119.207 44.2223 118.231 43.9438 117.25 43.6768C115.179 43.1148 113.106 42.5539 111.029 42.0146C110.811 41.9577 110.517 41.9884 110.316 42.0908C107.622 43.4699 104.774 44.2866 101.75 44.4873C101.64 44.4941 101.532 44.5333 101.422 44.5576H99.1137C98.269 44.4485 97.4185 44.3717 96.5805 44.2256C91.0437 43.2621 86.4981 40.5855 83.022 36.1777C79.6627 31.9176 78.1357 27.0274 78.3569 21.6133C78.7659 11.6734 86.1488 3.10252 95.9077 1.20996C96.8542 1.02689 97.817 0.922318 98.772 0.78125H101.765Z" fill="#FCBB1B"/>
<path d="M11.7553 36.3621C11.1347 36.3621 10.4926 36.3406 9.82913 36.2978C9.18707 36.2764 8.52361 36.2336 7.83875 36.1694C7.17528 36.0838 6.54392 35.9982 5.94467 35.9126C5.34541 35.8056 4.79966 35.6879 4.30741 35.5595V31.8034C4.94947 31.8676 5.67714 31.9211 6.49042 31.9639C7.3037 32.0067 8.14908 32.0388 9.02656 32.0602C9.90404 32.0816 10.7387 32.0924 11.5306 32.0924C12.3439 32.0924 13.0394 32.0281 13.6173 31.8997C14.2165 31.7499 14.6767 31.5038 14.9977 31.1614C15.3187 30.7975 15.4793 30.3053 15.4793 29.6846V28.8178C15.4793 28.1116 15.2652 27.5765 14.8372 27.2127C14.4306 26.8275 13.842 26.6348 13.0715 26.6348H11.049C8.78043 26.6348 7.03617 26.1426 5.81626 25.1581C4.61774 24.1522 4.01849 22.4507 4.01849 20.0537V18.898C4.01849 16.5866 4.68195 14.8958 6.00887 13.8257C7.3358 12.7556 9.22988 12.2206 11.6911 12.2206C12.5686 12.2206 13.4354 12.2634 14.2915 12.349C15.1689 12.4346 16.0036 12.5416 16.7955 12.67C17.6088 12.777 18.3043 12.8947 18.8822 13.0232V16.7792C17.8977 16.715 16.7955 16.6508 15.5756 16.5866C14.3771 16.5224 13.2642 16.4903 12.2369 16.4903C11.5092 16.4903 10.8564 16.5652 10.2786 16.715C9.72212 16.8434 9.29408 17.1002 8.99445 17.4855C8.69483 17.8707 8.54501 18.4165 8.54501 19.1227V19.7648C8.54501 20.5995 8.78043 21.1987 9.25128 21.5626C9.72212 21.9264 10.4177 22.1083 11.338 22.1083H13.6815C15.1154 22.1083 16.2925 22.3758 17.2128 22.9109C18.1545 23.4245 18.8501 24.1415 19.2995 25.0618C19.7704 25.9821 20.0058 27.0308 20.0058 28.2079V29.5562C20.0058 31.4182 19.6527 32.8414 18.9464 33.8259C18.2615 34.8104 17.2984 35.4846 16.0571 35.8484C14.8372 36.1908 13.4033 36.3621 11.7553 36.3621ZM30.5313 36.3299C28.6265 36.3299 27.107 36.0838 25.9727 35.5916C24.8384 35.0779 24.0144 34.179 23.5008 32.8949C23.0085 31.6108 22.7624 29.8344 22.7624 27.5658C22.7624 25.233 22.9978 23.4245 23.4687 22.1404C23.9395 20.8563 24.7314 19.9574 25.8443 19.4438C26.9572 18.9301 28.466 18.6733 30.3708 18.6733C32.083 18.6733 33.4527 18.8445 34.48 19.1869C35.5073 19.5294 36.2457 20.1286 36.6951 20.9847C37.1659 21.8408 37.4014 23.05 37.4014 24.6123C37.4014 25.7681 37.1659 26.6883 36.6951 27.3732C36.2457 28.0367 35.6036 28.5182 34.7689 28.8178C33.9342 29.0961 32.9497 29.2352 31.8154 29.2352H27.4815C27.5243 30.1127 27.6527 30.8189 27.8668 31.354C28.1022 31.8676 28.5195 32.2422 29.1188 32.4776C29.7394 32.6916 30.6276 32.7986 31.7833 32.7986H36.8235V35.5916C35.9888 35.7628 35.0685 35.934 34.0626 36.1052C33.0782 36.255 31.901 36.3299 30.5313 36.3299ZM27.4173 26.4101H31.3339C31.976 26.4101 32.4468 26.2817 32.7464 26.0249C33.0461 25.7681 33.1959 25.3079 33.1959 24.6445C33.1959 24.0238 33.0996 23.5315 32.9069 23.1677C32.7143 22.7825 32.4147 22.515 32.0081 22.3651C31.6014 22.1939 31.0557 22.1083 30.3708 22.1083C29.6431 22.1083 29.0653 22.2367 28.6372 22.4935C28.2092 22.729 27.8989 23.157 27.7062 23.7777C27.5136 24.3983 27.4173 25.2758 27.4173 26.4101ZM40.5189 36.1694V18.9301H44.4354L45.2701 20.6958C45.9122 20.1607 46.7147 19.6899 47.6778 19.2832C48.6623 18.8552 49.6682 18.6412 50.6955 18.6412C52.1081 18.6412 53.1996 18.9194 53.97 19.4759C54.7405 20.0323 55.2756 20.7814 55.5752 21.7231C55.8962 22.6434 56.0567 23.6707 56.0567 24.805V36.1694H51.3055V25.4149C51.3055 24.8585 51.1985 24.3983 50.9844 24.0345C50.7918 23.6707 50.5136 23.3924 50.1498 23.1998C49.7859 23.0072 49.3472 22.9109 48.8335 22.9109C48.3841 22.9109 47.9454 22.9644 47.5173 23.0714C47.1107 23.1784 46.7147 23.3282 46.3295 23.5208C45.9657 23.7135 45.6125 23.9382 45.2701 24.195V36.1694H40.5189ZM66.1604 36.1694C64.8335 36.1694 63.7527 35.9768 62.918 35.5916C62.1047 35.2063 61.5162 34.5643 61.1523 33.6654C60.7885 32.7665 60.628 31.5573 60.6708 30.0378L60.8313 22.7504H58.1346V19.7006L60.9918 18.9301L61.6339 14.1147H65.3899V18.9301H69.4349V22.7504H65.3899V30.0057C65.3899 30.4765 65.4327 30.8617 65.5183 31.1614C65.6039 31.461 65.7217 31.7071 65.8715 31.8997C66.0427 32.0709 66.2353 32.1994 66.4493 32.285C66.6633 32.3706 66.8774 32.4241 67.0914 32.4455L69.2744 32.6381V36.1694H66.1604ZM72.6668 16.394C72.2173 16.394 71.9926 16.18 71.9926 15.7519V12.6058C71.9926 12.1564 72.2173 11.9317 72.6668 11.9317H76.3265C76.5191 11.9317 76.669 11.9959 76.776 12.1243C76.883 12.2527 76.9365 12.4132 76.9365 12.6058V15.7519C76.9365 16.18 76.7332 16.394 76.3265 16.394H72.6668ZM72.0889 36.1694V18.9301H76.8402V36.1694H72.0889Z" fill="white"/>
<path d="M86.4941 36.3299C85.9805 36.3299 85.3919 36.2764 84.7285 36.1694C84.065 36.0838 83.423 35.8698 82.8023 35.5274C82.203 35.1849 81.7001 34.6713 81.2935 33.9864C80.9082 33.2802 80.7156 32.3171 80.7156 31.0972V17.8386C80.7156 16.7899 80.8761 15.9124 81.1971 15.2062C81.5182 14.4999 81.9462 13.9434 82.4813 13.5368C83.0163 13.1302 83.6049 12.8412 84.2469 12.67C84.889 12.4988 85.5204 12.4132 86.141 12.4132C87.7462 12.4132 89.1587 12.4346 90.3786 12.4774C91.6199 12.5202 92.7328 12.5737 93.7173 12.6379C94.7018 12.6807 95.6007 12.7449 96.414 12.8305V16.8113H87.5535C86.8901 16.8113 86.3764 16.9718 86.0126 17.2929C85.6488 17.6139 85.4669 18.1061 85.4669 18.7696V22.2046L94.873 22.4614V26.2175L85.4669 26.4743V29.7488C85.4669 30.3053 85.5525 30.744 85.7237 31.0651C85.9163 31.3647 86.1624 31.5787 86.462 31.7071C86.7831 31.8141 87.1148 31.8676 87.4572 31.8676H96.414V35.8484C95.4723 35.9554 94.4236 36.041 93.2679 36.1052C92.1336 36.1694 90.9779 36.2229 89.8008 36.2657C88.645 36.3085 87.5428 36.3299 86.4941 36.3299ZM113.194 36.1694L98.362 12.4132H103.627L118.458 36.1694H113.194ZM98.4583 36.1694L106.42 23.1998L108.86 27.2127L103.723 36.1694H98.4583ZM110.465 25.6717L108.057 21.6589L113.322 12.4132H118.555L110.465 25.6717Z" fill="#003B6D"/>
</svg>
