<svg width="388" height="98" viewBox="0 0 388 98" fill="none" xmlns="http://www.w3.org/2000/svg">
<g filter="url(#filter0_i_5640_10636)">
<path d="M88.375 56.1758C88.6213 54.6425 88.7856 53.0938 88.9908 51.552V46.5115C88.9378 46.2314 88.8848 45.9531 88.8369 45.6697C88.3835 42.965 88.2125 40.1767 87.4392 37.5659C82.1977 19.8559 70.4985 9.02358 52.4184 5.15441C50.8411 4.81804 49.2228 4.67973 47.6268 4.44922H41.5436C39.602 4.73608 37.645 4.94781 35.7205 5.32004C15.8818 9.16701 0.87407 26.5902 0.0426833 46.7966C-0.407224 57.8031 2.69594 67.7441 9.52494 76.4044C16.5917 85.3653 25.8328 90.8054 37.089 92.7639C38.7928 93.061 40.5206 93.2181 42.2381 93.44H46.9305C47.1529 93.3905 47.3736 93.3103 47.5977 93.2966C53.7441 92.8885 59.5348 91.2289 65.0106 88.4252C65.4195 88.2168 66.0165 88.1537 66.4596 88.2698C70.6832 89.366 74.8949 90.5066 79.1066 91.6489C81.0995 92.1919 83.0839 92.7588 85.0717 93.3154C85.2188 93.3564 85.3659 93.3991 85.513 93.44H86.9038C87.8977 93.0422 88.5957 92.3507 88.9908 91.3535V89.9636C88.931 89.8355 88.8523 89.7126 88.8146 89.5811C88.8027 89.5419 88.7941 89.5026 88.7821 89.4633C87.1074 83.2224 85.4309 76.9833 83.7801 70.7356C83.6895 70.3907 83.7391 69.9262 83.9033 69.6086C86.0998 65.3638 87.6189 60.8953 88.375 56.1741V56.1758ZM61.7244 69.1084C60.1985 71.6218 57.9763 73.6383 55.0579 75.1614C52.1395 76.6845 48.6993 77.446 44.7374 77.446C40.9893 77.446 37.6159 76.792 34.6171 75.4824C31.6183 74.1728 29.2627 72.315 27.5486 69.9109C25.8345 67.5067 24.9774 64.6996 24.9774 61.493H34.7762C34.99 63.8988 35.9412 65.8761 37.6279 67.4248C39.3146 68.9752 41.6839 69.7504 44.7357 69.7504C47.7876 69.7504 50.3587 68.9888 52.1258 67.4657C53.893 65.9427 54.7757 63.9791 54.7757 61.5732C54.7757 59.7035 54.2265 58.1804 53.13 57.004C52.0317 55.8292 50.6666 54.9191 49.0329 54.2788C47.3992 53.6368 45.1377 52.9436 42.245 52.194C38.603 51.2327 35.6452 50.2577 33.37 49.2673C31.0931 48.2787 29.1532 46.742 27.5469 44.6571C25.9406 42.5723 25.1365 39.7942 25.1365 36.3195C25.1365 33.1128 25.9406 30.3074 27.5469 27.9016C29.1532 25.4957 31.4027 23.6533 34.2938 22.3693C37.1848 21.087 40.5309 20.445 44.3337 20.445C49.7411 20.445 54.1735 21.7956 57.6273 24.4934C61.0812 27.193 62.9954 30.8948 63.3701 35.5972H53.2497C53.0889 33.567 52.1258 31.8288 50.3587 30.386C48.5916 28.9431 46.2616 28.2209 43.3706 28.2209C40.7464 28.2209 38.6047 28.8902 36.9453 30.2255C35.2843 31.5624 34.4563 33.4867 34.4563 35.9985C34.4563 37.7094 34.978 39.1129 36.0216 40.2074C37.0668 41.3036 38.3908 42.171 39.9972 42.813C41.6035 43.4551 43.7983 44.15 46.5832 44.8979C50.2783 45.9138 53.2908 46.9298 55.619 47.944C57.949 48.96 59.9282 50.5241 61.5636 52.6345C63.1956 54.7467 64.0133 57.5657 64.0133 61.0917C64.0133 63.9244 63.2503 66.5966 61.7244 69.1084Z" fill="#FCBB1B"/>
</g>
<path d="M117.569 54.6573C116.614 54.6573 115.588 54.6219 114.492 54.5511C113.43 54.5158 112.334 54.445 111.201 54.3389C110.105 54.1974 109.061 54.0735 108.071 53.9674C107.08 53.8259 106.196 53.6667 105.417 53.4898V48.3425C106.408 48.4133 107.558 48.484 108.867 48.5548C110.211 48.6255 111.608 48.6786 113.059 48.714C114.509 48.7493 115.907 48.767 117.251 48.767C118.666 48.767 119.922 48.6432 121.019 48.3956C122.115 48.1125 122.964 47.635 123.566 46.9628C124.167 46.2906 124.468 45.3355 124.468 44.0973V42.24C124.468 40.8603 124.079 39.799 123.3 39.0561C122.522 38.3132 121.372 37.9417 119.851 37.9417H116.19C112.617 37.9417 109.857 37.1634 107.911 35.6068C106.001 34.0503 105.046 31.3793 105.046 27.594V25.5775C105.046 21.7922 106.09 19.0682 108.177 17.4055C110.299 15.7074 113.324 14.8583 117.251 14.8583C118.595 14.8583 119.975 14.9291 121.39 15.0706C122.84 15.1767 124.22 15.3182 125.529 15.4951C126.838 15.672 127.952 15.8666 128.872 16.0788V21.2262C127.316 21.12 125.529 21.0139 123.513 20.9078C121.532 20.8016 119.692 20.7486 117.994 20.7486C116.65 20.7486 115.464 20.8901 114.438 21.1731C113.413 21.4561 112.634 21.9691 112.104 22.712C111.573 23.4195 111.308 24.4808 111.308 25.8959V27.1695C111.308 28.8322 111.75 29.9996 112.634 30.6718C113.554 31.3439 114.863 31.68 116.561 31.68H120.647C122.947 31.68 124.839 32.1045 126.325 32.9536C127.811 33.8026 128.908 34.9701 129.615 36.4559C130.358 37.9063 130.729 39.569 130.729 41.444V43.9381C130.729 46.839 130.163 49.0677 129.031 50.6243C127.899 52.1809 126.343 53.2422 124.362 53.8082C122.381 54.3742 120.116 54.6573 117.569 54.6573ZM148.345 54.6042C145.267 54.6042 142.809 54.1797 140.969 53.3306C139.165 52.4816 137.856 51.0134 137.042 48.9262C136.229 46.8036 135.822 43.8673 135.822 40.1174C135.822 36.2967 136.211 33.3427 136.989 31.2555C137.767 29.1329 139.059 27.6471 140.863 26.798C142.667 25.949 145.108 25.5244 148.186 25.5244C150.91 25.5244 153.086 25.8075 154.713 26.3735C156.376 26.9041 157.578 27.877 158.321 29.2921C159.1 30.6718 159.489 32.6352 159.489 35.1823C159.489 36.9865 159.135 38.437 158.427 39.5337C157.72 40.595 156.694 41.3556 155.35 41.8155C154.041 42.2754 152.484 42.5053 150.68 42.5053H142.349C142.419 44.2742 142.649 45.6892 143.039 46.7505C143.463 47.7765 144.206 48.5194 145.267 48.9793C146.364 49.4392 147.956 49.6691 150.043 49.6691H158.64V53.5429C157.189 53.8259 155.65 54.0735 154.023 54.2858C152.431 54.4981 150.538 54.6042 148.345 54.6042ZM142.296 38.5254H150.043C151.281 38.5254 152.183 38.2955 152.749 37.8356C153.351 37.3403 153.652 36.4559 153.652 35.1823C153.652 33.9441 153.475 32.9713 153.121 32.2637C152.767 31.5562 152.183 31.0609 151.37 30.7779C150.556 30.4595 149.495 30.3003 148.186 30.3003C146.7 30.3003 145.533 30.5303 144.684 30.9902C143.835 31.4501 143.215 32.2814 142.826 33.4842C142.473 34.6517 142.296 36.3321 142.296 38.5254ZM165.329 54.3389V25.8959H170.689L171.909 28.8676C173.077 27.9831 174.492 27.1872 176.155 26.4796C177.853 25.7721 179.604 25.4183 181.408 25.4183C183.637 25.4183 185.388 25.8782 186.661 26.798C187.935 27.6824 188.837 28.8852 189.368 30.4064C189.934 31.9277 190.217 33.5904 190.217 35.3946V54.3389H183.637V36.1906C183.637 35.1646 183.442 34.2979 183.053 33.5904C182.664 32.8828 182.116 32.3345 181.408 31.9453C180.736 31.5562 179.905 31.3616 178.914 31.3616C177.994 31.3616 177.127 31.4501 176.314 31.6269C175.535 31.8038 174.793 32.0692 174.085 32.4229C173.377 32.7767 172.652 33.2012 171.909 33.6965V54.3389H165.329ZM207.133 54.3389C205.081 54.3389 203.4 54.0382 202.091 53.4368C200.783 52.8 199.827 51.7564 199.226 50.3059C198.66 48.8555 198.395 46.9451 198.43 44.5749L198.642 31.2024H194.185V26.9572L198.854 25.8959L199.81 17.9361H204.957V25.8959H212.174V31.2024H204.957V44.5218C204.957 45.4416 205.045 46.2022 205.222 46.8036C205.399 47.3696 205.647 47.8295 205.965 48.1833C206.319 48.5017 206.69 48.7316 207.08 48.8731C207.469 49.0147 207.876 49.1031 208.3 49.1385L211.855 49.5099V54.3389H207.133ZM217.844 21.3854C217.172 21.3854 216.836 21.067 216.836 20.4302V15.6013C216.836 14.8937 217.172 14.5399 217.844 14.5399H222.832C223.151 14.5399 223.381 14.6461 223.522 14.8583C223.699 15.0706 223.788 15.3182 223.788 15.6013V20.4302C223.788 21.067 223.469 21.3854 222.832 21.3854H217.844ZM216.995 54.3389V25.8959H223.575V54.3389H216.995ZM231.003 54.3389V26.002H234.293L235.195 29.1329C236.611 28.1423 238.185 27.2933 239.918 26.5858C241.687 25.8782 243.65 25.5244 245.808 25.5244C247.577 25.5244 249.081 25.9313 250.319 26.7449C251.593 27.5232 252.548 28.5138 253.185 29.7166C254.069 29.0798 255.13 28.443 256.368 27.8063C257.642 27.1695 258.986 26.6388 260.401 26.2143C261.852 25.7544 263.249 25.5244 264.594 25.5244C266.645 25.5244 268.326 25.9667 269.635 26.8511C270.944 27.7001 271.899 28.8676 272.5 30.3534C273.137 31.8038 273.455 33.4312 273.455 35.2354V54.3389H269.263V35.5538C269.263 34.351 269.016 33.2897 268.52 32.3699C268.06 31.4147 267.388 30.6718 266.504 30.1411C265.619 29.6105 264.541 29.3451 263.267 29.3451C261.675 29.3451 260.048 29.6458 258.385 30.2473C256.722 30.8487 255.183 31.5739 253.768 32.4229C253.945 32.9536 254.069 33.4842 254.14 34.0149C254.246 34.5102 254.299 35.0408 254.299 35.6068V54.3389H250.107V35.5538C250.107 34.351 249.859 33.2897 249.364 32.3699C248.904 31.4147 248.232 30.6718 247.347 30.1411C246.498 29.6105 245.437 29.3451 244.163 29.3451C242.996 29.3451 241.899 29.469 240.873 29.7166C239.883 29.9289 238.928 30.2473 238.008 30.6718C237.123 31.0609 236.186 31.5385 235.195 32.1045V54.3389H231.003ZM292.147 54.6573C289.176 54.6573 286.823 54.215 285.09 53.3306C283.392 52.4462 282.171 50.9427 281.428 48.8201C280.685 46.6975 280.314 43.7966 280.314 40.1174C280.314 36.3674 280.685 33.4489 281.428 31.3616C282.206 29.239 283.462 27.7532 285.196 26.9041C286.929 26.0551 289.264 25.6306 292.2 25.6306C294.712 25.6306 296.746 25.9136 298.303 26.4796C299.895 27.0457 301.062 28.0185 301.805 29.3982C302.583 30.7425 302.973 32.6175 302.973 35.0231C302.973 36.6858 302.636 38.0302 301.964 39.0561C301.328 40.0466 300.39 40.7719 299.152 41.2318C297.949 41.6563 296.516 41.8685 294.854 41.8685H284.506C284.541 44.168 284.789 46.0253 285.249 47.4404C285.709 48.8201 286.54 49.8283 287.743 50.4651C288.981 51.0665 290.785 51.3672 293.156 51.3672H302.283V53.9143C300.655 54.1266 299.063 54.3035 297.507 54.445C295.95 54.5865 294.164 54.6573 292.147 54.6573ZM284.453 39.1091H294.535C296.127 39.1091 297.295 38.8261 298.038 38.2601C298.816 37.6587 299.205 36.5974 299.205 35.0762C299.205 33.4489 298.957 32.193 298.462 31.3086C298.002 30.3888 297.259 29.752 296.233 29.3982C295.243 29.0091 293.898 28.8145 292.2 28.8145C290.219 28.8145 288.663 29.1152 287.531 29.7166C286.399 30.2826 285.603 31.3086 285.143 32.7944C284.683 34.2802 284.453 36.3851 284.453 39.1091ZM319.424 54.3389C317.584 54.3389 316.063 54.0382 314.86 53.4368C313.657 52.8354 312.773 51.8625 312.207 50.5182C311.641 49.1739 311.375 47.3873 311.411 45.1586L311.57 29.4513H307.059V26.7449L311.623 26.002L312.313 18.0953H315.55V26.002H323.722V29.4513H315.55V45.1586C315.55 46.3968 315.674 47.3873 315.921 48.1302C316.204 48.8731 316.558 49.4392 316.983 49.8283C317.443 50.2175 317.92 50.5005 318.415 50.6774C318.911 50.8189 319.388 50.9073 319.848 50.9427L323.297 51.2611V54.3389H319.424ZM340.341 54.6573C337.37 54.6573 335.017 54.215 333.284 53.3306C331.586 52.4462 330.365 50.9427 329.622 48.8201C328.879 46.6975 328.508 43.7966 328.508 40.1174C328.508 36.3674 328.879 33.4489 329.622 31.3616C330.4 29.239 331.656 27.7532 333.39 26.9041C335.123 26.0551 337.458 25.6306 340.394 25.6306C342.906 25.6306 344.94 25.9136 346.497 26.4796C348.089 27.0457 349.256 28.0185 349.999 29.3982C350.777 30.7425 351.167 32.6175 351.167 35.0231C351.167 36.6858 350.831 38.0302 350.158 39.0561C349.522 40.0466 348.584 40.7719 347.346 41.2318C346.143 41.6563 344.71 41.8685 343.048 41.8685H332.7C332.735 44.168 332.983 46.0253 333.443 47.4404C333.903 48.8201 334.734 49.8283 335.937 50.4651C337.175 51.0665 338.979 51.3672 341.35 51.3672H350.477V53.9143C348.849 54.1266 347.257 54.3035 345.701 54.445C344.144 54.5865 342.358 54.6573 340.341 54.6573ZM332.647 39.1091H342.729C344.321 39.1091 345.489 38.8261 346.232 38.2601C347.01 37.6587 347.399 36.5974 347.399 35.0762C347.399 33.4489 347.151 32.193 346.656 31.3086C346.196 30.3888 345.453 29.752 344.427 29.3982C343.437 29.0091 342.092 28.8145 340.394 28.8145C338.413 28.8145 336.857 29.1152 335.725 29.7166C334.593 30.2826 333.797 31.3086 333.337 32.7944C332.877 34.2802 332.647 36.3851 332.647 39.1091ZM358.225 54.3389V26.002H361.409L362.417 30.9371C363.691 29.4159 365.106 28.16 366.662 27.1695C368.254 26.1789 370.076 25.6836 372.128 25.6836C372.623 25.6836 373.083 25.7013 373.508 25.7367C373.968 25.7721 374.392 25.8428 374.781 25.949V30.2473C374.322 30.1765 373.826 30.1234 373.296 30.0881C372.765 30.0173 372.234 29.9819 371.704 29.9819C370.395 29.9819 369.227 30.1411 368.201 30.4595C367.175 30.7779 366.203 31.2555 365.283 31.8923C364.363 32.5291 363.408 33.3073 362.417 34.2271V54.3389H358.225Z" fill="white"/>
<path d="M108.923 85.6755C107.855 85.6755 106.969 85.3589 106.263 84.7257C105.576 84.0745 105.232 83.1789 105.232 82.0392V80.8995C105.232 79.7778 105.612 78.8642 106.372 78.1587C107.15 77.435 108.317 77.0732 109.872 77.0732H114.404V75.5535C114.404 74.9927 114.305 74.5223 114.106 74.1424C113.925 73.7444 113.581 73.4459 113.074 73.2469C112.568 73.0479 111.817 72.9484 110.822 72.9484H106.372V71.3474C107.023 71.2026 107.783 71.076 108.651 70.9674C109.538 70.8589 110.569 70.7956 111.745 70.7775C112.939 70.7775 113.934 70.9313 114.73 71.2388C115.544 71.5283 116.15 72.0167 116.548 72.7042C116.946 73.3736 117.145 74.2691 117.145 75.3907V85.5127H115.001L114.54 83.9116C114.431 83.984 114.205 84.1197 113.861 84.3187C113.518 84.4996 113.074 84.6986 112.532 84.9157C112.007 85.1328 111.428 85.3137 110.795 85.4584C110.18 85.6032 109.556 85.6755 108.923 85.6755ZM110.171 83.6945C110.442 83.7126 110.759 83.6855 111.121 83.6131C111.501 83.5408 111.871 83.4594 112.233 83.3689C112.613 83.2604 112.957 83.1518 113.264 83.0433C113.59 82.9347 113.852 82.8443 114.051 82.7719C114.268 82.6814 114.386 82.6272 114.404 82.6091V78.43L110.605 78.5928C109.664 78.6471 108.986 78.8823 108.57 79.2984C108.172 79.7145 107.973 80.2572 107.973 80.9266V81.5779C107.973 82.1025 108.081 82.5277 108.298 82.8533C108.516 83.1609 108.787 83.3779 109.113 83.5046C109.456 83.6312 109.809 83.6945 110.171 83.6945ZM120.833 85.5127V70.9946H123.004L123.546 72.5685C124.198 72.0981 124.967 71.682 125.853 71.3202C126.758 70.9403 127.689 70.7504 128.648 70.7504C129.734 70.7504 130.602 70.9855 131.253 71.4559C131.923 71.9082 132.402 72.5142 132.692 73.2741C132.981 74.0339 133.126 74.857 133.126 75.7435V85.5127H130.412V76.0691C130.412 75.4902 130.294 74.9927 130.059 74.5766C129.842 74.1424 129.535 73.8077 129.137 73.5726C128.739 73.3374 128.25 73.2198 127.671 73.2198C127.129 73.2198 126.622 73.2741 126.152 73.3826C125.699 73.4912 125.265 73.6449 124.849 73.8439C124.433 74.0248 123.999 74.251 123.546 74.5223V85.5127H120.833ZM254.576 85.6755C253.725 85.6755 252.938 85.567 252.215 85.3499C251.509 85.1147 250.885 84.7257 250.342 84.183C249.818 83.6403 249.411 82.8895 249.121 81.9307C248.832 80.9718 248.687 79.7597 248.687 78.2943C248.687 76.7928 248.823 75.5626 249.094 74.6038C249.365 73.6268 249.754 72.867 250.261 72.3243C250.786 71.7635 251.419 71.3745 252.16 71.1574C252.902 70.9403 253.734 70.8318 254.657 70.8318C255.417 70.8318 256.213 70.8679 257.045 70.9403C257.895 71.0127 258.718 71.1303 259.514 71.2931V72.8941H255.417C254.53 72.8941 253.789 73.0389 253.192 73.3283C252.595 73.5997 252.151 74.1334 251.862 74.9294C251.572 75.7073 251.428 76.838 251.428 78.3215C251.428 79.7507 251.582 80.8542 251.889 81.6322C252.197 82.392 252.64 82.9076 253.219 83.1789C253.816 83.4503 254.558 83.586 255.444 83.586H259.732V85.1328C259.315 85.2413 258.818 85.3408 258.239 85.4313C257.678 85.5036 257.081 85.5579 256.448 85.5941C255.833 85.6484 255.209 85.6755 254.576 85.6755ZM268.395 85.6755C267.291 85.6755 266.332 85.5579 265.518 85.3227C264.722 85.0876 264.062 84.6986 263.537 84.1559C263.012 83.595 262.623 82.8352 262.37 81.8764C262.117 80.9176 261.99 79.7055 261.99 78.2401C261.99 76.7204 262.117 75.4812 262.37 74.5223C262.623 73.5454 263.012 72.7856 263.537 72.2429C264.062 71.7001 264.731 71.3293 265.545 71.1303C266.359 70.9132 267.309 70.8046 268.395 70.8046C269.48 70.8046 270.43 70.9132 271.244 71.1303C272.058 71.3474 272.727 71.7273 273.252 72.27C273.777 72.8127 274.166 73.5726 274.419 74.5495C274.672 75.5083 274.799 76.7385 274.799 78.2401C274.799 79.7235 274.672 80.9537 274.419 81.9307C274.166 82.8895 273.777 83.6403 273.252 84.183C272.745 84.7257 272.085 85.1147 271.271 85.3499C270.457 85.567 269.498 85.6755 268.395 85.6755ZM268.395 83.4503C268.992 83.4503 269.516 83.396 269.968 83.2875C270.439 83.1789 270.828 82.9528 271.135 82.6091C271.443 82.2473 271.678 81.7136 271.841 81.008C272.004 80.3025 272.085 79.3708 272.085 78.2129C272.085 77.0551 272.004 76.1325 271.841 75.445C271.678 74.7394 271.443 74.2148 271.135 73.8711C270.828 73.5273 270.439 73.3012 269.968 73.1927C269.516 73.066 268.992 73.0027 268.395 73.0027C267.779 73.0027 267.237 73.066 266.766 73.1927C266.314 73.3012 265.934 73.5273 265.627 73.8711C265.337 74.2148 265.111 74.7394 264.948 75.445C264.803 76.1325 264.731 77.0551 264.731 78.2129C264.731 79.3708 264.803 80.3025 264.948 81.008C265.111 81.7136 265.337 82.2473 265.627 82.6091C265.934 82.9528 266.314 83.1789 266.766 83.2875C267.237 83.396 267.779 83.4503 268.395 83.4503ZM278.114 85.5127V70.9946H280.285L280.828 72.5685C281.533 72.08 282.311 71.6549 283.162 71.2931C284.012 70.9313 284.989 70.7504 286.092 70.7504C286.997 70.7504 287.766 70.9494 288.399 71.3474C289.032 71.7454 289.512 72.2519 289.837 72.867C290.271 72.5414 290.796 72.2157 291.411 71.8901C292.026 71.5645 292.687 71.2931 293.392 71.076C294.098 70.8589 294.776 70.7504 295.427 70.7504C296.513 70.7504 297.39 70.9765 298.06 71.4288C298.747 71.863 299.235 72.469 299.525 73.2469C299.832 74.0068 299.986 74.8751 299.986 75.852V85.5127H297.273V76.0691C297.273 75.4902 297.155 74.9927 296.92 74.5766C296.703 74.1424 296.386 73.8077 295.97 73.5726C295.572 73.3374 295.084 73.2198 294.505 73.2198C293.781 73.2198 293.039 73.3645 292.279 73.654C291.52 73.9253 290.823 74.26 290.19 74.658C290.262 74.8932 290.317 75.1374 290.353 75.3907C290.389 75.6259 290.407 75.8611 290.407 76.0963V85.5127H287.693V76.0691C287.693 75.4902 287.576 74.9927 287.341 74.5766C287.123 74.1424 286.816 73.8077 286.418 73.5726C286.02 73.3374 285.531 73.2198 284.953 73.2198C284.41 73.2198 283.903 73.2741 283.433 73.3826C282.981 73.4912 282.546 73.6449 282.13 73.8439C281.714 74.0248 281.28 74.251 280.828 74.5223V85.5127H278.114ZM303.714 91.9441V70.9946H305.939L306.427 72.46C306.771 72.2067 307.178 71.9534 307.649 71.7001C308.137 71.4469 308.662 71.2388 309.222 71.076C309.801 70.8951 310.38 70.8046 310.959 70.8046C311.882 70.8046 312.669 70.9946 313.32 71.3745C313.989 71.7544 314.532 72.2881 314.948 72.9756C315.364 73.6449 315.663 74.4319 315.844 75.3364C316.043 76.241 316.142 77.2089 316.142 78.2401C316.142 79.8502 315.961 81.2161 315.6 82.3377C315.256 83.4413 314.704 84.2825 313.944 84.8614C313.203 85.4222 312.208 85.7027 310.959 85.7027C310.199 85.7027 309.421 85.5941 308.625 85.377C307.829 85.1418 307.097 84.8343 306.427 84.4544V91.9441H303.714ZM310.145 83.4232C310.76 83.4232 311.312 83.2694 311.8 82.9618C312.289 82.6543 312.678 82.1297 312.967 81.3879C313.275 80.6281 313.429 79.5788 313.429 78.2401C313.429 76.9737 313.275 75.9606 312.967 75.2008C312.66 74.4228 312.262 73.8711 311.773 73.5454C311.285 73.2017 310.751 73.0298 310.172 73.0298C309.412 73.0298 308.716 73.1474 308.083 73.3826C307.468 73.6178 306.916 73.862 306.427 74.1153V82.392C306.988 82.6995 307.585 82.9528 308.218 83.1518C308.87 83.3327 309.512 83.4232 310.145 83.4232ZM322.359 85.6755C321.291 85.6755 320.405 85.3589 319.699 84.7257C319.012 84.0745 318.668 83.1789 318.668 82.0392V80.8995C318.668 79.7778 319.048 78.8642 319.808 78.1587C320.586 77.435 321.753 77.0732 323.309 77.0732H327.84V75.5535C327.84 74.9927 327.741 74.5223 327.542 74.1424C327.361 73.7444 327.017 73.4459 326.511 73.2469C326.004 73.0479 325.253 72.9484 324.258 72.9484H319.808V71.3474C320.459 71.2026 321.219 71.076 322.087 70.9674C322.974 70.8589 324.005 70.7956 325.181 70.7775C326.375 70.7775 327.37 70.9313 328.166 71.2388C328.98 71.5283 329.586 72.0167 329.984 72.7042C330.382 73.3736 330.581 74.2691 330.581 75.3907V85.5127H328.437L327.976 83.9116C327.867 83.984 327.641 84.1197 327.298 84.3187C326.954 84.4996 326.511 84.6986 325.968 84.9157C325.443 85.1328 324.864 85.3137 324.231 85.4584C323.616 85.6032 322.992 85.6755 322.359 85.6755ZM323.607 83.6945C323.878 83.7126 324.195 83.6855 324.557 83.6131C324.937 83.5408 325.308 83.4594 325.669 83.3689C326.049 83.2604 326.393 83.1518 326.701 83.0433C327.026 82.9347 327.289 82.8443 327.488 82.7719C327.705 82.6814 327.822 82.6272 327.84 82.6091V78.43L324.041 78.5928C323.1 78.6471 322.422 78.8823 322.006 79.2984C321.608 79.7145 321.409 80.2572 321.409 80.9266V81.5779C321.409 82.1025 321.518 82.5277 321.735 82.8533C321.952 83.1609 322.223 83.3779 322.549 83.5046C322.892 83.6312 323.245 83.6945 323.607 83.6945ZM334.269 85.5127V70.9946H336.44L336.983 72.5685C337.634 72.0981 338.403 71.682 339.289 71.3202C340.194 70.9403 341.126 70.7504 342.084 70.7504C343.17 70.7504 344.038 70.9855 344.689 71.4559C345.359 71.9082 345.838 72.5142 346.128 73.2741C346.417 74.0339 346.562 74.857 346.562 75.7435V85.5127H343.848V76.0691C343.848 75.4902 343.731 74.9927 343.495 74.5766C343.278 74.1424 342.971 73.8077 342.573 73.5726C342.175 73.3374 341.686 73.2198 341.107 73.2198C340.565 73.2198 340.058 73.2741 339.588 73.3826C339.135 73.4912 338.701 73.6449 338.285 73.8439C337.869 74.0248 337.435 74.251 336.983 74.5223V85.5127H334.269ZM354.373 91.9441L356.137 85.5127C355.558 85.4946 355.006 85.377 354.482 85.1599C353.957 84.9247 353.487 84.5539 353.07 84.0473C352.672 83.5227 352.347 82.8262 352.094 81.9578L348.837 70.9946H351.686L354.617 81.3879C354.78 81.8764 354.961 82.2473 355.16 82.5005C355.377 82.7538 355.585 82.9347 355.784 83.0433C356.001 83.1337 356.191 83.188 356.354 83.2061C356.517 83.2242 356.616 83.2332 356.652 83.2332L360.045 70.9946H362.84L357.847 89.2576L356.544 91.9441H354.373Z" fill="white"/>
<path d="M146.951 85.6755C145.884 85.6755 144.997 85.3589 144.292 84.7257C143.604 84.0745 143.26 83.1789 143.26 82.0392V80.8995C143.26 79.7778 143.64 78.8642 144.4 78.1587C145.178 77.435 146.345 77.0732 147.901 77.0732H152.433V75.5535C152.433 74.9927 152.333 74.5223 152.134 74.1424C151.953 73.7444 151.609 73.4459 151.103 73.2469C150.596 73.0479 149.846 72.9484 148.851 72.9484H144.4V71.3474C145.051 71.2026 145.811 71.076 146.68 70.9674C147.566 70.8589 148.597 70.7956 149.773 70.7775C150.967 70.7775 151.962 70.9313 152.758 71.2388C153.572 71.5283 154.178 72.0167 154.576 72.7042C154.974 73.3736 155.173 74.2691 155.173 75.3907V85.5127H153.03L152.568 83.9116C152.46 83.984 152.234 84.1197 151.89 84.3187C151.546 84.4996 151.103 84.6986 150.56 84.9157C150.036 85.1328 149.457 85.3137 148.823 85.4584C148.208 85.6032 147.584 85.6755 146.951 85.6755ZM148.199 83.6945C148.471 83.7126 148.787 83.6855 149.149 83.6131C149.529 83.5408 149.9 83.4594 150.262 83.3689C150.642 83.2604 150.985 83.1518 151.293 83.0433C151.618 82.9347 151.881 82.8443 152.08 82.7719C152.297 82.6814 152.415 82.6272 152.433 82.6091V78.43L148.633 78.5928C147.693 78.6471 147.014 78.8823 146.598 79.2984C146.2 79.7145 146.001 80.2572 146.001 80.9266V81.5779C146.001 82.1025 146.11 82.5277 146.327 82.8533C146.544 83.1609 146.815 83.3779 147.141 83.5046C147.485 83.6312 147.837 83.6945 148.199 83.6945ZM197.486 85.6755C197.106 85.6755 196.653 85.6665 196.129 85.6484C195.604 85.6303 195.061 85.5941 194.501 85.5398C193.958 85.5036 193.451 85.4584 192.981 85.4041C192.529 85.3499 192.167 85.2866 191.895 85.2142V83.586H198.001C198.526 83.586 198.978 83.5498 199.358 83.4774C199.738 83.387 200.027 83.2061 200.226 82.9347C200.443 82.6633 200.552 82.2653 200.552 81.7407V81.1437C200.552 80.601 200.371 80.1758 200.009 79.8683C199.647 79.5607 199.05 79.4069 198.218 79.4069H196.102C195.251 79.4069 194.492 79.2984 193.822 79.0813C193.171 78.8461 192.655 78.4572 192.275 77.9144C191.914 77.3717 191.733 76.639 191.733 75.7164V74.9294C191.733 74.0068 191.904 73.2469 192.248 72.6499C192.61 72.0529 193.18 71.6097 193.958 71.3202C194.736 71.0127 195.767 70.8589 197.051 70.8589C197.594 70.8589 198.191 70.886 198.842 70.9403C199.512 70.9765 200.163 71.0308 200.796 71.1031C201.429 71.1755 201.936 71.2569 202.316 71.3474V72.9756H196.563C195.767 72.9756 195.152 73.1112 194.718 73.3826C194.302 73.654 194.094 74.1696 194.094 74.9294V75.4721C194.094 75.9425 194.193 76.3043 194.392 76.5576C194.591 76.8109 194.871 76.9737 195.233 77.0461C195.613 77.1184 196.056 77.1546 196.563 77.1546H198.734C200.109 77.1546 201.149 77.4802 201.855 78.1315C202.56 78.7647 202.913 79.6602 202.913 80.8181V81.9307C202.913 82.9076 202.687 83.6674 202.235 84.2101C201.782 84.7529 201.149 85.1328 200.335 85.3499C199.539 85.567 198.589 85.6755 197.486 85.6755Z" fill="#518DCC"/>
<path d="M158.861 85.5127V70.9946H160.951L161.575 73.4369C162.19 72.6951 162.877 72.071 163.637 71.5645C164.397 71.0579 165.284 70.8046 166.297 70.8046C166.532 70.8046 166.758 70.8227 166.975 70.8589C167.192 70.877 167.4 70.9132 167.599 70.9674V73.7625C167.346 73.7263 167.084 73.6992 166.812 73.6811C166.541 73.6449 166.26 73.6268 165.971 73.6268C165.356 73.6268 164.804 73.6992 164.316 73.8439C163.827 73.9887 163.357 74.2148 162.905 74.5223C162.47 74.8118 162.027 75.1736 161.575 75.6078V85.5127H158.861ZM177.532 85.6755C176.862 85.6755 176.238 85.5941 175.659 85.4313C175.098 85.2685 174.583 85.0695 174.112 84.8343C173.66 84.581 173.244 84.3277 172.864 84.0745L172.376 85.5127H170.151V64.8074H172.864V72.2157C173.534 71.8539 174.275 71.5283 175.089 71.2388C175.922 70.9494 176.69 70.8046 177.396 70.8046C178.59 70.8046 179.567 71.0579 180.327 71.5645C181.087 72.0529 181.647 72.8489 182.009 73.9525C182.389 75.056 182.579 76.5305 182.579 78.3758C182.579 79.9135 182.407 81.2341 182.063 82.3377C181.72 83.4232 181.177 84.2554 180.435 84.8343C179.694 85.3951 178.726 85.6755 177.532 85.6755ZM176.582 83.4232C177.287 83.4232 177.875 83.2513 178.346 82.9076C178.834 82.5458 179.205 81.9849 179.458 81.2251C179.73 80.4472 179.865 79.4522 179.865 78.2401C179.865 76.7566 179.721 75.644 179.431 74.9023C179.142 74.1605 178.753 73.663 178.264 73.4097C177.776 73.1565 177.215 73.0298 176.582 73.0298C175.858 73.0298 175.198 73.1384 174.601 73.3555C174.022 73.5545 173.443 73.8078 172.864 74.1153V82.392C173.353 82.6453 173.904 82.8804 174.52 83.0975C175.135 83.3146 175.822 83.4232 176.582 83.4232ZM186.272 68.5523C185.946 68.5523 185.783 68.3985 185.783 68.091V65.8115C185.783 65.4858 185.946 65.323 186.272 65.323H188.28C188.425 65.323 188.533 65.3682 188.606 65.4587C188.678 65.5492 188.714 65.6668 188.714 65.8115V68.091C188.714 68.3985 188.569 68.5523 188.28 68.5523H186.272ZM185.892 85.5127V70.9946H188.606V85.5127H185.892ZM211.922 85.6755C210.818 85.6755 209.859 85.5579 209.045 85.3227C208.249 85.0876 207.589 84.6986 207.064 84.1559C206.54 83.595 206.151 82.8352 205.897 81.8764C205.644 80.9176 205.517 79.7055 205.517 78.2401C205.517 76.7204 205.644 75.4812 205.897 74.5223C206.151 73.5454 206.54 72.7856 207.064 72.2429C207.589 71.7001 208.258 71.3293 209.072 71.1303C209.886 70.9132 210.836 70.8046 211.922 70.8046C213.007 70.8046 213.957 70.9132 214.771 71.1303C215.585 71.3474 216.254 71.7273 216.779 72.27C217.304 72.8127 217.693 73.5726 217.946 74.5495C218.199 75.5083 218.326 76.7385 218.326 78.2401C218.326 79.7235 218.199 80.9537 217.946 81.9307C217.693 82.8895 217.304 83.6403 216.779 84.183C216.273 84.7257 215.612 85.1147 214.798 85.3499C213.984 85.567 213.025 85.6755 211.922 85.6755ZM211.922 83.4503C212.519 83.4503 213.043 83.396 213.496 83.2875C213.966 83.1789 214.355 82.9528 214.662 82.6091C214.97 82.2473 215.205 81.7136 215.368 81.008C215.531 80.3025 215.612 79.3708 215.612 78.2129C215.612 77.0551 215.531 76.1325 215.368 75.445C215.205 74.7394 214.97 74.2148 214.662 73.8711C214.355 73.5273 213.966 73.3012 213.496 73.1927C213.043 73.066 212.519 73.0027 211.922 73.0027C211.307 73.0027 210.764 73.066 210.293 73.1927C209.841 73.3012 209.461 73.5273 209.154 73.8711C208.864 74.2148 208.638 74.7394 208.475 75.445C208.331 76.1325 208.258 77.0551 208.258 78.2129C208.258 79.3708 208.331 80.3025 208.475 81.008C208.638 81.7136 208.864 82.2473 209.154 82.6091C209.461 82.9528 209.841 83.1789 210.293 83.2875C210.764 83.396 211.307 83.4503 211.922 83.4503ZM222.51 85.5127V73.2198H220.339V71.4559L222.51 70.9946V69.5563C222.51 68.4709 222.645 67.5663 222.917 66.8427C223.188 66.1009 223.64 65.5492 224.274 65.1873C224.907 64.8255 225.775 64.6446 226.879 64.6446C227.512 64.6446 228.055 64.6808 228.507 64.7532C228.977 64.8255 229.384 64.8888 229.728 64.9431V66.8969H227.367C226.788 66.8969 226.345 66.9874 226.037 67.1683C225.73 67.3492 225.513 67.6296 225.386 68.0095C225.278 68.3895 225.223 68.8598 225.223 69.4207V70.9946H229.484V73.2198H225.223V85.5127H222.51ZM236.838 85.5127C235.861 85.5127 235.047 85.3589 234.395 85.0514C233.762 84.7257 233.292 84.2101 232.984 83.5046C232.695 82.799 232.559 81.8583 232.577 80.6824L232.686 73.2198H230.379V71.4559L232.74 70.9946L233.147 66.9241H235.291V70.9946H239.226V73.2198H235.291V80.6552C235.291 81.2161 235.345 81.6683 235.454 82.0121C235.562 82.3558 235.716 82.6181 235.915 82.799C236.114 82.9799 236.331 83.1156 236.566 83.2061C236.802 83.2784 237.028 83.3237 237.245 83.3418L239.036 83.5046V85.5127H236.838Z" fill="#7E7F7F"/>
<defs>
<filter id="filter0_i_5640_10636" x="-1.81301" y="4.44922" width="90.8037" height="91.7107" filterUnits="userSpaceOnUse" color-interpolation-filters="sRGB">
<feFlood flood-opacity="0" result="BackgroundImageFix"/>
<feBlend mode="normal" in="SourceGraphic" in2="BackgroundImageFix" result="shape"/>
<feColorMatrix in="SourceAlpha" type="matrix" values="0 0 0 0 0 0 0 0 0 0 0 0 0 0 0 0 0 0 127 0" result="hardAlpha"/>
<feOffset dx="-1.81301" dy="2.71951"/>
<feGaussianBlur stdDeviation="3.17277"/>
<feComposite in2="hardAlpha" operator="arithmetic" k2="-1" k3="1"/>
<feColorMatrix type="matrix" values="0 0 0 0 0 0 0 0 0 0 0 0 0 0 0 0 0 0 0.2 0"/>
<feBlend mode="normal" in2="shape" result="effect1_innerShadow_5640_10636"/>
</filter>
</defs>
</svg>
