<svg width="193" height="96" viewBox="0 0 193 96" fill="none" xmlns="http://www.w3.org/2000/svg">
<path d="M3.72861 84.5569C3.21108 84.5569 2.76019 84.4981 2.37596 84.3805C1.99173 84.2628 1.67023 84.0511 1.41146 83.7453C1.15269 83.4317 0.960578 82.9847 0.835115 82.4044C0.709652 81.8163 0.64692 81.0557 0.64692 80.1226C0.64692 79.2443 0.709652 78.519 0.835115 77.9466C0.96842 77.3741 1.16446 76.9272 1.42322 76.6057C1.68983 76.2842 2.01917 76.0607 2.41125 75.9352C2.80332 75.8098 3.25812 75.747 3.77566 75.747C4.06579 75.747 4.36377 75.7627 4.66959 75.7941C4.98324 75.8254 5.28122 75.8686 5.56351 75.9235C5.85365 75.9705 6.11241 76.0254 6.33982 76.0881V76.9821C6.19867 76.9585 6.00655 76.935 5.76347 76.9115C5.52038 76.8801 5.24593 76.8566 4.94012 76.8409C4.6343 76.8174 4.31672 76.8056 3.98738 76.8056C3.59531 76.8056 3.26204 76.8527 2.98759 76.9468C2.71314 77.033 2.48966 77.1977 2.31715 77.4408C2.14464 77.676 2.01917 78.0132 1.94076 78.4523C1.86235 78.8836 1.82314 79.4443 1.82314 80.1343C1.82314 80.8322 1.85842 81.4046 1.929 81.8516C2.00741 82.2907 2.12895 82.6318 2.29363 82.8749C2.4583 83.1102 2.67786 83.2748 2.95231 83.3689C3.22676 83.4552 3.56786 83.4983 3.97562 83.4983C4.56373 83.4983 5.04598 83.4826 5.42237 83.4513C5.79876 83.4199 6.10457 83.3885 6.33982 83.3572V84.2628C6.10457 84.3177 5.8458 84.3687 5.56351 84.4158C5.28122 84.4628 4.98324 84.4981 4.66959 84.5216C4.36377 84.5451 4.05011 84.5569 3.72861 84.5569ZM9.51597 84.5569C8.92786 84.5569 8.46914 84.4001 8.1398 84.0864C7.8183 83.7649 7.65755 83.2787 7.65755 82.6279V78.1936H8.83376V82.3103C8.83376 82.7808 8.93962 83.0984 9.15134 83.2631C9.3709 83.4277 9.67672 83.5101 10.0688 83.5101C10.3825 83.5101 10.6804 83.463 10.9627 83.3689C11.2529 83.267 11.5351 83.1298 11.8096 82.9572V78.1936H12.9858V84.4863H12.0448L11.8096 83.8159C11.5038 84.0119 11.1509 84.1844 10.751 84.3334C10.3589 84.4824 9.94725 84.5569 9.51597 84.5569ZM16.8067 84.5569C16.642 84.5569 16.446 84.553 16.2186 84.5451C15.9912 84.5373 15.7559 84.5216 15.5128 84.4981C15.2776 84.4824 15.058 84.4628 14.8542 84.4393C14.6581 84.4158 14.5013 84.3883 14.3837 84.3569V83.6512H17.0302C17.2576 83.6512 17.4536 83.6355 17.6183 83.6042C17.7829 83.565 17.9084 83.4865 17.9947 83.3689C18.0888 83.2513 18.1358 83.0788 18.1358 82.8514V82.5926C18.1358 82.3574 18.0574 82.1731 17.9006 82.0398C17.7437 81.9065 17.485 81.8398 17.1243 81.8398H16.2068C15.8383 81.8398 15.5089 81.7928 15.2188 81.6987C14.9365 81.5968 14.713 81.4282 14.5483 81.1929C14.3915 80.9577 14.3131 80.6401 14.3131 80.2402V79.8991C14.3131 79.4992 14.3876 79.1698 14.5366 78.9111C14.6934 78.6523 14.9404 78.4602 15.2776 78.3347C15.6148 78.2014 16.0617 78.1348 16.6185 78.1348C16.8537 78.1348 17.1125 78.1465 17.3948 78.17C17.6849 78.1857 17.9672 78.2092 18.2417 78.2406C18.5161 78.272 18.7357 78.3073 18.9004 78.3465V79.0522H16.4068C16.0617 79.0522 15.7951 79.111 15.6069 79.2286C15.4266 79.3463 15.3364 79.5697 15.3364 79.8991V80.1343C15.3364 80.3382 15.3795 80.495 15.4658 80.6048C15.5521 80.7146 15.6736 80.7852 15.8304 80.8165C15.9951 80.8479 16.1872 80.8636 16.4068 80.8636H17.3477C17.9437 80.8636 18.3946 81.0047 18.7004 81.287C19.0062 81.5615 19.1591 81.9496 19.1591 82.4515V82.9337C19.1591 83.3572 19.0611 83.6865 18.8651 83.9217C18.669 84.157 18.3946 84.3217 18.0417 84.4158C17.6967 84.5099 17.285 84.5569 16.8067 84.5569ZM22.6757 84.4863C22.2523 84.4863 21.8994 84.4197 21.6171 84.2864C21.3427 84.1452 21.1388 83.9217 21.0055 83.6159C20.88 83.3101 20.8212 82.9024 20.8291 82.3927L20.8761 79.1581H19.8763V78.3935L20.8996 78.1936L21.0761 76.4292H22.0053V78.1936H23.7108V79.1581H22.0053V82.3809C22.0053 82.624 22.0288 82.82 22.0759 82.969C22.1229 83.118 22.1896 83.2317 22.2758 83.3101C22.3621 83.3885 22.4562 83.4473 22.5581 83.4865C22.6601 83.5179 22.7581 83.5375 22.8522 83.5454L23.6285 83.6159V84.4863H22.6757ZM27.4632 84.5569C26.9849 84.5569 26.5693 84.5059 26.2164 84.404C25.8714 84.3021 25.5852 84.1335 25.3578 83.8982C25.1304 83.6551 24.9618 83.3258 24.852 82.9102C24.7422 82.4946 24.6873 81.9692 24.6873 81.3341C24.6873 80.6754 24.7422 80.1382 24.852 79.7226C24.9618 79.2992 25.1304 78.9699 25.3578 78.7346C25.5852 78.4994 25.8753 78.3386 26.2282 78.2524C26.5811 78.1583 26.9927 78.1112 27.4632 78.1112C27.9337 78.1112 28.3454 78.1583 28.6982 78.2524C29.0511 78.3465 29.3412 78.5111 29.5687 78.7464C29.7961 78.9816 29.9646 79.311 30.0744 79.7344C30.1842 80.15 30.2391 80.6832 30.2391 81.3341C30.2391 81.9771 30.1842 82.5103 30.0744 82.9337C29.9646 83.3493 29.7961 83.6747 29.5687 83.91C29.3491 84.1452 29.0629 84.3138 28.71 84.4158C28.3571 84.5099 27.9415 84.5569 27.4632 84.5569ZM27.4632 83.5924C27.722 83.5924 27.9494 83.5689 28.1454 83.5218C28.3493 83.4748 28.5179 83.3768 28.6512 83.2278C28.7845 83.0709 28.8864 82.8396 28.957 82.5338C29.0276 82.228 29.0629 81.8242 29.0629 81.3223C29.0629 80.8204 29.0276 80.4205 28.957 80.1226C28.8864 79.8167 28.7845 79.5893 28.6512 79.4404C28.5179 79.2914 28.3493 79.1933 28.1454 79.1463C27.9494 79.0914 27.722 79.064 27.4632 79.064C27.1966 79.064 26.9614 79.0914 26.7575 79.1463C26.5615 79.1933 26.3968 79.2914 26.2635 79.4404C26.138 79.5893 26.04 79.8167 25.9694 80.1226C25.9067 80.4205 25.8753 80.8204 25.8753 81.3223C25.8753 81.8242 25.9067 82.228 25.9694 82.5338C26.04 82.8396 26.138 83.0709 26.2635 83.2278C26.3968 83.3768 26.5615 83.4748 26.7575 83.5218C26.9614 83.5689 27.1966 83.5924 27.4632 83.5924ZM31.6761 84.4863V78.1936H32.6171L32.8523 78.8758C33.1581 78.664 33.4953 78.4798 33.8639 78.3229C34.2324 78.1661 34.6559 78.0877 35.1342 78.0877C35.5263 78.0877 35.8595 78.174 36.134 78.3465C36.4084 78.519 36.6162 78.7385 36.7574 79.0052C36.9456 78.864 37.173 78.7229 37.4396 78.5817C37.7062 78.4406 37.9924 78.3229 38.2982 78.2288C38.604 78.1348 38.8981 78.0877 39.1804 78.0877C39.6509 78.0877 40.0312 78.1857 40.3213 78.3818C40.6193 78.57 40.831 78.8326 40.9565 79.1698C41.0898 79.4992 41.1564 79.8756 41.1564 80.299V84.4863H39.9802V80.3931C39.9802 80.1422 39.9292 79.9265 39.8273 79.7462C39.7332 79.558 39.596 79.4129 39.4156 79.311C39.2431 79.209 39.0314 79.1581 38.7805 79.1581C38.4668 79.1581 38.1453 79.2208 37.816 79.3463C37.4866 79.4639 37.1847 79.6089 36.9103 79.7815C36.9416 79.8834 36.9652 79.9893 36.9808 80.099C36.9965 80.201 37.0044 80.3029 37.0044 80.4049V84.4863H35.8282V80.3931C35.8282 80.1422 35.7772 79.9265 35.6752 79.7462C35.5811 79.558 35.4478 79.4129 35.2753 79.311C35.1028 79.209 34.8911 79.1581 34.6402 79.1581C34.4049 79.1581 34.1854 79.1816 33.9815 79.2286C33.7855 79.2757 33.5973 79.3423 33.4169 79.4286C33.2366 79.507 33.0484 79.605 32.8523 79.7226V84.4863H31.6761ZM45.2539 84.5569C44.5874 84.5569 44.0541 84.4589 43.6542 84.2628C43.2622 84.0668 42.9799 83.7375 42.8074 83.2748C42.6427 82.8043 42.5603 82.1574 42.5603 81.3341C42.5603 80.495 42.6427 79.8442 42.8074 79.3815C42.9799 78.9111 43.2622 78.5817 43.6542 78.3935C44.0463 78.2053 44.5756 78.1112 45.2421 78.1112C45.8224 78.1112 46.289 78.174 46.6418 78.2994C47.0025 78.417 47.2652 78.6327 47.4299 78.9463C47.6024 79.2522 47.6887 79.6795 47.6887 80.2284C47.6887 80.6126 47.6102 80.9185 47.4534 81.1459C47.3044 81.3733 47.0888 81.5379 46.8065 81.6399C46.532 81.7418 46.2027 81.7928 45.8185 81.7928H43.7366C43.7444 82.2476 43.7954 82.6122 43.8895 82.8867C43.9914 83.1533 44.1678 83.3493 44.4188 83.4748C44.6775 83.5924 45.0539 83.6512 45.5479 83.6512H47.5122V84.3569C47.175 84.404 46.83 84.4471 46.4772 84.4863C46.1243 84.5334 45.7165 84.5569 45.2539 84.5569ZM43.7248 81.0518H45.7126C46.0263 81.0518 46.2576 80.993 46.4066 80.8753C46.5556 80.7577 46.6301 80.5421 46.6301 80.2284C46.6301 79.9148 46.583 79.6678 46.4889 79.4874C46.4027 79.307 46.2576 79.1777 46.0537 79.0992C45.8498 79.0208 45.5793 78.9816 45.2421 78.9816C44.8579 78.9816 44.5521 79.0404 44.3247 79.1581C44.1051 79.2757 43.9483 79.4835 43.8542 79.7815C43.7679 80.0794 43.7248 80.5029 43.7248 81.0518ZM49.1241 84.4863V78.1936H50.0298L50.3003 79.2522C50.5669 78.9307 50.8649 78.6601 51.1942 78.4406C51.5236 78.221 51.9078 78.1112 52.3469 78.1112C52.4489 78.1112 52.5469 78.1191 52.641 78.1348C52.7351 78.1426 52.8253 78.1583 52.9115 78.1818V79.3933C52.8017 79.3776 52.688 79.3659 52.5704 79.358C52.4528 79.3423 52.3313 79.3345 52.2058 79.3345C51.9392 79.3345 51.7 79.3659 51.4883 79.4286C51.2766 79.4913 51.0727 79.5893 50.8767 79.7226C50.6885 79.8481 50.4964 80.0049 50.3003 80.1931V84.4863H49.1241ZM59.106 84.5334C58.9099 84.5334 58.7021 84.5177 58.4826 84.4863C58.263 84.4471 58.0513 84.3726 57.8474 84.2628C57.6514 84.1452 57.4906 83.9688 57.3652 83.7335C57.2397 83.4983 57.177 83.1807 57.177 82.7808V77.629C57.177 77.284 57.2279 76.9938 57.3299 76.7586C57.4397 76.5233 57.5808 76.3391 57.7533 76.2058C57.9258 76.0646 58.1179 75.9666 58.3297 75.9117C58.5492 75.849 58.7649 75.8176 58.9766 75.8176C59.4863 75.8254 59.9528 75.8372 60.3763 75.8529C60.8076 75.8607 61.2075 75.8725 61.576 75.8882C61.9446 75.9039 62.2974 75.9195 62.6346 75.9352V76.9115H59.2942C59.004 76.9115 58.7766 76.986 58.612 77.135C58.4473 77.284 58.3649 77.5192 58.3649 77.8407V79.6403L62.1053 79.7109V80.6283L58.3649 80.7107V82.4868C58.3649 82.7534 58.4081 82.9533 58.4943 83.0866C58.5884 83.2199 58.7061 83.3101 58.8472 83.3572C58.9962 83.4042 59.153 83.4277 59.3177 83.4277H62.6346V84.404C62.2739 84.4275 61.8936 84.451 61.4937 84.4746C61.0938 84.4902 60.6899 84.502 60.2822 84.5099C59.8823 84.5255 59.4902 84.5334 59.106 84.5334ZM67.9375 84.4863L63.4679 78.1936H64.6676L69.1373 84.4863H67.9375ZM63.4679 84.4863L65.8556 80.993L66.2908 82.0751L64.6676 84.4863H63.4679ZM66.7378 81.7105L66.232 80.746L67.9375 78.2053L69.1373 78.1936L66.7378 81.7105ZM70.1674 87.274V78.1936H71.1319L71.3436 78.8287C71.4926 78.7189 71.669 78.6092 71.8729 78.4994C72.0846 78.3896 72.312 78.2994 72.5551 78.2288C72.806 78.1504 73.057 78.1112 73.3079 78.1112C73.7078 78.1112 74.0489 78.1936 74.3312 78.3582C74.6213 78.5229 74.8566 78.7542 75.0369 79.0522C75.2173 79.3423 75.3467 79.6834 75.4251 80.0755C75.5113 80.4676 75.5545 80.8871 75.5545 81.3341C75.5545 82.032 75.476 82.624 75.3192 83.1102C75.1702 83.5885 74.9311 83.9531 74.6017 84.204C74.2802 84.4471 73.8489 84.5687 73.3079 84.5687C72.9785 84.5687 72.6414 84.5216 72.2963 84.4275C71.9513 84.3256 71.6337 84.1923 71.3436 84.0276V87.274H70.1674ZM72.955 83.5806C73.2216 83.5806 73.4608 83.514 73.6725 83.3807C73.8842 83.2474 74.0528 83.02 74.1783 82.6985C74.3116 82.3691 74.3782 81.9143 74.3782 81.3341C74.3782 80.7852 74.3116 80.346 74.1783 80.0167C74.045 79.6795 73.8725 79.4404 73.6607 79.2992C73.449 79.1502 73.2177 79.0757 72.9668 79.0757C72.6374 79.0757 72.3355 79.1267 72.0611 79.2286C71.7945 79.3306 71.5553 79.4364 71.3436 79.5462V83.1337C71.5867 83.267 71.8454 83.3768 72.1199 83.463C72.4022 83.5414 72.6806 83.5806 72.955 83.5806ZM79.4722 84.5569C78.8057 84.5569 78.2724 84.4589 77.8725 84.2628C77.4805 84.0668 77.1982 83.7375 77.0256 83.2748C76.861 82.8043 76.7786 82.1574 76.7786 81.3341C76.7786 80.495 76.861 79.8442 77.0256 79.3815C77.1982 78.9111 77.4805 78.5817 77.8725 78.3935C78.2646 78.2053 78.7939 78.1112 79.4604 78.1112C80.0407 78.1112 80.5073 78.174 80.8601 78.2994C81.2208 78.417 81.4835 78.6327 81.6482 78.9463C81.8207 79.2522 81.907 79.6795 81.907 80.2284C81.907 80.6126 81.8285 80.9185 81.6717 81.1459C81.5227 81.3733 81.3071 81.5379 81.0248 81.6399C80.7503 81.7418 80.421 81.7928 80.0368 81.7928H77.9549C77.9627 82.2476 78.0137 82.6122 78.1078 82.8867C78.2097 83.1533 78.3861 83.3493 78.6371 83.4748C78.8958 83.5924 79.2722 83.6512 79.7662 83.6512H81.7305V84.3569C81.3933 84.404 81.0483 84.4471 80.6954 84.4863C80.3426 84.5334 79.9348 84.5569 79.4722 84.5569ZM77.9431 81.0518H79.9309C80.2446 81.0518 80.4759 80.993 80.6249 80.8753C80.7739 80.7577 80.8484 80.5421 80.8484 80.2284C80.8484 79.9148 80.8013 79.6678 80.7072 79.4874C80.621 79.307 80.4759 79.1777 80.272 79.0992C80.0681 79.0208 79.7976 78.9816 79.4604 78.9816C79.0762 78.9816 78.7704 79.0404 78.543 79.1581C78.3234 79.2757 78.1666 79.4835 78.0725 79.7815C77.9862 80.0794 77.9431 80.5029 77.9431 81.0518ZM83.3424 84.4863V78.1936H84.2481L84.5186 79.2522C84.7852 78.9307 85.0832 78.6601 85.4125 78.4406C85.7419 78.221 86.1261 78.1112 86.5652 78.1112C86.6672 78.1112 86.7652 78.1191 86.8593 78.1348C86.9534 78.1426 87.0436 78.1583 87.1298 78.1818V79.3933C87.02 79.3776 86.9063 79.3659 86.7887 79.358C86.6711 79.3423 86.5496 79.3345 86.4241 79.3345C86.1575 79.3345 85.9183 79.3659 85.7066 79.4286C85.4949 79.4913 85.291 79.5893 85.095 79.7226C84.9068 79.8481 84.7147 80.0049 84.5186 80.1931V84.4863H83.3424ZM88.4003 77.135C88.2592 77.135 88.1886 77.0683 88.1886 76.935V75.947C88.1886 75.8058 88.2592 75.7353 88.4003 75.7353H89.2707C89.3335 75.7353 89.3805 75.7549 89.4119 75.7941C89.4432 75.8333 89.4589 75.8843 89.4589 75.947V76.935C89.4589 77.0683 89.3962 77.135 89.2707 77.135H88.4003ZM88.2357 84.4863V78.1936H89.4119V84.4863H88.2357ZM93.5431 84.5569C92.8766 84.5569 92.3434 84.4589 91.9435 84.2628C91.5514 84.0668 91.2691 83.7375 91.0966 83.2748C90.9319 82.8043 90.8496 82.1574 90.8496 81.3341C90.8496 80.495 90.9319 79.8442 91.0966 79.3815C91.2691 78.9111 91.5514 78.5817 91.9435 78.3935C92.3356 78.2053 92.8649 78.1112 93.5314 78.1112C94.1117 78.1112 94.5782 78.174 94.9311 78.2994C95.2918 78.417 95.5545 78.6327 95.7192 78.9463C95.8917 79.2522 95.9779 79.6795 95.9779 80.2284C95.9779 80.6126 95.8995 80.9185 95.7427 81.1459C95.5937 81.3733 95.378 81.5379 95.0958 81.6399C94.8213 81.7418 94.492 81.7928 94.1077 81.7928H92.0258C92.0337 82.2476 92.0846 82.6122 92.1787 82.8867C92.2807 83.1533 92.4571 83.3493 92.708 83.4748C92.9668 83.5924 93.3432 83.6512 93.8372 83.6512H95.8015V84.3569C95.4643 84.404 95.1193 84.4471 94.7664 84.4863C94.4136 84.5334 94.0058 84.5569 93.5431 84.5569ZM92.0141 81.0518H94.0019C94.3155 81.0518 94.5469 80.993 94.6958 80.8753C94.8448 80.7577 94.9193 80.5421 94.9193 80.2284C94.9193 79.9148 94.8723 79.6678 94.7782 79.4874C94.6919 79.307 94.5469 79.1777 94.343 79.0992C94.1391 79.0208 93.8686 78.9816 93.5314 78.9816C93.1472 78.9816 92.8413 79.0404 92.6139 79.1581C92.3944 79.2757 92.2375 79.4835 92.1434 79.7815C92.0572 80.0794 92.0141 80.5029 92.0141 81.0518ZM97.4134 84.4863V78.1936H98.3543L98.5896 78.8758C98.8719 78.6719 99.2051 78.4915 99.5894 78.3347C99.9814 78.17 100.385 78.0877 100.801 78.0877C101.271 78.0877 101.648 78.1896 101.93 78.3935C102.22 78.5896 102.428 78.8522 102.553 79.1816C102.679 79.5109 102.742 79.8677 102.742 80.2519V84.4863H101.565V80.3931C101.565 80.1422 101.514 79.9265 101.413 79.7462C101.318 79.558 101.185 79.4129 101.013 79.311C100.84 79.209 100.628 79.1581 100.377 79.1581C100.142 79.1581 99.9226 79.1816 99.7188 79.2286C99.5227 79.2757 99.3345 79.3423 99.1542 79.4286C98.9738 79.507 98.7856 79.605 98.5896 79.7226V84.4863H97.4134ZM106.692 84.5569C106.323 84.5569 105.982 84.5099 105.669 84.4158C105.363 84.3138 105.092 84.1452 104.857 83.91C104.63 83.6747 104.453 83.3493 104.328 82.9337C104.202 82.5181 104.139 81.9927 104.139 81.3576C104.139 80.7067 104.198 80.1735 104.316 79.7579C104.434 79.3345 104.602 79.0052 104.822 78.7699C105.049 78.5268 105.324 78.3582 105.645 78.2641C105.967 78.17 106.327 78.123 106.727 78.123C107.057 78.123 107.402 78.1387 107.762 78.17C108.131 78.2014 108.488 78.2524 108.833 78.3229V79.0169H107.057C106.672 79.0169 106.351 79.0796 106.092 79.2051C105.833 79.3227 105.641 79.5541 105.516 79.8991C105.39 80.2363 105.327 80.7264 105.327 81.3694C105.327 81.9888 105.394 82.4672 105.527 82.8043C105.661 83.1337 105.853 83.3572 106.104 83.4748C106.363 83.5924 106.684 83.6512 107.068 83.6512H108.927V84.3217C108.746 84.3687 108.531 84.4118 108.28 84.451C108.037 84.4824 107.778 84.5059 107.503 84.5216C107.237 84.5451 106.966 84.5569 106.692 84.5569ZM112.599 84.5569C111.933 84.5569 111.4 84.4589 111 84.2628C110.608 84.0668 110.325 83.7375 110.153 83.2748C109.988 82.8043 109.906 82.1574 109.906 81.3341C109.906 80.495 109.988 79.8442 110.153 79.3815C110.325 78.9111 110.608 78.5817 111 78.3935C111.392 78.2053 111.921 78.1112 112.588 78.1112C113.168 78.1112 113.634 78.174 113.987 78.2994C114.348 78.417 114.611 78.6327 114.775 78.9463C114.948 79.2522 115.034 79.6795 115.034 80.2284C115.034 80.6126 114.956 80.9185 114.799 81.1459C114.65 81.3733 114.434 81.5379 114.152 81.6399C113.877 81.7418 113.548 81.7928 113.164 81.7928H111.082C111.09 82.2476 111.141 82.6122 111.235 82.8867C111.337 83.1533 111.513 83.3493 111.764 83.4748C112.023 83.5924 112.399 83.6512 112.893 83.6512H114.858V84.3569C114.52 84.404 114.175 84.4471 113.823 84.4863C113.47 84.5334 113.062 84.5569 112.599 84.5569ZM111.07 81.0518H113.058C113.372 81.0518 113.603 80.993 113.752 80.8753C113.901 80.7577 113.975 80.5421 113.975 80.2284C113.975 79.9148 113.928 79.6678 113.834 79.4874C113.748 79.307 113.603 79.1777 113.399 79.0992C113.195 79.0208 112.925 78.9816 112.588 78.9816C112.203 78.9816 111.897 79.0404 111.67 79.1581C111.45 79.2757 111.294 79.4835 111.2 79.7815C111.113 80.0794 111.07 80.5029 111.07 81.0518ZM119.394 84.4863L120.382 75.8176H121.558L123.769 83.0513L125.945 75.8176H127.133L128.145 84.4863H127.004L126.157 77.2643L126.357 77.2879L124.31 84.4863H123.217L121.135 77.2879L121.346 77.2761L120.535 84.4863H119.394ZM130.731 84.5569C130.268 84.5569 129.884 84.4197 129.578 84.1452C129.28 83.8629 129.131 83.4748 129.131 82.9808V82.4868C129.131 82.0006 129.296 81.6046 129.625 81.2988C129.962 80.9851 130.468 80.8283 131.142 80.8283H133.107V80.1696C133.107 79.9265 133.064 79.7226 132.977 79.558C132.899 79.3855 132.75 79.2561 132.53 79.1698C132.311 79.0836 131.985 79.0404 131.554 79.0404H129.625V78.3465C129.907 78.2837 130.237 78.2288 130.613 78.1818C130.997 78.1348 131.444 78.1073 131.954 78.0995C132.472 78.0995 132.903 78.1661 133.248 78.2994C133.601 78.4249 133.863 78.6366 134.036 78.9346C134.208 79.2247 134.295 79.6129 134.295 80.099V84.4863H133.365L133.166 83.7924C133.118 83.8237 133.02 83.8825 132.871 83.9688C132.722 84.0472 132.53 84.1335 132.295 84.2276C132.068 84.3217 131.817 84.4001 131.542 84.4628C131.276 84.5255 131.005 84.5569 130.731 84.5569ZM131.272 83.6983C131.389 83.7061 131.527 83.6943 131.683 83.663C131.848 83.6316 132.009 83.5963 132.166 83.5571C132.33 83.5101 132.479 83.463 132.613 83.416C132.754 83.3689 132.868 83.3297 132.954 83.2983C133.048 83.2591 133.099 83.2356 133.107 83.2278V81.4164L131.46 81.487C131.052 81.5105 130.758 81.6124 130.578 81.7928C130.405 81.9731 130.319 82.2084 130.319 82.4985V82.7808C130.319 83.0082 130.366 83.1925 130.46 83.3336C130.554 83.4669 130.672 83.561 130.813 83.6159C130.962 83.6708 131.115 83.6983 131.272 83.6983ZM135.893 84.4863V78.1936H136.834L137.069 78.8758C137.352 78.6719 137.685 78.4915 138.069 78.3347C138.461 78.17 138.865 78.0877 139.281 78.0877C139.751 78.0877 140.128 78.1896 140.41 78.3935C140.7 78.5896 140.908 78.8522 141.033 79.1816C141.159 79.5109 141.221 79.8677 141.221 80.2519V84.4863H140.045V80.3931C140.045 80.1422 139.994 79.9265 139.892 79.7462C139.798 79.558 139.665 79.4129 139.492 79.311C139.32 79.209 139.108 79.1581 138.857 79.1581C138.622 79.1581 138.402 79.1816 138.199 79.2286C138.003 79.2757 137.814 79.3423 137.634 79.4286C137.454 79.507 137.265 79.605 137.069 79.7226V84.4863H135.893ZM144.09 84.5569C143.627 84.5569 143.243 84.4197 142.937 84.1452C142.639 83.8629 142.49 83.4748 142.49 82.9808V82.4868C142.49 82.0006 142.655 81.6046 142.984 81.2988C143.321 80.9851 143.827 80.8283 144.501 80.8283H146.466V80.1696C146.466 79.9265 146.422 79.7226 146.336 79.558C146.258 79.3855 146.109 79.2561 145.889 79.1698C145.67 79.0836 145.344 79.0404 144.913 79.0404H142.984V78.3465C143.266 78.2837 143.596 78.2288 143.972 78.1818C144.356 78.1348 144.803 78.1073 145.313 78.0995C145.83 78.0995 146.262 78.1661 146.607 78.2994C146.96 78.4249 147.222 78.6366 147.395 78.9346C147.567 79.2247 147.654 79.6129 147.654 80.099V84.4863H146.724L146.524 83.7924C146.477 83.8237 146.379 83.8825 146.23 83.9688C146.081 84.0472 145.889 84.1335 145.654 84.2276C145.427 84.3217 145.176 84.4001 144.901 84.4628C144.635 84.5255 144.364 84.5569 144.09 84.5569ZM144.631 83.6983C144.748 83.7061 144.885 83.6943 145.042 83.663C145.207 83.6316 145.368 83.5963 145.525 83.5571C145.689 83.5101 145.838 83.463 145.972 83.416C146.113 83.3689 146.226 83.3297 146.313 83.2983C146.407 83.2591 146.458 83.2356 146.466 83.2278V81.4164L144.819 81.487C144.411 81.5105 144.117 81.6124 143.937 81.7928C143.764 81.9731 143.678 82.2084 143.678 82.4985V82.7808C143.678 83.0082 143.725 83.1925 143.819 83.3336C143.913 83.4669 144.031 83.561 144.172 83.6159C144.321 83.6708 144.474 83.6983 144.631 83.6983ZM150.816 87.3798C150.416 87.3798 150.06 87.321 149.746 87.2034C149.44 87.0936 149.197 86.9211 149.017 86.6859C148.836 86.4585 148.746 86.1762 148.746 85.839V85.5802C148.746 85.2273 148.844 84.9294 149.04 84.6863C149.244 84.451 149.499 84.2707 149.805 84.1452C150.111 84.0198 150.428 83.957 150.758 83.957L151.075 84.3922C150.863 84.3922 150.663 84.4236 150.475 84.4863C150.295 84.5569 150.146 84.6628 150.028 84.8039C149.918 84.9529 149.864 85.1411 149.864 85.3685V85.592C149.864 85.9213 149.973 86.1605 150.193 86.3095C150.42 86.4585 150.73 86.5329 151.122 86.5329H152.498C152.914 86.5329 153.243 86.4506 153.486 86.2859C153.729 86.1291 153.851 85.8821 153.851 85.5449V85.3214C153.851 85.1332 153.808 84.9686 153.722 84.8274C153.643 84.6863 153.514 84.5765 153.333 84.4981C153.153 84.4275 152.906 84.3922 152.592 84.3922H150.852C150.295 84.3922 149.871 84.2785 149.581 84.0511C149.291 83.8237 149.146 83.5375 149.146 83.1925C149.146 82.8788 149.236 82.6279 149.417 82.4397C149.605 82.2437 149.868 82.1104 150.205 82.0398C149.922 81.9143 149.699 81.7536 149.534 81.5575C149.377 81.3615 149.268 81.1498 149.205 80.9224C149.142 80.6871 149.111 80.4519 149.111 80.2167C149.111 79.7383 149.209 79.3502 149.405 79.0522C149.601 78.7542 149.883 78.5347 150.252 78.3935C150.628 78.2524 151.075 78.1818 151.593 78.1818H154.98V78.8522L153.698 78.9816C153.792 79.0522 153.894 79.1463 154.004 79.2639C154.114 79.3737 154.208 79.5266 154.286 79.7226C154.365 79.9187 154.404 80.1774 154.404 80.4989C154.404 80.8361 154.329 81.1498 154.18 81.4399C154.039 81.7301 153.804 81.9653 153.475 82.1457C153.153 82.326 152.714 82.4162 152.157 82.4162H151.122C150.824 82.4162 150.589 82.4593 150.416 82.5456C150.244 82.6318 150.158 82.7847 150.158 83.0043C150.158 83.1846 150.224 83.3101 150.358 83.3807C150.491 83.4513 150.632 83.4865 150.781 83.4865H152.769C153.247 83.4865 153.647 83.5493 153.969 83.6747C154.298 83.8002 154.545 83.9923 154.71 84.2511C154.874 84.5099 154.957 84.847 154.957 85.2626V85.4861C154.957 86.0821 154.761 86.5447 154.369 86.8741C153.984 87.2112 153.4 87.3798 152.616 87.3798H150.816ZM151.334 81.5105H152.028C152.381 81.5105 152.647 81.4595 152.828 81.3576C153.016 81.2478 153.145 81.1067 153.216 80.9341C153.286 80.7616 153.322 80.5695 153.322 80.3578C153.322 80.0441 153.271 79.7971 153.169 79.6168C153.067 79.4286 152.926 79.2953 152.745 79.2169C152.573 79.1306 152.361 79.0875 152.11 79.0875H151.451C151.052 79.0875 150.738 79.1777 150.511 79.358C150.291 79.5384 150.181 79.8481 150.181 80.2872C150.181 80.7185 150.283 81.0322 150.487 81.2282C150.691 81.4164 150.973 81.5105 151.334 81.5105ZM158.534 84.5569C157.867 84.5569 157.334 84.4589 156.934 84.2628C156.542 84.0668 156.26 83.7375 156.087 83.2748C155.923 82.8043 155.84 82.1574 155.84 81.3341C155.84 80.495 155.923 79.8442 156.087 79.3815C156.26 78.9111 156.542 78.5817 156.934 78.3935C157.326 78.2053 157.856 78.1112 158.522 78.1112C159.102 78.1112 159.569 78.174 159.922 78.2994C160.282 78.417 160.545 78.6327 160.71 78.9463C160.882 79.2522 160.969 79.6795 160.969 80.2284C160.969 80.6126 160.89 80.9185 160.733 81.1459C160.584 81.3733 160.369 81.5379 160.086 81.6399C159.812 81.7418 159.483 81.7928 159.098 81.7928H157.016C157.024 82.2476 157.075 82.6122 157.169 82.8867C157.271 83.1533 157.448 83.3493 157.699 83.4748C157.957 83.5924 158.334 83.6512 158.828 83.6512H160.792V84.3569C160.455 84.404 160.11 84.4471 159.757 84.4863C159.404 84.5334 158.996 84.5569 158.534 84.5569ZM157.005 81.0518H158.993C159.306 81.0518 159.538 80.993 159.686 80.8753C159.835 80.7577 159.91 80.5421 159.91 80.2284C159.91 79.9148 159.863 79.6678 159.769 79.4874C159.683 79.307 159.538 79.1777 159.334 79.0992C159.13 79.0208 158.859 78.9816 158.522 78.9816C158.138 78.9816 157.832 79.0404 157.605 79.1581C157.385 79.2757 157.228 79.4835 157.134 79.7815C157.048 80.0794 157.005 80.5029 157.005 81.0518ZM162.404 84.4863V78.1936H163.345L163.58 78.8758C163.886 78.664 164.223 78.4798 164.592 78.3229C164.96 78.1661 165.384 78.0877 165.862 78.0877C166.254 78.0877 166.587 78.174 166.862 78.3465C167.136 78.519 167.344 78.7385 167.485 79.0052C167.673 78.864 167.901 78.7229 168.167 78.5817C168.434 78.4406 168.72 78.3229 169.026 78.2288C169.332 78.1348 169.626 78.0877 169.908 78.0877C170.379 78.0877 170.759 78.1857 171.049 78.3818C171.347 78.57 171.559 78.8326 171.684 79.1698C171.818 79.4992 171.884 79.8756 171.884 80.299V84.4863H170.708V80.3931C170.708 80.1422 170.657 79.9265 170.555 79.7462C170.461 79.558 170.324 79.4129 170.144 79.311C169.971 79.209 169.759 79.1581 169.508 79.1581C169.195 79.1581 168.873 79.2208 168.544 79.3463C168.215 79.4639 167.913 79.6089 167.638 79.7815C167.67 79.8834 167.693 79.9893 167.709 80.099C167.724 80.201 167.732 80.3029 167.732 80.4049V84.4863H166.556V80.3931C166.556 80.1422 166.505 79.9265 166.403 79.7462C166.309 79.558 166.176 79.4129 166.003 79.311C165.831 79.209 165.619 79.1581 165.368 79.1581C165.133 79.1581 164.913 79.1816 164.709 79.2286C164.513 79.2757 164.325 79.3423 164.145 79.4286C163.964 79.507 163.776 79.605 163.58 79.7226V84.4863H162.404ZM175.982 84.5569C175.315 84.5569 174.782 84.4589 174.382 84.2628C173.99 84.0668 173.708 83.7375 173.535 83.2748C173.371 82.8043 173.288 82.1574 173.288 81.3341C173.288 80.495 173.371 79.8442 173.535 79.3815C173.708 78.9111 173.99 78.5817 174.382 78.3935C174.774 78.2053 175.304 78.1112 175.97 78.1112C176.55 78.1112 177.017 78.174 177.37 78.2994C177.73 78.417 177.993 78.6327 178.158 78.9463C178.33 79.2522 178.417 79.6795 178.417 80.2284C178.417 80.6126 178.338 80.9185 178.181 81.1459C178.032 81.3733 177.817 81.5379 177.534 81.6399C177.26 81.7418 176.931 81.7928 176.546 81.7928H174.464C174.472 82.2476 174.523 82.6122 174.617 82.8867C174.719 83.1533 174.896 83.3493 175.147 83.4748C175.405 83.5924 175.782 83.6512 176.276 83.6512H178.24V84.3569C177.903 84.404 177.558 84.4471 177.205 84.4863C176.852 84.5334 176.444 84.5569 175.982 84.5569ZM174.453 81.0518H176.441C176.754 81.0518 176.985 80.993 177.134 80.8753C177.283 80.7577 177.358 80.5421 177.358 80.2284C177.358 79.9148 177.311 79.6678 177.217 79.4874C177.131 79.307 176.985 79.1777 176.782 79.0992C176.578 79.0208 176.307 78.9816 175.97 78.9816C175.586 78.9816 175.28 79.0404 175.053 79.1581C174.833 79.2757 174.676 79.4835 174.582 79.7815C174.496 80.0794 174.453 80.5029 174.453 81.0518ZM179.852 84.4863V78.1936H180.793L181.028 78.8758C181.311 78.6719 181.644 78.4915 182.028 78.3347C182.42 78.17 182.824 78.0877 183.24 78.0877C183.71 78.0877 184.086 78.1896 184.369 78.3935C184.659 78.5896 184.867 78.8522 184.992 79.1816C185.118 79.5109 185.18 79.8677 185.18 80.2519V84.4863H184.004V80.3931C184.004 80.1422 183.953 79.9265 183.851 79.7462C183.757 79.558 183.624 79.4129 183.451 79.311C183.279 79.209 183.067 79.1581 182.816 79.1581C182.581 79.1581 182.361 79.1816 182.157 79.2286C181.961 79.2757 181.773 79.3423 181.593 79.4286C181.412 79.507 181.224 79.605 181.028 79.7226V84.4863H179.852ZM188.966 84.4863C188.542 84.4863 188.19 84.4197 187.907 84.2864C187.633 84.1452 187.429 83.9217 187.296 83.6159C187.17 83.3101 187.111 82.9024 187.119 82.3927L187.166 79.1581H186.166V78.3935L187.19 78.1936L187.366 76.4292H188.295V78.1936H190.001V79.1581H188.295V82.3809C188.295 82.624 188.319 82.82 188.366 82.969C188.413 83.118 188.48 83.2317 188.566 83.3101C188.652 83.3885 188.746 83.4473 188.848 83.4865C188.95 83.5179 189.048 83.5375 189.142 83.5454L189.919 83.6159V84.4863H188.966Z" fill="white"/>
<path d="M157.905 0C159.13 0.176915 160.373 0.282855 161.584 0.541016C175.464 3.51158 184.446 11.8284 188.471 25.4248C189.064 27.4288 189.196 29.5694 189.544 31.6455C189.58 31.8629 189.621 32.0772 189.662 32.292V36.1621C189.504 37.3457 189.378 38.5348 189.189 39.7119V39.7109C188.609 43.3354 187.442 46.7657 185.756 50.0244C185.63 50.2682 185.592 50.6249 185.662 50.8896C186.929 55.686 188.216 60.4764 189.502 65.2676C189.511 65.2976 189.518 65.3284 189.527 65.3584C189.556 65.459 189.616 65.5534 189.662 65.6514V66.7188C189.359 67.4842 188.822 68.0149 188.059 68.3203H186.992C186.879 68.2889 186.766 68.257 186.653 68.2256C185.127 67.7983 183.603 67.3621 182.073 66.9453C178.84 66.0684 175.606 65.1931 172.364 64.3516C172.024 64.2625 171.566 64.3109 171.252 64.4707C167.048 66.6231 162.602 67.8975 157.884 68.2109C157.712 68.2214 157.541 68.2823 157.371 68.3203H153.768C152.45 68.1499 151.123 68.0298 149.815 67.8018C141.174 66.2982 134.078 62.1215 128.653 55.2422C123.41 48.5934 121.028 40.9606 121.374 32.5107C122.012 16.9979 133.534 3.62142 148.764 0.667969C150.242 0.382244 151.745 0.220203 153.235 0H157.905Z" fill="#FCBB1B"/>
<path d="M17.4292 54.9007C16.4605 54.9007 15.4585 54.8673 14.423 54.8005C13.421 54.7671 12.3855 54.7003 11.3167 54.6001C10.2812 54.4665 9.29589 54.3329 8.36065 54.1993C7.4254 54.0323 6.57367 53.8486 5.80543 53.6482V47.7862C6.80748 47.8864 7.94313 47.9699 9.21239 48.0367C10.4816 48.1035 11.801 48.1536 13.1705 48.187C14.5399 48.2204 15.8426 48.2371 17.0784 48.2371C18.3477 48.2371 19.4333 48.1369 20.3351 47.9365C21.2703 47.7027 21.9885 47.3186 22.4895 46.7841C22.9905 46.2163 23.241 45.4481 23.241 44.4794V43.1267C23.241 42.0244 22.907 41.1894 22.239 40.6216C21.6044 40.0203 20.6858 39.7197 19.4834 39.7197H16.3269C12.7864 39.7197 10.0641 38.9515 8.16024 37.415C6.28975 35.8451 5.35451 33.1897 5.35451 29.4487V27.6451C5.35451 24.0377 6.38996 21.399 8.46085 19.7289C10.5317 18.0588 13.4878 17.2238 17.329 17.2238C18.6984 17.2238 20.0512 17.2906 21.3872 17.4242C22.7567 17.5578 24.0594 17.7248 25.2952 17.9252C26.5645 18.0922 27.65 18.2759 28.5519 18.4763V24.3383C27.0154 24.2381 25.2952 24.1379 23.3913 24.0377C21.5209 23.9375 19.784 23.8874 18.1807 23.8874C17.045 23.8874 16.0263 24.0043 15.1245 24.2381C14.256 24.4385 13.588 24.8393 13.1204 25.4406C12.6527 26.0418 12.4189 26.8935 12.4189 27.9958V28.9978C12.4189 30.3005 12.7864 31.2357 13.5212 31.8036C14.256 32.3714 15.3416 32.6553 16.7778 32.6553H20.4353C22.6732 32.6553 24.5103 33.0728 25.9466 33.9079C27.4162 34.7095 28.5018 35.8284 29.2032 37.2647C29.938 38.701 30.3055 40.3376 30.3055 42.1747V44.279C30.3055 47.185 29.7543 49.4062 28.6521 50.9426C27.5832 52.4791 26.0802 53.5312 24.1429 54.0991C22.239 54.6335 20.0011 54.9007 17.4292 54.9007ZM46.7323 54.8506C43.7596 54.8506 41.3881 54.4665 39.6178 53.6983C37.8475 52.8966 36.5616 51.4938 35.7599 49.4897C34.9917 47.4856 34.6076 44.7132 34.6076 41.1727C34.6076 37.5319 34.975 34.7095 35.7098 32.7054C36.4447 30.7013 37.6805 29.2984 39.4174 28.4968C41.1543 27.6952 43.5091 27.2943 46.4818 27.2943C49.154 27.2943 51.2917 27.5616 52.8949 28.096C54.4982 28.6304 55.6506 29.5657 56.352 30.9017C57.0868 32.2378 57.4542 34.125 57.4542 36.5633C57.4542 38.367 57.0868 39.8032 56.352 40.8721C55.6506 41.9075 54.6485 42.6591 53.3459 43.1267C52.0432 43.5609 50.5067 43.778 48.7364 43.778H41.9726C42.0394 45.1475 42.2398 46.2497 42.5739 47.0848C42.9413 47.8864 43.5926 48.4709 44.5278 48.8383C45.4965 49.1723 46.8827 49.3394 48.6863 49.3394H56.5524V53.6983C55.2497 53.9655 53.8135 54.2327 52.2436 54.4999C50.7071 54.7337 48.87 54.8506 46.7323 54.8506ZM41.8724 39.369H47.9849C48.987 39.369 49.7218 39.1686 50.1894 38.7678C50.657 38.367 50.8908 37.6488 50.8908 36.6134C50.8908 35.6447 50.7405 34.8765 50.4399 34.3087C50.1393 33.7074 49.6717 33.2899 49.0371 33.0561C48.4024 32.7889 47.5507 32.6553 46.4818 32.6553C45.3462 32.6553 44.4443 32.8557 43.7763 33.2565C43.1083 33.6239 42.624 34.292 42.3233 35.2606C42.0227 36.2293 41.8724 37.5987 41.8724 39.369ZM62.3196 54.6001V27.6952H68.4321L69.7348 30.4508C70.7368 29.6158 71.9894 28.8809 73.4925 28.2463C75.0289 27.5783 76.5988 27.2442 78.2021 27.2442C80.4066 27.2442 82.11 27.6785 83.3125 28.5469C84.515 29.4153 85.35 30.5844 85.8176 32.0541C86.3186 33.4903 86.5691 35.0936 86.5691 36.8639V54.6001H79.154V37.8158C79.154 36.9474 78.987 36.2293 78.653 35.6614C78.3524 35.0936 77.9182 34.6594 77.3503 34.3588C76.7825 34.0582 76.0978 33.9079 75.2961 33.9079C74.5947 33.9079 73.91 33.9914 73.2419 34.1584C72.6073 34.3254 71.9894 34.5592 71.3882 34.8598C70.8203 35.1604 70.2692 35.5111 69.7348 35.9119V54.6001H62.3196ZM102.338 54.6001C100.267 54.6001 98.58 54.2995 97.2773 53.6983C96.0081 53.097 95.0895 52.095 94.5217 50.6921C93.9539 49.2893 93.7034 47.4021 93.7702 45.0306L94.0207 33.6573H89.8121V28.8976L94.2712 27.6952L95.2732 20.1798H101.135V27.6952H107.448V33.6573H101.135V44.9805C101.135 45.7153 101.202 46.3165 101.336 46.7841C101.469 47.2518 101.653 47.6359 101.887 47.9365C102.154 48.2037 102.455 48.4041 102.789 48.5377C103.123 48.6713 103.457 48.7548 103.791 48.7882L107.198 49.0888V54.6001H102.338ZM112.492 23.7371C111.791 23.7371 111.44 23.4031 111.44 22.735V17.825C111.44 17.1236 111.791 16.7729 112.492 16.7729H118.204C118.504 16.7729 118.738 16.8731 118.905 17.0735C119.072 17.2739 119.156 17.5244 119.156 17.825V22.735C119.156 23.4031 118.838 23.7371 118.204 23.7371H112.492ZM111.59 54.6001V27.6952H119.005V54.6001H111.59Z" fill="white"/>
<path d="M137.529 54.9007C135.358 54.9007 133.437 54.6502 131.767 54.1492C130.131 53.6482 128.728 52.7296 127.559 51.3936C126.423 50.0575 125.555 48.1536 124.953 45.6819C124.386 43.1768 124.102 39.9368 124.102 35.962C124.102 32.1209 124.402 28.9811 125.003 26.5428C125.638 24.0711 126.54 22.1672 127.709 20.8312C128.878 19.4617 130.298 18.5097 131.968 17.9753C133.638 17.4409 135.525 17.1737 137.629 17.1737C139.299 17.1737 140.853 17.2739 142.289 17.4743C143.758 17.6413 145.078 17.8584 146.247 18.1256C147.416 18.3594 148.401 18.6267 149.203 18.9273V24.689C148.602 24.5554 147.783 24.4218 146.748 24.2882C145.746 24.1546 144.593 24.0544 143.291 23.9876C141.988 23.8874 140.619 23.8373 139.182 23.8373C137.78 23.8373 136.577 24.0043 135.575 24.3383C134.606 24.6389 133.821 25.2235 133.22 26.0919C132.652 26.9269 132.218 28.1461 131.918 29.7494C131.65 31.3526 131.517 33.4402 131.517 36.0121C131.517 38.4839 131.634 40.5214 131.867 42.1246C132.135 43.7279 132.552 44.9805 133.12 45.8823C133.688 46.7507 134.456 47.3687 135.425 47.7361C136.427 48.0701 137.679 48.2371 139.182 48.2371C141.721 48.2371 143.775 48.187 145.345 48.0868C146.948 47.9866 148.234 47.8697 149.203 47.7361V53.4477C148.301 53.7484 147.266 54.0156 146.097 54.2494C144.927 54.4498 143.642 54.6001 142.239 54.7003C140.836 54.8339 139.266 54.9007 137.529 54.9007ZM175.203 54.6001L152.056 17.5244H160.272L183.42 54.6001H175.203ZM152.206 54.6001L164.631 34.3588L168.439 40.6216L160.423 54.6001H152.206ZM170.944 38.2166L167.186 31.9539L175.403 17.5244H183.57L170.944 38.2166Z" fill="#003B6D"/>
</svg>
