<svg width="239" height="89" viewBox="0 0 239 89" fill="none" xmlns="http://www.w3.org/2000/svg">
<path d="M197.481 0.247559C199.059 0.475482 200.659 0.61224 202.219 0.944824C220.099 4.77128 231.67 15.4841 236.854 32.9985C237.618 35.5804 237.787 38.3384 238.236 41.0132C238.283 41.2935 238.335 41.5693 238.388 41.8462V46.8306C238.185 48.3554 238.022 49.8874 237.779 51.4038L237.63 52.2739C236.841 56.6221 235.393 60.7523 233.357 64.688C233.194 65.0019 233.145 65.4612 233.235 65.8022C234.867 71.981 236.526 78.1517 238.182 84.3237C238.194 84.3625 238.202 84.4012 238.214 84.4399C238.251 84.5699 238.329 84.6922 238.388 84.8188V86.1929C237.997 87.1789 237.307 87.8629 236.324 88.2563H234.948C234.803 88.2159 234.657 88.1738 234.512 88.1333C232.546 87.5828 230.583 87.0218 228.613 86.4849C224.448 85.3552 220.282 84.2271 216.106 83.1431C215.668 83.0283 215.076 83.0914 214.672 83.2974C209.257 86.0699 203.53 87.7112 197.451 88.1147C197.23 88.1283 197.012 88.2074 196.792 88.2563H192.152C190.453 88.0368 188.744 87.8812 187.059 87.5874C175.927 85.6505 166.788 80.2706 159.799 71.4087C153.045 62.8439 149.976 53.0124 150.421 42.1274C151.243 22.1442 166.086 4.91355 185.705 1.10889C187.608 0.740792 189.544 0.531215 191.464 0.247559H197.481Z" fill="#FCBB1B"/>
<path d="M174.18 64.06C173.382 64.06 172.466 63.9768 171.435 63.8104C170.403 63.6773 169.405 63.3445 168.44 62.812C167.508 62.2795 166.726 61.4808 166.093 60.4159C165.494 59.3177 165.195 57.8201 165.195 55.9231V35.3065C165.195 33.6758 165.444 32.3113 165.944 31.2131C166.443 30.1149 167.108 29.2496 167.94 28.6173C168.772 27.985 169.688 27.5357 170.686 27.2695C171.684 27.0032 172.666 26.8701 173.631 26.8701C176.127 26.8701 178.324 26.9034 180.221 26.97C182.151 27.0365 183.881 27.1197 185.412 27.2196C186.943 27.2861 188.341 27.3859 189.605 27.5191V33.7091H175.828C174.796 33.7091 173.997 33.9587 173.432 34.4579C172.866 34.957 172.583 35.7225 172.583 36.7541V42.0955L187.209 42.4949V48.3354L172.583 48.7348V53.8265C172.583 54.6918 172.716 55.374 172.982 55.8732C173.282 56.3391 173.664 56.6719 174.13 56.8716C174.63 57.038 175.145 57.1212 175.678 57.1212H189.605V63.3112C188.141 63.4776 186.51 63.6107 184.713 63.7106C182.949 63.8104 181.152 63.8936 179.322 63.9602C177.525 64.0267 175.811 64.06 174.18 64.06Z" fill="white"/>
<path d="M215.697 63.8104L192.634 26.8701H200.821L223.884 63.8104H215.697ZM192.784 63.8104L205.164 43.643L208.958 49.8829L200.971 63.8104H192.784ZM211.454 47.4868L207.71 41.2469L215.897 26.8701H224.034L211.454 47.4868Z" fill="white"/>
<path d="M16.5229 70.1395C15.2752 70.1395 13.9843 70.0965 12.6505 70.0104C11.3597 69.9674 10.0259 69.8813 8.64903 69.7522C7.3152 69.5801 6.04591 69.408 4.84116 69.2359C3.63641 69.0208 2.53923 68.7841 1.54961 68.526V60.9748C2.84041 61.1039 4.30333 61.2114 5.93834 61.2975C7.57336 61.3835 9.27292 61.4481 11.037 61.4911C12.8011 61.5341 14.4792 61.5556 16.0711 61.5556C17.7062 61.5556 19.1045 61.4266 20.2663 61.1684C21.471 60.8672 22.3961 60.3724 23.0415 59.684C23.6869 58.9525 24.0096 57.9629 24.0096 56.7151V54.9725C24.0096 53.5527 23.5793 52.477 22.7188 51.7455C21.9013 50.9711 20.718 50.5838 19.1691 50.5838H15.103C10.5422 50.5838 7.03553 49.5942 4.583 47.615C2.1735 45.5927 0.96875 42.1721 0.96875 37.3531V35.0296C0.96875 30.3827 2.30258 26.9836 4.97024 24.8323C7.6379 22.6809 11.4458 21.6053 16.3939 21.6053C18.1579 21.6053 19.9005 21.6913 21.6216 21.8634C23.3857 22.0355 25.0637 22.2507 26.6557 22.5088C28.2908 22.724 29.6891 22.9606 30.8508 23.2188V30.77C28.8716 30.6409 26.6557 30.5118 24.2032 30.3827C21.7937 30.2537 19.5563 30.1891 17.491 30.1891C16.0281 30.1891 14.7158 30.3397 13.5541 30.6409C12.4354 30.8991 11.5748 31.4154 10.9725 32.1899C10.3701 32.9643 10.0689 34.0615 10.0689 35.4814V36.7722C10.0689 38.4503 10.5422 39.655 11.4888 40.3865C12.4354 41.1179 13.8338 41.4836 15.6839 41.4836H20.3953C23.2781 41.4836 25.6446 42.0215 27.4948 43.0972C29.3879 44.1298 30.7863 45.5712 31.6899 47.4213C32.6365 49.2715 33.1098 51.3798 33.1098 53.7463V56.457C33.1098 60.2003 32.3998 63.0616 30.9799 65.0408C29.6031 67.02 27.6669 68.3754 25.1713 69.1068C22.7188 69.7953 19.836 70.1395 16.5229 70.1395Z" fill="url(#paint0_linear_357_320)"/>
<path d="M54.2704 70.0749C50.441 70.0749 47.3861 69.5801 45.1056 68.5905C42.8252 67.5579 41.1687 65.7508 40.1361 63.1691C39.1464 60.5875 38.6516 57.0163 38.6516 52.4555C38.6516 47.7656 39.1249 44.1298 40.0715 41.5482C41.0181 38.9666 42.6101 37.1595 44.8475 36.1268C47.0849 35.0942 50.1183 34.5779 53.9477 34.5779C57.3898 34.5779 60.1435 34.9221 62.2088 35.6105C64.2741 36.2989 65.7585 37.5037 66.6621 39.2247C67.6087 40.9458 68.0819 43.3768 68.0819 46.5178C68.0819 48.8412 67.6087 50.6914 66.6621 52.0682C65.7585 53.4021 64.4677 54.3702 62.7897 54.9725C61.1116 55.5319 59.1324 55.8116 56.852 55.8116H48.139C48.2251 57.5757 48.4833 58.9955 48.9135 60.0712C49.3868 61.1039 50.2258 61.8568 51.4306 62.3301C52.6784 62.7604 54.464 62.9755 56.7874 62.9755H66.9202V68.5905C65.2422 68.9347 63.392 69.2789 61.3698 69.6232C59.3905 69.9243 57.0241 70.0749 54.2704 70.0749ZM48.01 50.132H55.8839C57.1747 50.132 58.1213 49.8739 58.7236 49.3575C59.326 48.8412 59.6272 47.9162 59.6272 46.5823C59.6272 45.3345 59.4336 44.3449 59.0463 43.6135C58.6591 42.839 58.0567 42.3012 57.2392 42C56.4217 41.6558 55.3245 41.4836 53.9477 41.4836C52.4847 41.4836 51.323 41.7418 50.4625 42.2581C49.6019 42.7314 48.9781 43.592 48.5908 44.8397C48.2036 46.0875 48.01 47.8516 48.01 50.132Z" fill="url(#paint1_linear_357_320)"/>
<path d="M74.3494 69.7522V35.0942H82.2233L83.9014 38.6439C85.1922 37.5682 86.8057 36.6216 88.7419 35.8041C90.7211 34.9436 92.7434 34.5133 94.8086 34.5133C97.6484 34.5133 99.8428 35.0727 101.392 36.1914C102.941 37.3101 104.016 38.816 104.619 40.7092C105.264 42.5593 105.587 44.6246 105.587 46.905V69.7522H96.0349V48.1313C96.0349 47.0126 95.8198 46.0875 95.3895 45.3561C95.0023 44.6246 94.4429 44.0653 93.7115 43.678C92.98 43.2908 92.0979 43.0972 91.0653 43.0972C90.1617 43.0972 89.2797 43.2047 88.4192 43.4199C87.6017 43.635 86.8057 43.9362 86.0312 44.3234C85.2997 44.7107 84.5898 45.1624 83.9014 45.6788V69.7522H74.3494Z" fill="url(#paint2_linear_357_320)"/>
<path d="M125.899 69.7522C123.232 69.7522 121.059 69.365 119.381 68.5905C117.746 67.816 116.563 66.5252 115.831 64.7181C115.1 62.911 114.777 60.48 114.863 57.4251L115.186 42.7745H109.764V36.6431L115.508 35.0942L116.799 25.4131H124.35V35.0942H132.482V42.7745H124.35V57.3605C124.35 58.3071 124.436 59.0816 124.609 59.684C124.781 60.2864 125.017 60.7812 125.318 61.1684C125.663 61.5126 126.05 61.7708 126.48 61.9429C126.91 62.115 127.341 62.2226 127.771 62.2656L132.16 62.6528V69.7522H125.899Z" fill="url(#paint3_linear_357_320)"/>
<path d="M138.98 29.9955C138.076 29.9955 137.624 29.5652 137.624 28.7047V22.3798C137.624 21.4762 138.076 21.0244 138.98 21.0244H146.337C146.725 21.0244 147.026 21.1535 147.241 21.4117C147.456 21.6698 147.564 21.9925 147.564 22.3798V28.7047C147.564 29.5652 147.155 29.9955 146.337 29.9955H138.98ZM137.818 69.7522V35.0942H147.37V69.7522H137.818Z" fill="url(#paint4_linear_357_320)"/>
<defs>
<linearGradient id="paint0_linear_357_320" x1="16.2009" y1="21.0244" x2="105.117" y2="71.0226" gradientUnits="userSpaceOnUse">
<stop stop-color="#003B6D"/>
<stop offset="1" stop-color="#0072D3"/>
</linearGradient>
<linearGradient id="paint1_linear_357_320" x1="16.2009" y1="21.0244" x2="105.117" y2="71.0226" gradientUnits="userSpaceOnUse">
<stop stop-color="#003B6D"/>
<stop offset="1" stop-color="#0072D3"/>
</linearGradient>
<linearGradient id="paint2_linear_357_320" x1="16.2009" y1="21.0244" x2="105.117" y2="71.0226" gradientUnits="userSpaceOnUse">
<stop stop-color="#003B6D"/>
<stop offset="1" stop-color="#0072D3"/>
</linearGradient>
<linearGradient id="paint3_linear_357_320" x1="16.2009" y1="21.0244" x2="105.117" y2="71.0226" gradientUnits="userSpaceOnUse">
<stop stop-color="#003B6D"/>
<stop offset="1" stop-color="#0072D3"/>
</linearGradient>
<linearGradient id="paint4_linear_357_320" x1="16.2009" y1="21.0244" x2="105.117" y2="71.0226" gradientUnits="userSpaceOnUse">
<stop stop-color="#003B6D"/>
<stop offset="1" stop-color="#0072D3"/>
</linearGradient>
</defs>
</svg>
