<svg width="306" height="344" viewBox="0 0 306 344" fill="none" xmlns="http://www.w3.org/2000/svg">
<path fill-rule="evenodd" clip-rule="evenodd" d="M97.5544 251.725C115.987 245.293 137.664 243.684 152.675 243.684C167.691 243.684 189.367 245.293 207.798 251.725C213.674 253.775 219.219 256.315 224.114 259.449C235.728 266.886 243.678 277.668 243.678 293.184C243.678 335.836 183.853 342.567 152.675 342.567C121.63 342.567 61.6719 335.658 61.6719 293.184C61.6719 277.62 69.6738 266.819 81.3487 259.38C86.2167 256.278 91.7231 253.76 97.5544 251.725ZM152.675 334.687C121.263 334.687 95.7981 327.047 95.7981 317.624C95.7981 316.048 96.51 314.522 97.8427 313.074C104.48 305.859 126.515 300.561 152.675 300.561C178.835 300.561 200.87 305.859 207.507 313.074C208.84 314.522 209.552 316.048 209.552 317.624C209.552 327.047 184.087 334.687 152.675 334.687ZM207.507 313.074C208.84 314.522 209.552 316.048 209.552 317.624C209.552 327.047 184.087 334.687 152.675 334.687C121.263 334.687 95.7981 327.047 95.7981 317.624C95.7981 316.048 96.51 314.522 97.8427 313.074C104.48 305.859 126.515 300.561 152.675 300.561C178.835 300.561 200.87 305.859 207.507 313.074Z" fill="#FCBB1B"/>
<path fill-rule="evenodd" clip-rule="evenodd" d="M228.513 236.095C228.513 233.994 227.564 231.959 225.787 230.028C216.937 220.408 187.557 213.344 152.677 213.344C117.798 213.344 88.4177 220.408 79.5676 230.028C77.7908 231.959 76.8414 233.994 76.8414 236.095C76.8414 242.145 84.7152 247.645 97.5568 251.72C115.989 245.288 137.666 243.678 152.677 243.678C167.694 243.678 189.37 245.288 207.8 251.719C220.64 247.644 228.513 242.145 228.513 236.095ZM225.787 230.028C227.564 231.959 228.513 233.994 228.513 236.095C228.513 242.145 220.64 247.644 207.8 251.719C213.676 253.769 219.221 256.31 224.116 259.444C251.475 250.435 274.015 233.738 274.015 203.509C274.015 179.466 259.698 163.949 240.035 154.049C232.788 150.401 224.815 147.515 216.564 145.246C194.356 139.14 170.139 137.508 152.677 137.508C135.221 137.508 111.004 139.141 88.7938 145.247C80.6034 147.499 72.6859 150.36 65.4807 153.971C45.7355 163.867 31.3398 179.402 31.3398 203.509C31.3398 233.628 53.952 250.333 81.351 259.374C86.2191 256.273 91.7255 253.755 97.5568 251.72C84.7152 247.645 76.8414 242.145 76.8414 236.095C76.8414 233.994 77.7908 231.959 79.5676 230.028C88.4177 220.408 117.798 213.344 152.677 213.344C187.557 213.344 216.937 220.408 225.787 230.028Z" fill="#DA4436"/>
<path fill-rule="evenodd" clip-rule="evenodd" d="M247.467 124.233C247.467 121.607 246.28 119.064 244.059 116.65C232.996 104.625 196.271 95.795 152.672 95.795C109.072 95.795 72.3473 104.625 61.2848 116.65C59.0636 119.064 57.877 121.607 57.877 124.233C57.877 132.556 69.7941 140.044 88.7884 145.244C110.999 139.138 135.216 137.505 152.672 137.505C170.134 137.505 194.35 139.137 216.559 145.243C235.552 140.043 247.467 132.556 247.467 124.233ZM244.059 116.65C246.28 119.064 247.467 121.607 247.467 124.233C247.467 132.556 235.552 140.043 216.559 145.243C224.81 147.511 232.783 150.397 240.03 154.046C275.098 142.94 304.344 122 304.344 83.5012C304.344 50.777 283.126 30.6887 255.167 18.5417C245.466 14.327 234.953 11.0685 224.233 8.56982C198.866 2.65702 172.341 1 152.672 1C133.009 1 106.484 2.65727 81.1149 8.57096C70.4712 11.0521 60.0311 14.2824 50.3867 18.454C22.3248 30.592 1 50.6982 1 83.5012C1 121.866 30.3509 142.821 65.4753 153.967C72.6804 150.356 80.598 147.497 88.7884 145.244C69.7941 140.044 57.877 132.556 57.877 124.233C57.877 121.607 59.0636 119.064 61.2848 116.65C72.3473 104.625 109.072 95.795 152.672 95.795C196.271 95.795 232.996 104.625 244.059 116.65Z" fill="#16A458"/>
<path fill-rule="evenodd" clip-rule="evenodd" d="M97.5544 251.725C115.987 245.293 137.664 243.684 152.675 243.684C167.691 243.684 189.368 245.293 207.798 251.725C213.673 253.775 219.219 256.315 224.113 259.449C235.728 266.886 243.678 277.668 243.678 293.184C243.678 335.836 183.853 342.567 152.675 342.567C121.63 342.567 61.6719 335.658 61.6719 293.184C61.6719 277.62 69.6738 266.819 81.3487 259.38C86.2167 256.278 91.7231 253.76 97.5544 251.725ZM152.675 334.687C121.263 334.687 95.7981 327.047 95.7981 317.624C95.7981 316.048 96.51 314.522 97.8427 313.074C104.48 305.859 126.515 300.561 152.675 300.561C178.835 300.561 200.87 305.859 207.507 313.074C208.84 314.522 209.552 316.048 209.552 317.624C209.552 327.047 184.087 334.687 152.675 334.687ZM207.507 313.074C208.84 314.522 209.552 316.048 209.552 317.624C209.552 327.047 184.087 334.687 152.675 334.687C121.263 334.687 95.7981 327.047 95.7981 317.624C95.7981 316.048 96.51 314.522 97.8427 313.074C104.48 305.859 126.515 300.561 152.675 300.561C178.835 300.561 200.87 305.859 207.507 313.074Z" stroke="white" stroke-width="2" stroke-linecap="round" stroke-linejoin="round"/>
<path d="M97.5568 251.72C84.7152 247.645 76.8414 242.145 76.8414 236.095C76.8414 233.994 77.7908 231.959 79.5676 230.028C88.4177 220.408 117.798 213.344 152.677 213.344C187.557 213.344 216.937 220.408 225.787 230.028C227.564 231.959 228.513 233.994 228.513 236.095C228.513 242.145 220.641 247.644 207.801 251.719M97.5568 251.72C115.989 245.288 137.666 243.678 152.677 243.678C167.694 243.678 189.37 245.288 207.801 251.719M97.5568 251.72C91.7255 253.755 86.2191 256.273 81.351 259.374C53.952 250.333 31.3398 233.628 31.3398 203.509C31.3398 179.402 45.7355 163.867 65.4807 153.971C72.6859 150.36 80.6034 147.499 88.7938 145.247C111.004 139.141 135.221 137.508 152.677 137.508C170.139 137.508 194.356 139.14 216.565 145.246C224.815 147.515 232.788 150.401 240.036 154.049C259.698 163.949 274.015 179.466 274.015 203.509C274.015 233.738 251.476 250.435 224.116 259.444C219.221 256.31 213.676 253.769 207.801 251.719" stroke="white" stroke-width="2" stroke-linecap="round" stroke-linejoin="round"/>
<path d="M88.7884 145.244C69.7941 140.044 57.877 132.556 57.877 124.233C57.877 121.607 59.0636 119.064 61.2848 116.65C72.3473 104.625 109.072 95.795 152.672 95.795C196.272 95.795 232.997 104.625 244.059 116.65C246.28 119.064 247.467 121.607 247.467 124.233C247.467 132.556 235.551 140.043 216.559 145.243M88.7884 145.244C110.999 139.138 135.216 137.505 152.672 137.505C170.134 137.505 194.35 139.137 216.559 145.243M88.7884 145.244C80.598 147.496 72.6804 150.357 65.4752 153.968C30.3509 142.821 1 121.866 1 83.5012C1 50.6982 22.3248 30.592 50.3867 18.454C60.031 14.2824 70.4712 11.0521 81.1149 8.57096C106.484 2.65727 133.009 1 152.672 1C172.341 1 198.866 2.65702 224.234 8.56982C234.953 11.0685 245.466 14.327 255.167 18.5417C283.126 30.6887 304.344 50.777 304.344 83.5012C304.344 122 275.098 142.939 240.03 154.046C232.783 150.398 224.81 147.512 216.559 145.243" stroke="white" stroke-width="2" stroke-linecap="round" stroke-linejoin="round"/>
</svg>
