<svg width="23" height="23" viewBox="0 0 23 23" fill="none" xmlns="http://www.w3.org/2000/svg">
<g clip-path="url(#clip0_5591_28771)">
<path d="M22.3532 4.77382C21.9636 4.95466 21.5567 5.10421 21.1325 5.22245C20.7082 5.34069 20.2735 5.42068 19.8283 5.46242C20.2874 5.19811 20.6838 4.85729 21.0177 4.43996C21.3516 4.02262 21.602 3.55661 21.7689 3.0419C21.3377 3.2923 20.889 3.50792 20.423 3.68876C19.957 3.8696 19.4736 4.00871 18.9728 4.10609C18.5833 3.68876 18.1103 3.3549 17.5539 3.1045C16.9974 2.8541 16.4062 2.7289 15.7802 2.7289C15.1681 2.7289 14.5978 2.84019 14.0691 3.06277C13.5405 3.29925 13.078 3.61573 12.6815 4.01219C12.2851 4.40866 11.9686 4.8712 11.7321 5.39982C11.5095 5.92843 11.3982 6.49879 11.3982 7.11087C11.3982 7.2778 11.4087 7.44473 11.4295 7.61167C11.4504 7.7786 11.4747 7.94553 11.5026 8.11246C10.5983 8.07073 9.72196 7.93162 8.87338 7.69513C8.0109 7.45865 7.19711 7.14217 6.432 6.74571C5.66689 6.34924 4.95048 5.87975 4.28275 5.33722C3.61502 4.79469 3.00989 4.18956 2.46736 3.52183C2.28652 3.85569 2.14393 4.20695 2.0396 4.57559C1.93527 4.94423 1.8831 5.33026 1.8831 5.73368C1.8831 6.49879 2.06047 7.20129 2.4152 7.8412C2.76993 8.4811 3.23942 8.99581 3.82369 9.38532C3.462 9.37141 3.11422 9.31577 2.78036 9.21839C2.4465 9.12101 2.1335 8.99581 1.84137 8.84279C1.84137 8.84279 1.84137 8.84975 1.84137 8.86366C1.84137 8.87757 1.84137 8.88452 1.84137 8.88452C1.84137 9.95567 2.17871 10.8912 2.85339 11.6911C3.52808 12.491 4.36622 12.9883 5.36781 13.183C5.17305 13.2387 4.98178 13.2804 4.79398 13.3082C4.60618 13.336 4.40795 13.35 4.19928 13.35C4.06017 13.35 3.92106 13.343 3.78195 13.3291C3.64284 13.3152 3.51069 13.2943 3.38549 13.2665C3.66371 14.129 4.17494 14.8454 4.91918 15.4157C5.66342 15.9861 6.51547 16.2852 7.47533 16.313C6.72413 16.8973 5.88599 17.3563 4.96091 17.6902C4.03583 18.0241 3.05858 18.191 2.02917 18.191C1.84832 18.191 1.67096 18.184 1.49707 18.1701C1.32318 18.1562 1.15277 18.1423 0.98584 18.1284C1.47273 18.4344 1.98048 18.7127 2.5091 18.9631C3.03771 19.1995 3.58372 19.4012 4.14712 19.5682C4.71051 19.7351 5.2913 19.8673 5.88947 19.9646C6.48764 20.0481 7.09277 20.0898 7.70486 20.0898C9.72196 20.0898 11.5026 19.7142 13.0467 18.9631C14.6047 18.1979 15.9124 17.2172 16.9696 16.0209C18.0268 14.8245 18.8267 13.4891 19.3692 12.0145C19.9118 10.526 20.183 9.05841 20.183 7.61167C20.183 7.5282 20.1796 7.43778 20.1726 7.3404C20.1656 7.24302 20.1622 7.14565 20.1622 7.04827C20.5934 6.74223 20.9934 6.39793 21.362 6.01538C21.7306 5.63282 22.061 5.21897 22.3532 4.77382Z" fill="white"/>
</g>
<defs>
<clipPath id="clip0_5591_28771">
<rect width="21.6745" height="21.3673" fill="white" transform="matrix(1 0 0 -1 0.831543 22.0898)"/>
</clipPath>
</defs>
</svg>
