<svg width="34" height="34" viewBox="0 0 34 34" fill="none" xmlns="http://www.w3.org/2000/svg">
<ellipse cx="16.5819" cy="16.5819" rx="16.5819" ry="16.5819" transform="matrix(4.43798e-08 1 1 -4.30531e-08 0 0)" fill="#FCBB1B"/>
<path d="M12.6346 25.712C12.1868 25.7117 11.7529 25.5564 11.4066 25.2725L5.61542 20.5284C4.82354 19.8405 4.7223 18.6476 5.38691 17.836C6.05153 17.0245 7.241 16.8886 8.0715 17.5294L12.5571 21.2006L25.4838 9.29506C25.9697 8.71733 26.7467 8.4741 27.4753 8.67167C28.2039 8.86924 28.7515 9.47168 28.879 10.2157C29.0064 10.9598 28.6905 11.7102 28.0692 12.1389L13.9532 25.195C13.596 25.5296 13.1241 25.7147 12.6346 25.712Z" fill="white"/>
</svg>
