<svg width="86" height="86" viewBox="0 0 86 86" fill="none" xmlns="http://www.w3.org/2000/svg">
<g opacity="0.25">
<path fill-rule="evenodd" clip-rule="evenodd" d="M26.5489 82.7164C4.61409 73.6307 -5.80212 48.4838 3.2836 26.5489C12.3693 4.61409 37.5162 -5.80212 59.4511 3.2836C81.3859 12.3693 91.8021 37.5162 82.7164 59.4511C73.6307 81.3859 48.4838 91.8021 26.5489 82.7164Z" fill="#FCBB1B"/>
</g>
<path d="M42.9988 17.4746V24.6295M42.9988 17.4746L37.2106 20.5217M42.9988 17.4746L48.7897 20.5217M42.9988 61.2675V68.4223M42.9988 68.4223L37.2106 65.3753M42.9988 68.4223L48.7897 65.3753M27.9989 52.7024L21.8025 56.28M27.9989 33.1951L21.8025 29.6177M58.8041 52.7024L65.0003 56.28M58.8041 33.1951L65.0003 29.6177M59.2108 59.8903L65.0003 56.8431V49.8958M26.7895 26.0065L21 29.0536V36.001M26.7895 59.8903L21 56.8431V49.8958M59.2108 26.0065L65.0003 29.0536V36.001M42.9983 35.0664C38.2905 34.9881 33.4215 38.277 30.3604 41.6464C30.039 42.0032 29.8612 42.4662 29.8612 42.9464C29.8612 43.4263 30.039 43.8896 30.3604 44.2461C33.3537 47.5445 38.2099 50.9103 42.9983 50.8308C47.7867 50.9103 52.643 47.5445 55.64 44.2461C55.9613 43.8896 56.1391 43.4263 56.1391 42.9464C56.1391 42.4662 55.9613 42.0032 55.64 41.6464C52.5752 38.277 47.7062 34.9881 42.9983 35.0664ZM46.3363 42.9485C46.3363 43.6085 46.1404 44.2537 45.7737 44.8027C45.407 45.3516 44.8859 45.7792 44.2758 46.032C43.666 46.2846 42.9951 46.3506 42.3475 46.2218C41.7002 46.0931 41.1054 45.7753 40.6387 45.3085C40.172 44.8416 39.8541 44.247 39.7252 43.5995C39.5964 42.9522 39.6627 42.281 39.9152 41.6712C40.1678 41.0614 40.5957 40.54 41.1443 40.1733C41.6933 39.8066 42.3385 39.6107 42.9988 39.6107C43.8839 39.6107 44.7328 39.9624 45.3586 40.5884C45.9846 41.2142 46.3363 42.0631 46.3363 42.9485Z" stroke="#FCBB1B" stroke-width="3" stroke-linecap="round" stroke-linejoin="round"/>
</svg>
