<svg width="409" height="408" viewBox="0 0 409 408" fill="none" xmlns="http://www.w3.org/2000/svg">
<path d="M88.7279 125.793C114.687 122.633 133.169 99.0274 130.01 73.0683C126.85 47.1092 103.244 28.6267 77.2853 31.7865C51.3262 34.9463 32.8437 58.5518 36.0035 84.5109C39.1633 110.47 62.7688 128.952 88.7279 125.793Z" fill="#EBEBEB"/>
<path d="M108.572 104.359C122.69 90.2413 122.69 67.3524 108.572 53.235C94.4547 39.1175 71.5658 39.1175 57.4484 53.235C43.3309 67.3524 43.3309 90.2413 57.4484 104.359C71.5658 118.476 94.4548 118.476 108.572 104.359Z" fill="white"/>
<path d="M83.0055 104.629C97.2711 104.629 108.836 93.0643 108.836 78.7987C108.836 64.5332 97.2711 52.9688 83.0055 52.9688C68.74 52.9688 57.1755 64.5332 57.1755 78.7987C57.1755 93.0643 68.74 104.629 83.0055 104.629Z" fill="#EBEBEB"/>
<path d="M86.3206 92.6792C93.9935 90.8555 98.7352 83.157 96.9115 75.4841C95.0878 67.8112 87.3893 63.0695 79.7165 64.8932C72.0436 66.7169 67.3019 74.4154 69.1256 82.0883C70.9493 89.7612 78.6478 94.5029 86.3206 92.6792Z" fill="white"/>
<path d="M76.5554 78.8037C76.5574 80.079 76.9374 81.3251 77.6473 82.3844C78.3572 83.4438 79.3653 84.269 80.544 84.7556C81.7228 85.2423 83.0194 85.3686 84.2699 85.1186C85.5204 84.8686 86.6687 84.2535 87.5698 83.3511C88.4708 82.4486 89.0841 81.2993 89.3322 80.0484C89.5803 78.7975 89.452 77.5011 88.9635 76.3231C88.475 75.1451 87.6483 74.1384 86.5878 73.4301C85.5273 72.7218 84.2807 72.3438 83.0054 72.3438C82.1576 72.3437 81.318 72.5109 80.5348 72.8357C79.7516 73.1604 79.0401 73.6365 78.441 74.2365C77.842 74.8364 77.3671 75.5487 77.0435 76.3324C76.72 77.1161 76.5541 77.9559 76.5554 78.8037Z" fill="#EBEBEB"/>
<path d="M18.3404 12.6542L16.8696 14.125L78.0626 75.318L79.5334 73.8472L18.3404 12.6542Z" fill="#A6A6A6"/>
<path d="M75.0054 76.6469L83.0054 78.7969L80.8654 70.7969L75.0054 76.6469Z" fill="#A6A6A6"/>
<path d="M7.36548 9.40844L18.8355 20.8784L27.8355 23.6284L25.0855 14.6284L13.6155 3.14844L16.3655 12.1484L7.36548 9.40844Z" fill="#A6A6A6"/>
<path d="M294.936 0.898438L298.256 5.84844L303.996 7.47844L300.316 12.1584L300.536 18.1184L294.936 16.0684L289.346 18.1184L289.566 12.1584L285.885 7.47844L291.616 5.84844L294.936 0.898438Z" fill="#EBEBEB"/>
<path d="M320.535 0.898438L323.855 5.84844L329.585 7.47844L325.905 12.1584L326.125 18.1184L320.535 16.0684L314.945 18.1184L315.165 12.1584L311.485 7.47844L317.215 5.84844L320.535 0.898438Z" fill="#EBEBEB"/>
<path d="M346.125 0.898438L349.445 5.84844L355.175 7.47844L351.495 12.1584L351.725 18.1184L346.125 16.0684L340.535 18.1184L340.755 12.1584L337.075 7.47844L342.805 5.84844L346.125 0.898438Z" fill="#EBEBEB"/>
<path d="M371.726 0.898438L375.046 5.84844L380.776 7.47844L377.096 12.1584L377.316 18.1184L371.726 16.0684L366.126 18.1184L366.356 12.1584L362.676 7.47844L368.406 5.84844L371.726 0.898438Z" fill="#EBEBEB"/>
<path d="M391.196 18.84L391.446 12.33L387.446 7.2L393.716 5.42L397.346 0L400.986 5.42L407.256 7.2L403.256 12.33L403.496 18.84L397.376 16.6L391.196 18.84ZM397.316 15.51L402.386 17.37L402.186 11.98L405.516 7.73L400.326 6.26L397.326 1.78L394.326 6.26L389.136 7.73L392.466 11.98L392.266 17.37L397.316 15.51Z" fill="#EBEBEB"/>
<path d="M397.315 16.0684V0.898438L393.995 5.84844L388.265 7.47844L391.945 12.1584L391.725 18.1184L397.315 16.0684Z" fill="#EBEBEB"/>
<path fill-rule="evenodd" clip-rule="evenodd" d="M365.355 209.899C364.085 209.109 362.975 207.959 361.285 208.129C360.635 208.199 360.775 207.659 360.775 207.299C360.775 200.926 360.749 194.559 360.695 188.199C360.695 187.739 360.695 187.349 361.225 187.099C366.085 184.629 368.175 179.799 371.145 175.659C372.664 173.605 373.754 171.266 374.352 168.782C374.95 166.299 375.043 163.72 374.625 161.199C374.415 159.769 375.075 159.119 376.365 158.829C377.925 158.469 379.475 158.889 380.005 159.959C381.416 162.553 382.367 165.371 382.815 168.289C383.105 170.709 382.245 173.059 381.955 175.449C381.735 177.199 381.335 178.929 381.005 180.699C381.435 181.009 381.925 180.849 382.385 180.859H398.525C400.795 180.859 401.905 181.499 402.225 182.999C402.402 183.924 402.271 184.882 401.852 185.725C401.433 186.568 400.749 187.251 399.905 187.669C399.495 187.879 398.775 187.669 398.725 188.329C398.675 188.989 399.425 188.899 399.795 189.159C401.795 190.489 401.395 193.239 399.155 194.849C398.605 195.229 397.555 195.049 397.535 195.849C397.535 196.479 398.535 196.469 398.955 196.919C400.535 198.469 399.765 201.369 397.415 202.549C397.094 202.65 396.779 202.774 396.475 202.919C396.205 203.099 395.945 203.299 396.475 203.669C398.805 205.319 398.765 207.669 396.425 209.339L395.725 209.839C394.878 210.357 393.882 210.578 392.895 210.469C384.455 210.516 376.019 210.546 367.585 210.559C367.188 210.603 366.787 210.568 366.404 210.454C366.021 210.341 365.664 210.152 365.355 209.899Z" fill="#EBEBEB"/>
<path fill-rule="evenodd" clip-rule="evenodd" d="M341.325 198.751C341.325 194.751 341.325 190.661 341.265 186.611C341.265 185.791 341.345 185.381 342.355 185.391C347.295 185.444 352.229 185.444 357.155 185.391C358.155 185.391 358.275 185.711 358.275 186.571C358.275 194.711 358.302 202.851 358.355 210.991C358.355 211.991 358.085 212.321 357.045 212.311C352.265 212.311 347.475 212.311 342.685 212.371C341.495 212.371 341.335 211.971 341.345 210.931C341.385 206.841 341.335 202.801 341.325 198.751Z" fill="#EBEBEB"/>
<path d="M154.575 392.457H23.5753C22.8804 392.457 22.214 392.181 21.7227 391.69C21.2313 391.198 20.9553 390.532 20.9553 389.837V374.227C20.9553 374.177 20.9553 374.127 20.9553 374.077C20.9553 374.027 20.9553 373.897 20.9553 373.797L36.8653 315.647L16.3553 188.517L9.5053 186.137C8.90625 185.891 8.41966 185.431 8.13945 184.847C7.85925 184.263 7.80528 183.596 7.98798 182.975C8.17067 182.353 8.57707 181.822 9.12875 181.482C9.68042 181.143 10.3383 181.02 10.9753 181.137L19.4253 183.987C19.904 184.127 20.3326 184.401 20.6604 184.776C20.9883 185.152 21.2017 185.614 21.2753 186.107L42.1153 315.307C42.1705 315.598 42.1705 315.896 42.1153 316.187L26.7353 371.907L148.735 380.577C149.412 380.624 150.045 380.928 150.505 381.427L156.505 388.087C156.843 388.463 157.064 388.929 157.143 389.428C157.222 389.927 157.155 390.438 156.95 390.9C156.745 391.362 156.411 391.755 155.988 392.031C155.565 392.307 155.071 392.455 154.565 392.457H154.575ZM26.2253 387.227H148.675L147.325 385.727L26.2253 377.117V387.227Z" fill="#C7C7C7"/>
<path d="M202.525 229.821H25.9854C25.6284 229.843 25.2706 229.792 24.9342 229.67C24.5977 229.549 24.2897 229.36 24.0291 229.115C23.7685 228.87 23.5608 228.574 23.4188 228.246C23.2769 227.918 23.2036 227.564 23.2036 227.206C23.2036 226.848 23.2769 226.494 23.4188 226.166C23.5608 225.838 23.7685 225.542 24.0291 225.297C24.2897 225.052 24.5977 224.863 24.9342 224.742C25.2706 224.62 25.6284 224.569 25.9854 224.591H202.525C202.882 224.569 203.24 224.62 203.577 224.742C203.913 224.863 204.221 225.052 204.482 225.297C204.742 225.542 204.95 225.838 205.092 226.166C205.234 226.494 205.307 226.848 205.307 227.206C205.307 227.564 205.234 227.918 205.092 228.246C204.95 228.574 204.742 228.87 204.482 229.115C204.221 229.36 203.913 229.549 203.577 229.67C203.24 229.792 202.882 229.843 202.525 229.821Z" fill="#C7C7C7"/>
<path d="M39.5253 316.577C39.3094 316.554 39.1096 316.452 38.9645 316.29C38.8193 316.129 38.739 315.919 38.739 315.702C38.739 315.485 38.8193 315.276 38.9645 315.114C39.1096 314.953 39.3094 314.85 39.5253 314.827L172.145 307.737L198.255 226.947C198.29 226.838 198.347 226.737 198.421 226.65C198.496 226.562 198.587 226.49 198.689 226.438C198.791 226.386 198.903 226.355 199.017 226.346C199.131 226.338 199.246 226.351 199.355 226.387C199.464 226.426 199.565 226.487 199.65 226.565C199.735 226.643 199.803 226.738 199.851 226.844C199.898 226.949 199.924 227.063 199.927 227.179C199.929 227.295 199.908 227.41 199.865 227.517L173.565 308.877C173.513 309.046 173.41 309.195 173.271 309.304C173.131 309.413 172.962 309.477 172.785 309.487L39.5753 316.567L39.5253 316.577Z" fill="#C7C7C7"/>
<path d="M175.025 302.154H37.1053C36.8746 302.154 36.6533 302.062 36.4902 301.899C36.327 301.736 36.2354 301.515 36.2354 301.284C36.2354 301.053 36.327 300.832 36.4902 300.669C36.6533 300.506 36.8746 300.414 37.1053 300.414H175.025C175.256 300.414 175.477 300.506 175.641 300.669C175.804 300.832 175.895 301.053 175.895 301.284C175.895 301.515 175.804 301.736 175.641 301.899C175.477 302.062 175.256 302.154 175.025 302.154Z" fill="#C7C7C7"/>
<path d="M178.535 291.513H35.4755C35.2447 291.513 35.0234 291.422 34.8603 291.259C34.6971 291.096 34.6055 290.874 34.6055 290.643C34.6055 290.413 34.6971 290.191 34.8603 290.028C35.0234 289.865 35.2447 289.773 35.4755 289.773H178.535C178.766 289.773 178.988 289.865 179.151 290.028C179.314 290.191 179.405 290.413 179.405 290.643C179.405 290.874 179.314 291.096 179.151 291.259C178.988 291.422 178.766 291.513 178.535 291.513Z" fill="#C7C7C7"/>
<path d="M181.775 280.942H33.8654C33.6495 280.919 33.4497 280.817 33.3046 280.656C33.1594 280.494 33.0791 280.285 33.0791 280.067C33.0791 279.85 33.1594 279.641 33.3046 279.479C33.4497 279.318 33.6495 279.216 33.8654 279.192H181.775C181.898 279.179 182.022 279.192 182.14 279.23C182.257 279.268 182.365 279.33 182.457 279.413C182.549 279.495 182.623 279.596 182.673 279.709C182.723 279.822 182.749 279.944 182.749 280.067C182.749 280.191 182.723 280.313 182.673 280.426C182.623 280.539 182.549 280.64 182.457 280.722C182.365 280.805 182.257 280.867 182.14 280.905C182.022 280.943 181.898 280.956 181.775 280.942Z" fill="#C7C7C7"/>
<path d="M185.295 270.333H32.2354C32.1126 270.346 31.9885 270.333 31.871 270.295C31.7535 270.257 31.6454 270.195 31.5535 270.113C31.4617 270.03 31.3882 269.929 31.338 269.816C31.2877 269.704 31.2617 269.582 31.2617 269.458C31.2617 269.335 31.2877 269.213 31.338 269.1C31.3882 268.987 31.4617 268.886 31.5535 268.804C31.6454 268.721 31.7535 268.659 31.871 268.621C31.9885 268.583 32.1126 268.57 32.2354 268.583H185.295C185.511 268.606 185.711 268.708 185.856 268.87C186.001 269.031 186.082 269.241 186.082 269.458C186.082 269.675 186.001 269.885 185.856 270.046C185.711 270.208 185.511 270.31 185.295 270.333Z" fill="#C7C7C7"/>
<path d="M188.645 259.724H30.6454C30.4146 259.724 30.1934 259.633 30.0302 259.47C29.867 259.306 29.7754 259.085 29.7754 258.854C29.7754 258.624 29.867 258.402 30.0302 258.239C30.1934 258.076 30.4146 257.984 30.6454 257.984H188.645C188.876 257.984 189.097 258.076 189.261 258.239C189.424 258.402 189.515 258.624 189.515 258.854C189.515 259.085 189.424 259.306 189.261 259.47C189.097 259.633 188.876 259.724 188.645 259.724Z" fill="#C7C7C7"/>
<path d="M192.245 249.115H28.9855C28.7547 249.115 28.5334 249.023 28.3703 248.86C28.2071 248.697 28.1155 248.476 28.1155 248.245C28.1155 248.014 28.2071 247.793 28.3703 247.63C28.5334 247.467 28.7547 247.375 28.9855 247.375H192.245C192.476 247.375 192.697 247.467 192.861 247.63C193.024 247.793 193.115 248.014 193.115 248.245C193.115 248.476 193.024 248.697 192.861 248.86C192.697 249.023 192.476 249.115 192.245 249.115Z" fill="#C7C7C7"/>
<path d="M195.675 238.513H27.3654C27.1346 238.513 26.9133 238.422 26.7502 238.259C26.587 238.096 26.4954 237.874 26.4954 237.643C26.4954 237.413 26.587 237.191 26.7502 237.028C26.9133 236.865 27.1346 236.773 27.3654 236.773H195.675C195.906 236.773 196.127 236.865 196.291 237.028C196.454 237.191 196.545 237.413 196.545 237.643C196.545 237.874 196.454 238.096 196.291 238.259C196.127 238.422 195.906 238.513 195.675 238.513Z" fill="#C7C7C7"/>
<path d="M51.4353 315.515C51.2146 315.516 51.0019 315.433 50.8404 315.282C50.6789 315.132 50.5805 314.926 50.5653 314.705L43.8653 227.275C43.8558 227.162 43.869 227.047 43.9042 226.938C43.9394 226.83 43.9959 226.729 44.0703 226.643C44.1448 226.556 44.2358 226.485 44.3379 226.434C44.4401 226.383 44.5514 226.353 44.6653 226.345C44.895 226.331 45.1213 226.407 45.2965 226.556C45.4718 226.705 45.5825 226.916 45.6053 227.145L52.3053 314.515C52.3219 314.745 52.247 314.971 52.0971 315.145C51.9472 315.32 51.7345 315.428 51.5053 315.445L51.4353 315.515Z" fill="#C7C7C7"/>
<path d="M159.565 309.765C159.492 309.775 159.418 309.775 159.345 309.765C159.122 309.704 158.932 309.558 158.816 309.358C158.7 309.157 158.667 308.919 158.725 308.695L180.935 227.015C180.996 226.792 181.143 226.602 181.343 226.486C181.544 226.37 181.781 226.337 182.005 226.395C182.116 226.426 182.219 226.477 182.31 226.547C182.4 226.617 182.476 226.705 182.532 226.804C182.589 226.903 182.626 227.013 182.64 227.126C182.654 227.24 182.646 227.355 182.615 227.465L160.415 309.145C160.358 309.326 160.245 309.483 160.092 309.594C159.939 309.706 159.755 309.766 159.565 309.765Z" fill="#C7C7C7"/>
<path d="M65.3653 314.816C65.137 314.813 64.9187 314.722 64.7564 314.562C64.5941 314.401 64.5004 314.184 64.4953 313.956L62.3353 227.236C62.3324 227.005 62.4195 226.782 62.5782 226.614C62.7368 226.446 62.9545 226.346 63.1853 226.336C63.4136 226.336 63.633 226.424 63.7972 226.583C63.9614 226.742 64.0575 226.958 64.0653 227.186L66.2153 313.916C66.2207 314.148 66.1344 314.372 65.9753 314.541C65.8161 314.709 65.5969 314.808 65.3653 314.816Z" fill="#C7C7C7"/>
<path d="M79.6654 314.036C79.5512 314.033 79.4385 314.008 79.334 313.962C79.2294 313.916 79.135 313.85 79.056 313.767C78.9771 313.684 78.9152 313.587 78.8739 313.48C78.8326 313.374 78.8128 313.26 78.8154 313.146L80.4154 227.196C80.4206 226.968 80.5142 226.75 80.6766 226.59C80.8389 226.43 81.0572 226.338 81.2854 226.336C81.3997 226.339 81.5123 226.364 81.6169 226.41C81.7214 226.456 81.8159 226.522 81.8948 226.605C81.9738 226.687 82.0356 226.785 82.0769 226.891C82.1182 226.998 82.1381 227.112 82.1354 227.226L80.5354 313.226C80.5202 313.446 80.4219 313.652 80.2603 313.803C80.0988 313.953 79.8861 314.036 79.6654 314.036Z" fill="#C7C7C7"/>
<path d="M144.345 310.441H144.175C143.953 310.397 143.757 310.267 143.63 310.08C143.502 309.893 143.454 309.663 143.495 309.441L160.365 227.081C160.416 226.862 160.547 226.671 160.732 226.545C160.917 226.419 161.144 226.367 161.365 226.401C161.586 226.447 161.781 226.577 161.907 226.763C162.034 226.95 162.084 227.178 162.045 227.401L145.175 309.761C145.131 309.95 145.026 310.119 144.876 310.242C144.726 310.365 144.539 310.435 144.345 310.441Z" fill="#C7C7C7"/>
<path d="M127.005 311.512H126.865C126.638 311.473 126.436 311.346 126.301 311.159C126.166 310.972 126.111 310.74 126.145 310.512L139.805 227.112C139.844 226.886 139.972 226.684 140.159 226.551C140.346 226.418 140.579 226.365 140.805 226.402C140.918 226.421 141.026 226.461 141.123 226.521C141.22 226.582 141.304 226.661 141.37 226.754C141.436 226.847 141.483 226.952 141.508 227.063C141.533 227.175 141.535 227.29 141.515 227.402L127.865 310.752C127.837 310.961 127.734 311.152 127.576 311.292C127.418 311.431 127.216 311.51 127.005 311.512Z" fill="#C7C7C7"/>
<path d="M94.3054 313.203H94.2354C94.1214 313.196 94.0101 313.166 93.908 313.115C93.8058 313.064 93.7149 312.993 93.6404 312.906C93.5659 312.82 93.5094 312.719 93.4742 312.61C93.439 312.502 93.4258 312.387 93.4354 312.273L99.8054 227.143C99.8226 226.913 99.9308 226.698 100.106 226.547C100.282 226.396 100.51 226.321 100.74 226.338C100.971 226.356 101.186 226.464 101.337 226.639C101.487 226.815 101.563 227.043 101.545 227.273L95.1754 312.403C95.1555 312.621 95.0555 312.823 94.8947 312.971C94.7339 313.119 94.5238 313.202 94.3054 313.203Z" fill="#C7C7C7"/>
<path d="M111.455 312.096H111.355C111.239 312.082 111.126 312.045 111.023 311.987C110.921 311.929 110.831 311.851 110.759 311.758C110.687 311.665 110.635 311.558 110.605 311.444C110.575 311.331 110.569 311.212 110.585 311.096L119.925 227.096C119.938 226.982 119.973 226.872 120.028 226.772C120.083 226.672 120.157 226.583 120.246 226.512C120.335 226.44 120.437 226.387 120.547 226.355C120.657 226.323 120.772 226.313 120.885 226.326C120.999 226.338 121.109 226.373 121.209 226.428C121.309 226.483 121.398 226.557 121.469 226.646C121.541 226.735 121.594 226.838 121.626 226.947C121.658 227.057 121.668 227.172 121.655 227.286L112.315 311.286C112.3 311.504 112.203 311.709 112.044 311.859C111.885 312.009 111.674 312.094 111.455 312.096Z" fill="#C7C7C7"/>
<path d="M40.5754 406.071C45.9712 406.071 50.3454 401.697 50.3454 396.301C50.3454 390.905 45.9712 386.531 40.5754 386.531C35.1796 386.531 30.8054 390.905 30.8054 396.301C30.8054 401.697 35.1796 406.071 40.5754 406.071Z" fill="#263238"/>
<path d="M45.0153 396.307C45.0153 397.185 44.7549 398.044 44.267 398.774C43.7791 399.504 43.0857 400.073 42.2744 400.409C41.4631 400.745 40.5703 400.833 39.7091 400.662C38.8478 400.491 38.0566 400.068 37.4357 399.447C36.8148 398.826 36.3919 398.035 36.2206 397.173C36.0493 396.312 36.1372 395.419 36.4732 394.608C36.8093 393.797 37.3784 393.103 38.1085 392.615C38.8387 392.128 39.6971 391.867 40.5753 391.867C41.7528 391.867 42.8821 392.335 43.7148 393.168C44.5475 394 45.0153 395.13 45.0153 396.307Z" fill="#EBEBEB"/>
<path d="M128.005 406.071C133.401 406.071 137.775 401.697 137.775 396.301C137.775 390.905 133.401 386.531 128.005 386.531C122.61 386.531 118.235 390.905 118.235 396.301C118.235 401.697 122.61 406.071 128.005 406.071Z" fill="#263238"/>
<path d="M132.445 396.307C132.445 397.185 132.185 398.044 131.697 398.774C131.209 399.504 130.516 400.073 129.705 400.409C128.893 400.745 128.001 400.833 127.139 400.662C126.278 400.491 125.487 400.068 124.866 399.447C124.245 398.826 123.822 398.035 123.651 397.173C123.479 396.312 123.567 395.419 123.903 394.608C124.239 393.797 124.809 393.103 125.539 392.615C126.269 392.128 127.127 391.867 128.005 391.867C129.183 391.867 130.312 392.335 131.145 393.168C131.978 394 132.445 395.13 132.445 396.307Z" fill="#EBEBEB"/>
<path d="M16.7554 189.043C16.3935 189.045 16.0344 188.98 15.6954 188.853L1.93538 183.633C1.56702 183.494 1.22981 183.283 0.943016 183.012C0.656219 182.742 0.425444 182.418 0.26387 182.059C0.102296 181.699 0.0130878 181.312 0.00133514 180.918C-0.0104176 180.524 0.0555157 180.132 0.195374 179.763C0.335231 179.395 0.546276 179.058 0.816452 178.771C1.08663 178.484 1.41065 178.254 1.77001 178.092C2.12937 177.93 2.51704 177.841 2.91088 177.829C3.30472 177.818 3.69702 177.884 4.06538 178.023L17.8654 183.243C18.5187 183.495 19.0636 183.967 19.4057 184.577C19.7478 185.188 19.8656 185.899 19.7386 186.588C19.6116 187.276 19.2478 187.899 18.7103 188.347C18.1728 188.795 17.4954 189.042 16.7954 189.043H16.7554Z" fill="#DA4436"/>
<path d="M5.44556 406.071C134.446 405.461 279.246 405.451 408.286 406.071C279.286 406.691 134.486 406.681 5.44556 406.071Z" fill="#263238"/>
<path d="M291.385 23.2188H122.325C120.059 23.2397 117.818 23.7068 115.732 24.5936C113.646 25.4804 111.755 26.7694 110.167 28.387C108.579 30.0046 107.326 31.9192 106.478 34.0213C105.63 36.1235 105.204 38.3721 105.225 40.6387V388.639C105.185 393.216 106.964 397.621 110.17 400.888C113.377 404.154 117.749 406.014 122.325 406.059H291.385C295.964 406.014 300.338 404.155 303.547 400.889C306.757 397.623 308.54 393.218 308.505 388.639V40.6387C308.543 36.0592 306.76 31.6521 303.55 28.3858C300.34 25.1195 295.965 23.261 291.385 23.2188ZM297.805 377.889C297.805 387.049 290.945 394.459 282.485 394.459H131.245C122.765 394.459 115.905 387.049 115.905 377.889V53.8288C115.905 35.1688 122.765 34.2588 131.245 34.2588H161.545C163.305 34.2588 164.745 36.2588 164.745 38.7388V39.8088C164.745 45.6188 167.925 45.6387 171.825 45.6387H241.865C245.805 45.6387 248.965 45.6388 248.965 39.8088V38.7388C248.965 36.2588 250.385 34.2588 252.175 34.2588H282.465C290.925 34.2588 297.785 36.7388 297.785 53.8288L297.805 377.889Z" fill="#263238"/>
<path d="M297.866 54.1179V378.178C297.866 387.338 291.006 394.748 282.546 394.748H131.256C122.776 394.748 115.916 387.338 115.916 378.178V54.1179C115.916 35.5079 122.776 34.5079 131.256 34.5079H161.556C163.316 34.5079 164.756 36.5079 164.756 38.9879V40.0579C164.756 45.8679 167.936 45.8879 171.836 45.8879H241.866C245.806 45.8879 248.966 45.8879 248.966 40.0579V39.0279C248.966 36.5479 250.386 34.5479 252.176 34.5479H282.466C290.956 34.5079 297.866 37.0279 297.866 54.1179Z" fill="#FFE0E1"/>
<path d="M216.415 38.3756H197.305C196.993 38.3756 196.692 38.2513 196.471 38.03C196.25 37.8087 196.125 37.5086 196.125 37.1956C196.125 36.8827 196.25 36.5825 196.471 36.3612C196.692 36.1399 196.993 36.0156 197.305 36.0156H216.415C216.728 36.0156 217.029 36.1399 217.25 36.3612C217.471 36.5825 217.596 36.8827 217.596 37.1956C217.596 37.5086 217.471 37.8087 217.25 38.03C217.029 38.2513 216.728 38.3756 216.415 38.3756Z" fill="white"/>
<path d="M156.315 41.5075L156.025 41.7975L155.855 41.9675C155.106 41.2225 154.092 40.8043 153.035 40.8043C151.979 40.8043 150.965 41.2225 150.215 41.9675C150.157 41.9158 150.103 41.8589 150.055 41.7975C149.955 41.7075 149.865 41.6075 149.765 41.5075C149.895 41.4075 150.015 41.2875 150.135 41.1875C150.398 40.9687 150.687 40.7839 150.995 40.6375C151.352 40.4575 151.732 40.3295 152.125 40.2575L152.695 40.1875H153.195H153.575C153.918 40.2241 154.254 40.3048 154.575 40.4275C154.821 40.517 155.059 40.6274 155.285 40.7575C155.52 40.8968 155.744 41.054 155.955 41.2275L156.265 41.5075H156.315Z" fill="#A6A6A6"/>
<path d="M151.135 42.9164C150.985 42.7564 150.835 42.6064 150.675 42.4564C150.984 42.1459 151.351 41.8995 151.755 41.7313C152.159 41.5631 152.593 41.4766 153.03 41.4766C153.468 41.4766 153.901 41.5631 154.306 41.7313C154.71 41.8995 155.077 42.1459 155.385 42.4564L154.925 42.9164C154.423 42.4138 153.741 42.1315 153.03 42.1315C152.32 42.1315 151.638 42.4138 151.135 42.9164Z" fill="#A6A6A6"/>
<path d="M154.465 43.3752L154.005 43.8352C153.747 43.5799 153.399 43.4368 153.035 43.4368C152.672 43.4368 152.324 43.5799 152.065 43.8352C151.905 43.6852 151.755 43.5252 151.605 43.3752C151.792 43.1847 152.014 43.0333 152.26 42.93C152.505 42.8267 152.769 42.7734 153.035 42.7734C153.302 42.7734 153.566 42.8267 153.811 42.93C154.057 43.0333 154.279 43.1847 154.465 43.3752Z" fill="#A6A6A6"/>
<path d="M153.445 44.2559C153.445 44.3647 153.402 44.469 153.325 44.5459C153.249 44.6227 153.144 44.6659 153.035 44.6659C152.981 44.6673 152.926 44.6576 152.876 44.6376C152.825 44.6176 152.778 44.5877 152.739 44.5494C152.7 44.5112 152.669 44.4656 152.648 44.4152C152.626 44.3648 152.615 44.3106 152.615 44.2559C152.615 44.1445 152.66 44.0377 152.738 43.959C152.817 43.8802 152.924 43.8359 153.035 43.8359C153.09 43.8359 153.144 43.8468 153.195 43.8681C153.245 43.8893 153.291 43.9204 153.329 43.9595C153.367 43.9987 153.397 44.0451 153.417 44.096C153.437 44.1469 153.447 44.2013 153.445 44.2559Z" fill="#A6A6A6"/>
<path d="M127.765 42.4209C127.765 42.1816 127.836 41.9477 127.969 41.7487C128.102 41.5497 128.291 41.3946 128.512 41.303C128.733 41.2115 128.977 41.1875 129.211 41.2342C129.446 41.2809 129.662 41.3961 129.831 41.5653C130 41.7346 130.115 41.9502 130.162 42.1849C130.209 42.4196 130.185 42.6629 130.093 42.884C130.002 43.1051 129.847 43.2941 129.648 43.427C129.449 43.56 129.215 43.6309 128.975 43.6309C128.654 43.6309 128.347 43.5035 128.12 43.2765C127.893 43.0496 127.765 42.7419 127.765 42.4209Z" fill="#A6A6A6"/>
<path d="M131.565 42.4209C131.565 42.1816 131.636 41.9477 131.769 41.7487C131.902 41.5497 132.091 41.3946 132.312 41.303C132.533 41.2115 132.777 41.1875 133.011 41.2342C133.246 41.2809 133.462 41.3961 133.631 41.5653C133.8 41.7346 133.916 41.9502 133.962 42.1849C134.009 42.4196 133.985 42.6629 133.893 42.884C133.802 43.1051 133.647 43.2941 133.448 43.427C133.249 43.56 133.015 43.6309 132.775 43.6309C132.617 43.6309 132.459 43.5996 132.312 43.5388C132.166 43.478 132.032 43.3889 131.92 43.2765C131.807 43.1642 131.718 43.0308 131.658 42.884C131.597 42.7372 131.565 42.5798 131.565 42.4209Z" fill="#A6A6A6"/>
<path d="M135.366 42.4209C135.366 42.1812 135.437 41.9468 135.57 41.7476C135.704 41.5484 135.893 41.3934 136.115 41.3021C136.337 41.2108 136.58 41.1874 136.815 41.2349C137.05 41.2824 137.266 41.3987 137.435 41.5689C137.603 41.7391 137.718 41.9557 137.763 42.191C137.809 42.4264 137.784 42.67 137.691 42.8909C137.597 43.1118 137.441 43.3001 137.24 43.4319C137.04 43.5636 136.805 43.6329 136.566 43.6309C136.407 43.6309 136.25 43.5995 136.104 43.5386C135.958 43.4777 135.825 43.3884 135.713 43.2759C135.602 43.1634 135.514 43.0299 135.454 42.8832C135.394 42.7364 135.364 42.5793 135.366 42.4209Z" fill="#A6A6A6"/>
<path d="M139.165 42.4209C139.165 42.1812 139.237 41.9468 139.37 41.7476C139.503 41.5484 139.693 41.3934 139.915 41.3021C140.136 41.2108 140.38 41.1874 140.615 41.2349C140.85 41.2824 141.066 41.3987 141.234 41.5689C141.403 41.7391 141.518 41.9557 141.563 42.191C141.609 42.4264 141.583 42.67 141.49 42.8909C141.397 43.1118 141.241 43.3001 141.04 43.4319C140.84 43.5636 140.605 43.6329 140.365 43.6309C140.207 43.6309 140.05 43.5995 139.904 43.5386C139.758 43.4777 139.625 43.3884 139.513 43.2759C139.402 43.1634 139.313 43.0299 139.254 42.8832C139.194 42.7364 139.164 42.5793 139.165 42.4209Z" fill="#A6A6A6"/>
<path d="M142.955 42.4209C142.955 42.1816 143.026 41.9477 143.159 41.7487C143.292 41.5497 143.481 41.3946 143.702 41.303C143.923 41.2115 144.167 41.1875 144.401 41.2342C144.636 41.2809 144.852 41.3961 145.021 41.5653C145.19 41.7346 145.305 41.9502 145.352 42.1849C145.399 42.4196 145.375 42.6629 145.283 42.884C145.192 43.1051 145.037 43.2941 144.838 43.427C144.639 43.56 144.405 43.6309 144.165 43.6309C143.844 43.6309 143.537 43.5035 143.31 43.2765C143.083 43.0496 142.955 42.7419 142.955 42.4209Z" fill="#A6A6A6"/>
<path d="M284.165 45.0579H274.345V40.5079H284.165V45.0579ZM274.845 44.5579H283.665V41.0079H274.865L274.845 44.5579Z" fill="#A6A6A6"/>
<path d="M281.496 41.2812H275.166V44.2812H281.496V41.2812Z" fill="#A6A6A6"/>
<path d="M285.036 41.5703H284.166V44.0003H285.036V41.5703Z" fill="#A6A6A6"/>
<path d="M217.316 20.625H196.426V69.775H217.316V20.625Z" fill="#DA4436"/>
<path d="M217.306 69.7656C217.306 69.7656 215.306 79.7656 206.866 79.7656C198.426 79.7656 196.426 69.7656 196.426 69.7656H217.306Z" fill="#DA4436"/>
<path opacity="0.1" d="M217.306 69.7656C217.306 69.7656 215.306 79.7656 206.866 79.7656C198.426 79.7656 196.426 69.7656 196.426 69.7656H217.306Z" fill="black"/>
<path d="M196.415 69.775H175.525L177.655 20.625H196.415V69.775Z" fill="white"/>
<path d="M196.415 69.775L175.525 69.905H175.385C175.385 69.905 177.385 20.685 177.385 20.615V20.375H177.615H196.375H196.585C196.665 20.565 196.455 45.005 196.505 45.205L196.375 69.725L196.415 69.775ZM196.415 69.775L196.285 45.145L196.215 20.625L196.415 20.825L177.655 20.875L177.905 20.635C177.835 20.635 175.845 70.355 175.525 69.635L196.415 69.765V69.775Z" fill="#263238"/>
<path d="M196.425 69.7656C196.425 69.7656 194.425 79.7656 185.965 79.7656C177.505 79.7656 175.525 69.7656 175.525 69.7656H196.425Z" fill="#EBEBEB"/>
<path d="M175.525 69.775H154.635L158.895 20.625H177.655L175.525 69.775Z" fill="#DA4436"/>
<path d="M175.525 69.7656C175.525 69.7656 173.526 79.7656 165.076 79.7656C156.626 79.7656 154.635 69.7656 154.635 69.7656H175.525Z" fill="#DA4436"/>
<path opacity="0.1" d="M175.525 69.7656C175.525 69.7656 173.526 79.7656 165.076 79.7656C156.626 79.7656 154.635 69.7656 154.635 69.7656H175.525Z" fill="black"/>
<path d="M154.625 69.775H133.735L140.135 20.625H158.895L154.625 69.775Z" fill="white"/>
<path d="M154.625 69.775L133.735 69.905H133.585C133.585 69.905 139.865 20.675 139.865 20.595V20.375H140.085H158.845H159.065V20.595L156.865 45.265L154.605 69.775H154.625ZM154.625 69.775L156.625 45.135L158.685 20.605L158.885 20.825L140.125 20.875L140.365 20.655C140.295 20.655 134.015 70.395 133.725 69.655L154.615 69.785L154.625 69.775Z" fill="#263238"/>
<path d="M154.625 69.7656C154.625 69.7656 152.625 79.7656 144.175 79.7656C135.725 79.7656 133.735 69.7656 133.735 69.7656H154.625Z" fill="#EBEBEB"/>
<path d="M133.735 69.775H112.845L121.375 20.625H140.125L133.735 69.775Z" fill="#DA4436"/>
<path d="M133.735 69.7656C133.735 69.7656 131.735 79.7656 123.295 79.7656C114.855 79.7656 112.835 69.7656 112.835 69.7656H133.735Z" fill="#DA4436"/>
<path opacity="0.1" d="M133.735 69.7656C133.735 69.7656 131.735 79.7656 123.295 79.7656C114.855 79.7656 112.835 69.7656 112.835 69.7656H133.735Z" fill="black"/>
<path d="M112.865 69.7806H91.9453L101.275 26.7806C102.045 23.2306 105.825 20.6406 110.275 20.6406H121.365L112.865 69.7806Z" fill="white"/>
<path d="M112.865 69.7779L91.9754 69.9079H91.8154V69.7479C93.1254 63.6379 99.4154 34.3279 100.575 28.8979C100.776 27.4914 101.177 26.1209 101.765 24.8279C103.975 20.8279 108.875 20.1179 113.015 20.3979H121.365H121.615L121.565 20.6279L117.225 45.2479L112.865 69.7779ZM112.865 69.7779L117.005 45.1279L121.195 20.5879L121.395 20.8279H113.045C109.045 20.5879 104.375 21.2279 102.215 25.0479C101.646 26.296 101.259 27.6195 101.065 28.9779L99.2754 37.1379L92.1054 69.7879L91.9754 69.6279L112.865 69.7579V69.7779Z" fill="#263238"/>
<path d="M112.865 69.7656C112.865 69.7656 110.865 79.7656 102.425 79.7656C93.9854 79.7656 91.9854 69.7656 91.9854 69.7656H112.865Z" fill="#EBEBEB"/>
<path d="M217.315 69.775H238.205L236.075 20.625H217.315V69.775Z" fill="white"/>
<path d="M217.315 69.7797L238.205 69.6497L238.075 69.7797L235.865 20.6397L236.115 20.8797L217.355 20.8297L217.555 20.6297L217.485 45.1497L217.355 69.7797H217.315ZM217.315 69.7797L217.185 45.2597L217.115 20.6297V20.4297H217.325H236.085H236.315V20.6697C236.315 20.8497 238.315 69.7997 238.315 69.9597H238.175L217.285 69.8297L217.315 69.7797Z" fill="#263238"/>
<path d="M238.205 69.7656C238.205 69.7656 236.205 79.7656 227.765 79.7656C219.325 79.7656 217.305 69.7656 217.305 69.7656H238.205Z" fill="#EBEBEB"/>
<path d="M238.205 69.775H259.095L254.835 20.625H236.075L238.205 69.775Z" fill="#DA4436"/>
<path d="M259.095 69.7656C259.095 69.7656 257.095 79.7656 248.655 79.7656C240.215 79.7656 238.205 69.7656 238.205 69.7656H259.095Z" fill="#DA4436"/>
<path opacity="0.1" d="M259.095 69.7656C259.095 69.7656 257.095 79.7656 248.655 79.7656C240.215 79.7656 238.205 69.7656 238.205 69.7656H259.095Z" fill="black"/>
<path d="M259.105 69.775H279.995L273.595 20.625H254.835L259.105 69.775Z" fill="white"/>
<path d="M259.105 69.7797L279.996 69.6497C279.706 70.5497 273.455 20.4597 273.355 20.6497L273.596 20.8697L254.866 20.8297L255.066 20.6097C256.116 32.8597 258.145 57.5197 259.135 69.7797H259.105ZM259.105 69.7797L256.866 45.2697L254.656 20.6497V20.4297H254.866H273.626H273.866C273.936 20.7897 280.135 69.5797 280.195 69.9597H280.046L259.156 69.8297L259.105 69.7797Z" fill="#263238"/>
<path d="M279.995 69.7656C279.995 69.7656 277.995 79.7656 269.555 79.7656C261.115 79.7656 259.105 69.7656 259.105 69.7656H279.995Z" fill="#EBEBEB"/>
<path d="M279.995 69.775H300.885L292.355 20.625H273.605L279.995 69.775Z" fill="#DA4436"/>
<path d="M300.865 69.7656C300.865 69.7656 298.865 79.7656 290.405 79.7656C281.945 79.7656 279.965 69.7656 279.965 69.7656H300.865Z" fill="#DA4436"/>
<path opacity="0.1" d="M300.865 69.7656C300.865 69.7656 298.865 79.7656 290.405 79.7656C281.945 79.7656 279.965 69.7656 279.965 69.7656H300.865Z" fill="black"/>
<path d="M300.865 69.7806H321.755L312.425 26.7806C311.655 23.2306 307.875 20.6406 303.425 20.6406H292.365L300.865 69.7806Z" fill="white"/>
<path d="M300.865 69.7786L321.755 69.6486L321.625 69.8086L314.455 37.1586L312.665 28.9986C312.472 27.6402 312.085 26.3167 311.515 25.0686C309.355 21.2486 304.705 20.6086 300.685 20.8486H292.335L292.535 20.6086C294.675 32.8386 298.865 57.5086 300.865 69.7786ZM300.865 69.7786L296.475 45.2786L292.165 20.6586L292.115 20.4286H292.365H300.715C305.585 20.0386 311.515 21.4286 312.715 26.8786C314.215 33.8786 320.315 62.2986 321.915 69.7786V69.9386H321.755L300.865 69.7786Z" fill="#263238"/>
<path d="M321.776 69.7656C321.776 69.7656 319.776 79.7656 311.336 79.7656C302.896 79.7656 300.896 69.7656 300.896 69.7656H321.776Z" fill="#EBEBEB"/>
<path d="M255.475 166.039H158.265V263.249H255.475V166.039Z" fill="#DA4436"/>
<path d="M238.806 212.568H174.926V203.508H238.806V212.568Z" fill="white"/>
<path d="M235.245 210.648L233.135 244.258H180.605L178.485 210.648H235.245Z" fill="white"/>
<path d="M213.655 207.017C213.655 208.36 213.257 209.672 212.511 210.789C211.765 211.905 210.705 212.776 209.464 213.29C208.223 213.804 206.858 213.938 205.541 213.676C204.224 213.414 203.014 212.767 202.064 211.818C201.115 210.868 200.468 209.658 200.206 208.341C199.944 207.024 200.078 205.659 200.592 204.418C201.106 203.177 201.977 202.117 203.093 201.371C204.21 200.625 205.523 200.227 206.865 200.227C208.665 200.229 210.391 200.945 211.664 202.218C212.937 203.491 213.653 205.217 213.655 207.017Z" fill="white"/>
<path d="M197.925 217.92V237.26C197.928 237.488 197.886 237.714 197.8 237.925C197.715 238.136 197.589 238.327 197.429 238.489C197.269 238.651 197.078 238.78 196.868 238.867C196.658 238.955 196.433 239 196.205 239H195.925C195.738 238.999 195.552 238.961 195.379 238.887C195.206 238.814 195.049 238.708 194.917 238.574C194.785 238.441 194.681 238.282 194.61 238.108C194.54 237.934 194.504 237.748 194.505 237.56V217.92C194.508 217.544 194.658 217.185 194.924 216.919C195.19 216.653 195.55 216.503 195.925 216.5H196.485C196.674 216.497 196.86 216.532 197.035 216.602C197.21 216.673 197.368 216.777 197.502 216.909C197.636 217.041 197.743 217.198 197.815 217.372C197.888 217.546 197.925 217.732 197.925 217.92Z" fill="#DA4436"/>
<path d="M208.566 217.918V237.258C208.568 237.485 208.526 237.711 208.44 237.922C208.355 238.133 208.229 238.325 208.069 238.487C207.909 238.649 207.718 238.777 207.508 238.865C207.298 238.953 207.073 238.998 206.846 238.998H206.566C206.378 238.997 206.192 238.958 206.019 238.885C205.846 238.812 205.689 238.706 205.557 238.572C205.425 238.438 205.321 238.28 205.251 238.106C205.18 237.932 205.144 237.746 205.146 237.558V217.918C205.151 217.544 205.302 217.187 205.568 216.923C205.833 216.659 206.191 216.51 206.566 216.508H207.126C207.313 216.505 207.499 216.54 207.673 216.609C207.847 216.679 208.005 216.782 208.139 216.913C208.273 217.044 208.379 217.2 208.453 217.373C208.526 217.545 208.564 217.731 208.566 217.918Z" fill="#DA4436"/>
<path d="M219.205 217.92V237.26C219.208 237.488 219.166 237.714 219.08 237.925C218.995 238.136 218.869 238.327 218.709 238.489C218.549 238.651 218.358 238.78 218.148 238.867C217.938 238.955 217.713 239 217.485 239H217.205C217.018 238.999 216.832 238.961 216.659 238.887C216.486 238.814 216.329 238.708 216.197 238.574C216.065 238.441 215.961 238.282 215.89 238.108C215.82 237.934 215.784 237.748 215.785 237.56V217.92C215.788 217.544 215.938 217.185 216.204 216.919C216.47 216.653 216.83 216.503 217.205 216.5H217.765C217.954 216.497 218.14 216.532 218.315 216.602C218.49 216.673 218.648 216.777 218.782 216.909C218.916 217.041 219.023 217.198 219.095 217.372C219.168 217.546 219.205 217.732 219.205 217.92Z" fill="#DA4436"/>
<path d="M225.495 206.468H222.495V188.508H191.235V206.468H188.235V185.508H225.495V206.468Z" fill="white"/>
<path d="M267.22 176.755C273.125 170.263 272.649 160.213 266.157 154.308C259.666 148.403 249.616 148.878 243.711 155.37C237.806 161.862 238.281 171.912 244.773 177.817C251.265 183.722 261.315 183.247 267.22 176.755Z" fill="#455A64"/>
<path d="M258.765 164.387C259.287 164.895 259.7 165.504 259.982 166.175C260.264 166.847 260.408 167.568 260.405 168.297C260.409 169.399 260.085 170.477 259.474 171.395C258.863 172.312 257.994 173.027 256.975 173.45C255.957 173.872 254.837 173.982 253.756 173.766C252.675 173.55 251.683 173.018 250.905 172.237C250.772 172.123 250.663 171.983 250.586 171.825C250.509 171.668 250.465 171.496 250.458 171.32C250.451 171.145 250.48 170.97 250.544 170.806C250.608 170.643 250.705 170.494 250.829 170.37C250.953 170.246 251.101 170.149 251.265 170.085C251.429 170.021 251.604 169.992 251.779 169.999C251.954 170.006 252.126 170.05 252.284 170.127C252.442 170.204 252.582 170.313 252.695 170.447C252.975 170.727 253.307 170.948 253.673 171.099C254.038 171.25 254.43 171.328 254.825 171.327C255.224 171.33 255.62 171.254 255.989 171.103C256.358 170.952 256.694 170.729 256.975 170.447C257.261 170.167 257.488 169.832 257.643 169.463C257.797 169.093 257.876 168.697 257.875 168.297C257.877 167.901 257.798 167.509 257.643 167.144C257.489 166.78 257.261 166.451 256.975 166.177C256.698 165.893 256.366 165.668 256.001 165.513C255.635 165.359 255.242 165.278 254.845 165.277C254.672 165.286 254.498 165.255 254.338 165.185C254.178 165.116 254.037 165.01 253.925 164.877C253.691 164.636 253.56 164.313 253.56 163.977C253.56 163.641 253.691 163.318 253.925 163.077L256.205 160.757H252.575C252.259 160.729 251.965 160.583 251.751 160.349C251.537 160.115 251.418 159.809 251.418 159.492C251.418 159.174 251.537 158.869 251.751 158.634C251.965 158.4 252.259 158.255 252.575 158.227H259.185C259.352 158.224 259.517 158.254 259.671 158.316C259.826 158.377 259.967 158.469 260.086 158.585C260.205 158.701 260.3 158.84 260.365 158.993C260.43 159.146 260.464 159.31 260.465 159.477C260.46 159.686 260.405 159.892 260.305 160.077C260.246 160.192 260.172 160.3 260.085 160.397L257.255 163.307C257.823 163.567 258.336 163.934 258.765 164.387Z" fill="white"/>
<path d="M326.665 108.298C334.545 113.968 359.735 136.778 361.325 140.578C363.235 145.098 353.465 161.168 349.425 160.818C338.985 159.908 320.705 127.028 314.845 111.978C311.975 104.618 313.485 98.8084 326.665 108.298Z" fill="#F48452"/>
<path d="M348.015 106.274C350.275 103.794 368.165 117.114 367.805 122.034C366.495 140.134 360.945 155.504 357.645 158.684C356.593 159.65 355.328 160.353 353.953 160.737C352.577 161.121 351.13 161.174 349.73 160.892C348.33 160.61 347.016 160.002 345.896 159.116C344.776 158.23 343.882 157.091 343.285 155.794C339.325 147.514 339.255 115.864 348.015 106.274Z" fill="#F48452"/>
<path d="M341.355 145.559C339.355 135.559 341.945 121.419 341.935 121.399C341.935 121.199 342.195 121.129 342.205 121.239C342.275 123.239 340.915 138.059 341.625 145.479C341.625 145.509 341.365 145.629 341.355 145.559Z" fill="#263238"/>
<path d="M371.616 108.782C371.316 114.032 366.506 124.512 364.366 126.602C362.226 128.692 344.136 121.092 343.366 118.132C342.596 115.172 344.966 97.5925 348.546 93.6125C352.126 89.6325 371.926 103.342 371.616 108.782Z" fill="#F48452"/>
<path d="M343.216 115.071C341.864 111.047 339.934 107.24 337.485 103.771C334.415 99.7715 329.405 94.1115 331.485 92.3715C335.805 88.8215 348.295 102.881 348.295 102.881C348.295 102.881 352.816 109.961 348.846 113.881C348.107 114.577 347.191 115.057 346.197 115.266C345.204 115.476 344.173 115.409 343.216 115.071Z" fill="#F48452"/>
<path d="M348.615 104.463L353.295 101.573L344.935 88.0234L339.015 91.6834L348.615 104.463Z" fill="#FCBB1B"/>
<path d="M339.025 91.6834L342.675 96.5534L348.625 104.463L353.295 101.573L344.945 88.0234L339.025 91.6834Z" fill="#FCBB1B"/>
<path opacity="0.1" d="M339.025 91.6834L342.675 96.5534L348.125 93.1934L344.945 88.0234L339.025 91.6834Z" fill="black"/>
<path d="M339.434 96.1079L346.786 91.5234L343.304 85.9389L335.952 90.5234L339.434 96.1079Z" fill="#FCBB1B"/>
<path d="M330.056 89.4241L336.136 86.4641L330.546 77.4141L325.176 81.5141L330.056 89.4241Z" fill="#FCBB1B"/>
<path d="M332.385 73.8022L340.626 87.1622L350.936 82.3922L378.326 76.8322L358.526 44.7422L341.276 66.7322L332.385 73.8022Z" fill="#FCBB1B"/>
<path d="M363.765 63.659C369.255 72.569 376.035 78.359 378.895 76.589C381.755 74.819 379.625 66.179 374.125 57.269C368.625 48.359 361.865 42.579 358.995 44.339C356.125 46.099 358.275 54.759 363.765 63.659Z" fill="#FCBB1B"/>
<path opacity="0.2" d="M364.805 62.6379C369.675 70.5479 375.525 75.7779 377.875 74.3379C380.225 72.8979 378.165 65.3379 373.285 57.4079C368.405 49.4779 362.555 44.2679 360.215 45.7079C357.875 47.1479 359.925 54.7379 364.805 62.6379Z" fill="black"/>
<path d="M365.496 62.2193C366.146 63.2693 366.806 64.2693 367.496 65.2193C368.2 65.3087 368.916 65.1968 369.559 64.8964C370.203 64.5961 370.748 64.1196 371.132 63.5222C371.516 62.9247 371.723 62.2307 371.729 61.5206C371.735 60.8104 371.54 60.113 371.166 59.5093L370.236 57.9993C369.864 57.3964 369.33 56.9107 368.695 56.5979C368.06 56.2851 367.35 56.1579 366.646 56.2311C365.941 56.3042 365.272 56.5746 364.715 57.0113C364.158 57.4479 363.735 58.033 363.496 58.6993C364.096 59.8493 364.766 61.0293 365.496 62.2193Z" fill="#FCBB1B"/>
<path d="M335.906 91.0972L347.656 85.3772L336.856 67.8672L326.466 75.7972L335.906 91.0972Z" fill="#FCBB1B"/>
<path opacity="0.2" d="M335.906 91.0972L347.656 85.3772L336.856 67.8672L326.466 75.7972L335.906 91.0972Z" fill="black"/>
<path opacity="0.2" d="M358.385 47.8672C358.217 49.2813 358.305 50.7143 358.645 52.0972C358.959 53.4845 359.38 54.8453 359.905 56.1672C360.155 56.8372 360.455 57.4772 360.735 58.1672C361.015 58.8572 361.355 59.4472 361.685 60.0772C362.015 60.7072 362.345 61.3372 362.685 61.9472C363.025 62.5572 363.395 63.1772 363.765 63.7772C365.255 66.2011 366.958 68.4869 368.855 70.6072C369.814 71.6592 370.865 72.6231 371.995 73.4872C373.109 74.3806 374.402 75.025 375.785 75.3772C374.44 74.9645 373.192 74.2842 372.115 73.3772C371.034 72.4842 370.03 71.5007 369.115 70.4372C367.257 68.3068 365.585 66.0219 364.115 63.6072C362.6 61.2219 361.283 58.7169 360.175 56.1172C359.62 54.8219 359.168 53.4843 358.825 52.1172C358.427 50.738 358.278 49.2988 358.385 47.8672Z" fill="black"/>
<path d="M369.775 39.8672C369.285 40.7172 368.835 41.5872 368.395 42.4672C367.955 43.3472 367.535 44.2272 367.125 45.1172C366.715 46.0072 366.315 46.9072 365.945 47.8072L365.385 49.1772C365.215 49.6372 365.025 50.0872 364.865 50.5572C365.115 50.1272 365.345 49.6972 365.585 49.2672L366.255 47.9572C366.695 47.0772 367.115 46.1972 367.525 45.3072C367.935 44.4172 368.335 43.5172 368.705 42.6072C369.075 41.6972 369.455 40.7972 369.775 39.8672Z" fill="#263238"/>
<path d="M375.295 68.5091C376.395 68.3791 377.485 68.1891 378.575 67.9991C379.665 67.8091 380.745 67.5891 381.825 67.3691C382.905 67.1491 383.995 66.9091 385.065 66.6391L386.675 66.2391C387.205 66.0891 387.745 65.9591 388.275 65.7891L386.625 66.0291L384.995 66.3091C383.905 66.4891 382.825 66.7091 381.735 66.9391C380.645 67.1691 379.575 67.3991 378.505 67.6691C377.435 67.9391 376.355 68.2391 375.295 68.5091Z" fill="#263238"/>
<path d="M392.795 57.4531C391.235 57.9331 389.695 58.4531 388.165 58.9931C386.635 59.5331 385.105 60.0831 383.575 60.6431C382.045 61.2031 380.575 61.7831 379.025 62.3931L376.765 63.3031C376.015 63.6131 375.255 63.9231 374.515 64.2531C375.295 64.0131 376.065 63.7531 376.835 63.5031L379.145 62.7131C380.685 62.1831 382.205 61.6231 383.735 61.0631C385.265 60.5031 386.735 59.9131 388.285 59.3131C389.835 58.7131 391.305 58.1031 392.795 57.4531Z" fill="#263238"/>
<path d="M378.336 36.8203C377.336 38.1603 376.456 39.5303 375.536 40.9003C374.616 42.2703 373.726 43.6603 372.846 45.0503C371.966 46.4403 371.086 47.8303 370.236 49.2503L368.956 51.3703C368.546 52.0803 368.126 52.7903 367.726 53.5103C368.206 52.8403 368.666 52.1603 369.146 51.5103L370.526 49.5103C371.436 48.1403 372.326 46.7503 373.216 45.3603C374.106 43.9703 374.976 42.5803 375.826 41.1603C376.676 39.7403 377.526 38.2603 378.336 36.8203Z" fill="#263238"/>
<path d="M371.595 58.6588C373.255 57.7288 374.885 56.7488 376.515 55.7588C378.145 54.7688 379.745 53.7588 381.365 52.7588C382.985 51.7588 384.575 50.7588 386.165 49.6588L388.555 48.0888C389.335 47.5488 390.125 47.0188 390.905 46.4688C390.075 46.9387 389.255 47.4688 388.435 47.8988L385.985 49.3788C384.355 50.3788 382.755 51.3788 381.135 52.3788C379.515 53.3788 377.925 54.3787 376.335 55.4688C374.745 56.5588 373.155 57.5688 371.595 58.6588Z" fill="#263238"/>
<path d="M344.236 100.843C345.536 103.313 347.696 100.363 347.696 100.363C347.696 100.363 345.606 105.363 347.936 107.363C350.266 109.363 352.656 105.653 352.836 105.363C352.726 105.623 350.936 110.253 353.476 112.043C356.016 113.833 357.986 109.813 358.106 109.543C358.106 109.833 357.836 113.543 360.106 114.483C363.956 116.053 364.846 106.533 367.536 104.483C367.536 104.483 371.536 108.633 371.646 108.733C371.756 108.833 372.646 99.7329 369.726 96.2229C369.305 95.7121 368.723 95.3602 368.076 95.2256C367.428 95.091 366.754 95.1818 366.166 95.4829C366.166 95.4829 366.816 92.6129 364.856 91.1329C363.856 90.3829 361.756 91.3229 361.756 91.3229C361.869 90.6641 361.798 89.9869 361.551 89.3658C361.304 88.7446 360.89 88.2038 360.356 87.8029C358.906 86.8029 357.026 87.9329 357.026 87.9329C357.026 87.9329 356.406 85.5029 354.596 85.0029C350.936 84.0329 341.456 95.5729 344.236 100.843Z" fill="#F48452"/>
<path d="M356.676 88.113C356.676 88.113 356.676 88.023 356.626 88.053C352.407 91.1889 349.243 95.535 347.556 100.513C347.506 100.673 347.746 100.823 347.836 100.653C350.157 96.0653 353.135 91.8408 356.676 88.113Z" fill="#263238"/>
<path d="M361.746 91.2975C361.746 91.2975 361.746 91.1875 361.666 91.2275C357.066 94.7381 353.873 99.7784 352.666 105.437C352.666 105.637 352.796 105.848 352.856 105.628C353.866 101.818 358.376 94.7475 361.746 91.2975Z" fill="#263238"/>
<path d="M358.166 110.018C359.416 104.488 362.306 99.9177 365.956 95.6477C365.956 95.6477 365.956 95.5377 365.866 95.5677C363.516 97.1677 361.476 100.138 360.076 102.568C358.741 104.809 358.017 107.36 357.976 109.968C357.976 110.078 358.136 110.128 358.166 110.018Z" fill="#263238"/>
<path d="M347.605 100.391C347.545 100.581 347.885 100.461 347.835 100.651C347.615 101.471 346.685 106.471 348.295 107.311C349.585 107.991 351.385 106.721 351.885 105.961L353.145 104.061L352.625 106.291C352.386 107.271 352.308 108.285 352.395 109.291C352.411 109.761 352.525 110.223 352.73 110.647C352.935 111.07 353.226 111.446 353.585 111.751C353.928 112.024 354.352 112.173 354.79 112.173C355.228 112.173 355.653 112.024 355.995 111.751C356.745 111.122 357.323 110.313 357.675 109.401L358.745 106.921L358.555 109.601C358.5 110.349 358.541 111.102 358.675 111.841C358.78 112.544 359.09 113.201 359.565 113.731C359.79 113.959 360.073 114.12 360.384 114.196C360.695 114.272 361.021 114.26 361.325 114.161C361.973 113.841 362.515 113.341 362.885 112.721C363.714 111.393 364.436 110.002 365.045 108.561C365.385 107.841 365.715 107.121 366.045 106.421C366.376 105.689 366.86 105.038 367.465 104.511C366.931 105.091 366.517 105.77 366.245 106.511C365.935 107.241 365.655 107.981 365.375 108.721C364.85 110.235 364.18 111.695 363.375 113.081C362.96 113.845 362.327 114.468 361.555 114.871C361.114 115.046 360.63 115.088 360.165 114.992C359.699 114.896 359.272 114.666 358.935 114.331C358.327 113.689 357.924 112.882 357.775 112.011C357.608 111.195 357.551 110.361 357.605 109.531L358.475 109.721C358.07 110.815 357.379 111.782 356.475 112.521C355.971 112.917 355.347 113.128 354.705 113.121C354.075 113.083 353.47 112.86 352.965 112.481C352.509 112.098 352.138 111.623 351.878 111.087C351.618 110.551 351.474 109.966 351.455 109.371C351.374 108.255 351.476 107.134 351.755 106.051L352.495 106.381C351.825 107.321 349.965 108.951 347.835 108.161C345.295 106.731 347.185 101.351 347.605 100.391Z" fill="#263238"/>
<path d="M347.696 100.359C347.275 100.761 346.796 101.099 346.276 101.359C346.068 101.458 345.838 101.501 345.609 101.486C345.379 101.47 345.158 101.395 344.966 101.269C344.591 100.925 344.324 100.481 344.196 99.9891C344.026 99.4491 343.876 98.8791 343.746 98.2891C343.566 98.8814 343.515 99.5053 343.596 100.119C343.652 100.809 343.979 101.449 344.506 101.899C344.806 102.11 345.164 102.224 345.531 102.224C345.898 102.224 346.256 102.11 346.556 101.899C347.094 101.524 347.494 100.983 347.696 100.359Z" fill="#263238"/>
<path d="M302.155 393.95C300.155 392.72 259.895 343.95 259.545 341.08C259.495 340.69 265.625 335.17 273.405 328.24C273.805 327.88 302.945 299.68 302.945 299.68L327.945 329.87L300.605 357.77C300.605 357.77 307.665 383.34 307.725 386.5C307.785 389.66 304.135 395.19 302.155 393.95Z" fill="#F48452"/>
<path d="M303.515 367.884C303.445 367.724 303.425 367.634 303.455 367.594C303.481 367.689 303.501 367.786 303.515 367.884Z" fill="#FCBB1B"/>
<path d="M307.735 386.51C307.785 389.65 304.125 395.2 302.155 393.96C300.185 392.72 259.895 343.96 259.545 341.09C259.485 340.7 265.615 335.18 273.405 328.25L279.665 322.25L305.435 352.9L300.615 357.82C300.615 357.82 307.675 383.34 307.735 386.51Z" fill="#EBEBEB"/>
<path d="M303.715 393.444C301.715 392.194 261.125 342.774 260.775 339.904C260.625 338.824 267.485 332.484 275.985 325.074L276.255 324.844L302.795 356.444L302.245 356.874C302.245 356.874 309.315 382.744 309.375 385.934C309.435 389.124 305.705 394.704 303.715 393.444Z" fill="#FCBB1B"/>
<path d="M305.166 391.312C298.536 382.812 270.956 349.152 263.756 341.252C263.696 341.192 263.646 341.252 263.706 341.302C270.096 349.872 297.936 383.302 305.036 391.422C305.186 391.592 305.306 391.512 305.166 391.312Z" fill="white"/>
<path d="M304.355 359.633C302.275 355.843 298.476 352.253 294.086 351.633C293.916 351.633 293.886 351.853 294.006 351.933C297.587 354.24 300.912 356.922 303.926 359.933C303.971 359.973 304.028 359.996 304.089 359.999C304.149 360.003 304.209 359.986 304.258 359.951C304.308 359.917 304.344 359.867 304.362 359.809C304.379 359.751 304.377 359.689 304.355 359.633Z" fill="white"/>
<path d="M304.866 363.164C302.786 359.384 298.996 355.794 294.596 355.164C294.426 355.164 294.396 355.384 294.516 355.464C298.102 357.768 301.431 360.45 304.446 363.464C304.491 363.499 304.547 363.519 304.605 363.519C304.663 363.52 304.719 363.503 304.766 363.469C304.813 363.436 304.848 363.388 304.866 363.333C304.884 363.278 304.884 363.219 304.866 363.164Z" fill="white"/>
<path d="M305.386 366.703C303.306 362.923 299.506 359.323 295.116 358.703C294.946 358.703 294.916 358.923 295.036 358.993C298.62 361.3 301.949 363.982 304.966 366.993C305.011 367.026 305.065 367.045 305.121 367.046C305.178 367.046 305.233 367.03 305.279 366.998C305.325 366.966 305.36 366.92 305.379 366.867C305.398 366.815 305.401 366.757 305.386 366.703Z" fill="white"/>
<path d="M306.105 392.738C306.485 393.908 303.355 396.158 302.596 395.738C301.836 395.318 257.865 341.178 257.275 340.088C256.685 338.998 260.275 336.648 261.335 337.568C262.395 338.488 306.105 392.738 306.105 392.738Z" fill="#263238"/>
<path d="M277.425 337.506C276.275 332.506 268.425 334.236 269.565 339.296C270.705 344.356 278.575 342.606 277.425 337.506Z" fill="white"/>
<path d="M322.975 269.208C320.735 280.208 280.265 318.258 280.265 318.258L312.155 355.078C312.155 355.078 371.845 296.218 368.455 271.858C365.505 250.658 333.775 165.438 333.775 165.438H297.165C297.165 165.438 325.165 258.368 322.975 269.208Z" fill="#37474F"/>
<path d="M322.975 269.208C320.735 280.208 280.265 318.258 280.265 318.258L312.155 355.078C312.155 355.078 371.845 296.218 368.455 271.858C365.505 250.658 333.775 165.438 333.775 165.438H297.165C297.165 165.438 325.165 258.368 322.975 269.208Z" fill="#37474F"/>
<path d="M315.785 346.317C311.545 341.047 312.835 342.497 308.545 337.267C306.435 334.707 292.605 317.917 290.225 315.867C290.175 315.867 290.085 315.867 290.115 315.957C291.715 318.657 305.835 335.217 307.995 337.737C312.385 342.877 311.185 341.357 315.635 346.447C315.715 346.507 315.865 346.417 315.785 346.317Z" fill="#263238"/>
<path d="M327.516 263.84C326.996 261.09 326.396 258.34 325.816 255.6C324.622 250 323.362 244.416 322.036 238.85C319.409 227.81 316.542 216.83 313.436 205.91C310.316 194.96 307.016 184.02 303.216 173.28C302.756 171.95 302.216 170.63 301.786 169.28C301.786 169.18 301.586 169.22 301.626 169.28C304.916 180.04 308.306 190.77 311.386 201.59C314.466 212.41 317.306 223.2 319.986 234.08C321.326 239.55 322.576 245.08 323.806 250.52C324.406 253.22 324.992 255.923 325.566 258.63C326.279 261.372 326.791 264.163 327.096 266.98C327.19 269.65 326.437 272.282 324.946 274.5C323.576 276.75 321.946 278.86 320.406 280.98C317.276 285.22 292.756 312.43 291.796 313.34C291.716 313.41 291.796 313.51 291.906 313.45C295.906 309.86 315.906 288.45 319.126 284.24C320.716 282.15 322.256 280.02 323.776 277.88C325.297 275.933 326.524 273.774 327.416 271.47C328.099 268.977 328.134 266.35 327.516 263.84Z" fill="#263238"/>
<path d="M327.446 165.43L320.796 252.65C314.456 222.8 297.176 165.43 297.176 165.43H327.446Z" fill="#263238"/>
<path d="M388.865 405.409C386.665 406.159 323.375 406.329 320.965 404.799C320.625 404.599 320.255 396.359 319.835 385.939C319.835 385.409 312.075 342.729 312.075 342.729L351.285 342.539L359.925 383.639C359.925 383.639 384.175 394.409 386.655 396.359C389.135 398.309 391.045 404.669 388.865 405.409Z" fill="#F48452"/>
<path d="M388.866 405.407C386.656 406.157 323.376 406.327 320.966 404.797C320.626 404.597 320.246 396.357 319.826 385.937C319.826 385.787 319.235 382.467 318.385 377.727H358.676L359.915 383.637C359.915 383.637 384.166 394.407 386.646 396.357C389.126 398.307 391.046 404.667 388.866 405.407Z" fill="#EBEBEB"/>
<path d="M369.545 387.812C369.385 387.812 369.295 387.722 369.285 387.672L369.545 387.812Z" fill="#FCBB1B"/>
<path d="M389.155 405.127C386.915 405.867 322.955 405.577 320.535 404.017C319.595 403.437 319.095 394.117 318.815 382.837V382.507L360.075 382.227V382.927C360.075 382.927 384.505 393.997 386.995 395.987C389.485 397.977 391.385 404.387 389.155 405.127Z" fill="#FCBB1B"/>
<path d="M388.435 402.639C377.655 402.329 334.145 402.079 323.435 402.589C323.345 402.589 323.345 402.649 323.435 402.659C334.105 403.199 377.615 403.099 388.435 402.819C388.665 402.809 388.665 402.649 388.435 402.639Z" fill="white"/>
<path d="M363.525 383.05C359.285 382.24 354.095 382.87 350.835 385.88C350.715 385.99 350.835 386.17 351.015 386.13C355.076 384.839 359.263 383.987 363.505 383.59C363.577 383.592 363.647 383.567 363.699 383.518C363.752 383.469 363.783 383.401 363.785 383.33C363.788 383.258 363.762 383.188 363.713 383.136C363.665 383.083 363.597 383.052 363.525 383.05Z" fill="white"/>
<path d="M366.575 384.909C362.335 384.099 357.145 384.729 353.895 387.739C353.765 387.849 353.895 388.029 354.065 387.989C358.126 386.7 362.313 385.849 366.555 385.449C366.591 385.451 366.626 385.445 366.66 385.432C366.693 385.42 366.723 385.401 366.749 385.377C366.775 385.353 366.796 385.324 366.811 385.292C366.826 385.259 366.834 385.225 366.835 385.189C366.837 385.154 366.831 385.118 366.819 385.085C366.806 385.052 366.788 385.021 366.763 384.995C366.739 384.969 366.71 384.948 366.678 384.934C366.646 384.919 366.611 384.91 366.575 384.909Z" fill="white"/>
<path d="M369.635 386.769C365.395 385.959 360.195 386.589 356.945 389.599C356.815 389.709 356.946 389.889 357.126 389.849C361.186 388.557 365.373 387.706 369.615 387.309C369.687 387.311 369.757 387.285 369.809 387.237C369.862 387.188 369.893 387.12 369.895 387.049C369.898 386.977 369.872 386.907 369.823 386.855C369.775 386.802 369.707 386.771 369.635 386.769Z" fill="white"/>
<path d="M390.136 402.843C391.286 403.283 391.016 407.133 390.186 407.433C389.356 407.733 319.626 407.113 318.446 406.843C317.266 406.573 317.716 402.323 319.096 402.103C320.476 401.883 390.136 402.843 390.136 402.843Z" fill="#263238"/>
<path d="M329.336 389.697C324.716 387.357 321.066 394.537 325.706 396.887C330.346 399.237 333.976 392.037 329.336 389.697Z" fill="white"/>
<path d="M330.246 165.438C328.82 171.454 327.768 177.553 327.096 183.698C326.336 191.358 325.376 198.138 324.356 198.978C323.336 199.818 317.416 203.648 315.466 204.838C315.466 204.838 333.466 259.518 338.156 277.738C344.906 304.158 361.036 374.248 361.036 374.248H316.866C316.866 374.248 304.936 307.968 299.216 282.818C294.286 261.238 275.486 196.508 275.486 196.508C268.646 179.688 280.176 165.398 280.176 165.398C280.176 165.398 330.246 165.408 330.246 165.438Z" fill="#37474F"/>
<path d="M356.926 365.893C350.396 365.893 352.276 365.773 345.746 365.813C342.556 365.813 321.576 365.963 318.596 366.523C318.536 366.523 318.536 366.653 318.596 366.663C321.596 367.123 342.596 366.663 345.746 366.533C352.276 366.363 350.396 366.333 356.916 366.093C356.942 366.094 356.968 366.085 356.988 366.067C357.007 366.049 357.019 366.024 357.021 365.998C357.022 365.971 357.013 365.945 356.995 365.926C356.977 365.906 356.952 365.894 356.926 365.893Z" fill="#263238"/>
<path d="M327.405 196.817C323.222 199.136 319.247 201.812 315.525 204.817C315.51 204.827 315.496 204.841 315.486 204.856C315.475 204.872 315.468 204.89 315.464 204.908C315.46 204.927 315.46 204.946 315.464 204.965C315.468 204.983 315.475 205.001 315.485 205.017C315.496 205.032 315.509 205.046 315.525 205.056C315.541 205.067 315.559 205.074 315.577 205.078C315.596 205.082 315.615 205.082 315.633 205.078C315.652 205.074 315.67 205.067 315.685 205.057C319.685 202.537 323.835 200.057 327.685 197.337C327.754 197.299 327.806 197.236 327.828 197.161C327.851 197.086 327.843 197.005 327.805 196.937C327.768 196.868 327.705 196.816 327.63 196.794C327.555 196.771 327.474 196.779 327.405 196.817Z" fill="#263238"/>
<path d="M324.115 167.078C324.115 166.928 323.815 166.938 323.845 167.078C324.592 171.889 325.096 176.735 325.355 181.598C325.505 183.858 325.625 196.408 321.625 196.118C320.965 196.118 320.535 195.478 320.285 194.528C320.099 193.253 320.072 191.959 320.205 190.678C320.205 188.038 320.205 185.408 319.995 182.778C319.695 177.874 318.887 173.015 317.585 168.278C317.574 168.25 317.553 168.227 317.527 168.213C317.5 168.199 317.469 168.194 317.44 168.2C317.41 168.206 317.384 168.222 317.365 168.245C317.346 168.268 317.335 168.297 317.335 168.328C318.496 175.015 319.145 181.781 319.275 188.568C319.275 191.828 318.435 196.888 321.845 196.868C325.255 196.848 326.275 188.438 326.355 186.168C326.439 179.734 325.686 173.317 324.115 167.078Z" fill="#263238"/>
<path d="M321.786 196.45C321.569 197.332 321.412 198.227 321.316 199.13C321.186 199.841 321.186 200.57 321.316 201.28C321.326 201.309 321.346 201.333 321.371 201.35C321.396 201.367 321.425 201.376 321.456 201.376C321.486 201.376 321.516 201.367 321.541 201.35C321.566 201.333 321.585 201.309 321.596 201.28C321.896 200.59 322.091 199.859 322.176 199.11C322.346 198.28 322.536 197.45 322.676 196.61C322.697 196.492 322.67 196.371 322.602 196.272C322.533 196.174 322.429 196.107 322.311 196.085C322.193 196.064 322.071 196.091 321.972 196.159C321.874 196.228 321.807 196.332 321.786 196.45Z" fill="#263238"/>
<path d="M313.006 351.33C312.886 350.33 312.756 349.33 312.616 348.33C312.346 346.42 312.026 344.52 311.726 342.61C311.136 338.78 310.486 334.97 309.806 331.16C308.456 323.55 306.896 315.97 305.246 308.43C304.316 304.16 303.246 299.95 302.096 295.73C302.016 295.44 301.606 295.58 301.656 295.87C302.346 299.72 303.016 303.58 303.806 307.42C304.596 311.26 305.376 315.08 306.136 318.91C307.636 326.48 309.036 334.08 310.536 341.66C310.966 343.8 311.346 345.94 311.766 348.08C311.976 349.15 312.186 350.21 312.416 351.28C312.646 352.35 312.976 353.38 313.156 354.45C313.156 354.55 313.316 354.5 313.306 354.45C313.136 353.4 313.116 352.36 313.006 351.33Z" fill="#263238"/>
<path d="M342.695 294.121C341.255 286.971 339.325 279.921 337.385 272.901C333.465 258.771 328.865 244.851 324.265 230.901L320.265 218.901C319.595 216.901 316.355 206.091 315.955 205.061C315.905 204.961 315.755 205.001 315.785 205.061C316.715 208.741 317.985 214.111 319.065 217.761C320.145 221.411 321.285 224.941 322.405 228.531C324.605 235.581 326.845 242.621 328.975 249.691C333.195 263.691 337.395 277.621 340.815 291.821C341.815 295.821 342.735 299.761 343.605 303.761C344.475 307.761 345.235 311.761 346.065 315.761C346.065 315.787 346.076 315.813 346.095 315.832C346.113 315.85 346.139 315.861 346.165 315.861C346.192 315.861 346.217 315.85 346.236 315.832C346.255 315.813 346.265 315.787 346.265 315.761C345.575 308.511 344.125 301.281 342.695 294.121Z" fill="#263238"/>
<path d="M315.925 331.507C313.555 317.877 310.715 304.327 307.565 290.847C304.415 277.367 300.885 263.847 297.005 250.507C293.125 237.167 288.865 223.907 284.215 210.797C282.035 204.587 279.365 198.437 278.375 191.917C276.99 183.546 278.396 174.951 282.375 167.457C282.381 167.447 282.385 167.435 282.387 167.423C282.388 167.411 282.387 167.399 282.384 167.387C282.381 167.376 282.375 167.365 282.368 167.355C282.36 167.346 282.351 167.338 282.34 167.332C282.33 167.326 282.318 167.322 282.306 167.321C282.294 167.32 282.282 167.32 282.271 167.324C282.259 167.327 282.248 167.332 282.239 167.34C282.229 167.347 282.221 167.357 282.215 167.367C278.325 173.177 273.995 185.217 281.215 204.527C283.615 210.967 285.685 217.527 287.815 224.037C290.002 230.75 292.099 237.48 294.105 244.227C298.105 257.617 301.765 271.097 305.105 284.667C308.445 298.237 311.355 311.897 313.945 325.617C316.535 339.337 317.575 344.037 319.785 357.867C320.075 359.667 320.305 361.477 320.545 363.287C320.545 363.387 320.715 363.387 320.705 363.287C318.935 349.577 318.285 345.097 315.925 331.507Z" fill="#263238"/>
<path d="M335.496 166.743L332.646 147.843C332.646 147.843 338.256 141.273 334.696 133.483C332.866 129.513 321.536 108.113 314.866 103.213C308.596 98.6132 300.726 102.953 297.776 106.903C289.286 118.273 283.116 129.183 278.206 166.433L335.496 166.743Z" fill="#DA4436"/>
<path d="M322.975 144.829C320.094 145.091 317.236 145.569 314.425 146.259C313.035 146.619 311.665 147.049 310.305 147.499C309.625 147.729 308.936 147.929 308.256 148.129C307.539 148.358 306.796 148.499 306.045 148.549C305.985 148.549 305.985 148.649 306.045 148.659C306.753 148.688 307.461 148.671 308.165 148.609C308.84 148.524 309.508 148.394 310.165 148.219C311.585 147.869 312.975 147.449 314.395 147.079C317.235 146.339 320.085 145.599 322.975 145.079C323.145 145.039 323.105 144.809 322.975 144.829Z" fill="#263238"/>
<path d="M330.105 147.357C327.73 147.111 325.343 147.004 322.955 147.037C321.765 147.037 320.575 147.137 319.385 147.257C318.825 147.317 318.255 147.377 317.685 147.457C317.115 147.537 316.455 147.697 315.835 147.777C315.822 147.777 315.809 147.782 315.8 147.792C315.791 147.801 315.785 147.814 315.785 147.827C315.785 147.84 315.791 147.853 315.8 147.862C315.809 147.872 315.822 147.877 315.835 147.877C316.425 147.827 317.025 147.877 317.615 147.877H319.395L322.965 147.777C325.345 147.687 327.725 147.627 330.105 147.617C330.122 147.617 330.139 147.614 330.155 147.607C330.171 147.601 330.185 147.591 330.197 147.579C330.209 147.567 330.219 147.553 330.225 147.537C330.232 147.521 330.235 147.504 330.235 147.487C330.235 147.47 330.232 147.453 330.225 147.437C330.219 147.422 330.209 147.407 330.197 147.395C330.185 147.383 330.171 147.374 330.155 147.367C330.139 147.36 330.122 147.357 330.105 147.357Z" fill="#263238"/>
<path d="M297.385 106.513C279.495 123.383 262.925 151.243 264.105 165.873C265.275 180.323 270.175 178.463 271.595 178.243C280.265 176.883 297.165 134.853 301.935 117.913C306.705 100.973 301.805 102.343 297.385 106.513Z" fill="#F48452"/>
<path d="M302.515 90.1267C299.405 90.0367 292.145 93.6067 290.335 98.0667C288.525 102.527 289.955 108.917 291.395 109.297C292.835 109.677 298.396 108.117 301.906 105.237C305.416 102.357 304.045 90.1767 302.515 90.1267Z" fill="#493536"/>
<path d="M302.526 90.1523C302.616 90.1523 302.596 89.9423 302.526 89.9623C299.906 90.3823 297.276 91.7923 294.926 92.9623C292.96 93.8217 291.196 95.0819 289.746 96.6623C289.085 97.4528 288.605 98.3773 288.337 99.3719C288.07 100.366 288.021 101.407 288.195 102.422C288.502 104.904 289.438 107.265 290.915 109.282C290.965 109.332 291.076 109.282 291.036 109.222C289.036 105.102 286.956 99.9923 290.716 96.2223C293.866 93.0323 298.496 91.8523 302.526 90.1523Z" fill="#493536"/>
<path d="M291.615 108.089C289.075 108.919 283.235 115.159 283.045 120.329C282.855 125.499 288.245 132.059 289.625 132.329C291.005 132.599 295.865 126.779 297.075 122.929C297.895 120.369 296.385 117.839 295.305 115.239C293.715 111.429 292.005 107.959 291.615 108.089Z" fill="#493536"/>
<path d="M298.526 122.038C298.346 116.838 294.526 112.378 291.956 108.148H291.876C293.656 112.338 297.026 115.778 297.966 120.338C298.3 121.664 298.311 123.05 297.996 124.38C297.68 125.71 297.049 126.944 296.156 127.978C294.496 129.788 292.156 130.908 290.086 132.128C289.946 132.208 290.086 132.408 290.226 132.328C294.426 130.058 298.706 127.398 298.526 122.038Z" fill="#493536"/>
<path d="M291.136 108.659C291.256 108.569 291.136 108.379 291.016 108.469C287.636 110.919 283.666 114.329 282.386 118.469C281.006 122.939 283.966 126.789 286.576 130.089C286.576 130.089 286.676 130.089 286.646 130.089C284.056 126.719 281.186 122.469 282.876 118.089C284.336 114.199 287.966 111.039 291.136 108.659Z" fill="#493536"/>
<path d="M290.446 131.188C287.996 134.758 285.166 139.868 287.156 143.308C289.146 146.748 295.286 150.778 295.696 150.638C296.106 150.498 301.356 144.228 301.246 139.378C301.136 134.528 290.766 130.718 290.446 131.188Z" fill="#263238"/>
<path d="M296.105 150.833C292.525 149.373 288.185 147.183 286.705 143.323C285.225 139.463 288.055 134.763 290.085 131.773H290.035C287.695 134.663 285.035 139.423 286.325 143.253C287.615 147.083 292.325 150.083 296.065 151.023C296.145 150.993 296.175 150.863 296.105 150.833Z" fill="#263238"/>
<path d="M295.526 150.289C294.842 151.68 294.45 153.196 294.376 154.744C294.303 156.293 294.547 157.839 295.096 159.289C297.336 165.039 294.746 165.179 289.866 169.959C285.726 173.959 287.866 180.019 292.066 181.159C292.066 181.159 288.596 178.709 290.886 175.159C293.616 170.899 304.936 169.709 306.106 161.579C307.636 151.029 295.526 150.289 295.526 150.289Z" fill="#493536"/>
<path d="M294.866 153.934C294.866 153.824 294.696 153.784 294.676 153.934C294.404 154.981 294.327 156.069 294.446 157.144C294.616 158.534 295.306 159.754 295.566 161.144C296.226 164.624 292.706 166.584 290.296 168.254C287.076 170.484 285.586 174.154 287.486 177.824C287.486 177.874 287.596 177.824 287.566 177.824C286.992 176.686 286.741 175.413 286.838 174.142C286.934 172.872 287.376 171.652 288.116 170.614C289.596 168.614 292.116 167.734 293.826 166.034C295.026 164.864 296.066 163.444 295.906 161.694C295.739 160.748 295.47 159.823 295.106 158.934C294.595 157.316 294.512 155.593 294.866 153.934Z" fill="#493536"/>
<path d="M296.785 150.398C296.735 150.398 296.725 150.468 296.785 150.478C299.785 151.228 302.955 151.918 305.135 154.348C307.485 156.958 307.715 160.838 306.455 164.008C305.035 167.558 301.665 168.258 298.455 169.418C296.056 170.108 293.884 171.427 292.165 173.238C292.115 173.298 292.215 173.378 292.275 173.328C295.145 170.578 298.785 169.758 302.365 168.328C303.72 167.836 304.908 166.972 305.792 165.834C306.677 164.697 307.222 163.332 307.365 161.898C308.355 155.088 302.925 151.238 296.785 150.398Z" fill="#493536"/>
<path d="M298.385 85.8121C298.146 85.6994 297.874 85.6801 297.621 85.7581C297.368 85.8361 297.154 86.0057 297.02 86.2337C296.886 86.4617 296.842 86.7315 296.896 86.9903C296.951 87.249 297.101 87.4779 297.316 87.6321C297.555 87.7449 297.827 87.7642 298.08 87.6862C298.333 87.6081 298.547 87.4385 298.681 87.2105C298.815 86.9826 298.859 86.7127 298.805 86.454C298.75 86.1953 298.6 85.9663 298.385 85.8121Z" fill="#FCBB1B"/>
<path d="M299.786 87.2041C299.545 87.0801 299.267 87.0525 299.007 87.127C298.747 87.2015 298.526 87.3725 298.388 87.605C298.25 87.8375 298.206 88.1139 298.265 88.3776C298.324 88.6414 298.482 88.8727 298.706 89.0241C298.946 89.1481 299.224 89.1756 299.484 89.1011C299.744 89.0266 299.965 88.8556 300.103 88.6231C300.241 88.3907 300.285 88.1143 300.226 87.8505C300.167 87.5867 300.009 87.3555 299.786 87.2041Z" fill="#FCBB1B"/>
<path d="M301.406 88.3434C301.166 88.2306 300.894 88.2113 300.641 88.2893C300.388 88.3673 300.174 88.537 300.04 88.765C299.906 88.9929 299.862 89.2628 299.916 89.5215C299.971 89.7803 300.121 90.0092 300.336 90.1634C300.575 90.2761 300.847 90.2954 301.1 90.2174C301.353 90.1394 301.567 89.9698 301.701 89.7418C301.835 89.5138 301.879 89.244 301.825 88.9852C301.77 88.7265 301.62 88.4976 301.406 88.3434Z" fill="#FCBB1B"/>
<path d="M303.125 89.2275C302.885 89.1035 302.607 89.0759 302.347 89.1505C302.087 89.225 301.865 89.396 301.728 89.6284C301.59 89.8609 301.546 90.1373 301.605 90.4011C301.664 90.6649 301.821 90.8961 302.045 91.0475C302.286 91.1715 302.564 91.1991 302.824 91.1246C303.084 91.05 303.305 90.879 303.443 90.6466C303.581 90.4141 303.625 90.1377 303.566 89.8739C303.507 89.6102 303.349 89.3789 303.125 89.2275Z" fill="#FCBB1B"/>
<path d="M305.005 89.8278C304.766 89.715 304.493 89.6957 304.241 89.7737C303.988 89.8517 303.774 90.0214 303.64 90.2493C303.506 90.4773 303.462 90.7472 303.516 91.0059C303.571 91.2646 303.721 91.4936 303.935 91.6478C304.175 91.7605 304.447 91.7798 304.7 91.7018C304.953 91.6238 305.167 91.4541 305.301 91.2262C305.435 90.9982 305.479 90.7283 305.424 90.4696C305.37 90.2109 305.22 89.982 305.005 89.8278Z" fill="#FCBB1B"/>
<path d="M306.865 90.0713C306.625 89.9472 306.347 89.9197 306.087 89.9942C305.827 90.0687 305.605 90.2397 305.468 90.4722C305.33 90.7047 305.286 90.981 305.345 91.2448C305.404 91.5086 305.561 91.7399 305.785 91.8913C306.026 92.0153 306.304 92.0428 306.564 91.9683C306.824 91.8938 307.045 91.7228 307.183 91.4903C307.321 91.2578 307.365 90.9815 307.306 90.7177C307.247 90.4539 307.089 90.2227 306.865 90.0713Z" fill="#FCBB1B"/>
<path d="M303.705 104.507C303.995 105.567 309.835 112.507 314.445 110.507C316.155 109.777 315.515 104.177 315.515 104.177L317.345 94.3969L304.865 87.0469C304.865 87.0469 303.585 104.027 303.705 104.507Z" fill="#F48452"/>
<path d="M304.436 93.3869C305.5 95.7641 307.041 97.8972 308.965 99.6536C310.888 101.41 313.152 102.752 315.616 103.597L317.346 94.3569L304.866 87.0469C304.866 87.0469 304.686 89.9169 304.436 93.3869Z" fill="#263238"/>
<path d="M326.366 78.7393C329.306 94.7393 320.036 98.3493 316.576 98.9793C313.436 99.5493 302.666 101.099 298.086 85.4593C293.506 69.8193 300.036 63.3693 307.146 61.6793C314.256 59.9893 323.426 62.6993 326.366 78.7393Z" fill="#F48452"/>
<path d="M321.726 77.4431C321.346 77.4431 320.996 77.3631 320.616 77.3231C320.215 77.3354 319.822 77.216 319.496 76.9831C319.405 76.8904 319.348 76.7695 319.336 76.6404C319.323 76.5113 319.355 76.3817 319.426 76.2731C319.591 76.079 319.805 75.933 320.046 75.8503C320.287 75.7676 320.546 75.7513 320.796 75.8031C321.322 75.8225 321.823 76.0404 322.196 76.4131C322.275 76.5029 322.326 76.6137 322.344 76.7321C322.361 76.8506 322.344 76.9716 322.295 77.0805C322.245 77.1894 322.165 77.2816 322.064 77.346C321.963 77.4103 321.845 77.444 321.726 77.4431Z" fill="#493536"/>
<path d="M310.746 78.6912C311.108 78.5976 311.465 78.4841 311.816 78.3512C312.2 78.2758 312.55 78.0796 312.816 77.7912C312.884 77.6835 312.914 77.556 312.901 77.4291C312.889 77.3022 312.834 77.1833 312.746 77.0912C312.543 76.9323 312.302 76.83 312.048 76.7949C311.793 76.7597 311.533 76.793 311.296 76.8912C310.788 77.0229 310.347 77.336 310.056 77.7712C309.992 77.877 309.961 77.9995 309.967 78.1229C309.973 78.2464 310.016 78.3652 310.09 78.4641C310.164 78.563 310.266 78.6374 310.383 78.6779C310.5 78.7184 310.626 78.723 310.746 78.6912Z" fill="#493536"/>
<path d="M313.475 82.5625C313.475 82.5625 313.396 82.6225 313.396 82.6625C313.576 83.7625 313.585 85.0525 312.635 85.5425C312.635 85.5425 312.635 85.6125 312.635 85.6025C313.865 85.2825 313.865 83.5725 313.475 82.5625Z" fill="#493536"/>
<path d="M312.346 81.5078C310.556 81.5878 310.856 85.1578 312.516 85.0878C314.176 85.0178 313.866 81.5078 312.346 81.5078Z" fill="#493536"/>
<path d="M311.665 81.7795C311.365 81.9995 311.095 82.3895 310.715 82.4595C310.335 82.5295 309.925 82.1895 309.615 81.8495C309.615 81.8495 309.545 81.8495 309.555 81.8495C309.605 82.5395 309.925 83.2095 310.665 83.2595C311.405 83.3095 311.775 82.6495 311.885 81.9395C311.865 81.8595 311.775 81.6795 311.665 81.7795Z" fill="#493536"/>
<path d="M319.995 81.7031C319.995 81.7031 320.085 81.7031 320.085 81.7931C320.085 82.9031 320.385 84.1631 321.415 84.4531V84.5231C320.175 84.4431 319.865 82.7631 319.995 81.7031Z" fill="#493536"/>
<path d="M320.865 80.5068C322.635 80.2368 323.045 83.7968 321.405 84.0468C319.765 84.2968 319.415 80.6868 320.865 80.5068Z" fill="#493536"/>
<path d="M321.665 80.6066C321.965 80.7666 322.285 81.0766 322.665 81.0566C323.045 81.0366 323.305 80.6266 323.505 80.2266H323.565C323.665 80.9066 323.565 81.6366 322.885 81.8466C322.205 82.0566 321.795 81.5066 321.555 80.8466C321.465 80.7566 321.545 80.5066 321.665 80.6066Z" fill="#493536"/>
<path d="M314.506 91.7698C314.766 92.0298 315.036 92.3898 315.436 92.4298C315.847 92.4297 316.254 92.3374 316.626 92.1598C316.626 92.1598 316.695 92.1598 316.675 92.2198C316.514 92.4347 316.299 92.6026 316.051 92.7063C315.803 92.8101 315.532 92.8458 315.265 92.8098C315.038 92.7481 314.833 92.6202 314.678 92.4421C314.523 92.264 314.425 92.0439 314.395 91.8098C314.394 91.7963 314.397 91.7826 314.404 91.7709C314.411 91.7593 314.422 91.7505 314.435 91.7458C314.447 91.7411 314.461 91.741 314.474 91.7453C314.487 91.7497 314.498 91.7583 314.506 91.7698Z" fill="#493536"/>
<path d="M318.946 87.3067C319.105 88.1099 319.222 88.9211 319.296 89.7367C319.296 89.8067 319.116 89.8567 318.856 89.8767C318.19 90.0301 317.495 89.9985 316.847 89.7852C316.198 89.5719 315.62 89.1851 315.176 88.6667C315.116 88.5967 315.176 88.5067 315.286 88.5567C316.317 89.1841 317.523 89.4644 318.726 89.3567C318.776 89.1367 318.096 86.5567 318.226 86.5367C318.834 86.5632 319.436 86.6708 320.016 86.8567C319.466 83.4067 318.376 80.0767 317.876 76.6367C317.876 76.5167 318.036 76.4667 318.076 76.5767C319.369 80.1175 320.304 83.7792 320.866 87.5067C320.866 87.9367 319.266 87.4267 318.946 87.3067Z" fill="#493536"/>
<path d="M318.626 89.5097C318.257 90.1628 317.727 90.7103 317.086 91.0997C316.725 91.2956 316.313 91.3759 315.906 91.3297C315.016 91.2297 314.906 90.4497 314.906 89.7597C314.942 89.3914 315.023 89.0289 315.146 88.6797C316.186 89.3233 317.406 89.6144 318.626 89.5097Z" fill="#493536"/>
<path d="M317.086 91.087C316.725 91.2828 316.313 91.3631 315.906 91.317C315.016 91.217 314.906 90.437 314.906 89.747C315.368 89.6804 315.84 89.7779 316.238 90.0227C316.636 90.2675 316.936 90.6441 317.086 91.087Z" fill="#FF9ABB"/>
<path d="M314.506 65.8233C314.877 67.2283 314.817 68.7123 314.336 70.0833C312.626 73.7733 308.206 72.8333 306.716 74.3033C305.226 75.7733 305.836 78.4933 304.566 79.8633C302.816 81.7633 300.396 81.0433 300.116 82.3233C299.836 83.6033 300.056 86.3233 298.456 86.8133C296.856 87.3033 288.566 61.6233 310.136 61.2033C312.374 61.0284 314.626 61.2726 316.776 61.9233C322.926 63.6633 325.216 74.0333 325.216 74.0333C324.435 74.0737 323.66 73.8749 322.996 73.4633C321.996 72.5633 321.576 71.7333 320.826 71.1633C319.646 70.2533 319.006 70.6033 317.826 69.7233C316.486 68.6408 315.36 67.3183 314.506 65.8233Z" fill="#493536"/>
<path d="M314.175 64.6484C314.512 65.6969 314.727 66.7808 314.815 67.8784C314.961 68.9471 314.816 70.0353 314.395 71.0284C313.85 71.9318 312.998 72.6095 311.995 72.9384C310.995 73.3084 309.895 73.4284 308.815 73.8684C308.262 74.0951 307.779 74.4643 307.415 74.9384C307.107 75.4354 306.903 75.99 306.815 76.5684C306.704 77.6342 306.307 78.6501 305.665 79.5084C305.314 79.9036 304.881 80.2168 304.395 80.4258C303.909 80.6349 303.384 80.7348 302.855 80.7184C301.795 80.7184 300.625 80.4384 299.585 80.9184C300.655 80.5284 301.745 80.9184 302.845 80.9784C303.419 81.0205 303.996 80.9357 304.533 80.7301C305.071 80.5244 305.556 80.2029 305.955 79.7884C306.689 78.9026 307.148 77.8216 307.275 76.6784C307.361 76.1634 307.548 75.6706 307.825 75.2284C308.138 74.8311 308.553 74.5268 309.025 74.3484C310.025 73.9284 311.105 73.7884 312.155 73.3484C312.696 73.148 313.202 72.8646 313.655 72.5084C314.128 72.1642 314.506 71.7069 314.755 71.1784C315.165 70.1082 315.273 68.9457 315.065 67.8184C314.888 66.7319 314.589 65.6686 314.175 64.6484Z" fill="#493536"/>
<path d="M314.585 65.6094C314.79 66.619 315.126 67.5974 315.585 68.5194C316.053 69.4845 316.794 70.2911 317.715 70.8394C318.183 71.0698 318.672 71.254 319.175 71.3894C319.622 71.5299 320.021 71.7933 320.325 72.1494C320.589 72.5933 320.897 73.0088 321.245 73.3894C321.63 73.7471 322.092 74.0107 322.595 74.1594C322.149 73.9284 321.754 73.6085 321.435 73.2194C321.136 72.8113 320.874 72.3761 320.655 71.9194C320.333 71.4581 319.875 71.1086 319.345 70.9194C318.873 70.7779 318.415 70.5938 317.975 70.3694C317.141 69.8636 316.452 69.1505 315.975 68.2994C315.454 67.4342 314.989 66.5356 314.585 65.6094Z" fill="#493536"/>
<path d="M301.336 85.5128C301.336 85.5128 297.076 80.9928 294.976 82.5928C292.876 84.1928 296.606 91.0928 299.436 91.6928C299.793 91.7949 300.167 91.8239 300.536 91.7779C300.904 91.7319 301.26 91.6119 301.581 91.4251C301.903 91.2384 302.183 90.9887 302.405 90.691C302.628 90.3933 302.788 90.0538 302.876 89.6928L301.336 85.5128Z" fill="#F48452"/>
<path d="M296.095 84.5671C296.045 84.5671 296.095 84.6271 296.095 84.6371C298.095 85.1271 299.345 86.7171 300.305 88.4271C300.168 88.255 299.994 88.1147 299.797 88.0159C299.6 87.917 299.384 87.8619 299.164 87.8543C298.943 87.8467 298.724 87.8868 298.521 87.9718C298.317 88.0569 298.135 88.1849 297.985 88.3471C297.985 88.3471 297.985 88.4571 298.055 88.4371C298.371 88.2837 298.726 88.2321 299.071 88.2895C299.417 88.3468 299.737 88.5102 299.985 88.7571C300.406 89.1665 300.779 89.6228 301.095 90.1171C301.205 90.2671 301.495 90.1171 301.405 89.9471C301.065 87.5071 298.705 84.4271 296.095 84.5671Z" fill="#493536"/>
<path d="M321.985 109.809L311.555 137.639C311.155 138.449 311.495 139.179 312.325 139.269L327.095 140.929C327.551 140.945 328.001 140.832 328.395 140.604C328.79 140.376 329.112 140.042 329.325 139.639L339.755 111.809C339.874 111.663 339.949 111.486 339.972 111.299C339.994 111.112 339.963 110.922 339.883 110.752C339.803 110.582 339.676 110.438 339.517 110.336C339.358 110.235 339.174 110.18 338.985 110.179L324.205 108.509C323.75 108.494 323.3 108.608 322.907 108.838C322.515 109.068 322.195 109.405 321.985 109.809Z" fill="#37474F"/>
<path d="M323.735 109.997L313.305 137.817C313.187 137.963 313.112 138.14 313.089 138.327C313.067 138.514 313.097 138.704 313.178 138.874C313.258 139.044 313.385 139.188 313.544 139.29C313.703 139.391 313.887 139.446 314.075 139.447L328.865 141.107C329.319 141.123 329.769 141.01 330.162 140.782C330.554 140.554 330.875 140.219 331.085 139.817L341.515 111.987C341.915 111.177 341.575 110.447 340.745 110.357L325.965 108.697C325.509 108.681 325.057 108.795 324.663 109.025C324.268 109.255 323.947 109.592 323.735 109.997Z" fill="#455A64"/>
<path d="M327.645 111.76C327.613 112.009 327.508 112.243 327.343 112.433C327.177 112.623 326.96 112.759 326.717 112.824C326.474 112.89 326.217 112.882 325.979 112.801C325.74 112.721 325.531 112.571 325.378 112.371C325.225 112.172 325.135 111.931 325.118 111.68C325.102 111.429 325.161 111.179 325.287 110.962C325.413 110.744 325.601 110.569 325.827 110.458C326.052 110.347 326.306 110.306 326.555 110.34C326.721 110.36 326.88 110.414 327.024 110.497C327.169 110.58 327.295 110.69 327.396 110.822C327.498 110.954 327.572 111.105 327.615 111.266C327.657 111.427 327.668 111.595 327.645 111.76Z" fill="#263238"/>
<path d="M269.585 178.391C276.115 178.701 283.705 172.951 303.195 155.841C305.885 153.481 294.295 129.961 291.285 132.341C287.495 135.341 273.435 147.791 272.525 148.831C264.865 157.611 265.155 178.181 269.585 178.391Z" fill="#F48452"/>
<path d="M284.505 140.38C284.505 140.38 289.695 131.51 293.855 127.69C298.292 123.834 303.597 121.11 309.315 119.75C315.485 118.27 331.425 118.94 332.035 123.57C332.585 127.75 316.325 126.24 316.325 126.24C316.325 126.24 333.155 125.05 332.885 130.24C332.615 135.43 313.865 132.51 313.865 132.51C313.865 132.51 331.185 131.67 330.065 136.95C329.225 140.95 312.065 139.34 312.065 139.34C312.065 139.34 326.955 138.72 326.265 142.86C325.505 147.44 309.585 146.95 309.585 146.95C306.055 157.18 300.195 160.61 295.725 162.55C294.645 163.05 284.505 140.38 284.505 140.38Z" fill="#F48452"/>
<path d="M310.476 126.284C312.476 126.074 314.476 125.844 316.426 125.804C318.376 125.764 320.426 125.804 322.376 125.954C324.963 126.105 327.526 126.544 330.016 127.264C325.506 126.264 318.406 126.314 316.416 126.354C314.426 126.394 312.416 126.354 310.476 126.354V126.284Z" fill="#263238"/>
<path d="M310.476 133.447C313.006 133.287 315.476 133.027 318.046 132.977C320.616 132.927 322.976 133.107 325.496 133.227C325.686 133.227 325.626 133.337 325.426 133.337C322.906 133.337 320.566 133.487 318.036 133.497C315.506 133.507 312.986 133.407 310.476 133.497V133.447Z" fill="#263238"/>
<path d="M309.365 139.604C313.241 139.26 317.142 139.317 321.005 139.774C321.195 139.774 321.095 139.914 320.895 139.914C317.025 139.774 313.995 139.644 309.385 139.734C309.315 139.734 309.285 139.614 309.365 139.604Z" fill="#263238"/>
<path d="M266.716 164.319C266.949 159.636 268.289 155.074 270.626 151.009C275.056 145.229 282.096 139.949 287.506 135.059C289.142 132.163 291.251 129.56 293.746 127.359C296.236 125.105 299.158 123.38 302.336 122.289C299.265 123.561 296.458 125.392 294.056 127.689C291.632 129.994 289.569 132.651 287.936 135.569C282.616 140.489 275.626 145.739 271.086 151.339C268.709 155.307 267.219 159.742 266.716 164.339V164.319Z" fill="#263238"/>
<path d="M242.546 53.5161C242.98 57.6847 244.565 61.6504 247.123 64.9705C249.681 68.2905 253.112 70.8342 257.032 72.3175C260.952 73.8009 265.207 74.1654 269.322 73.3706C273.437 72.5757 277.25 70.6526 280.336 67.8161L291.646 69.5161L285.986 59.7361C287.404 56.2927 287.941 52.5494 287.546 48.8461C286.921 42.8787 283.951 37.4039 279.29 33.626C274.629 29.8481 268.658 28.0765 262.691 28.7011C256.723 29.3257 251.248 32.2952 247.47 36.9564C243.693 41.6177 241.921 47.5887 242.546 53.5561V53.5161Z" fill="white"/>
<path d="M249.316 34.8228C253.076 31.1602 257.982 28.9045 263.21 28.4353C268.438 27.966 273.668 29.3117 278.021 32.246C282.373 35.1803 285.581 39.5242 287.107 44.5467C288.632 49.5691 288.381 54.9637 286.396 59.8228V59.4328L292.026 69.2328L292.446 69.9628L291.626 69.8328L280.316 68.0928L280.586 68.0128C277.442 70.8606 273.567 72.7757 269.396 73.5428C268.363 73.7344 267.316 73.8414 266.266 73.8628C265.219 73.9179 264.169 73.8978 263.126 73.8028C261.038 73.6036 258.989 73.1157 257.036 72.3528C255.083 71.615 253.245 70.605 251.576 69.3528C250.738 68.7408 249.943 68.0726 249.196 67.3528C248.462 66.6114 247.777 65.823 247.146 64.9928C243.755 60.5723 242.106 55.0605 242.511 49.5042C242.917 43.9479 245.349 38.734 249.346 34.8528L249.316 34.8228ZM247.176 64.9128C248.426 66.5772 249.928 68.0379 251.626 69.2428C253.288 70.4851 255.124 71.4757 257.076 72.1828C259.021 72.9036 261.057 73.3512 263.126 73.5128C264.154 73.5828 265.187 73.5828 266.216 73.5128C267.247 73.4663 268.274 73.3393 269.286 73.1328C273.345 72.3191 277.097 70.3863 280.116 67.5528L280.226 67.4528H280.386L291.706 69.0428L291.306 69.6328L285.606 59.8728L285.506 59.6928L285.586 59.4828C286.84 56.358 287.383 52.9934 287.176 49.6328C286.952 46.2672 285.971 42.9957 284.306 40.0628C282.611 37.1411 280.3 34.623 277.536 32.6828C274.745 30.7558 271.55 29.4935 268.196 28.9928C263.765 28.3114 259.231 28.9776 255.184 30.9049C251.137 32.8321 247.762 35.9315 245.498 39.8007C243.234 43.6699 242.185 48.1302 242.488 52.6029C242.791 57.0755 244.431 61.3539 247.196 64.8828L247.176 64.9128Z" fill="#263238"/>
<path d="M262.556 64.0406L252.885 54.2606L256.135 51.0606L261.776 56.7706L273.506 38.3906L277.346 40.8406L262.556 64.0406Z" fill="#FCBB1B"/>
<path d="M188.025 406.063H80.2454L95.9654 296.273H172.315L188.025 406.063Z" fill="#37474F"/>
<path d="M172.305 296.273L160.335 406.063H188.025L172.305 296.273Z" fill="#455A64"/>
<path d="M117.465 303.845L114.095 303.135C114.095 303.035 116.095 293.815 118.155 284.505C120.415 274.445 130.315 269.815 138.585 271.145C144.775 272.145 151.635 276.975 150.585 287.295C149.475 298.295 148.585 303.545 148.585 303.765L145.185 303.215C145.185 303.215 146.045 297.875 147.135 286.955C147.925 279.025 142.935 275.345 137.995 274.545C131.305 273.465 123.295 277.175 121.475 285.255C119.435 294.505 117.485 303.755 117.465 303.845Z" fill="#263238"/>
<path d="M161.795 405.222C164.005 403.642 166.305 402.222 168.595 400.752C170.885 399.282 173.225 397.952 175.595 396.612L175.915 396.422L176.215 396.642C178.035 398.012 179.855 399.382 181.625 400.822C183.395 402.262 185.175 403.682 186.875 405.212C184.875 404.032 183.015 402.772 181.135 401.482C179.255 400.192 177.385 398.892 175.545 397.552H176.155C173.825 398.922 171.455 400.242 169.075 401.552C166.695 402.862 164.265 404.092 161.795 405.222Z" fill="white"/>
<path d="M175.865 397.104C175.395 390.104 175.045 383.104 174.715 376.104C174.385 369.104 174.145 362.104 173.865 355.104C173.585 348.104 173.425 341.104 173.275 334.104L173.085 323.504C173.085 320.004 172.995 316.504 173.005 312.984C173.255 316.484 173.425 319.984 173.645 323.484L174.165 333.994C174.495 340.994 174.725 347.994 175.005 354.994C175.285 361.994 175.445 368.994 175.585 375.994C175.725 382.994 175.865 390.084 175.865 397.104Z" fill="white"/>
<path d="M120.356 303.508C120.358 304.414 120.09 305.301 119.588 306.056C119.085 306.811 118.37 307.399 117.533 307.747C116.696 308.095 115.774 308.186 114.885 308.01C113.995 307.834 113.178 307.397 112.537 306.756C111.896 306.115 111.459 305.298 111.283 304.409C111.107 303.519 111.198 302.597 111.546 301.76C111.894 300.923 112.483 300.208 113.237 299.705C113.992 299.203 114.879 298.936 115.786 298.938C116.997 298.94 118.158 299.423 119.014 300.279C119.871 301.135 120.353 302.296 120.356 303.508Z" fill="#263238"/>
<path d="M151.145 303.508C151.147 304.414 150.88 305.301 150.378 306.056C149.875 306.811 149.16 307.399 148.323 307.747C147.485 308.095 146.564 308.186 145.674 308.01C144.785 307.834 143.968 307.397 143.327 306.756C142.686 306.115 142.249 305.298 142.073 304.409C141.896 303.519 141.988 302.597 142.336 301.76C142.684 300.923 143.272 300.208 144.027 299.705C144.782 299.203 145.669 298.936 146.575 298.938C147.787 298.94 148.947 299.423 149.804 300.279C150.66 301.135 151.143 302.296 151.145 303.508Z" fill="#263238"/>
<path d="M132.825 406.062H39.0754L52.7454 310.562H119.155L132.825 406.062Z" fill="#FCBB1B"/>
<path d="M119.155 310.562L108.735 406.062H132.825L119.155 310.562Z" fill="#FCBB1B"/>
<path opacity="0.1" d="M119.155 310.562L108.735 406.062H132.825L119.155 310.562Z" fill="black"/>
<path d="M71.4554 317.159L68.5154 316.539C68.5154 316.459 70.2354 308.429 72.0554 300.339C74.0554 291.579 82.6254 287.559 89.8154 288.719C95.2054 289.589 101.175 293.789 100.275 302.719C99.2754 312.329 98.5754 316.859 98.5454 317.049L95.5454 316.569C95.5454 316.519 96.2854 311.929 97.2454 302.429C97.9354 295.529 93.5854 292.329 89.2454 291.629C83.4354 290.689 76.4654 293.919 74.8854 300.949C73.1654 309.069 71.4654 317.079 71.4554 317.159Z" fill="#263238"/>
<path d="M110.005 405.337C111.935 403.967 113.925 402.708 115.925 401.458C117.925 400.208 119.925 399.008 122.005 397.848L122.285 397.688L122.535 397.878C124.125 399.068 125.705 400.258 127.245 401.508C128.785 402.758 130.335 403.998 131.815 405.328C130.115 404.328 128.455 403.207 126.815 402.087C125.175 400.967 123.555 399.828 121.955 398.668H122.495C120.495 399.858 118.405 401.008 116.325 402.128C114.245 403.248 112.155 404.357 110.005 405.337Z" fill="white"/>
<path d="M122.246 398.267C121.836 392.177 121.526 386.087 121.246 379.997C120.966 373.907 120.756 367.807 120.506 361.707C120.256 355.607 120.126 349.517 119.996 343.417L119.826 334.267C119.826 331.217 119.746 328.167 119.756 325.117C119.976 328.117 120.126 331.207 120.316 334.247L120.765 343.387C121.055 349.487 121.256 355.577 121.506 361.677C121.756 367.777 121.886 373.867 122.006 379.967C122.126 386.067 122.246 392.167 122.246 398.267Z" fill="white"/>
<path d="M73.9653 316.844C73.9653 317.635 73.7307 318.408 73.2912 319.066C72.8517 319.724 72.227 320.237 71.4961 320.539C70.7652 320.842 69.9609 320.921 69.185 320.767C68.4091 320.613 67.6963 320.232 67.1369 319.672C66.5775 319.113 66.1965 318.4 66.0422 317.624C65.8879 316.848 65.9671 316.044 66.2698 315.313C66.5726 314.582 67.0853 313.957 67.7431 313.518C68.4008 313.078 69.1742 312.844 69.9653 312.844C71.0262 312.844 72.0436 313.265 72.7938 314.015C73.5439 314.765 73.9653 315.783 73.9653 316.844Z" fill="#263238"/>
<path d="M100.745 316.844C100.745 317.635 100.511 318.408 100.071 319.066C99.6317 319.724 99.007 320.237 98.2761 320.539C97.5452 320.842 96.7409 320.921 95.965 320.767C95.1891 320.613 94.4763 320.232 93.9169 319.672C93.3575 319.113 92.9766 318.4 92.8222 317.624C92.6679 316.848 92.7471 316.044 93.0498 315.313C93.3526 314.582 93.8653 313.957 94.5231 313.518C95.1809 313.078 95.9542 312.844 96.7454 312.844C97.8062 312.844 98.8236 313.265 99.5738 314.015C100.324 314.765 100.745 315.783 100.745 316.844Z" fill="#263238"/>
</svg>
