<svg width="73" height="73" viewBox="0 0 73 73" fill="none" xmlns="http://www.w3.org/2000/svg">
<path opacity="0.2" d="M38.6 0C39.8936 0.186821 41.2055 0.298668 42.4838 0.571289C57.137 3.7071 66.6185 12.4866 70.8666 26.8398C71.4933 28.9558 71.632 31.2162 71.9994 33.4082C72.0382 33.6377 72.0815 33.8631 72.1244 34.0898V38.1748C71.9581 39.4244 71.8251 40.6801 71.6254 41.9229L71.5033 42.6367C70.8566 46.1999 69.6702 49.5844 68.0014 52.8096C67.8683 53.0669 67.8283 53.4431 67.9018 53.7227C69.2397 58.7862 70.5982 63.8434 71.9555 68.9014C71.9651 68.9331 71.9722 68.9653 71.9818 68.9971C72.0124 69.1034 72.076 69.203 72.1244 69.3066V70.4326C71.8042 71.2408 71.2385 71.8016 70.433 72.124H69.3061C69.187 72.0909 69.0677 72.0566 68.9486 72.0234C67.3376 71.5723 65.7288 71.1129 64.1137 70.6729C60.7003 69.747 57.2868 68.822 53.8637 67.9336C53.5046 67.8395 53.0202 67.8907 52.6889 68.0596C48.251 70.3318 43.5579 71.6771 38.5766 72.0078C38.395 72.0189 38.2157 72.0839 38.0356 72.124H34.2328C32.841 71.9441 31.4408 71.8169 30.06 71.5762C20.9372 69.9889 13.4475 65.5798 7.72013 58.3174C2.18548 51.2985 -0.33002 43.2416 0.0345819 34.3213C0.708392 17.9447 12.8721 3.82394 28.9506 0.706055C30.5103 0.404373 32.0967 0.232489 33.6703 0H38.6Z" fill="#16A458"/>
<path fill-rule="evenodd" clip-rule="evenodd" d="M41.9396 19.6645L42.5057 19.0125L44.1859 20.9471C44.8881 21.7532 45.9217 22.1563 47.0592 21.8929L49.5617 21.3143L49.567 21.4164C49.6208 22.287 49.6817 23.2973 49.8411 24.2091C49.9987 25.1155 50.6114 25.9108 51.4819 26.2781L53.9504 27.326L52.5657 29.6278C52.0411 30.5023 52.0418 31.5949 52.5675 32.4688L53.9504 34.7688C53.0681 35.1793 52.675 36.219 53.0648 37.1106C53.4546 38.0021 54.4848 38.4194 55.3852 38.0505L56.2146 37.6994H56.2182C56.9544 37.3854 57.5185 36.768 57.7652 36.0065C58.0118 35.245 57.9166 34.4141 57.5043 33.7281L57.5007 33.7227L55.8939 31.0465L57.5061 28.3667C57.9176 27.6804 58.0118 26.8495 57.7645 26.0885C57.5173 25.3274 56.9527 24.7106 56.2164 24.3972L53.3037 23.1612C53.232 22.6023 53.1962 22.047 53.1604 21.4308V21.429C53.1353 21.0439 53.112 20.6372 53.0744 20.1912C53.0166 19.4412 52.6768 18.7409 52.1232 18.2315C51.4679 17.6348 50.5602 17.4002 49.6978 17.6045L46.6418 18.3121L44.5926 15.9512V15.9494C44.0678 15.3471 43.3084 15.001 42.5096 15C41.7108 14.999 40.9505 15.3431 40.4242 15.944L39.233 17.3144C38.584 18.0613 38.6634 19.1929 39.4103 19.8419C40.1572 20.4909 41.2889 20.4115 41.9379 19.6645H41.9396ZM30.9625 53.1441L30.3965 53.7961L28.7144 51.8615C28.0152 51.0256 26.9018 50.6595 25.843 50.9175L23.3405 51.4961L23.3333 51.394C23.2796 50.5234 23.2187 49.5131 23.0611 48.5995C22.8987 47.677 22.2815 46.8988 21.4202 46.5306H21.4184L18.9518 45.4827L20.3329 43.1808C20.8573 42.3071 20.8573 41.2154 20.3329 40.3416L18.95 38.0416C19.8565 37.6447 20.2698 36.5882 19.8731 35.6816C19.4765 34.7751 18.42 34.3616 17.5134 34.7581L16.684 35.111H16.6822C15.9462 35.4248 15.382 36.0417 15.1351 36.8027C14.8882 37.5638 14.9827 38.3944 15.3943 39.0805L15.3978 39.0859L17.0064 41.7621L15.3943 44.4437C14.9827 45.1298 14.8882 45.9605 15.1351 46.7215C15.382 47.4825 15.9462 48.0995 16.6822 48.4132H16.684L19.5949 49.6492C19.6701 50.2063 19.7024 50.7634 19.74 51.3796C19.7633 51.7648 19.7883 52.1732 19.8242 52.6192C19.8833 53.3304 20.1968 54.0523 20.7771 54.5789C21.3969 55.1396 22.2729 55.4172 23.2026 55.2041L26.2568 54.4983L28.3096 56.8592C29.4023 58.1203 31.3781 58.1239 32.4726 56.8664L33.6638 55.4961C34.3128 54.7491 34.2334 53.6175 33.4865 52.9685C32.7395 52.3195 31.6079 52.3989 30.9589 53.1459L30.9625 53.1441ZM19.2474 30.8781L17.5922 27.3439L15.7006 25.4164L24.469 15.0519L26.0346 16.4223L28.6034 16.116C29.7915 15.9561 30.9997 16.0378 32.1555 16.356C33.3146 16.6742 34.3978 17.2225 35.3405 17.9682L36.2988 18.7295C37.8743 19.9674 38.4987 22.0637 37.8573 23.9619L34.812 21.5615C34.4734 21.2938 34.0068 21.2563 33.6298 21.4666C33.3828 21.6072 33.2023 21.8407 33.1282 22.1151C33.0113 22.5341 33.1558 22.9825 33.4954 23.2543L38.8084 27.5785C39.3652 28.0199 39.724 28.6641 39.8062 29.3698C39.8889 30.0737 39.6921 30.7819 39.2581 31.3421L31.5554 38.8423C31.1224 39.3987 30.4855 39.7597 29.7856 39.8454C29.0856 39.9286 28.3815 39.7272 27.8313 39.2865L22.7028 35.2471C21.2182 34.0882 20.0343 32.5891 19.251 30.8763L19.2474 30.8781ZM55.8617 45.119L54.1564 41.6081C53.3512 39.9055 52.1483 38.4218 50.649 37.2821L45.4685 33.3107C44.9113 32.8799 44.2056 32.6884 43.507 32.7787C42.8081 32.8708 42.1755 33.24 41.7516 33.8033L34.1457 41.4021C33.7164 41.9674 33.5289 42.6799 33.6244 43.3832C33.718 44.0863 34.0841 44.7244 34.6437 45.1602L40.0122 49.4146C40.3577 49.6801 40.509 50.1278 40.3955 50.5485C40.323 50.8239 40.1447 51.0595 39.8993 51.2041C39.5258 51.4215 39.0576 51.3895 38.7171 51.1235L35.6414 48.7625C35.0243 50.6692 35.676 52.7578 37.2679 53.9752L38.2352 54.7258C40.1551 56.2072 42.5948 56.8442 44.9938 56.4902L47.559 56.1499L49.1425 57.4987L57.7766 47.0214L55.8599 45.119H55.8617Z" fill="#16A458"/>
</svg>
