<svg width="86" height="86" viewBox="0 0 86 86" fill="none" xmlns="http://www.w3.org/2000/svg">
<path opacity="0.25" fill-rule="evenodd" clip-rule="evenodd" d="M26.5489 82.7164C4.61409 73.6307 -5.80212 48.4838 3.2836 26.5489C12.3693 4.61409 37.5162 -5.80212 59.4511 3.2836C81.3859 12.3693 91.8021 37.5162 82.7164 59.4511C73.6307 81.3859 48.4838 91.8021 26.5489 82.7164Z" fill="#FCBB1B"/>
<path d="M43 41.95C48.509 41.95 52.975 37.484 52.975 31.975C52.975 26.4659 48.509 22 43 22C37.491 22 33.025 26.4659 33.025 31.975C33.025 37.484 37.491 41.95 43 41.95ZM43 41.95C53.4935 41.95 62 50.4565 62 60.95M43 41.95C32.5066 41.95 24 50.4565 24 60.95M40.3402 35.015C41.8602 33.495 44.1402 33.495 45.6602 35.015M31.0299 64.75V60.38H54.78V64.75M43.95 60.38H34.45V53.73H43.95V60.38ZM43.95 60.38V49.93H51.55V60.38H43.95Z" stroke="#FCBB1B" stroke-width="2.7" stroke-linecap="round" stroke-linejoin="round"/>
</svg>
