<svg width="86" height="86" viewBox="0 0 86 86" fill="none" xmlns="http://www.w3.org/2000/svg">
<g opacity="0.25">
<path fill-rule="evenodd" clip-rule="evenodd" d="M26.5489 82.7164C4.61409 73.6307 -5.80212 48.4838 3.2836 26.5489C12.3693 4.61409 37.5162 -5.80212 59.4511 3.2836C81.3859 12.3693 91.8021 37.5162 82.7164 59.4511C73.6307 81.3859 48.4838 91.8021 26.5489 82.7164Z" fill="#FCBB1B"/>
</g>
<path d="M58.5978 55.3785V49.8024M41.8696 64.75H28.8587C27.8322 64.75 27 63.9178 27 62.8913V23.8587C27 22.8322 27.8322 22 28.8587 22H53.5663C54.0593 22.0001 54.5319 22.196 54.8804 22.5446L61.7762 29.4348C62.1248 29.7833 62.3207 30.256 62.3208 30.7489V38.7283M32.5761 49.8804H49.3043V39.6576C49.3043 39.1443 49.7204 38.7283 50.2337 38.7283H52.0924C52.6057 38.7283 53.0217 39.1443 53.0217 39.6576V42.4457M45.587 49.8804V35.9402C45.587 35.427 45.1709 35.0109 44.6576 35.0109H42.7989C42.2856 35.0109 41.8696 35.427 41.8696 35.9402V49.8804M58.5978 59.0958C58.8545 59.0958 59.0625 59.3039 59.0625 59.5605C59.0625 59.8171 58.8545 60.0252 58.5978 60.0252C58.3412 60.0252 58.1332 59.8171 58.1332 59.5605C58.1332 59.3039 58.3412 59.0958 58.5978 59.0958ZM60.1554 44.2393C59.8493 43.6632 59.2502 43.3032 58.5978 43.3032C57.9455 43.3032 57.3464 43.6632 57.0402 44.2393L47.6501 62.1404C47.3675 62.6772 47.3901 63.3235 47.7096 63.8392C48.0302 64.3584 48.5975 64.6737 49.2077 64.6719H67.9954C68.6061 64.674 69.1741 64.3587 69.4954 63.8392C69.8135 63.3229 69.8354 62.6771 69.553 62.1404L60.1554 44.2393ZM35.3641 40.587H37.2228C37.7361 40.587 38.1522 41.003 38.1522 41.5163V49.8804H34.4348V41.5163C34.4348 41.003 34.8509 40.587 35.3641 40.587Z" stroke="#FCBB1B" stroke-width="2.5" stroke-linecap="round" stroke-linejoin="round"/>
</svg>
