<svg width="86" height="86" viewBox="0 0 86 86" fill="none" xmlns="http://www.w3.org/2000/svg">
<g opacity="0.25">
<path fill-rule="evenodd" clip-rule="evenodd" d="M26.5489 82.7164C4.61409 73.6307 -5.80212 48.4838 3.2836 26.5489C12.3693 4.61409 37.5162 -5.80212 59.4511 3.2836C81.3859 12.3693 91.8021 37.5162 82.7164 59.4511C73.6307 81.3859 48.4838 91.8021 26.5489 82.7164Z" fill="#FCBB1B"/>
</g>
<path d="M52.0969 38.6606V31.2043H31.5922V55.4371H40.9125M57.6891 37.7285V27.4762C57.6891 26.4467 56.8545 25.6121 55.825 25.6121H47.5299C46.5167 23.4105 44.3147 22 41.8911 22C39.4675 22 37.2656 23.4105 36.2523 25.6121H27.8641C26.8346 25.6121 26 26.4467 26 27.4762V59.1653C26 60.1948 26.8346 61.0293 27.8641 61.0293H39.0484M37.1844 36.7965H46.5047M37.1844 42.3887H46.5047M37.1844 47.9809H42.7766M60.6529 49.1739L66.3197 51.709M66.3197 51.709L68.8734 45.9863M66.3197 51.709C65.8171 46.8604 62.0093 43.0143 57.166 42.4632C52.3227 41.9121 47.7481 44.8045 46.1692 49.4162M51.8732 57.9723L46.2064 55.4371M46.2064 55.4371L43.6527 61.1598M46.2064 55.4371C46.709 60.2857 50.5168 64.1319 55.3601 64.6829C60.2034 65.234 64.778 62.3417 66.3569 57.7299" stroke="#FCBB1B" stroke-width="2.5" stroke-linecap="round" stroke-linejoin="round"/>
</svg>
