<svg width="54" height="54" viewBox="0 0 54 54" fill="none" xmlns="http://www.w3.org/2000/svg">
<path d="M21.5652 52C21.5652 46.5972 17.1854 42.2174 11.7826 42.2174C6.37982 42.2174 2 46.5972 2 52M37.4348 52C37.4339 48.9699 35.7651 46.1863 33.0928 44.7576C30.4206 43.329 27.179 43.4873 24.6587 45.1696M50.8348 52C50.8343 49.9241 49.6912 48.0171 47.8607 47.0381C46.0301 46.0592 43.8094 46.1674 42.0826 47.3196M8.52174 2V21.5652M8.52174 2V12.8696H32.4348C34.2357 12.8696 35.6957 14.3295 35.6957 16.1304V5.26087C35.6957 3.45994 34.2357 2 32.4348 2H8.52174ZM36.7826 12.8696H52L45.4783 18.3043L52 23.7391H32.4348C30.0335 23.7391 28.087 21.7925 28.087 19.3913V17.2174M5.26087 32.4348C5.26087 36.0366 8.18075 38.9565 11.7826 38.9565C15.3845 38.9565 18.3043 36.0366 18.3043 32.4348C18.3043 28.8329 15.3845 25.913 11.7826 25.913C8.18075 25.913 5.26087 28.8329 5.26087 32.4348ZM23.7391 35.0283C23.7391 38.0526 26.1909 40.5043 29.2152 40.5043C32.2396 40.5043 34.6913 38.0526 34.6913 35.0283C34.6913 32.0039 32.2396 29.5522 29.2152 29.5522C26.1909 29.5522 23.7391 32.0039 23.7391 35.0283ZM41.4565 39.6587C41.4559 41.7314 43.136 43.4119 45.2087 43.4119C47.2814 43.4119 48.9614 41.7314 48.9609 39.6587C48.9614 37.586 47.2814 35.9055 45.2087 35.9055C43.136 35.9055 41.4559 37.586 41.4565 39.6587Z" stroke="#DA4436" stroke-width="4" stroke-linecap="round" stroke-linejoin="round"/>
</svg>
