<svg width="74" height="86" viewBox="0 0 74 86" fill="none" xmlns="http://www.w3.org/2000/svg">
<path fill-rule="evenodd" clip-rule="evenodd" d="M44.1102 71.8617C60.3654 68.4832 72.5798 54.0785 72.5798 36.8211C72.5798 17.0549 56.5561 1.03125 36.7899 1.03125C17.0236 1.03125 1 17.0549 1 36.8211C1 54.0785 13.2143 68.4832 29.4695 71.8617L36.7899 84.541L44.1102 71.8617ZM60.6498 36.8211C60.6498 49.9986 49.9674 60.6811 36.7899 60.6811C23.6124 60.6811 12.93 49.9986 12.93 36.8211C12.93 23.6436 23.6124 12.9612 36.7899 12.9612C49.9674 12.9612 60.6498 23.6436 60.6498 36.8211Z" fill="#FFDB82"/>
<path fill-rule="evenodd" clip-rule="evenodd" d="M31.7415 36.7272C34.8692 36.723 37.5122 34.4076 37.928 31.3076C37.9464 31.1285 37.8869 30.9501 37.7645 30.818C37.6422 30.6859 37.4689 30.6128 37.2889 30.6174H31.7415V24.9038C31.7457 24.7262 31.6743 24.5552 31.5451 24.4333C31.4159 24.3114 31.241 24.2501 31.064 24.2647C27.9103 24.6092 25.5175 27.266 25.5038 30.4384C25.5577 33.8693 28.3112 36.6453 31.7415 36.7272ZM37.8385 44.9845V41.9423C37.819 41.6572 37.819 41.3711 37.8385 41.0859C34.9652 38.751 31.0315 38.2081 27.6332 39.6776C24.2348 41.1471 21.936 44.3849 21.6692 48.0777C21.6584 48.2526 21.7214 48.4241 21.8428 48.5504C21.9643 48.6767 22.1331 48.7463 22.3083 48.7424H36.3686C36.1253 48.3591 35.9886 47.9179 35.9723 47.4642C35.9641 46.3114 36.7285 45.2957 37.8385 44.9845ZM34.937 28.061H39.8836L40.5228 27.3452C40.253 24.4105 37.9662 22.065 35.0392 21.7211C34.8558 21.6956 34.6702 21.7493 34.5288 21.8688C34.3873 21.9883 34.3034 22.1623 34.2979 22.3474V27.4602C34.3182 27.7981 34.5985 28.0616 34.937 28.061ZM51.2981 46.7995C50.6164 46.8004 50.0539 46.2661 50.0199 45.5852V41.9423C50.0199 39.0904 47.7079 36.7784 44.8559 36.7784C42.0039 36.7784 39.6919 39.0904 39.6919 41.9423L39.6919 45.5852C39.6578 46.2661 39.0954 46.8004 38.4137 46.7995C38.0777 46.8063 37.807 47.0771 37.8002 47.4131C37.8071 47.7469 38.0798 48.0139 38.4137 48.0138L51.1958 48.0138C51.4338 48.0485 51.67 47.9409 51.8001 47.7387C51.9302 47.5365 51.9302 47.2769 51.8001 47.0747C51.67 46.8725 51.4338 46.7649 51.1958 46.7995H51.2981ZM42.5807 49.6116C42.5807 50.9035 43.6279 51.9507 44.9198 51.9507C46.2117 51.9507 47.2589 50.9035 47.2589 49.6116L42.5807 49.6116Z" fill="#FFDB82"/>
<path fill-rule="evenodd" clip-rule="evenodd" d="M44.1102 71.8617C60.3654 68.4832 72.5798 54.0785 72.5798 36.8211C72.5798 17.0549 56.5561 1.03125 36.7899 1.03125C17.0236 1.03125 1 17.0549 1 36.8211C1 54.0785 13.2143 68.4832 29.4695 71.8617L36.7899 84.541L44.1102 71.8617ZM60.6498 36.8211C60.6498 49.9986 49.9674 60.6811 36.7899 60.6811C23.6124 60.6811 12.93 49.9986 12.93 36.8211C12.93 23.6436 23.6124 12.9612 36.7899 12.9612C49.9674 12.9612 60.6498 23.6436 60.6498 36.8211Z" stroke="white" stroke-width="2" stroke-linecap="round" stroke-linejoin="round"/>
</svg>
