<svg width="74" height="87" viewBox="0 0 74 87" fill="none" xmlns="http://www.w3.org/2000/svg">
<path fill-rule="evenodd" clip-rule="evenodd" d="M44.1103 72.3383C60.3655 68.9597 72.5798 54.5551 72.5798 37.2977C72.5798 17.5315 56.5561 1.50781 36.7899 1.50781C17.0236 1.50781 1 17.5315 1 37.2977C1 54.5551 13.2142 68.9597 29.4695 72.3383L36.7899 85.0175L44.1103 72.3383ZM60.6498 37.2977C60.6498 50.4752 49.9674 61.1576 36.7899 61.1576C23.6124 61.1576 12.93 50.4752 12.93 37.2977C12.93 24.1202 23.6124 13.4378 36.7899 13.4378C49.9674 13.4378 60.6498 24.1202 60.6498 37.2977Z" fill="#DA9E0A"/>
<path fill-rule="evenodd" clip-rule="evenodd" d="M36.7198 21.9844C37.0854 21.9831 37.4165 22.1097 37.6657 22.2631C37.9175 22.419 38.1808 22.6593 38.3432 22.984L38.3508 22.998L39.6239 25.6503H41.7049C43.1326 25.6503 44.0568 27.4027 42.8936 28.5646L42.877 28.5813L40.8088 30.5459L41.9439 33.1253C42.2299 33.7863 42.0686 34.5559 41.5412 35.0464C41.03 35.5181 40.2503 35.6434 39.5587 35.2331L36.7198 33.5957L33.8822 35.2318C33.255 35.6233 32.4435 35.5474 31.8997 35.0464C31.3724 34.5559 31.2111 33.7863 31.4971 33.1253L32.6296 30.5446L30.5627 28.5813L30.5461 28.5646C29.3842 27.4027 30.3083 25.6503 31.7348 25.6503H33.8157L35.0965 22.984C35.2601 22.658 35.5222 22.419 35.774 22.2631C36.0245 22.1097 36.3555 21.9819 36.7211 21.9844H36.7198ZM29.7766 23.9567L29.9108 24.2353C28.06 25.3346 27.2777 28.0086 29.1899 29.9208L29.2423 29.9719L30.3339 31.0073L29.7421 32.3533L29.7037 32.4427C29.2921 33.4594 29.3641 34.608 29.8993 35.5654L28.1456 34.5543L25.308 36.1904C24.6808 36.5819 23.8693 36.506 23.3255 36.0051C22.7981 35.5145 22.6369 34.745 22.9228 34.0839L24.0566 31.5045L21.9897 29.5399L21.9719 29.5233C20.81 28.3614 21.7341 26.609 23.1606 26.609H25.2415L26.521 23.9426C26.6846 23.6167 26.9479 23.3777 27.1985 23.2217C27.449 23.0683 27.78 22.9405 28.1456 22.9431C28.5112 22.9418 28.8422 23.0683 29.0915 23.2217C29.3446 23.3777 29.6066 23.618 29.7689 23.9426L29.7766 23.9567ZM45.4219 34.5531L43.4765 35.6766C44.0863 34.6708 44.1693 33.4313 43.6989 32.3533L43.1071 31.0073L44.1974 29.9719L44.2498 29.9208C46.1275 28.0419 45.4078 25.4305 43.6286 24.2967L43.7973 23.9426C43.9609 23.6167 44.2229 23.3777 44.4747 23.2217C44.724 23.0683 45.0563 22.9405 45.4206 22.9431C45.7875 22.9418 46.1185 23.0683 46.3678 23.2217C46.6196 23.3777 46.8829 23.618 47.0452 23.9426L47.0529 23.9567L48.326 26.609H50.4069C51.8334 26.609 52.7575 28.3614 51.5956 29.5233L51.5778 29.5399L49.5109 31.5045L50.6447 34.0839C50.9306 34.745 50.7694 35.5145 50.242 36.0051C49.7307 36.4768 48.951 36.602 48.2608 36.1917L45.4219 34.5543V34.5531ZM43.4087 52.5528C43.8196 52.5523 44.205 52.3536 44.4436 52.0191C44.6822 51.6846 44.7448 51.2555 44.6115 50.8668C44.0451 49.2062 43.4433 47.5578 42.8067 45.9227L33.9103 51.0995V51.2746C33.9103 51.9805 34.4826 52.5528 35.1885 52.5528H43.4087ZM36.3351 36.4691C38.1093 36.8257 39.854 38.8044 42.2021 44.4272L33.7991 49.3164H32.1208C30.0757 49.3164 28.414 47.6547 28.414 45.6096V44.9705C28.414 44.2035 28.7975 43.5644 29.4366 43.3088L35.6998 40.1133V37.0456C35.6998 36.6928 35.9887 36.3988 36.3351 36.4691Z" fill="#DA9E0A"/>
<path fill-rule="evenodd" clip-rule="evenodd" d="M44.1103 72.3383C60.3655 68.9597 72.5798 54.5552 72.5798 37.2977C72.5798 17.5315 56.5561 1.50781 36.7899 1.50781C17.0236 1.50781 1 17.5315 1 37.2977C1 54.5552 13.2142 68.9597 29.4695 72.3383L36.7899 85.0175L44.1103 72.3383ZM60.6498 37.2977C60.6498 50.4752 49.9674 61.1576 36.7899 61.1576C23.6124 61.1576 12.93 50.4752 12.93 37.2977C12.93 24.1202 23.6124 13.4378 36.7899 13.4378C49.9674 13.4378 60.6498 24.1202 60.6498 37.2977Z" stroke="white" stroke-width="2" stroke-linecap="round" stroke-linejoin="round"/>
</svg>
