<svg width="74" height="86" viewBox="0 0 74 86" fill="none" xmlns="http://www.w3.org/2000/svg">
<path fill-rule="evenodd" clip-rule="evenodd" d="M44.1103 71.8305C60.3655 68.4519 72.5798 54.0473 72.5798 36.7899C72.5798 17.0236 56.5561 1 36.7899 1C17.0236 1 1 17.0236 1 36.7899C1 54.0473 13.2142 68.4519 29.4695 71.8305L36.7899 84.5097L44.1103 71.8305ZM60.6498 36.7899C60.6498 49.9674 49.9674 60.6498 36.7899 60.6498C23.6124 60.6498 12.93 49.9674 12.93 36.7899C12.93 23.6124 23.6124 12.93 36.7899 12.93C49.9674 12.93 60.6498 23.6124 60.6498 36.7899Z" fill="#B88300"/>
<path fill-rule="evenodd" clip-rule="evenodd" d="M36.7838 24.0017C29.7243 24.0017 24.0017 29.7243 24.0017 36.7838C24.0017 38.2691 24.2548 39.6918 24.7175 41.0147C24.9383 41.677 24.5868 42.3939 23.928 42.625C23.2693 42.8561 22.547 42.5159 22.3056 41.8609C21.7344 40.2292 21.4435 38.5126 21.4453 36.7838C21.4453 28.3131 28.3131 21.4453 36.7838 21.4453C40.1711 21.4453 43.3014 22.5446 45.8387 24.4018L47.2064 23.0341C47.4805 22.7603 47.8926 22.6785 48.2506 22.8267C48.6086 22.9749 48.8421 23.3241 48.8425 23.7116V28.1176C48.8425 28.647 48.4133 29.0762 47.8838 29.0762H43.4778C43.0904 29.0759 42.7412 28.8423 42.5929 28.4843C42.4447 28.1263 42.5266 27.7143 42.8004 27.4401L44.0045 26.2348C41.8794 24.7761 39.3614 23.9974 36.7838 24.0017ZM49.5429 30.7302C50.2055 30.4863 50.9403 30.8256 51.1842 31.4882C51.79 33.1409 52.1224 34.9253 52.1224 36.7838C52.1224 45.2558 45.2558 52.1224 36.7838 52.1224C33.3966 52.1224 30.2662 51.0244 27.729 49.1659L26.3613 50.5335C26.0872 50.8074 25.6751 50.8892 25.3171 50.741C24.9591 50.5927 24.7255 50.2436 24.7252 49.8561V45.4501C24.7252 44.9206 25.1544 44.4914 25.6839 44.4914H30.0899C30.4773 44.4918 30.8265 44.7253 30.9747 45.0834C31.123 45.4414 31.0411 45.8534 30.7673 46.1276L29.5632 47.3329C31.6883 48.7917 34.2063 49.5704 36.7838 49.5659C43.8421 49.5659 49.5659 43.8434 49.5659 36.7838C49.5674 35.2779 49.3021 33.7836 48.7824 32.3702C48.5394 31.7077 48.8793 30.9736 49.5417 30.7302H49.5429ZM36.789 35.6015C37.9304 35.6245 38.9952 35.0287 39.5727 34.0437C40.1502 33.0588 40.1502 31.8387 39.5727 30.8538C38.9952 29.8689 37.9304 29.2731 36.789 29.2961C35.0725 29.3306 33.6991 30.732 33.6991 32.4488C33.6991 34.1656 35.0725 35.5669 36.789 35.6015ZM36.7838 37.0165C39.4489 37.0165 41.8328 38.5171 43.1187 40.7041C43.5545 41.4455 42.9461 42.2814 42.0871 42.2814H31.4793C30.6203 42.2814 30.0106 41.4442 30.4465 40.7041C31.7324 38.5184 34.1162 37.0165 36.7826 37.0165H36.7838Z" fill="#B88300"/>
<path fill-rule="evenodd" clip-rule="evenodd" d="M44.1103 71.8305C60.3655 68.4519 72.5798 54.0473 72.5798 36.7899C72.5798 17.0236 56.5561 1 36.7899 1C17.0236 1 1 17.0236 1 36.7899C1 54.0473 13.2142 68.4519 29.4695 71.8305L36.7899 84.5097L44.1103 71.8305ZM60.6498 36.7899C60.6498 49.9674 49.9674 60.6498 36.7899 60.6498C23.6124 60.6498 12.93 49.9674 12.93 36.7899C12.93 23.6124 23.6124 12.93 36.7899 12.93C49.9674 12.93 60.6498 23.6124 60.6498 36.7899Z" stroke="white" stroke-width="2" stroke-linecap="round" stroke-linejoin="round"/>
</svg>
