<svg width="74" height="86" viewBox="0 0 74 86" fill="none" xmlns="http://www.w3.org/2000/svg">
<path fill-rule="evenodd" clip-rule="evenodd" d="M44.1103 71.8461C60.3655 68.4675 72.5798 54.063 72.5798 36.8055C72.5798 17.0393 56.5561 1.01562 36.7899 1.01562C17.0236 1.01562 1 17.0393 1 36.8055C1 54.063 13.2142 68.4675 29.4695 71.8461L36.7899 84.5254L44.1103 71.8461ZM60.6498 36.8055C60.6498 49.983 49.9674 60.6654 36.7899 60.6654C23.6124 60.6654 12.93 49.983 12.93 36.8055C12.93 23.628 23.6124 12.9456 36.7899 12.9456C49.9674 12.9456 60.6498 23.628 60.6498 36.8055Z" fill="#FCBB1B"/>
<path fill-rule="evenodd" clip-rule="evenodd" d="M39.8586 21.4609C38.5173 21.461 37.293 22.2243 36.7025 23.4286C36.1121 24.6328 36.2584 26.0682 37.0797 27.1285L34.7457 30.4659C33.933 30.3177 33.0941 30.4588 32.3746 30.8647L29.3708 28.9538C29.9298 27.3613 29.2781 25.5964 27.8183 24.7493C26.3585 23.9023 24.5028 24.2123 23.3976 25.4878C22.2924 26.7633 22.2497 28.6442 23.2959 29.9686C24.3421 31.2929 26.1818 31.6868 27.6785 30.9069L30.7539 32.8626C30.2532 34.4474 30.931 36.1663 32.3786 36.9829C33.8261 37.7995 35.6478 37.4907 36.7454 36.2426C37.8429 34.9945 37.9163 33.1483 36.9212 31.817L39.2795 28.4425C40.0275 28.5663 40.7955 28.4466 41.4704 28.1012L44.2607 30.705C43.6351 32.2753 44.2158 34.0687 45.6433 34.9742C47.0707 35.8797 48.9405 35.6409 50.0946 34.4057C51.2487 33.1705 51.3601 31.2888 50.3599 29.9261C49.3597 28.5633 47.5311 28.1055 46.0068 28.8362L43.1627 26.1814C43.5563 25.1031 43.3987 23.9007 42.7405 22.9603C42.0823 22.02 41.0064 21.4602 39.8586 21.4609ZM30.0406 39.9145C30.1968 39.5743 30.5368 39.3562 30.9111 39.3559H46.2496C46.6241 39.3556 46.9644 39.5735 47.121 39.9136C47.2776 40.2538 47.2218 40.6539 46.9782 40.9383L43.6664 44.8011H33.4944L30.1838 40.9383C29.9404 40.6542 29.8845 40.2544 30.0406 39.9145ZM34.1373 46.7184L34.8275 50.3357V50.3447C35.0525 51.4656 35.9856 52.138 37.0465 52.138H40.1142C41.1751 52.138 42.1082 51.4656 42.3319 50.3447L43.0221 46.7184H34.1386H34.1373Z" fill="#FCBB1B"/>
<path fill-rule="evenodd" clip-rule="evenodd" d="M44.1103 71.8461C60.3655 68.4675 72.5798 54.063 72.5798 36.8055C72.5798 17.0393 56.5561 1.01562 36.7899 1.01562C17.0236 1.01562 1 17.0393 1 36.8055C1 54.063 13.2142 68.4675 29.4695 71.8461L36.7899 84.5254L44.1103 71.8461ZM60.6498 36.8055C60.6498 49.983 49.9674 60.6654 36.7899 60.6654C23.6124 60.6654 12.93 49.983 12.93 36.8055C12.93 23.628 23.6124 12.9456 36.7899 12.9456C49.9674 12.9456 60.6498 23.628 60.6498 36.8055Z" stroke="white" stroke-width="2" stroke-linecap="round" stroke-linejoin="round"/>
</svg>
