<svg width="74" height="87" viewBox="0 0 74 87" fill="none" xmlns="http://www.w3.org/2000/svg">
<path fill-rule="evenodd" clip-rule="evenodd" d="M44.1102 72.3539C60.3654 68.9753 72.5798 54.5707 72.5798 37.3133C72.5798 17.5471 56.5561 1.52344 36.7899 1.52344C17.0236 1.52344 1 17.5471 1 37.3133C1 54.5707 13.2143 68.9753 29.4695 72.3539L36.7899 85.0332L44.1102 72.3539ZM60.6498 37.3133C60.6498 50.4908 49.9674 61.1732 36.7899 61.1732C23.6124 61.1732 12.93 50.4908 12.93 37.3133C12.93 24.1358 23.6124 13.4534 36.7899 13.4534C49.9674 13.4534 60.6498 24.1358 60.6498 37.3133Z" fill="#FFCC4E"/>
<path fill-rule="evenodd" clip-rule="evenodd" d="M25.2033 52.6575H48.3644C50.4399 52.6575 52.1224 50.975 52.1224 48.8996V25.7384C52.1224 23.663 50.4399 21.9805 48.3644 21.9805H25.2033C23.1278 21.9805 21.4453 23.663 21.4453 25.7384V48.8996C21.4453 50.975 23.1278 52.6575 25.2033 52.6575ZM48.3644 50.1011H25.2033C24.4973 50.1011 23.925 49.5288 23.925 48.8229V25.8151C23.9244 25.4624 24.0695 25.1251 24.3261 24.883C24.5827 24.641 24.9279 24.5157 25.2799 24.5369H48.2877C48.9937 24.5369 49.5659 25.1092 49.5659 25.8151V48.8996C49.5281 49.5469 49.0117 50.0633 48.3644 50.1011ZM45.5268 41.9078L42.8809 44.2469C42.7665 44.3436 42.599 44.3436 42.4846 44.2469L40.7335 42.9687C40.327 42.681 39.8381 42.533 39.3403 42.5469C38.8119 42.5488 38.3026 42.7444 37.9087 43.0965L34.6876 45.9469C34.1626 46.4168 34.1169 47.2229 34.5853 47.7492C34.8247 48.0217 35.1685 48.1797 35.5312 48.1838C35.8463 48.1865 36.1513 48.0727 36.3876 47.8642L39.238 45.3078C39.3582 45.214 39.5268 45.214 39.647 45.3078L41.3854 46.586C41.8092 46.8891 42.322 47.0421 42.8426 47.0206C43.37 47.014 43.8778 46.8191 44.2741 46.471L47.2652 43.8123C47.6312 43.5175 47.8059 43.0456 47.7201 42.5836C47.6343 42.1215 47.3019 41.7438 46.8545 41.5999C46.4071 41.4561 45.9169 41.5694 45.5779 41.895L45.5268 41.9078ZM39.7621 34.916C39.7178 34.8536 39.6468 34.8157 39.5703 34.8137L34.368 34.4047C34.2822 34.401 34.1987 34.4334 34.1379 34.4941C34.1012 34.5709 34.1012 34.6602 34.1379 34.737L35.2628 39.8498C35.2823 39.9266 35.3334 39.9916 35.4034 40.0288C35.4765 40.0616 35.5603 40.0616 35.6334 40.0288C37.7469 39.1868 39.3198 37.3708 39.8515 35.1588C39.8709 35.0674 39.8361 34.9729 39.7621 34.916ZM30.6612 26.8504C30.585 26.873 30.5236 26.9297 30.495 27.0038C30.4622 27.077 30.4622 27.1607 30.495 27.2339L33.4094 32.5768C33.4461 32.6639 33.5322 32.7196 33.6267 32.7174L39.6854 33.1904C39.7654 33.197 39.8445 33.1691 39.9027 33.1137C39.9544 33.0533 39.9817 32.9758 39.9794 32.8964C39.8011 30.7298 38.6288 28.7681 36.8052 27.5849C34.9815 26.4016 32.7124 26.1304 30.6612 26.8504ZM28.9101 27.873C28.8366 27.8418 28.7535 27.8418 28.68 27.873C26.2627 29.6973 25.2854 32.8646 26.2544 35.7338C27.2233 38.603 29.9208 40.5293 32.9492 40.5145H33.3582C33.4382 40.5126 33.5132 40.4751 33.5627 40.4123C33.594 40.3388 33.594 40.2557 33.5627 40.1822L32.1567 33.7911V33.7272L29.1146 28.0008C29.0705 27.9283 28.9946 27.8809 28.9101 27.873ZM43.814 29.0106C43.814 29.7166 44.3863 30.2888 45.0922 30.2888C45.7981 30.2888 46.3704 29.7166 46.3704 29.0106C46.3704 28.3047 45.7981 27.7324 45.0922 27.7324C44.3863 27.7324 43.814 28.3047 43.814 29.0106ZM43.814 32.8453C43.814 33.5512 44.3863 34.1235 45.0922 34.1235C45.7981 34.1235 46.3704 33.5512 46.3704 32.8453C46.3704 32.1393 45.7981 31.567 45.0922 31.567C44.3863 31.567 43.814 32.1393 43.814 32.8453ZM43.814 36.6799C43.814 37.3858 44.3863 37.9581 45.0922 37.9581C45.7981 37.9581 46.3704 37.3858 46.3704 36.6799C46.3704 35.9739 45.7981 35.4017 45.0922 35.4017C44.3863 35.4017 43.814 35.9739 43.814 36.6799Z" fill="#FFCC4E"/>
<path fill-rule="evenodd" clip-rule="evenodd" d="M44.1102 72.3539C60.3654 68.9753 72.5798 54.5707 72.5798 37.3133C72.5798 17.5471 56.5561 1.52344 36.7899 1.52344C17.0236 1.52344 1 17.5471 1 37.3133C1 54.5707 13.2143 68.9753 29.4695 72.3539L36.7899 85.0332L44.1102 72.3539ZM60.6498 37.3133C60.6498 50.4908 49.9674 61.1732 36.7899 61.1732C23.6124 61.1732 12.93 50.4908 12.93 37.3133C12.93 24.1358 23.6124 13.4534 36.7899 13.4534C49.9674 13.4534 60.6498 24.1358 60.6498 37.3133Z" stroke="white" stroke-width="2" stroke-linecap="round" stroke-linejoin="round"/>
</svg>
