<svg width="38" height="38" viewBox="0 0 38 38" fill="none" xmlns="http://www.w3.org/2000/svg">
<path d="M20.1505 6.9715H36.25M20.1505 12.028H36.25M27.4315 6.9715V17.083M31.7485 6.9715V17.083M8.65 11.2L5.2 14.5V11.2C5.24921 8.7087 7.30922 6.72929 9.8005 6.7795H15.55M15.55 6.7795L12.1 3.4675M15.55 6.7795L12.1 10.0915M1.75 11.2L5.2 14.5075M1.75 31.6495H13.2505M21.6835 1.75H34.717C34.717 1.75 36.25 1.75 36.25 3.283V15.55C36.25 15.55 36.25 17.083 34.717 17.083H21.6835C21.6835 17.083 20.1505 17.083 20.1505 15.55V3.283C20.1505 3.283 20.1505 1.75 21.6835 1.75ZM3.283 18.616H11.7175C11.7175 18.616 13.2505 18.616 13.2505 20.149V34.717C13.2505 34.717 13.2505 36.25 11.7175 36.25H3.283C3.283 36.25 1.75 36.25 1.75 34.717V20.149C1.75 20.149 1.75 18.616 3.283 18.616Z" stroke="white" stroke-width="2" stroke-linecap="round" stroke-linejoin="round"/>
</svg>
