<svg width="38" height="28" viewBox="0 0 38 28" fill="none" xmlns="http://www.w3.org/2000/svg">
<path d="M1.75 23.9073H6.889M6.889 23.9073C6.889 25.5286 8.20327 26.8428 9.8245 26.8428C11.4457 26.8428 12.76 25.5286 12.76 23.9073M6.889 23.9073C6.889 22.2861 8.20327 20.9718 9.8245 20.9718M28.1755 23.9073H36.25M28.1755 23.9073C28.1755 25.5286 26.8612 26.8428 25.24 26.8428C23.6188 26.8428 22.3045 25.5286 22.3045 23.9073C22.3045 22.2861 23.6188 20.9718 25.24 20.9718M28.1755 23.9073C28.1755 22.2861 26.8612 20.9718 25.24 20.9718M36.25 23.9073L33.412 20.9718M36.25 23.9073L33.412 26.8443M12.76 23.9073H22.303M12.76 23.9073C12.76 22.2861 11.4457 20.9718 9.8245 20.9718M9.8245 20.9718V1.15234L18.6325 6.91234L9.8245 11.7108M25.24 20.9718V1.88734L34.048 7.64584L25.24 12.4458" stroke="white" stroke-width="2" stroke-linecap="round" stroke-linejoin="round"/>
</svg>
