<svg width="38" height="38" viewBox="0 0 38 38" fill="none" xmlns="http://www.w3.org/2000/svg">
<path d="M18.2383 1.75781V7.75781M18.2383 1.75781L14.4883 4.75781M18.2383 1.75781L21.9883 4.75781M18.2383 36.2578V30.2578M18.2383 36.2578L14.4883 33.2578M18.2383 36.2578L21.9883 33.2578M1.73828 18.2578H6.23828M1.73828 18.2578L4.73828 22.0078M1.73828 18.2578L4.73828 14.5078M36.2383 18.2578H31.7383M36.2383 18.2578L33.2383 22.0078M36.2383 18.2578L33.2383 14.5078M10.7188 25.6768C8.16438 21.5887 8.98091 16.2475 12.64 13.1093C16.2991 9.97114 21.7024 9.97801 25.3535 13.1255C29.0046 16.273 29.8076 21.6162 27.2428 25.6978M13.7383 27.2578V20.5078C13.7383 17.6083 16.0888 15.2578 18.9883 15.2578C21.8878 15.2578 24.2383 17.6083 24.2383 20.5078V27.2578M21.2383 20.5078C21.2383 19.2652 20.2309 18.2578 18.9883 18.2578C17.7456 18.2578 16.7383 19.2652 16.7383 20.5078L16.7383 22.7578H21.2383V20.5078Z" stroke="white" stroke-width="2" stroke-linecap="round" stroke-linejoin="round"/>
</svg>
