<svg width="36" height="38" viewBox="0 0 36 38" fill="none" xmlns="http://www.w3.org/2000/svg">
<path d="M8.91028 33.583H3.42478C2.56239 33.583 1.86328 32.8839 1.86328 32.0215V3.3115C1.86328 2.44911 2.56239 1.75 3.42478 1.75H24.2838C25.1462 1.75 25.8453 2.44911 25.8453 3.3115V7.5205M22.6113 16.0525C22.6116 17.9954 21.0367 19.5706 19.0938 19.5706C17.1509 19.5706 15.5759 17.9954 15.5763 16.0525C15.5759 14.1096 17.1509 12.5344 19.0938 12.5344C21.0367 12.5344 22.6116 14.1096 22.6113 16.0525ZM22.6113 16.0525C20.1213 16.729 17.5173 16.0525 16.4898 13.6975M26.6133 27.01C24.4248 19.7185 13.5378 20.092 11.3553 27.367M27.6198 29.734L34.1373 36.25M18.9843 24.5455V26.494M6.76978 21.097C6.76978 27.8429 12.2384 33.3115 18.9843 33.3115C25.7302 33.3115 31.1988 27.8429 31.1988 21.097C31.1988 14.3511 25.7302 8.8825 18.9843 8.8825C12.2384 8.8825 6.76978 14.3511 6.76978 21.097Z" stroke="white" stroke-width="2" stroke-linecap="round" stroke-linejoin="round"/>
</svg>
