<svg width="35" height="35" viewBox="0 0 35 35" fill="none" xmlns="http://www.w3.org/2000/svg">
<circle cx="17.2748" cy="17.2758" r="17.275" transform="rotate(-180 17.2748 17.2758)" fill="#003B6D"/>
<path d="M16.8026 24.3096C16.6235 24.31 16.451 24.2417 16.3207 24.1187L9.95626 17.7542C9.69036 17.488 9.69036 17.0567 9.95626 16.7905L16.3207 10.426C16.587 10.1601 17.0183 10.1601 17.2845 10.426C17.4145 10.5526 17.4878 10.7264 17.4878 10.9079C17.4878 11.0893 17.4145 11.2631 17.2845 11.3898L11.411 17.2814L17.2754 23.1458C17.4054 23.2725 17.4787 23.4463 17.4787 23.6277C17.4787 23.8092 17.4054 23.983 17.2754 24.1096C17.1522 24.2388 16.9811 24.3112 16.8026 24.3096Z" fill="white"/>
<path d="M24.1121 17.9634L10.4739 17.9634C10.0973 17.9634 9.79199 17.6581 9.79199 17.2815C9.79199 16.9049 10.0973 16.5996 10.4739 16.5996L24.1121 16.5996C24.4887 16.5996 24.794 16.9049 24.794 17.2815C24.794 17.6581 24.4887 17.9634 24.1121 17.9634Z" fill="white"/>
<path d="M16.8023 24.9922C16.4424 24.9924 16.0966 24.8521 15.8385 24.6013L9.47405 18.2368C8.94224 17.7043 8.94224 16.8417 9.47405 16.3093L15.8385 9.94478C16.1845 9.60046 16.6878 9.46686 17.159 9.59429C17.6301 9.72173 17.9975 10.0908 18.1227 10.5626C18.248 11.0344 18.112 11.5371 17.766 11.8814L12.3744 17.2821L17.766 22.6646C18.1556 23.0547 18.272 23.6408 18.0611 24.1501C17.8503 24.6595 17.3535 24.9917 16.8023 24.9922Z" fill="white"/>
<path d="M24.1123 18.6456L10.4742 18.6456C9.72095 18.6456 9.11035 18.035 9.11035 17.2818C9.11035 16.5286 9.72095 15.918 10.4742 15.918L24.1123 15.918C24.8655 15.918 25.4761 16.5286 25.4761 17.2818C25.4761 18.035 24.8655 18.6456 24.1123 18.6456Z" fill="white"/>
</svg>
