<svg width="314" height="310" viewBox="0 0 314 310" fill="none" xmlns="http://www.w3.org/2000/svg">
<path d="M163.329 296.092L163.247 298.321L163.407 298.327L163.567 298.31L163.329 296.092ZM148.03 295.485L147.798 297.704L147.799 297.704L148.03 295.485ZM27.0476 205.371L29.1074 204.514L29.1072 204.514L27.0476 205.371ZM19.9298 180.367L22.0783 179.767L22.0775 179.764L19.9298 180.367ZM19.1632 177.773L16.945 178.01L16.9672 178.218L17.0279 178.419L19.1632 177.773ZM17.469 161.929L15.2388 161.871L15.235 162.019L15.2507 162.166L17.469 161.929ZM17.8499 147.187L20.0682 146.949L15.6221 147.069L17.8499 147.187ZM17.8504 147.191L15.6322 147.429L20.0783 147.308L17.8504 147.191ZM27.3921 103.457L29.4713 104.266L29.4715 104.265L27.3921 103.457ZM27.3998 99.8736L29.4849 99.0804L29.4839 99.0776L27.3998 99.8736ZM5.3807 42.6836L7.4617 41.8796L7.4482 41.8446L7.43353 41.8102L5.3807 42.6836ZM5.23918 42.3245L3.17191 43.1631L3.17908 43.1808L3.18658 43.1984L5.23918 42.3245ZM4.55715 41.1816L2.3389 41.4188L2.39162 41.9118L2.6482 42.3361L4.55715 41.1816ZM4.08989 36.812L1.94031 36.2152L1.82635 36.6256L1.87164 37.0492L4.08989 36.812ZM9.94885 29.5522L9.71165 27.3339L9.28418 27.3796L8.90429 27.5809L9.94885 29.5522ZM14.3204 29.0847L14.6871 26.8842L14.3864 26.834L14.0832 26.8664L14.3204 29.0847ZM15.7499 29.3276L16.1196 27.1276L16.1166 27.1271L15.7499 29.3276ZM35.0616 32.5612L34.7073 34.7638L34.7098 34.7642L35.0616 32.5612ZM75.9532 38.932L76.286 36.7261L76.2808 36.7253L75.9532 38.932ZM80.456 37.9565L81.6744 39.8253L81.6781 39.8229L80.456 37.9565ZM133.555 16.7903L133.184 14.5905L133.172 14.5926L133.555 16.7903ZM135.605 16.1155L135.367 13.8972L135.123 13.9233L134.891 14.0018L135.605 16.1155ZM150.355 14.5381L150.405 12.3077L150.261 12.3046L150.118 12.3199L150.355 14.5381ZM166.769 14.9329L166.621 17.1589L166.622 17.1589L166.769 14.9329ZM258.915 57.093L260.51 55.5332L260.51 55.5331L258.915 57.093ZM298.675 146.977L300.902 146.832L300.902 146.831L298.675 146.977ZM200.464 289.352L201.118 291.485L201.119 291.485L200.464 289.352ZM182.452 294.047L182.689 296.265L182.852 296.248L183.011 296.207L182.452 294.047ZM163.329 296.092L163.567 298.31L168.347 297.799L168.11 295.58L167.873 293.362L163.092 293.873L163.329 296.092ZM177.671 294.558L177.908 296.776L182.689 296.265L182.452 294.047L182.215 291.829L177.434 292.34L177.671 294.558ZM182.452 294.047L183.011 296.207C184.499 295.821 185.994 295.45 187.499 295.08L186.966 292.913L186.433 290.747C184.924 291.119 183.407 291.495 181.893 291.887L182.452 294.047ZM195.99 290.635L196.571 292.789C198.089 292.379 199.606 291.949 201.118 291.485L200.464 289.352L199.81 287.219C198.357 287.665 196.889 288.082 195.409 288.481L195.99 290.635ZM200.464 289.352L201.119 291.485C202.381 291.097 203.634 290.692 204.878 290.271L204.162 288.158L203.447 286.045C202.242 286.453 201.03 286.845 199.809 287.22L200.464 289.352ZM211.438 285.459L212.273 287.528C214.721 286.539 217.132 285.484 219.505 284.365L218.553 282.348L217.601 280.33C215.305 281.413 212.972 282.434 210.603 283.39L211.438 285.459ZM225.478 278.838L226.543 280.798C228.859 279.541 231.134 278.221 233.366 276.841L232.192 274.943L231.019 273.046C228.858 274.382 226.656 275.66 224.414 276.877L225.478 278.838ZM238.679 270.676L239.957 272.505C242.116 270.997 244.229 269.43 246.294 267.809L244.917 266.054L243.539 264.299C241.539 265.87 239.492 267.387 237.401 268.847L238.679 270.676ZM250.888 261.094L252.36 262.77C254.337 261.033 256.264 259.243 258.14 257.403L256.577 255.811L255.015 254.218C253.198 256.001 251.331 257.735 249.415 259.418L250.888 261.094ZM261.968 250.224L263.615 251.728C265.389 249.787 267.109 247.797 268.772 245.763L267.046 244.351L265.319 242.938C263.706 244.91 262.04 246.837 260.321 248.719L261.968 250.224ZM271.796 238.21L273.597 239.526C275.148 237.404 276.641 235.24 278.075 233.036L276.205 231.82L274.335 230.603C272.946 232.739 271.498 234.837 269.995 236.894L271.796 238.21ZM280.26 225.199L282.193 226.312C283.504 224.035 284.754 221.721 285.939 219.374L283.948 218.368L281.957 217.362C280.808 219.637 279.597 221.879 278.327 224.086L280.26 225.199ZM287.258 211.345L289.301 212.24C290.355 209.834 291.344 207.397 292.266 204.932L290.176 204.151L288.087 203.369C287.194 205.757 286.236 208.118 285.214 210.45L287.258 211.345ZM292.693 196.807L294.823 197.472C295.605 194.965 296.319 192.433 296.962 189.879L294.799 189.335L292.636 188.79C292.013 191.263 291.322 193.715 290.564 196.143L292.693 196.807ZM296.484 181.755L298.674 182.178C299.171 179.601 299.597 177.006 299.949 174.394L297.739 174.096L295.528 173.797C295.187 176.325 294.774 178.838 294.293 181.332L296.484 181.755ZM298.558 166.375L300.783 166.548C300.985 163.932 301.114 161.304 301.168 158.664L298.938 158.619L296.707 158.574C296.655 161.128 296.53 163.672 296.334 166.203L298.558 166.375ZM298.874 150.859L301.103 150.777C301.055 149.464 300.988 148.149 300.902 146.832L298.675 146.977L296.449 147.123C296.533 148.398 296.598 149.67 296.645 150.941L298.874 150.859ZM298.675 146.977L300.902 146.831C300.808 145.413 300.697 144.002 300.568 142.598L298.347 142.802L296.125 143.006C296.251 144.371 296.359 145.744 296.449 147.124L298.675 146.977ZM297.359 134.49L299.567 134.167C299.154 131.345 298.665 128.554 298.1 125.795L295.915 126.243L293.729 126.69C294.277 129.365 294.751 132.073 295.152 134.813L297.359 134.49ZM293.998 118.094L296.153 117.52C295.42 114.769 294.607 112.053 293.714 109.37L291.597 110.075L289.48 110.779C290.344 113.375 291.131 116.005 291.842 118.669L293.998 118.094ZM288.709 102.217L290.778 101.383C289.717 98.7504 288.574 96.1536 287.35 93.5931L285.338 94.5553L283.325 95.5175C284.509 97.9937 285.614 100.505 286.64 103.051L288.709 102.217ZM281.492 87.1195L283.44 86.0331C282.063 83.5631 280.605 81.1297 279.067 78.7335L277.19 79.9386L275.312 81.1438C276.801 83.4627 278.211 85.8169 279.543 88.2059L281.492 87.1195ZM272.455 73.0356L274.256 71.7187C272.593 69.4448 270.853 67.2071 269.035 65.0061L267.315 66.4267L265.595 67.8473C267.357 69.9815 269.044 72.15 270.654 74.3525L272.455 73.0356ZM261.803 60.1272L263.44 58.6116C262.482 57.5767 261.505 56.5505 260.51 55.5332L258.915 57.093L257.32 58.6528C258.287 59.6412 259.236 60.6379 260.166 61.6428L261.803 60.1272ZM258.915 57.093L260.51 55.5331C259.631 54.6337 258.744 53.7483 257.851 52.8769L256.293 54.474L254.735 56.0711C255.604 56.9178 256.465 57.7784 257.321 58.6528L258.915 57.093ZM250.864 49.4297L252.342 47.7585C250.45 46.0863 248.53 44.4731 246.582 42.9191L245.191 44.6633L243.8 46.4075C245.689 47.9138 247.551 49.4782 249.386 51.101L250.864 49.4297ZM239.28 40.1974L240.577 38.3825C238.526 36.9165 236.446 35.5123 234.336 34.17L233.138 36.0524L231.941 37.9347C233.983 39.2335 235.997 40.5926 237.983 42.0123L239.28 40.1974ZM226.78 32.2485L227.872 30.3032C225.678 29.072 223.455 27.9042 221.203 26.7998L220.221 28.8029L219.239 30.8059C221.417 31.8739 223.566 33.0032 225.688 34.1939L226.78 32.2485ZM213.48 25.7277L214.349 23.673C212.039 22.6961 209.7 21.7825 207.333 20.9322L206.579 23.0317L205.825 25.1313C208.115 25.9539 210.377 26.8376 212.611 27.7824L213.48 25.7277ZM199.539 20.7185L200.178 18.581C197.783 17.8653 195.36 17.2114 192.91 16.6191L192.386 18.7875L191.862 20.956C194.236 21.5298 196.582 22.1632 198.901 22.856L199.539 20.7185ZM185.142 17.2338L185.554 15.0413C183.106 14.5813 180.631 14.1802 178.131 13.8378L177.828 16.0481L177.526 18.2584C179.954 18.5908 182.355 18.9802 184.731 19.4264L185.142 17.2338ZM170.464 15.2185L170.661 12.9963C169.419 12.8859 168.17 12.7894 166.915 12.7068L166.769 14.9329L166.622 17.1589C167.843 17.2393 169.058 17.3332 170.266 17.4406L170.464 15.2185ZM166.769 14.9329L166.916 12.7069C165.521 12.6145 164.128 12.5511 162.741 12.5059L162.669 14.7356L162.596 16.9653C163.945 17.0093 165.286 17.0705 166.621 17.1589L166.769 14.9329ZM154.46 14.5998L154.483 12.369C153.117 12.3546 151.759 12.3375 150.405 12.3077L150.355 14.5381L150.306 16.7685C151.687 16.7988 153.066 16.8161 154.436 16.8306L154.46 14.5998ZM150.355 14.5381L150.118 12.3199L146.431 12.7142L146.668 14.9324L146.905 17.1507L150.593 16.7564L150.355 14.5381ZM139.292 15.7211L139.055 13.5029L135.367 13.8972L135.605 16.1155L135.842 18.3337L139.529 17.9394L139.292 15.7211ZM135.605 16.1155L134.891 14.0018C134.678 14.0738 134.475 14.15 134.3 14.217L135.097 16.3006L135.894 18.3843C136.056 18.3222 136.192 18.2718 136.318 18.2291L135.605 16.1155ZM134.081 16.6657L133.445 14.5272C133.337 14.5594 133.252 14.5791 133.184 14.5906L133.555 16.7903L133.927 18.99C134.213 18.9417 134.478 18.875 134.716 18.8041L134.081 16.6657ZM133.555 16.7903L133.172 14.5926C131.968 14.8027 130.771 15.0275 129.58 15.2671L130.019 17.4542L130.459 19.6413C131.613 19.4093 132.773 19.1915 133.939 18.9879L133.555 16.7903ZM123.005 19.054L122.452 16.8926C120.084 17.4979 117.739 18.163 115.418 18.8872L116.083 21.0169L116.747 23.1465C118.994 22.4454 121.264 21.8015 123.557 21.2155L123.005 19.054ZM109.273 23.3392L108.498 21.2473C106.212 22.0943 103.949 23.0003 101.711 23.9648L102.593 26.0136L103.476 28.0625C105.644 27.1284 107.835 26.2511 110.048 25.4311L109.273 23.3392ZM96.0608 29.0289L95.0746 27.0278C92.8947 28.1022 90.738 29.2335 88.6041 30.421L89.6889 32.3704L90.7738 34.3197C92.8435 33.1679 94.9345 32.0711 97.0471 31.0299L96.0608 29.0289ZM83.4889 36.0211L82.311 34.1265C81.2798 34.7675 80.2541 35.4221 79.2339 36.0901L80.456 37.9565L81.6781 39.8229C82.6693 39.1739 83.6655 38.5382 84.6667 37.9157L83.4889 36.0211ZM80.456 37.9565L79.2376 36.0877C79.0717 36.1959 78.8571 36.3068 78.5988 36.4076L79.4103 38.4857L80.2217 40.5638C80.7212 40.3688 81.2157 40.1244 81.6744 39.8253L80.456 37.9565ZM77.1242 38.9804L77.0032 36.7528C76.7255 36.7679 76.483 36.7559 76.286 36.7261L75.9532 38.932L75.6203 41.138C76.16 41.2194 76.7103 41.2371 77.2453 41.208L77.1242 38.9804ZM75.9532 38.932L76.2808 36.7253C75.145 36.5567 74.0093 36.387 72.8736 36.2164L72.5422 38.4226L72.2109 40.6288C73.3489 40.7997 74.4871 40.9697 75.6255 41.1388L75.9532 38.932ZM65.7228 37.3877L66.0607 35.1825C63.79 34.8346 61.5196 34.4836 59.2493 34.1302L58.9061 36.3346L58.563 38.5389C60.8364 38.8928 63.1103 39.2443 65.3849 39.5928L65.7228 37.3877ZM52.0917 35.2672L52.4388 33.0634C50.1688 32.7058 47.8989 32.3465 45.6288 31.986L45.2789 34.1893L44.929 36.3926C47.2005 36.7533 49.4723 37.1129 51.7446 37.4709L52.0917 35.2672ZM38.4672 33.1047L38.8186 30.9017C37.6836 30.7206 36.5485 30.5394 35.4133 30.3582L35.0616 32.5612L34.7098 34.7642C35.8451 34.9454 36.9804 35.1267 38.1158 35.3078L38.4672 33.1047ZM35.0616 32.5612L35.4158 30.3586C33.8089 30.1002 32.2025 29.8367 30.596 29.57L30.2306 31.7708L29.8653 33.9716C31.4776 34.2392 33.0915 34.5039 34.7073 34.7638L35.0616 32.5612ZM20.5765 30.1435L20.9496 27.944C19.3408 27.6711 17.7306 27.3983 16.1196 27.1276L15.7499 29.3276L15.3801 31.5277C16.9876 31.7978 18.5949 32.0701 20.2035 32.343L20.5765 30.1435ZM15.7499 29.3276L16.1166 27.1271C16.001 27.1078 15.8846 27.0882 15.7671 27.0681L15.3924 29.2673L15.0177 31.4665C15.1386 31.4871 15.2606 31.5078 15.3831 31.5282L15.7499 29.3276ZM14.6778 29.145L15.0526 26.9458C14.9317 26.9252 14.8097 26.9046 14.6871 26.8842L14.3204 29.0847L13.9537 31.2852C14.0693 31.3045 14.1857 31.3242 14.3032 31.3442L14.6778 29.145ZM14.3204 29.0847L14.0832 26.8664L12.9903 26.9833L13.2275 29.2016L13.4647 31.4198L14.5576 31.3029L14.3204 29.0847ZM11.0417 29.4353L10.8045 27.217L9.71165 27.3339L9.94885 29.5522L10.1861 31.7704L11.2789 31.6535L11.0417 29.4353ZM9.94885 29.5522L8.90429 27.5809C8.05773 28.0295 7.26967 28.5419 6.54563 29.1215L7.93971 30.8632L9.33381 32.6048C9.8256 32.2112 10.3772 31.8499 10.9934 31.5234L9.94885 29.5522ZM4.94345 34.5701L2.94701 33.5745C2.53234 34.4061 2.19785 35.2876 1.94031 36.2152L4.08989 36.812L6.23951 37.4088C6.42532 36.7395 6.66011 36.1267 6.9399 35.5656L4.94345 34.5701ZM4.08989 36.812L1.87164 37.0492L1.98846 38.1416L4.20671 37.9044L6.42499 37.6672L6.30817 36.5748L4.08989 36.812ZM4.44033 40.0892L2.22208 40.3264L2.3389 41.4188L4.55715 41.1816L6.77543 40.9444L6.65861 39.852L4.44033 40.0892ZM4.55715 41.1816L2.6482 42.3361C2.72952 42.4705 2.81041 42.5941 2.87623 42.6936L4.73661 41.4624L6.59696 40.2312C6.53988 40.1449 6.49927 40.082 6.46612 40.0271L4.55715 41.1816ZM5.09345 42.0251L3.14637 43.114C3.16778 43.1524 3.17345 43.1669 3.17191 43.1631L5.23918 42.3245L7.30648 41.4859C7.22212 41.278 7.12859 41.0936 7.04052 40.9362L5.09345 42.0251ZM5.23918 42.3245L3.18658 43.1984C3.18777 43.2012 3.19099 43.209 3.19733 43.2252L5.2755 42.4139L7.35368 41.6027C7.33669 41.5592 7.31595 41.5073 7.29181 41.4507L5.23918 42.3245ZM5.34444 42.5942L3.26614 43.4052C3.2831 43.4486 3.30383 43.5004 3.3279 43.557L5.3807 42.6836L7.43353 41.8102C7.4323 41.8073 7.42904 41.7995 7.4227 41.7832L5.34444 42.5942ZM5.3807 42.6836L3.29973 43.4876C3.7599 44.6786 4.22007 45.8695 4.68023 47.0604L6.76117 46.2563L8.84213 45.4523C8.38197 44.2614 7.9218 43.0705 7.4617 41.8796L5.3807 42.6836ZM9.52202 53.4018L7.44101 54.2058C8.36115 56.5876 9.28114 58.9694 10.2007 61.3512L12.2819 60.5477L14.3631 59.7442C13.4433 57.3619 12.5233 54.9799 11.603 52.5979L9.52202 53.4018ZM15.0399 67.6943L12.9584 68.4971C13.8772 70.8792 14.7955 73.2614 15.7131 75.6438L17.7949 74.842L19.8767 74.0402C18.9588 71.657 18.0403 69.2741 17.1213 66.8915L15.0399 67.6943ZM20.546 81.9913L18.4637 82.7918C19.3797 85.1747 20.2949 87.5579 21.2092 89.9414L23.2921 89.1425L25.375 88.3435C24.4604 85.9588 23.5447 83.5746 22.6283 81.1908L20.546 81.9913ZM26.0323 96.2959L23.9486 97.093C24.4046 98.2851 24.8604 99.4773 25.3158 100.67L27.3998 99.8736L29.4839 99.0776C29.0282 97.8846 28.5722 96.6916 28.1159 95.4989L26.0323 96.2959ZM27.3998 99.8736L25.3147 100.667C25.356 100.775 25.3972 100.924 25.4267 101.109L27.6296 100.756L29.8325 100.404C29.762 99.9631 29.6498 99.5138 29.4849 99.0804L27.3998 99.8736ZM27.6266 102.576L25.4251 102.215C25.3951 102.398 25.3538 102.543 25.3128 102.649L27.3921 103.457L29.4715 104.265C29.6408 103.83 29.7557 103.379 29.8281 102.937L27.6266 102.576ZM27.3921 103.457L25.313 102.648C24.8528 103.831 24.408 105.018 23.9785 106.208L26.0769 106.965L28.1753 107.722C28.5922 106.567 29.0243 105.415 29.4713 104.266L27.3921 103.457ZM23.7121 114.074L21.5779 113.424C20.8378 115.854 20.162 118.298 19.5519 120.758L21.7172 121.295L23.8824 121.832C24.4735 119.449 25.1285 117.08 25.8462 114.724L23.7121 114.074ZM20.1088 128.612L17.9178 128.192C17.4405 130.681 17.0304 133.186 16.6888 135.705L18.8995 136.005L21.1102 136.305C21.4408 133.866 21.8377 131.442 22.2998 129.032L20.1088 128.612ZM18.0976 143.453L15.8738 143.275C15.7728 144.538 15.6891 145.805 15.6226 147.075L17.8504 147.191L20.0783 147.308C20.1426 146.079 20.2237 144.853 20.3214 143.631L18.0976 143.453ZM17.8504 147.191L20.0687 146.954L20.0686 146.953L17.8503 147.19L15.6321 147.427L15.6322 147.429L17.8504 147.191ZM17.8501 147.188L20.0683 146.951L20.0682 146.949L17.8499 147.187L15.6317 147.424L15.6318 147.425L17.8501 147.188ZM17.8499 147.187L15.6221 147.069C15.5563 148.315 15.5074 149.56 15.4691 150.801L17.6989 150.87L19.9288 150.939C19.9663 149.723 20.014 148.511 20.0777 147.304L17.8499 147.187ZM17.5456 158.243L15.3151 158.204C15.2937 159.431 15.2703 160.652 15.2388 161.871L17.469 161.929L19.6991 161.986C19.7311 160.749 19.7548 159.512 19.7762 158.282L17.5456 158.243ZM17.469 161.929L15.2507 162.166L15.6743 166.127L17.8925 165.89L20.1108 165.653L19.6872 161.692L17.469 161.929ZM18.7397 173.812L16.5214 174.049L16.945 178.01L19.1632 177.773L21.3815 177.536L20.9579 173.575L18.7397 173.812ZM19.1632 177.773L17.0279 178.419C17.0934 178.635 17.1582 178.85 17.2228 179.064L19.3589 178.42L21.4949 177.777C21.4295 177.56 21.3638 177.343 21.2986 177.127L19.1632 177.773ZM19.7438 179.717L17.6015 180.339C17.6626 180.55 17.7229 180.76 17.782 180.971L19.9298 180.367L22.0775 179.764C22.0143 179.539 21.9504 179.316 21.8861 179.095L19.7438 179.717ZM19.9298 180.367L17.7812 180.968C18.0674 181.992 18.3414 183.024 18.6084 184.064L20.7692 183.51L22.9301 182.955C22.6572 181.892 22.375 180.828 22.0783 179.767L19.9298 180.367ZM22.3287 189.825L20.1616 190.355C20.6784 192.469 21.2098 194.602 21.795 196.72L23.9454 196.126L26.0957 195.532C25.5291 193.481 25.0107 191.402 24.4958 189.296L22.3287 189.825ZM25.88 202.336L23.7781 203.084C24.1536 204.139 24.555 205.188 24.9881 206.229L27.0476 205.371L29.1072 204.514C28.7073 203.553 28.3338 202.578 27.9818 201.588L25.88 202.336ZM27.0476 205.371L24.9879 206.228C25.5077 207.478 26.0371 208.715 26.5762 209.939L28.618 209.04L30.6598 208.141C30.1331 206.945 29.6156 205.736 29.1074 204.514L27.0476 205.371ZM31.9804 216.258L29.9791 217.244C31.1801 219.682 32.4227 222.066 33.7071 224.397L35.661 223.32L37.6149 222.244C36.3642 219.974 35.1531 217.65 33.9817 215.272L31.9804 216.258ZM39.6723 230.2L37.7734 231.371C39.1996 233.684 40.6711 235.938 42.1878 238.134L44.0234 236.866L45.8589 235.598C44.3869 233.467 42.9576 231.277 41.5711 229.029L39.6723 230.2ZM48.7276 243.295L46.9642 244.662C48.6273 246.808 50.3386 248.891 52.0983 250.911L53.7805 249.446L55.4627 247.981C53.7598 246.026 52.1026 244.008 50.491 241.929L48.7276 243.295ZM59.1865 255.294L57.5944 256.856C59.4933 258.791 61.4424 260.659 63.4417 262.461L64.9353 260.804L66.429 259.147C64.4977 257.406 62.6143 255.601 60.7787 253.731L59.1865 255.294ZM71.012 265.949L69.6243 267.695C71.74 269.376 73.9063 270.989 76.123 272.535L77.3988 270.705L78.6746 268.875C76.5342 267.382 74.4426 265.825 72.3998 264.202L71.012 265.949ZM84.0689 275.052L82.9093 276.958C85.2084 278.357 87.5569 279.689 89.9546 280.954L90.9956 278.981L92.0367 277.008C89.7188 275.785 87.4494 274.498 85.2285 273.146L84.0689 275.052ZM98.1472 282.485L97.2253 284.517C99.6646 285.624 102.151 286.667 104.683 287.645L105.487 285.565L106.292 283.484C103.837 282.535 101.43 281.525 99.0692 280.454L98.1472 282.485ZM112.995 288.231L112.305 290.352C114.843 291.177 117.424 291.941 120.049 292.646L120.627 290.491L121.206 288.337C118.654 287.652 116.147 286.909 113.684 286.109L112.995 288.231ZM128.367 292.366L127.894 294.546C130.495 295.11 133.136 295.618 135.815 296.072L136.188 293.872L136.56 291.673C133.946 291.23 131.372 290.735 128.839 290.186L128.367 292.366ZM144.065 295.03L143.788 297.243C145.115 297.41 146.452 297.563 147.798 297.704L148.03 295.485L148.262 293.267C146.946 293.129 145.64 292.979 144.343 292.816L144.065 295.03ZM148.03 295.485L147.799 297.704C149.114 297.841 150.426 297.936 151.731 298.004L151.847 295.776L151.964 293.548C150.718 293.483 149.484 293.394 148.261 293.266L148.03 295.485ZM159.502 295.992L159.459 298.222C160.733 298.247 161.994 298.275 163.247 298.321L163.329 296.092L163.412 293.862C162.117 293.814 160.825 293.786 159.545 293.761L159.502 295.992Z" fill="#DA4436"/>
<g filter="url(#filter0_d_6111_28462)">
<path d="M162.757 280.288C158.234 280.121 153.676 280.218 149.174 279.75C97.5583 274.347 61.6734 247.606 41.7591 199.743C38.8219 192.687 37.5123 184.956 35.44 177.543C35.2217 176.766 34.9901 176.005 34.7585 175.239L33.2543 161.172C33.367 156.807 33.3631 152.436 33.593 148.083L33.5936 148.088C34.2948 134.686 37.2012 121.761 42.0647 109.258C42.4282 108.323 42.4279 107.012 42.0721 106.076C35.6002 89.1318 29.0591 72.2186 22.5225 55.3005C22.4773 55.1945 22.4411 55.0872 22.396 54.9811C22.2517 54.6256 21.9958 54.3059 21.7905 53.9665L21.3757 50.0873C22.181 47.1863 23.923 45.0481 26.5782 43.6411L30.4594 43.2261C30.8822 43.2965 31.306 43.3715 31.7288 43.4419C37.4427 44.4022 43.1503 45.3923 48.8744 46.3129C60.9698 48.2441 73.0647 50.1702 85.1797 51.9691C86.4509 52.161 88.0988 51.807 89.1777 51.1036C103.624 41.6444 119.29 35.2838 136.323 32.3105C136.944 32.2054 137.536 31.9159 138.141 31.7114L151.238 30.3109C156.097 30.4179 160.967 30.3402 165.811 30.6609C197.811 32.7676 225.225 45.193 247.623 68.0932C269.267 90.2259 280.895 117.045 282.924 147.898C286.634 204.541 249.947 257.647 195.727 274.305C190.467 275.918 185.068 277.093 179.735 278.473L162.757 280.288Z" fill="white"/>
</g>
<circle cx="262.293" cy="56.3364" r="25.0511" fill="white" stroke="#DA4436" stroke-width="4.55475"/>
<g clip-path="url(#clip0_6111_28462)">
<path d="M253.209 46.6407L272.892 66.3233L253.209 46.6407Z" fill="#DA4436"/>
<path d="M253.209 46.6407L272.892 66.3233" stroke="#DA4436" stroke-width="6.83625" stroke-miterlimit="10" stroke-linecap="round"/>
<path d="M272.892 46.6407L253.209 66.3233L272.892 46.6407Z" fill="#DA4436"/>
<path d="M272.892 46.6407L253.209 66.3233" stroke="#DA4436" stroke-width="6.83625" stroke-miterlimit="10" stroke-linecap="round"/>
</g>
<path d="M120.495 174.957V163.195C120.495 162.603 120.582 162.105 120.757 161.702C120.945 161.298 121.188 160.982 121.483 160.754C121.779 160.511 122.109 160.343 122.472 160.249C122.849 160.142 123.219 160.088 123.582 160.088C124.133 160.101 124.759 160.115 125.458 160.128C126.157 160.128 126.884 160.142 127.637 160.168C128.404 160.195 129.143 160.242 129.856 160.31V161.964H124.086C123.588 161.964 123.205 162.099 122.936 162.368C122.667 162.637 122.533 163.027 122.533 163.538V166.988L128.948 167.109V168.682L122.533 168.804V174.957H120.495ZM135.725 175.078C134.581 175.078 133.667 174.91 132.981 174.574C132.308 174.237 131.824 173.673 131.528 172.879C131.246 172.072 131.105 170.962 131.105 169.55C131.105 168.111 131.246 166.994 131.528 166.201C131.824 165.394 132.308 164.829 132.981 164.506C133.653 164.183 134.561 164.022 135.705 164.022C136.7 164.022 137.5 164.13 138.105 164.345C138.724 164.547 139.175 164.916 139.457 165.454C139.753 165.979 139.901 166.712 139.901 167.654C139.901 168.313 139.767 168.837 139.498 169.227C139.242 169.617 138.872 169.9 138.388 170.075C137.917 170.249 137.352 170.337 136.693 170.337H133.122C133.136 171.117 133.223 171.742 133.384 172.213C133.559 172.67 133.862 173.007 134.292 173.222C134.736 173.424 135.382 173.525 136.229 173.525H139.598V174.735C139.02 174.816 138.428 174.89 137.823 174.957C137.218 175.038 136.518 175.078 135.725 175.078ZM133.102 169.066H136.512C137.05 169.066 137.446 168.965 137.702 168.763C137.958 168.561 138.085 168.192 138.085 167.654C138.085 167.116 138.005 166.692 137.843 166.383C137.695 166.073 137.446 165.851 137.097 165.717C136.747 165.582 136.283 165.515 135.705 165.515C135.046 165.515 134.521 165.616 134.131 165.818C133.754 166.019 133.485 166.376 133.324 166.887C133.176 167.398 133.102 168.124 133.102 169.066ZM146.62 175.078C145.477 175.078 144.562 174.91 143.876 174.574C143.204 174.237 142.72 173.673 142.424 172.879C142.141 172.072 142 170.962 142 169.55C142 168.111 142.141 166.994 142.424 166.201C142.72 165.394 143.204 164.829 143.876 164.506C144.549 164.183 145.457 164.022 146.6 164.022C147.595 164.022 148.396 164.13 149.001 164.345C149.62 164.547 150.07 164.916 150.353 165.454C150.649 165.979 150.797 166.712 150.797 167.654C150.797 168.313 150.662 168.837 150.393 169.227C150.137 169.617 149.768 169.9 149.283 170.075C148.813 170.249 148.248 170.337 147.589 170.337H144.018C144.031 171.117 144.119 171.742 144.28 172.213C144.455 172.67 144.757 173.007 145.188 173.222C145.632 173.424 146.277 173.525 147.125 173.525H150.494V174.735C149.916 174.816 149.324 174.89 148.718 174.957C148.113 175.038 147.414 175.078 146.62 175.078ZM143.997 169.066H147.407C147.945 169.066 148.342 168.965 148.597 168.763C148.853 168.561 148.981 168.192 148.981 167.654C148.981 167.116 148.9 166.692 148.739 166.383C148.591 166.073 148.342 165.851 147.992 165.717C147.642 165.582 147.178 165.515 146.6 165.515C145.941 165.515 145.416 165.616 145.026 165.818C144.65 166.019 144.381 166.376 144.219 166.887C144.071 167.398 143.997 168.124 143.997 169.066ZM156.769 175.078C155.895 175.078 155.169 174.89 154.59 174.513C154.025 174.137 153.602 173.551 153.319 172.758C153.037 171.951 152.896 170.915 152.896 169.651C152.896 168.319 153.023 167.243 153.279 166.423C153.548 165.589 153.978 164.984 154.57 164.607C155.162 164.217 155.962 164.022 156.971 164.022C157.536 164.022 158.094 164.083 158.646 164.204C159.21 164.325 159.701 164.459 160.118 164.607V159.563H162.136V174.957H160.482L160.118 173.888C159.903 174.076 159.607 174.264 159.231 174.453C158.854 174.628 158.451 174.775 158.02 174.897C157.59 175.018 157.173 175.078 156.769 175.078ZM157.415 173.424C157.966 173.424 158.464 173.336 158.908 173.161C159.365 172.987 159.769 172.805 160.118 172.617V166.06C159.701 165.939 159.291 165.831 158.888 165.737C158.498 165.629 158.06 165.575 157.576 165.575C156.944 165.575 156.433 165.69 156.043 165.918C155.653 166.147 155.37 166.551 155.196 167.129C155.021 167.707 154.933 168.514 154.933 169.55C154.933 170.505 155.014 171.272 155.175 171.85C155.337 172.415 155.599 172.818 155.962 173.061C156.339 173.303 156.823 173.424 157.415 173.424ZM170.391 175.078C169.893 175.078 169.429 175.018 168.999 174.897C168.582 174.775 168.198 174.628 167.849 174.453C167.512 174.264 167.203 174.076 166.92 173.888L166.557 174.957H164.903V159.563H166.92V165.071C167.418 164.802 167.97 164.56 168.575 164.345C169.194 164.13 169.765 164.022 170.29 164.022C171.177 164.022 171.904 164.21 172.469 164.587C173.034 164.95 173.451 165.542 173.72 166.362C174.002 167.183 174.143 168.279 174.143 169.651C174.143 170.794 174.015 171.776 173.76 172.597C173.504 173.404 173.101 174.022 172.549 174.453C171.998 174.87 171.278 175.078 170.391 175.078ZM169.684 173.404C170.209 173.404 170.646 173.276 170.996 173.02C171.359 172.751 171.635 172.334 171.823 171.769C172.025 171.191 172.126 170.451 172.126 169.55C172.126 168.447 172.018 167.62 171.803 167.068C171.588 166.517 171.298 166.147 170.935 165.959C170.572 165.771 170.155 165.676 169.684 165.676C169.146 165.676 168.656 165.757 168.212 165.918C167.781 166.066 167.351 166.255 166.92 166.483V172.637C167.284 172.825 167.694 173 168.151 173.161C168.608 173.323 169.12 173.404 169.684 173.404ZM178.765 175.078C177.971 175.078 177.312 174.843 176.788 174.372C176.277 173.888 176.021 173.222 176.021 172.375V171.527C176.021 170.693 176.304 170.014 176.868 169.49C177.447 168.951 178.314 168.682 179.471 168.682H182.84V167.553C182.84 167.136 182.766 166.786 182.618 166.504C182.484 166.208 182.228 165.986 181.852 165.838C181.475 165.69 180.917 165.616 180.177 165.616H176.868V164.425C177.353 164.318 177.918 164.224 178.563 164.143C179.222 164.062 179.989 164.015 180.863 164.002C181.751 164.002 182.491 164.116 183.082 164.345C183.688 164.56 184.138 164.923 184.434 165.434C184.73 165.932 184.878 166.598 184.878 167.432V174.957H183.284L182.941 173.767C182.861 173.82 182.692 173.921 182.437 174.069C182.181 174.204 181.852 174.352 181.448 174.513C181.058 174.675 180.628 174.809 180.157 174.917C179.7 175.024 179.236 175.078 178.765 175.078ZM179.693 173.605C179.895 173.619 180.13 173.599 180.399 173.545C180.682 173.491 180.957 173.43 181.226 173.363C181.509 173.282 181.764 173.202 181.993 173.121C182.235 173.04 182.43 172.973 182.578 172.919C182.74 172.852 182.827 172.812 182.84 172.798V169.691L180.016 169.812C179.316 169.853 178.812 170.028 178.503 170.337C178.207 170.646 178.059 171.05 178.059 171.547V172.032C178.059 172.422 178.14 172.738 178.301 172.98C178.462 173.209 178.664 173.37 178.906 173.464C179.162 173.558 179.424 173.605 179.693 173.605ZM191.635 175.078C191.003 175.078 190.418 174.997 189.88 174.836C189.355 174.661 188.891 174.372 188.487 173.968C188.097 173.565 187.795 173.007 187.58 172.294C187.364 171.581 187.257 170.68 187.257 169.59C187.257 168.474 187.358 167.559 187.559 166.847C187.761 166.12 188.05 165.555 188.427 165.152C188.817 164.735 189.288 164.446 189.839 164.284C190.391 164.123 191.009 164.042 191.695 164.042C192.26 164.042 192.852 164.069 193.471 164.123C194.103 164.177 194.715 164.264 195.307 164.385V165.575H192.26C191.601 165.575 191.05 165.683 190.606 165.898C190.162 166.1 189.832 166.497 189.617 167.089C189.402 167.667 189.294 168.508 189.294 169.611C189.294 170.673 189.409 171.494 189.637 172.072C189.866 172.637 190.196 173.02 190.626 173.222C191.07 173.424 191.621 173.525 192.28 173.525H195.468V174.675C195.159 174.755 194.789 174.829 194.358 174.897C193.941 174.95 193.498 174.991 193.027 175.018C192.57 175.058 192.106 175.078 191.635 175.078ZM197.511 174.957V159.563H199.528V168.299H201.001L204.007 164.163H206.105L202.494 169.207L206.368 174.957H204.249L200.94 170.115H199.528V174.957H197.511ZM80.363 202.078C79.4887 202.078 78.7624 201.89 78.184 201.513C77.6191 201.137 77.1954 200.551 76.913 199.758C76.6305 198.951 76.4893 197.915 76.4893 196.651C76.4893 195.319 76.6171 194.243 76.8726 193.423C77.1416 192.589 77.572 191.984 78.1638 191.607C78.7556 191.217 79.5559 191.022 80.5647 191.022C81.1296 191.022 81.6878 191.083 82.2393 191.204C82.8042 191.325 83.2951 191.459 83.7121 191.607V186.563H85.7296V201.957H84.0752L83.7121 200.888C83.4969 201.076 83.201 201.264 82.8243 201.453C82.4477 201.628 82.0442 201.775 81.6138 201.897C81.1834 202.018 80.7665 202.078 80.363 202.078ZM81.0086 200.424C81.56 200.424 82.0577 200.336 82.5015 200.161C82.9588 199.987 83.3624 199.805 83.7121 199.617V193.06C83.2951 192.939 82.8849 192.831 82.4814 192.737C82.0913 192.629 81.6542 192.575 81.17 192.575C80.5378 192.575 80.0267 192.69 79.6366 192.918C79.2466 193.147 78.9641 193.551 78.7893 194.129C78.6144 194.707 78.527 195.514 78.527 196.55C78.527 197.505 78.6077 198.272 78.7691 198.85C78.9305 199.415 79.1928 199.818 79.5559 200.061C79.9325 200.303 80.4168 200.424 81.0086 200.424ZM88.7791 189.347C88.537 189.347 88.4159 189.233 88.4159 189.004V187.31C88.4159 187.068 88.537 186.947 88.7791 186.947H90.272C90.3796 186.947 90.4603 186.98 90.5142 187.047C90.568 187.115 90.5949 187.202 90.5949 187.31V189.004C90.5949 189.233 90.4872 189.347 90.272 189.347H88.7791ZM88.4966 201.957V191.163H90.5142V201.957H88.4966ZM97.1162 202.078C96.8338 202.078 96.4975 202.071 96.1075 202.058C95.7174 202.044 95.3139 202.018 94.8969 201.977C94.4934 201.95 94.1168 201.917 93.7671 201.876C93.4309 201.836 93.1619 201.789 92.9601 201.735V200.525H97.4996C97.8896 200.525 98.2259 200.498 98.5083 200.444C98.7908 200.377 99.006 200.242 99.1539 200.04C99.3153 199.839 99.396 199.543 99.396 199.153V198.709C99.396 198.305 99.2615 197.989 98.9925 197.761C98.7235 197.532 98.2797 197.418 97.661 197.418H96.0873C95.4551 197.418 94.8902 197.337 94.3926 197.175C93.9083 197.001 93.525 196.711 93.2426 196.308C92.9735 195.904 92.839 195.36 92.839 194.674V194.089C92.839 193.403 92.9668 192.838 93.2224 192.394C93.4914 191.95 93.9151 191.621 94.4934 191.405C95.0718 191.177 95.8385 191.062 96.7934 191.062C97.1969 191.062 97.6408 191.083 98.125 191.123C98.6227 191.15 99.1069 191.19 99.5776 191.244C100.048 191.298 100.425 191.358 100.707 191.425V192.636H96.4303C95.8385 192.636 95.3811 192.737 95.0583 192.939C94.749 193.14 94.5943 193.524 94.5943 194.089V194.492C94.5943 194.842 94.6683 195.111 94.8162 195.299C94.9642 195.487 95.1727 195.609 95.4417 195.662C95.7241 195.716 96.0537 195.743 96.4303 195.743H98.0443C99.0665 195.743 99.8399 195.985 100.364 196.469C100.889 196.94 101.151 197.606 101.151 198.467V199.294C101.151 200.02 100.983 200.585 100.647 200.989C100.311 201.392 99.8399 201.675 99.2346 201.836C98.6428 201.997 97.9367 202.078 97.1162 202.078ZM107.466 202.078C106.834 202.078 106.248 201.997 105.71 201.836C105.186 201.661 104.722 201.372 104.318 200.968C103.928 200.565 103.626 200.007 103.41 199.294C103.195 198.581 103.088 197.68 103.088 196.59C103.088 195.474 103.189 194.559 103.39 193.847C103.592 193.12 103.881 192.555 104.258 192.152C104.648 191.735 105.119 191.446 105.67 191.284C106.222 191.123 106.84 191.042 107.526 191.042C108.091 191.042 108.683 191.069 109.302 191.123C109.934 191.177 110.546 191.264 111.138 191.385V192.575H108.091C107.432 192.575 106.881 192.683 106.437 192.898C105.993 193.1 105.663 193.497 105.448 194.089C105.233 194.667 105.125 195.508 105.125 196.611C105.125 197.673 105.24 198.494 105.468 199.072C105.697 199.637 106.027 200.02 106.457 200.222C106.901 200.424 107.452 200.525 108.111 200.525H111.299V201.675C110.99 201.755 110.62 201.829 110.189 201.897C109.772 201.95 109.329 201.991 108.858 202.018C108.401 202.058 107.936 202.078 107.466 202.078ZM117.74 202.078C116.919 202.078 116.206 201.991 115.601 201.816C115.009 201.641 114.518 201.352 114.128 200.948C113.738 200.531 113.449 199.966 113.261 199.254C113.072 198.541 112.978 197.64 112.978 196.55C112.978 195.42 113.072 194.499 113.261 193.786C113.449 193.06 113.738 192.495 114.128 192.091C114.518 191.688 115.016 191.412 115.621 191.264C116.227 191.103 116.933 191.022 117.74 191.022C118.547 191.022 119.253 191.103 119.858 191.264C120.463 191.425 120.961 191.708 121.351 192.111C121.741 192.515 122.03 193.08 122.219 193.806C122.407 194.519 122.501 195.434 122.501 196.55C122.501 197.653 122.407 198.568 122.219 199.294C122.03 200.007 121.741 200.565 121.351 200.968C120.974 201.372 120.484 201.661 119.878 201.836C119.273 201.997 118.56 202.078 117.74 202.078ZM117.74 200.424C118.184 200.424 118.574 200.383 118.91 200.303C119.26 200.222 119.549 200.054 119.777 199.798C120.006 199.529 120.181 199.132 120.302 198.608C120.423 198.083 120.484 197.391 120.484 196.53C120.484 195.669 120.423 194.983 120.302 194.472C120.181 193.947 120.006 193.557 119.777 193.302C119.549 193.046 119.26 192.878 118.91 192.797C118.574 192.703 118.184 192.656 117.74 192.656C117.282 192.656 116.879 192.703 116.529 192.797C116.193 192.878 115.91 193.046 115.682 193.302C115.467 193.557 115.298 193.947 115.177 194.472C115.07 194.983 115.016 195.669 115.016 196.53C115.016 197.391 115.07 198.083 115.177 198.608C115.298 199.132 115.467 199.529 115.682 199.798C115.91 200.054 116.193 200.222 116.529 200.303C116.879 200.383 117.282 200.424 117.74 200.424ZM124.966 201.957V191.163H126.58L126.983 192.333C127.468 191.984 128.039 191.674 128.698 191.405C129.371 191.123 130.064 190.982 130.776 190.982C131.583 190.982 132.229 191.156 132.713 191.506C133.211 191.842 133.567 192.293 133.783 192.858C133.998 193.423 134.105 194.035 134.105 194.694V201.957H132.088V194.936C132.088 194.506 132 194.136 131.826 193.826C131.664 193.504 131.436 193.255 131.14 193.08C130.844 192.905 130.481 192.818 130.05 192.818C129.647 192.818 129.27 192.858 128.92 192.939C128.584 193.019 128.261 193.134 127.952 193.282C127.643 193.416 127.32 193.584 126.983 193.786V201.957H124.966ZM136.866 201.957V191.163H138.48L138.884 192.333C139.368 191.984 139.94 191.674 140.599 191.405C141.271 191.123 141.964 190.982 142.677 190.982C143.484 190.982 144.129 191.156 144.614 191.506C145.111 191.842 145.468 192.293 145.683 192.858C145.898 193.423 146.006 194.035 146.006 194.694V201.957H143.988V194.936C143.988 194.506 143.901 194.136 143.726 193.826C143.564 193.504 143.336 193.255 143.04 193.08C142.744 192.905 142.381 192.818 141.95 192.818C141.547 192.818 141.17 192.858 140.821 192.939C140.484 193.019 140.162 193.134 139.852 193.282C139.543 193.416 139.22 193.584 138.884 193.786V201.957H136.866ZM153.024 202.078C151.88 202.078 150.966 201.91 150.28 201.574C149.607 201.237 149.123 200.673 148.827 199.879C148.545 199.072 148.403 197.962 148.403 196.55C148.403 195.111 148.545 193.994 148.827 193.201C149.123 192.394 149.607 191.829 150.28 191.506C150.952 191.183 151.86 191.022 153.003 191.022C153.999 191.022 154.799 191.13 155.404 191.345C156.023 191.547 156.474 191.916 156.756 192.454C157.052 192.979 157.2 193.712 157.2 194.654C157.2 195.313 157.065 195.837 156.796 196.227C156.541 196.617 156.171 196.9 155.687 197.075C155.216 197.249 154.651 197.337 153.992 197.337H150.421C150.434 198.117 150.522 198.742 150.683 199.213C150.858 199.67 151.161 200.007 151.591 200.222C152.035 200.424 152.681 200.525 153.528 200.525H156.897V201.735C156.319 201.816 155.727 201.89 155.122 201.957C154.517 202.038 153.817 202.078 153.024 202.078ZM150.401 196.066H153.81C154.348 196.066 154.745 195.965 155.001 195.763C155.256 195.561 155.384 195.192 155.384 194.654C155.384 194.116 155.303 193.692 155.142 193.383C154.994 193.073 154.745 192.851 154.395 192.717C154.046 192.582 153.582 192.515 153.003 192.515C152.344 192.515 151.82 192.616 151.43 192.818C151.053 193.019 150.784 193.376 150.623 193.887C150.475 194.398 150.401 195.124 150.401 196.066ZM163.677 202.078C163.045 202.078 162.46 201.997 161.922 201.836C161.397 201.661 160.933 201.372 160.53 200.968C160.14 200.565 159.837 200.007 159.622 199.294C159.406 198.581 159.299 197.68 159.299 196.59C159.299 195.474 159.4 194.559 159.602 193.847C159.803 193.12 160.092 192.555 160.469 192.152C160.859 191.735 161.33 191.446 161.881 191.284C162.433 191.123 163.052 191.042 163.737 191.042C164.302 191.042 164.894 191.069 165.513 191.123C166.145 191.177 166.757 191.264 167.349 191.385V192.575H164.302C163.643 192.575 163.092 192.683 162.648 192.898C162.204 193.1 161.875 193.497 161.659 194.089C161.444 194.667 161.337 195.508 161.337 196.611C161.337 197.673 161.451 198.494 161.68 199.072C161.908 199.637 162.238 200.02 162.668 200.222C163.112 200.424 163.663 200.525 164.323 200.525H167.51V201.675C167.201 201.755 166.831 201.829 166.401 201.897C165.984 201.95 165.54 201.991 165.069 202.018C164.612 202.058 164.148 202.078 163.677 202.078ZM173.285 201.957C172.559 201.957 171.954 201.843 171.469 201.614C170.999 201.372 170.649 200.989 170.42 200.464C170.205 199.939 170.104 199.24 170.118 198.366L170.198 192.818H168.483V191.506L170.239 191.163L170.541 188.137H172.135V191.163H175.061V192.818H172.135V198.346C172.135 198.763 172.175 199.099 172.256 199.354C172.337 199.61 172.451 199.805 172.599 199.939C172.747 200.074 172.909 200.175 173.083 200.242C173.258 200.296 173.426 200.33 173.588 200.343L174.919 200.464V201.957H173.285ZM181.356 202.078C180.212 202.078 179.298 201.91 178.612 201.574C177.939 201.237 177.455 200.673 177.159 199.879C176.877 199.072 176.736 197.962 176.736 196.55C176.736 195.111 176.877 193.994 177.159 193.201C177.455 192.394 177.939 191.829 178.612 191.506C179.284 191.183 180.192 191.022 181.336 191.022C182.331 191.022 183.131 191.13 183.736 191.345C184.355 191.547 184.806 191.916 185.088 192.454C185.384 192.979 185.532 193.712 185.532 194.654C185.532 195.313 185.398 195.837 185.129 196.227C184.873 196.617 184.503 196.9 184.019 197.075C183.548 197.249 182.983 197.337 182.324 197.337H178.753C178.767 198.117 178.854 198.742 179.015 199.213C179.19 199.67 179.493 200.007 179.923 200.222C180.367 200.424 181.013 200.525 181.86 200.525H185.229V201.735C184.651 201.816 184.059 201.89 183.454 201.957C182.849 202.038 182.149 202.078 181.356 202.078ZM178.733 196.066H182.143C182.681 196.066 183.077 195.965 183.333 195.763C183.588 195.561 183.716 195.192 183.716 194.654C183.716 194.116 183.636 193.692 183.474 193.383C183.326 193.073 183.077 192.851 182.728 192.717C182.378 192.582 181.914 192.515 181.336 192.515C180.677 192.515 180.152 192.616 179.762 192.818C179.385 193.019 179.116 193.376 178.955 193.887C178.807 194.398 178.733 195.124 178.733 196.066ZM191.505 202.078C190.63 202.078 189.904 201.89 189.326 201.513C188.761 201.137 188.337 200.551 188.055 199.758C187.772 198.951 187.631 197.915 187.631 196.651C187.631 195.319 187.759 194.243 188.014 193.423C188.283 192.589 188.714 191.984 189.306 191.607C189.897 191.217 190.698 191.022 191.707 191.022C192.271 191.022 192.83 191.083 193.381 191.204C193.946 191.325 194.437 191.459 194.854 191.607V186.563H196.871V201.957H195.217L194.854 200.888C194.639 201.076 194.343 201.264 193.966 201.453C193.59 201.628 193.186 201.775 192.756 201.897C192.325 202.018 191.908 202.078 191.505 202.078ZM192.15 200.424C192.702 200.424 193.199 200.336 193.643 200.161C194.101 199.987 194.504 199.805 194.854 199.617V193.06C194.437 192.939 194.027 192.831 193.623 192.737C193.233 192.629 192.796 192.575 192.312 192.575C191.68 192.575 191.168 192.69 190.778 192.918C190.388 193.147 190.106 193.551 189.931 194.129C189.756 194.707 189.669 195.514 189.669 196.55C189.669 197.505 189.749 198.272 189.911 198.85C190.072 199.415 190.335 199.818 190.698 200.061C191.074 200.303 191.559 200.424 192.15 200.424ZM205.643 201.957V192.818H204.029V191.506L205.643 191.163V190.094C205.643 189.287 205.744 188.614 205.946 188.076C206.147 187.525 206.484 187.115 206.954 186.846C207.425 186.577 208.071 186.442 208.891 186.442C209.362 186.442 209.766 186.469 210.102 186.523C210.452 186.577 210.754 186.624 211.01 186.664V188.117H209.254C208.824 188.117 208.495 188.184 208.266 188.318C208.037 188.453 207.876 188.661 207.782 188.944C207.701 189.226 207.661 189.576 207.661 189.993V191.163H210.828V192.818H207.661V201.957H205.643ZM212.563 201.957V191.163H214.117L214.581 192.979C215.038 192.428 215.549 191.964 216.114 191.587C216.679 191.21 217.338 191.022 218.091 191.022C218.266 191.022 218.434 191.035 218.596 191.062C218.757 191.076 218.912 191.103 219.06 191.143V193.221C218.871 193.194 218.676 193.174 218.475 193.161C218.273 193.134 218.064 193.12 217.849 193.12C217.392 193.12 216.982 193.174 216.618 193.282C216.255 193.389 215.906 193.557 215.569 193.786C215.247 194.001 214.917 194.27 214.581 194.593V201.957H212.563ZM225.355 202.078C224.534 202.078 223.821 201.991 223.216 201.816C222.624 201.641 222.133 201.352 221.743 200.948C221.353 200.531 221.064 199.966 220.876 199.254C220.688 198.541 220.593 197.64 220.593 196.55C220.593 195.42 220.688 194.499 220.876 193.786C221.064 193.06 221.353 192.495 221.743 192.091C222.133 191.688 222.631 191.412 223.236 191.264C223.842 191.103 224.548 191.022 225.355 191.022C226.162 191.022 226.868 191.103 227.473 191.264C228.078 191.425 228.576 191.708 228.966 192.111C229.356 192.515 229.645 193.08 229.834 193.806C230.022 194.519 230.116 195.434 230.116 196.55C230.116 197.653 230.022 198.568 229.834 199.294C229.645 200.007 229.356 200.565 228.966 200.968C228.59 201.372 228.099 201.661 227.493 201.836C226.888 201.997 226.175 202.078 225.355 202.078ZM225.355 200.424C225.799 200.424 226.189 200.383 226.525 200.303C226.875 200.222 227.164 200.054 227.392 199.798C227.621 199.529 227.796 199.132 227.917 198.608C228.038 198.083 228.099 197.391 228.099 196.53C228.099 195.669 228.038 194.983 227.917 194.472C227.796 193.947 227.621 193.557 227.392 193.302C227.164 193.046 226.875 192.878 226.525 192.797C226.189 192.703 225.799 192.656 225.355 192.656C224.897 192.656 224.494 192.703 224.144 192.797C223.808 192.878 223.526 193.046 223.297 193.302C223.082 193.557 222.914 193.947 222.792 194.472C222.685 194.983 222.631 195.669 222.631 196.53C222.631 197.391 222.685 198.083 222.792 198.608C222.914 199.132 223.082 199.529 223.297 199.798C223.526 200.054 223.808 200.222 224.144 200.303C224.494 200.383 224.897 200.424 225.355 200.424ZM232.581 201.957V191.163H234.195L234.599 192.333C235.123 191.97 235.701 191.654 236.334 191.385C236.966 191.116 237.692 190.982 238.513 190.982C239.185 190.982 239.757 191.13 240.227 191.425C240.698 191.721 241.055 192.098 241.297 192.555C241.62 192.313 242.01 192.071 242.467 191.829C242.924 191.587 243.415 191.385 243.94 191.224C244.464 191.062 244.969 190.982 245.453 190.982C246.26 190.982 246.912 191.15 247.41 191.486C247.921 191.809 248.284 192.259 248.499 192.838C248.728 193.403 248.842 194.048 248.842 194.775V201.957H246.825V194.936C246.825 194.506 246.737 194.136 246.563 193.826C246.401 193.504 246.166 193.255 245.856 193.08C245.56 192.905 245.197 192.818 244.767 192.818C244.229 192.818 243.677 192.925 243.113 193.14C242.548 193.342 242.03 193.591 241.559 193.887C241.613 194.062 241.653 194.243 241.68 194.432C241.707 194.606 241.72 194.781 241.72 194.956V201.957H239.703V194.936C239.703 194.506 239.615 194.136 239.441 193.826C239.279 193.504 239.051 193.255 238.755 193.08C238.459 192.905 238.096 192.818 237.665 192.818C237.262 192.818 236.885 192.858 236.535 192.939C236.199 193.019 235.876 193.134 235.567 193.282C235.258 193.416 234.935 193.584 234.599 193.786V201.957H232.581ZM101.028 229.078C100.53 229.078 100.066 229.018 99.6359 228.897C99.2189 228.775 98.8356 228.628 98.4859 228.453C98.1496 228.264 97.8402 228.076 97.5578 227.888L97.1946 228.957H95.5403V213.563H97.5578V219.071C98.0555 218.802 98.6069 218.56 99.2122 218.345C99.8309 218.13 100.403 218.022 100.927 218.022C101.815 218.022 102.541 218.21 103.106 218.587C103.671 218.95 104.088 219.542 104.357 220.362C104.639 221.183 104.781 222.279 104.781 223.651C104.781 224.794 104.653 225.776 104.397 226.597C104.142 227.404 103.738 228.022 103.187 228.453C102.635 228.87 101.916 229.078 101.028 229.078ZM100.322 227.404C100.846 227.404 101.284 227.276 101.633 227.02C101.996 226.751 102.272 226.334 102.46 225.769C102.662 225.191 102.763 224.451 102.763 223.55C102.763 222.447 102.655 221.62 102.44 221.068C102.225 220.517 101.936 220.147 101.573 219.959C101.21 219.771 100.793 219.676 100.322 219.676C99.7838 219.676 99.2929 219.757 98.849 219.918C98.4186 220.066 97.9882 220.255 97.5578 220.483V226.637C97.921 226.825 98.3312 227 98.7885 227.161C99.2458 227.323 99.7569 227.404 100.322 227.404ZM110.411 229.078C109.402 229.078 108.615 228.809 108.051 228.271C107.499 227.72 107.223 226.886 107.223 225.769V218.163H109.241V225.225C109.241 226.032 109.422 226.576 109.786 226.859C110.162 227.141 110.687 227.282 111.359 227.282C111.897 227.282 112.408 227.202 112.893 227.04C113.39 226.866 113.875 226.63 114.345 226.334V218.163H116.363V228.957H114.749L114.345 227.807C113.821 228.143 113.215 228.439 112.529 228.695C111.857 228.95 111.151 229.078 110.411 229.078ZM122.917 229.078C122.634 229.078 122.298 229.071 121.908 229.058C121.518 229.044 121.114 229.018 120.697 228.977C120.294 228.95 119.917 228.917 119.568 228.876C119.231 228.836 118.962 228.789 118.761 228.735V227.525H123.3C123.69 227.525 124.026 227.498 124.309 227.444C124.591 227.377 124.806 227.242 124.954 227.04C125.116 226.839 125.196 226.543 125.196 226.153V225.709C125.196 225.305 125.062 224.989 124.793 224.761C124.524 224.532 124.08 224.418 123.461 224.418H121.888C121.256 224.418 120.691 224.337 120.193 224.175C119.709 224.001 119.325 223.711 119.043 223.308C118.774 222.904 118.639 222.36 118.639 221.674V221.089C118.639 220.403 118.767 219.838 119.023 219.394C119.292 218.95 119.715 218.621 120.294 218.405C120.872 218.177 121.639 218.062 122.594 218.062C122.997 218.062 123.441 218.083 123.925 218.123C124.423 218.15 124.907 218.19 125.378 218.244C125.849 218.298 126.225 218.358 126.508 218.425V219.636H122.231C121.639 219.636 121.182 219.737 120.859 219.939C120.549 220.14 120.395 220.524 120.395 221.089V221.492C120.395 221.842 120.469 222.111 120.617 222.299C120.765 222.487 120.973 222.609 121.242 222.662C121.525 222.716 121.854 222.743 122.231 222.743H123.845C124.867 222.743 125.64 222.985 126.165 223.469C126.689 223.94 126.952 224.606 126.952 225.467V226.294C126.952 227.02 126.784 227.585 126.447 227.989C126.111 228.392 125.64 228.675 125.035 228.836C124.443 228.997 123.737 229.078 122.917 229.078ZM129.534 216.347C129.292 216.347 129.171 216.233 129.171 216.004V214.31C129.171 214.068 129.292 213.947 129.534 213.947H131.027C131.134 213.947 131.215 213.98 131.269 214.047C131.323 214.115 131.349 214.202 131.349 214.31V216.004C131.349 216.233 131.242 216.347 131.027 216.347H129.534ZM129.251 228.957V218.163H131.269V228.957H129.251ZM134.098 228.957V218.163H135.712L136.116 219.333C136.6 218.984 137.171 218.674 137.83 218.405C138.503 218.123 139.196 217.982 139.909 217.982C140.716 217.982 141.361 218.156 141.845 218.506C142.343 218.842 142.699 219.293 142.915 219.858C143.13 220.423 143.237 221.035 143.237 221.694V228.957H141.22V221.936C141.22 221.506 141.133 221.136 140.958 220.826C140.796 220.504 140.568 220.255 140.272 220.08C139.976 219.905 139.613 219.818 139.182 219.818C138.779 219.818 138.402 219.858 138.052 219.939C137.716 220.019 137.393 220.134 137.084 220.282C136.775 220.416 136.452 220.584 136.116 220.786V228.957H134.098ZM150.255 229.078C149.112 229.078 148.197 228.91 147.512 228.574C146.839 228.237 146.355 227.673 146.059 226.879C145.776 226.072 145.635 224.962 145.635 223.55C145.635 222.111 145.776 220.994 146.059 220.201C146.355 219.394 146.839 218.829 147.512 218.506C148.184 218.183 149.092 218.022 150.235 218.022C151.231 218.022 152.031 218.13 152.636 218.345C153.255 218.547 153.705 218.916 153.988 219.454C154.284 219.979 154.432 220.712 154.432 221.654C154.432 222.313 154.297 222.837 154.028 223.227C153.773 223.617 153.403 223.9 152.919 224.075C152.448 224.249 151.883 224.337 151.224 224.337H147.653C147.666 225.117 147.754 225.742 147.915 226.213C148.09 226.67 148.393 227.007 148.823 227.222C149.267 227.424 149.912 227.525 150.76 227.525H154.129V228.735C153.551 228.816 152.959 228.89 152.354 228.957C151.748 229.038 151.049 229.078 150.255 229.078ZM147.633 223.066H151.042C151.58 223.066 151.977 222.965 152.233 222.763C152.488 222.561 152.616 222.192 152.616 221.654C152.616 221.116 152.535 220.692 152.374 220.383C152.226 220.073 151.977 219.851 151.627 219.717C151.278 219.582 150.814 219.515 150.235 219.515C149.576 219.515 149.052 219.616 148.662 219.818C148.285 220.019 148.016 220.376 147.854 220.887C147.707 221.398 147.633 222.124 147.633 223.066ZM160.667 229.078C160.384 229.078 160.048 229.071 159.658 229.058C159.268 229.044 158.864 229.018 158.447 228.977C158.044 228.95 157.667 228.917 157.318 228.876C156.981 228.836 156.712 228.789 156.511 228.735V227.525H161.05C161.44 227.525 161.776 227.498 162.059 227.444C162.341 227.377 162.556 227.242 162.704 227.04C162.866 226.839 162.946 226.543 162.946 226.153V225.709C162.946 225.305 162.812 224.989 162.543 224.761C162.274 224.532 161.83 224.418 161.211 224.418H159.638C159.006 224.418 158.441 224.337 157.943 224.175C157.459 224.001 157.075 223.711 156.793 223.308C156.524 222.904 156.389 222.36 156.389 221.674V221.089C156.389 220.403 156.517 219.838 156.773 219.394C157.042 218.95 157.465 218.621 158.044 218.405C158.622 218.177 159.389 218.062 160.344 218.062C160.747 218.062 161.191 218.083 161.675 218.123C162.173 218.15 162.657 218.19 163.128 218.244C163.599 218.298 163.975 218.358 164.258 218.425V219.636H159.981C159.389 219.636 158.932 219.737 158.609 219.939C158.299 220.14 158.145 220.524 158.145 221.089V221.492C158.145 221.842 158.219 222.111 158.367 222.299C158.515 222.487 158.723 222.609 158.992 222.662C159.275 222.716 159.604 222.743 159.981 222.743H161.595C162.617 222.743 163.39 222.985 163.915 223.469C164.439 223.94 164.702 224.606 164.702 225.467V226.294C164.702 227.02 164.534 227.585 164.197 227.989C163.861 228.392 163.39 228.675 162.785 228.836C162.193 228.997 161.487 229.078 160.667 229.078ZM170.774 229.078C170.492 229.078 170.155 229.071 169.765 229.058C169.375 229.044 168.972 229.018 168.555 228.977C168.151 228.95 167.775 228.917 167.425 228.876C167.089 228.836 166.82 228.789 166.618 228.735V227.525H171.157C171.547 227.525 171.884 227.498 172.166 227.444C172.449 227.377 172.664 227.242 172.812 227.04C172.973 226.839 173.054 226.543 173.054 226.153V225.709C173.054 225.305 172.919 224.989 172.65 224.761C172.381 224.532 171.937 224.418 171.319 224.418H169.745C169.113 224.418 168.548 224.337 168.05 224.175C167.566 224.001 167.183 223.711 166.9 223.308C166.631 222.904 166.497 222.36 166.497 221.674V221.089C166.497 220.403 166.625 219.838 166.88 219.394C167.149 218.95 167.573 218.621 168.151 218.405C168.73 218.177 169.496 218.062 170.451 218.062C170.855 218.062 171.299 218.083 171.783 218.123C172.28 218.15 172.765 218.19 173.235 218.244C173.706 218.298 174.083 218.358 174.365 218.425V219.636H170.088C169.496 219.636 169.039 219.737 168.716 219.939C168.407 220.14 168.252 220.524 168.252 221.089V221.492C168.252 221.842 168.326 222.111 168.474 222.299C168.622 222.487 168.83 222.609 169.099 222.662C169.382 222.716 169.711 222.743 170.088 222.743H171.702C172.724 222.743 173.498 222.985 174.022 223.469C174.547 223.94 174.809 224.606 174.809 225.467V226.294C174.809 227.02 174.641 227.585 174.305 227.989C173.968 228.392 173.498 228.675 172.892 228.836C172.301 228.997 171.594 229.078 170.774 229.078ZM185.151 233.92C184.465 233.92 183.853 233.819 183.315 233.618C182.79 233.429 182.374 233.133 182.064 232.73C181.755 232.34 181.6 231.856 181.6 231.277V230.833C181.6 230.228 181.768 229.717 182.105 229.3C182.454 228.897 182.891 228.587 183.416 228.372C183.94 228.157 184.485 228.049 185.05 228.049L185.595 228.796C185.232 228.796 184.889 228.849 184.566 228.957C184.257 229.078 184.001 229.26 183.799 229.502C183.611 229.757 183.517 230.08 183.517 230.47V230.854C183.517 231.418 183.705 231.829 184.082 232.084C184.472 232.34 185.003 232.468 185.676 232.468H188.036C188.749 232.468 189.314 232.326 189.731 232.044C190.148 231.775 190.356 231.351 190.356 230.773V230.389C190.356 230.067 190.282 229.784 190.134 229.542C190 229.3 189.778 229.112 189.469 228.977C189.159 228.856 188.735 228.796 188.197 228.796H185.212C184.257 228.796 183.53 228.601 183.033 228.211C182.535 227.82 182.286 227.33 182.286 226.738C182.286 226.2 182.441 225.769 182.75 225.447C183.073 225.11 183.524 224.882 184.102 224.761C183.618 224.545 183.234 224.27 182.952 223.933C182.683 223.597 182.495 223.234 182.387 222.844C182.279 222.44 182.226 222.037 182.226 221.633C182.226 220.813 182.394 220.147 182.73 219.636C183.066 219.125 183.55 218.748 184.183 218.506C184.828 218.264 185.595 218.143 186.483 218.143H192.293V219.293L190.094 219.515C190.255 219.636 190.43 219.797 190.619 219.999C190.807 220.187 190.968 220.45 191.103 220.786C191.237 221.122 191.304 221.566 191.304 222.118C191.304 222.696 191.177 223.234 190.921 223.732C190.679 224.229 190.276 224.633 189.711 224.942C189.159 225.251 188.406 225.406 187.451 225.406H185.676C185.164 225.406 184.761 225.48 184.465 225.628C184.169 225.776 184.021 226.038 184.021 226.415C184.021 226.724 184.136 226.939 184.364 227.061C184.593 227.182 184.835 227.242 185.09 227.242H188.5C189.321 227.242 190.007 227.35 190.558 227.565C191.123 227.78 191.547 228.11 191.829 228.554C192.112 228.997 192.253 229.576 192.253 230.289V230.672C192.253 231.694 191.916 232.488 191.244 233.053C190.585 233.631 189.583 233.92 188.238 233.92H185.151ZM186.039 223.853H187.229C187.834 223.853 188.292 223.765 188.601 223.59C188.924 223.402 189.146 223.16 189.267 222.864C189.388 222.568 189.448 222.239 189.448 221.875C189.448 221.337 189.361 220.914 189.186 220.604C189.011 220.282 188.769 220.053 188.46 219.918C188.164 219.771 187.801 219.697 187.37 219.697H186.24C185.555 219.697 185.017 219.851 184.626 220.161C184.25 220.47 184.062 221.001 184.062 221.754C184.062 222.494 184.236 223.032 184.586 223.368C184.936 223.691 185.42 223.853 186.039 223.853ZM198.53 229.078C197.709 229.078 196.996 228.991 196.391 228.816C195.799 228.641 195.308 228.352 194.918 227.948C194.528 227.531 194.239 226.966 194.051 226.254C193.863 225.541 193.768 224.64 193.768 223.55C193.768 222.42 193.863 221.499 194.051 220.786C194.239 220.06 194.528 219.495 194.918 219.091C195.308 218.688 195.806 218.412 196.411 218.264C197.017 218.103 197.723 218.022 198.53 218.022C199.337 218.022 200.043 218.103 200.648 218.264C201.253 218.425 201.751 218.708 202.141 219.111C202.531 219.515 202.82 220.08 203.009 220.806C203.197 221.519 203.291 222.434 203.291 223.55C203.291 224.653 203.197 225.568 203.009 226.294C202.82 227.007 202.531 227.565 202.141 227.968C201.765 228.372 201.274 228.661 200.668 228.836C200.063 228.997 199.35 229.078 198.53 229.078ZM198.53 227.424C198.974 227.424 199.364 227.383 199.7 227.303C200.05 227.222 200.339 227.054 200.568 226.798C200.796 226.529 200.971 226.132 201.092 225.608C201.213 225.083 201.274 224.391 201.274 223.53C201.274 222.669 201.213 221.983 201.092 221.472C200.971 220.947 200.796 220.557 200.568 220.302C200.339 220.046 200.05 219.878 199.7 219.797C199.364 219.703 198.974 219.656 198.53 219.656C198.072 219.656 197.669 219.703 197.319 219.797C196.983 219.878 196.701 220.046 196.472 220.302C196.257 220.557 196.089 220.947 195.968 221.472C195.86 221.983 195.806 222.669 195.806 223.53C195.806 224.391 195.86 225.083 195.968 225.608C196.089 226.132 196.257 226.529 196.472 226.798C196.701 227.054 196.983 227.222 197.319 227.303C197.669 227.383 198.072 227.424 198.53 227.424ZM207.915 229.078C207.121 229.078 206.462 228.843 205.938 228.372C205.427 227.888 205.171 227.222 205.171 226.375V225.527C205.171 224.693 205.453 224.014 206.018 223.49C206.597 222.951 207.464 222.682 208.621 222.682H211.99V221.553C211.99 221.136 211.916 220.786 211.768 220.504C211.634 220.208 211.378 219.986 211.002 219.838C210.625 219.69 210.067 219.616 209.327 219.616H206.018V218.425C206.503 218.318 207.067 218.224 207.713 218.143C208.372 218.062 209.139 218.015 210.013 218.002C210.901 218.002 211.641 218.116 212.232 218.345C212.838 218.56 213.288 218.923 213.584 219.434C213.88 219.932 214.028 220.598 214.028 221.432V228.957H212.434L212.091 227.767C212.01 227.82 211.842 227.921 211.587 228.069C211.331 228.204 211.002 228.352 210.598 228.513C210.208 228.675 209.778 228.809 209.307 228.917C208.85 229.024 208.386 229.078 207.915 229.078ZM208.843 227.605C209.045 227.619 209.28 227.599 209.549 227.545C209.831 227.491 210.107 227.43 210.376 227.363C210.659 227.282 210.914 227.202 211.143 227.121C211.385 227.04 211.58 226.973 211.728 226.919C211.889 226.852 211.977 226.812 211.99 226.798V223.691L209.166 223.812C208.466 223.853 207.962 224.028 207.653 224.337C207.357 224.646 207.209 225.05 207.209 225.547V226.032C207.209 226.422 207.289 226.738 207.451 226.98C207.612 227.209 207.814 227.37 208.056 227.464C208.312 227.558 208.574 227.605 208.843 227.605ZM219.776 228.977C219.117 228.977 218.559 228.863 218.101 228.634C217.657 228.406 217.321 228.042 217.093 227.545C216.877 227.034 216.77 226.348 216.77 225.487V213.563H218.787V225.225C218.787 225.789 218.841 226.227 218.949 226.536C219.07 226.832 219.231 227.04 219.433 227.161C219.648 227.282 219.897 227.363 220.179 227.404L221.188 227.525V228.977H219.776ZM226.591 229.078C226.309 229.078 225.972 229.071 225.582 229.058C225.192 229.044 224.789 229.018 224.372 228.977C223.968 228.95 223.592 228.917 223.242 228.876C222.906 228.836 222.637 228.789 222.435 228.735V227.525H226.975C227.365 227.525 227.701 227.498 227.983 227.444C228.266 227.377 228.481 227.242 228.629 227.04C228.79 226.839 228.871 226.543 228.871 226.153V225.709C228.871 225.305 228.737 224.989 228.468 224.761C228.198 224.532 227.755 224.418 227.136 224.418H225.562C224.93 224.418 224.365 224.337 223.868 224.175C223.383 224.001 223 223.711 222.718 223.308C222.449 222.904 222.314 222.36 222.314 221.674V221.089C222.314 220.403 222.442 219.838 222.697 219.394C222.966 218.95 223.39 218.621 223.968 218.405C224.547 218.177 225.313 218.062 226.268 218.062C226.672 218.062 227.116 218.083 227.6 218.123C228.098 218.15 228.582 218.19 229.053 218.244C229.523 218.298 229.9 218.358 230.182 218.425V219.636H225.905C225.313 219.636 224.856 219.737 224.533 219.939C224.224 220.14 224.069 220.524 224.069 221.089V221.492C224.069 221.842 224.143 222.111 224.291 222.299C224.439 222.487 224.648 222.609 224.917 222.662C225.199 222.716 225.529 222.743 225.905 222.743H227.519C228.541 222.743 229.315 222.985 229.839 223.469C230.364 223.94 230.626 224.606 230.626 225.467V226.294C230.626 227.02 230.458 227.585 230.122 227.989C229.786 228.392 229.315 228.675 228.71 228.836C228.118 228.997 227.412 229.078 226.591 229.078Z" fill="#3D4651"/>
<path d="M146.687 67.4883C155.32 67.8396 159.396 78.3445 152.506 83.8718C146.077 89.0275 136.465 84.0687 137 76.0585C137.308 71.4561 141.607 67.5783 146.295 67.4883H146.689H146.687ZM145.344 71.3305C143.056 71.6767 141.024 73.9898 140.816 76.2062C140.31 81.5943 147.339 84.442 150.871 80.2537C154.404 76.0653 150.662 70.5278 145.344 71.3305Z" fill="#DA4436"/>
<path d="M145.091 114.144C154.858 113.073 159.904 124.608 152.378 130.493C145.98 135.496 136.445 130.49 137.008 122.558C137.297 118.493 140.878 114.606 145.089 114.144H145.091ZM145.482 117.825C143.068 118.142 140.986 120.482 140.806 122.811C140.436 127.571 146.146 130.568 150.025 127.569C154.582 124.046 151.425 117.041 145.482 117.823V117.825Z" fill="#DA4436"/>
<path d="M145.088 90.8973C154.71 89.8434 159.856 101.108 152.576 107.06C146.18 112.29 136.451 107.374 137.007 99.3113C137.289 95.2383 140.874 91.3589 145.088 90.8973ZM145.479 94.5782C143.822 94.7971 142.017 96.2057 141.342 97.6753C139.012 102.755 144.81 107.579 149.555 104.633C154.68 101.453 151.779 93.7483 145.479 94.5782Z" fill="#DA4436"/>
<path d="M164.682 117.289L168.999 121.476L173.447 117.289L175.942 119.828L175.877 120.149L171.822 123.974L175.989 128.166C176.022 128.281 175.928 128.328 175.875 128.407C175.748 128.593 173.659 130.623 173.512 130.698C173.365 130.772 173.295 130.759 173.182 130.635L169.112 126.698L164.659 130.735L162.187 128.339L162.252 128.018L166.314 124.084L162.002 119.892L164.682 117.291V117.289Z" fill="#DA4436"/>
<path d="M175.667 92.8985L178.346 95.5001L166.497 106.736L159.782 99.5459C159.742 99.3287 162.122 97.2192 162.564 97.1072L166.752 101.397L175.667 92.8985Z" fill="#DA4436"/>
<path d="M175.668 69.0157L178.347 71.6173L166.5 82.8553L159.779 75.6648L159.893 75.4238C160.608 74.9028 161.494 73.7743 162.184 73.3245C162.307 73.2448 162.394 73.1599 162.557 73.2193L166.752 77.5163L175.666 69.0174L175.668 69.0157Z" fill="#DA4436"/>
<defs>
<filter id="filter0_d_6111_28462" x="0.181961" y="9.11739" width="304.194" height="292.364" filterUnits="userSpaceOnUse" color-interpolation-filters="sRGB">
<feFlood flood-opacity="0" result="BackgroundImageFix"/>
<feColorMatrix in="SourceAlpha" type="matrix" values="0 0 0 0 0 0 0 0 0 0 0 0 0 0 0 0 0 0 127 0" result="hardAlpha"/>
<feOffset/>
<feGaussianBlur stdDeviation="10.5968"/>
<feComposite in2="hardAlpha" operator="out"/>
<feColorMatrix type="matrix" values="0 0 0 0 0 0 0 0 0 0 0 0 0 0 0 0 0 0 0.25 0"/>
<feBlend mode="normal" in2="BackgroundImageFix" result="effect1_dropShadow_6111_28462"/>
<feBlend mode="normal" in="SourceGraphic" in2="effect1_dropShadow_6111_28462" result="shape"/>
</filter>
<clipPath id="clip0_6111_28462">
<rect width="37.9562" height="37.9562" fill="white" transform="translate(242.557 38.1172)"/>
</clipPath>
</defs>
</svg>
