<svg width="398" height="399" viewBox="0 0 398 399" fill="none" xmlns="http://www.w3.org/2000/svg">
<path d="M295.839 302.07L297.251 303.797L297.375 303.696L297.483 303.578L295.839 302.07ZM283.958 311.728L285.25 313.547L285.251 313.546L283.958 311.728ZM133.609 324.079L134.588 322.075L134.588 322.074L133.609 324.079ZM111.74 310.022L112.955 308.151L112.953 308.149L111.74 310.022ZM109.45 308.582L107.942 310.226L108.097 310.367L108.275 310.478L109.45 308.582ZM97.7054 297.812L95.9939 299.243L96.0887 299.357L96.1977 299.457L97.7054 297.812ZM88.2465 286.498L89.7543 284.854L86.4971 287.883L88.2465 286.498ZM88.2501 286.502L86.7424 288.146L89.9989 285.116L88.2501 286.502ZM66.5013 247.377L68.5961 246.61L68.5958 246.609L66.5013 247.377ZM64.1383 244.683L65.1786 242.71L65.1759 242.708L64.1383 244.683ZM9.81247 216.324L10.8425 214.345L10.8093 214.328L10.7755 214.312L9.81247 216.324ZM9.46894 216.148L8.47203 218.144L8.4891 218.152L8.50634 218.161L9.46894 216.148ZM8.20166 215.741L6.69393 217.385L7.05937 217.721L7.53234 217.869L8.20166 215.741ZM4.96268 212.771L2.9552 213.744L3.14099 214.128L3.45495 214.415L4.96268 212.771ZM4.5603 203.451L2.91602 201.943L2.62548 202.26L2.47347 202.662L4.5603 203.451ZM7.53162 200.21L6.35223 198.317L6.09343 198.478L5.88735 198.703L7.53162 200.21ZM8.76483 199.448L7.58805 197.552L7.58544 197.554L8.76483 199.448ZM25.3933 189.109L26.5834 190.996L26.5856 190.995L25.3933 189.109ZM60.2886 166.86L59.0803 164.984L59.0759 164.987L60.2886 166.86ZM63.0227 163.151L65.1722 163.748L65.1734 163.744L63.0227 163.151ZM88.8761 112.169L87.1431 110.765L87.1356 110.774L88.8761 112.169ZM89.9677 110.309L88.3234 108.801L88.1576 108.982L88.035 109.194L89.9677 110.309ZM99.9938 99.3745L98.5563 97.6684L98.4466 97.7609L98.3495 97.8667L99.9938 99.3745ZM112.571 88.8213L113.932 90.5891L113.932 90.5886L112.571 88.8213ZM209.584 59.5475L209.75 57.3227L209.75 57.3227L209.584 59.5475ZM298.834 100.713L300.408 99.1321L300.407 99.1317L298.834 100.713ZM319.249 272.466L321.149 273.634L321.15 273.634L319.249 272.466ZM308.836 287.895L310.48 289.403L310.591 289.282L310.683 289.147L308.836 287.895ZM295.839 302.07L297.483 303.578L300.732 300.034L299.088 298.526L297.444 297.019L294.194 300.562L295.839 302.07ZM305.587 291.439L307.231 292.947L310.48 289.403L308.836 287.895L307.192 286.388L303.943 289.931L305.587 291.439ZM308.836 287.895L310.683 289.147C311.545 287.874 312.422 286.607 313.306 285.334L311.474 284.061L309.642 282.788C308.755 284.064 307.866 285.349 306.989 286.644L308.836 287.895ZM316.74 276.386L318.6 277.618C319.468 276.308 320.321 274.982 321.149 273.634L319.249 272.466L317.348 271.298C316.552 272.593 315.727 273.876 314.88 275.154L316.74 276.386ZM319.249 272.466L321.15 273.634C321.84 272.509 322.513 271.377 323.168 270.238L321.235 269.126L319.301 268.013C318.667 269.116 318.016 270.211 317.348 271.299L319.249 272.466ZM324.91 262.291L326.904 263.291C328.088 260.932 329.2 258.546 330.24 256.138L328.192 255.253L326.145 254.368C325.137 256.699 324.061 259.007 322.916 261.291L324.91 262.291ZM331.069 248.042L333.164 248.81C334.07 246.335 334.905 243.841 335.667 241.33L333.533 240.682L331.398 240.033C330.66 242.464 329.852 244.879 328.974 247.275L331.069 248.042ZM335.58 233.192L337.747 233.72C338.37 231.161 338.92 228.589 339.399 226.007L337.205 225.6L335.011 225.194C334.548 227.695 334.015 230.186 333.412 232.664L335.58 233.192ZM338.407 217.931L340.619 218.216C340.955 215.605 341.218 212.989 341.409 210.368L339.184 210.206L336.959 210.044C336.774 212.583 336.519 215.118 336.194 217.647L338.407 217.931ZM339.536 202.45L341.766 202.491C341.814 199.861 341.789 197.232 341.693 194.606L339.464 194.688L337.234 194.769C337.328 197.314 337.351 199.862 337.305 202.41L339.536 202.45ZM338.969 186.94L341.191 186.737C340.952 184.119 340.642 181.508 340.261 178.907L338.054 179.23L335.846 179.553C336.216 182.074 336.516 184.605 336.748 187.142L338.969 186.94ZM336.72 171.582L338.907 171.139C338.385 168.563 337.793 166.001 337.131 163.456L334.972 164.018L332.813 164.579C333.455 167.046 334.028 169.529 334.534 172.025L336.72 171.582ZM332.813 156.56L334.938 155.881C334.139 153.379 333.27 150.896 332.333 148.438L330.248 149.232L328.164 150.027C329.072 152.409 329.914 154.814 330.688 157.239L332.813 156.56ZM327.283 142.058L329.32 141.149C328.25 138.751 327.112 136.38 325.907 134.038L323.923 135.059L321.94 136.08C323.107 138.348 324.209 140.645 325.245 142.967L327.283 142.058ZM320.177 128.258L322.1 127.128C320.77 124.866 319.374 122.637 317.912 120.444L316.056 121.681L314.2 122.919C315.615 125.041 316.966 127.199 318.254 129.389L320.177 128.258ZM311.568 115.346L313.351 114.005C311.774 111.909 310.133 109.851 308.429 107.835L306.725 109.275L305.022 110.715C306.671 112.666 308.259 114.658 309.785 116.687L311.568 115.346ZM301.548 103.494L303.167 101.959C302.263 101.006 301.343 100.063 300.408 99.1321L298.834 100.713L297.259 102.294C298.164 103.195 299.054 104.107 299.93 105.03L301.548 103.494ZM298.834 100.713L300.407 99.1317C299.4 98.1291 298.384 97.1437 297.359 96.1755L295.827 97.7971L294.295 99.4186C295.291 100.36 296.279 101.319 297.26 102.294L298.834 100.713ZM289.591 92.2126L291.034 90.511C288.859 88.6667 286.648 86.8958 284.4 85.1988L283.056 86.9791L281.712 88.7594C283.891 90.405 286.037 92.1234 288.149 93.9142L289.591 92.2126ZM276.231 82.132L277.469 80.2758C275.1 78.6969 272.695 77.1958 270.252 75.7732L269.129 77.701L268.007 79.6288C270.371 81.0056 272.7 82.4588 274.994 83.9882L276.231 82.132ZM261.768 73.7136L262.769 71.7199C260.233 70.4461 257.659 69.2528 255.048 68.1406L254.174 70.1931L253.299 72.2455C255.824 73.3211 258.314 74.4752 260.767 75.7072L261.768 73.7136ZM246.372 67.1556L247.116 65.0524C244.45 64.1093 241.748 63.2469 239.01 62.4656L238.398 64.6109L237.786 66.7562C240.435 67.5123 243.05 68.3467 245.629 69.2588L246.372 67.1556ZM230.282 62.5607L230.763 60.3822C228.012 59.7751 225.227 59.2463 222.408 58.7962L222.056 60.9992L221.705 63.2022C224.438 63.6386 227.137 64.1511 229.801 64.7391L230.282 62.5607ZM213.756 59.9156L213.983 57.6963C212.58 57.553 211.169 57.4285 209.75 57.3227L209.584 59.5475L209.418 61.7722C210.797 61.8749 212.167 61.9959 213.53 62.135L213.756 59.9156ZM209.584 59.5475L209.75 57.3227C208.495 57.2293 207.245 57.1509 205.998 57.0877L205.885 59.3157L205.772 61.5437C206.983 61.6052 208.198 61.6814 209.418 61.7722L209.584 59.5475ZM198.477 59.1194L198.481 56.8885C195.956 56.8838 193.449 56.9424 190.96 57.0644L191.069 59.2926L191.178 61.5209C193.591 61.4026 196.023 61.3457 198.472 61.3503L198.477 59.1194ZM183.682 59.8487L183.456 57.6293C180.948 57.8849 178.458 58.2065 175.988 58.594L176.333 60.798L176.679 63.0019C179.07 62.6269 181.479 62.3156 183.908 62.0681L183.682 59.8487ZM169.048 62.1468L168.581 59.9652C166.121 60.4912 163.681 61.0844 161.261 61.7445L161.848 63.8968L162.435 66.0491C164.776 65.4107 167.135 64.8371 169.514 64.3284L169.048 62.1468ZM154.757 66.0451L154.051 63.9289C151.672 64.7226 149.313 65.5829 146.975 66.5098L147.797 68.5837L148.619 70.6577C150.881 69.761 153.163 68.9289 155.463 68.1613L154.757 66.0451ZM140.986 71.501L140.052 69.4749C137.782 70.5211 135.531 71.6318 133.302 72.8069L134.342 74.7805L135.382 76.7542C137.542 75.6156 139.721 74.5399 141.919 73.5271L140.986 71.501ZM127.879 78.4027L126.739 76.4852C124.597 77.7587 122.475 79.0934 120.373 80.4891L121.607 82.3477L122.841 84.2063C124.883 82.8509 126.942 81.5555 129.019 80.3202L127.879 78.4027ZM115.533 86.5931L114.212 84.7951C113.206 85.5337 112.206 86.2867 111.209 87.054L112.571 88.8213L113.932 90.5886C114.902 89.8418 115.875 89.1093 116.853 88.391L115.533 86.5931ZM112.571 88.8213L111.21 87.0536C110.102 87.9065 109.015 88.7794 107.945 89.6624L109.364 91.3835L110.783 93.1046C111.825 92.2459 112.872 91.4052 113.932 90.5891L112.571 88.8213ZM103.115 96.7076L101.658 95.0181C100.623 95.9105 99.5925 96.7954 98.5563 97.6684L99.9938 99.3745L101.431 101.081C102.488 100.191 103.533 99.2921 104.571 98.3971L103.115 96.7076ZM99.9938 99.3745L98.3495 97.8667L95.843 100.6L97.4873 102.108L99.1316 103.616L101.638 100.882L99.9938 99.3745ZM92.4742 107.575L90.83 106.067L88.3234 108.801L89.9677 110.309L91.612 111.816L94.1185 109.083L92.4742 107.575ZM89.9677 110.309L88.035 109.194C87.9226 109.389 87.8211 109.58 87.7339 109.746L89.7094 110.783L91.6848 111.82C91.7655 111.666 91.8338 111.538 91.9004 111.423L89.9677 110.309ZM89.1879 111.729L87.2974 110.544C87.2373 110.64 87.1866 110.711 87.1431 110.765L88.8761 112.169L90.6091 113.574C90.7916 113.349 90.9462 113.124 91.0783 112.913L89.1879 111.729ZM88.8761 112.169L87.1356 110.774C86.3715 111.727 85.6217 112.687 84.8859 113.654L86.6616 115.005L88.4373 116.356C89.1499 115.419 89.8764 114.488 90.6166 113.565L88.8761 112.169ZM82.4554 120.842L80.6122 119.586C79.235 121.605 77.9152 123.654 76.6524 125.732L78.5587 126.891L80.4651 128.049C81.6876 126.038 82.9652 124.055 84.2986 122.099L82.4554 120.842ZM74.984 133.135L73.0196 132.077C71.8641 134.224 70.7654 136.399 69.7231 138.603L71.7397 139.557L73.7564 140.511C74.7659 138.376 75.8297 136.27 76.9483 134.192L74.984 133.135ZM68.8309 146.137L66.7681 145.288C65.8426 147.535 64.972 149.809 64.1557 152.111L66.2583 152.857L68.3609 153.602C69.1526 151.37 69.9967 149.165 70.8937 146.987L68.8309 146.137ZM64.0191 159.694L61.8829 159.051C61.5329 160.214 61.1959 161.383 60.8719 162.559L63.0227 163.151L65.1734 163.744C65.4881 162.602 65.8154 161.466 66.1553 160.337L64.0191 159.694ZM63.0227 163.151L60.8731 162.554C60.8201 162.745 60.7323 162.97 60.6052 163.217L62.5878 164.24L64.5703 165.263C64.8162 164.786 65.0257 164.276 65.1722 163.748L63.0227 163.151ZM61.1994 166.122L59.636 164.53C59.4377 164.725 59.2478 164.877 59.0803 164.984L60.2886 166.86L61.497 168.735C61.9558 168.439 62.3804 168.089 62.7627 167.713L61.1994 166.122ZM60.2886 166.86L59.0759 164.987C58.1121 165.612 57.1477 166.235 56.1828 166.858L57.3924 168.732L58.602 170.607C59.569 169.983 60.5354 169.358 61.5014 168.732L60.2886 166.86ZM51.5912 172.463L50.3871 170.585C48.4532 171.825 46.5175 173.062 44.5804 174.298L45.78 176.179L46.9796 178.06C48.9194 176.823 50.8581 175.583 52.7953 174.341L51.5912 172.463ZM39.961 179.882L38.7648 177.999C36.8251 179.231 34.8842 180.462 32.9425 181.692L34.1364 183.577L35.3302 185.461C37.2731 184.231 39.2156 182.999 41.1572 181.765L39.961 179.882ZM28.3081 187.266L27.1156 185.38C26.1442 185.995 25.1726 186.609 24.201 187.223L25.3933 189.109L26.5856 190.995C27.5572 190.38 28.529 189.766 29.5007 189.151L28.3081 187.266ZM25.3933 189.109L24.2032 187.222C22.8266 188.09 21.4471 188.954 20.0652 189.816L21.2459 191.709L22.4264 193.602C23.8132 192.737 25.1992 191.869 26.5834 190.996L25.3933 189.109ZM12.926 196.869L11.752 194.972C10.3644 195.831 8.97585 196.691 7.58805 197.552L8.76483 199.448L9.94164 201.343C11.3264 200.483 12.7125 199.625 14.0999 198.767L12.926 196.869ZM8.76483 199.448L7.58544 197.554C7.48594 197.616 7.38562 197.678 7.28423 197.741L8.45678 199.639L9.6293 201.537C9.73364 201.472 9.83877 201.407 9.94425 201.341L8.76483 199.448ZM7.83969 200.019L6.66718 198.121C6.56284 198.186 6.4577 198.251 6.35223 198.317L7.53162 200.21L8.71104 202.104C8.81054 202.042 8.91085 201.98 9.01225 201.917L7.83969 200.019ZM7.53162 200.21L5.88735 198.703L5.14452 199.513L6.78879 201.02L8.43307 202.528L9.1759 201.718L7.53162 200.21ZM5.30313 202.641L3.65885 201.133L2.91602 201.943L4.5603 203.451L6.20458 204.958L6.94741 204.148L5.30313 202.641ZM4.5603 203.451L2.47347 202.662C2.13476 203.558 1.88213 204.464 1.72191 205.377L3.91926 205.763L6.11661 206.148C6.22544 205.527 6.40059 204.892 6.64714 204.239L4.5603 203.451ZM4.12126 210.525L1.96509 211.097C2.20361 211.995 2.5353 212.878 2.9552 213.744L4.96268 212.771L6.97018 211.798C6.66721 211.173 6.43836 210.558 6.27741 209.952L4.12126 210.525ZM4.96268 212.771L3.45495 214.415L4.26469 215.158L5.77242 213.514L7.28018 211.869L6.47043 211.127L4.96268 212.771ZM7.39191 214.999L5.88418 216.643L6.69393 217.385L8.20166 215.741L9.70941 214.097L8.89966 213.354L7.39191 214.999ZM8.20166 215.741L7.53234 217.869C7.68223 217.916 7.82465 217.956 7.93979 217.987L8.52193 215.833L9.10405 213.68C9.00417 213.653 8.93211 213.632 8.871 213.613L8.20166 215.741ZM9.16165 216.02L8.42041 218.124C8.4618 218.138 8.47565 218.146 8.47203 218.144L9.46894 216.148L10.4659 214.152C10.2651 214.052 10.073 213.975 9.9029 213.916L9.16165 216.02ZM9.46894 216.148L8.50634 218.161C8.5091 218.162 8.51665 218.166 8.53209 218.174L9.55528 216.191L10.5785 214.209C10.537 214.187 10.4871 214.162 10.4316 214.135L9.46894 216.148ZM9.72617 216.281L8.70272 218.263C8.74417 218.284 8.79396 218.31 8.84944 218.336L9.81247 216.324L10.7755 214.312C10.7727 214.31 10.7651 214.307 10.7496 214.298L9.72617 216.281ZM9.81247 216.324L8.78243 218.303C9.91496 218.892 11.0475 219.482 12.18 220.071L13.2099 218.092L14.24 216.113C13.1075 215.524 11.975 214.935 10.8425 214.345L9.81247 216.324ZM20.0049 221.629L18.9748 223.608C21.2396 224.787 23.5043 225.966 25.7688 227.146L26.7993 225.167L27.8298 223.188C25.565 222.009 23.3 220.829 21.035 219.65L20.0049 221.629ZM33.5928 228.707L32.5616 230.685C34.8256 231.865 37.0893 233.046 39.3527 234.227L40.3848 232.249L41.417 230.271C39.1529 229.09 36.8885 227.909 34.624 226.728L33.5928 228.707ZM47.1749 235.795L46.1416 237.772C48.404 238.955 50.6661 240.138 52.9277 241.322L53.9625 239.346L54.9974 237.37C52.7348 236.185 50.4717 235.001 48.2083 233.818L47.1749 235.795ZM60.7472 242.902L59.7105 244.878C60.8407 245.471 61.9707 246.064 63.1006 246.658L64.1383 244.683L65.1759 242.708C64.0454 242.114 62.9147 241.52 61.7839 240.927L60.7472 242.902ZM64.1383 244.683L63.0979 246.657C63.2008 246.711 63.3299 246.795 63.474 246.914L64.894 245.194L66.3141 243.473C65.9699 243.189 65.5887 242.926 65.1786 242.71L64.1383 244.683ZM66.0947 246.561L64.2041 247.745C64.3024 247.902 64.3678 248.039 64.4068 248.145L66.5013 247.377L68.5958 246.609C68.4349 246.171 68.2229 245.756 67.9853 245.377L66.0947 246.561ZM66.5013 247.377L64.4066 248.145C64.8432 249.337 65.2936 250.521 65.7579 251.698L67.8331 250.879L69.9083 250.06C69.4576 248.918 69.0202 247.768 68.5961 246.61L66.5013 247.377ZM70.7574 257.776L68.7263 258.699C69.7773 261.012 70.8861 263.293 72.0539 265.542L74.0337 264.513L76.0135 263.485C74.8822 261.307 73.8075 259.096 72.7884 256.853L70.7574 257.776ZM77.6633 271.067L75.7416 272.2C77.0291 274.384 78.3769 276.534 79.786 278.65L81.643 277.414L83.4999 276.178C82.1362 274.129 80.8316 272.048 79.585 269.934L77.6633 271.067ZM85.9646 283.533L84.1784 284.87C84.9374 285.884 85.7116 286.89 86.5013 287.887L88.2501 286.502L89.9989 285.116C89.2346 284.151 88.4853 283.178 87.7507 282.197L85.9646 283.533ZM88.2501 286.502L89.7579 284.857L89.757 284.856L88.2492 286.501L86.7415 288.145L86.7424 288.146L88.2501 286.502ZM88.2474 286.499L89.7552 284.855L89.7543 284.854L88.2465 286.498L86.7388 288.143L86.7397 288.143L88.2474 286.499ZM88.2465 286.498L86.4971 287.883C87.2717 288.861 88.0578 289.828 88.8495 290.785L90.5683 289.362L92.287 287.94C91.5109 287.002 90.746 286.062 89.996 285.114L88.2465 286.498ZM95.3264 294.996L93.6269 296.441C94.4219 297.376 95.2118 298.308 95.9939 299.243L97.7054 297.812L99.417 296.381C98.6228 295.431 97.8234 294.488 97.0258 293.55L95.3264 294.996ZM97.7054 297.812L96.1977 299.457L99.1338 302.149L100.642 300.505L102.149 298.86L99.2132 296.168L97.7054 297.812ZM106.514 305.889L105.006 307.534L107.942 310.226L109.45 308.582L110.958 306.937L108.022 304.245L106.514 305.889ZM109.45 308.582L108.275 310.478C108.467 310.597 108.657 310.715 108.847 310.833L110.025 308.938L111.202 307.043C111.009 306.923 110.817 306.804 110.625 306.685L109.45 308.582ZM111.171 309.657L109.975 311.54C110.16 311.657 110.344 311.775 110.527 311.894L111.74 310.022L112.953 308.149C112.757 308.022 112.561 307.897 112.367 307.773L111.171 309.657ZM111.74 310.022L110.525 311.892C111.416 312.472 112.304 313.065 113.192 313.669L114.447 311.825L115.702 309.98C114.795 309.363 113.879 308.751 112.955 308.151L111.74 310.022ZM119.792 315.533L118.516 317.363C120.301 318.607 122.11 319.857 123.949 321.06L125.17 319.192L126.391 317.325C124.61 316.161 122.846 314.943 121.068 313.703L119.792 315.533ZM130.726 322.573L129.644 324.524C130.623 325.067 131.618 325.589 132.63 326.084L133.609 324.079L134.588 322.074C133.653 321.618 132.727 321.132 131.809 320.623L130.726 322.573ZM133.609 324.079L132.63 326.084C133.846 326.677 135.061 327.256 136.275 327.818L137.212 325.794L138.15 323.77C136.964 323.22 135.777 322.655 134.588 322.075L133.609 324.079ZM144.506 328.987L143.656 331.05C146.169 332.086 148.678 333.054 151.182 333.954L151.937 331.854L152.691 329.755C150.252 328.878 147.808 327.935 145.357 326.925L144.506 328.987ZM159.494 334.365L158.843 336.499C161.442 337.291 164.037 338.01 166.626 338.655L167.165 336.491L167.705 334.326C165.191 333.7 162.672 333.002 160.145 332.231L159.494 334.365ZM174.945 338.206L174.525 340.397C177.192 340.908 179.853 341.34 182.509 341.692L182.802 339.481L183.096 337.269C180.526 336.928 177.949 336.51 175.365 336.015L174.945 338.206ZM190.724 340.296L190.563 342.521C193.266 342.717 195.964 342.831 198.655 342.861L198.681 340.631L198.706 338.4C196.106 338.37 193.5 338.26 190.886 338.071L190.724 340.296ZM206.641 340.474L206.754 342.702C209.453 342.565 212.145 342.343 214.83 342.038L214.577 339.821L214.325 337.604C211.733 337.9 209.133 338.114 206.528 338.246L206.641 340.474ZM222.456 338.674L222.846 340.871C225.496 340.401 228.139 339.848 230.774 339.213L230.251 337.044L229.728 334.875C227.18 335.49 224.626 336.024 222.067 336.478L222.456 338.674ZM237.933 334.946L238.584 337.08C241.147 336.298 243.702 335.437 246.249 334.498L245.477 332.405L244.705 330.312C242.236 331.222 239.762 332.056 237.282 332.812L237.933 334.946ZM252.872 329.443L253.758 331.491C256.207 330.432 258.649 329.299 261.084 328.093L260.094 326.094L259.104 324.095C256.737 325.268 254.365 326.368 251.987 327.395L252.872 329.443ZM267.141 322.385L268.228 324.333C270.552 323.037 272.869 321.673 275.18 320.242L274.005 318.346L272.83 316.449C270.576 317.845 268.318 319.174 266.054 320.436L267.141 322.385ZM280.681 314.007L281.936 315.851C283.043 315.099 284.147 314.331 285.25 313.547L283.958 311.728L282.665 309.91C281.587 310.676 280.507 311.427 279.426 312.162L280.681 314.007ZM283.958 311.728L285.251 313.546C286.328 312.779 287.375 311.983 288.399 311.172L287.014 309.423L285.629 307.674C284.651 308.449 283.666 309.198 282.664 309.911L283.958 311.728ZM292.901 304.525L294.343 306.227C295.315 305.403 296.279 304.591 297.251 303.797L295.839 302.07L294.427 300.343C293.424 301.162 292.435 301.995 291.458 302.823L292.901 304.525Z" fill="#DA4436"/>
<g filter="url(#filter0_d_6111_28486)">
<path d="M284.961 290.584C281.456 293.449 278.1 296.534 274.412 299.159C232.11 329.223 187.507 332.878 140.925 310.126C134.057 306.773 127.964 301.837 121.509 297.644C120.832 297.206 120.155 296.788 119.475 296.366L109.047 286.805C106.247 283.455 103.355 280.177 100.65 276.759L100.653 276.763C92.3206 266.242 85.958 254.622 81.3431 242.026C80.9976 241.084 80.1308 240.1 79.2454 239.633C63.1887 231.197 47.1006 222.829 31.0126 214.455C30.9086 214.405 30.8105 214.349 30.7066 214.299C30.3633 214.128 29.96 214.057 29.5816 213.938L26.7061 211.301C25.3928 208.592 25.2866 205.836 26.3489 203.025L28.987 200.148C29.3508 199.922 29.7183 199.698 30.0822 199.471C35.0045 196.415 39.9418 193.385 44.8456 190.292C55.1982 183.746 65.5471 177.197 75.8271 170.538C76.9078 169.842 77.9103 168.487 78.255 167.246C82.8424 150.599 90.3936 135.471 101.209 121.981C101.606 121.491 101.858 120.883 102.178 120.329L111.079 110.622C114.797 107.489 118.399 104.213 122.246 101.251C147.65 81.6798 176.435 72.8822 208.379 75.2612C239.25 77.5621 265.703 89.9999 287.62 111.81C327.845 151.861 335.42 215.961 305.745 264.301C302.864 268.988 299.59 273.439 296.5 278L284.961 290.584Z" fill="white"/>
</g>
<path d="M187.885 153.263V146.4C187.885 146.116 188.338 144.866 188.481 144.525C190.635 139.315 196.303 139.321 201.168 139.665C202.024 139.725 202.878 139.95 203.704 140.158V133.174C203.704 130.818 206.603 127.856 208.705 127.051C210.577 126.336 215.608 126.387 217.734 126.555C221.224 126.832 224.282 129.984 224.71 133.423V153.328C224.182 156.193 220.2 156.263 219.533 153.439L219.528 134.529C219.449 133.111 218.509 131.979 217.082 131.783C215.844 131.613 212.823 131.626 211.555 131.754C210.596 131.848 209.661 132.363 209.217 133.247C209.157 133.369 208.897 134.098 208.897 134.163V173.848L209.082 174.033H219.338L219.522 173.848V160.126C219.522 160.072 219.842 159.389 219.913 159.28C221.162 157.361 224.188 157.944 224.683 160.156L224.713 177.063C224.597 178.15 223.529 179.185 222.432 179.231L174.015 179.196C173.058 178.955 172.178 178.066 172.07 177.063C172.397 171.52 171.636 165.481 172.067 159.996C172.63 152.819 180.178 152.447 185.732 152.886C186.466 152.943 187.149 153.26 187.891 153.26L187.885 153.263ZM193.076 147.392V173.848L193.26 174.033H203.517L203.701 173.848V147.392C203.701 146.384 202.585 145.238 201.607 145.037C200.502 144.809 196.964 144.885 195.726 144.977C194.347 145.08 193.25 145.991 193.073 147.392H193.076ZM177.258 160.497V173.848L177.442 174.033H187.699L187.883 173.848V160.619C187.883 159.426 186.639 158.307 185.477 158.204C184.315 158.101 180.295 158.036 179.224 158.264C178.276 158.464 177.388 159.554 177.255 160.497H177.258Z" fill="#DA4436"/>
<circle cx="113.269" cy="98.973" r="25.0511" fill="white" stroke="#DA4436" stroke-width="4.55475"/>
<g clip-path="url(#clip0_6111_28486)">
<path d="M104.181 89.2734L123.863 108.956L104.181 89.2734Z" fill="#DA4436"/>
<path d="M104.181 89.2734L123.863 108.956" stroke="#DA4436" stroke-width="6.83625" stroke-miterlimit="10" stroke-linecap="round"/>
<path d="M123.863 89.2734L104.181 108.956L123.863 89.2734Z" fill="#DA4436"/>
<path d="M123.863 89.2734L104.181 108.956" stroke="#DA4436" stroke-width="6.83625" stroke-miterlimit="10" stroke-linecap="round"/>
</g>
<path d="M128.103 231.348L129.798 216.478H131.816L135.609 228.886L139.341 216.478H141.379L143.114 231.348H141.157L139.704 218.96L140.047 219L136.537 231.348H134.66L131.089 219L131.453 218.98L130.06 231.348H128.103ZM145.87 218.738C145.628 218.738 145.507 218.624 145.507 218.395V216.7C145.507 216.458 145.628 216.337 145.87 216.337H147.363C147.471 216.337 147.551 216.371 147.605 216.438C147.659 216.505 147.686 216.593 147.686 216.7V218.395C147.686 218.624 147.578 218.738 147.363 218.738H145.87ZM145.588 231.348V220.554H147.605V231.348H145.588ZM154.207 231.469C153.925 231.469 153.588 231.462 153.198 231.449C152.808 231.435 152.405 231.408 151.988 231.368C151.584 231.341 151.208 231.307 150.858 231.267C150.522 231.227 150.253 231.18 150.051 231.126V229.915H154.59C154.981 229.915 155.317 229.888 155.599 229.835C155.882 229.767 156.097 229.633 156.245 229.431C156.406 229.229 156.487 228.933 156.487 228.543V228.099C156.487 227.696 156.352 227.38 156.083 227.151C155.814 226.923 155.371 226.808 154.752 226.808H153.178C152.546 226.808 151.981 226.727 151.483 226.566C150.999 226.391 150.616 226.102 150.333 225.699C150.064 225.295 149.93 224.75 149.93 224.064V223.479C149.93 222.793 150.058 222.228 150.313 221.785C150.582 221.341 151.006 221.011 151.584 220.796C152.163 220.567 152.929 220.453 153.884 220.453C154.288 220.453 154.732 220.473 155.216 220.513C155.714 220.54 156.198 220.581 156.669 220.635C157.139 220.688 157.516 220.749 157.798 220.816V222.027H153.521C152.929 222.027 152.472 222.128 152.149 222.329C151.84 222.531 151.685 222.914 151.685 223.479V223.883C151.685 224.232 151.759 224.501 151.907 224.69C152.055 224.878 152.264 224.999 152.533 225.053C152.815 225.107 153.145 225.134 153.521 225.134H155.135C156.157 225.134 156.931 225.376 157.455 225.86C157.98 226.331 158.242 226.997 158.242 227.857V228.685C158.242 229.411 158.074 229.976 157.738 230.379C157.402 230.783 156.931 231.065 156.326 231.227C155.734 231.388 155.028 231.469 154.207 231.469ZM164.315 231.469C164.032 231.469 163.696 231.462 163.306 231.449C162.916 231.435 162.512 231.408 162.095 231.368C161.692 231.341 161.315 231.307 160.965 231.267C160.629 231.227 160.36 231.18 160.158 231.126V229.915H164.698C165.088 229.915 165.424 229.888 165.707 229.835C165.989 229.767 166.204 229.633 166.352 229.431C166.514 229.229 166.594 228.933 166.594 228.543V228.099C166.594 227.696 166.46 227.38 166.191 227.151C165.922 226.923 165.478 226.808 164.859 226.808H163.286C162.653 226.808 162.089 226.727 161.591 226.566C161.107 226.391 160.723 226.102 160.441 225.699C160.172 225.295 160.037 224.75 160.037 224.064V223.479C160.037 222.793 160.165 222.228 160.421 221.785C160.69 221.341 161.113 221.011 161.692 220.796C162.27 220.567 163.037 220.453 163.992 220.453C164.395 220.453 164.839 220.473 165.323 220.513C165.821 220.54 166.305 220.581 166.776 220.635C167.247 220.688 167.623 220.749 167.906 220.816V222.027H163.629C163.037 222.027 162.579 222.128 162.257 222.329C161.947 222.531 161.793 222.914 161.793 223.479V223.883C161.793 224.232 161.867 224.501 162.015 224.69C162.163 224.878 162.371 224.999 162.64 225.053C162.922 225.107 163.252 225.134 163.629 225.134H165.243C166.265 225.134 167.038 225.376 167.563 225.86C168.087 226.331 168.35 226.997 168.35 227.857V228.685C168.35 229.411 168.181 229.976 167.845 230.379C167.509 230.783 167.038 231.065 166.433 231.227C165.841 231.388 165.135 231.469 164.315 231.469ZM170.932 218.738C170.689 218.738 170.568 218.624 170.568 218.395V216.7C170.568 216.458 170.689 216.337 170.932 216.337H172.425C172.532 216.337 172.613 216.371 172.667 216.438C172.72 216.505 172.747 216.593 172.747 216.7V218.395C172.747 218.624 172.64 218.738 172.425 218.738H170.932ZM170.649 231.348V220.554H172.667V231.348H170.649ZM175.496 231.348V220.554H177.11L177.513 221.724C177.998 221.374 178.569 221.065 179.228 220.796C179.901 220.513 180.594 220.372 181.306 220.372C182.113 220.372 182.759 220.547 183.243 220.897C183.741 221.233 184.097 221.684 184.313 222.249C184.528 222.813 184.635 223.425 184.635 224.085V231.348H182.618V224.327C182.618 223.896 182.53 223.526 182.356 223.217C182.194 222.894 181.966 222.645 181.67 222.47C181.374 222.296 181.011 222.208 180.58 222.208C180.177 222.208 179.8 222.249 179.45 222.329C179.114 222.41 178.791 222.524 178.482 222.672C178.173 222.807 177.85 222.975 177.513 223.177V231.348H175.496ZM190.08 236.311C189.394 236.311 188.782 236.21 188.244 236.008C187.719 235.82 187.302 235.524 186.993 235.12C186.683 234.73 186.529 234.246 186.529 233.668V233.224C186.529 232.619 186.697 232.108 187.033 231.691C187.383 231.287 187.82 230.978 188.344 230.763C188.869 230.547 189.414 230.44 189.979 230.44L190.523 231.186C190.16 231.186 189.817 231.24 189.494 231.348C189.185 231.469 188.93 231.65 188.728 231.892C188.54 232.148 188.445 232.471 188.445 232.861V233.244C188.445 233.809 188.634 234.219 189.01 234.475C189.4 234.73 189.932 234.858 190.604 234.858H192.965C193.678 234.858 194.242 234.717 194.659 234.434C195.076 234.165 195.285 233.742 195.285 233.163V232.78C195.285 232.457 195.211 232.175 195.063 231.933C194.928 231.691 194.706 231.502 194.397 231.368C194.088 231.247 193.664 231.186 193.126 231.186H190.14C189.185 231.186 188.459 230.991 187.961 230.601C187.464 230.211 187.215 229.72 187.215 229.128C187.215 228.59 187.369 228.16 187.679 227.837C188.002 227.501 188.452 227.272 189.03 227.151C188.546 226.936 188.163 226.66 187.88 226.324C187.611 225.988 187.423 225.625 187.316 225.235C187.208 224.831 187.154 224.428 187.154 224.024C187.154 223.204 187.322 222.538 187.659 222.027C187.995 221.516 188.479 221.139 189.111 220.897C189.757 220.655 190.523 220.534 191.411 220.534H197.222V221.684L195.023 221.906C195.184 222.027 195.359 222.188 195.547 222.39C195.735 222.578 195.897 222.84 196.031 223.177C196.166 223.513 196.233 223.957 196.233 224.508C196.233 225.087 196.105 225.625 195.85 226.122C195.608 226.62 195.204 227.023 194.639 227.333C194.088 227.642 193.335 227.797 192.38 227.797H190.604C190.093 227.797 189.69 227.871 189.394 228.019C189.098 228.167 188.95 228.429 188.95 228.806C188.95 229.115 189.064 229.33 189.293 229.451C189.521 229.572 189.763 229.633 190.019 229.633H193.429C194.249 229.633 194.935 229.74 195.487 229.956C196.051 230.171 196.475 230.5 196.758 230.944C197.04 231.388 197.181 231.966 197.181 232.679V233.063C197.181 234.085 196.845 234.878 196.173 235.443C195.513 236.022 194.511 236.311 193.166 236.311H190.08ZM190.967 226.243H192.158C192.763 226.243 193.22 226.156 193.53 225.981C193.852 225.793 194.074 225.551 194.195 225.255C194.316 224.959 194.377 224.629 194.377 224.266C194.377 223.728 194.29 223.304 194.115 222.995C193.94 222.672 193.698 222.444 193.388 222.309C193.092 222.161 192.729 222.087 192.299 222.087H191.169C190.483 222.087 189.945 222.242 189.555 222.551C189.178 222.861 188.99 223.392 188.99 224.145C188.99 224.885 189.165 225.423 189.515 225.759C189.864 226.082 190.349 226.243 190.967 226.243ZM207.103 236.311C206.417 236.311 205.805 236.21 205.267 236.008C204.742 235.82 204.325 235.524 204.016 235.12C203.706 234.73 203.552 234.246 203.552 233.668V233.224C203.552 232.619 203.72 232.108 204.056 231.691C204.406 231.287 204.843 230.978 205.367 230.763C205.892 230.547 206.437 230.44 207.002 230.44L207.546 231.186C207.183 231.186 206.84 231.24 206.517 231.348C206.208 231.469 205.953 231.65 205.751 231.892C205.562 232.148 205.468 232.471 205.468 232.861V233.244C205.468 233.809 205.657 234.219 206.033 234.475C206.423 234.73 206.955 234.858 207.627 234.858H209.988C210.7 234.858 211.265 234.717 211.682 234.434C212.099 234.165 212.308 233.742 212.308 233.163V232.78C212.308 232.457 212.234 232.175 212.086 231.933C211.951 231.691 211.729 231.502 211.42 231.368C211.111 231.247 210.687 231.186 210.149 231.186H207.163C206.208 231.186 205.482 230.991 204.984 230.601C204.486 230.211 204.238 229.72 204.238 229.128C204.238 228.59 204.392 228.16 204.702 227.837C205.024 227.501 205.475 227.272 206.053 227.151C205.569 226.936 205.186 226.66 204.903 226.324C204.634 225.988 204.446 225.625 204.339 225.235C204.231 224.831 204.177 224.428 204.177 224.024C204.177 223.204 204.345 222.538 204.681 222.027C205.018 221.516 205.502 221.139 206.134 220.897C206.78 220.655 207.546 220.534 208.434 220.534H214.245V221.684L212.046 221.906C212.207 222.027 212.382 222.188 212.57 222.39C212.758 222.578 212.92 222.84 213.054 223.177C213.189 223.513 213.256 223.957 213.256 224.508C213.256 225.087 213.128 225.625 212.873 226.122C212.631 226.62 212.227 227.023 211.662 227.333C211.111 227.642 210.357 227.797 209.403 227.797H207.627C207.116 227.797 206.712 227.871 206.417 228.019C206.121 228.167 205.973 228.429 205.973 228.806C205.973 229.115 206.087 229.33 206.316 229.451C206.544 229.572 206.786 229.633 207.042 229.633H210.452C211.272 229.633 211.958 229.74 212.51 229.956C213.074 230.171 213.498 230.5 213.781 230.944C214.063 231.388 214.204 231.966 214.204 232.679V233.063C214.204 234.085 213.868 234.878 213.195 235.443C212.536 236.022 211.534 236.311 210.189 236.311H207.103ZM207.99 226.243H209.181C209.786 226.243 210.243 226.156 210.553 225.981C210.875 225.793 211.097 225.551 211.218 225.255C211.339 224.959 211.4 224.629 211.4 224.266C211.4 223.728 211.312 223.304 211.138 222.995C210.963 222.672 210.721 222.444 210.411 222.309C210.115 222.161 209.752 222.087 209.322 222.087H208.192C207.506 222.087 206.968 222.242 206.578 222.551C206.201 222.861 206.013 223.392 206.013 224.145C206.013 224.885 206.188 225.423 206.538 225.759C206.887 226.082 207.372 226.243 207.99 226.243ZM220.34 231.469C219.197 231.469 218.282 231.301 217.596 230.964C216.924 230.628 216.44 230.063 216.144 229.27C215.861 228.463 215.72 227.353 215.72 225.941C215.72 224.501 215.861 223.385 216.144 222.592C216.44 221.785 216.924 221.22 217.596 220.897C218.269 220.574 219.177 220.413 220.32 220.413C221.315 220.413 222.116 220.52 222.721 220.735C223.34 220.937 223.79 221.307 224.073 221.845C224.368 222.37 224.516 223.103 224.516 224.044C224.516 224.703 224.382 225.228 224.113 225.618C223.857 226.008 223.487 226.29 223.003 226.465C222.532 226.64 221.968 226.727 221.309 226.727H217.737C217.751 227.508 217.838 228.133 218 228.604C218.175 229.061 218.477 229.397 218.908 229.613C219.352 229.814 219.997 229.915 220.844 229.915H224.214V231.126C223.635 231.206 223.044 231.28 222.438 231.348C221.833 231.428 221.134 231.469 220.34 231.469ZM217.717 225.456H221.127C221.665 225.456 222.062 225.356 222.317 225.154C222.573 224.952 222.701 224.582 222.701 224.044C222.701 223.506 222.62 223.082 222.459 222.773C222.311 222.464 222.062 222.242 221.712 222.107C221.362 221.973 220.898 221.906 220.32 221.906C219.661 221.906 219.136 222.006 218.746 222.208C218.37 222.41 218.101 222.766 217.939 223.278C217.791 223.789 217.717 224.515 217.717 225.456ZM226.979 231.348V220.554H228.593L228.996 221.724C229.48 221.374 230.052 221.065 230.711 220.796C231.384 220.513 232.076 220.372 232.789 220.372C233.596 220.372 234.242 220.547 234.726 220.897C235.224 221.233 235.58 221.684 235.795 222.249C236.01 222.813 236.118 223.425 236.118 224.085V231.348H234.1V224.327C234.1 223.896 234.013 223.526 233.838 223.217C233.677 222.894 233.448 222.645 233.152 222.47C232.856 222.296 232.493 222.208 232.063 222.208C231.659 222.208 231.283 222.249 230.933 222.329C230.597 222.41 230.274 222.524 229.965 222.672C229.655 222.807 229.332 222.975 228.996 223.177V231.348H226.979ZM242.046 231.469C241.038 231.469 240.251 231.2 239.686 230.662C239.134 230.11 238.859 229.276 238.859 228.16V220.554H240.876V227.615C240.876 228.422 241.058 228.967 241.421 229.249C241.798 229.532 242.322 229.673 242.995 229.673C243.533 229.673 244.044 229.592 244.528 229.431C245.026 229.256 245.51 229.021 245.981 228.725V220.554H247.998V231.348H246.384L245.981 230.198C245.456 230.534 244.851 230.83 244.165 231.085C243.492 231.341 242.786 231.469 242.046 231.469ZM251.062 218.738C250.82 218.738 250.698 218.624 250.698 218.395V216.7C250.698 216.458 250.82 216.337 251.062 216.337H252.555C252.662 216.337 252.743 216.371 252.797 216.438C252.851 216.505 252.877 216.593 252.877 216.7V218.395C252.877 218.624 252.77 218.738 252.555 218.738H251.062ZM250.779 231.348V220.554H252.797V231.348H250.779ZM255.626 231.348V220.554H257.24L257.644 221.724C258.128 221.374 258.699 221.065 259.358 220.796C260.031 220.513 260.724 220.372 261.437 220.372C262.244 220.372 262.889 220.547 263.373 220.897C263.871 221.233 264.227 221.684 264.443 222.249C264.658 222.813 264.765 223.425 264.765 224.085V231.348H262.748V224.327C262.748 223.896 262.66 223.526 262.486 223.217C262.324 222.894 262.096 222.645 261.8 222.47C261.504 222.296 261.141 222.208 260.71 222.208C260.307 222.208 259.93 222.249 259.58 222.329C259.244 222.41 258.921 222.524 258.612 222.672C258.303 222.807 257.98 222.975 257.644 223.177V231.348H255.626ZM271.783 231.469C270.64 231.469 269.725 231.301 269.039 230.964C268.367 230.628 267.883 230.063 267.587 229.27C267.304 228.463 267.163 227.353 267.163 225.941C267.163 224.501 267.304 223.385 267.587 222.592C267.883 221.785 268.367 221.22 269.039 220.897C269.712 220.574 270.62 220.413 271.763 220.413C272.758 220.413 273.559 220.52 274.164 220.735C274.783 220.937 275.233 221.307 275.516 221.845C275.812 222.37 275.96 223.103 275.96 224.044C275.96 224.703 275.825 225.228 275.556 225.618C275.301 226.008 274.931 226.29 274.446 226.465C273.976 226.64 273.411 226.727 272.752 226.727H269.181C269.194 227.508 269.282 228.133 269.443 228.604C269.618 229.061 269.92 229.397 270.351 229.613C270.795 229.814 271.44 229.915 272.288 229.915H275.657V231.126C275.079 231.206 274.487 231.28 273.882 231.348C273.276 231.428 272.577 231.469 271.783 231.469ZM269.161 225.456H272.57C273.108 225.456 273.505 225.356 273.761 225.154C274.016 224.952 274.144 224.582 274.144 224.044C274.144 223.506 274.063 223.082 273.902 222.773C273.754 222.464 273.505 222.242 273.155 222.107C272.806 221.973 272.342 221.906 271.763 221.906C271.104 221.906 270.58 222.006 270.189 222.208C269.813 222.41 269.544 222.766 269.382 223.278C269.234 223.789 269.161 224.515 269.161 225.456ZM123.615 257.469C122.983 257.469 122.398 257.388 121.86 257.227C121.335 257.052 120.871 256.763 120.467 256.359C120.077 255.956 119.775 255.397 119.56 254.685C119.344 253.972 119.237 253.07 119.237 251.981C119.237 250.865 119.338 249.95 119.539 249.237C119.741 248.511 120.03 247.946 120.407 247.542C120.797 247.125 121.268 246.836 121.819 246.675C122.371 246.513 122.989 246.433 123.675 246.433C124.24 246.433 124.832 246.46 125.451 246.513C126.083 246.567 126.695 246.655 127.287 246.776V247.966H124.24C123.581 247.966 123.03 248.074 122.586 248.289C122.142 248.491 121.813 248.887 121.597 249.479C121.382 250.058 121.275 250.898 121.275 252.001C121.275 253.064 121.389 253.884 121.617 254.463C121.846 255.027 122.176 255.411 122.606 255.613C123.05 255.814 123.601 255.915 124.26 255.915H127.448V257.065C127.139 257.146 126.769 257.22 126.339 257.287C125.922 257.341 125.478 257.381 125.007 257.408C124.55 257.449 124.086 257.469 123.615 257.469ZM132.658 257.469C131.649 257.469 130.863 257.2 130.298 256.662C129.746 256.11 129.47 255.276 129.47 254.16V246.554H131.488V253.615C131.488 254.422 131.67 254.967 132.033 255.249C132.409 255.532 132.934 255.673 133.606 255.673C134.144 255.673 134.656 255.592 135.14 255.431C135.637 255.256 136.122 255.021 136.592 254.725V246.554H138.61V257.348H136.996L136.592 256.198C136.068 256.534 135.463 256.83 134.777 257.085C134.104 257.341 133.398 257.469 132.658 257.469ZM145.164 257.469C144.881 257.469 144.545 257.462 144.155 257.449C143.765 257.435 143.361 257.408 142.944 257.368C142.541 257.341 142.164 257.307 141.815 257.267C141.478 257.227 141.209 257.18 141.008 257.126V255.915H145.547C145.937 255.915 146.273 255.888 146.556 255.835C146.838 255.767 147.053 255.633 147.201 255.431C147.363 255.229 147.444 254.933 147.444 254.543V254.099C147.444 253.696 147.309 253.38 147.04 253.151C146.771 252.923 146.327 252.808 145.708 252.808H144.135C143.503 252.808 142.938 252.727 142.44 252.566C141.956 252.391 141.573 252.102 141.29 251.699C141.021 251.295 140.887 250.75 140.887 250.064V249.479C140.887 248.793 141.014 248.228 141.27 247.785C141.539 247.341 141.963 247.011 142.541 246.796C143.119 246.567 143.886 246.453 144.841 246.453C145.244 246.453 145.688 246.473 146.172 246.513C146.67 246.54 147.154 246.581 147.625 246.635C148.096 246.688 148.472 246.749 148.755 246.816V248.027H144.478C143.886 248.027 143.429 248.128 143.106 248.329C142.796 248.531 142.642 248.914 142.642 249.479V249.883C142.642 250.232 142.716 250.501 142.864 250.69C143.012 250.878 143.22 250.999 143.489 251.053C143.772 251.107 144.101 251.134 144.478 251.134H146.092C147.114 251.134 147.887 251.376 148.412 251.86C148.937 252.331 149.199 252.997 149.199 253.857V254.685C149.199 255.411 149.031 255.976 148.694 256.379C148.358 256.783 147.887 257.065 147.282 257.227C146.69 257.388 145.984 257.469 145.164 257.469ZM155.231 257.348C154.504 257.348 153.899 257.233 153.415 257.005C152.944 256.763 152.594 256.379 152.366 255.855C152.151 255.33 152.05 254.631 152.063 253.756L152.144 248.208H150.429V246.897L152.184 246.554L152.487 243.528H154.081V246.554H157.006V248.208H154.081V253.736C154.081 254.153 154.121 254.489 154.202 254.745C154.283 255.001 154.397 255.196 154.545 255.33C154.693 255.465 154.854 255.565 155.029 255.633C155.204 255.687 155.372 255.72 155.533 255.734L156.865 255.855V257.348H155.231ZM163.443 257.469C162.622 257.469 161.909 257.381 161.304 257.206C160.712 257.032 160.221 256.742 159.831 256.339C159.441 255.922 159.152 255.357 158.964 254.644C158.775 253.931 158.681 253.03 158.681 251.941C158.681 250.811 158.775 249.889 158.964 249.177C159.152 248.45 159.441 247.885 159.831 247.482C160.221 247.078 160.719 246.803 161.324 246.655C161.929 246.493 162.636 246.413 163.443 246.413C164.25 246.413 164.956 246.493 165.561 246.655C166.166 246.816 166.664 247.099 167.054 247.502C167.444 247.906 167.733 248.47 167.922 249.197C168.11 249.91 168.204 250.824 168.204 251.941C168.204 253.044 168.11 253.958 167.922 254.685C167.733 255.397 167.444 255.956 167.054 256.359C166.677 256.763 166.186 257.052 165.581 257.227C164.976 257.388 164.263 257.469 163.443 257.469ZM163.443 255.814C163.886 255.814 164.277 255.774 164.613 255.693C164.962 255.613 165.252 255.444 165.48 255.189C165.709 254.92 165.884 254.523 166.005 253.999C166.126 253.474 166.186 252.781 166.186 251.92C166.186 251.06 166.126 250.374 166.005 249.863C165.884 249.338 165.709 248.948 165.48 248.692C165.252 248.437 164.962 248.269 164.613 248.188C164.277 248.094 163.886 248.047 163.443 248.047C162.985 248.047 162.582 248.094 162.232 248.188C161.896 248.269 161.613 248.437 161.385 248.692C161.17 248.948 161.001 249.338 160.88 249.863C160.773 250.374 160.719 251.06 160.719 251.92C160.719 252.781 160.773 253.474 160.88 253.999C161.001 254.523 161.17 254.92 161.385 255.189C161.613 255.444 161.896 255.613 162.232 255.693C162.582 255.774 162.985 255.814 163.443 255.814ZM170.669 257.348V246.554H172.283L172.686 247.724C173.211 247.361 173.789 247.045 174.421 246.776C175.054 246.507 175.78 246.372 176.6 246.372C177.273 246.372 177.845 246.52 178.315 246.816C178.786 247.112 179.142 247.489 179.385 247.946C179.707 247.704 180.097 247.462 180.555 247.22C181.012 246.978 181.503 246.776 182.028 246.614C182.552 246.453 183.057 246.372 183.541 246.372C184.348 246.372 185 246.54 185.498 246.877C186.009 247.199 186.372 247.65 186.587 248.228C186.816 248.793 186.93 249.439 186.93 250.165V257.348H184.913V250.327C184.913 249.896 184.825 249.526 184.65 249.217C184.489 248.894 184.254 248.645 183.944 248.47C183.648 248.296 183.285 248.208 182.855 248.208C182.317 248.208 181.765 248.316 181.2 248.531C180.635 248.733 180.118 248.982 179.647 249.278C179.701 249.452 179.741 249.634 179.768 249.822C179.795 249.997 179.808 250.172 179.808 250.347V257.348H177.791V250.327C177.791 249.896 177.703 249.526 177.528 249.217C177.367 248.894 177.138 248.645 176.842 248.47C176.547 248.296 176.183 248.208 175.753 248.208C175.35 248.208 174.973 248.249 174.623 248.329C174.287 248.41 173.964 248.524 173.655 248.672C173.345 248.807 173.023 248.975 172.686 249.177V257.348H170.669ZM193.958 257.469C192.815 257.469 191.901 257.301 191.215 256.964C190.542 256.628 190.058 256.063 189.762 255.27C189.48 254.463 189.338 253.353 189.338 251.941C189.338 250.501 189.48 249.385 189.762 248.592C190.058 247.785 190.542 247.22 191.215 246.897C191.887 246.574 192.795 246.413 193.938 246.413C194.934 246.413 195.734 246.52 196.339 246.735C196.958 246.937 197.408 247.307 197.691 247.845C197.987 248.37 198.135 249.103 198.135 250.044C198.135 250.703 198 251.228 197.731 251.618C197.476 252.008 197.106 252.29 196.622 252.465C196.151 252.64 195.586 252.727 194.927 252.727H191.356C191.369 253.508 191.457 254.133 191.618 254.604C191.793 255.061 192.096 255.397 192.526 255.613C192.97 255.814 193.615 255.915 194.463 255.915H197.832V257.126C197.254 257.206 196.662 257.28 196.057 257.348C195.451 257.428 194.752 257.469 193.958 257.469ZM191.336 251.456H194.745C195.283 251.456 195.68 251.356 195.936 251.154C196.191 250.952 196.319 250.582 196.319 250.044C196.319 249.506 196.238 249.082 196.077 248.773C195.929 248.464 195.68 248.242 195.33 248.107C194.981 247.973 194.517 247.906 193.938 247.906C193.279 247.906 192.755 248.006 192.365 248.208C191.988 248.41 191.719 248.766 191.558 249.278C191.41 249.789 191.336 250.515 191.336 251.456ZM200.597 257.348V246.554H202.15L202.614 248.37C203.072 247.818 203.583 247.354 204.148 246.978C204.713 246.601 205.372 246.413 206.125 246.413C206.3 246.413 206.468 246.426 206.629 246.453C206.791 246.466 206.945 246.493 207.093 246.534V248.612C206.905 248.585 206.71 248.565 206.508 248.551C206.307 248.524 206.098 248.511 205.883 248.511C205.426 248.511 205.015 248.565 204.652 248.672C204.289 248.78 203.939 248.948 203.603 249.177C203.28 249.392 202.951 249.661 202.614 249.984V257.348H200.597ZM214.632 244.738C214.39 244.738 214.269 244.624 214.269 244.395V242.7C214.269 242.458 214.39 242.337 214.632 242.337H216.125C216.232 242.337 216.313 242.371 216.367 242.438C216.421 242.505 216.448 242.593 216.448 242.7V244.395C216.448 244.624 216.34 244.738 216.125 244.738H214.632ZM214.349 257.348V246.554H216.367V257.348H214.349ZM219.196 257.348V246.554H220.81L221.214 247.724C221.698 247.374 222.269 247.065 222.929 246.796C223.601 246.513 224.294 246.372 225.007 246.372C225.814 246.372 226.459 246.547 226.943 246.897C227.441 247.233 227.798 247.684 228.013 248.249C228.228 248.813 228.336 249.425 228.336 250.085V257.348H226.318V250.327C226.318 249.896 226.231 249.526 226.056 249.217C225.894 248.894 225.666 248.645 225.37 248.47C225.074 248.296 224.711 248.208 224.28 248.208C223.877 248.208 223.5 248.249 223.15 248.329C222.814 248.41 222.491 248.524 222.182 248.672C221.873 248.807 221.55 248.975 221.214 249.177V257.348H219.196ZM234.869 257.469C234.587 257.469 234.25 257.462 233.86 257.449C233.47 257.435 233.067 257.408 232.65 257.368C232.246 257.341 231.87 257.307 231.52 257.267C231.184 257.227 230.915 257.18 230.713 257.126V255.915H235.253C235.643 255.915 235.979 255.888 236.261 255.835C236.544 255.767 236.759 255.633 236.907 255.431C237.068 255.229 237.149 254.933 237.149 254.543V254.099C237.149 253.696 237.015 253.38 236.746 253.151C236.476 252.923 236.033 252.808 235.414 252.808H233.84C233.208 252.808 232.643 252.727 232.146 252.566C231.661 252.391 231.278 252.102 230.996 251.699C230.727 251.295 230.592 250.75 230.592 250.064V249.479C230.592 248.793 230.72 248.228 230.975 247.785C231.244 247.341 231.668 247.011 232.246 246.796C232.825 246.567 233.591 246.453 234.546 246.453C234.95 246.453 235.394 246.473 235.878 246.513C236.376 246.54 236.86 246.581 237.331 246.635C237.801 246.688 238.178 246.749 238.46 246.816V248.027H234.183C233.591 248.027 233.134 248.128 232.811 248.329C232.502 248.531 232.347 248.914 232.347 249.479V249.883C232.347 250.232 232.421 250.501 232.569 250.69C232.717 250.878 232.926 250.999 233.195 251.053C233.477 251.107 233.807 251.134 234.183 251.134H235.797C236.819 251.134 237.593 251.376 238.117 251.86C238.642 252.331 238.904 252.997 238.904 253.857V254.685C238.904 255.411 238.736 255.976 238.4 256.379C238.064 256.783 237.593 257.065 236.988 257.227C236.396 257.388 235.69 257.469 234.869 257.469ZM241.486 244.738C241.244 244.738 241.123 244.624 241.123 244.395V242.7C241.123 242.458 241.244 242.337 241.486 242.337H242.979C243.087 242.337 243.168 242.371 243.221 242.438C243.275 242.505 243.302 242.593 243.302 242.7V244.395C243.302 244.624 243.194 244.738 242.979 244.738H241.486ZM241.204 257.348V246.554H243.221V257.348H241.204ZM248.734 262.311C248.048 262.311 247.436 262.21 246.898 262.008C246.373 261.82 245.956 261.524 245.647 261.12C245.338 260.73 245.183 260.246 245.183 259.668V259.224C245.183 258.619 245.351 258.108 245.687 257.691C246.037 257.287 246.474 256.978 246.999 256.763C247.523 256.547 248.068 256.44 248.633 256.44L249.178 257.186C248.815 257.186 248.472 257.24 248.149 257.348C247.839 257.469 247.584 257.65 247.382 257.892C247.194 258.148 247.1 258.471 247.1 258.861V259.244C247.1 259.809 247.288 260.219 247.665 260.475C248.055 260.73 248.586 260.858 249.258 260.858H251.619C252.332 260.858 252.897 260.717 253.314 260.434C253.731 260.165 253.939 259.742 253.939 259.163V258.78C253.939 258.457 253.865 258.175 253.717 257.933C253.583 257.691 253.361 257.502 253.051 257.368C252.742 257.247 252.318 257.186 251.78 257.186H248.794C247.839 257.186 247.113 256.991 246.616 256.601C246.118 256.211 245.869 255.72 245.869 255.128C245.869 254.59 246.024 254.16 246.333 253.837C246.656 253.501 247.106 253.272 247.685 253.151C247.201 252.936 246.817 252.66 246.535 252.324C246.266 251.988 246.078 251.625 245.97 251.235C245.862 250.831 245.809 250.428 245.809 250.024C245.809 249.204 245.977 248.538 246.313 248.027C246.649 247.516 247.133 247.139 247.766 246.897C248.411 246.655 249.178 246.534 250.066 246.534H255.876V247.684L253.677 247.906C253.838 248.027 254.013 248.188 254.201 248.39C254.39 248.578 254.551 248.84 254.686 249.177C254.82 249.513 254.887 249.957 254.887 250.508C254.887 251.087 254.76 251.625 254.504 252.122C254.262 252.62 253.858 253.023 253.294 253.333C252.742 253.642 251.989 253.797 251.034 253.797H249.258C248.747 253.797 248.344 253.871 248.048 254.019C247.752 254.167 247.604 254.429 247.604 254.806C247.604 255.115 247.718 255.33 247.947 255.451C248.176 255.572 248.418 255.633 248.673 255.633H252.083C252.904 255.633 253.589 255.74 254.141 255.956C254.706 256.171 255.13 256.5 255.412 256.944C255.694 257.388 255.836 257.966 255.836 258.679V259.063C255.836 260.085 255.499 260.878 254.827 261.443C254.168 262.022 253.166 262.311 251.821 262.311H248.734ZM249.622 252.243H250.812C251.417 252.243 251.875 252.156 252.184 251.981C252.507 251.793 252.729 251.551 252.85 251.255C252.971 250.959 253.031 250.629 253.031 250.266C253.031 249.728 252.944 249.304 252.769 248.995C252.594 248.672 252.352 248.444 252.043 248.309C251.747 248.161 251.384 248.087 250.953 248.087H249.823C249.137 248.087 248.599 248.242 248.209 248.551C247.833 248.861 247.644 249.392 247.644 250.145C247.644 250.885 247.819 251.423 248.169 251.759C248.519 252.082 249.003 252.243 249.622 252.243ZM257.714 257.348V241.954H259.732V247.724C260.203 247.374 260.774 247.065 261.447 246.796C262.119 246.513 262.812 246.372 263.525 246.372C264.305 246.372 264.937 246.534 265.421 246.856C265.919 247.179 266.282 247.623 266.511 248.188C266.74 248.74 266.854 249.365 266.854 250.064V257.348H264.836V250.306C264.836 249.889 264.749 249.526 264.574 249.217C264.413 248.894 264.177 248.645 263.868 248.47C263.572 248.296 263.216 248.208 262.799 248.208C262.395 248.208 262.019 248.249 261.669 248.329C261.333 248.41 261.01 248.524 260.7 248.672C260.391 248.82 260.068 248.988 259.732 249.177V257.348H257.714ZM273.347 257.348C272.621 257.348 272.016 257.233 271.531 257.005C271.061 256.763 270.711 256.379 270.482 255.855C270.267 255.33 270.166 254.631 270.18 253.756L270.26 248.208H268.545V246.897L270.301 246.554L270.603 243.528H272.197V246.554H275.123V248.208H272.197V253.736C272.197 254.153 272.238 254.489 272.318 254.745C272.399 255.001 272.513 255.196 272.661 255.33C272.809 255.465 272.971 255.565 273.145 255.633C273.32 255.687 273.488 255.72 273.65 255.734L274.981 255.855V257.348H273.347ZM280.934 257.469C280.651 257.469 280.315 257.462 279.925 257.449C279.535 257.435 279.131 257.408 278.714 257.368C278.311 257.341 277.934 257.307 277.585 257.267C277.248 257.227 276.979 257.18 276.778 257.126V255.915H281.317C281.707 255.915 282.043 255.888 282.326 255.835C282.608 255.767 282.823 255.633 282.971 255.431C283.133 255.229 283.213 254.933 283.213 254.543V254.099C283.213 253.696 283.079 253.38 282.81 253.151C282.541 252.923 282.097 252.808 281.478 252.808H279.905C279.273 252.808 278.708 252.727 278.21 252.566C277.726 252.391 277.342 252.102 277.06 251.699C276.791 251.295 276.656 250.75 276.656 250.064V249.479C276.656 248.793 276.784 248.228 277.04 247.785C277.309 247.341 277.732 247.011 278.311 246.796C278.889 246.567 279.656 246.453 280.611 246.453C281.014 246.453 281.458 246.473 281.942 246.513C282.44 246.54 282.924 246.581 283.395 246.635C283.866 246.688 284.242 246.749 284.525 246.816V248.027H280.248C279.656 248.027 279.199 248.128 278.876 248.329C278.566 248.531 278.412 248.914 278.412 249.479V249.883C278.412 250.232 278.486 250.501 278.634 250.69C278.782 250.878 278.99 250.999 279.259 251.053C279.542 251.107 279.871 251.134 280.248 251.134H281.862C282.884 251.134 283.657 251.376 284.182 251.86C284.706 252.331 284.969 252.997 284.969 253.857V254.685C284.969 255.411 284.801 255.976 284.464 256.379C284.128 256.783 283.657 257.065 283.052 257.227C282.46 257.388 281.754 257.469 280.934 257.469Z" fill="#3D4651"/>
<defs>
<filter id="filter0_d_6111_28486" x="4.4344" y="53.6874" width="340.536" height="292.334" filterUnits="userSpaceOnUse" color-interpolation-filters="sRGB">
<feFlood flood-opacity="0" result="BackgroundImageFix"/>
<feColorMatrix in="SourceAlpha" type="matrix" values="0 0 0 0 0 0 0 0 0 0 0 0 0 0 0 0 0 0 127 0" result="hardAlpha"/>
<feOffset/>
<feGaussianBlur stdDeviation="10.5968"/>
<feComposite in2="hardAlpha" operator="out"/>
<feColorMatrix type="matrix" values="0 0 0 0 0 0 0 0 0 0 0 0 0 0 0 0 0 0 0.25 0"/>
<feBlend mode="normal" in2="BackgroundImageFix" result="effect1_dropShadow_6111_28486"/>
<feBlend mode="normal" in="SourceGraphic" in2="effect1_dropShadow_6111_28486" result="shape"/>
</filter>
<clipPath id="clip0_6111_28486">
<rect width="37.9562" height="37.9562" fill="white" transform="translate(93.5322 80.7539)"/>
</clipPath>
</defs>
</svg>
