<svg width="220" height="251" viewBox="0 0 220 251" fill="none" xmlns="http://www.w3.org/2000/svg">
<path d="M208.166 70.5701C209.328 74.2127 210.71 77.8074 211.627 81.5196C222.113 124.087 211.137 160.262 178.8 189.794C174.034 194.148 168.265 197.403 162.967 201.173C162.412 201.569 161.874 201.97 161.332 202.373L150.583 207.597C147.082 208.757 143.609 210.012 140.084 211.076L140.087 211.074C129.235 214.355 118.131 215.745 106.803 215.46C105.955 215.439 104.914 215.815 104.272 216.366C92.659 226.361 81.0903 236.403 69.5167 246.442C69.4455 246.508 69.3706 246.567 69.2994 246.633C69.0581 246.85 68.8773 247.145 68.6663 247.405L65.7019 248.845C63.166 249.036 60.9682 248.264 59.0899 246.557L57.6486 243.591C57.5836 243.235 57.5217 242.877 57.4567 242.521C56.5837 237.705 55.7361 232.885 54.8286 228.073C52.9 217.907 50.9675 207.743 48.9281 197.6C48.7165 196.535 47.963 195.327 47.095 194.671C35.4412 185.899 25.9009 175.27 18.6608 162.585C18.3994 162.121 17.9997 161.734 17.6636 161.311L12.8006 151.304C11.494 147.411 10.0385 143.563 8.90636 139.622C1.41763 113.587 3.44184 88.2424 15.228 63.8853C26.6198 40.3467 44.6037 23.4265 68.5422 12.9794C112.496 -6.18848 165.206 7.76057 193.97 46.0814C196.758 49.7998 199.237 53.7539 201.861 57.5972L208.166 70.5701Z" stroke="#DA4436" stroke-width="3.34635" stroke-dasharray="5.86 5.86"/>
<g filter="url(#filter0_d_473_1381)">
<path d="M197.163 74.9942C198.195 78.2283 199.422 81.4202 200.236 84.7161C209.546 122.509 199.801 154.628 171.092 180.848C166.86 184.714 161.738 187.603 157.034 190.95C156.541 191.302 156.062 191.658 155.581 192.016L146.038 196.654C142.929 197.684 139.846 198.798 136.716 199.742L136.719 199.741C127.085 202.653 117.226 203.889 107.168 203.636C106.416 203.617 105.491 203.951 104.921 204.44C94.6104 213.314 84.3391 222.228 74.0635 231.142C74.0002 231.201 73.9337 231.253 73.8703 231.312C73.6561 231.504 73.4956 231.766 73.3083 231.997L70.6766 233.276C68.425 233.446 66.4736 232.761 64.8059 231.245L63.526 228.611C63.4683 228.295 63.4137 227.977 63.3559 227.661C62.5809 223.385 61.8284 219.106 61.0228 214.833C59.3104 205.808 57.5943 196.784 55.7836 187.778C55.5958 186.832 54.9273 185.76 54.1568 185.178C43.8098 177.389 35.339 167.952 28.9108 156.69C28.6787 156.278 28.3238 155.934 28.0254 155.558L23.7078 146.674C22.5478 143.218 21.255 139.802 20.2499 136.302C13.6011 113.188 15.3987 90.6849 25.8631 69.0595C35.9772 48.1607 51.9446 33.1383 73.1984 23.8628C112.223 6.8447 159.021 19.229 184.559 53.2521C187.034 56.5535 189.236 60.0641 191.565 63.4765L197.163 74.9942Z" fill="white"/>
</g>
<circle cx="182.809" cy="35.8714" r="18.7883" fill="white" stroke="#DA4436" stroke-width="3.41606"/>
<g clip-path="url(#clip0_473_1381)">
<path d="M175.992 28.5938L190.754 43.3557Z" fill="#DA4436"/>
<path d="M175.992 28.5938L190.754 43.3557" stroke="#DA4436" stroke-width="5.12719" stroke-miterlimit="10" stroke-linecap="round"/>
<path d="M190.754 28.5938L175.992 43.3557Z" fill="#DA4436"/>
<path d="M190.754 28.5938L175.992 43.3557" stroke="#DA4436" stroke-width="5.12719" stroke-miterlimit="10" stroke-linecap="round"/>
</g>
<path d="M75.4942 123.038C75.2521 123.038 74.9747 123.028 74.662 123.008C74.3593 122.998 74.0466 122.978 73.7238 122.947C73.4111 122.917 73.1085 122.887 72.8159 122.856C72.5335 122.826 72.2914 122.786 72.0896 122.735V121.555C72.3519 121.575 72.6646 121.596 73.0278 121.616C73.401 121.636 73.7944 121.651 74.208 121.661C74.6317 121.671 75.0403 121.676 75.4337 121.676C75.8674 121.676 76.2508 121.636 76.5837 121.555C76.9267 121.474 77.194 121.323 77.3856 121.101C77.5874 120.879 77.6883 120.567 77.6883 120.163V119.512C77.6883 119.058 77.5622 118.71 77.31 118.468C77.0679 118.226 76.6946 118.105 76.1903 118.105H75.0554C74.087 118.105 73.3354 117.893 72.8008 117.47C72.2762 117.046 72.014 116.32 72.014 115.291V114.685C72.014 113.616 72.3015 112.855 72.8764 112.401C73.4615 111.937 74.2887 111.705 75.358 111.705C75.7111 111.705 76.0894 111.725 76.4929 111.765C76.8964 111.795 77.2898 111.836 77.6731 111.886C78.0565 111.937 78.3742 111.987 78.6264 112.037V113.218C78.1725 113.187 77.6631 113.157 77.0981 113.127C76.5433 113.087 76.0188 113.066 75.5245 113.066C75.1008 113.066 74.7326 113.117 74.4199 113.218C74.1172 113.308 73.8802 113.475 73.7087 113.717C73.5473 113.959 73.4666 114.302 73.4666 114.746V115.2C73.4666 115.745 73.6129 116.123 73.9054 116.335C74.1979 116.547 74.6065 116.653 75.131 116.653H76.3567C76.9922 116.653 77.5117 116.769 77.9152 117.001C78.3288 117.233 78.6365 117.55 78.8383 117.954C79.04 118.357 79.1409 118.816 79.1409 119.331V120.118C79.1409 120.905 78.9795 121.51 78.6567 121.933C78.3339 122.357 77.9001 122.65 77.3554 122.811C76.8106 122.962 76.1903 123.038 75.4942 123.038ZM81.2447 113.49C81.0631 113.49 80.9723 113.404 80.9723 113.233V111.962C80.9723 111.78 81.0631 111.689 81.2447 111.689H82.3644C82.4451 111.689 82.5056 111.715 82.546 111.765C82.5863 111.816 82.6065 111.881 82.6065 111.962V113.233C82.6065 113.404 82.5258 113.49 82.3644 113.49H81.2447ZM81.0328 122.947V114.852H82.546V122.947H81.0328ZM86.9225 122.962C86.4282 122.962 86.0096 122.877 85.6666 122.705C85.3337 122.534 85.0815 122.261 84.91 121.888C84.7486 121.505 84.6679 120.99 84.6679 120.345V111.402H86.1811V120.148C86.1811 120.572 86.2214 120.899 86.3021 121.131C86.3929 121.353 86.514 121.51 86.6653 121.601C86.8267 121.691 87.0133 121.752 87.2251 121.782L87.9817 121.873V122.962H86.9225ZM92.5031 123.038C91.8877 123.038 91.3531 122.972 90.8992 122.841C90.4553 122.71 90.0871 122.493 89.7946 122.191C89.502 121.878 89.2851 121.454 89.1439 120.92C89.0027 120.385 88.9321 119.709 88.9321 118.892C88.9321 118.045 89.0027 117.354 89.1439 116.819C89.2851 116.274 89.502 115.851 89.7946 115.548C90.0871 115.245 90.4603 115.039 90.9143 114.928C91.3682 114.807 91.8978 114.746 92.5031 114.746C93.1084 114.746 93.638 114.807 94.0919 114.928C94.5459 115.049 94.9191 115.26 95.2116 115.563C95.5042 115.866 95.7211 116.289 95.8623 116.834C96.0035 117.369 96.0741 118.055 96.0741 118.892C96.0741 119.719 96.0035 120.405 95.8623 120.95C95.7211 121.485 95.5042 121.903 95.2116 122.206C94.9292 122.508 94.561 122.725 94.107 122.856C93.6531 122.978 93.1184 123.038 92.5031 123.038ZM92.5031 121.797C92.836 121.797 93.1285 121.767 93.3807 121.706C93.643 121.646 93.8599 121.52 94.0314 121.328C94.2029 121.126 94.334 120.829 94.4248 120.435C94.5156 120.042 94.561 119.522 94.561 118.877C94.561 118.231 94.5156 117.717 94.4248 117.333C94.334 116.94 94.2029 116.648 94.0314 116.456C93.8599 116.264 93.643 116.138 93.3807 116.078C93.1285 116.007 92.836 115.972 92.5031 115.972C92.1601 115.972 91.8575 116.007 91.5952 116.078C91.343 116.138 91.1312 116.264 90.9597 116.456C90.7983 116.648 90.6722 116.94 90.5814 117.333C90.5007 117.717 90.4603 118.231 90.4603 118.877C90.4603 119.522 90.5007 120.042 90.5814 120.435C90.6722 120.829 90.7983 121.126 90.9597 121.328C91.1312 121.52 91.343 121.646 91.5952 121.706C91.8575 121.767 92.1601 121.797 92.5031 121.797ZM101.116 123.038C100.258 123.038 99.5721 122.912 99.0576 122.66C98.5533 122.408 98.1901 121.984 97.9682 121.389C97.7563 120.783 97.6504 119.951 97.6504 118.892C97.6504 117.813 97.7563 116.975 97.9682 116.38C98.1901 115.775 98.5533 115.351 99.0576 115.109C99.562 114.867 100.243 114.746 101.1 114.746C101.847 114.746 102.447 114.827 102.901 114.988C103.365 115.139 103.703 115.417 103.915 115.82C104.137 116.214 104.248 116.764 104.248 117.47C104.248 117.964 104.147 118.357 103.945 118.65C103.753 118.942 103.476 119.154 103.113 119.285C102.76 119.417 102.336 119.482 101.842 119.482H99.1636C99.1736 120.067 99.2392 120.536 99.3603 120.889C99.4914 121.232 99.7184 121.485 100.041 121.646C100.374 121.797 100.858 121.873 101.494 121.873H104.021V122.781C103.587 122.841 103.143 122.897 102.689 122.947C102.235 123.008 101.711 123.038 101.116 123.038ZM99.1484 118.529H101.706C102.109 118.529 102.407 118.453 102.598 118.302C102.79 118.151 102.886 117.873 102.886 117.47C102.886 117.066 102.825 116.748 102.704 116.516C102.593 116.284 102.407 116.118 102.144 116.017C101.882 115.916 101.534 115.866 101.1 115.866C100.606 115.866 100.213 115.941 99.9201 116.093C99.6377 116.244 99.4359 116.511 99.3149 116.895C99.2039 117.278 99.1484 117.823 99.1484 118.529ZM108.727 123.038C108.072 123.038 107.527 122.897 107.093 122.614C106.669 122.332 106.352 121.893 106.14 121.298C105.928 120.693 105.822 119.916 105.822 118.968C105.822 117.969 105.918 117.162 106.11 116.547C106.311 115.921 106.634 115.467 107.078 115.185C107.522 114.892 108.122 114.746 108.879 114.746C109.302 114.746 109.721 114.791 110.135 114.882C110.558 114.973 110.926 115.074 111.239 115.185V111.402H112.752V122.947H111.511L111.239 122.145C111.078 122.287 110.856 122.428 110.573 122.569C110.291 122.7 109.988 122.811 109.665 122.902C109.343 122.993 109.03 123.038 108.727 123.038ZM109.211 121.797C109.625 121.797 109.998 121.732 110.331 121.601C110.674 121.469 110.977 121.333 111.239 121.192V116.274C110.926 116.183 110.619 116.103 110.316 116.032C110.024 115.951 109.696 115.911 109.333 115.911C108.858 115.911 108.475 115.997 108.183 116.168C107.89 116.34 107.678 116.642 107.547 117.076C107.416 117.51 107.35 118.115 107.35 118.892C107.35 119.608 107.411 120.183 107.532 120.617C107.653 121.041 107.85 121.343 108.122 121.525C108.404 121.706 108.768 121.797 109.211 121.797ZM121.48 123.038C120.824 123.038 120.279 122.897 119.846 122.614C119.422 122.332 119.104 121.893 118.892 121.298C118.68 120.693 118.574 119.916 118.574 118.968C118.574 117.969 118.67 117.162 118.862 116.547C119.064 115.921 119.387 115.467 119.83 115.185C120.274 114.892 120.874 114.746 121.631 114.746C122.055 114.746 122.473 114.791 122.887 114.882C123.311 114.973 123.679 115.074 123.992 115.185V111.402H125.505V122.947H124.264L123.992 122.145C123.83 122.287 123.608 122.428 123.326 122.569C123.043 122.7 122.741 122.811 122.418 122.902C122.095 122.993 121.782 123.038 121.48 123.038ZM121.964 121.797C122.378 121.797 122.751 121.732 123.084 121.601C123.427 121.469 123.729 121.333 123.992 121.192V116.274C123.679 116.183 123.371 116.103 123.069 116.032C122.776 115.951 122.448 115.911 122.085 115.911C121.611 115.911 121.228 115.997 120.935 116.168C120.642 116.34 120.431 116.642 120.299 117.076C120.168 117.51 120.103 118.115 120.103 118.892C120.103 119.608 120.163 120.183 120.284 120.617C120.405 121.041 120.602 121.343 120.874 121.525C121.157 121.706 121.52 121.797 121.964 121.797ZM129.199 123.038C128.604 123.038 128.11 122.862 127.716 122.508C127.333 122.145 127.141 121.646 127.141 121.01V120.375C127.141 119.749 127.353 119.24 127.777 118.847C128.21 118.443 128.861 118.241 129.729 118.241H132.256V117.394C132.256 117.081 132.2 116.819 132.089 116.607C131.988 116.385 131.797 116.219 131.514 116.108C131.232 115.997 130.813 115.941 130.258 115.941H127.777V115.049C128.14 114.968 128.564 114.897 129.048 114.837C129.542 114.776 130.117 114.741 130.773 114.731C131.439 114.731 131.993 114.817 132.437 114.988C132.891 115.149 133.229 115.422 133.451 115.805C133.673 116.178 133.784 116.678 133.784 117.303V122.947H132.588L132.331 122.055C132.271 122.095 132.145 122.171 131.953 122.281C131.761 122.382 131.514 122.493 131.212 122.614C130.919 122.735 130.596 122.836 130.243 122.917C129.9 122.998 129.552 123.038 129.199 123.038ZM129.895 121.933C130.046 121.944 130.223 121.928 130.425 121.888C130.637 121.848 130.843 121.802 131.045 121.752C131.257 121.691 131.449 121.631 131.62 121.57C131.802 121.51 131.948 121.459 132.059 121.419C132.18 121.369 132.246 121.338 132.256 121.328V118.998L130.137 119.089C129.613 119.119 129.234 119.25 129.002 119.482C128.78 119.714 128.669 120.017 128.669 120.39V120.753C128.669 121.046 128.73 121.283 128.851 121.464C128.972 121.636 129.123 121.757 129.305 121.828C129.497 121.898 129.693 121.933 129.895 121.933ZM138.64 122.947C138.095 122.947 137.641 122.862 137.278 122.69C136.925 122.508 136.662 122.221 136.491 121.828C136.329 121.434 136.254 120.91 136.264 120.254L136.324 116.093H135.038V115.109L136.355 114.852L136.582 112.582H137.777V114.852H139.971V116.093H137.777V120.239C137.777 120.551 137.807 120.804 137.868 120.995C137.928 121.187 138.014 121.333 138.125 121.434C138.236 121.535 138.357 121.611 138.488 121.661C138.619 121.701 138.745 121.727 138.867 121.737L139.865 121.828V122.947H138.64ZM143.119 123.038C142.524 123.038 142.029 122.862 141.636 122.508C141.253 122.145 141.061 121.646 141.061 121.01V120.375C141.061 119.749 141.273 119.24 141.696 118.847C142.13 118.443 142.781 118.241 143.648 118.241H146.175V117.394C146.175 117.081 146.12 116.819 146.009 116.607C145.908 116.385 145.716 116.219 145.434 116.108C145.152 115.997 144.733 115.941 144.178 115.941H141.696V115.049C142.06 114.968 142.483 114.897 142.968 114.837C143.462 114.776 144.037 114.741 144.693 114.731C145.358 114.731 145.913 114.817 146.357 114.988C146.811 115.149 147.149 115.422 147.371 115.805C147.593 116.178 147.704 116.678 147.704 117.303V122.947H146.508L146.251 122.055C146.191 122.095 146.064 122.171 145.873 122.281C145.681 122.382 145.434 122.493 145.131 122.614C144.839 122.735 144.516 122.836 144.163 122.917C143.82 122.998 143.472 123.038 143.119 123.038ZM143.815 121.933C143.966 121.944 144.143 121.928 144.345 121.888C144.556 121.848 144.763 121.802 144.965 121.752C145.177 121.691 145.368 121.631 145.54 121.57C145.721 121.51 145.868 121.459 145.979 121.419C146.1 121.369 146.165 121.338 146.175 121.328V118.998L144.057 119.089C143.532 119.119 143.154 119.25 142.922 119.482C142.7 119.714 142.589 120.017 142.589 120.39V120.753C142.589 121.046 142.65 121.283 142.771 121.464C142.892 121.636 143.043 121.757 143.225 121.828C143.416 121.898 143.613 121.933 143.815 121.933ZM77.9962 142.947V131.402H79.5093V135.73C79.8624 135.467 80.2911 135.235 80.7955 135.033C81.2999 134.822 81.8194 134.716 82.354 134.716C82.9391 134.716 83.4132 134.837 83.7764 135.079C84.1496 135.321 84.422 135.654 84.5935 136.078C84.765 136.491 84.8507 136.96 84.8507 137.485V142.947H83.3376V137.666C83.3376 137.354 83.272 137.081 83.1409 136.849C83.0198 136.607 82.8433 136.421 82.6113 136.289C82.3893 136.158 82.122 136.093 81.8093 136.093C81.5067 136.093 81.2242 136.123 80.9619 136.183C80.7098 136.244 80.4676 136.33 80.2356 136.441C80.0036 136.552 79.7615 136.678 79.5093 136.819V142.947H77.9962ZM87.1332 133.49C86.9517 133.49 86.8609 133.404 86.8609 133.233V131.962C86.8609 131.78 86.9517 131.689 87.1332 131.689H88.253C88.3337 131.689 88.3942 131.715 88.4345 131.765C88.4749 131.816 88.4951 131.881 88.4951 131.962V133.233C88.4951 133.404 88.4144 133.49 88.253 133.49H87.1332ZM86.9214 142.947V134.852H88.4345V142.947H86.9214ZM90.5565 142.947V134.852H91.767L92.0697 135.73C92.4328 135.467 92.8615 135.235 93.3558 135.033C93.8602 134.822 94.3797 134.716 94.9144 134.716C95.5196 134.716 96.0039 134.847 96.367 135.109C96.7403 135.361 97.0076 135.699 97.169 136.123C97.3304 136.547 97.4111 137.006 97.4111 137.5V142.947H95.8979V137.681C95.8979 137.359 95.8324 137.081 95.7012 136.849C95.5802 136.607 95.4087 136.421 95.1868 136.289C94.9648 136.158 94.6925 136.093 94.3696 136.093C94.067 136.093 93.7846 136.123 93.5223 136.183C93.2701 136.244 93.028 136.33 92.796 136.441C92.564 136.542 92.3218 136.668 92.0697 136.819V142.947H90.5565ZM102.115 143.038C101.459 143.038 100.914 142.897 100.48 142.614C100.057 142.332 99.739 141.893 99.5271 141.298C99.3153 140.693 99.2094 139.916 99.2094 138.968C99.2094 137.969 99.3052 137.162 99.4969 136.547C99.6986 135.921 100.021 135.467 100.465 135.185C100.909 134.892 101.509 134.746 102.266 134.746C102.69 134.746 103.108 134.791 103.522 134.882C103.946 134.973 104.314 135.074 104.626 135.185V131.402H106.14V142.947H104.899L104.626 142.145C104.465 142.287 104.243 142.428 103.961 142.569C103.678 142.7 103.376 142.811 103.053 142.902C102.73 142.993 102.417 143.038 102.115 143.038ZM102.599 141.797C103.012 141.797 103.386 141.732 103.719 141.601C104.062 141.469 104.364 141.333 104.626 141.192V136.274C104.314 136.183 104.006 136.103 103.703 136.032C103.411 135.951 103.083 135.911 102.72 135.911C102.246 135.911 101.862 135.997 101.57 136.168C101.277 136.34 101.066 136.642 100.934 137.076C100.803 137.51 100.738 138.115 100.738 138.892C100.738 139.608 100.798 140.183 100.919 140.617C101.04 141.041 101.237 141.343 101.509 141.525C101.792 141.706 102.155 141.797 102.599 141.797ZM111.408 143.038C110.55 143.038 109.864 142.912 109.35 142.66C108.845 142.408 108.482 141.984 108.26 141.389C108.048 140.783 107.943 139.951 107.943 138.892C107.943 137.813 108.048 136.975 108.26 136.38C108.482 135.775 108.845 135.351 109.35 135.109C109.854 134.867 110.535 134.746 111.392 134.746C112.139 134.746 112.739 134.827 113.193 134.988C113.657 135.139 113.995 135.417 114.207 135.82C114.429 136.214 114.54 136.764 114.54 137.47C114.54 137.964 114.439 138.357 114.237 138.65C114.046 138.942 113.768 139.154 113.405 139.285C113.052 139.417 112.628 139.482 112.134 139.482H109.456C109.466 140.067 109.531 140.536 109.652 140.889C109.784 141.232 110.01 141.485 110.333 141.646C110.666 141.797 111.15 141.873 111.786 141.873H114.313V142.781C113.879 142.841 113.435 142.897 112.981 142.947C112.527 143.008 112.003 143.038 111.408 143.038ZM109.441 138.529H111.998C112.401 138.529 112.699 138.453 112.891 138.302C113.082 138.151 113.178 137.873 113.178 137.47C113.178 137.066 113.117 136.748 112.996 136.516C112.885 136.284 112.699 136.118 112.437 136.017C112.174 135.916 111.826 135.866 111.392 135.866C110.898 135.866 110.505 135.941 110.212 136.093C109.93 136.244 109.728 136.511 109.607 136.895C109.496 137.278 109.441 137.823 109.441 138.529ZM116.386 142.947V134.852H117.552L117.9 136.214C118.243 135.8 118.626 135.452 119.05 135.17C119.473 134.887 119.968 134.746 120.533 134.746C120.664 134.746 120.79 134.756 120.911 134.776C121.032 134.786 121.148 134.807 121.259 134.837V136.395C121.118 136.375 120.971 136.36 120.82 136.35C120.669 136.33 120.512 136.32 120.351 136.32C120.008 136.32 119.7 136.36 119.428 136.441C119.156 136.521 118.893 136.648 118.641 136.819C118.399 136.98 118.152 137.182 117.9 137.424V142.947H116.386ZM122.893 133.49C122.712 133.49 122.621 133.404 122.621 133.233V131.962C122.621 131.78 122.712 131.689 122.893 131.689H124.013C124.094 131.689 124.154 131.715 124.195 131.765C124.235 131.816 124.255 131.881 124.255 131.962V133.233C124.255 133.404 124.174 133.49 124.013 133.49H122.893ZM122.681 142.947V134.852H124.195V142.947H122.681ZM126.317 142.947V134.852H127.527L127.83 135.73C128.193 135.467 128.622 135.235 129.116 135.033C129.62 134.822 130.14 134.716 130.674 134.716C131.28 134.716 131.764 134.847 132.127 135.109C132.5 135.361 132.768 135.699 132.929 136.123C133.09 136.547 133.171 137.006 133.171 137.5V142.947H131.658V137.681C131.658 137.359 131.592 137.081 131.461 136.849C131.34 136.607 131.169 136.421 130.947 136.289C130.725 136.158 130.452 136.093 130.13 136.093C129.827 136.093 129.545 136.123 129.282 136.183C129.03 136.244 128.788 136.33 128.556 136.441C128.324 136.542 128.082 136.668 127.83 136.819V142.947H126.317ZM137.254 146.67C136.74 146.67 136.281 146.594 135.877 146.443C135.484 146.301 135.171 146.079 134.939 145.777C134.707 145.484 134.591 145.121 134.591 144.687V144.354C134.591 143.901 134.717 143.517 134.969 143.205C135.232 142.902 135.56 142.67 135.953 142.508C136.346 142.347 136.755 142.266 137.179 142.266L137.587 142.826C137.315 142.826 137.058 142.867 136.815 142.947C136.583 143.038 136.392 143.174 136.24 143.356C136.099 143.547 136.029 143.79 136.029 144.082V144.37C136.029 144.793 136.17 145.101 136.452 145.293C136.745 145.484 137.143 145.58 137.648 145.58H139.418C139.953 145.58 140.376 145.474 140.689 145.262C141.002 145.061 141.158 144.743 141.158 144.309V144.022C141.158 143.779 141.103 143.568 140.992 143.386C140.891 143.205 140.724 143.063 140.492 142.962C140.26 142.872 139.943 142.826 139.539 142.826H137.3C136.583 142.826 136.039 142.68 135.665 142.387C135.292 142.095 135.106 141.727 135.106 141.283C135.106 140.879 135.222 140.556 135.454 140.314C135.696 140.062 136.034 139.891 136.467 139.8C136.104 139.639 135.817 139.432 135.605 139.18C135.403 138.927 135.262 138.655 135.181 138.362C135.101 138.06 135.06 137.757 135.06 137.455C135.06 136.839 135.186 136.34 135.438 135.957C135.691 135.573 136.054 135.291 136.528 135.109C137.012 134.928 137.587 134.837 138.253 134.837H142.611V135.699L140.961 135.866C141.083 135.957 141.214 136.078 141.355 136.229C141.496 136.37 141.617 136.567 141.718 136.819C141.819 137.071 141.869 137.404 141.869 137.818C141.869 138.251 141.774 138.655 141.582 139.028C141.4 139.401 141.098 139.704 140.674 139.936C140.26 140.168 139.695 140.284 138.979 140.284H137.648C137.264 140.284 136.962 140.34 136.74 140.451C136.518 140.562 136.407 140.758 136.407 141.041C136.407 141.273 136.493 141.434 136.664 141.525C136.836 141.616 137.017 141.661 137.209 141.661H139.766C140.381 141.661 140.896 141.742 141.31 141.903C141.733 142.065 142.051 142.312 142.263 142.645C142.475 142.978 142.581 143.411 142.581 143.946V144.233C142.581 145 142.328 145.595 141.824 146.019C141.33 146.453 140.578 146.67 139.569 146.67H137.254ZM137.92 139.119H138.813C139.267 139.119 139.61 139.053 139.842 138.922C140.084 138.781 140.25 138.599 140.341 138.378C140.432 138.156 140.477 137.908 140.477 137.636C140.477 137.233 140.412 136.915 140.281 136.683C140.149 136.441 139.968 136.269 139.736 136.168C139.514 136.057 139.242 136.002 138.919 136.002H138.071C137.557 136.002 137.153 136.118 136.861 136.35C136.578 136.582 136.437 136.98 136.437 137.545C136.437 138.1 136.568 138.504 136.831 138.756C137.093 138.998 137.456 139.119 137.92 139.119ZM67.9224 163.038C67.4483 163.038 67.0095 162.978 66.606 162.856C66.2126 162.725 65.8645 162.508 65.5619 162.206C65.2694 161.903 65.0424 161.485 64.881 160.95C64.7196 160.415 64.6389 159.739 64.6389 158.922C64.6389 158.085 64.7145 157.399 64.8658 156.864C65.0172 156.32 65.234 155.896 65.5165 155.593C65.809 155.281 66.1621 155.064 66.5757 154.943C66.9893 154.822 67.4533 154.761 67.9678 154.761C68.3915 154.761 68.8353 154.781 69.2994 154.822C69.7735 154.862 70.2325 154.928 70.6764 155.018V155.911H68.3915C67.8972 155.911 67.4836 155.992 67.1507 156.153C66.8178 156.305 66.5707 156.602 66.4093 157.046C66.2479 157.48 66.1672 158.11 66.1672 158.937C66.1672 159.734 66.2529 160.35 66.4244 160.783C66.5959 161.207 66.843 161.495 67.1658 161.646C67.4987 161.797 67.9123 161.873 68.4066 161.873H70.7974V162.735C70.5654 162.796 70.288 162.851 69.9652 162.902C69.6525 162.942 69.3196 162.972 68.9665 162.993C68.6235 163.023 68.2755 163.038 67.9224 163.038ZM75.6279 163.038C75.0126 163.038 74.4779 162.972 74.024 162.841C73.5801 162.71 73.2119 162.493 72.9194 162.191C72.6268 161.878 72.4099 161.454 72.2687 160.92C72.1275 160.385 72.0569 159.709 72.0569 158.892C72.0569 158.045 72.1275 157.354 72.2687 156.819C72.4099 156.274 72.6268 155.851 72.9194 155.548C73.2119 155.245 73.5851 155.039 74.0391 154.928C74.493 154.807 75.0226 154.746 75.6279 154.746C76.2332 154.746 76.7628 154.807 77.2167 154.928C77.6707 155.049 78.0439 155.26 78.3364 155.563C78.629 155.866 78.8459 156.289 78.9871 156.834C79.1283 157.369 79.1989 158.055 79.1989 158.892C79.1989 159.719 79.1283 160.405 78.9871 160.95C78.8459 161.485 78.629 161.903 78.3364 162.206C78.054 162.508 77.6858 162.725 77.2318 162.856C76.7779 162.978 76.2433 163.038 75.6279 163.038ZM75.6279 161.797C75.9608 161.797 76.2533 161.767 76.5055 161.706C76.7678 161.646 76.9847 161.52 77.1562 161.328C77.3277 161.126 77.4588 160.829 77.5496 160.435C77.6404 160.042 77.6858 159.522 77.6858 158.877C77.6858 158.231 77.6404 157.717 77.5496 157.333C77.4588 156.94 77.3277 156.648 77.1562 156.456C76.9847 156.264 76.7678 156.138 76.5055 156.078C76.2533 156.007 75.9608 155.972 75.6279 155.972C75.2849 155.972 74.9823 156.007 74.72 156.078C74.4678 156.138 74.256 156.264 74.0845 156.456C73.9231 156.648 73.797 156.94 73.7062 157.333C73.6255 157.717 73.5851 158.231 73.5851 158.877C73.5851 159.522 73.6255 160.042 73.7062 160.435C73.797 160.829 73.9231 161.126 74.0845 161.328C74.256 161.52 74.4678 161.646 74.72 161.706C74.9823 161.767 75.2849 161.797 75.6279 161.797ZM83.3022 162.962C82.8079 162.962 82.3892 162.877 82.0463 162.705C81.7134 162.534 81.4612 162.261 81.2897 161.888C81.1283 161.505 81.0476 160.99 81.0476 160.345V151.402H82.5607V160.148C82.5607 160.572 82.6011 160.899 82.6818 161.131C82.7726 161.353 82.8936 161.51 83.0449 161.601C83.2064 161.691 83.393 161.752 83.6048 161.782L84.3614 161.873V162.962H83.3022ZM87.8387 162.962C87.3444 162.962 86.9258 162.877 86.5828 162.705C86.2499 162.534 85.9977 162.261 85.8262 161.888C85.6648 161.505 85.5841 160.99 85.5841 160.345V151.402H87.0972V160.148C87.0972 160.572 87.1376 160.899 87.2183 161.131C87.3091 161.353 87.4301 161.51 87.5815 161.601C87.7429 161.691 87.9295 161.752 88.1413 161.782L88.8979 161.873V162.962H87.8387ZM91.7397 163.038C91.1445 163.038 90.6502 162.862 90.2568 162.508C89.8734 162.145 89.6818 161.646 89.6818 161.01V160.375C89.6818 159.749 89.8936 159.24 90.3173 158.847C90.7511 158.443 91.4017 158.241 92.2693 158.241H94.7962V157.394C94.7962 157.081 94.7407 156.819 94.6298 156.607C94.5289 156.385 94.3372 156.219 94.0548 156.108C93.7723 155.997 93.3537 155.941 92.7989 155.941H90.3173V155.049C90.6805 154.968 91.1041 154.897 91.5883 154.837C92.0826 154.776 92.6576 154.741 93.3133 154.731C93.9791 154.731 94.5339 154.817 94.9778 154.988C95.4318 155.149 95.7697 155.422 95.9916 155.805C96.2135 156.178 96.3245 156.678 96.3245 157.303V162.947H95.1291L94.8719 162.055C94.8114 162.095 94.6853 162.171 94.4936 162.281C94.3019 162.382 94.0548 162.493 93.7522 162.614C93.4596 162.735 93.1368 162.836 92.7837 162.917C92.4408 162.998 92.0927 163.038 91.7397 163.038ZM92.4357 161.933C92.587 161.944 92.7636 161.928 92.9653 161.888C93.1772 161.848 93.384 161.802 93.5857 161.752C93.7975 161.691 93.9892 161.631 94.1607 161.57C94.3423 161.51 94.4886 161.459 94.5995 161.419C94.7206 161.369 94.7861 161.338 94.7962 161.328V158.998L92.6778 159.089C92.1533 159.119 91.775 159.25 91.543 159.482C91.321 159.714 91.2101 160.017 91.2101 160.39V160.753C91.2101 161.046 91.2706 161.283 91.3916 161.464C91.5127 161.636 91.664 161.757 91.8456 161.828C92.0372 161.898 92.234 161.933 92.4357 161.933ZM102.497 163.038C102.123 163.038 101.775 162.993 101.453 162.902C101.14 162.811 100.852 162.7 100.59 162.569C100.338 162.428 100.106 162.287 99.894 162.145L99.6216 162.947H98.3809V151.402H99.894V155.533C100.267 155.331 100.681 155.149 101.135 154.988C101.599 154.827 102.028 154.746 102.421 154.746C103.087 154.746 103.631 154.887 104.055 155.17C104.479 155.442 104.792 155.886 104.993 156.501C105.205 157.117 105.311 157.939 105.311 158.968C105.311 159.825 105.215 160.562 105.024 161.177C104.832 161.782 104.529 162.246 104.116 162.569C103.702 162.882 103.162 163.038 102.497 163.038ZM101.967 161.782C102.36 161.782 102.688 161.686 102.951 161.495C103.223 161.293 103.43 160.98 103.571 160.556C103.722 160.123 103.798 159.568 103.798 158.892C103.798 158.065 103.717 157.444 103.556 157.031C103.394 156.617 103.178 156.34 102.905 156.199C102.633 156.057 102.32 155.987 101.967 155.987C101.564 155.987 101.195 156.047 100.862 156.168C100.54 156.279 100.217 156.421 99.894 156.592V161.207C100.166 161.348 100.474 161.48 100.817 161.601C101.16 161.722 101.543 161.782 101.967 161.782ZM110.457 163.038C109.842 163.038 109.307 162.972 108.853 162.841C108.409 162.71 108.041 162.493 107.748 162.191C107.456 161.878 107.239 161.454 107.098 160.92C106.957 160.385 106.886 159.709 106.886 158.892C106.886 158.045 106.957 157.354 107.098 156.819C107.239 156.274 107.456 155.851 107.748 155.548C108.041 155.245 108.414 155.039 108.868 154.928C109.322 154.807 109.852 154.746 110.457 154.746C111.062 154.746 111.592 154.807 112.046 154.928C112.5 155.049 112.873 155.26 113.166 155.563C113.458 155.866 113.675 156.289 113.816 156.834C113.957 157.369 114.028 158.055 114.028 158.892C114.028 159.719 113.957 160.405 113.816 160.95C113.675 161.485 113.458 161.903 113.166 162.206C112.883 162.508 112.515 162.725 112.061 162.856C111.607 162.978 111.072 163.038 110.457 163.038ZM110.457 161.797C110.79 161.797 111.082 161.767 111.335 161.706C111.597 161.646 111.814 161.52 111.985 161.328C112.157 161.126 112.288 160.829 112.379 160.435C112.469 160.042 112.515 159.522 112.515 158.877C112.515 158.231 112.469 157.717 112.379 157.333C112.288 156.94 112.157 156.648 111.985 156.456C111.814 156.264 111.597 156.138 111.335 156.078C111.082 156.007 110.79 155.972 110.457 155.972C110.114 155.972 109.811 156.007 109.549 156.078C109.297 156.138 109.085 156.264 108.914 156.456C108.752 156.648 108.626 156.94 108.535 157.333C108.455 157.717 108.414 158.231 108.414 158.877C108.414 159.522 108.455 160.042 108.535 160.435C108.626 160.829 108.752 161.126 108.914 161.328C109.085 161.52 109.297 161.646 109.549 161.706C109.811 161.767 110.114 161.797 110.457 161.797ZM115.877 162.947V154.852H117.042L117.39 156.214C117.733 155.8 118.116 155.452 118.54 155.17C118.964 154.887 119.458 154.746 120.023 154.746C120.154 154.746 120.28 154.756 120.401 154.776C120.522 154.786 120.638 154.807 120.749 154.837V156.395C120.608 156.375 120.462 156.36 120.31 156.35C120.159 156.33 120.003 156.32 119.841 156.32C119.498 156.32 119.19 156.36 118.918 156.441C118.646 156.521 118.383 156.648 118.131 156.819C117.889 156.98 117.642 157.182 117.39 157.424V162.947H115.877ZM123.495 163.038C122.9 163.038 122.406 162.862 122.012 162.508C121.629 162.145 121.437 161.646 121.437 161.01V160.375C121.437 159.749 121.649 159.24 122.073 158.847C122.507 158.443 123.157 158.241 124.025 158.241H126.552V157.394C126.552 157.081 126.496 156.819 126.385 156.607C126.284 156.385 126.093 156.219 125.81 156.108C125.528 155.997 125.109 155.941 124.554 155.941H122.073V155.049C122.436 154.968 122.86 154.897 123.344 154.837C123.838 154.776 124.413 154.741 125.069 154.731C125.735 154.731 126.289 154.817 126.733 154.988C127.187 155.149 127.525 155.422 127.747 155.805C127.969 156.178 128.08 156.678 128.08 157.303V162.947H126.885L126.627 162.055C126.567 162.095 126.441 162.171 126.249 162.281C126.057 162.382 125.81 162.493 125.508 162.614C125.215 162.735 124.892 162.836 124.539 162.917C124.196 162.998 123.848 163.038 123.495 163.038ZM124.191 161.933C124.343 161.944 124.519 161.928 124.721 161.888C124.933 161.848 125.139 161.802 125.341 161.752C125.553 161.691 125.745 161.631 125.916 161.57C126.098 161.51 126.244 161.459 126.355 161.419C126.476 161.369 126.542 161.338 126.552 161.328V158.998L124.433 159.089C123.909 159.119 123.53 159.25 123.298 159.482C123.077 159.714 122.966 160.017 122.966 160.39V160.753C122.966 161.046 123.026 161.283 123.147 161.464C123.268 161.636 123.42 161.757 123.601 161.828C123.793 161.898 123.989 161.933 124.191 161.933ZM132.936 162.947C132.391 162.947 131.937 162.862 131.574 162.69C131.221 162.508 130.959 162.221 130.787 161.828C130.626 161.434 130.55 160.91 130.56 160.254L130.621 156.093H129.334V155.109L130.651 154.852L130.878 152.582H132.073V154.852H134.267V156.093H132.073V160.239C132.073 160.551 132.103 160.804 132.164 160.995C132.225 161.187 132.31 161.333 132.421 161.434C132.532 161.535 132.653 161.611 132.784 161.661C132.916 161.701 133.042 161.727 133.163 161.737L134.161 161.828V162.947H132.936ZM136.008 153.49C135.826 153.49 135.735 153.404 135.735 153.233V151.962C135.735 151.78 135.826 151.689 136.008 151.689H137.127C137.208 151.689 137.269 151.715 137.309 151.765C137.349 151.816 137.37 151.881 137.37 151.962V153.233C137.37 153.404 137.289 153.49 137.127 153.49H136.008ZM135.796 162.947V154.852H137.309V162.947H135.796ZM142.73 163.038C142.114 163.038 141.58 162.972 141.126 162.841C140.682 162.71 140.314 162.493 140.021 162.191C139.729 161.878 139.512 161.454 139.37 160.92C139.229 160.385 139.159 159.709 139.159 158.892C139.159 158.045 139.229 157.354 139.37 156.819C139.512 156.274 139.729 155.851 140.021 155.548C140.314 155.245 140.687 155.039 141.141 154.928C141.595 154.807 142.124 154.746 142.73 154.746C143.335 154.746 143.865 154.807 144.318 154.928C144.772 155.049 145.146 155.26 145.438 155.563C145.731 155.866 145.948 156.289 146.089 156.834C146.23 157.369 146.301 158.055 146.301 158.892C146.301 159.719 146.23 160.405 146.089 160.95C145.948 161.485 145.731 161.903 145.438 162.206C145.156 162.508 144.788 162.725 144.334 162.856C143.88 162.978 143.345 163.038 142.73 163.038ZM142.73 161.797C143.063 161.797 143.355 161.767 143.607 161.706C143.87 161.646 144.086 161.52 144.258 161.328C144.429 161.126 144.561 160.829 144.651 160.435C144.742 160.042 144.788 159.522 144.788 158.877C144.788 158.231 144.742 157.717 144.651 157.333C144.561 156.94 144.429 156.648 144.258 156.456C144.086 156.264 143.87 156.138 143.607 156.078C143.355 156.007 143.063 155.972 142.73 155.972C142.387 155.972 142.084 156.007 141.822 156.078C141.57 156.138 141.358 156.264 141.186 156.456C141.025 156.648 140.899 156.94 140.808 157.333C140.727 157.717 140.687 158.231 140.687 158.877C140.687 159.522 140.727 160.042 140.808 160.435C140.899 160.829 141.025 161.126 141.186 161.328C141.358 161.52 141.57 161.646 141.822 161.706C142.084 161.767 142.387 161.797 142.73 161.797ZM148.149 162.947V154.852H149.36L149.663 155.73C150.026 155.467 150.454 155.235 150.949 155.033C151.453 154.822 151.973 154.716 152.507 154.716C153.113 154.716 153.597 154.847 153.96 155.109C154.333 155.361 154.6 155.699 154.762 156.123C154.923 156.547 155.004 157.006 155.004 157.5V162.947H153.491V157.681C153.491 157.359 153.425 157.081 153.294 156.849C153.173 156.607 153.002 156.421 152.78 156.289C152.558 156.158 152.285 156.093 151.963 156.093C151.66 156.093 151.377 156.123 151.115 156.183C150.863 156.244 150.621 156.33 150.389 156.441C150.157 156.542 149.915 156.668 149.663 156.819V162.947H148.149Z" fill="#3D4651"/>
<g clip-path="url(#clip1_473_1381)">
<path d="M99.8958 53.1328C111.742 52.0392 117.943 66.0376 108.848 73.3481C101.391 79.3442 89.952 74.4737 89.3062 65.261C88.8907 59.3418 93.7166 53.7028 99.8958 53.1328ZM96.4683 59.971C90.1889 65.9975 99.9225 75.1718 106.092 69.0252C112.193 62.9475 102.701 53.991 96.4683 59.971Z" fill="#DA4436"/>
<path d="M99.6449 79.9827C107.329 79.4031 114.388 83.4506 117.34 90.2568C117.767 91.2415 118.483 93.126 118.531 94.1539C118.635 96.3394 116.102 97.7035 114.279 96.309C113.195 95.478 113.131 93.5679 112.594 92.2934C108.668 82.9783 94.9909 82.3971 90.3152 91.4064C89.6144 92.7561 89.5326 94.0546 89.0253 95.3227C88.3995 96.887 86.2653 97.3561 84.927 96.309C83.4969 95.1898 84.0526 93.5055 84.4931 92.0517C86.4405 85.6137 92.5947 80.5142 99.6449 79.9827Z" fill="#DA4436"/>
<path d="M122.501 61.9987C134.464 61.8754 134.883 79.2552 123.097 79.8284C110.598 80.4368 110.039 62.1252 122.501 61.9987ZM122.125 67.0341C117.411 67.4696 117.355 74.3447 122.092 74.7882C128.064 75.3486 128.001 66.4898 122.125 67.0341Z" fill="#DA4436"/>
<path d="M119.283 88.093C118.653 86.4759 117.488 85.1278 116.408 83.7797C117.283 83.5556 118.07 83.1441 118.953 82.9247C124.758 81.4805 130.719 83.6276 134.071 88.3444C135.086 89.771 136.736 93.1317 136.079 94.8032C135.296 96.795 132.459 96.9839 131.37 95.1298C130.988 94.4798 130.896 93.4135 130.582 92.6497C128.855 88.4501 123.637 86.3447 119.282 88.093H119.283Z" fill="#DA4436"/>
</g>
<defs>
<filter id="filter0_d_473_1381" x="0.442745" y="0.380245" width="219.101" height="248.816" filterUnits="userSpaceOnUse" color-interpolation-filters="sRGB">
<feFlood flood-opacity="0" result="BackgroundImageFix"/>
<feColorMatrix in="SourceAlpha" type="matrix" values="0 0 0 0 0 0 0 0 0 0 0 0 0 0 0 0 0 0 127 0" result="hardAlpha"/>
<feOffset/>
<feGaussianBlur stdDeviation="7.94757"/>
<feComposite in2="hardAlpha" operator="out"/>
<feColorMatrix type="matrix" values="0 0 0 0 0 0 0 0 0 0 0 0 0 0 0 0 0 0 0.25 0"/>
<feBlend mode="normal" in2="BackgroundImageFix" result="effect1_dropShadow_473_1381"/>
<feBlend mode="normal" in="SourceGraphic" in2="effect1_dropShadow_473_1381" result="shape"/>
</filter>
<clipPath id="clip0_473_1381">
<rect width="28.4672" height="28.4672" fill="white" transform="translate(168.008 22.207)"/>
</clipPath>
<clipPath id="clip1_473_1381">
<rect width="52.2205" height="43.7978" fill="white" transform="translate(84.0078 53.0723)"/>
</clipPath>
</defs>
</svg>
