<svg width="317" height="314" viewBox="0 0 317 314" fill="none" xmlns="http://www.w3.org/2000/svg">
<path d="M18.2801 130.215L16.1272 129.63L16.0852 129.785L16.0658 129.944L18.2801 130.215ZM22.3332 115.449L20.2246 114.721L20.2241 114.722L22.3332 115.449ZM137.49 18.0012L137.859 20.2015L137.859 20.2014L137.49 18.0012ZM163.456 16.727L163.555 18.9557L163.558 18.9556L163.456 16.727ZM166.157 16.5675L166.428 14.3532L166.22 14.3277L166.011 14.3414L166.157 16.5675ZM181.973 18.5032L182.534 16.3439L182.391 16.3067L182.244 16.2888L181.973 18.5032ZM196.247 22.2107L195.976 24.4251L196.866 20.0674L196.247 22.2107ZM196.242 22.2101L196.513 19.9958L195.624 24.3538L196.242 22.2101ZM236.682 41.4023L235.423 43.2444L235.424 43.2448L236.682 41.4023ZM240.171 42.2208L240.471 44.4314L240.474 44.431L240.171 42.2208ZM300.86 33.7165L301.172 35.9254L301.209 35.9202L301.246 35.9137L300.86 33.7165ZM301.242 33.6599L300.893 31.4564L300.874 31.4594L300.855 31.4628L301.242 33.6599ZM302.51 33.2542L302.781 31.0398L302.288 30.9796L301.817 31.1335L302.51 33.2542ZM306.872 33.788L307.939 31.8293L307.565 31.6254L307.143 31.5736L306.872 33.788ZM312.617 41.138L314.831 41.409L314.884 40.9823L314.774 40.5667L312.617 41.138ZM312.083 45.5019L314.143 46.3572L314.26 46.0756L314.297 45.7729L312.083 45.5019ZM311.523 46.8393L313.582 47.6974L313.583 47.6946L311.523 46.8393ZM304.003 64.9181L301.937 64.0745L301.936 64.0769L304.003 64.9181ZM288.542 103.307L290.616 104.13L290.618 104.125L288.542 103.307ZM288.473 107.914L286.377 108.677L286.379 108.682L288.473 107.914ZM297.073 164.425L299.3 164.561L299.3 164.549L297.073 164.425ZM297.266 166.574L299.481 166.845L299.511 166.602L299.487 166.357L297.266 166.574ZM295.464 181.299L297.626 181.852L297.661 181.713L297.679 181.57L295.464 181.299ZM291.365 197.198L289.23 196.55L289.23 196.551L291.365 197.198ZM229.444 277.411L230.602 279.318L230.602 279.318L229.444 277.411ZM132.893 295.797L132.531 297.998L132.532 297.998L132.893 295.797ZM16.4404 167.911L14.2148 168.066L14.2149 168.067L16.4404 167.911ZM15.944 149.304L13.7297 149.033L13.7098 149.196L13.7138 149.359L15.944 149.304ZM18.2801 130.215L16.0658 129.944L15.4817 134.716L17.6961 134.987L19.9105 135.258L20.4945 130.486L18.2801 130.215ZM16.5281 144.532L14.3137 144.261L13.7297 149.033L15.944 149.304L18.1584 149.575L18.7424 144.803L16.5281 144.532ZM15.944 149.304L13.7138 149.359C13.7521 150.896 13.7755 152.437 13.7957 153.986L16.0264 153.957L18.2572 153.928C18.2369 152.374 18.2132 150.812 18.1743 149.248L15.944 149.304ZM16.2034 163.263L13.9739 163.342C14.0292 164.912 14.1054 166.488 14.2148 168.066L16.4404 167.911L18.6659 167.757C18.5607 166.24 18.4868 164.717 18.4329 163.185L16.2034 163.263ZM16.4404 167.911L14.2149 168.067C14.3069 169.383 14.4175 170.695 14.5466 172.003L16.7667 171.784L18.9868 171.565C18.8619 170.299 18.7549 169.029 18.6659 167.756L16.4404 167.911ZM17.7489 179.482L15.5449 179.827C15.9535 182.435 16.4354 185.022 16.9884 187.586L19.1692 187.116L21.3499 186.646C20.8147 184.164 20.3484 181.66 19.9529 179.136L17.7489 179.482ZM21.0205 194.656L18.8699 195.249C19.5706 197.79 20.3416 200.304 21.1807 202.791L23.2945 202.077L25.4082 201.364C24.5958 198.957 23.8494 196.522 23.1711 194.063L21.0205 194.656ZM25.9827 209.361L23.9122 210.192C24.8928 212.636 25.9402 215.049 27.0522 217.428L29.0732 216.483L31.0942 215.539C30.0172 213.234 29.0028 210.898 28.0532 208.531L25.9827 209.361ZM32.5535 223.422L30.5878 224.477C31.8322 226.796 33.1394 229.078 34.5071 231.321L36.4119 230.16L38.3166 228.998C36.9913 226.825 35.7248 224.614 34.5193 222.367L32.5535 223.422ZM40.6337 236.675L38.7954 237.939C40.2853 240.106 41.8337 242.231 43.4383 244.312L45.2049 242.95L46.9716 241.588C45.4164 239.571 43.9159 237.511 42.472 235.411L40.6337 236.675ZM50.1114 248.967L48.4215 250.423C50.1376 252.414 51.9077 254.359 53.7296 256.254L55.3378 254.708L56.946 253.161C55.1803 251.325 53.4646 249.44 51.8013 247.51L50.1114 248.967ZM60.8688 260.156L59.3472 261.787C61.2687 263.58 63.2397 265.32 65.2578 267.006L66.6882 265.294L68.1186 263.582C66.1629 261.948 64.2528 260.262 62.3905 258.524L60.8688 260.156ZM72.7799 270.107L71.4454 271.895C73.5507 273.467 75.7007 274.981 77.893 276.437L79.1271 274.579L80.3611 272.72C78.2373 271.31 76.1543 269.842 74.1144 268.32L72.7799 270.107ZM85.7102 278.692L84.5809 280.616C86.8456 281.946 89.1501 283.214 91.4922 284.418L92.5125 282.435L93.5329 280.451C91.2649 279.284 89.033 278.056 86.8395 276.768L85.7102 278.692ZM99.514 285.791L98.6065 287.829C101.004 288.896 103.435 289.898 105.9 290.833L106.691 288.747L107.482 286.661C105.096 285.756 102.742 284.786 100.421 283.753L99.514 285.791ZM114.025 291.293L113.354 293.42C115.855 294.21 118.387 294.93 120.945 295.58L121.494 293.418L122.043 291.255C119.567 290.627 117.118 289.929 114.697 289.165L114.025 291.293ZM129.067 295.112L128.643 297.302C129.933 297.552 131.229 297.784 132.531 297.998L132.893 295.797L133.255 293.595C131.995 293.388 130.74 293.164 129.492 292.922L129.067 295.112ZM132.893 295.797L132.532 297.998C133.935 298.228 135.334 298.44 136.731 298.632L137.035 296.422L137.339 294.212C135.981 294.025 134.619 293.819 133.254 293.595L132.893 295.797ZM145.355 297.341L145.17 299.564C148.012 299.8 150.841 299.956 153.656 300.03L153.715 297.8L153.774 295.57C151.044 295.498 148.299 295.347 145.539 295.118L145.355 297.341ZM162.085 297.777L162.158 300.007C165.003 299.915 167.833 299.738 170.647 299.475L170.44 297.254L170.233 295.033C167.509 295.287 164.769 295.458 162.013 295.547L162.085 297.777ZM178.748 296.22L179.092 298.424C181.896 297.986 184.684 297.46 187.456 296.848L186.974 294.669L186.492 292.491C183.812 293.084 181.116 293.592 178.403 294.016L178.748 296.22ZM195.087 292.606L195.704 294.75C198.422 293.967 201.122 293.098 203.804 292.142L203.055 290.041L202.306 287.94C199.711 288.865 197.098 289.706 194.47 290.462L195.087 292.606ZM210.851 286.992L211.726 289.044C214.317 287.938 216.891 286.75 219.446 285.477L218.452 283.48L217.457 281.483C214.979 282.717 212.485 283.869 209.976 284.939L210.851 286.992ZM225.835 279.537L226.941 281.475C228.166 280.776 229.386 280.057 230.602 279.318L229.444 277.411L228.286 275.505C227.104 276.223 225.919 276.921 224.729 277.6L225.835 279.537ZM229.444 277.411L230.602 279.318C231.678 278.665 232.741 278.002 233.792 277.328L232.589 275.45L231.385 273.571C230.364 274.225 229.331 274.87 228.286 275.505L229.444 277.411ZM238.731 271.303L240.024 273.121C242.081 271.657 244.087 270.152 246.041 268.606L244.657 266.856L243.273 265.106C241.379 266.605 239.433 268.065 237.437 269.485L238.731 271.303ZM250.345 262.109L251.819 263.784C253.712 262.118 255.55 260.409 257.335 258.657L255.773 257.065L254.21 255.473C252.483 257.168 250.703 258.822 248.871 260.435L250.345 262.109ZM260.917 251.732L262.565 253.236C264.26 251.379 265.901 249.477 267.486 247.533L265.758 246.123L264.029 244.713C262.496 246.593 260.909 248.432 259.269 250.228L260.917 251.732ZM270.279 240.253L272.083 241.565C273.558 239.536 274.977 237.465 276.341 235.351L274.466 234.142L272.592 232.932C271.272 234.977 269.9 236.98 268.474 238.942L270.279 240.253ZM278.313 227.808L280.25 228.914C281.489 226.743 282.675 224.531 283.806 222.279L281.813 221.278L279.819 220.276C278.723 222.459 277.575 224.601 276.375 226.703L278.313 227.808ZM284.965 214.574L287.008 215.471C288.01 213.19 288.961 210.87 289.86 208.513L287.776 207.718L285.691 206.923C284.818 209.212 283.895 211.464 282.923 213.676L284.965 214.574ZM290.251 200.732L292.37 201.427C292.759 200.242 293.136 199.047 293.5 197.844L291.365 197.198L289.23 196.551C288.875 197.722 288.509 198.884 288.131 200.037L290.251 200.732ZM291.365 197.198L293.5 197.845C293.906 196.507 294.283 195.165 294.641 193.824L292.485 193.248L290.33 192.673C289.982 193.977 289.618 195.27 289.23 196.55L291.365 197.198ZM294.475 185.283L296.643 185.811C296.966 184.484 297.29 183.165 297.626 181.852L295.464 181.299L293.303 180.747C292.961 182.085 292.632 183.424 292.308 184.756L294.475 185.283ZM295.464 181.299L297.679 181.57L298.129 177.889L295.915 177.618L293.7 177.347L293.25 181.028L295.464 181.299ZM296.816 170.256L299.03 170.527L299.481 166.845L297.266 166.574L295.052 166.303L294.601 169.985L296.816 170.256ZM297.266 166.574L299.487 166.357C299.465 166.133 299.436 165.919 299.411 165.733L297.201 166.038L294.991 166.343C295.015 166.515 295.033 166.658 295.046 166.791L297.266 166.574ZM297.075 164.965L299.302 164.83C299.295 164.717 299.295 164.63 299.3 164.561L297.073 164.425L294.846 164.29C294.828 164.579 294.833 164.852 294.849 165.1L297.075 164.965ZM297.073 164.425L299.3 164.549C299.368 163.33 299.42 162.112 299.456 160.898L297.226 160.831L294.996 160.764C294.961 161.941 294.911 163.12 294.845 164.302L297.073 164.425ZM297.256 153.636L299.486 153.587C299.433 151.143 299.315 148.709 299.135 146.284L296.91 146.45L294.686 146.615C294.86 148.962 294.973 151.319 295.025 153.685L297.256 153.636ZM296.189 139.291L298.403 139.009C298.095 136.591 297.724 134.182 297.292 131.784L295.096 132.18L292.901 132.576C293.32 134.899 293.679 137.231 293.976 139.572L296.189 139.291ZM293.638 125.134L295.81 124.626C295.257 122.26 294.643 119.903 293.969 117.556L291.825 118.171L289.681 118.787C290.334 121.063 290.929 123.348 291.465 125.642L293.638 125.134ZM289.672 111.306L291.784 110.587C291.393 109.438 290.988 108.291 290.568 107.146L288.473 107.914L286.379 108.682C286.787 109.794 287.18 110.908 287.56 112.024L289.672 111.306ZM288.473 107.914L290.569 107.15C290.502 106.964 290.442 106.729 290.402 106.455L288.195 106.775L285.987 107.095C286.064 107.626 286.19 108.163 286.377 108.677L288.473 107.914ZM288.23 104.437L290.427 104.823C290.475 104.549 290.542 104.315 290.616 104.13L288.542 103.307L286.469 102.483C286.267 102.991 286.126 103.523 286.033 104.05L288.23 104.437ZM288.542 103.307L290.618 104.125C291.039 103.057 291.461 101.989 291.884 100.922L289.81 100.1L287.737 99.2776C287.312 100.347 286.889 101.418 286.467 102.488L288.542 103.307ZM292.362 93.6914L294.433 94.5196C295.286 92.3866 296.142 90.2545 297 88.1231L294.93 87.29L292.861 86.4569C292.002 88.5911 291.145 90.7265 290.29 92.8632L292.362 93.6914ZM297.512 80.8939L299.58 81.7308C300.442 79.6006 301.306 77.4709 302.171 75.3414L300.104 74.5019L298.037 73.6624C297.172 75.7933 296.307 77.9248 295.444 80.0571L297.512 80.8939ZM302.702 68.1124L304.769 68.9533C305.202 67.8886 305.635 66.824 306.069 65.7593L304.003 64.9181L301.936 64.0769C301.503 65.1417 301.069 66.2065 300.636 67.2714L302.702 68.1124ZM304.003 64.9181L306.068 65.7617C306.683 64.255 307.303 62.7499 307.927 61.2454L305.866 60.3914L303.805 59.5375C303.179 61.0473 302.556 62.5595 301.937 64.0745L304.003 64.9181ZM309.636 51.3561L311.694 52.2173C312.324 50.7119 312.954 49.2053 313.582 47.6974L311.523 46.8393L309.464 45.9812C308.837 47.4858 308.208 48.9899 307.578 50.4949L309.636 51.3561ZM311.523 46.8393L313.583 47.6946C313.628 47.5863 313.674 47.4774 313.72 47.3675L311.662 46.5048L309.605 45.6421C309.558 45.7552 309.51 45.8693 309.462 45.9841L311.523 46.8393ZM311.943 45.8365L314.001 46.6992C314.048 46.5861 314.096 46.472 314.143 46.3572L312.083 45.5019L310.023 44.6467C309.978 44.755 309.932 44.8639 309.886 44.9738L311.943 45.8365ZM312.083 45.5019L314.297 45.7729L314.431 44.682L312.216 44.411L310.002 44.14L309.869 45.231L312.083 45.5019ZM312.484 42.229L314.698 42.5L314.831 41.409L312.617 41.138L310.403 40.867L310.269 41.958L312.484 42.229ZM312.617 41.138L314.774 40.5667C314.528 39.6406 314.207 38.757 313.807 37.9206L311.795 38.8843L309.783 39.8481C310.055 40.4162 310.282 41.0352 310.461 41.7094L312.617 41.138ZM308.862 35.1268L310.284 33.4075C309.568 32.8154 308.785 32.2901 307.939 31.8293L306.872 33.788L305.804 35.7468C306.414 36.0793 306.957 36.4466 307.441 36.8462L308.862 35.1268ZM306.872 33.788L307.143 31.5736L306.052 31.4402L305.781 33.6546L305.51 35.869L306.601 36.0024L306.872 33.788ZM303.6 33.3877L303.871 31.1733L302.781 31.0398L302.51 33.2542L302.239 35.4686L303.329 35.6021L303.6 33.3877ZM302.51 33.2542L301.817 31.1335C301.668 31.1823 301.529 31.2331 301.417 31.2747L302.195 33.3655L302.974 35.4562C303.071 35.4201 303.141 35.3948 303.202 35.3749L302.51 33.2542ZM301.567 33.5857L300.947 31.4427C300.904 31.4549 300.889 31.4571 300.893 31.4564L301.242 33.6599L301.591 35.8633C301.813 35.8282 302.013 35.7788 302.187 35.7287L301.567 33.5857ZM301.242 33.6599L300.855 31.4628C300.852 31.4633 300.844 31.4647 300.827 31.4672L301.147 33.675L301.466 35.8829C301.513 35.8762 301.568 35.8677 301.629 35.857L301.242 33.6599ZM300.955 33.7014L300.636 31.4935C300.59 31.5001 300.535 31.5086 300.474 31.5192L300.86 33.7165L301.246 35.9137C301.249 35.9131 301.258 35.9117 301.275 35.9092L300.955 33.7014ZM300.86 33.7165L300.548 31.5075C299.284 31.6862 298.02 31.8649 296.755 32.0436L297.068 34.2525L297.38 36.4615C298.644 36.2828 299.908 36.1041 301.172 35.9254L300.86 33.7165ZM289.483 35.3245L289.171 33.1156C286.642 33.4728 284.114 33.8299 281.586 34.1865L281.898 36.3956L282.209 38.6046C284.738 38.2478 287.266 37.8908 289.795 37.5335L289.483 35.3245ZM274.312 37.4645L274.001 35.2554C271.473 35.6112 268.945 35.9665 266.417 36.3211L266.727 38.5303L267.036 40.7396C269.566 40.3849 272.094 40.0295 274.623 39.6736L274.312 37.4645ZM259.14 39.592L258.832 37.3825C256.303 37.7355 253.775 38.0876 251.246 38.4387L251.553 40.6484L251.86 42.8581C254.39 42.5069 256.919 42.1546 259.449 41.8015L259.14 39.592ZM243.965 41.6985L243.66 39.4885C242.396 39.6629 241.131 39.837 239.867 40.0107L240.171 42.2208L240.474 44.431C241.74 44.2571 243.005 44.083 244.27 43.9085L243.965 41.6985ZM240.171 42.2208L239.87 40.0103C239.755 40.026 239.601 40.0324 239.414 40.0194L239.259 42.2449L239.104 44.4704C239.549 44.5014 240.012 44.4938 240.471 44.4314L240.171 42.2208ZM237.487 41.8301L238.337 39.7675C238.166 39.6969 238.033 39.6237 237.94 39.5598L236.682 41.4023L235.424 43.2448C235.81 43.5083 236.223 43.7223 236.637 43.8927L237.487 41.8301ZM236.682 41.4023L237.94 39.5602C236.892 38.8442 235.837 38.1423 234.775 37.4547L233.563 39.3273L232.35 41.1998C233.381 41.8674 234.405 42.5489 235.423 43.2444L236.682 41.4023ZM227.174 35.415L228.29 33.4833C226.09 32.2125 223.862 31.0009 221.605 29.85L220.592 31.8375L219.578 33.825C221.765 34.94 223.925 36.1143 226.058 37.3466L227.174 35.415ZM213.829 28.6149L214.734 26.5758C212.416 25.5475 210.07 24.5812 207.693 23.6783L206.901 25.7637L206.108 27.8492C208.409 28.7231 210.68 29.6584 212.924 30.654L213.829 28.6149ZM199.827 23.2969L200.504 21.171C199.296 20.7869 198.082 20.4187 196.86 20.0665L196.242 22.2101L195.624 24.3538C196.807 24.6947 197.983 25.0511 199.151 25.4228L199.827 23.2969ZM196.242 22.2101L195.971 24.4245L195.972 24.4247L196.243 22.2103L196.514 19.9959L196.513 19.9958L196.242 22.2101ZM196.246 22.2106L195.975 24.425L195.976 24.4251L196.247 22.2107L196.518 19.9964L196.517 19.9962L196.246 22.2106ZM196.247 22.2107L196.866 20.0674C195.666 19.7211 194.465 19.3918 193.264 19.0736L192.693 21.2299L192.121 23.3863C193.298 23.6983 194.467 24.0189 195.628 24.3541L196.247 22.2107ZM185.546 19.4121L186.089 17.2482C184.899 16.9497 183.714 16.6505 182.534 16.3439L181.973 18.5032L181.412 20.6624C182.611 20.9737 183.81 21.2765 185.004 21.576L185.546 19.4121ZM181.973 18.5032L182.244 16.2888L178.29 15.8049L178.019 18.0193L177.748 20.2337L181.702 20.7176L181.973 18.5032ZM170.111 17.0515L170.382 14.8371L166.428 14.3532L166.157 16.5675L165.886 18.782L169.84 19.2659L170.111 17.0515ZM166.157 16.5675L166.011 14.3414C165.785 14.3562 165.562 14.3709 165.338 14.3853L165.482 16.6116L165.625 18.8378C165.852 18.8233 166.078 18.8084 166.303 18.7937L166.157 16.5675ZM164.132 16.6931L164.01 14.4655C163.791 14.4774 163.573 14.4885 163.354 14.4984L163.456 16.727L163.558 18.9556C163.791 18.945 164.023 18.9332 164.253 18.9207L164.132 16.6931ZM163.456 16.727L163.357 14.4983C162.295 14.5454 161.228 14.5786 160.154 14.6032L160.205 16.8335L160.257 19.0638C161.354 19.0386 162.454 19.0046 163.555 18.9557L163.456 16.727ZM153.701 16.9232L153.675 14.6924C151.499 14.7174 149.302 14.7523 147.105 14.8428L147.197 17.0718L147.289 19.3008C149.416 19.2132 151.558 19.1788 153.726 19.154L153.701 16.9232ZM140.711 17.5508L140.458 15.3343C139.345 15.4612 138.232 15.6147 137.121 15.8011L137.49 18.0012L137.859 20.2014C138.885 20.0293 139.92 19.8864 140.964 19.7674L140.711 17.5508ZM137.49 18.0012L137.121 15.801C135.787 16.0246 134.462 16.2603 133.148 16.5083L133.561 18.7005L133.975 20.8928C135.259 20.6505 136.554 20.4201 137.859 20.2015L137.49 18.0012ZM125.77 20.3422L125.263 18.1697C122.616 18.7877 120.012 19.4584 117.451 20.182L118.057 22.3288L118.664 24.4757C121.158 23.7712 123.695 23.1174 126.277 22.5146L125.77 20.3422ZM110.448 24.679L109.738 22.5644C107.162 23.4301 104.633 24.3532 102.151 25.3337L102.971 27.4086L103.79 29.4834C106.199 28.5319 108.656 27.6353 111.159 26.7936L110.448 24.679ZM95.6435 30.5356L94.7115 28.5087C92.2448 29.6429 89.8284 30.8384 87.4623 32.0952L88.5088 34.0654L89.5554 36.0356C91.8451 34.8193 94.1851 33.6616 96.5755 32.5625L95.6435 30.5356ZM81.5893 38.0076L80.4275 36.1032C78.1134 37.5149 75.8523 38.9906 73.6446 40.5302L74.9206 42.3601L76.1967 44.19C78.3293 42.7028 80.5141 41.2768 82.7512 39.9121L81.5893 38.0076ZM68.5344 47.1148L67.147 45.3678C65.031 47.0482 62.9695 48.7931 60.9625 50.6026L62.4564 52.2595L63.9503 53.9164C65.8881 52.1692 67.8786 50.4844 69.9218 48.8619L68.5344 47.1148ZM56.712 57.7725L55.1181 56.2117C53.2351 58.1346 51.4061 60.1207 49.6313 62.1698L51.3176 63.6304L53.0039 65.091C54.7197 63.11 56.487 61.1909 58.306 59.3334L56.712 57.7725ZM46.2858 69.8033L44.5157 68.4455C42.8852 70.5711 41.3067 72.7565 39.7802 75.0017L41.625 76.2561L43.4699 77.5104C44.9493 75.3346 46.478 73.2182 48.0559 71.1612L46.2858 69.8033ZM37.329 82.9651L35.4184 81.8135C34.0408 84.099 32.712 86.4401 31.4317 88.8368L33.3995 89.888L35.3672 90.9391C36.6119 88.6091 37.9027 86.335 39.2397 84.1168L37.329 82.9651ZM29.8219 97.0027L27.8051 96.0489C26.6674 98.4547 25.5745 100.911 24.5265 103.419L26.5848 104.279L28.6432 105.14C29.6655 102.694 30.7307 100.299 31.8386 97.9564L29.8219 97.0027ZM23.6744 111.691L21.581 110.92C21.1185 112.175 20.6664 113.442 20.2246 114.721L22.3332 115.449L24.4419 116.178C24.8739 114.927 25.3158 113.689 25.7677 112.462L23.6744 111.691ZM22.3332 115.449L20.2241 114.722C19.7933 115.972 19.4041 117.229 19.0423 118.484L21.1859 119.102L23.3295 119.72C23.6752 118.521 24.0417 117.339 24.4424 116.176L22.3332 115.449ZM19.2438 126.509L17.0808 125.963C16.7687 127.198 16.456 128.419 16.1272 129.63L18.2801 130.215L20.433 130.8C20.7725 129.55 21.093 128.297 21.4067 127.056L19.2438 126.509Z" fill="#DA4436"/>
<g filter="url(#filter0_d_6111_28417)">
<path d="M179.138 34.0505C183.364 35.1481 187.623 36.1334 191.811 37.3425H191.806C204.702 41.0588 216.634 46.8146 227.711 54.3815C228.54 54.9473 229.817 55.2431 230.809 55.1081C248.779 52.639 266.733 50.0964 284.692 47.5583C284.805 47.5384 284.917 47.5275 285.031 47.5075C285.41 47.4475 285.78 47.2703 286.157 47.1472L290.029 47.6208C292.672 49.0617 294.361 51.2424 295.13 54.1472L294.657 58.0222C294.492 58.4179 294.323 58.8129 294.159 59.2087C291.93 64.5571 289.674 69.8931 287.482 75.2604C282.863 86.6049 278.25 97.9499 273.755 109.343C273.281 110.538 273.253 112.223 273.694 113.433C279.638 129.645 282.288 146.344 281.33 163.608C281.291 164.237 281.439 164.88 281.501 165.516L279.902 178.59C278.698 183.299 277.671 188.059 276.262 192.705C266.968 223.398 248.661 247.289 221.286 263.923C194.829 279.996 166.074 285.252 135.562 280.246C79.5489 271.04 36.1233 223.287 32.1694 166.703C31.7885 161.214 31.8662 155.69 31.729 150.182L33.8032 133.234C34.9896 128.866 35.9269 124.404 37.4019 120.125C54.3462 71.0714 88.5144 42.1691 139.643 33.6042C147.18 32.3401 155.008 32.8142 162.698 32.4733C163.504 32.4365 164.297 32.384 165.095 32.3317L179.138 34.0505Z" fill="white"/>
</g>
<circle cx="32.432" cy="127.897" r="25.0511" fill="white" stroke="#DA4436" stroke-width="4.55475"/>
<g clip-path="url(#clip0_6111_28417)">
<path d="M23.3496 118.198L43.0322 137.88L23.3496 118.198Z" fill="#DA4436"/>
<path d="M23.3496 118.198L43.0322 137.88" stroke="#DA4436" stroke-width="6.83625" stroke-miterlimit="10" stroke-linecap="round"/>
<path d="M43.0322 118.198L23.3496 137.88L43.0322 118.198Z" fill="#DA4436"/>
<path d="M43.0322 118.198L23.3496 137.88" stroke="#DA4436" stroke-width="6.83625" stroke-miterlimit="10" stroke-linecap="round"/>
</g>
<path d="M87.8033 181.943C86.8869 181.943 86.0787 181.854 85.3787 181.676C84.6914 181.498 84.1123 181.167 83.6414 180.683C83.1832 180.199 82.8396 179.487 82.6105 178.545C82.3814 177.603 82.2668 176.368 82.2668 174.841C82.2668 173.314 82.3814 172.079 82.6105 171.137C82.8396 170.183 83.1896 169.457 83.6605 168.961C84.1314 168.452 84.7105 168.108 85.3978 167.93C86.0851 167.739 86.8869 167.644 87.8033 167.644C88.7452 167.644 89.5597 167.739 90.247 167.93C90.947 168.108 91.5261 168.452 91.9843 168.961C92.4425 169.457 92.7862 170.183 93.0153 171.137C93.2444 172.079 93.3589 173.314 93.3589 174.841C93.3589 176.368 93.2444 177.603 93.0153 178.545C92.7862 179.487 92.4362 180.199 91.9652 180.683C91.5071 181.167 90.928 181.498 90.2279 181.676C89.5406 181.854 88.7324 181.943 87.8033 181.943ZM87.8033 180.225C88.4652 180.225 89.0252 180.155 89.4834 180.015C89.9543 179.875 90.3298 179.62 90.6098 179.251C90.9025 178.869 91.1125 178.328 91.2398 177.628C91.3671 176.916 91.4307 175.986 91.4307 174.841C91.4307 173.632 91.3607 172.665 91.2207 171.939C91.0934 171.214 90.8898 170.666 90.6098 170.297C90.3298 169.928 89.9543 169.68 89.4834 169.553C89.0252 169.425 88.4652 169.362 87.8033 169.362C87.1797 169.362 86.6388 169.425 86.1806 169.553C85.7224 169.68 85.3469 169.928 85.0542 170.297C84.7614 170.666 84.5387 171.214 84.386 171.939C84.246 172.665 84.176 173.632 84.176 174.841C84.176 175.986 84.2332 176.916 84.3478 177.628C84.4751 178.328 84.6787 178.869 84.9587 179.251C85.2515 179.62 85.6269 179.875 86.0851 180.015C86.556 180.155 87.1288 180.225 87.8033 180.225ZM98.7318 181.943C97.7772 181.943 97.0327 181.688 96.4981 181.179C95.9763 180.657 95.7154 179.868 95.7154 178.812V171.615H97.6245V178.297C97.6245 179.06 97.7963 179.576 98.14 179.843C98.4963 180.11 98.9927 180.244 99.6291 180.244C100.138 180.244 100.622 180.167 101.08 180.015C101.551 179.849 102.009 179.627 102.455 179.347V171.615H104.364V181.828H102.836L102.455 180.74C101.958 181.058 101.385 181.338 100.736 181.58C100.1 181.822 99.4318 181.943 98.7318 181.943ZM110.527 181.828C109.84 181.828 109.267 181.72 108.809 181.504C108.364 181.275 108.033 180.912 107.816 180.416C107.613 179.919 107.517 179.257 107.53 178.43L107.606 173.18H105.984V171.939L107.644 171.615L107.931 168.751H109.439V171.615H112.207V173.18H109.439V178.411C109.439 178.806 109.477 179.124 109.554 179.366C109.63 179.607 109.738 179.792 109.878 179.919C110.018 180.047 110.171 180.142 110.336 180.206C110.502 180.257 110.661 180.288 110.814 180.301L112.074 180.416V181.828H110.527ZM117.458 181.943C116.631 181.943 115.943 181.765 115.396 181.408C114.861 181.052 114.461 180.498 114.193 179.747C113.926 178.984 113.792 178.004 113.792 176.807C113.792 175.547 113.913 174.529 114.155 173.753C114.41 172.964 114.817 172.391 115.377 172.035C115.937 171.665 116.694 171.481 117.649 171.481C118.183 171.481 118.712 171.538 119.233 171.653C119.768 171.767 120.232 171.895 120.627 172.035V167.262H122.536V181.828H120.971L120.627 180.817C120.423 180.995 120.143 181.173 119.787 181.351C119.431 181.517 119.049 181.657 118.642 181.771C118.234 181.886 117.84 181.943 117.458 181.943ZM118.069 180.377C118.591 180.377 119.062 180.295 119.482 180.129C119.914 179.964 120.296 179.792 120.627 179.614V173.409C120.232 173.295 119.844 173.193 119.462 173.104C119.093 173.002 118.68 172.951 118.222 172.951C117.623 172.951 117.14 173.059 116.771 173.275C116.401 173.492 116.134 173.874 115.969 174.421C115.803 174.968 115.721 175.732 115.721 176.712C115.721 177.616 115.797 178.341 115.95 178.888C116.102 179.423 116.351 179.805 116.694 180.034C117.051 180.263 117.509 180.377 118.069 180.377ZM127.197 181.943C126.446 181.943 125.823 181.72 125.326 181.275C124.843 180.817 124.601 180.187 124.601 179.385V178.583C124.601 177.794 124.868 177.151 125.403 176.655C125.95 176.146 126.771 175.891 127.866 175.891H131.054V174.822C131.054 174.427 130.984 174.096 130.844 173.829C130.716 173.549 130.475 173.339 130.118 173.199C129.762 173.059 129.234 172.989 128.534 172.989H125.403V171.863C125.861 171.761 126.395 171.672 127.006 171.595C127.63 171.519 128.356 171.475 129.183 171.462C130.023 171.462 130.723 171.57 131.283 171.786C131.856 171.99 132.282 172.334 132.562 172.817C132.842 173.288 132.982 173.918 132.982 174.707V181.828H131.474L131.149 180.702C131.073 180.753 130.914 180.848 130.672 180.988C130.43 181.116 130.118 181.256 129.736 181.408C129.367 181.561 128.96 181.688 128.515 181.79C128.082 181.892 127.643 181.943 127.197 181.943ZM128.076 180.549C128.266 180.562 128.489 180.543 128.744 180.492C129.011 180.441 129.272 180.384 129.526 180.32C129.794 180.244 130.036 180.167 130.252 180.091C130.481 180.015 130.666 179.951 130.806 179.9C130.958 179.837 131.041 179.798 131.054 179.786V176.846L128.381 176.96C127.719 176.998 127.242 177.164 126.949 177.457C126.669 177.749 126.529 178.131 126.529 178.602V179.06C126.529 179.429 126.605 179.728 126.758 179.957C126.911 180.174 127.102 180.327 127.331 180.416C127.573 180.505 127.821 180.549 128.076 180.549ZM139.108 181.828C138.421 181.828 137.848 181.72 137.39 181.504C136.945 181.275 136.614 180.912 136.397 180.416C136.194 179.919 136.098 179.257 136.111 178.43L136.187 173.18H134.565V171.939L136.226 171.615L136.512 168.751H138.02V171.615H140.788V173.18H138.02V178.411C138.02 178.806 138.058 179.124 138.135 179.366C138.211 179.607 138.319 179.792 138.459 179.919C138.599 180.047 138.752 180.142 138.917 180.206C139.083 180.257 139.242 180.288 139.395 180.301L140.655 180.416V181.828H139.108ZM146.745 181.943C145.664 181.943 144.798 181.784 144.149 181.466C143.513 181.148 143.054 180.613 142.774 179.862C142.507 179.098 142.373 178.048 142.373 176.712C142.373 175.35 142.507 174.294 142.774 173.543C143.054 172.779 143.513 172.245 144.149 171.939C144.785 171.634 145.644 171.481 146.726 171.481C147.668 171.481 148.425 171.583 148.998 171.786C149.584 171.977 150.01 172.327 150.277 172.836C150.557 173.333 150.697 174.026 150.697 174.917C150.697 175.541 150.57 176.037 150.315 176.406C150.074 176.776 149.724 177.043 149.265 177.208C148.82 177.374 148.285 177.457 147.662 177.457H144.283C144.295 178.195 144.378 178.787 144.531 179.232C144.696 179.665 144.983 179.983 145.39 180.187C145.81 180.377 146.421 180.473 147.223 180.473H150.411V181.618C149.864 181.695 149.304 181.765 148.731 181.828C148.158 181.905 147.496 181.943 146.745 181.943ZM144.264 176.254H147.49C147.999 176.254 148.375 176.158 148.616 175.967C148.858 175.776 148.979 175.426 148.979 174.917C148.979 174.408 148.903 174.007 148.75 173.715C148.61 173.422 148.375 173.212 148.044 173.085C147.713 172.957 147.274 172.894 146.726 172.894C146.103 172.894 145.606 172.989 145.237 173.18C144.881 173.371 144.626 173.708 144.474 174.192C144.334 174.676 144.264 175.363 144.264 176.254ZM156.349 181.943C155.522 181.943 154.834 181.765 154.287 181.408C153.753 181.052 153.352 180.498 153.084 179.747C152.817 178.984 152.684 178.004 152.684 176.807C152.684 175.547 152.804 174.529 153.046 173.753C153.301 172.964 153.708 172.391 154.268 172.035C154.828 171.665 155.585 171.481 156.54 171.481C157.075 171.481 157.603 171.538 158.125 171.653C158.659 171.767 159.124 171.895 159.518 172.035V167.262H161.427V181.828H159.862L159.518 180.817C159.315 180.995 159.035 181.173 158.678 181.351C158.322 181.517 157.94 181.657 157.533 181.771C157.125 181.886 156.731 181.943 156.349 181.943ZM156.96 180.377C157.482 180.377 157.953 180.295 158.373 180.129C158.806 179.964 159.187 179.792 159.518 179.614V173.409C159.124 173.295 158.736 173.193 158.354 173.104C157.985 173.002 157.571 172.951 157.113 172.951C156.515 172.951 156.031 173.059 155.662 173.275C155.293 173.492 155.025 173.874 154.86 174.421C154.694 174.968 154.612 175.732 154.612 176.712C154.612 177.616 154.688 178.341 154.841 178.888C154.994 179.423 155.242 179.805 155.585 180.034C155.942 180.263 156.4 180.377 156.96 180.377ZM169.384 169.896C169.155 169.896 169.041 169.788 169.041 169.572V167.968C169.041 167.739 169.155 167.624 169.384 167.624H170.797C170.899 167.624 170.975 167.656 171.026 167.72C171.077 167.784 171.102 167.866 171.102 167.968V169.572C171.102 169.788 171.001 169.896 170.797 169.896H169.384ZM169.117 181.828V171.615H171.026V181.828H169.117ZM173.703 181.828V171.615H175.231L175.612 172.722C176.071 172.391 176.612 172.098 177.235 171.844C177.872 171.576 178.527 171.443 179.202 171.443C179.965 171.443 180.576 171.608 181.034 171.939C181.505 172.257 181.843 172.684 182.046 173.218C182.25 173.753 182.352 174.332 182.352 174.956V181.828H180.443V175.185C180.443 174.777 180.36 174.427 180.194 174.135C180.042 173.829 179.825 173.594 179.545 173.428C179.265 173.263 178.922 173.18 178.514 173.18C178.132 173.18 177.776 173.218 177.445 173.295C177.127 173.371 176.822 173.479 176.529 173.619C176.236 173.746 175.931 173.906 175.612 174.096V181.828H173.703ZM188.534 181.943C188.267 181.943 187.949 181.937 187.58 181.924C187.211 181.911 186.829 181.886 186.434 181.848C186.052 181.822 185.696 181.79 185.365 181.752C185.047 181.714 184.792 181.669 184.601 181.618V180.473H188.897C189.266 180.473 189.584 180.447 189.852 180.397C190.119 180.333 190.323 180.206 190.463 180.015C190.615 179.824 190.692 179.544 190.692 179.175V178.755C190.692 178.373 190.564 178.074 190.31 177.857C190.055 177.641 189.635 177.533 189.05 177.533H187.561C186.962 177.533 186.428 177.457 185.957 177.304C185.499 177.138 185.136 176.865 184.869 176.483C184.614 176.101 184.487 175.586 184.487 174.936V174.383C184.487 173.734 184.608 173.199 184.85 172.779C185.104 172.359 185.505 172.047 186.052 171.844C186.6 171.627 187.325 171.519 188.229 171.519C188.611 171.519 189.031 171.538 189.489 171.576C189.96 171.602 190.418 171.64 190.863 171.691C191.309 171.742 191.665 171.799 191.933 171.863V173.008H187.885C187.325 173.008 186.892 173.104 186.587 173.295C186.294 173.486 186.148 173.848 186.148 174.383V174.765C186.148 175.096 186.218 175.35 186.358 175.528C186.498 175.706 186.695 175.821 186.95 175.872C187.217 175.923 187.529 175.948 187.885 175.948H189.412C190.38 175.948 191.112 176.177 191.608 176.636C192.104 177.081 192.353 177.711 192.353 178.526V179.308C192.353 179.996 192.193 180.53 191.875 180.912C191.557 181.294 191.112 181.561 190.539 181.714C189.979 181.867 189.311 181.943 188.534 181.943ZM194.796 169.896C194.567 169.896 194.452 169.788 194.452 169.572V167.968C194.452 167.739 194.567 167.624 194.796 167.624H196.209C196.31 167.624 196.387 167.656 196.438 167.72C196.489 167.784 196.514 167.866 196.514 167.968V169.572C196.514 169.788 196.412 169.896 196.209 169.896H194.796ZM194.529 181.828V171.615H196.438V181.828H194.529ZM201.654 186.525C201.005 186.525 200.426 186.429 199.917 186.239C199.42 186.06 199.026 185.78 198.733 185.399C198.44 185.029 198.294 184.571 198.294 184.024V183.604C198.294 183.031 198.453 182.548 198.771 182.153C199.102 181.771 199.516 181.478 200.012 181.275C200.509 181.071 201.024 180.969 201.559 180.969L202.074 181.676C201.73 181.676 201.406 181.727 201.1 181.828C200.808 181.943 200.566 182.115 200.375 182.344C200.197 182.586 200.108 182.891 200.108 183.26V183.623C200.108 184.158 200.286 184.546 200.642 184.788C201.011 185.029 201.514 185.15 202.15 185.15H204.384C205.059 185.15 205.593 185.017 205.988 184.749C206.382 184.495 206.58 184.094 206.58 183.547V183.184C206.58 182.878 206.51 182.611 206.37 182.382C206.242 182.153 206.032 181.975 205.74 181.848C205.447 181.733 205.046 181.676 204.537 181.676H201.711C200.808 181.676 200.12 181.491 199.649 181.122C199.179 180.753 198.943 180.288 198.943 179.728C198.943 179.219 199.089 178.812 199.382 178.507C199.688 178.188 200.114 177.972 200.661 177.857C200.203 177.654 199.84 177.393 199.573 177.075C199.319 176.756 199.14 176.413 199.039 176.044C198.937 175.662 198.886 175.28 198.886 174.898C198.886 174.122 199.045 173.492 199.363 173.008C199.681 172.525 200.139 172.168 200.738 171.939C201.349 171.71 202.074 171.595 202.914 171.595H208.412V172.684L206.331 172.894C206.484 173.008 206.65 173.161 206.828 173.352C207.006 173.53 207.159 173.778 207.286 174.096C207.413 174.415 207.477 174.835 207.477 175.356C207.477 175.904 207.356 176.413 207.114 176.884C206.885 177.355 206.503 177.737 205.969 178.029C205.447 178.322 204.734 178.468 203.83 178.468H202.15C201.667 178.468 201.285 178.538 201.005 178.678C200.725 178.818 200.585 179.067 200.585 179.423C200.585 179.716 200.693 179.919 200.91 180.034C201.126 180.148 201.355 180.206 201.597 180.206H204.823C205.6 180.206 206.249 180.307 206.771 180.511C207.305 180.715 207.706 181.027 207.973 181.447C208.241 181.867 208.374 182.414 208.374 183.088V183.451C208.374 184.418 208.056 185.169 207.42 185.704C206.796 186.251 205.848 186.525 204.575 186.525H201.654ZM202.494 176.998H203.62C204.193 176.998 204.626 176.916 204.919 176.75C205.224 176.572 205.434 176.343 205.549 176.063C205.663 175.783 205.721 175.471 205.721 175.127C205.721 174.618 205.638 174.217 205.472 173.925C205.307 173.619 205.078 173.403 204.785 173.275C204.505 173.135 204.161 173.065 203.754 173.065H202.685C202.036 173.065 201.527 173.212 201.158 173.505C200.801 173.797 200.623 174.3 200.623 175.013C200.623 175.713 200.789 176.222 201.12 176.54C201.45 176.846 201.909 176.998 202.494 176.998ZM210.152 181.828V167.262H212.061V172.722C212.507 172.391 213.048 172.098 213.684 171.844C214.32 171.576 214.976 171.443 215.65 171.443C216.389 171.443 216.987 171.595 217.445 171.901C217.916 172.206 218.26 172.626 218.476 173.161C218.692 173.683 218.801 174.275 218.801 174.936V181.828H216.891V175.166C216.891 174.771 216.809 174.427 216.643 174.135C216.49 173.829 216.268 173.594 215.975 173.428C215.695 173.263 215.358 173.18 214.963 173.18C214.581 173.18 214.225 173.218 213.894 173.295C213.576 173.371 213.27 173.479 212.978 173.619C212.685 173.759 212.379 173.918 212.061 174.096V181.828H210.152ZM224.945 181.828C224.258 181.828 223.685 181.72 223.227 181.504C222.781 181.275 222.45 180.912 222.234 180.416C222.03 179.919 221.935 179.257 221.948 178.43L222.024 173.18H220.401V171.939L222.062 171.615L222.349 168.751H223.857V171.615H226.625V173.18H223.857V178.411C223.857 178.806 223.895 179.124 223.971 179.366C224.048 179.607 224.156 179.792 224.296 179.919C224.436 180.047 224.589 180.142 224.754 180.206C224.919 180.257 225.079 180.288 225.231 180.301L226.491 180.416V181.828H224.945ZM232.124 181.943C231.856 181.943 231.538 181.937 231.169 181.924C230.8 181.911 230.418 181.886 230.024 181.848C229.642 181.822 229.285 181.79 228.955 181.752C228.636 181.714 228.382 181.669 228.191 181.618V180.473H232.486C232.856 180.473 233.174 180.447 233.441 180.397C233.708 180.333 233.912 180.206 234.052 180.015C234.205 179.824 234.281 179.544 234.281 179.175V178.755C234.281 178.373 234.154 178.074 233.899 177.857C233.645 177.641 233.225 177.533 232.639 177.533H231.15C230.552 177.533 230.017 177.457 229.546 177.304C229.088 177.138 228.725 176.865 228.458 176.483C228.204 176.101 228.076 175.586 228.076 174.936V174.383C228.076 173.734 228.197 173.199 228.439 172.779C228.694 172.359 229.095 172.047 229.642 171.844C230.189 171.627 230.915 171.519 231.818 171.519C232.2 171.519 232.62 171.538 233.078 171.576C233.549 171.602 234.007 171.64 234.453 171.691C234.898 171.742 235.255 171.799 235.522 171.863V173.008H231.475C230.915 173.008 230.482 173.104 230.176 173.295C229.884 173.486 229.737 173.848 229.737 174.383V174.765C229.737 175.096 229.807 175.35 229.947 175.528C230.087 175.706 230.285 175.821 230.539 175.872C230.806 175.923 231.118 175.948 231.475 175.948H233.002C233.969 175.948 234.701 176.177 235.197 176.636C235.694 177.081 235.942 177.711 235.942 178.526V179.308C235.942 179.996 235.783 180.53 235.465 180.912C235.147 181.294 234.701 181.561 234.128 181.714C233.568 181.867 232.9 181.943 232.124 181.943ZM86.7309 208.848C86.1072 208.848 85.579 208.739 85.1463 208.523C84.7263 208.307 84.4081 207.963 84.1917 207.492C83.9881 207.008 83.8862 206.359 83.8862 205.545V194.262H85.7954V205.297C85.7954 205.831 85.8463 206.245 85.9481 206.537C86.0627 206.817 86.2154 207.015 86.4063 207.129C86.6099 207.244 86.8454 207.32 87.1127 207.358L88.0673 207.473V208.848H86.7309ZM91.6527 208.943C90.9018 208.943 90.2781 208.72 89.7817 208.275C89.2981 207.817 89.0563 207.187 89.0563 206.385V205.583C89.0563 204.794 89.3236 204.151 89.8581 203.655C90.4054 203.146 91.2263 202.891 92.3209 202.891H95.5092V201.822C95.5092 201.427 95.4392 201.096 95.2992 200.829C95.1719 200.549 94.9301 200.339 94.5737 200.199C94.2173 200.059 93.6891 199.989 92.9891 199.989H89.8581V198.863C90.3163 198.761 90.8509 198.672 91.4618 198.595C92.0854 198.519 92.8109 198.475 93.6382 198.462C94.4782 198.462 95.1782 198.57 95.7383 198.786C96.311 198.99 96.7374 199.334 97.0174 199.817C97.2974 200.288 97.4374 200.918 97.4374 201.707V208.828H95.9292L95.6046 207.702C95.5282 207.753 95.3692 207.848 95.1273 207.988C94.8855 208.116 94.5737 208.256 94.1919 208.408C93.8228 208.561 93.4155 208.688 92.97 208.79C92.5373 208.892 92.0982 208.943 91.6527 208.943ZM92.5309 207.549C92.7218 207.562 92.9445 207.543 93.1991 207.492C93.4664 207.441 93.7273 207.384 93.9818 207.32C94.2491 207.244 94.4909 207.167 94.7073 207.091C94.9364 207.015 95.121 206.951 95.261 206.9C95.4137 206.837 95.4964 206.798 95.5092 206.786V203.846L92.8364 203.96C92.1745 203.998 91.6972 204.164 91.4045 204.457C91.1245 204.749 90.9845 205.131 90.9845 205.602V206.06C90.9845 206.429 91.0609 206.728 91.2136 206.957C91.3663 207.174 91.5572 207.327 91.7863 207.416C92.0282 207.505 92.2764 207.549 92.5309 207.549ZM103.831 208.943C103.233 208.943 102.679 208.867 102.17 208.714C101.674 208.548 101.235 208.275 100.853 207.893C100.484 207.511 100.197 206.983 99.9937 206.308C99.79 205.634 99.6882 204.781 99.6882 203.75C99.6882 202.694 99.7837 201.828 99.9746 201.154C100.166 200.466 100.439 199.932 100.796 199.55C101.165 199.155 101.61 198.882 102.132 198.729C102.654 198.576 103.239 198.5 103.888 198.5C104.423 198.5 104.983 198.525 105.568 198.576C106.167 198.627 106.746 198.71 107.306 198.825V199.951H104.423C103.799 199.951 103.277 200.053 102.857 200.256C102.437 200.447 102.126 200.823 101.922 201.383C101.718 201.93 101.616 202.726 101.616 203.769C101.616 204.775 101.725 205.551 101.941 206.098C102.157 206.633 102.469 206.996 102.876 207.187C103.296 207.377 103.818 207.473 104.442 207.473H107.458V208.561C107.166 208.638 106.816 208.708 106.408 208.771C106.014 208.822 105.594 208.86 105.148 208.886C104.716 208.924 104.277 208.943 103.831 208.943ZM109.391 208.828V194.262H111.3V202.528H112.694L115.539 198.615H117.524L114.107 203.387L117.772 208.828H115.768L112.637 204.247H111.3V208.828H109.391ZM119.614 196.896C119.385 196.896 119.271 196.788 119.271 196.572V194.968C119.271 194.739 119.385 194.624 119.614 194.624H121.027C121.129 194.624 121.205 194.656 121.256 194.72C121.307 194.784 121.332 194.866 121.332 194.968V196.572C121.332 196.788 121.231 196.896 121.027 196.896H119.614ZM119.347 208.828V198.615H121.256V208.828H119.347ZM123.933 208.828V198.615H125.461L125.843 199.722C126.301 199.391 126.842 199.098 127.465 198.844C128.102 198.576 128.757 198.443 129.432 198.443C130.195 198.443 130.806 198.608 131.264 198.939C131.735 199.257 132.073 199.684 132.276 200.218C132.48 200.753 132.582 201.332 132.582 201.956V208.828H130.673V202.185C130.673 201.777 130.59 201.427 130.424 201.135C130.272 200.829 130.055 200.594 129.775 200.428C129.495 200.263 129.152 200.18 128.744 200.18C128.363 200.18 128.006 200.218 127.675 200.295C127.357 200.371 127.052 200.479 126.759 200.619C126.466 200.746 126.161 200.906 125.843 201.096V208.828H123.933ZM137.733 213.525C137.084 213.525 136.505 213.429 135.996 213.239C135.5 213.06 135.105 212.78 134.812 212.399C134.52 212.029 134.373 211.571 134.373 211.024V210.604C134.373 210.031 134.532 209.548 134.851 209.153C135.182 208.771 135.595 208.478 136.092 208.275C136.588 208.071 137.103 207.969 137.638 207.969L138.153 208.676C137.81 208.676 137.485 208.727 137.18 208.828C136.887 208.943 136.645 209.115 136.454 209.344C136.276 209.586 136.187 209.891 136.187 210.26V210.623C136.187 211.158 136.365 211.546 136.722 211.788C137.091 212.029 137.593 212.15 138.23 212.15H140.463C141.138 212.15 141.673 212.017 142.067 211.749C142.462 211.495 142.659 211.094 142.659 210.547V210.184C142.659 209.878 142.589 209.611 142.449 209.382C142.322 209.153 142.112 208.975 141.819 208.848C141.526 208.733 141.125 208.676 140.616 208.676H137.791C136.887 208.676 136.2 208.491 135.729 208.122C135.258 207.753 135.022 207.288 135.022 206.728C135.022 206.219 135.169 205.812 135.462 205.507C135.767 205.188 136.193 204.972 136.741 204.857C136.282 204.654 135.92 204.393 135.652 204.075C135.398 203.756 135.22 203.413 135.118 203.044C135.016 202.662 134.965 202.28 134.965 201.898C134.965 201.122 135.124 200.492 135.442 200.008C135.761 199.525 136.219 199.168 136.817 198.939C137.428 198.71 138.153 198.595 138.993 198.595H144.492V199.684L142.411 199.894C142.564 200.008 142.729 200.161 142.907 200.352C143.085 200.53 143.238 200.778 143.365 201.096C143.493 201.415 143.556 201.835 143.556 202.356C143.556 202.904 143.435 203.413 143.194 203.884C142.964 204.355 142.583 204.737 142.048 205.029C141.526 205.322 140.814 205.468 139.91 205.468H138.23C137.746 205.468 137.364 205.538 137.084 205.678C136.804 205.818 136.664 206.067 136.664 206.423C136.664 206.716 136.773 206.919 136.989 207.034C137.205 207.148 137.434 207.206 137.676 207.206H140.903C141.679 207.206 142.328 207.307 142.85 207.511C143.384 207.715 143.785 208.027 144.053 208.447C144.32 208.867 144.454 209.414 144.454 210.088V210.451C144.454 211.418 144.135 212.169 143.499 212.704C142.875 213.251 141.927 213.525 140.654 213.525H137.733ZM138.573 203.998H139.7C140.273 203.998 140.705 203.916 140.998 203.75C141.304 203.572 141.514 203.343 141.628 203.063C141.743 202.783 141.8 202.471 141.8 202.127C141.8 201.618 141.717 201.217 141.552 200.925C141.386 200.619 141.157 200.403 140.864 200.275C140.584 200.135 140.241 200.065 139.833 200.065H138.764C138.115 200.065 137.606 200.212 137.237 200.505C136.881 200.797 136.703 201.3 136.703 202.013C136.703 202.713 136.868 203.222 137.199 203.54C137.53 203.846 137.988 203.998 138.573 203.998ZM151.303 208.828V198.615H152.773L153.212 200.333C153.644 199.811 154.128 199.372 154.663 199.015C155.197 198.659 155.821 198.481 156.534 198.481C156.699 198.481 156.858 198.494 157.011 198.519C157.164 198.532 157.31 198.557 157.45 198.595V200.562C157.272 200.536 157.087 200.517 156.896 200.505C156.705 200.479 156.508 200.466 156.305 200.466C155.872 200.466 155.484 200.517 155.14 200.619C154.796 200.721 154.465 200.88 154.147 201.096C153.842 201.3 153.53 201.555 153.212 201.86V208.828H151.303ZM163.273 208.943C162.191 208.943 161.326 208.784 160.677 208.466C160.04 208.148 159.582 207.613 159.302 206.862C159.035 206.098 158.901 205.048 158.901 203.712C158.901 202.35 159.035 201.294 159.302 200.543C159.582 199.779 160.04 199.245 160.677 198.939C161.313 198.634 162.172 198.481 163.254 198.481C164.196 198.481 164.953 198.583 165.526 198.786C166.111 198.977 166.538 199.327 166.805 199.836C167.085 200.333 167.225 201.026 167.225 201.917C167.225 202.541 167.098 203.037 166.843 203.406C166.601 203.776 166.251 204.043 165.793 204.208C165.348 204.374 164.813 204.457 164.19 204.457H160.81C160.823 205.195 160.906 205.787 161.059 206.232C161.224 206.665 161.51 206.983 161.918 207.187C162.338 207.377 162.949 207.473 163.75 207.473H166.939V208.618C166.391 208.695 165.831 208.765 165.259 208.828C164.686 208.905 164.024 208.943 163.273 208.943ZM160.791 203.254H164.018C164.527 203.254 164.902 203.158 165.144 202.967C165.386 202.776 165.507 202.426 165.507 201.917C165.507 201.408 165.431 201.007 165.278 200.715C165.138 200.422 164.902 200.212 164.571 200.085C164.24 199.957 163.801 199.894 163.254 199.894C162.63 199.894 162.134 199.989 161.765 200.18C161.409 200.371 161.154 200.708 161.001 201.192C160.861 201.676 160.791 202.363 160.791 203.254ZM172.4 208.848C171.776 208.848 171.248 208.739 170.815 208.523C170.395 208.307 170.077 207.963 169.86 207.492C169.657 207.008 169.555 206.359 169.555 205.545V194.262H171.464V205.297C171.464 205.831 171.515 206.245 171.617 206.537C171.731 206.817 171.884 207.015 172.075 207.129C172.279 207.244 172.514 207.32 172.781 207.358L173.736 207.473V208.848H172.4ZM179.307 208.943C178.225 208.943 177.36 208.784 176.711 208.466C176.074 208.148 175.616 207.613 175.336 206.862C175.069 206.098 174.935 205.048 174.935 203.712C174.935 202.35 175.069 201.294 175.336 200.543C175.616 199.779 176.074 199.245 176.711 198.939C177.347 198.634 178.206 198.481 179.288 198.481C180.23 198.481 180.987 198.583 181.56 198.786C182.145 198.977 182.572 199.327 182.839 199.836C183.119 200.333 183.259 201.026 183.259 201.917C183.259 202.541 183.132 203.037 182.877 203.406C182.635 203.776 182.285 204.043 181.827 204.208C181.382 204.374 180.847 204.457 180.223 204.457H176.844C176.857 205.195 176.94 205.787 177.092 206.232C177.258 206.665 177.544 206.983 177.951 207.187C178.371 207.377 178.982 207.473 179.784 207.473H182.973V208.618C182.425 208.695 181.865 208.765 181.292 208.828C180.72 208.905 180.058 208.943 179.307 208.943ZM176.825 203.254H180.052C180.561 203.254 180.936 203.158 181.178 202.967C181.42 202.776 181.541 202.426 181.541 201.917C181.541 201.408 181.464 201.007 181.312 200.715C181.172 200.422 180.936 200.212 180.605 200.085C180.274 199.957 179.835 199.894 179.288 199.894C178.664 199.894 178.168 199.989 177.799 200.18C177.442 200.371 177.188 200.708 177.035 201.192C176.895 201.676 176.825 202.363 176.825 203.254ZM188.094 208.828L184.39 198.615H186.357L189.24 207.053L192.18 198.615H194.146L190.309 208.828H188.094ZM197.476 208.943C196.725 208.943 196.101 208.72 195.605 208.275C195.121 207.817 194.879 207.187 194.879 206.385V205.583C194.879 204.794 195.146 204.151 195.681 203.655C196.228 203.146 197.049 202.891 198.144 202.891H201.332V201.822C201.332 201.427 201.262 201.096 201.122 200.829C200.995 200.549 200.753 200.339 200.396 200.199C200.04 200.059 199.512 199.989 198.812 199.989H195.681V198.863C196.139 198.761 196.674 198.672 197.285 198.595C197.908 198.519 198.634 198.475 199.461 198.462C200.301 198.462 201.001 198.57 201.561 198.786C202.134 198.99 202.56 199.334 202.84 199.817C203.12 200.288 203.26 200.918 203.26 201.707V208.828H201.752L201.427 207.702C201.351 207.753 201.192 207.848 200.95 207.988C200.708 208.116 200.396 208.256 200.015 208.408C199.646 208.561 199.238 208.688 198.793 208.79C198.36 208.892 197.921 208.943 197.476 208.943ZM198.354 207.549C198.545 207.562 198.767 207.543 199.022 207.492C199.289 207.441 199.55 207.384 199.805 207.32C200.072 207.244 200.314 207.167 200.53 207.091C200.759 207.015 200.944 206.951 201.084 206.9C201.237 206.837 201.319 206.798 201.332 206.786V203.846L198.659 203.96C197.997 203.998 197.52 204.164 197.227 204.457C196.947 204.749 196.807 205.131 196.807 205.602V206.06C196.807 206.429 196.884 206.728 197.036 206.957C197.189 207.174 197.38 207.327 197.609 207.416C197.851 207.505 198.099 207.549 198.354 207.549ZM205.855 208.828V198.615H207.382L207.764 199.722C208.222 199.391 208.763 199.098 209.387 198.844C210.023 198.576 210.678 198.443 211.353 198.443C212.117 198.443 212.728 198.608 213.186 198.939C213.657 199.257 213.994 199.684 214.198 200.218C214.401 200.753 214.503 201.332 214.503 201.956V208.828H212.594V202.185C212.594 201.777 212.511 201.427 212.346 201.135C212.193 200.829 211.977 200.594 211.697 200.428C211.417 200.263 211.073 200.18 210.666 200.18C210.284 200.18 209.928 200.218 209.597 200.295C209.278 200.371 208.973 200.479 208.68 200.619C208.387 200.746 208.082 200.906 207.764 201.096V208.828H205.855ZM220.915 208.943C220.317 208.943 219.763 208.867 219.254 208.714C218.757 208.548 218.318 208.275 217.937 207.893C217.567 207.511 217.281 206.983 217.077 206.308C216.874 205.634 216.772 204.781 216.772 203.75C216.772 202.694 216.867 201.828 217.058 201.154C217.249 200.466 217.523 199.932 217.879 199.55C218.248 199.155 218.694 198.882 219.216 198.729C219.737 198.576 220.323 198.5 220.972 198.5C221.507 198.5 222.067 198.525 222.652 198.576C223.25 198.627 223.829 198.71 224.389 198.825V199.951H221.507C220.883 199.951 220.361 200.053 219.941 200.256C219.521 200.447 219.209 200.823 219.006 201.383C218.802 201.93 218.7 202.726 218.7 203.769C218.7 204.775 218.808 205.551 219.025 206.098C219.241 206.633 219.553 206.996 219.96 207.187C220.38 207.377 220.902 207.473 221.526 207.473H224.542V208.561C224.249 208.638 223.899 208.708 223.492 208.771C223.098 208.822 222.678 208.86 222.232 208.886C221.799 208.924 221.36 208.943 220.915 208.943ZM230.503 208.943C229.421 208.943 228.556 208.784 227.907 208.466C227.27 208.148 226.812 207.613 226.532 206.862C226.265 206.098 226.131 205.048 226.131 203.712C226.131 202.35 226.265 201.294 226.532 200.543C226.812 199.779 227.27 199.245 227.907 198.939C228.543 198.634 229.402 198.481 230.484 198.481C231.426 198.481 232.183 198.583 232.756 198.786C233.341 198.977 233.768 199.327 234.035 199.836C234.315 200.333 234.455 201.026 234.455 201.917C234.455 202.541 234.328 203.037 234.073 203.406C233.831 203.776 233.481 204.043 233.023 204.208C232.578 204.374 232.043 204.457 231.42 204.457H228.04C228.053 205.195 228.136 205.787 228.289 206.232C228.454 206.665 228.74 206.983 229.148 207.187C229.568 207.377 230.179 207.473 230.98 207.473H234.169V208.618C233.621 208.695 233.061 208.765 232.489 208.828C231.916 208.905 231.254 208.943 230.503 208.943ZM228.021 203.254H231.248C231.757 203.254 232.132 203.158 232.374 202.967C232.616 202.776 232.737 202.426 232.737 201.917C232.737 201.408 232.66 201.007 232.508 200.715C232.368 200.422 232.132 200.212 231.801 200.085C231.47 199.957 231.031 199.894 230.484 199.894C229.86 199.894 229.364 199.989 228.995 200.18C228.639 200.371 228.384 200.708 228.231 201.192C228.091 201.676 228.021 202.363 228.021 203.254Z" fill="#3D4651"/>
<path d="M128.736 88.8957L129.229 86.7011C130.558 82.4571 134.525 79.3205 138.984 79.0216C144.356 78.6613 150.129 79.3015 155.544 79.026C158.079 79.4201 158.143 82.8951 155.643 83.4034C150.302 83.7345 144.489 82.9947 139.203 83.4093C135.983 83.6613 133.404 86.2939 133.119 89.4949C133.52 96.9429 132.6 104.927 133.119 112.314C133.322 115.219 135.487 117.806 138.364 118.363C139.433 118.569 140.553 118.327 141.346 119.218C141.52 119.413 141.895 120.084 141.895 120.314V122.453C142.927 122.183 143.941 121.442 144.633 120.641C145.324 119.839 145.65 118.686 146.893 118.515L174.297 118.509C177.596 118.266 180.182 115.698 180.485 112.418L180.535 90.5365C181.206 88.2877 184.147 88.3522 184.872 90.5424V113.023C184.659 114.079 184.455 115.088 184.046 116.089C182.453 119.977 178.808 122.535 174.626 122.895L148.363 122.947C146.51 125.403 143.321 127.208 140.2 127.283C137.079 127.358 137.496 125.027 137.494 122.687C133.692 121.868 130.353 118.969 129.229 115.217C129.013 114.496 128.932 113.746 128.736 113.023V88.8957Z" fill="#DA4436"/>
<path d="M179.059 71.1311C180.743 71.4446 182.227 72.1625 183.338 73.4868C184.195 74.5079 184.604 75.655 184.87 76.9442C184.831 77.4379 184.924 77.9975 184.87 78.4795C184.747 79.5724 184.091 81.0271 183.391 81.8798L164.028 101.224C163.759 101.389 163.508 101.587 163.235 101.745C161.818 102.56 156.609 103.636 154.87 103.796C153.004 103.967 152.037 102.87 152.227 101.043C152.453 98.8722 153.517 93.5323 154.832 91.915L174.124 72.6107C174.976 71.9119 176.432 71.2542 177.524 71.1311H179.059ZM177.937 75.5466C177.738 75.573 177.529 75.6491 177.339 75.7165C170.76 81.9999 164.267 88.4913 157.988 95.072L157.172 98.6466L157.292 98.8708C158.66 98.3844 160.347 98.5558 161.517 97.6138L179.882 79.2457C181.275 77.6459 180.096 75.258 177.937 75.5451V75.5466Z" fill="#DA4436"/>
<path d="M139.233 109.758L170.562 109.733C173.262 110.007 173.262 113.843 170.562 114.116H139.537C136.978 113.857 136.803 110.38 139.233 109.758Z" fill="#DA4436"/>
<path d="M139.232 100.982C140.213 100.815 143.089 100.86 144.144 100.951C146.995 101.197 146.908 105.022 144.347 105.328C143.23 105.463 140.783 105.444 139.641 105.344C136.807 105.098 136.952 101.368 139.234 100.98L139.232 100.982Z" fill="#DA4436"/>
<path d="M139.344 92.2149C140.412 92.0582 143.029 92.086 144.143 92.1827C146.994 92.4288 146.907 96.2539 144.346 96.5601C143.229 96.6949 140.782 96.6758 139.64 96.5762C136.822 96.3316 136.879 92.5768 139.344 92.2149Z" fill="#DA4436"/>
<defs>
<filter id="filter0_d_6111_28417" x="10.5355" y="11.1382" width="305.788" height="292.125" filterUnits="userSpaceOnUse" color-interpolation-filters="sRGB">
<feFlood flood-opacity="0" result="BackgroundImageFix"/>
<feColorMatrix in="SourceAlpha" type="matrix" values="0 0 0 0 0 0 0 0 0 0 0 0 0 0 0 0 0 0 127 0" result="hardAlpha"/>
<feOffset/>
<feGaussianBlur stdDeviation="10.5968"/>
<feComposite in2="hardAlpha" operator="out"/>
<feColorMatrix type="matrix" values="0 0 0 0 0 0 0 0 0 0 0 0 0 0 0 0 0 0 0.25 0"/>
<feBlend mode="normal" in2="BackgroundImageFix" result="effect1_dropShadow_6111_28417"/>
<feBlend mode="normal" in="SourceGraphic" in2="effect1_dropShadow_6111_28417" result="shape"/>
</filter>
<clipPath id="clip0_6111_28417">
<rect width="37.9562" height="37.9562" fill="white" transform="translate(12.6953 109.678)"/>
</clipPath>
</defs>
</svg>
