<svg width="293" height="293" viewBox="0 0 293 293" fill="none" xmlns="http://www.w3.org/2000/svg">
<path d="M156.59 6.04767L156.909 3.83968L156.75 3.81677H156.59V6.04767ZM171.738 8.27716L172.205 6.09566L172.204 6.09533L171.738 8.27716ZM282.453 110.744L280.314 111.377L280.314 111.377L282.453 110.744ZM286.872 136.363L284.672 136.732L284.672 136.735L286.872 136.363ZM287.358 139.024H289.589V138.815L289.55 138.609L287.358 139.024ZM287.358 154.959L289.57 155.253L289.589 155.107V154.959H287.358ZM285.412 169.577H283.181L287.615 169.931L285.412 169.577ZM285.412 169.572H287.643L283.209 169.219L285.412 169.572ZM271.275 212.044L269.294 211.019L269.294 211.019L271.275 212.044ZM270.886 215.606L268.728 216.173L268.729 216.176L270.886 215.606ZM286.699 274.813L284.545 275.392L284.554 275.428L284.565 275.464L286.699 274.813ZM286.802 275.185L288.946 274.571L288.941 274.553L288.936 274.535L286.802 275.185ZM287.358 276.394H289.589V275.898L289.379 275.449L287.358 276.394ZM287.358 280.789L289.432 281.611L289.589 281.215V280.789H287.358ZM280.761 287.385V289.615H281.191L281.59 289.456L280.761 287.385ZM276.364 287.385L275.766 289.534L276.059 289.615H276.364V287.385ZM274.969 286.991L274.367 289.139L274.37 289.14L274.969 286.991ZM256.11 281.722L256.697 279.57L256.694 279.569L256.11 281.722ZM216.128 271.04L215.562 273.198L215.567 273.199L216.128 271.04ZM211.547 271.531L210.534 269.543L210.53 269.545L211.547 271.531ZM156.498 286.931L156.634 289.158L156.646 289.157L156.498 286.931ZM154.389 287.385V289.615H154.634L154.874 289.562L154.389 287.385ZM139.554 287.385L139.268 289.597L139.41 289.615H139.554V287.385ZM123.275 285.247L123.659 283.049L123.658 283.049L123.275 285.247ZM36.1338 233.528L34.382 234.909L34.3821 234.91L36.1338 233.528ZM6.15625 139.926L3.92724 139.834L3.92721 139.834L6.15625 139.926ZM118.949 8.8006L118.526 6.61029L118.525 6.6105L118.949 8.8006ZM137.358 6.04767V3.81677H137.194L137.032 3.84073L137.358 6.04767ZM156.59 6.04767V3.81677H151.782V6.04767V8.27857H156.59V6.04767ZM142.166 6.04767V3.81677L137.358 3.81677V6.04767V8.27857H142.166V6.04767ZM137.358 6.04767L137.032 3.84073C135.512 4.06538 133.985 4.27575 132.45 4.48405L132.75 6.6947L133.049 8.90535C134.589 8.69646 136.137 8.48323 137.684 8.25461L137.358 6.04767ZM123.534 8.00081L123.185 5.79734C121.633 6.04295 120.078 6.30997 118.526 6.61029L118.949 8.8006L119.373 10.9909C120.865 10.7023 122.369 10.4439 123.882 10.2043L123.534 8.00081ZM118.949 8.8006L118.525 6.6105C117.229 6.8617 115.94 7.13093 114.658 7.41787L115.145 9.59493L115.632 11.772C116.873 11.4943 118.12 11.2338 119.374 10.9907L118.949 8.8006ZM107.623 11.5049L107.013 9.35916C104.474 10.0816 101.964 10.8742 99.4861 11.7346L100.218 13.8421L100.95 15.9495C103.348 15.1168 105.777 14.3497 108.234 13.6506L107.623 11.5049ZM92.9588 16.5956L92.1088 14.533C89.6721 15.5371 87.2697 16.6078 84.9038 17.7427L85.8687 19.7542L86.8336 21.7656C89.1242 20.6668 91.45 19.6302 93.8087 18.6582L92.9588 16.5956ZM78.9651 23.3073L77.889 21.3531C75.5821 22.6233 73.3143 23.956 71.088 25.3487L72.2711 27.2401L73.4542 29.1314C75.6107 27.7824 77.807 26.4917 80.0411 25.2616L78.9651 23.3073ZM65.8065 31.5375L64.5206 29.7145C62.3702 31.2313 60.2637 32.806 58.2034 34.4361L59.5876 36.1857L60.9717 37.9352C62.9681 36.3557 65.009 34.83 67.0924 33.3605L65.8065 31.5375ZM53.6333 41.1677L52.1554 39.4965C50.1855 41.2386 48.2641 43.0337 46.3935 44.8792L47.9603 46.4673L49.5271 48.0554C51.34 46.2667 53.2021 44.5271 55.1111 42.8389L53.6333 41.1677ZM42.584 52.0683L40.9331 50.5678C39.165 52.5131 37.4501 54.5063 35.7904 56.5448L37.5204 57.9533L39.2505 59.3618C40.859 57.386 42.5212 55.4542 44.2349 53.5688L42.584 52.0683ZM32.7844 64.1052L30.9802 62.793C29.4346 64.9181 27.9463 67.0858 26.5178 69.2938L28.3908 70.5057L30.2639 71.7175C31.6482 69.5779 33.0905 67.477 34.5885 65.4175L32.7844 64.1052ZM24.3535 77.1369L22.4169 76.0295C21.1127 78.3101 19.8702 80.6281 18.6915 82.9811L20.6861 83.9802L22.6807 84.9794C23.8226 82.7 25.0264 80.4541 26.2901 78.2444L24.3535 77.1369ZM17.4026 91.0143L15.3558 90.1271C14.3114 92.5365 13.3325 94.978 12.4214 97.449L14.5145 98.2208L16.6076 98.9926C17.49 96.5998 18.438 94.2352 19.4495 91.9015L17.4026 91.0143ZM12.0336 105.578L9.90044 104.925C9.13219 107.434 8.43286 109.969 7.80461 112.529L9.9712 113.061L12.1378 113.593C12.7459 111.115 13.4229 108.66 14.1667 106.231L12.0336 105.578ZM8.33519 120.65L6.14191 120.242C5.66223 122.821 5.25433 125.421 4.9203 128.04L7.13326 128.322L9.34623 128.605C9.66948 126.07 10.0642 123.554 10.5285 121.058L8.33519 120.65ZM6.37158 136.045L4.1461 135.889C4.05453 137.2 3.98149 138.515 3.92724 139.834L6.15625 139.926L8.38526 140.017C8.43776 138.741 8.50844 137.469 8.59705 136.2L6.37158 136.045ZM6.15625 139.926L3.92721 139.834C3.86916 141.255 3.82956 142.669 3.80846 144.079L6.03911 144.112L8.26976 144.146C8.29028 142.775 8.32879 141.399 8.38529 140.017L6.15625 139.926ZM6.1372 152.482L3.90798 152.569C4.01878 155.419 4.20801 158.245 4.47607 161.049L6.69683 160.836L8.9176 160.624C8.65766 157.906 8.474 155.163 8.36641 152.396L6.1372 152.482ZM7.73666 169.142L5.5322 169.485C5.96912 172.297 6.48859 175.085 7.09101 177.847L9.27066 177.372L11.4503 176.896C10.8673 174.223 10.3643 171.524 9.94112 168.8L7.73666 169.142ZM11.3066 185.492L9.16058 186.101C9.9361 188.832 10.7961 191.535 11.7411 194.212L13.8447 193.469L15.9483 192.726C15.0345 190.138 14.2027 187.523 13.4526 184.882L11.3066 185.492ZM16.8782 201.271L14.8252 202.144C15.932 204.747 17.1226 207.321 18.3974 209.868L20.3923 208.869L22.3871 207.87C21.1535 205.406 20.0016 202.915 18.9311 200.398L16.8782 201.271ZM24.3661 216.236L22.4355 217.354C23.8472 219.792 25.3397 222.202 26.9131 224.584L28.7745 223.354L30.6359 222.125C29.1103 219.815 27.664 217.48 26.2966 215.118L24.3661 216.236ZM33.5853 230.204L31.7964 231.537C32.6391 232.668 33.501 233.792 34.382 234.909L36.1338 233.528L37.8856 232.147C37.0295 231.061 36.1924 229.969 35.3742 228.871L33.5853 230.204ZM36.1338 233.528L34.3821 234.91C35.1611 235.897 35.9485 236.872 36.7443 237.834L38.4629 236.411L40.1815 234.989C39.4083 234.054 38.643 233.107 37.8855 232.147L36.1338 233.528ZM43.3251 242.004L41.678 243.509C43.3806 245.372 45.1181 247.181 46.8905 248.933L48.459 247.347L50.0275 245.76C48.3096 244.062 46.6244 242.308 44.9722 240.499L43.3251 242.004ZM53.8616 252.416L52.3786 254.082C54.262 255.758 56.1815 257.376 58.1368 258.935L59.5276 257.19L60.9184 255.446C59.0263 253.937 57.1683 252.372 55.3445 250.749L53.8616 252.416ZM65.4458 261.649L64.1531 263.467C66.2031 264.924 68.2894 266.322 70.4117 267.659L71.6012 265.772L72.7907 263.885C70.7386 262.591 68.7211 261.24 66.7384 259.83L65.4458 261.649ZM77.9769 269.547L76.8943 271.497C79.0872 272.714 81.3155 273.871 83.5791 274.969L84.5522 272.961L85.5253 270.954C83.3354 269.892 81.1801 268.773 79.0595 267.596L77.9769 269.547ZM91.3057 276.01L90.4433 278.067C92.7488 279.033 95.0882 279.941 97.4614 280.791L98.2132 278.69L98.965 276.59C96.6656 275.767 94.3999 274.888 92.168 273.952L91.3057 276.01ZM105.251 281.005L104.608 283.142C106.994 283.859 109.412 284.521 111.861 285.128L112.397 282.962L112.933 280.797C110.554 280.208 108.208 279.565 105.893 278.869L105.251 281.005ZM119.632 284.57L119.199 286.759C120.423 287 121.654 287.229 122.893 287.445L123.275 285.247L123.658 283.049C122.452 282.839 121.254 282.617 120.064 282.381L119.632 284.57ZM123.275 285.247L122.892 287.445C124.27 287.685 125.648 287.896 127.022 288.088L127.331 285.879L127.641 283.67C126.304 283.482 124.977 283.279 123.659 283.049L123.275 285.247ZM135.479 286.887L135.218 289.102C136.576 289.262 137.924 289.423 139.268 289.597L139.554 287.385L139.84 285.172C138.47 284.995 137.101 284.831 135.74 284.671L135.479 286.887ZM139.554 287.385V289.615H143.262V287.385V285.154H139.554V287.385ZM150.68 287.385V289.615H154.389V287.385V285.154H150.68V287.385ZM154.389 287.385L154.874 289.562C155.093 289.513 155.303 289.459 155.484 289.411L154.913 287.254L154.342 285.098C154.174 285.142 154.034 285.178 153.904 285.207L154.389 287.385ZM155.963 287L156.367 289.193C156.478 289.173 156.565 289.162 156.634 289.158L156.498 286.931L156.362 284.705C156.073 284.722 155.803 284.761 155.558 284.806L155.963 287ZM156.498 286.931L156.646 289.157C157.865 289.077 159.079 288.98 160.289 288.869L160.085 286.647L159.88 284.426C158.708 284.534 157.531 284.627 156.35 284.705L156.498 286.931ZM167.23 285.802L167.549 288.01C169.969 287.66 172.371 287.248 174.756 286.775L174.321 284.587L173.887 282.398C171.578 282.857 169.253 283.256 166.91 283.594L167.23 285.802ZM181.339 283.002L181.887 285.164C184.251 284.565 186.596 283.905 188.925 283.184L188.265 281.052L187.605 278.921C185.35 279.62 183.079 280.259 180.791 280.839L181.339 283.002ZM195.081 278.749L195.849 280.844C198.131 280.007 200.396 279.111 202.644 278.158L201.772 276.104L200.901 274.05C198.72 274.975 196.525 275.844 194.313 276.654L195.081 278.749ZM208.325 273.133L209.295 275.142C210.389 274.614 211.478 274.073 212.564 273.517L211.547 271.531L210.53 269.545C209.476 270.085 208.417 270.611 207.356 271.124L208.325 273.133ZM211.547 271.531L212.56 273.519C212.736 273.429 212.961 273.341 213.229 273.269L212.643 271.116L212.057 268.963C211.54 269.104 211.022 269.295 210.534 269.543L211.547 271.531ZM214.969 270.867L214.852 273.095C215.13 273.11 215.37 273.147 215.562 273.198L216.128 271.04L216.693 268.882C216.165 268.743 215.62 268.667 215.085 268.639L214.969 270.867ZM216.128 271.04L215.567 273.199C216.679 273.488 217.79 273.777 218.901 274.068L219.465 271.909L220.029 269.751C218.916 269.46 217.802 269.17 216.688 268.881L216.128 271.04ZM226.136 273.663L225.566 275.82C227.786 276.407 230.007 276.998 232.227 277.591L232.802 275.435L233.378 273.28C231.155 272.686 228.931 272.095 226.707 271.507L226.136 273.663ZM239.464 277.221L238.885 279.375C241.104 279.972 243.323 280.571 245.542 281.171L246.124 279.017L246.706 276.864C244.486 276.263 242.265 275.664 240.044 275.067L239.464 277.221ZM252.782 280.82L252.198 282.973C253.307 283.274 254.417 283.575 255.526 283.876L256.11 281.722L256.694 279.569C255.585 279.268 254.475 278.968 253.365 278.667L252.782 280.82ZM256.11 281.722L255.524 283.875C257.094 284.303 258.663 284.735 260.233 285.171L260.83 283.022L261.427 280.873C259.852 280.435 258.276 280 256.697 279.57L256.11 281.722ZM270.256 285.667L269.651 287.814C271.222 288.256 272.794 288.699 274.367 289.139L274.969 286.991L275.57 284.843C274.001 284.403 272.431 283.962 270.861 283.519L270.256 285.667ZM274.969 286.991L274.37 289.14C274.483 289.172 274.597 289.204 274.711 289.236L275.318 287.089L275.924 284.942C275.806 284.909 275.687 284.875 275.567 284.842L274.969 286.991ZM276.015 287.287L275.409 289.434C275.527 289.467 275.646 289.5 275.766 289.534L276.364 287.385L276.963 285.235C276.85 285.204 276.736 285.172 276.622 285.14L276.015 287.287ZM276.364 287.385V289.615H277.463V287.385V285.154H276.364V287.385ZM279.662 287.385V289.615H280.761V287.385V285.154H279.662V287.385ZM280.761 287.385L281.59 289.456C282.479 289.1 283.317 288.674 284.099 288.175L282.898 286.295L281.697 284.415C281.166 284.754 280.579 285.054 279.932 285.313L280.761 287.385ZM286.271 282.927L288.151 284.13C288.651 283.347 289.078 282.506 289.432 281.611L287.358 280.789L285.284 279.967C285.029 280.613 284.73 281.197 284.392 281.725L286.271 282.927ZM287.358 280.789H289.589V279.69H287.358H285.128V280.789H287.358ZM287.358 277.493H289.589V276.394H287.358H285.128V277.493H287.358ZM287.358 276.394L289.379 275.449C289.313 275.307 289.245 275.176 289.191 275.07L287.21 276.096L285.229 277.123C285.277 277.214 285.31 277.281 285.338 277.339L287.358 276.394ZM286.915 275.499L288.967 274.623C288.949 274.582 288.945 274.567 288.946 274.571L286.802 275.185L284.657 275.799C284.719 276.015 284.792 276.208 284.863 276.374L286.915 275.499ZM286.802 275.185L288.936 274.535C288.935 274.532 288.932 274.524 288.928 274.507L286.775 275.093L284.622 275.678C284.635 275.723 284.65 275.777 284.668 275.836L286.802 275.185ZM286.726 274.906L288.878 274.321C288.866 274.276 288.851 274.222 288.833 274.163L286.699 274.813L284.565 275.464C284.566 275.467 284.569 275.475 284.573 275.492L286.726 274.906ZM286.699 274.813L288.854 274.235C288.523 273.002 288.192 271.769 287.861 270.536L285.706 271.114L283.552 271.692C283.883 272.925 284.214 274.158 284.545 275.392L286.699 274.813ZM283.721 263.715L285.876 263.137C285.214 260.671 284.553 258.205 283.891 255.739L281.737 256.317L279.582 256.894C280.243 259.361 280.905 261.827 281.566 264.294L283.721 263.715ZM279.754 248.917L281.909 248.34C281.249 245.874 280.589 243.408 279.93 240.941L277.775 241.517L275.619 242.093C276.279 244.56 276.939 247.027 277.599 249.494L279.754 248.917ZM275.799 234.116L277.955 233.541C277.298 231.075 276.641 228.608 275.985 226.14L273.829 226.713L271.673 227.286C272.329 229.755 272.986 232.223 273.644 234.691L275.799 234.116ZM271.865 219.309L274.022 218.738C273.695 217.504 273.369 216.27 273.043 215.036L270.886 215.606L268.729 216.176C269.055 217.411 269.382 218.646 269.709 219.88L271.865 219.309ZM270.886 215.606L273.043 215.039C273.014 214.927 272.989 214.775 272.979 214.589L270.751 214.704L268.523 214.82C268.547 215.266 268.61 215.725 268.728 216.173L270.886 215.606ZM270.948 212.895L273.099 213.489C273.148 213.31 273.205 213.169 273.257 213.068L271.275 212.044L269.294 211.019C269.079 211.434 268.917 211.87 268.798 212.301L270.948 212.895ZM271.275 212.044L273.257 213.069C273.84 211.942 274.409 210.809 274.962 209.672L272.956 208.696L270.95 207.719C270.413 208.824 269.861 209.923 269.294 211.019L271.275 212.044ZM276.063 201.879L278.116 202.752C279.11 200.414 280.042 198.056 280.91 195.675L278.814 194.911L276.719 194.146C275.878 196.453 274.974 198.739 274.01 201.006L276.063 201.879ZM281.191 187.806L283.325 188.457C284.065 186.032 284.739 183.585 285.346 181.117L283.18 180.584L281.013 180.051C280.426 182.44 279.773 184.808 279.057 187.156L281.191 187.806ZM284.769 173.263L286.961 173.676C287.196 172.431 287.414 171.181 287.615 169.925L285.412 169.572L283.209 169.219C283.015 170.435 282.804 171.645 282.577 172.85L284.769 173.263ZM285.412 169.572H283.181V169.573H285.412H287.643V169.572H285.412ZM285.412 169.576H283.181V169.577H285.412H287.643V169.576H285.412ZM285.412 169.577L287.615 169.931C287.813 168.698 287.994 167.466 288.164 166.236L285.954 165.93L283.744 165.625C283.577 166.83 283.401 168.03 283.209 169.223L285.412 169.577ZM286.89 158.616L289.104 158.892C289.256 157.674 289.409 156.462 289.57 155.253L287.358 154.959L285.147 154.664C284.984 155.892 284.829 157.118 284.676 158.34L286.89 158.616ZM287.358 154.959H289.589V150.975H287.358H285.128V154.959H287.358ZM287.358 143.008H289.589V139.024H287.358H285.128V143.008H287.358ZM287.358 139.024L289.55 138.609C289.508 138.387 289.467 138.167 289.425 137.947L287.233 138.36L285.04 138.773C285.082 138.995 285.125 139.218 285.166 139.439L287.358 139.024ZM286.988 137.029L289.184 136.638C289.146 136.423 289.108 136.207 289.072 135.991L286.872 136.363L284.672 136.735C284.711 136.965 284.751 137.194 284.791 137.42L286.988 137.029ZM286.872 136.363L289.072 135.994C288.897 134.946 288.734 133.89 288.579 132.827L286.371 133.149L284.164 133.471C284.322 134.557 284.49 135.645 284.672 136.732L286.872 136.363ZM285.492 126.704L287.703 126.407C287.414 124.251 287.113 122.073 286.756 119.904L284.555 120.266L282.354 120.628C282.699 122.728 282.993 124.851 283.281 127L285.492 126.704ZM283.291 113.886L285.461 113.366C285.2 112.277 284.912 111.191 284.592 110.11L282.453 110.744L280.314 111.377C280.61 112.375 280.877 113.385 281.122 114.406L283.291 113.886ZM282.453 110.744L284.592 110.111C284.208 108.813 283.813 107.527 283.408 106.252L281.282 106.929L279.156 107.606C279.552 108.851 279.938 110.108 280.314 111.377L282.453 110.744ZM278.706 99.3949L280.801 98.6274C279.866 96.0755 278.884 93.5723 277.854 91.1181L275.797 91.9809L273.74 92.8437C274.742 95.2335 275.699 97.673 276.611 100.162L278.706 99.3949ZM272.54 84.7137L274.553 83.7512C273.38 81.3 272.157 78.9021 270.882 76.5576L268.922 77.6231L266.962 78.6887C268.2 80.9642 269.388 83.2933 270.527 85.6762L272.54 84.7137ZM264.928 70.7299L266.827 69.5586C265.402 67.2479 263.921 64.9946 262.387 62.7987L260.558 64.0768L258.73 65.3549C260.215 67.48 261.648 69.662 263.03 71.9012L264.928 70.7299ZM255.804 57.6874L257.554 56.3029C255.871 54.1773 254.132 52.1123 252.336 50.1079L250.674 51.5968L249.013 53.0857C250.748 55.0219 252.429 57.0173 254.055 59.072L255.804 57.6874ZM245.179 45.8355L246.745 44.2462C244.82 42.3499 242.837 40.5156 240.797 38.7433L239.334 40.4274L237.871 42.1114C239.841 43.8227 241.755 45.5938 243.613 47.4248L245.179 45.8355ZM233.164 35.3953L234.52 33.6235C232.382 31.988 230.189 30.4139 227.939 28.9011L226.694 30.7523L225.449 32.6036C227.624 34.066 229.744 35.5871 231.808 37.167L233.164 35.3953ZM219.956 26.5076L221.089 24.5857C218.781 23.2255 216.42 21.9241 214.006 20.6816L212.985 22.6652L211.964 24.6488C214.303 25.8529 216.59 27.1132 218.823 28.4295L219.956 26.5076ZM205.804 19.216L206.715 17.1796C204.279 16.0899 201.793 15.0552 199.259 14.0756L198.455 16.1565L197.65 18.2373C200.114 19.1897 202.528 20.1948 204.893 21.2524L205.804 19.216ZM190.958 13.4696L191.66 11.3519C189.134 10.5149 186.562 9.72852 183.946 8.99281L183.342 11.1404L182.738 13.288C185.29 14.0057 187.796 14.7721 190.256 15.5872L190.958 13.4696ZM175.632 9.15181L176.143 6.98028C174.841 6.67368 173.528 6.37881 172.205 6.09566L171.738 8.27716L171.271 10.4587C172.565 10.7355 173.848 11.0238 175.121 11.3233L175.632 9.15181ZM171.738 8.27716L172.204 6.09533C170.911 5.81956 169.616 5.58591 168.326 5.37923L167.973 7.58202L167.62 9.78481C168.853 9.98231 170.07 10.2025 171.273 10.459L171.738 8.27716ZM160.385 6.55402L160.665 4.34072C159.401 4.181 158.15 4.01899 156.909 3.83968L156.59 6.04767L156.271 8.25566C157.553 8.44079 158.835 8.60679 160.105 8.76733L160.385 6.55402Z" fill="#DA4436"/>
<g filter="url(#filter0_d_6111_28398)">
<path d="M155.477 21.825C159.957 22.472 164.499 22.8604 168.926 23.8045C219.674 34.6647 252.513 65.0695 267.225 114.779C269.395 122.107 269.875 129.934 271.148 137.525C271.282 138.321 271.431 139.102 271.58 139.888V154.036C271.004 158.364 270.543 162.711 269.852 167.014V167.01C267.729 180.261 263.465 192.804 257.3 204.719C256.839 205.61 256.7 206.914 256.954 207.882C261.588 225.418 266.294 242.931 270.994 260.448C271.028 260.558 271.052 260.669 271.086 260.779C271.192 261.148 271.412 261.493 271.58 261.852V265.754C270.471 268.553 268.512 270.493 265.722 271.61H261.819C261.406 271.495 260.992 271.376 260.579 271.261C255 269.698 249.43 268.107 243.836 266.583C232.015 263.377 220.193 260.175 208.338 257.098C207.094 256.773 205.418 256.949 204.271 257.534C188.901 265.404 172.647 270.062 155.395 271.208C154.766 271.246 154.147 271.471 153.523 271.61H140.352C135.531 270.987 130.681 270.547 125.899 269.713C94.304 264.215 68.3659 248.946 48.5304 223.794C29.3623 199.485 20.6514 171.582 21.9142 140.688C24.2479 83.9717 66.3733 35.0673 122.058 24.2693C127.46 23.2246 132.953 22.6302 138.403 21.825H155.477Z" fill="white"/>
</g>
<circle cx="229.666" cy="47.8848" r="25.0511" fill="white" stroke="#DA4436" stroke-width="4.55475"/>
<g clip-path="url(#clip0_6111_28398)">
<path d="M220.588 38.1852L240.27 57.8678L220.588 38.1852Z" fill="#DA4436"/>
<path d="M220.588 38.1852L240.27 57.8678" stroke="#DA4436" stroke-width="6.83625" stroke-miterlimit="10" stroke-linecap="round"/>
<path d="M240.27 38.1852L220.588 57.8678L240.27 38.1852Z" fill="#DA4436"/>
<path d="M240.27 38.1852L220.588 57.8678" stroke="#DA4436" stroke-width="6.83625" stroke-miterlimit="10" stroke-linecap="round"/>
</g>
<path d="M78.4175 163.983V149.913H80.3457V156.232H86.8558V149.913H88.765V163.983H86.8558V157.95H80.3457V163.983H78.4175ZM95.6661 164.097C94.8897 164.097 94.2151 164.015 93.6424 163.849C93.0824 163.684 92.6178 163.41 92.2487 163.028C91.8796 162.634 91.606 162.099 91.4278 161.425C91.2496 160.75 91.1605 159.897 91.1605 158.866C91.1605 157.797 91.2496 156.925 91.4278 156.251C91.606 155.564 91.8796 155.029 92.2487 154.647C92.6178 154.265 93.0887 154.004 93.6615 153.864C94.2342 153.712 94.9024 153.635 95.6661 153.635C96.4297 153.635 97.0979 153.712 97.6706 153.864C98.2434 154.017 98.7143 154.284 99.0834 154.666C99.4525 155.048 99.7262 155.583 99.9043 156.27C100.083 156.945 100.172 157.81 100.172 158.866C100.172 159.91 100.083 160.776 99.9043 161.463C99.7262 162.137 99.4525 162.666 99.0834 163.047C98.727 163.429 98.2625 163.703 97.6897 163.868C97.117 164.021 96.4424 164.097 95.6661 164.097ZM95.6661 162.532C96.0861 162.532 96.4552 162.494 96.7734 162.417C97.1043 162.341 97.3779 162.182 97.5943 161.94C97.8107 161.686 97.9761 161.31 98.0907 160.814C98.2052 160.317 98.2625 159.662 98.2625 158.847C98.2625 158.033 98.2052 157.384 98.0907 156.9C97.9761 156.404 97.8107 156.034 97.5943 155.793C97.3779 155.551 97.1043 155.392 96.7734 155.315C96.4552 155.226 96.0861 155.182 95.6661 155.182C95.2333 155.182 94.8515 155.226 94.5206 155.315C94.2024 155.392 93.9351 155.551 93.7187 155.793C93.5151 156.034 93.356 156.404 93.2415 156.9C93.1396 157.384 93.0887 158.033 93.0887 158.847C93.0887 159.662 93.1396 160.317 93.2415 160.814C93.356 161.31 93.5151 161.686 93.7187 161.94C93.9351 162.182 94.2024 162.341 94.5206 162.417C94.8515 162.494 95.2333 162.532 95.6661 162.532ZM105.501 164.097C104.547 164.097 103.802 163.843 103.268 163.334C102.746 162.812 102.485 162.023 102.485 160.966V153.769H104.394V160.451C104.394 161.215 104.566 161.73 104.91 161.997C105.266 162.265 105.762 162.398 106.399 162.398C106.908 162.398 107.391 162.322 107.85 162.169C108.321 162.004 108.779 161.781 109.224 161.501V153.769H111.133V163.983H109.606L109.224 162.895C108.728 163.213 108.155 163.493 107.506 163.735C106.87 163.976 106.201 164.097 105.501 164.097ZM113.765 163.983V153.769H115.235L115.674 155.487C116.107 154.965 116.59 154.526 117.125 154.17C117.66 153.814 118.283 153.635 118.996 153.635C119.161 153.635 119.321 153.648 119.473 153.674C119.626 153.686 119.772 153.712 119.912 153.75V155.716C119.734 155.691 119.55 155.672 119.359 155.659C119.168 155.634 118.971 155.621 118.767 155.621C118.334 155.621 117.946 155.672 117.602 155.774C117.259 155.875 116.928 156.034 116.61 156.251C116.304 156.454 115.992 156.709 115.674 157.015V163.983H113.765ZM125.277 164.097C125.01 164.097 124.692 164.091 124.323 164.078C123.954 164.066 123.572 164.04 123.177 164.002C122.795 163.976 122.439 163.945 122.108 163.906C121.79 163.868 121.535 163.824 121.345 163.773V162.627H125.64C126.009 162.627 126.327 162.602 126.595 162.551C126.862 162.487 127.066 162.36 127.206 162.169C127.358 161.978 127.435 161.698 127.435 161.329V160.909C127.435 160.527 127.307 160.228 127.053 160.012C126.798 159.795 126.378 159.687 125.793 159.687H124.304C123.706 159.687 123.171 159.611 122.7 159.458C122.242 159.293 121.879 159.019 121.612 158.637C121.357 158.255 121.23 157.74 121.23 157.091V156.537C121.23 155.888 121.351 155.354 121.593 154.934C121.847 154.514 122.248 154.202 122.795 153.998C123.343 153.782 124.068 153.674 124.972 153.674C125.354 153.674 125.774 153.693 126.232 153.731C126.703 153.756 127.161 153.794 127.607 153.845C128.052 153.896 128.408 153.954 128.676 154.017V155.163H124.628C124.068 155.163 123.636 155.258 123.33 155.449C123.037 155.64 122.891 156.003 122.891 156.537V156.919C122.891 157.25 122.961 157.505 123.101 157.683C123.241 157.861 123.438 157.975 123.693 158.026C123.96 158.077 124.272 158.103 124.628 158.103H126.156C127.123 158.103 127.855 158.332 128.351 158.79C128.847 159.235 129.096 159.865 129.096 160.68V161.463C129.096 162.15 128.937 162.685 128.618 163.066C128.3 163.448 127.855 163.716 127.282 163.868C126.722 164.021 126.054 164.097 125.277 164.097ZM138.309 163.983L135.331 153.769H137.297L139.531 162.207L141.937 153.769H143.559L145.965 162.207L148.103 153.769H150.069L147.129 163.983H145.01L142.719 156.404L140.39 163.983H138.309ZM153.394 164.097C152.643 164.097 152.019 163.875 151.523 163.429C151.039 162.971 150.797 162.341 150.797 161.539V160.737C150.797 159.948 151.065 159.305 151.599 158.809C152.147 158.3 152.967 158.045 154.062 158.045H157.25V156.976C157.25 156.582 157.18 156.251 157.04 155.984C156.913 155.704 156.671 155.494 156.315 155.354C155.958 155.214 155.43 155.144 154.73 155.144H151.599V154.017C152.057 153.915 152.592 153.826 153.203 153.75C153.827 153.674 154.552 153.629 155.379 153.616C156.219 153.616 156.919 153.724 157.479 153.941C158.052 154.144 158.479 154.488 158.759 154.972C159.039 155.443 159.179 156.073 159.179 156.862V163.983H157.67L157.346 162.856C157.269 162.907 157.11 163.003 156.868 163.143C156.627 163.27 156.315 163.41 155.933 163.563C155.564 163.716 155.157 163.843 154.711 163.945C154.278 164.046 153.839 164.097 153.394 164.097ZM154.272 162.704C154.463 162.716 154.686 162.697 154.94 162.646C155.208 162.596 155.468 162.538 155.723 162.475C155.99 162.398 156.232 162.322 156.448 162.246C156.678 162.169 156.862 162.106 157.002 162.055C157.155 161.991 157.238 161.953 157.25 161.94V159L154.578 159.115C153.916 159.153 153.438 159.318 153.146 159.611C152.866 159.904 152.726 160.285 152.726 160.756V161.215C152.726 161.584 152.802 161.883 152.955 162.112C153.107 162.328 153.298 162.481 153.527 162.57C153.769 162.659 154.018 162.704 154.272 162.704ZM165.343 164.097C165.076 164.097 164.758 164.091 164.389 164.078C164.019 164.066 163.638 164.04 163.243 164.002C162.861 163.976 162.505 163.945 162.174 163.906C161.856 163.868 161.601 163.824 161.41 163.773V162.627H165.706C166.075 162.627 166.393 162.602 166.66 162.551C166.928 162.487 167.131 162.36 167.271 162.169C167.424 161.978 167.5 161.698 167.5 161.329V160.909C167.5 160.527 167.373 160.228 167.119 160.012C166.864 159.795 166.444 159.687 165.859 159.687H164.369C163.771 159.687 163.237 159.611 162.766 159.458C162.308 159.293 161.945 159.019 161.678 158.637C161.423 158.255 161.296 157.74 161.296 157.091V156.537C161.296 155.888 161.417 155.354 161.658 154.934C161.913 154.514 162.314 154.202 162.861 153.998C163.409 153.782 164.134 153.674 165.038 153.674C165.419 153.674 165.839 153.693 166.298 153.731C166.769 153.756 167.227 153.794 167.672 153.845C168.118 153.896 168.474 153.954 168.741 154.017V155.163H164.694C164.134 155.163 163.701 155.258 163.396 155.449C163.103 155.64 162.957 156.003 162.957 156.537V156.919C162.957 157.25 163.027 157.505 163.167 157.683C163.307 157.861 163.504 157.975 163.759 158.026C164.026 158.077 164.338 158.103 164.694 158.103H166.221C167.189 158.103 167.92 158.332 168.417 158.79C168.913 159.235 169.161 159.865 169.161 160.68V161.463C169.161 162.15 169.002 162.685 168.684 163.066C168.366 163.448 167.92 163.716 167.348 163.868C166.788 164.021 166.12 164.097 165.343 164.097ZM174.869 163.983C174.182 163.983 173.609 163.875 173.151 163.658C172.706 163.429 172.375 163.066 172.158 162.57C171.955 162.074 171.859 161.412 171.872 160.585L171.948 155.334H170.326V154.094L171.986 153.769L172.273 150.905H173.781V153.769H176.549V155.334H173.781V160.565C173.781 160.96 173.819 161.278 173.896 161.52C173.972 161.762 174.08 161.946 174.22 162.074C174.36 162.201 174.513 162.296 174.678 162.36C174.844 162.411 175.003 162.443 175.156 162.456L176.416 162.57V163.983H174.869ZM182.506 164.097C181.424 164.097 180.559 163.938 179.91 163.62C179.273 163.302 178.815 162.767 178.535 162.016C178.268 161.253 178.134 160.203 178.134 158.866C178.134 157.505 178.268 156.448 178.535 155.697C178.815 154.934 179.273 154.399 179.91 154.094C180.546 153.788 181.405 153.635 182.487 153.635C183.429 153.635 184.186 153.737 184.759 153.941C185.345 154.132 185.771 154.482 186.038 154.991C186.318 155.487 186.458 156.181 186.458 157.072C186.458 157.695 186.331 158.192 186.076 158.561C185.835 158.93 185.485 159.197 185.026 159.363C184.581 159.528 184.046 159.611 183.423 159.611H180.043C180.056 160.349 180.139 160.941 180.292 161.386C180.457 161.819 180.743 162.137 181.151 162.341C181.571 162.532 182.182 162.627 182.984 162.627H186.172V163.773C185.625 163.849 185.064 163.919 184.492 163.983C183.919 164.059 183.257 164.097 182.506 164.097ZM180.024 158.408H183.251C183.76 158.408 184.135 158.313 184.377 158.122C184.619 157.931 184.74 157.581 184.74 157.072C184.74 156.563 184.664 156.162 184.511 155.869C184.371 155.576 184.135 155.366 183.804 155.239C183.474 155.112 183.034 155.048 182.487 155.048C181.864 155.048 181.367 155.144 180.998 155.334C180.642 155.525 180.387 155.863 180.234 156.346C180.094 156.83 180.024 157.517 180.024 158.408ZM192.11 164.097C191.283 164.097 190.595 163.919 190.048 163.563C189.514 163.206 189.113 162.653 188.845 161.902C188.578 161.138 188.444 160.158 188.444 158.962C188.444 157.702 188.565 156.684 188.807 155.907C189.062 155.118 189.469 154.545 190.029 154.189C190.589 153.82 191.346 153.635 192.301 153.635C192.835 153.635 193.364 153.693 193.885 153.807C194.42 153.922 194.885 154.049 195.279 154.189V149.416H197.188V163.983H195.623L195.279 162.971C195.075 163.149 194.795 163.327 194.439 163.506C194.083 163.671 193.701 163.811 193.294 163.926C192.886 164.04 192.492 164.097 192.11 164.097ZM192.721 162.532C193.243 162.532 193.714 162.449 194.134 162.284C194.566 162.118 194.948 161.946 195.279 161.768V155.564C194.885 155.449 194.496 155.347 194.115 155.258C193.745 155.156 193.332 155.105 192.874 155.105C192.275 155.105 191.792 155.214 191.423 155.43C191.054 155.646 190.786 156.028 190.621 156.575C190.455 157.123 190.373 157.886 190.373 158.866C190.373 159.77 190.449 160.495 190.602 161.043C190.754 161.577 191.003 161.959 191.346 162.188C191.703 162.417 192.161 162.532 192.721 162.532ZM209.04 164.097C208.263 164.097 207.589 164.015 207.016 163.849C206.456 163.684 205.991 163.41 205.622 163.028C205.253 162.634 204.98 162.099 204.801 161.425C204.623 160.75 204.534 159.897 204.534 158.866C204.534 157.797 204.623 156.925 204.801 156.251C204.98 155.564 205.253 155.029 205.622 154.647C205.991 154.265 206.462 154.004 207.035 153.864C207.608 153.712 208.276 153.635 209.04 153.635C209.803 153.635 210.472 153.712 211.044 153.864C211.617 154.017 212.088 154.284 212.457 154.666C212.826 155.048 213.1 155.583 213.278 156.27C213.456 156.945 213.545 157.81 213.545 158.866C213.545 159.91 213.456 160.776 213.278 161.463C213.1 162.137 212.826 162.666 212.457 163.047C212.101 163.429 211.636 163.703 211.063 163.868C210.491 164.021 209.816 164.097 209.04 164.097ZM209.04 162.532C209.46 162.532 209.829 162.494 210.147 162.417C210.478 162.341 210.752 162.182 210.968 161.94C211.184 161.686 211.35 161.31 211.464 160.814C211.579 160.317 211.636 159.662 211.636 158.847C211.636 158.033 211.579 157.384 211.464 156.9C211.35 156.404 211.184 156.034 210.968 155.793C210.752 155.551 210.478 155.392 210.147 155.315C209.829 155.226 209.46 155.182 209.04 155.182C208.607 155.182 208.225 155.226 207.894 155.315C207.576 155.392 207.309 155.551 207.092 155.793C206.889 156.034 206.73 156.404 206.615 156.9C206.513 157.384 206.462 158.033 206.462 158.847C206.462 159.662 206.513 160.317 206.615 160.814C206.73 161.31 206.889 161.686 207.092 161.94C207.309 162.182 207.576 162.341 207.894 162.417C208.225 162.494 208.607 162.532 209.04 162.532ZM215.878 163.983V153.769H217.405L217.787 154.876C218.245 154.545 218.786 154.253 219.41 153.998C220.046 153.731 220.701 153.597 221.376 153.597C222.14 153.597 222.751 153.763 223.209 154.094C223.68 154.412 224.017 154.838 224.221 155.373C224.424 155.907 224.526 156.486 224.526 157.11V163.983H222.617V157.339C222.617 156.932 222.534 156.582 222.369 156.289C222.216 155.984 222 155.748 221.72 155.583C221.44 155.417 221.096 155.334 220.689 155.334C220.307 155.334 219.95 155.373 219.62 155.449C219.301 155.525 218.996 155.634 218.703 155.774C218.41 155.901 218.105 156.06 217.787 156.251V163.983H215.878ZM76.8593 190.983V180.769H78.3867L78.7685 181.876C79.2649 181.533 79.8121 181.234 80.4103 180.979C81.0085 180.724 81.6958 180.597 82.4722 180.597C83.1086 180.597 83.6495 180.737 84.095 181.017C84.5404 181.297 84.8777 181.654 85.1068 182.086C85.4123 181.857 85.7814 181.628 86.2141 181.399C86.6469 181.17 87.1114 180.979 87.6078 180.826C88.1042 180.674 88.5814 180.597 89.0396 180.597C89.8033 180.597 90.4206 180.756 90.8915 181.074C91.3751 181.38 91.7188 181.806 91.9224 182.354C92.1388 182.888 92.247 183.499 92.247 184.186V190.983H90.3378V184.339C90.3378 183.932 90.2551 183.582 90.0897 183.289C89.9369 182.984 89.7142 182.748 89.4215 182.583C89.1415 182.417 88.7978 182.334 88.3905 182.334C87.8814 182.334 87.3596 182.436 86.825 182.64C86.2905 182.831 85.8005 183.066 85.355 183.346C85.4059 183.512 85.4441 183.684 85.4695 183.862C85.495 184.027 85.5077 184.193 85.5077 184.358V190.983H83.5986V184.339C83.5986 183.932 83.5159 183.582 83.3504 183.289C83.1977 182.984 82.9813 182.748 82.7013 182.583C82.4213 182.417 82.0777 182.334 81.6704 182.334C81.2885 182.334 80.9322 182.373 80.6013 182.449C80.2831 182.525 79.9776 182.634 79.6849 182.774C79.3921 182.901 79.0867 183.06 78.7685 183.251V190.983H76.8593ZM96.9121 191.097C96.1612 191.097 95.5376 190.875 95.0412 190.429C94.5575 189.971 94.3157 189.341 94.3157 188.539V187.737C94.3157 186.948 94.583 186.305 95.1175 185.809C95.6648 185.3 96.4858 185.045 97.5803 185.045H100.769V183.976C100.769 183.582 100.699 183.251 100.559 182.984C100.431 182.704 100.189 182.494 99.8331 182.354C99.4767 182.214 98.9485 182.144 98.2485 182.144H95.1175V181.017C95.5757 180.915 96.1103 180.826 96.7212 180.75C97.3449 180.674 98.0703 180.629 98.8976 180.616C99.7377 180.616 100.438 180.724 100.998 180.941C101.57 181.144 101.997 181.488 102.277 181.972C102.557 182.443 102.697 183.073 102.697 183.862V190.983H101.189L100.864 189.856C100.788 189.907 100.629 190.003 100.387 190.143C100.145 190.27 99.8331 190.41 99.4513 190.563C99.0822 190.716 98.6749 190.843 98.2294 190.945C97.7967 191.046 97.3576 191.097 96.9121 191.097ZM97.7903 189.704C97.9813 189.716 98.204 189.697 98.4585 189.646C98.7258 189.596 98.9867 189.538 99.2413 189.475C99.5086 189.398 99.7504 189.322 99.9668 189.246C100.196 189.169 100.38 189.106 100.52 189.055C100.673 188.991 100.756 188.953 100.769 188.94V186L98.0958 186.115C97.434 186.153 96.9567 186.318 96.664 186.611C96.3839 186.904 96.2439 187.285 96.2439 187.756V188.215C96.2439 188.584 96.3203 188.883 96.473 189.112C96.6258 189.328 96.8167 189.481 97.0458 189.57C97.2876 189.659 97.5358 189.704 97.7903 189.704ZM105.291 190.983V180.769H106.819L107.2 181.876C107.659 181.545 108.2 181.253 108.823 180.998C109.46 180.731 110.115 180.597 110.79 180.597C111.553 180.597 112.164 180.763 112.622 181.094C113.093 181.412 113.431 181.838 113.634 182.373C113.838 182.907 113.94 183.486 113.94 184.11V190.983H112.031V184.339C112.031 183.932 111.948 183.582 111.782 183.289C111.63 182.984 111.413 182.748 111.133 182.583C110.853 182.417 110.51 182.334 110.102 182.334C109.721 182.334 109.364 182.373 109.033 182.449C108.715 182.525 108.41 182.634 108.117 182.774C107.824 182.901 107.519 183.06 107.2 183.251V190.983H105.291ZM119.55 191.097C118.595 191.097 117.85 190.843 117.316 190.334C116.794 189.812 116.533 189.023 116.533 187.966V180.769H118.442V187.451C118.442 188.215 118.614 188.73 118.958 188.997C119.314 189.265 119.81 189.398 120.447 189.398C120.956 189.398 121.44 189.322 121.898 189.169C122.369 189.004 122.827 188.781 123.272 188.501V180.769H125.182V190.983H123.654L123.272 189.895C122.776 190.213 122.203 190.493 121.554 190.735C120.918 190.976 120.25 191.097 119.55 191.097ZM129.856 191.097C129.105 191.097 128.481 190.875 127.985 190.429C127.501 189.971 127.259 189.341 127.259 188.539V187.737C127.259 186.948 127.527 186.305 128.061 185.809C128.609 185.3 129.43 185.045 130.524 185.045H133.712V183.976C133.712 183.582 133.642 183.251 133.502 182.984C133.375 182.704 133.133 182.494 132.777 182.354C132.421 182.214 131.892 182.144 131.192 182.144H128.061V181.017C128.52 180.915 129.054 180.826 129.665 180.75C130.289 180.674 131.014 180.629 131.841 180.616C132.681 180.616 133.381 180.724 133.941 180.941C134.514 181.144 134.941 181.488 135.221 181.972C135.501 182.443 135.641 183.073 135.641 183.862V190.983H134.132L133.808 189.856C133.731 189.907 133.572 190.003 133.331 190.143C133.089 190.27 132.777 190.41 132.395 190.563C132.026 190.716 131.619 190.843 131.173 190.945C130.74 191.046 130.301 191.097 129.856 191.097ZM130.734 189.704C130.925 189.716 131.148 189.697 131.402 189.646C131.67 189.596 131.931 189.538 132.185 189.475C132.452 189.398 132.694 189.322 132.911 189.246C133.14 189.169 133.324 189.106 133.464 189.055C133.617 188.991 133.7 188.953 133.712 188.94V186L131.04 186.115C130.378 186.153 129.9 186.318 129.608 186.611C129.328 186.904 129.188 187.285 129.188 187.756V188.215C129.188 188.584 129.264 188.883 129.417 189.112C129.57 189.328 129.76 189.481 129.99 189.57C130.231 189.659 130.48 189.704 130.734 189.704ZM141.08 191.002C140.456 191.002 139.928 190.894 139.495 190.677C139.075 190.461 138.757 190.117 138.541 189.646C138.337 189.163 138.235 188.514 138.235 187.699V176.416H140.144V187.451C140.144 187.986 140.195 188.399 140.297 188.692C140.412 188.972 140.564 189.169 140.755 189.284C140.959 189.398 141.194 189.475 141.462 189.513L142.416 189.627V191.002H141.08ZM149.641 190.983V182.334H148.114V181.094L149.641 180.769V179.757C149.641 178.993 149.736 178.357 149.927 177.848C150.118 177.326 150.436 176.938 150.882 176.683C151.327 176.429 151.938 176.302 152.715 176.302C153.16 176.302 153.542 176.327 153.86 176.378C154.191 176.429 154.477 176.473 154.719 176.512V177.886H153.058C152.651 177.886 152.339 177.95 152.123 178.077C151.906 178.204 151.754 178.402 151.665 178.669C151.588 178.936 151.55 179.267 151.55 179.662V180.769H154.547V182.334H151.55V190.983H149.641ZM160.217 191.097C159.136 191.097 158.27 190.938 157.621 190.62C156.985 190.302 156.526 189.767 156.246 189.016C155.979 188.253 155.846 187.203 155.846 185.866C155.846 184.505 155.979 183.448 156.246 182.697C156.526 181.934 156.985 181.399 157.621 181.094C158.257 180.788 159.117 180.635 160.198 180.635C161.14 180.635 161.897 180.737 162.47 180.941C163.056 181.132 163.482 181.482 163.749 181.991C164.029 182.487 164.169 183.181 164.169 184.072C164.169 184.695 164.042 185.192 163.788 185.561C163.546 185.93 163.196 186.197 162.738 186.363C162.292 186.528 161.757 186.611 161.134 186.611H157.755C157.767 187.349 157.85 187.941 158.003 188.386C158.168 188.819 158.455 189.137 158.862 189.341C159.282 189.532 159.893 189.627 160.695 189.627H163.883V190.773C163.336 190.849 162.776 190.919 162.203 190.983C161.63 191.059 160.968 191.097 160.217 191.097ZM157.736 185.408H160.962C161.471 185.408 161.847 185.313 162.088 185.122C162.33 184.931 162.451 184.581 162.451 184.072C162.451 183.563 162.375 183.162 162.222 182.869C162.082 182.576 161.847 182.366 161.516 182.239C161.185 182.112 160.746 182.048 160.198 182.048C159.575 182.048 159.078 182.144 158.709 182.334C158.353 182.525 158.098 182.863 157.946 183.346C157.806 183.83 157.736 184.517 157.736 185.408ZM170.528 191.097C169.446 191.097 168.58 190.938 167.931 190.62C167.295 190.302 166.837 189.767 166.557 189.016C166.289 188.253 166.156 187.203 166.156 185.866C166.156 184.505 166.289 183.448 166.557 182.697C166.837 181.934 167.295 181.399 167.931 181.094C168.567 180.788 169.427 180.635 170.508 180.635C171.45 180.635 172.208 180.737 172.78 180.941C173.366 181.132 173.792 181.482 174.059 181.991C174.339 182.487 174.479 183.181 174.479 184.072C174.479 184.695 174.352 185.192 174.098 185.561C173.856 185.93 173.506 186.197 173.048 186.363C172.602 186.528 172.068 186.611 171.444 186.611H168.065C168.077 187.349 168.16 187.941 168.313 188.386C168.478 188.819 168.765 189.137 169.172 189.341C169.592 189.532 170.203 189.627 171.005 189.627H174.193V190.773C173.646 190.849 173.086 190.919 172.513 190.983C171.94 191.059 171.278 191.097 170.528 191.097ZM168.046 185.408H171.272C171.781 185.408 172.157 185.313 172.398 185.122C172.64 184.931 172.761 184.581 172.761 184.072C172.761 183.563 172.685 183.162 172.532 182.869C172.392 182.576 172.157 182.366 171.826 182.239C171.495 182.112 171.056 182.048 170.508 182.048C169.885 182.048 169.388 182.144 169.019 182.334C168.663 182.525 168.408 182.863 168.256 183.346C168.116 183.83 168.046 184.517 168.046 185.408ZM180.131 191.097C179.304 191.097 178.617 190.919 178.069 190.563C177.535 190.206 177.134 189.653 176.867 188.902C176.599 188.138 176.466 187.158 176.466 185.962C176.466 184.702 176.587 183.684 176.828 182.907C177.083 182.118 177.49 181.545 178.05 181.189C178.61 180.82 179.368 180.635 180.322 180.635C180.857 180.635 181.385 180.693 181.907 180.807C182.441 180.922 182.906 181.049 183.3 181.189V176.416H185.21V190.983H183.644L183.3 189.971C183.097 190.149 182.817 190.327 182.46 190.506C182.104 190.671 181.722 190.811 181.315 190.926C180.908 191.04 180.513 191.097 180.131 191.097ZM180.742 189.532C181.264 189.532 181.735 189.449 182.155 189.284C182.588 189.118 182.969 188.946 183.3 188.768V182.564C182.906 182.449 182.518 182.347 182.136 182.258C181.767 182.156 181.353 182.105 180.895 182.105C180.297 182.105 179.813 182.214 179.444 182.43C179.075 182.646 178.808 183.028 178.642 183.575C178.477 184.123 178.394 184.886 178.394 185.866C178.394 186.77 178.47 187.495 178.623 188.043C178.776 188.577 179.024 188.959 179.368 189.188C179.724 189.417 180.182 189.532 180.742 189.532ZM193.021 191.097C192.55 191.097 192.111 191.04 191.703 190.926C191.309 190.811 190.946 190.671 190.615 190.506C190.297 190.327 190.004 190.149 189.737 189.971L189.393 190.983H187.828V176.416H189.737V181.628C190.208 181.374 190.73 181.144 191.303 180.941C191.888 180.737 192.429 180.635 192.925 180.635C193.765 180.635 194.453 180.814 194.987 181.17C195.522 181.514 195.916 182.074 196.171 182.85C196.438 183.626 196.572 184.664 196.572 185.962C196.572 187.044 196.451 187.973 196.209 188.749C195.967 189.513 195.585 190.098 195.064 190.506C194.542 190.9 193.861 191.097 193.021 191.097ZM192.353 189.513C192.849 189.513 193.263 189.392 193.593 189.15C193.937 188.896 194.198 188.501 194.376 187.966C194.567 187.419 194.663 186.719 194.663 185.866C194.663 184.823 194.561 184.04 194.357 183.518C194.153 182.996 193.88 182.646 193.536 182.468C193.193 182.29 192.798 182.201 192.353 182.201C191.843 182.201 191.379 182.277 190.959 182.43C190.552 182.57 190.144 182.748 189.737 182.964V188.787C190.081 188.966 190.469 189.131 190.902 189.284C191.334 189.436 191.818 189.513 192.353 189.513ZM200.945 191.097C200.194 191.097 199.571 190.875 199.074 190.429C198.591 189.971 198.349 189.341 198.349 188.539V187.737C198.349 186.948 198.616 186.305 199.151 185.809C199.698 185.3 200.519 185.045 201.613 185.045H204.802V183.976C204.802 183.582 204.732 183.251 204.592 182.984C204.464 182.704 204.223 182.494 203.866 182.354C203.51 182.214 202.982 182.144 202.282 182.144H199.151V181.017C199.609 180.915 200.143 180.826 200.754 180.75C201.378 180.674 202.103 180.629 202.931 180.616C203.771 180.616 204.471 180.724 205.031 180.941C205.603 181.144 206.03 181.488 206.31 181.972C206.59 182.443 206.73 183.073 206.73 183.862V190.983H205.222L204.897 189.856C204.821 189.907 204.662 190.003 204.42 190.143C204.178 190.27 203.866 190.41 203.484 190.563C203.115 190.716 202.708 190.843 202.262 190.945C201.83 191.046 201.391 191.097 200.945 191.097ZM201.823 189.704C202.014 189.716 202.237 189.697 202.492 189.646C202.759 189.596 203.02 189.538 203.274 189.475C203.542 189.398 203.783 189.322 204 189.246C204.229 189.169 204.413 189.106 204.553 189.055C204.706 188.991 204.789 188.953 204.802 188.94V186L202.129 186.115C201.467 186.153 200.99 186.318 200.697 186.611C200.417 186.904 200.277 187.285 200.277 187.756V188.215C200.277 188.584 200.353 188.883 200.506 189.112C200.659 189.328 200.85 189.481 201.079 189.57C201.321 189.659 201.569 189.704 201.823 189.704ZM213.123 191.097C212.525 191.097 211.972 191.021 211.463 190.868C210.966 190.703 210.527 190.429 210.145 190.047C209.776 189.666 209.49 189.137 209.286 188.463C209.082 187.788 208.981 186.935 208.981 185.905C208.981 184.848 209.076 183.983 209.267 183.308C209.458 182.621 209.732 182.086 210.088 181.704C210.457 181.31 210.903 181.036 211.424 180.884C211.946 180.731 212.532 180.654 213.181 180.654C213.715 180.654 214.275 180.68 214.861 180.731C215.459 180.782 216.038 180.864 216.598 180.979V182.105H213.715C213.092 182.105 212.57 182.207 212.15 182.411C211.73 182.602 211.418 182.977 211.214 183.537C211.011 184.085 210.909 184.88 210.909 185.924C210.909 186.929 211.017 187.705 211.233 188.253C211.45 188.787 211.762 189.15 212.169 189.341C212.589 189.532 213.111 189.627 213.734 189.627H216.751V190.716C216.458 190.792 216.108 190.862 215.701 190.926C215.306 190.976 214.886 191.015 214.441 191.04C214.008 191.078 213.569 191.097 213.123 191.097ZM218.684 190.983V176.416H220.593V184.683H221.986L224.831 180.769H226.816L223.399 185.542L227.065 190.983H225.06L221.929 186.401H220.593V190.983H218.684ZM123.021 217.983C122.333 217.983 121.761 217.875 121.302 217.658C120.857 217.429 120.526 217.066 120.31 216.57C120.106 216.074 120.01 215.412 120.023 214.585L120.1 209.334H118.477V208.094L120.138 207.769L120.424 204.905H121.932V207.769H124.701V209.334H121.932V214.565C121.932 214.96 121.971 215.278 122.047 215.52C122.123 215.762 122.231 215.946 122.371 216.074C122.511 216.201 122.664 216.296 122.83 216.36C122.995 216.411 123.154 216.443 123.307 216.456L124.567 216.57V217.983H123.021ZM128.672 218.097C127.921 218.097 127.297 217.875 126.801 217.429C126.317 216.971 126.076 216.341 126.076 215.539V214.737C126.076 213.948 126.343 213.305 126.877 212.809C127.425 212.3 128.246 212.045 129.34 212.045H132.528V210.976C132.528 210.582 132.458 210.251 132.318 209.984C132.191 209.704 131.949 209.494 131.593 209.354C131.237 209.214 130.708 209.144 130.008 209.144H126.877V208.017C127.336 207.915 127.87 207.826 128.481 207.75C129.105 207.674 129.83 207.629 130.658 207.616C131.498 207.616 132.198 207.724 132.758 207.941C133.33 208.144 133.757 208.488 134.037 208.972C134.317 209.443 134.457 210.073 134.457 210.862V217.983H132.948L132.624 216.856C132.548 216.907 132.388 217.003 132.147 217.143C131.905 217.27 131.593 217.41 131.211 217.563C130.842 217.716 130.435 217.843 129.989 217.945C129.557 218.046 129.117 218.097 128.672 218.097ZM129.55 216.704C129.741 216.716 129.964 216.697 130.218 216.646C130.486 216.596 130.747 216.538 131.001 216.475C131.268 216.398 131.51 216.322 131.727 216.246C131.956 216.169 132.14 216.106 132.28 216.055C132.433 215.991 132.516 215.953 132.528 215.94V213L129.856 213.115C129.194 213.153 128.717 213.318 128.424 213.611C128.144 213.904 128.004 214.285 128.004 214.756V215.215C128.004 215.584 128.08 215.883 128.233 216.112C128.386 216.328 128.577 216.481 128.806 216.57C129.047 216.659 129.296 216.704 129.55 216.704ZM139.59 222.679C138.941 222.679 138.362 222.584 137.853 222.393C137.357 222.215 136.962 221.935 136.669 221.553C136.377 221.184 136.23 220.726 136.23 220.178V219.758C136.23 219.186 136.389 218.702 136.708 218.307C137.038 217.926 137.452 217.633 137.949 217.429C138.445 217.226 138.96 217.124 139.495 217.124L140.01 217.83C139.667 217.83 139.342 217.881 139.037 217.983C138.744 218.097 138.502 218.269 138.311 218.498C138.133 218.74 138.044 219.046 138.044 219.415V219.777C138.044 220.312 138.222 220.7 138.579 220.942C138.948 221.184 139.45 221.305 140.087 221.305H142.32C142.995 221.305 143.53 221.171 143.924 220.904C144.319 220.649 144.516 220.248 144.516 219.701V219.338C144.516 219.033 144.446 218.766 144.306 218.536C144.179 218.307 143.969 218.129 143.676 218.002C143.383 217.887 142.982 217.83 142.473 217.83H139.648C138.744 217.83 138.057 217.646 137.586 217.276C137.115 216.907 136.879 216.443 136.879 215.883C136.879 215.374 137.026 214.966 137.318 214.661C137.624 214.343 138.05 214.126 138.598 214.012C138.139 213.808 137.777 213.547 137.509 213.229C137.255 212.911 137.077 212.567 136.975 212.198C136.873 211.816 136.822 211.435 136.822 211.053C136.822 210.276 136.981 209.646 137.299 209.163C137.618 208.679 138.076 208.323 138.674 208.094C139.285 207.864 140.01 207.75 140.85 207.75H146.349V208.838L144.268 209.048C144.42 209.163 144.586 209.315 144.764 209.506C144.942 209.684 145.095 209.933 145.222 210.251C145.35 210.569 145.413 210.989 145.413 211.511C145.413 212.058 145.292 212.567 145.05 213.038C144.821 213.509 144.44 213.891 143.905 214.184C143.383 214.476 142.67 214.623 141.767 214.623H140.087C139.603 214.623 139.221 214.693 138.941 214.833C138.661 214.973 138.521 215.221 138.521 215.577C138.521 215.87 138.629 216.074 138.846 216.188C139.062 216.303 139.291 216.36 139.533 216.36H142.76C143.536 216.36 144.185 216.462 144.707 216.666C145.241 216.869 145.642 217.181 145.91 217.601C146.177 218.021 146.311 218.568 146.311 219.243V219.606C146.311 220.573 145.992 221.324 145.356 221.858C144.732 222.406 143.784 222.679 142.511 222.679H139.59ZM140.43 213.153H141.557C142.13 213.153 142.562 213.07 142.855 212.905C143.16 212.726 143.37 212.497 143.485 212.217C143.6 211.937 143.657 211.625 143.657 211.282C143.657 210.773 143.574 210.372 143.409 210.079C143.243 209.774 143.014 209.557 142.721 209.43C142.441 209.29 142.098 209.22 141.69 209.22H140.621C139.972 209.22 139.463 209.366 139.094 209.659C138.738 209.952 138.559 210.454 138.559 211.167C138.559 211.867 138.725 212.376 139.056 212.695C139.387 213 139.845 213.153 140.43 213.153ZM150.628 222.679C149.978 222.679 149.399 222.584 148.89 222.393C148.394 222.215 147.999 221.935 147.707 221.553C147.414 221.184 147.267 220.726 147.267 220.178V219.758C147.267 219.186 147.427 218.702 147.745 218.307C148.076 217.926 148.489 217.633 148.986 217.429C149.482 217.226 149.998 217.124 150.532 217.124L151.048 217.83C150.704 217.83 150.379 217.881 150.074 217.983C149.781 218.097 149.539 218.269 149.348 218.498C149.17 218.74 149.081 219.046 149.081 219.415V219.777C149.081 220.312 149.259 220.7 149.616 220.942C149.985 221.184 150.488 221.305 151.124 221.305H153.358C154.032 221.305 154.567 221.171 154.961 220.904C155.356 220.649 155.553 220.248 155.553 219.701V219.338C155.553 219.033 155.483 218.766 155.343 218.536C155.216 218.307 155.006 218.129 154.713 218.002C154.42 217.887 154.019 217.83 153.51 217.83H150.685C149.781 217.83 149.094 217.646 148.623 217.276C148.152 216.907 147.917 216.443 147.917 215.883C147.917 215.374 148.063 214.966 148.356 214.661C148.661 214.343 149.088 214.126 149.635 214.012C149.177 213.808 148.814 213.547 148.547 213.229C148.292 212.911 148.114 212.567 148.012 212.198C147.91 211.816 147.859 211.435 147.859 211.053C147.859 210.276 148.018 209.646 148.337 209.163C148.655 208.679 149.113 208.323 149.711 208.094C150.322 207.864 151.048 207.75 151.888 207.75H157.386V208.838L155.305 209.048C155.458 209.163 155.623 209.315 155.801 209.506C155.979 209.684 156.132 209.933 156.259 210.251C156.387 210.569 156.45 210.989 156.45 211.511C156.45 212.058 156.329 212.567 156.088 213.038C155.859 213.509 155.477 213.891 154.942 214.184C154.42 214.476 153.708 214.623 152.804 214.623H151.124C150.64 214.623 150.258 214.693 149.978 214.833C149.698 214.973 149.558 215.221 149.558 215.577C149.558 215.87 149.667 216.074 149.883 216.188C150.099 216.303 150.328 216.36 150.57 216.36H153.797C154.573 216.36 155.222 216.462 155.744 216.666C156.279 216.869 156.68 217.181 156.947 217.601C157.214 218.021 157.348 218.568 157.348 219.243V219.606C157.348 220.573 157.03 221.324 156.393 221.858C155.769 222.406 154.821 222.679 153.549 222.679H150.628ZM151.468 213.153H152.594C153.167 213.153 153.599 213.07 153.892 212.905C154.198 212.726 154.408 212.497 154.522 212.217C154.637 211.937 154.694 211.625 154.694 211.282C154.694 210.773 154.611 210.372 154.446 210.079C154.28 209.774 154.051 209.557 153.759 209.43C153.479 209.29 153.135 209.22 152.728 209.22H151.658C151.009 209.22 150.5 209.366 150.131 209.659C149.775 209.952 149.597 210.454 149.597 211.167C149.597 211.867 149.762 212.376 150.093 212.695C150.424 213 150.882 213.153 151.468 213.153ZM159.393 206.051C159.164 206.051 159.049 205.943 159.049 205.726V204.123C159.049 203.893 159.164 203.779 159.393 203.779H160.806C160.907 203.779 160.984 203.811 161.035 203.874C161.086 203.938 161.111 204.021 161.111 204.123V205.726C161.111 205.943 161.009 206.051 160.806 206.051H159.393ZM159.126 217.983V207.769H161.035V217.983H159.126ZM163.712 217.983V207.769H165.239L165.621 208.876C166.079 208.545 166.62 208.253 167.244 207.998C167.88 207.731 168.536 207.597 169.21 207.597C169.974 207.597 170.585 207.763 171.043 208.094C171.514 208.412 171.851 208.838 172.055 209.373C172.259 209.907 172.36 210.486 172.36 211.11V217.983H170.451V211.339C170.451 210.932 170.369 210.582 170.203 210.289C170.05 209.984 169.834 209.748 169.554 209.583C169.274 209.417 168.93 209.334 168.523 209.334C168.141 209.334 167.785 209.373 167.454 209.449C167.136 209.525 166.83 209.634 166.538 209.774C166.245 209.901 165.939 210.06 165.621 210.251V217.983H163.712ZM177.512 222.679C176.863 222.679 176.284 222.584 175.775 222.393C175.278 222.215 174.884 221.935 174.591 221.553C174.298 221.184 174.152 220.726 174.152 220.178V219.758C174.152 219.186 174.311 218.702 174.629 218.307C174.96 217.926 175.374 217.633 175.87 217.429C176.367 217.226 176.882 217.124 177.417 217.124L177.932 217.83C177.588 217.83 177.264 217.881 176.958 217.983C176.666 218.097 176.424 218.269 176.233 218.498C176.055 218.74 175.966 219.046 175.966 219.415V219.777C175.966 220.312 176.144 220.7 176.5 220.942C176.869 221.184 177.372 221.305 178.008 221.305H180.242C180.917 221.305 181.451 221.171 181.846 220.904C182.24 220.649 182.438 220.248 182.438 219.701V219.338C182.438 219.033 182.368 218.766 182.228 218.536C182.1 218.307 181.89 218.129 181.598 218.002C181.305 217.887 180.904 217.83 180.395 217.83H177.569C176.666 217.83 175.978 217.646 175.507 217.276C175.037 216.907 174.801 216.443 174.801 215.883C174.801 215.374 174.947 214.966 175.24 214.661C175.546 214.343 175.972 214.126 176.519 214.012C176.061 213.808 175.698 213.547 175.431 213.229C175.177 212.911 174.998 212.567 174.897 212.198C174.795 211.816 174.744 211.435 174.744 211.053C174.744 210.276 174.903 209.646 175.221 209.163C175.539 208.679 175.997 208.323 176.596 208.094C177.207 207.864 177.932 207.75 178.772 207.75H184.27V208.838L182.189 209.048C182.342 209.163 182.508 209.315 182.686 209.506C182.864 209.684 183.017 209.933 183.144 210.251C183.271 210.569 183.335 210.989 183.335 211.511C183.335 212.058 183.214 212.567 182.972 213.038C182.743 213.509 182.361 213.891 181.827 214.184C181.305 214.476 180.592 214.623 179.688 214.623H178.008C177.525 214.623 177.143 214.693 176.863 214.833C176.583 214.973 176.443 215.221 176.443 215.577C176.443 215.87 176.551 216.074 176.768 216.188C176.984 216.303 177.213 216.36 177.455 216.36H180.681C181.458 216.36 182.107 216.462 182.629 216.666C183.163 216.869 183.564 217.181 183.831 217.601C184.099 218.021 184.232 218.568 184.232 219.243V219.606C184.232 220.573 183.914 221.324 183.278 221.858C182.654 222.406 181.706 222.679 180.433 222.679H177.512ZM178.352 213.153H179.478C180.051 213.153 180.484 213.07 180.777 212.905C181.082 212.726 181.292 212.497 181.407 212.217C181.521 211.937 181.579 211.625 181.579 211.282C181.579 210.773 181.496 210.372 181.33 210.079C181.165 209.774 180.936 209.557 180.643 209.43C180.363 209.29 180.019 209.22 179.612 209.22H178.543C177.894 209.22 177.385 209.366 177.016 209.659C176.659 209.952 176.481 210.454 176.481 211.167C176.481 211.867 176.647 212.376 176.978 212.695C177.308 213 177.767 213.153 178.352 213.153Z" fill="#3D4651"/>
<g clip-path="url(#clip1_6111_28398)">
<path d="M153.047 113.082C154.504 112.771 155.842 112.805 157.29 113.162C157.927 113.319 158.888 114.067 159.273 113.445L165.636 104.211C160.295 100.229 160.865 91.829 166.908 88.8397C174.781 84.9433 183.053 93.372 178.928 101.161C177.126 104.566 173.619 106.069 169.868 106.012L162.315 116.637C166.908 123.373 161.263 132.369 153.168 130.788C145.916 129.372 143.378 120.004 149 115.227L137.713 90.1474C136.98 89.9538 136.132 90.0184 135.408 89.8988C134.624 89.7678 133.937 89.4509 133.174 89.2915L126.504 96.5492V96.756C129.533 98.8419 130.575 103.025 129.481 106.492C127.577 112.53 120.107 114.722 115.224 110.677C109.263 105.728 111.981 95.8223 119.639 94.7803C120.315 94.6892 121.919 94.8638 122.326 94.6285L129.559 86.6609C129.661 86.5148 129.618 86.3895 129.569 86.2377C129.381 85.655 128.64 84.7383 128.38 84.0057C127.084 80.356 128.32 76.1976 131.339 73.8214C139.817 67.1501 151.701 78.8168 142.679 87.8756C142.381 88.1736 141.822 88.2476 141.991 88.8322L153.047 113.082ZM135.831 76.4709C132.707 76.9568 131.254 81.1588 133.113 83.6698C134.603 85.6816 137.506 86.2472 139.544 84.7345C143.496 81.8022 140.986 75.67 135.831 76.4709ZM169.882 92.3832C166.758 92.8691 165.304 97.0711 167.164 99.5821C168.653 101.594 171.557 102.159 173.595 100.647C177.546 97.7145 175.037 91.5823 169.882 92.3832ZM119.94 99.2025C116.816 99.6883 115.363 103.89 117.222 106.401C118.712 108.413 121.616 108.979 123.653 107.466C127.605 104.534 125.096 98.4015 119.94 99.2025ZM153.991 117.387C150.867 117.872 149.413 122.074 151.273 124.585C152.762 126.597 155.666 127.163 157.704 125.65C161.656 122.718 159.146 116.586 153.991 117.387Z" fill="#DA4436"/>
</g>
<defs>
<filter id="filter0_d_6111_28398" x="0.600906" y="0.631485" width="292.173" height="292.172" filterUnits="userSpaceOnUse" color-interpolation-filters="sRGB">
<feFlood flood-opacity="0" result="BackgroundImageFix"/>
<feColorMatrix in="SourceAlpha" type="matrix" values="0 0 0 0 0 0 0 0 0 0 0 0 0 0 0 0 0 0 127 0" result="hardAlpha"/>
<feOffset/>
<feGaussianBlur stdDeviation="10.5968"/>
<feComposite in2="hardAlpha" operator="out"/>
<feColorMatrix type="matrix" values="0 0 0 0 0 0 0 0 0 0 0 0 0 0 0 0 0 0 0.25 0"/>
<feBlend mode="normal" in2="BackgroundImageFix" result="effect1_dropShadow_6111_28398"/>
<feBlend mode="normal" in="SourceGraphic" in2="effect1_dropShadow_6111_28398" result="shape"/>
</filter>
<clipPath id="clip0_6111_28398">
<rect width="37.9562" height="37.9562" fill="white" transform="translate(209.93 29.6656)"/>
</clipPath>
<clipPath id="clip1_6111_28398">
<rect width="68.0424" height="59.1188" fill="white" transform="translate(111.982 71.85)"/>
</clipPath>
</defs>
</svg>
