<svg width="377" height="377" viewBox="0 0 377 377" fill="none" xmlns="http://www.w3.org/2000/svg">
<path d="M319.059 135.605L321.184 134.927L321.135 134.775L321.065 134.63L319.059 135.605ZM323.675 150.205L325.841 149.671L325.84 149.67L323.675 150.205ZM279.905 294.571L278.401 292.923L278.401 292.923L279.905 294.571ZM258.794 309.743L257.501 307.925L257.499 307.927L258.794 309.743ZM256.613 311.343L257.589 313.35L257.777 313.258L257.945 313.133L256.613 311.343ZM242.282 318.308L242.983 320.426L243.124 320.379L243.257 320.314L242.282 318.308ZM228.283 322.947L227.308 320.94L228.927 325.083L228.283 322.947ZM228.287 322.945L229.262 324.951L227.642 320.809L228.287 322.945ZM183.908 328.792L183.964 326.562L183.964 326.562L183.908 328.792ZM180.534 330L179.081 328.307L179.079 328.309L180.534 330ZM134.194 370.101L132.732 368.416L132.704 368.441L132.676 368.466L134.194 370.101ZM133.904 370.356L135.394 372.017L135.408 372.004L135.422 371.991L133.904 370.356ZM133.06 371.385L134.035 373.392L134.481 373.175L134.793 372.79L133.06 371.385ZM129.107 373.306L129.274 375.531L129.699 375.499L130.082 375.313L129.107 373.306ZM120.291 370.255L118.285 371.23L118.473 371.617L118.791 371.906L120.291 370.255ZM118.37 366.301L116.175 366.701L116.23 367.001L116.363 367.276L118.37 366.301ZM118.114 364.873L115.919 365.271L115.919 365.274L118.114 364.873ZM114.61 345.609L116.802 345.196L116.801 345.193L114.61 345.609ZM106.742 304.979L104.554 305.413L104.555 305.418L106.742 304.979ZM104.298 301.073L105.643 299.293L105.64 299.291L104.298 301.073ZM66.3858 258.292L64.4423 259.388L64.4483 259.398L66.3858 258.292ZM65.0563 256.593L63.0498 257.568L63.157 257.789L63.3097 257.981L65.0563 256.593ZM58.5722 243.25L56.4572 243.96L56.5029 244.096L56.5657 244.225L58.5722 243.25ZM53.3799 227.675L55.5241 227.059L55.5239 227.058L53.3799 227.675ZM61.8088 126.692L59.8007 125.721L59.8007 125.721L61.8088 126.692ZM132.894 58.8179L132.003 56.773L132.002 56.7733L132.894 58.8179ZM300.131 102.954L301.916 101.616L301.915 101.615L300.131 102.954ZM310.653 118.308L312.66 117.333L312.588 117.186L312.496 117.05L310.653 118.308ZM319.059 135.605L321.065 134.63L318.964 130.306L316.957 131.281L314.951 132.256L317.052 136.581L319.059 135.605ZM312.755 122.633L314.761 121.658L312.66 117.333L310.653 118.308L308.647 119.283L310.748 123.608L312.755 122.633ZM310.653 118.308L312.496 117.05C311.629 115.781 310.772 114.5 309.914 113.21L308.057 114.446L306.2 115.682C307.06 116.976 307.929 118.274 308.811 119.566L310.653 118.308ZM302.854 106.728L304.683 105.451C303.784 104.162 302.864 102.881 301.916 101.616L300.131 102.954L298.346 104.292C299.258 105.508 300.147 106.748 301.025 108.005L302.854 106.728ZM300.131 102.954L301.915 101.615C301.123 100.559 300.317 99.5176 299.499 98.4896L297.753 99.8793L296.008 101.269C296.8 102.264 297.58 103.272 298.347 104.293L300.131 102.954ZM292.748 93.9492L294.411 92.4622C292.652 90.4943 290.842 88.5836 288.985 86.7308L287.409 88.3101L285.834 89.8894C287.631 91.6826 289.382 93.5318 291.085 95.4362L292.748 93.9492ZM281.76 82.9846L283.243 81.3186C281.275 79.5659 279.262 77.8731 277.207 76.2413L275.82 77.9882L274.433 79.7352C276.422 81.3152 278.371 82.954 280.276 84.6507L281.76 82.9846ZM269.607 73.332L270.894 71.51C268.743 69.9903 266.553 68.5331 264.328 67.1394L263.144 69.0302L261.96 70.921C264.116 72.271 266.237 73.6822 268.319 75.1539L269.607 73.332ZM256.453 65.0941L257.531 63.1408C255.226 61.8696 252.889 60.6633 250.523 59.5226L249.554 61.5323L248.586 63.542C250.879 64.6472 253.143 65.816 255.375 67.0475L256.453 65.0941ZM242.471 58.3545L243.328 56.2948C240.9 55.2844 238.446 54.3409 235.968 53.465L235.225 55.5684L234.481 57.6717C236.882 58.5205 239.261 59.435 241.614 60.4141L242.471 58.3545ZM227.837 53.181L228.465 51.0403C225.943 50.3003 223.4 49.629 220.841 49.0273L220.331 51.1989L219.82 53.3706C222.3 53.9538 224.764 54.6044 227.209 55.3216L227.837 53.181ZM212.727 49.6281L213.119 47.4319C210.532 46.9705 207.932 46.5794 205.322 46.2596L205.05 48.474L204.779 50.6883C207.309 50.9982 209.829 51.3772 212.336 51.8243L212.727 49.6281ZM197.321 47.7411L197.471 45.5152C194.85 45.339 192.222 45.2346 189.59 45.2029L189.564 47.4337L189.537 49.6644C192.086 49.6951 194.632 49.7963 197.172 49.967L197.321 47.7411ZM181.802 47.5549L181.705 45.3261C179.082 45.4399 176.458 45.6266 173.837 45.8871L174.058 48.1071L174.278 50.3271C176.816 50.0748 179.357 49.8939 181.898 49.7837L181.802 47.5549ZM166.356 49.0915L166.011 46.8874C163.419 47.293 160.833 47.7723 158.256 48.326L158.724 50.5071L159.193 52.6882C161.687 52.1522 164.191 51.6883 166.701 51.2955L166.356 49.0915ZM151.183 52.3528L150.592 50.2019C148.062 50.8976 145.546 51.6671 143.044 52.5113L143.758 54.6251L144.471 56.7388C146.892 55.9219 149.327 55.1772 151.775 54.5038L151.183 52.3528ZM136.479 57.3154L135.646 55.2458C134.427 55.7365 133.212 56.2455 132.003 56.773L132.894 58.8179L133.786 60.8628C134.957 60.3523 136.132 59.8598 137.312 59.385L136.479 57.3154ZM132.894 58.8179L132.002 56.7733C130.699 57.3418 129.409 57.9245 128.132 58.5216L129.077 60.5425L130.022 62.5634C131.264 61.9828 132.519 61.4158 133.787 60.8626L132.894 58.8179ZM121.592 64.2891L120.54 62.322C118.025 63.6672 115.565 65.0729 113.161 66.5393L114.323 68.4438L115.485 70.3484C117.816 68.9265 120.203 67.5625 122.644 66.2563L121.592 64.2891ZM107.307 73.0095L106.035 71.1764C103.697 72.7988 101.416 74.4844 99.1956 76.2334L100.576 77.986L101.956 79.7387C104.105 78.046 106.313 76.414 108.578 74.8425L107.307 73.0095ZM94.1622 83.3664L92.676 81.7027C90.5591 83.5936 88.5034 85.5489 86.5094 87.5684L88.0969 89.1358L89.6844 90.7032C91.6127 88.7502 93.6009 86.8592 95.6484 85.0302L94.1622 83.3664ZM82.405 95.2746L80.7224 93.8097C78.8655 95.9427 77.0703 98.1388 75.3373 100.398L77.1075 101.756L78.8777 103.114C80.5547 100.927 82.2915 98.8025 84.0876 96.7394L82.405 95.2746ZM72.2181 108.55L70.3687 107.302C68.7931 109.638 67.2778 112.034 65.8233 114.49L67.7428 115.626L69.6624 116.763C71.0728 114.382 72.5413 112.06 74.0674 109.798L72.2181 108.55ZM63.6846 122.947L61.7039 121.921C61.055 123.173 60.4206 124.44 59.8007 125.721L61.8088 126.692L63.8169 127.664C64.4192 126.42 65.0354 125.19 65.6654 123.974L63.6846 122.947ZM61.8088 126.692L59.8007 125.721C59.2527 126.853 58.7202 127.987 58.2033 129.123L60.2338 130.047L62.2644 130.971C62.7666 129.868 63.2842 128.765 63.817 127.664L61.8088 126.692ZM57.3286 136.865L55.2554 136.041C54.3232 138.387 53.4564 140.74 52.6549 143.1L54.7673 143.818L56.8797 144.535C57.6566 142.248 58.4972 139.965 59.4018 137.689L57.3286 136.865ZM52.5694 150.893L50.4222 150.287C49.7382 152.714 49.1224 155.147 48.5748 157.587L50.7516 158.076L52.9284 158.564C53.4582 156.203 54.0542 153.847 54.7166 151.498L52.5694 150.893ZM49.3284 165.347L47.1281 164.979C46.7132 167.46 46.3681 169.947 46.0926 172.441L48.31 172.686L50.5274 172.931C50.7938 170.52 51.1276 168.114 51.5288 165.715L49.3284 165.347ZM47.7019 180.07L45.4743 179.949C45.3382 182.453 45.2714 184.963 45.2739 187.479L47.5048 187.476L49.7357 187.474C49.7333 185.041 49.7978 182.613 49.9295 180.191L47.7019 180.07ZM47.7147 194.883L45.4872 195.007C45.6258 197.503 45.8318 200.004 46.1051 202.509L48.3228 202.267L50.5406 202.026C50.2758 199.598 50.0763 197.176 49.9421 194.759L47.7147 194.883ZM49.3165 209.609L47.1141 209.965C47.5114 212.424 47.9728 214.888 48.4982 217.356L50.6802 216.892L52.8622 216.427C52.352 214.031 51.9042 211.639 51.5188 209.253L49.3165 209.609ZM52.396 224.102L50.2385 224.669C50.5559 225.876 50.8884 227.083 51.2359 228.291L53.3799 227.675L55.5239 227.058C55.1856 225.882 54.8622 224.707 54.5535 223.534L52.396 224.102ZM53.3799 227.675L51.2357 228.291C51.6218 229.635 52.0341 230.966 52.4618 232.286L54.5841 231.599L56.7065 230.911C56.2905 229.627 55.8935 228.345 55.5241 227.059L53.3799 227.675ZM57.2389 239.368L55.1322 240.102C55.5818 241.392 56.0261 242.676 56.4572 243.96L58.5722 243.25L60.6871 242.54C60.2476 241.231 59.7965 239.928 59.3456 238.634L57.2389 239.368ZM58.5722 243.25L56.5657 244.225L58.1867 247.561L60.1932 246.586L62.1997 245.611L60.5787 242.275L58.5722 243.25ZM63.4353 253.257L61.4287 254.232L63.0498 257.568L65.0563 256.593L67.0628 255.618L65.4418 252.282L63.4353 253.257ZM65.0563 256.593L63.3097 257.981C63.4497 258.157 63.59 258.322 63.7124 258.464L65.4025 257.008L67.0926 255.551C66.9792 255.42 66.8859 255.31 66.8029 255.205L65.0563 256.593ZM66.0905 257.84L64.2941 259.163C64.3612 259.254 64.4084 259.327 64.4423 259.388L66.3858 258.292L68.3293 257.197C68.187 256.944 68.0344 256.718 67.8869 256.517L66.0905 257.84ZM66.3858 258.292L64.4483 259.398C65.0537 260.459 65.6711 261.509 66.3004 262.549L68.209 261.394L70.1176 260.239C69.5081 259.232 68.91 258.214 68.3233 257.186L66.3858 258.292ZM72.092 267.451L70.2457 268.703C71.618 270.726 73.0385 272.707 74.5066 274.645L76.2849 273.298L78.0632 271.951C76.642 270.075 75.2668 268.157 73.9382 266.199L72.092 267.451ZM80.7781 278.917L79.0728 280.355C80.6445 282.219 82.2637 284.04 83.9299 285.819L85.5583 284.295L87.1867 282.77C85.573 281.046 84.0051 279.283 82.4834 277.479L80.7781 278.917ZM90.6094 289.418L89.0611 291.024C90.8108 292.711 92.6062 294.357 94.4467 295.962L95.9129 294.28L97.3792 292.599C95.5939 291.042 93.8533 289.447 92.1577 287.812L90.6094 289.418ZM101.449 298.876L100.066 300.626C101.019 301.379 101.982 302.122 102.956 302.855L104.298 301.073L105.64 299.291C104.693 298.578 103.757 297.856 102.832 297.126L101.449 298.876ZM104.298 301.073L102.953 302.853C103.111 302.972 103.288 303.137 103.47 303.345L105.15 301.878L106.83 300.41C106.478 300.006 106.08 299.623 105.643 299.293L104.298 301.073ZM106.391 303.861L104.336 304.73C104.444 304.986 104.515 305.218 104.554 305.413L106.742 304.979L108.93 304.544C108.824 304.009 108.654 303.485 108.445 302.992L106.391 303.861ZM106.742 304.979L104.555 305.418C104.781 306.544 105.007 307.67 105.231 308.796L107.419 308.36L109.607 307.924C109.382 306.796 109.156 305.667 108.929 304.539L106.742 304.979ZM108.757 315.127L106.568 315.556C107.01 317.811 107.45 320.066 107.887 322.321L110.077 321.897L112.267 321.473C111.829 319.214 111.389 316.955 110.946 314.697L108.757 315.127ZM111.383 328.67L109.192 329.09C109.625 331.347 110.056 333.604 110.486 335.862L112.678 335.445L114.869 335.027C114.439 332.768 114.007 330.508 113.574 328.249L111.383 328.67ZM113.967 342.221L111.775 342.637C111.989 343.766 112.204 344.895 112.418 346.025L114.61 345.609L116.801 345.193C116.587 344.064 116.373 342.934 116.158 341.804L113.967 342.221ZM114.61 345.609L112.417 346.022C112.719 347.622 113.016 349.222 113.309 350.824L115.504 350.422L117.698 350.019C117.403 348.412 117.105 346.804 116.802 345.196L114.61 345.609ZM117.245 360.056L115.049 360.45C115.338 362.057 115.627 363.664 115.919 365.271L118.114 364.873L120.309 364.475C120.018 362.872 119.729 361.267 119.441 359.661L117.245 360.056ZM118.114 364.873L115.919 365.274C115.94 365.39 115.961 365.506 115.982 365.623L118.178 365.23L120.374 364.837C120.352 364.716 120.331 364.595 120.308 364.472L118.114 364.873ZM118.305 365.944L116.109 366.337C116.131 366.457 116.153 366.579 116.175 366.701L118.37 366.301L120.564 365.9C120.543 365.784 120.522 365.668 120.501 365.551L118.305 365.944ZM118.37 366.301L116.363 367.276L116.844 368.264L118.85 367.289L120.857 366.314L120.376 365.325L118.37 366.301ZM119.811 369.266L117.804 370.241L118.285 371.23L120.291 370.255L122.298 369.28L121.817 368.291L119.811 369.266ZM120.291 370.255L118.791 371.906C119.5 372.55 120.249 373.118 121.04 373.603L122.206 371.701L123.372 369.799C122.835 369.469 122.308 369.073 121.792 368.604L120.291 370.255ZM126.709 373.263L126.449 375.479C127.372 375.587 128.315 375.603 129.274 375.531L129.107 373.306L128.94 371.081C128.247 371.133 127.591 371.12 126.969 371.047L126.709 373.263ZM129.107 373.306L130.082 375.313L131.071 374.832L130.095 372.826L129.12 370.819L128.132 371.299L129.107 373.306ZM132.072 371.865L133.047 373.872L134.035 373.392L133.06 371.385L132.085 369.379L131.097 369.859L132.072 371.865ZM133.06 371.385L134.793 372.79C134.892 372.668 134.981 372.55 135.052 372.454L133.263 371.121L131.474 369.788C131.412 369.871 131.367 369.931 131.327 369.981L133.06 371.385ZM133.672 370.595L135.356 372.057C135.385 372.024 135.397 372.014 135.394 372.017L133.904 370.356L132.414 368.696C132.247 368.845 132.105 368.996 131.987 369.132L133.672 370.595ZM133.904 370.356L135.422 371.991C135.424 371.989 135.43 371.983 135.443 371.972L133.976 370.292L132.508 368.612C132.473 368.642 132.431 368.679 132.386 368.721L133.904 370.356ZM134.122 370.166L135.589 371.846C135.625 371.815 135.666 371.778 135.711 371.737L134.194 370.101L132.676 368.466C132.674 368.468 132.668 368.474 132.654 368.485L134.122 370.166ZM134.194 370.101L135.656 371.787C136.62 370.95 137.584 370.113 138.549 369.277L137.087 367.592L135.625 365.906C134.661 366.743 133.696 367.58 132.732 368.416L134.194 370.101ZM142.874 362.572L144.335 364.257C146.264 362.584 148.193 360.911 150.122 359.239L148.661 357.553L147.199 355.868C145.27 357.541 143.341 359.214 141.412 360.887L142.874 362.572ZM154.45 352.536L155.91 354.222C157.84 352.55 159.77 350.879 161.7 349.208L160.24 347.521L158.78 345.835C156.849 347.506 154.919 349.178 152.989 350.85L154.45 352.536ZM166.034 342.51L167.493 344.197C169.424 342.528 171.356 340.859 173.288 339.191L171.831 337.502L170.373 335.813C168.439 337.482 166.507 339.152 164.575 340.822L166.034 342.51ZM177.632 332.499L179.088 334.189C180.055 333.356 181.022 332.523 181.989 331.691L180.534 330L179.079 328.309C178.111 329.142 177.143 329.976 176.176 330.809L177.632 332.499ZM180.534 330L181.987 331.693C182.075 331.617 182.201 331.528 182.365 331.438L181.286 329.485L180.208 327.532C179.818 327.747 179.433 328.005 179.081 328.307L180.534 330ZM183 328.871L183.406 331.064C183.588 331.03 183.739 331.02 183.853 331.023L183.908 328.792L183.964 326.562C183.496 326.551 183.033 326.596 182.593 326.677L183 328.871ZM183.908 328.792L183.852 331.023C185.121 331.055 186.388 331.071 187.653 331.072L187.654 328.841L187.655 326.61C186.427 326.609 185.197 326.593 183.964 326.562L183.908 328.792ZM195.143 328.656L195.255 330.884C197.792 330.757 200.321 330.564 202.842 330.304L202.613 328.085L202.385 325.866C199.943 326.117 197.492 326.304 195.031 326.428L195.143 328.656ZM210.042 327.118L210.39 329.322C212.894 328.927 215.389 328.464 217.875 327.931L217.408 325.75L216.94 323.568C214.534 324.084 212.119 324.532 209.695 324.914L210.042 327.118ZM224.687 323.979L225.273 326.132C226.496 325.799 227.715 325.448 228.933 325.08L228.287 322.945L227.642 320.809C226.464 321.165 225.283 321.505 224.1 321.827L224.687 323.979ZM228.287 322.945L227.312 320.938L227.311 320.939L228.286 322.945L229.261 324.952L229.262 324.951L228.287 322.945ZM228.284 322.946L227.309 320.94L227.308 320.94L228.283 322.947L229.258 324.953L229.259 324.953L228.284 322.946ZM228.283 322.947L228.927 325.083C230.123 324.722 231.31 324.346 232.491 323.961L231.8 321.84L231.109 319.719C229.951 320.096 228.796 320.462 227.639 320.811L228.283 322.947ZM238.788 319.485L239.507 321.597C240.669 321.201 241.826 320.809 242.983 320.426L242.282 318.308L241.58 316.19C240.404 316.58 239.233 316.977 238.068 317.374L238.788 319.485ZM242.282 318.308L243.257 320.314L246.84 318.573L245.865 316.567L244.889 314.56L241.306 316.301L242.282 318.308ZM253.03 313.084L254.006 315.091L257.589 313.35L256.613 311.343L255.638 309.337L252.055 311.078L253.03 313.084ZM256.613 311.343L257.945 313.133C258.126 312.998 258.306 312.865 258.486 312.731L257.156 310.94L255.827 309.148C255.645 309.284 255.463 309.419 255.282 309.553L256.613 311.343ZM258.246 310.138L259.557 311.943C259.735 311.814 259.912 311.686 260.09 311.559L258.794 309.743L257.499 307.927C257.308 308.062 257.12 308.198 256.934 308.334L258.246 310.138ZM258.794 309.743L260.088 311.56C260.954 310.944 261.832 310.336 262.72 309.733L261.466 307.888L260.212 306.043C259.304 306.66 258.399 307.286 257.501 307.925L258.794 309.743ZM266.879 304.28L268.112 306.139C269.926 304.936 271.752 303.713 273.547 302.445L272.259 300.623L270.972 298.801C269.234 300.03 267.453 301.222 265.646 302.421L266.879 304.28ZM277.445 296.698L278.861 298.422C279.727 297.711 280.578 296.978 281.41 296.218L279.905 294.571L278.401 292.923C277.632 293.625 276.841 294.308 276.029 294.974L277.445 296.698ZM279.905 294.571L281.41 296.218C282.409 295.305 283.393 294.388 284.362 293.466L282.825 291.85L281.287 290.233C280.34 291.134 279.378 292.031 278.401 292.923L279.905 294.571ZM288.475 286.24L290.081 287.788C291.968 285.832 293.79 283.855 295.547 281.856L293.872 280.383L292.197 278.91C290.485 280.856 288.71 282.783 286.869 284.691L288.475 286.24ZM298.985 274.277L300.73 275.667C302.422 273.541 304.044 271.392 305.596 269.221L303.781 267.924L301.966 266.627C300.46 268.734 298.884 270.821 297.239 272.888L298.985 274.277ZM308.235 261.319L310.118 262.515C311.574 260.223 312.953 257.907 314.258 255.566L312.309 254.48L310.36 253.394C309.098 255.659 307.762 257.902 306.352 260.123L308.235 261.319ZM315.978 247.412L317.988 248.38C319.164 245.938 320.261 243.471 321.279 240.979L319.214 240.136L317.148 239.292C316.165 241.699 315.105 244.083 313.968 246.444L315.978 247.412ZM321.994 232.675L324.107 233.388C324.971 230.828 325.755 228.243 326.457 225.634L324.303 225.054L322.149 224.474C321.471 226.994 320.714 229.49 319.88 231.962L321.994 232.675ZM326.132 217.305L328.318 217.75C328.855 215.113 329.312 212.452 329.69 209.767L327.48 209.457L325.271 209.146C324.906 211.742 324.465 214.313 323.946 216.86L326.132 217.305ZM328.353 201.541L330.577 201.72C330.791 199.049 330.93 196.357 330.992 193.643L328.762 193.591L326.532 193.54C326.471 196.171 326.337 198.778 326.129 201.362L328.353 201.541ZM328.725 185.625L330.955 185.554C330.871 182.887 330.715 180.2 330.488 177.492L328.265 177.678L326.042 177.864C326.262 180.496 326.414 183.107 326.496 185.696L328.725 185.625ZM327.405 169.761L329.617 169.466C329.265 166.829 328.849 164.172 328.367 161.497L326.171 161.893L323.976 162.288C324.446 164.898 324.852 167.487 325.194 170.055L327.405 169.761ZM324.59 154.089L326.766 153.6C326.473 152.295 326.164 150.985 325.841 149.671L323.675 150.205L321.509 150.738C321.825 152.023 322.127 153.303 322.413 154.578L324.59 154.089ZM323.675 150.205L325.84 149.67C325.523 148.386 325.168 147.12 324.79 145.869L322.654 146.515L320.519 147.16C320.88 148.355 321.214 149.546 321.509 150.74L323.675 150.205ZM320.262 139.24L322.375 138.524C321.966 137.318 321.566 136.122 321.184 134.927L319.059 135.605L316.934 136.284C317.327 137.518 317.738 138.743 318.149 139.956L320.262 139.24Z" fill="#DA4436"/>
<g filter="url(#filter0_d_6111_28440)">
<path d="M304.385 141.503C305.761 145.815 307.397 150.071 308.483 154.465C320.897 204.856 307.903 247.681 269.623 282.64C263.981 287.795 257.152 291.648 250.88 296.111C250.223 296.579 249.585 297.055 248.943 297.533L236.219 303.716C232.074 305.09 227.963 306.575 223.79 307.834L223.794 307.832C210.948 311.715 197.803 313.362 184.392 313.025C183.389 313 182.155 313.445 181.396 314.096C167.649 325.929 153.954 337.816 140.253 349.7C140.169 349.779 140.08 349.849 139.996 349.927C139.71 350.184 139.496 350.533 139.246 350.841L135.737 352.546C132.735 352.772 130.133 351.858 127.909 349.837L126.203 346.326C126.126 345.904 126.053 345.48 125.976 345.059C124.943 339.358 123.939 333.652 122.865 327.955C120.582 315.921 118.294 303.889 115.88 291.882C115.63 290.621 114.738 289.19 113.71 288.414C99.9144 278.029 88.62 265.447 80.0491 250.43C79.7397 249.882 79.2667 249.423 78.869 248.922L73.1122 237.076C71.5655 232.468 69.8419 227.913 68.5016 223.247C59.6365 192.428 62.0334 162.424 75.9859 133.59C89.4714 105.725 110.761 85.6946 139.099 73.3273C191.131 50.6365 253.529 67.1497 287.58 112.514C290.881 116.916 293.816 121.597 296.922 126.146L304.385 141.503Z" fill="white"/>
</g>
<circle cx="285.25" cy="89.3411" r="25.0511" fill="white" stroke="#DA4436" stroke-width="4.55475"/>
<g clip-path="url(#clip0_6111_28440)">
<path d="M276.16 79.6376L295.843 99.3202L276.16 79.6376Z" fill="#DA4436"/>
<path d="M276.16 79.6376L295.843 99.3202" stroke="#DA4436" stroke-width="6.83625" stroke-miterlimit="10" stroke-linecap="round"/>
<path d="M295.843 79.6376L276.16 99.3202L295.843 79.6376Z" fill="#DA4436"/>
<path d="M295.843 79.6376L276.16 99.3202" stroke="#DA4436" stroke-width="6.83625" stroke-miterlimit="10" stroke-linecap="round"/>
</g>
<path d="M142.163 205.563C141.84 205.563 141.47 205.55 141.053 205.523C140.65 205.509 140.233 205.482 139.802 205.442C139.385 205.402 138.982 205.361 138.592 205.321C138.215 205.281 137.892 205.227 137.623 205.16V203.586C137.973 203.613 138.39 203.64 138.874 203.667C139.372 203.693 139.896 203.714 140.448 203.727C141.013 203.741 141.558 203.747 142.082 203.747C142.661 203.747 143.172 203.693 143.615 203.586C144.073 203.478 144.429 203.277 144.685 202.981C144.954 202.685 145.088 202.268 145.088 201.73V200.862C145.088 200.257 144.92 199.793 144.584 199.47C144.261 199.147 143.763 198.986 143.091 198.986H141.578C140.287 198.986 139.284 198.703 138.572 198.139C137.872 197.574 137.523 196.605 137.523 195.233V194.426C137.523 193.001 137.906 191.985 138.673 191.38C139.453 190.761 140.556 190.452 141.981 190.452C142.452 190.452 142.956 190.479 143.494 190.532C144.032 190.573 144.557 190.627 145.068 190.694C145.579 190.761 146.003 190.828 146.339 190.896V192.469C145.734 192.429 145.055 192.389 144.301 192.348C143.562 192.294 142.862 192.268 142.203 192.268C141.638 192.268 141.147 192.335 140.73 192.469C140.327 192.59 140.011 192.812 139.782 193.135C139.567 193.458 139.459 193.915 139.459 194.507V195.112C139.459 195.839 139.654 196.343 140.044 196.625C140.434 196.908 140.979 197.049 141.679 197.049H143.313C144.16 197.049 144.853 197.204 145.391 197.513C145.942 197.822 146.353 198.246 146.622 198.784C146.891 199.322 147.025 199.934 147.025 200.62V201.669C147.025 202.718 146.81 203.525 146.379 204.09C145.949 204.655 145.371 205.045 144.644 205.26C143.918 205.462 143.091 205.563 142.163 205.563ZM149.83 192.832C149.588 192.832 149.467 192.718 149.467 192.489V190.795C149.467 190.553 149.588 190.432 149.83 190.432H151.323C151.431 190.432 151.511 190.465 151.565 190.532C151.619 190.6 151.646 190.687 151.646 190.795V192.489C151.646 192.718 151.538 192.832 151.323 192.832H149.83ZM149.548 205.442V194.648H151.565V205.442H149.548ZM157.401 205.462C156.742 205.462 156.183 205.348 155.726 205.119C155.282 204.891 154.946 204.527 154.717 204.03C154.502 203.519 154.394 202.833 154.394 201.972V190.048H156.412V201.71C156.412 202.274 156.466 202.712 156.573 203.021C156.694 203.317 156.856 203.525 157.058 203.646C157.273 203.767 157.522 203.848 157.804 203.889L158.813 204.01V205.462H157.401ZM164.841 205.563C164.021 205.563 163.308 205.476 162.703 205.301C162.111 205.126 161.62 204.837 161.23 204.433C160.84 204.016 160.551 203.451 160.362 202.739C160.174 202.026 160.08 201.124 160.08 200.035C160.08 198.905 160.174 197.984 160.362 197.271C160.551 196.545 160.84 195.98 161.23 195.576C161.62 195.173 162.118 194.897 162.723 194.749C163.328 194.588 164.034 194.507 164.841 194.507C165.648 194.507 166.355 194.588 166.96 194.749C167.565 194.91 168.063 195.193 168.453 195.596C168.843 196 169.132 196.565 169.32 197.291C169.509 198.004 169.603 198.919 169.603 200.035C169.603 201.138 169.509 202.053 169.32 202.779C169.132 203.492 168.843 204.05 168.453 204.453C168.076 204.857 167.585 205.146 166.98 205.321C166.375 205.482 165.662 205.563 164.841 205.563ZM164.841 203.909C165.285 203.909 165.675 203.868 166.012 203.788C166.361 203.707 166.65 203.539 166.879 203.283C167.108 203.014 167.283 202.617 167.404 202.093C167.525 201.568 167.585 200.876 167.585 200.015C167.585 199.154 167.525 198.468 167.404 197.957C167.283 197.432 167.108 197.042 166.879 196.787C166.65 196.531 166.361 196.363 166.012 196.282C165.675 196.188 165.285 196.141 164.841 196.141C164.384 196.141 163.981 196.188 163.631 196.282C163.295 196.363 163.012 196.531 162.783 196.787C162.568 197.042 162.4 197.432 162.279 197.957C162.171 198.468 162.118 199.154 162.118 200.015C162.118 200.876 162.171 201.568 162.279 202.093C162.4 202.617 162.568 203.014 162.783 203.283C163.012 203.539 163.295 203.707 163.631 203.788C163.981 203.868 164.384 203.909 164.841 203.909ZM176.325 205.563C175.181 205.563 174.267 205.395 173.581 205.059C172.908 204.722 172.424 204.158 172.128 203.364C171.846 202.557 171.704 201.447 171.704 200.035C171.704 198.596 171.846 197.479 172.128 196.686C172.424 195.879 172.908 195.314 173.581 194.991C174.253 194.668 175.161 194.507 176.304 194.507C177.3 194.507 178.1 194.615 178.705 194.83C179.324 195.032 179.775 195.401 180.057 195.939C180.353 196.464 180.501 197.197 180.501 198.139C180.501 198.798 180.366 199.322 180.097 199.712C179.842 200.102 179.472 200.385 178.988 200.56C178.517 200.734 177.952 200.822 177.293 200.822H173.722C173.735 201.602 173.823 202.227 173.984 202.698C174.159 203.155 174.462 203.492 174.892 203.707C175.336 203.909 175.982 204.01 176.829 204.01H180.198V205.22C179.62 205.301 179.028 205.375 178.423 205.442C177.818 205.523 177.118 205.563 176.325 205.563ZM173.702 199.551H177.111C177.649 199.551 178.046 199.45 178.302 199.248C178.557 199.046 178.685 198.677 178.685 198.139C178.685 197.601 178.604 197.177 178.443 196.867C178.295 196.558 178.046 196.336 177.697 196.202C177.347 196.067 176.883 196 176.304 196C175.645 196 175.121 196.101 174.731 196.303C174.354 196.504 174.085 196.861 173.924 197.372C173.776 197.883 173.702 198.609 173.702 199.551ZM186.474 205.563C185.599 205.563 184.873 205.375 184.295 204.998C183.73 204.622 183.306 204.036 183.024 203.243C182.741 202.436 182.6 201.4 182.6 200.136C182.6 198.804 182.728 197.728 182.983 196.908C183.252 196.074 183.683 195.469 184.275 195.092C184.866 194.702 185.667 194.507 186.675 194.507C187.24 194.507 187.798 194.567 188.35 194.689C188.915 194.81 189.406 194.944 189.823 195.092V190.048H191.84V205.442H190.186L189.823 204.373C189.608 204.561 189.312 204.749 188.935 204.938C188.558 205.112 188.155 205.26 187.724 205.381C187.294 205.503 186.877 205.563 186.474 205.563ZM187.119 203.909C187.671 203.909 188.168 203.821 188.612 203.646C189.07 203.472 189.473 203.29 189.823 203.102V196.545C189.406 196.424 188.996 196.316 188.592 196.222C188.202 196.114 187.765 196.06 187.281 196.06C186.648 196.06 186.137 196.175 185.747 196.403C185.357 196.632 185.075 197.036 184.9 197.614C184.725 198.192 184.638 198.999 184.638 200.035C184.638 200.99 184.718 201.757 184.88 202.335C185.041 202.9 185.303 203.303 185.667 203.546C186.043 203.788 186.527 203.909 187.119 203.909ZM203.477 205.563C202.603 205.563 201.876 205.375 201.298 204.998C200.733 204.622 200.309 204.036 200.027 203.243C199.744 202.436 199.603 201.4 199.603 200.136C199.603 198.804 199.731 197.728 199.987 196.908C200.256 196.074 200.686 195.469 201.278 195.092C201.87 194.702 202.67 194.507 203.679 194.507C204.244 194.507 204.802 194.567 205.353 194.689C205.918 194.81 206.409 194.944 206.826 195.092V190.048H208.844V205.442H207.189L206.826 204.373C206.611 204.561 206.315 204.749 205.938 204.938C205.562 205.112 205.158 205.26 204.728 205.381C204.297 205.503 203.88 205.563 203.477 205.563ZM204.122 203.909C204.674 203.909 205.172 203.821 205.615 203.646C206.073 203.472 206.476 203.29 206.826 203.102V196.545C206.409 196.424 205.999 196.316 205.595 196.222C205.205 196.114 204.768 196.06 204.284 196.06C203.652 196.06 203.141 196.175 202.751 196.403C202.36 196.632 202.078 197.036 201.903 197.614C201.728 198.192 201.641 198.999 201.641 200.035C201.641 200.99 201.722 201.757 201.883 202.335C202.044 202.9 202.307 203.303 202.67 203.546C203.046 203.788 203.531 203.909 204.122 203.909ZM213.769 205.563C212.976 205.563 212.317 205.328 211.792 204.857C211.281 204.373 211.025 203.707 211.025 202.86V202.012C211.025 201.178 211.308 200.499 211.873 199.974C212.451 199.436 213.319 199.167 214.475 199.167H217.845V198.038C217.845 197.621 217.771 197.271 217.623 196.989C217.488 196.693 217.233 196.471 216.856 196.323C216.48 196.175 215.921 196.101 215.182 196.101H211.873V194.91C212.357 194.803 212.922 194.709 213.568 194.628C214.227 194.547 214.993 194.5 215.868 194.487C216.755 194.487 217.495 194.601 218.087 194.83C218.692 195.045 219.143 195.408 219.439 195.919C219.734 196.417 219.882 197.083 219.882 197.917V205.442H218.289L217.946 204.252C217.865 204.305 217.697 204.406 217.441 204.554C217.186 204.689 216.856 204.837 216.453 204.998C216.063 205.16 215.632 205.294 215.161 205.402C214.704 205.509 214.24 205.563 213.769 205.563ZM214.697 204.09C214.899 204.104 215.134 204.084 215.404 204.03C215.686 203.976 215.962 203.915 216.231 203.848C216.513 203.767 216.769 203.687 216.997 203.606C217.239 203.525 217.434 203.458 217.582 203.404C217.744 203.337 217.831 203.297 217.845 203.283V200.176L215.02 200.297C214.321 200.338 213.816 200.513 213.507 200.822C213.211 201.131 213.063 201.535 213.063 202.032V202.517C213.063 202.907 213.144 203.223 213.305 203.465C213.467 203.693 213.668 203.855 213.911 203.949C214.166 204.043 214.428 204.09 214.697 204.09ZM226.357 205.442C225.63 205.442 225.025 205.328 224.541 205.099C224.07 204.857 223.72 204.474 223.492 203.949C223.277 203.424 223.176 202.725 223.189 201.851L223.27 196.303H221.555V194.991L223.31 194.648L223.613 191.622H225.207V194.648H228.132V196.303H225.207V201.831C225.207 202.248 225.247 202.584 225.328 202.839C225.408 203.095 225.523 203.29 225.671 203.424C225.819 203.559 225.98 203.66 226.155 203.727C226.33 203.781 226.498 203.815 226.659 203.828L227.991 203.949V205.442H226.357ZM232.329 205.563C231.535 205.563 230.876 205.328 230.352 204.857C229.841 204.373 229.585 203.707 229.585 202.86V202.012C229.585 201.178 229.868 200.499 230.433 199.974C231.011 199.436 231.878 199.167 233.035 199.167H236.404V198.038C236.404 197.621 236.33 197.271 236.183 196.989C236.048 196.693 235.792 196.471 235.416 196.323C235.039 196.175 234.481 196.101 233.741 196.101H230.433V194.91C230.917 194.803 231.482 194.709 232.127 194.628C232.786 194.547 233.553 194.5 234.427 194.487C235.315 194.487 236.055 194.601 236.647 194.83C237.252 195.045 237.702 195.408 237.998 195.919C238.294 196.417 238.442 197.083 238.442 197.917V205.442H236.848L236.505 204.252C236.425 204.305 236.257 204.406 236.001 204.554C235.745 204.689 235.416 204.837 235.012 204.998C234.622 205.16 234.192 205.294 233.721 205.402C233.264 205.509 232.8 205.563 232.329 205.563ZM233.257 204.09C233.459 204.104 233.694 204.084 233.963 204.03C234.246 203.976 234.521 203.915 234.79 203.848C235.073 203.767 235.328 203.687 235.557 203.606C235.799 203.525 235.994 203.458 236.142 203.404C236.304 203.337 236.391 203.297 236.404 203.283V200.176L233.58 200.297C232.881 200.338 232.376 200.513 232.067 200.822C231.771 201.131 231.623 201.535 231.623 202.032V202.517C231.623 202.907 231.704 203.223 231.865 203.465C232.026 203.693 232.228 203.855 232.47 203.949C232.726 204.043 232.988 204.09 233.257 204.09ZM145.499 232.442V217.048H147.516V222.818C147.987 222.469 148.559 222.159 149.231 221.89C149.904 221.608 150.596 221.467 151.309 221.467C152.089 221.467 152.722 221.628 153.206 221.951C153.703 222.274 154.067 222.717 154.295 223.282C154.524 223.834 154.638 224.459 154.638 225.159V232.442H152.621V225.401C152.621 224.984 152.533 224.621 152.358 224.311C152.197 223.989 151.962 223.74 151.652 223.565C151.356 223.39 151 223.303 150.583 223.303C150.179 223.303 149.803 223.343 149.453 223.424C149.117 223.504 148.794 223.619 148.485 223.767C148.175 223.915 147.853 224.083 147.516 224.271V232.442H145.499ZM157.682 219.832C157.439 219.832 157.318 219.718 157.318 219.489V217.795C157.318 217.553 157.439 217.432 157.682 217.432H159.175C159.282 217.432 159.363 217.465 159.417 217.532C159.47 217.6 159.497 217.687 159.497 217.795V219.489C159.497 219.718 159.39 219.832 159.175 219.832H157.682ZM157.399 232.442V221.648H159.417V232.442H157.399ZM162.246 232.442V221.648H163.86L164.263 222.818C164.748 222.469 165.319 222.159 165.978 221.89C166.651 221.608 167.344 221.467 168.056 221.467C168.863 221.467 169.509 221.641 169.993 221.991C170.491 222.327 170.847 222.778 171.063 223.343C171.278 223.908 171.385 224.52 171.385 225.179V232.442H169.368V225.421C169.368 224.991 169.28 224.621 169.106 224.311C168.944 223.989 168.715 223.74 168.42 223.565C168.124 223.39 167.761 223.303 167.33 223.303C166.927 223.303 166.55 223.343 166.2 223.424C165.864 223.504 165.541 223.619 165.232 223.767C164.923 223.901 164.6 224.069 164.263 224.271V232.442H162.246ZM177.657 232.563C176.782 232.563 176.056 232.375 175.478 231.998C174.913 231.622 174.489 231.036 174.207 230.243C173.924 229.436 173.783 228.4 173.783 227.136C173.783 225.804 173.911 224.728 174.166 223.908C174.435 223.074 174.866 222.469 175.458 222.092C176.049 221.702 176.85 221.507 177.858 221.507C178.423 221.507 178.982 221.567 179.533 221.689C180.098 221.81 180.589 221.944 181.006 222.092V217.048H183.023V232.442H181.369L181.006 231.373C180.791 231.561 180.495 231.749 180.118 231.938C179.742 232.112 179.338 232.26 178.908 232.381C178.477 232.503 178.06 232.563 177.657 232.563ZM178.302 230.909C178.854 230.909 179.351 230.821 179.795 230.646C180.253 230.472 180.656 230.29 181.006 230.102V223.545C180.589 223.424 180.179 223.316 179.775 223.222C179.385 223.114 178.948 223.06 178.464 223.06C177.832 223.06 177.32 223.175 176.93 223.403C176.54 223.632 176.258 224.036 176.083 224.614C175.908 225.192 175.821 225.999 175.821 227.035C175.821 227.99 175.901 228.757 176.063 229.335C176.224 229.9 176.487 230.303 176.85 230.546C177.226 230.788 177.711 230.909 178.302 230.909ZM190.047 232.563C188.904 232.563 187.99 232.395 187.304 232.059C186.631 231.722 186.147 231.158 185.851 230.364C185.568 229.557 185.427 228.447 185.427 227.035C185.427 225.596 185.568 224.479 185.851 223.686C186.147 222.879 186.631 222.314 187.304 221.991C187.976 221.668 188.884 221.507 190.027 221.507C191.023 221.507 191.823 221.615 192.428 221.83C193.047 222.032 193.497 222.401 193.78 222.939C194.076 223.464 194.224 224.197 194.224 225.139C194.224 225.798 194.089 226.322 193.82 226.712C193.565 227.102 193.195 227.385 192.711 227.56C192.24 227.734 191.675 227.822 191.016 227.822H187.445C187.458 228.602 187.546 229.227 187.707 229.698C187.882 230.155 188.185 230.492 188.615 230.707C189.059 230.909 189.704 231.01 190.552 231.01H193.921V232.22C193.343 232.301 192.751 232.375 192.146 232.442C191.54 232.523 190.841 232.563 190.047 232.563ZM187.425 226.551H190.834C191.372 226.551 191.769 226.45 192.025 226.248C192.28 226.046 192.408 225.677 192.408 225.139C192.408 224.601 192.327 224.177 192.166 223.867C192.018 223.558 191.769 223.336 191.419 223.202C191.07 223.067 190.606 223 190.027 223C189.368 223 188.844 223.101 188.454 223.303C188.077 223.504 187.808 223.861 187.647 224.372C187.499 224.883 187.425 225.609 187.425 226.551ZM196.686 232.442V221.648H198.239L198.703 223.464C199.161 222.913 199.672 222.448 200.237 222.072C200.802 221.695 201.461 221.507 202.214 221.507C202.389 221.507 202.557 221.52 202.718 221.547C202.88 221.561 203.034 221.588 203.182 221.628V223.706C202.994 223.679 202.799 223.659 202.597 223.646C202.396 223.619 202.187 223.605 201.972 223.605C201.515 223.605 201.104 223.659 200.741 223.767C200.378 223.874 200.028 224.042 199.692 224.271C199.369 224.486 199.04 224.755 198.703 225.078V232.442H196.686ZM205.362 219.832C205.12 219.832 204.998 219.718 204.998 219.489V217.795C204.998 217.553 205.12 217.432 205.362 217.432H206.855C206.962 217.432 207.043 217.465 207.097 217.532C207.15 217.6 207.177 217.687 207.177 217.795V219.489C207.177 219.718 207.07 219.832 206.855 219.832H205.362ZM205.079 232.442V221.648H207.097V232.442H205.079ZM209.926 232.442V221.648H211.54L211.943 222.818C212.428 222.469 212.999 222.159 213.658 221.89C214.331 221.608 215.024 221.467 215.736 221.467C216.543 221.467 217.189 221.641 217.673 221.991C218.171 222.327 218.527 222.778 218.743 223.343C218.958 223.908 219.065 224.52 219.065 225.179V232.442H217.048V225.421C217.048 224.991 216.96 224.621 216.786 224.311C216.624 223.989 216.396 223.74 216.1 223.565C215.804 223.39 215.441 223.303 215.01 223.303C214.607 223.303 214.23 223.343 213.88 223.424C213.544 223.504 213.221 223.619 212.912 223.767C212.603 223.901 212.28 224.069 211.943 224.271V232.442H209.926ZM224.51 237.405C223.824 237.405 223.212 237.304 222.674 237.103C222.149 236.914 221.732 236.618 221.423 236.215C221.113 235.825 220.959 235.341 220.959 234.762V234.318C220.959 233.713 221.127 233.202 221.463 232.785C221.813 232.381 222.25 232.072 222.775 231.857C223.299 231.642 223.844 231.534 224.409 231.534L224.953 232.281C224.59 232.281 224.247 232.334 223.925 232.442C223.615 232.563 223.36 232.745 223.158 232.987C222.97 233.242 222.875 233.565 222.875 233.955V234.339C222.875 234.903 223.064 235.314 223.44 235.569C223.83 235.825 224.362 235.953 225.034 235.953H227.395C228.108 235.953 228.672 235.811 229.089 235.529C229.506 235.26 229.715 234.836 229.715 234.258V233.874C229.715 233.552 229.641 233.269 229.493 233.027C229.358 232.785 229.136 232.597 228.827 232.462C228.518 232.341 228.094 232.281 227.556 232.281H224.57C223.615 232.281 222.889 232.086 222.391 231.696C221.894 231.305 221.645 230.815 221.645 230.223C221.645 229.685 221.799 229.254 222.109 228.932C222.432 228.595 222.882 228.367 223.46 228.246C222.976 228.03 222.593 227.755 222.31 227.418C222.041 227.082 221.853 226.719 221.746 226.329C221.638 225.925 221.584 225.522 221.584 225.118C221.584 224.298 221.752 223.632 222.089 223.121C222.425 222.61 222.909 222.233 223.541 221.991C224.187 221.749 224.953 221.628 225.841 221.628H231.652V222.778L229.453 223C229.614 223.121 229.789 223.282 229.977 223.484C230.165 223.672 230.327 223.935 230.461 224.271C230.596 224.607 230.663 225.051 230.663 225.603C230.663 226.181 230.535 226.719 230.28 227.217C230.038 227.714 229.634 228.118 229.069 228.427C228.518 228.736 227.765 228.891 226.81 228.891H225.034C224.523 228.891 224.12 228.965 223.824 229.113C223.528 229.261 223.38 229.523 223.38 229.9C223.38 230.209 223.494 230.424 223.723 230.546C223.951 230.667 224.194 230.727 224.449 230.727H227.859C228.679 230.727 229.365 230.835 229.917 231.05C230.482 231.265 230.905 231.595 231.188 232.039C231.47 232.482 231.611 233.061 231.611 233.774V234.157C231.611 235.179 231.275 235.973 230.603 236.538C229.943 237.116 228.941 237.405 227.596 237.405H224.51ZM225.397 227.338H226.588C227.193 227.338 227.65 227.25 227.96 227.075C228.282 226.887 228.504 226.645 228.625 226.349C228.746 226.053 228.807 225.724 228.807 225.36C228.807 224.822 228.72 224.399 228.545 224.089C228.37 223.767 228.128 223.538 227.818 223.403C227.522 223.256 227.159 223.182 226.729 223.182H225.599C224.913 223.182 224.375 223.336 223.985 223.646C223.608 223.955 223.42 224.486 223.42 225.239C223.42 225.979 223.595 226.517 223.945 226.853C224.294 227.176 224.779 227.338 225.397 227.338ZM132.067 259.563C131.435 259.563 130.85 259.482 130.312 259.321C129.787 259.146 129.323 258.857 128.92 258.453C128.53 258.05 128.227 257.492 128.012 256.779C127.797 256.066 127.689 255.165 127.689 254.075C127.689 252.959 127.79 252.044 127.992 251.332C128.193 250.605 128.483 250.04 128.859 249.637C129.249 249.22 129.72 248.931 130.272 248.769C130.823 248.608 131.442 248.527 132.128 248.527C132.693 248.527 133.284 248.554 133.903 248.608C134.535 248.662 135.147 248.749 135.739 248.87V250.06H132.693C132.034 250.06 131.482 250.168 131.038 250.383C130.594 250.585 130.265 250.982 130.05 251.574C129.834 252.152 129.727 252.993 129.727 254.096C129.727 255.158 129.841 255.979 130.07 256.557C130.298 257.122 130.628 257.505 131.058 257.707C131.502 257.909 132.054 258.01 132.713 258.01H135.9V259.16C135.591 259.24 135.221 259.314 134.791 259.381C134.374 259.435 133.93 259.476 133.459 259.503C133.002 259.543 132.538 259.563 132.067 259.563ZM142.341 259.563C141.521 259.563 140.808 259.476 140.203 259.301C139.611 259.126 139.12 258.837 138.73 258.433C138.34 258.016 138.05 257.451 137.862 256.739C137.674 256.026 137.58 255.124 137.58 254.035C137.58 252.905 137.674 251.984 137.862 251.271C138.05 250.545 138.34 249.98 138.73 249.576C139.12 249.173 139.617 248.897 140.223 248.749C140.828 248.588 141.534 248.507 142.341 248.507C143.148 248.507 143.854 248.588 144.46 248.749C145.065 248.91 145.562 249.193 145.953 249.596C146.343 250 146.632 250.565 146.82 251.291C147.008 252.004 147.102 252.919 147.102 254.035C147.102 255.138 147.008 256.053 146.82 256.779C146.632 257.492 146.343 258.05 145.953 258.453C145.576 258.857 145.085 259.146 144.48 259.321C143.874 259.482 143.162 259.563 142.341 259.563ZM142.341 257.909C142.785 257.909 143.175 257.868 143.511 257.788C143.861 257.707 144.15 257.539 144.379 257.283C144.607 257.014 144.782 256.617 144.903 256.093C145.024 255.568 145.085 254.876 145.085 254.015C145.085 253.154 145.024 252.468 144.903 251.957C144.782 251.432 144.607 251.042 144.379 250.787C144.15 250.531 143.861 250.363 143.511 250.282C143.175 250.188 142.785 250.141 142.341 250.141C141.884 250.141 141.48 250.188 141.131 250.282C140.794 250.363 140.512 250.531 140.283 250.787C140.068 251.042 139.9 251.432 139.779 251.957C139.671 252.468 139.617 253.154 139.617 254.015C139.617 254.876 139.671 255.568 139.779 256.093C139.9 256.617 140.068 257.014 140.283 257.283C140.512 257.539 140.794 257.707 141.131 257.788C141.48 257.868 141.884 257.909 142.341 257.909ZM152.573 259.462C151.914 259.462 151.356 259.348 150.899 259.119C150.455 258.891 150.119 258.527 149.89 258.03C149.675 257.519 149.567 256.833 149.567 255.972V244.048H151.585V255.71C151.585 256.274 151.639 256.712 151.746 257.021C151.867 257.317 152.029 257.525 152.231 257.646C152.446 257.767 152.695 257.848 152.977 257.889L153.986 258.01V259.462H152.573ZM158.622 259.462C157.963 259.462 157.405 259.348 156.948 259.119C156.504 258.891 156.167 258.527 155.939 258.03C155.724 257.519 155.616 256.833 155.616 255.972V244.048H157.634V255.71C157.634 256.274 157.687 256.712 157.795 257.021C157.916 257.317 158.077 257.525 158.279 257.646C158.494 257.767 158.743 257.848 159.026 257.889L160.034 258.01V259.462H158.622ZM163.823 259.563C163.03 259.563 162.371 259.328 161.846 258.857C161.335 258.373 161.08 257.707 161.08 256.86V256.012C161.08 255.178 161.362 254.499 161.927 253.974C162.505 253.436 163.373 253.167 164.53 253.167H167.899V252.038C167.899 251.621 167.825 251.271 167.677 250.989C167.542 250.693 167.287 250.471 166.91 250.323C166.534 250.175 165.975 250.101 165.236 250.101H161.927V248.91C162.411 248.803 162.976 248.709 163.622 248.628C164.281 248.547 165.047 248.5 165.922 248.487C166.809 248.487 167.549 248.601 168.141 248.83C168.746 249.045 169.197 249.408 169.493 249.919C169.789 250.417 169.937 251.083 169.937 251.917V259.442H168.343L168 258.252C167.919 258.305 167.751 258.406 167.495 258.554C167.24 258.689 166.91 258.837 166.507 258.998C166.117 259.16 165.686 259.294 165.216 259.402C164.758 259.509 164.294 259.563 163.823 259.563ZM164.752 258.09C164.953 258.104 165.189 258.084 165.458 258.03C165.74 257.976 166.016 257.915 166.285 257.848C166.567 257.767 166.823 257.687 167.052 257.606C167.294 257.525 167.489 257.458 167.637 257.404C167.798 257.337 167.885 257.297 167.899 257.283V254.176L165.074 254.297C164.375 254.338 163.871 254.513 163.561 254.822C163.265 255.131 163.117 255.535 163.117 256.032V256.517C163.117 256.907 163.198 257.223 163.359 257.465C163.521 257.693 163.723 257.855 163.965 257.949C164.22 258.043 164.483 258.09 164.752 258.09ZM178.166 259.563C177.668 259.563 177.204 259.503 176.774 259.381C176.357 259.26 175.974 259.112 175.624 258.938C175.288 258.749 174.978 258.561 174.696 258.373L174.333 259.442H172.678V244.048H174.696V249.556C175.194 249.287 175.745 249.045 176.35 248.83C176.969 248.615 177.541 248.507 178.065 248.507C178.953 248.507 179.679 248.695 180.244 249.072C180.809 249.435 181.226 250.027 181.495 250.847C181.777 251.668 181.919 252.764 181.919 254.136C181.919 255.279 181.791 256.261 181.535 257.081C181.28 257.889 180.876 258.507 180.325 258.938C179.773 259.355 179.054 259.563 178.166 259.563ZM177.46 257.889C177.985 257.889 178.422 257.761 178.771 257.505C179.135 257.236 179.41 256.819 179.599 256.254C179.8 255.676 179.901 254.936 179.901 254.035C179.901 252.932 179.794 252.105 179.578 251.553C179.363 251.002 179.074 250.632 178.711 250.444C178.348 250.256 177.931 250.161 177.46 250.161C176.922 250.161 176.431 250.242 175.987 250.403C175.557 250.551 175.126 250.74 174.696 250.968V257.122C175.059 257.31 175.469 257.485 175.927 257.646C176.384 257.808 176.895 257.889 177.46 257.889ZM188.78 259.563C187.959 259.563 187.247 259.476 186.641 259.301C186.05 259.126 185.559 258.837 185.169 258.433C184.778 258.016 184.489 257.451 184.301 256.739C184.113 256.026 184.019 255.124 184.019 254.035C184.019 252.905 184.113 251.984 184.301 251.271C184.489 250.545 184.778 249.98 185.169 249.576C185.559 249.173 186.056 248.897 186.661 248.749C187.267 248.588 187.973 248.507 188.78 248.507C189.587 248.507 190.293 248.588 190.898 248.749C191.504 248.91 192.001 249.193 192.391 249.596C192.781 250 193.071 250.565 193.259 251.291C193.447 252.004 193.541 252.919 193.541 254.035C193.541 255.138 193.447 256.053 193.259 256.779C193.071 257.492 192.781 258.05 192.391 258.453C192.015 258.857 191.524 259.146 190.918 259.321C190.313 259.482 189.6 259.563 188.78 259.563ZM188.78 257.909C189.224 257.909 189.614 257.868 189.95 257.788C190.3 257.707 190.589 257.539 190.818 257.283C191.046 257.014 191.221 256.617 191.342 256.093C191.463 255.568 191.524 254.876 191.524 254.015C191.524 253.154 191.463 252.468 191.342 251.957C191.221 251.432 191.046 251.042 190.818 250.787C190.589 250.531 190.3 250.363 189.95 250.282C189.614 250.188 189.224 250.141 188.78 250.141C188.323 250.141 187.919 250.188 187.569 250.282C187.233 250.363 186.951 250.531 186.722 250.787C186.507 251.042 186.339 251.432 186.218 251.957C186.11 252.468 186.056 253.154 186.056 254.015C186.056 254.876 186.11 255.568 186.218 256.093C186.339 256.617 186.507 257.014 186.722 257.283C186.951 257.539 187.233 257.707 187.569 257.788C187.919 257.868 188.323 257.909 188.78 257.909ZM196.006 259.442V248.648H197.56L198.024 250.464C198.481 249.913 198.992 249.448 199.557 249.072C200.122 248.695 200.781 248.507 201.534 248.507C201.709 248.507 201.877 248.52 202.039 248.547C202.2 248.561 202.355 248.588 202.503 248.628V250.706C202.314 250.679 202.119 250.659 201.918 250.646C201.716 250.619 201.507 250.605 201.292 250.605C200.835 250.605 200.425 250.659 200.061 250.767C199.698 250.874 199.349 251.042 199.012 251.271C198.689 251.486 198.36 251.755 198.024 252.078V259.442H196.006ZM206.164 259.563C205.371 259.563 204.712 259.328 204.187 258.857C203.676 258.373 203.42 257.707 203.42 256.86V256.012C203.42 255.178 203.703 254.499 204.268 253.974C204.846 253.436 205.714 253.167 206.87 253.167H210.24V252.038C210.24 251.621 210.166 251.271 210.018 250.989C209.883 250.693 209.628 250.471 209.251 250.323C208.874 250.175 208.316 250.101 207.576 250.101H204.268V248.91C204.752 248.803 205.317 248.709 205.962 248.628C206.621 248.547 207.388 248.5 208.262 248.487C209.15 248.487 209.89 248.601 210.482 248.83C211.087 249.045 211.538 249.408 211.833 249.919C212.129 250.417 212.277 251.083 212.277 251.917V259.442H210.683L210.34 258.252C210.26 258.305 210.092 258.406 209.836 258.554C209.58 258.689 209.251 258.837 208.847 258.998C208.457 259.16 208.027 259.294 207.556 259.402C207.099 259.509 206.635 259.563 206.164 259.563ZM207.092 258.09C207.294 258.104 207.529 258.084 207.798 258.03C208.081 257.976 208.357 257.915 208.626 257.848C208.908 257.767 209.164 257.687 209.392 257.606C209.634 257.525 209.829 257.458 209.977 257.404C210.139 257.337 210.226 257.297 210.24 257.283V254.176L207.415 254.297C206.716 254.338 206.211 254.513 205.902 254.822C205.606 255.131 205.458 255.535 205.458 256.032V256.517C205.458 256.907 205.539 257.223 205.7 257.465C205.862 257.693 206.063 257.855 206.305 257.949C206.561 258.043 206.823 258.09 207.092 258.09ZM218.752 259.442C218.025 259.442 217.42 259.328 216.936 259.099C216.465 258.857 216.115 258.474 215.887 257.949C215.671 257.424 215.571 256.725 215.584 255.851L215.665 250.303H213.95V248.991L215.705 248.648L216.008 245.622H217.602V248.648H220.527V250.303H217.602V255.831C217.602 256.248 217.642 256.584 217.723 256.839C217.803 257.095 217.918 257.29 218.066 257.424C218.213 257.559 218.375 257.66 218.55 257.727C218.725 257.781 218.893 257.815 219.054 257.828L220.386 257.949V259.442H218.752ZM222.848 246.832C222.605 246.832 222.484 246.718 222.484 246.489V244.795C222.484 244.553 222.605 244.432 222.848 244.432H224.341C224.448 244.432 224.529 244.465 224.583 244.532C224.636 244.6 224.663 244.687 224.663 244.795V246.489C224.663 246.718 224.556 246.832 224.341 246.832H222.848ZM222.565 259.442V248.648H224.583V259.442H222.565ZM231.81 259.563C230.99 259.563 230.277 259.476 229.672 259.301C229.08 259.126 228.589 258.837 228.199 258.433C227.809 258.016 227.52 257.451 227.331 256.739C227.143 256.026 227.049 255.124 227.049 254.035C227.049 252.905 227.143 251.984 227.331 251.271C227.52 250.545 227.809 249.98 228.199 249.576C228.589 249.173 229.086 248.897 229.692 248.749C230.297 248.588 231.003 248.507 231.81 248.507C232.617 248.507 233.323 248.588 233.929 248.749C234.534 248.91 235.031 249.193 235.422 249.596C235.812 250 236.101 250.565 236.289 251.291C236.477 252.004 236.572 252.919 236.572 254.035C236.572 255.138 236.477 256.053 236.289 256.779C236.101 257.492 235.812 258.05 235.422 258.453C235.045 258.857 234.554 259.146 233.949 259.321C233.343 259.482 232.631 259.563 231.81 259.563ZM231.81 257.909C232.254 257.909 232.644 257.868 232.98 257.788C233.33 257.707 233.619 257.539 233.848 257.283C234.077 257.014 234.251 256.617 234.372 256.093C234.493 255.568 234.554 254.876 234.554 254.015C234.554 253.154 234.493 252.468 234.372 251.957C234.251 251.432 234.077 251.042 233.848 250.787C233.619 250.531 233.33 250.363 232.98 250.282C232.644 250.188 232.254 250.141 231.81 250.141C231.353 250.141 230.949 250.188 230.6 250.282C230.263 250.363 229.981 250.531 229.752 250.787C229.537 251.042 229.369 251.432 229.248 251.957C229.14 252.468 229.086 253.154 229.086 254.015C229.086 254.876 229.14 255.568 229.248 256.093C229.369 256.617 229.537 257.014 229.752 257.283C229.981 257.539 230.263 257.707 230.6 257.788C230.949 257.868 231.353 257.909 231.81 257.909ZM239.036 259.442V248.648H240.65L241.054 249.818C241.538 249.469 242.11 249.159 242.769 248.89C243.441 248.608 244.134 248.467 244.847 248.467C245.654 248.467 246.3 248.641 246.784 248.991C247.281 249.327 247.638 249.778 247.853 250.343C248.068 250.908 248.176 251.52 248.176 252.179V259.442H246.158V252.421C246.158 251.991 246.071 251.621 245.896 251.311C245.735 250.989 245.506 250.74 245.21 250.565C244.914 250.39 244.551 250.303 244.121 250.303C243.717 250.303 243.34 250.343 242.991 250.424C242.655 250.504 242.332 250.619 242.022 250.767C241.713 250.901 241.39 251.069 241.054 251.271V259.442H239.036Z" fill="#3D4651"/>
<g clip-path="url(#clip1_6111_28440)">
<path d="M174.698 112.355C190.493 110.897 198.76 129.561 186.634 139.309C176.691 147.303 161.439 140.809 160.578 128.526C160.024 120.633 166.459 113.115 174.698 112.355ZM170.128 121.472C161.755 129.508 174.733 141.74 182.959 133.545C191.093 125.441 178.438 113.499 170.128 121.472Z" fill="#DA4436"/>
<path d="M174.365 148.156C184.611 147.383 194.022 152.78 197.958 161.855C198.528 163.168 199.482 165.68 199.547 167.051C199.685 169.965 196.307 171.784 193.878 169.924C192.432 168.816 192.347 166.27 191.631 164.57C186.395 152.15 168.16 151.375 161.925 163.388C160.991 165.187 160.882 166.919 160.206 168.609C159.371 170.695 156.526 171.32 154.741 169.924C152.834 168.432 153.575 166.186 154.163 164.248C156.759 155.664 164.965 148.865 174.365 148.156Z" fill="#DA4436"/>
<path d="M204.838 124.177C220.788 124.013 221.347 147.186 205.632 147.95C188.967 148.761 188.222 124.346 204.838 124.177ZM204.337 130.891C198.052 131.472 197.976 140.639 204.293 141.23C212.256 141.977 212.171 130.165 204.337 130.891Z" fill="#DA4436"/>
<path d="M200.548 158.968C199.707 156.812 198.154 155.015 196.715 153.217C197.881 152.918 198.931 152.37 200.108 152.077C207.848 150.152 215.796 153.014 220.266 159.304C221.619 161.206 223.819 165.687 222.942 167.915C221.899 170.571 218.117 170.823 216.664 168.351C216.154 167.484 216.032 166.062 215.613 165.044C213.311 159.444 206.353 156.637 200.546 158.968H200.548Z" fill="#DA4436"/>
</g>
<defs>
<filter id="filter0_d_6111_28440" x="42.0921" y="42.0174" width="292.135" height="331.756" filterUnits="userSpaceOnUse" color-interpolation-filters="sRGB">
<feFlood flood-opacity="0" result="BackgroundImageFix"/>
<feColorMatrix in="SourceAlpha" type="matrix" values="0 0 0 0 0 0 0 0 0 0 0 0 0 0 0 0 0 0 127 0" result="hardAlpha"/>
<feOffset/>
<feGaussianBlur stdDeviation="10.5968"/>
<feComposite in2="hardAlpha" operator="out"/>
<feColorMatrix type="matrix" values="0 0 0 0 0 0 0 0 0 0 0 0 0 0 0 0 0 0 0.25 0"/>
<feBlend mode="normal" in2="BackgroundImageFix" result="effect1_dropShadow_6111_28440"/>
<feBlend mode="normal" in="SourceGraphic" in2="effect1_dropShadow_6111_28440" result="shape"/>
</filter>
<clipPath id="clip0_6111_28440">
<rect width="37.9562" height="37.9562" fill="white" transform="translate(265.514 71.122)"/>
</clipPath>
<clipPath id="clip1_6111_28440">
<rect width="69.6273" height="58.3971" fill="white" transform="translate(153.516 112.274)"/>
</clipPath>
</defs>
</svg>
