<svg width="385" height="385" viewBox="0 0 385 385" fill="none" xmlns="http://www.w3.org/2000/svg">
<path d="M62.7427 243.239C63.1804 244.495 63.6181 245.76 64.0455 247.03L65.6163 250.262L61.5759 252.226L59.8809 248.738L59.8349 248.601C59.4009 247.308 58.9538 246.016 58.5012 244.717L62.7427 243.239ZM70.4976 260.307L70.5121 260.337L70.4006 260.391L67.1394 263.203C67.016 263.06 66.8746 262.894 66.7335 262.716L66.5797 262.523L64.8399 258.943L68.8803 256.979L70.393 260.092C70.4391 260.147 70.487 260.207 70.5413 260.27L70.4976 260.307ZM124.319 371.061L124.668 371.778L120.628 373.742L120.01 372.471L119.955 372.168C119.933 372.045 119.91 371.923 119.889 371.801L123.371 371.178L124.184 370.783L124.296 371.013L124.31 371.011C124.313 371.027 124.316 371.044 124.319 371.061ZM124.853 379.117C124.057 378.629 123.303 378.057 122.589 377.409L122.268 377.117L121.595 375.733L125.636 373.769L125.92 374.354C126.34 374.71 126.767 375.021 127.2 375.287L124.853 379.117ZM124.117 369.928C124.14 370.05 124.161 370.172 124.183 370.293L119.761 371.083C119.74 370.965 119.719 370.848 119.698 370.732L119.697 370.729C119.404 369.111 119.113 367.492 118.822 365.875L123.243 365.082C123.534 366.698 123.825 368.313 124.117 369.928ZM69.7454 267.314C69.1119 266.267 68.4896 265.209 67.88 264.142L67.874 264.131C67.8401 264.071 67.7928 263.998 67.7254 263.906L71.3413 261.241C71.4891 261.442 71.6426 261.668 71.7853 261.92C72.3749 262.953 72.9755 263.976 73.5881 264.989L69.7454 267.314ZM57.9192 228.038C58.2298 229.219 58.5554 230.401 58.8959 231.585C59.2677 232.879 59.6676 234.172 60.0863 235.465L55.8132 236.848C55.3827 235.519 54.9671 234.179 54.5785 232.826C54.2286 231.61 53.8947 230.395 53.5753 229.18L57.9192 228.038ZM78.0063 279.492C76.5283 277.541 75.0987 275.547 73.7172 273.51L77.4341 270.988C78.7717 272.96 80.1565 274.891 81.5873 276.78L78.0063 279.492ZM120.587 350.515L120.587 350.518C120.893 352.137 121.192 353.756 121.489 355.374L117.071 356.185C116.775 354.573 116.477 352.962 116.174 351.352C115.958 350.215 115.742 349.079 115.526 347.942L119.939 347.104L120.587 350.515ZM87.4932 290.743C85.8158 288.951 84.186 287.117 82.6037 285.241L86.0366 282.345C87.5685 284.161 89.1472 285.937 90.7717 287.672L87.4932 290.743ZM54.864 213.661C55.2519 216.062 55.7026 218.47 56.2163 220.883L51.8228 221.818C51.294 219.334 50.8293 216.853 50.4293 214.377L54.864 213.661ZM134.952 380.355L133.572 381.025L133.145 381.057C132.178 381.13 131.229 381.114 130.3 381.006L130.822 376.544C131.327 376.603 131.853 376.621 132.403 376.599L132.989 376.315L134.952 380.355ZM118.641 340.281L114.229 341.122C113.796 338.849 113.362 336.576 112.926 334.304L117.337 333.458C117.773 335.732 118.208 338.006 118.641 340.281ZM98.0815 300.953C96.2285 299.337 94.4208 297.68 92.6594 295.982L95.7764 292.749C97.4834 294.394 99.2361 296 101.033 297.567L98.0815 300.953ZM53.2769 199.069C53.412 201.502 53.613 203.94 53.8796 206.384L49.4135 206.871C49.1384 204.348 48.9316 201.831 48.7921 199.318L53.2769 199.069ZM116.022 326.635L111.612 327.489C111.172 325.218 110.729 322.948 110.284 320.679L114.692 319.814C115.139 322.088 115.582 324.361 116.022 326.635ZM138.699 378.299L138.385 378.687L136.941 379.388L134.978 375.348L135.972 374.865L136.636 376.23L138.961 377.96C138.889 378.056 138.799 378.175 138.699 378.299ZM139.331 377.494L139.318 377.507L139.304 377.519C139.307 377.516 139.296 377.527 139.267 377.56L135.873 374.616C135.986 374.487 136.12 374.345 136.277 374.202L136.275 374.202C136.323 374.158 136.366 374.119 136.403 374.088L139.35 377.477L139.331 377.494ZM139.587 377.271C139.554 377.301 139.524 377.328 139.498 377.351L136.551 373.961C136.562 373.951 136.567 373.946 136.568 373.945L136.596 373.92L136.625 373.895C137.596 373.053 138.566 372.21 139.537 371.368L142.481 374.761C141.517 375.598 140.551 376.434 139.587 377.271ZM107.166 308.386C106.982 308.176 106.804 308.011 106.645 307.89C105.665 307.153 104.696 306.406 103.738 305.649L106.523 302.124C107.455 302.86 108.397 303.587 109.35 304.304L109.353 304.307C109.793 304.639 110.193 305.025 110.548 305.431L107.166 308.386ZM53.2635 184.403C53.131 186.841 53.0665 189.285 53.0689 191.735L48.5768 191.739C48.5743 189.207 48.642 186.68 48.779 184.159L53.2635 184.403ZM112.174 308.03C112.384 308.526 112.556 309.053 112.663 309.592C112.891 310.727 113.118 311.86 113.344 312.995L108.939 313.873C108.713 312.739 108.486 311.606 108.258 310.472L108.257 310.467C108.218 310.271 108.146 310.037 108.037 309.779L112.174 308.03ZM54.8739 169.829C54.4699 172.244 54.1341 174.666 53.8659 177.094L49.4012 176.6C49.6785 174.09 50.0258 171.586 50.4434 169.088L54.8739 169.829ZM148.306 369.708L145.363 366.315C147.305 364.631 149.247 362.946 151.189 361.262L154.132 364.657C152.19 366.34 150.247 368.024 148.306 369.708ZM58.0832 155.516C57.4164 157.881 56.8163 160.253 56.2829 162.629L51.8998 161.647C52.451 159.19 53.0718 156.74 53.7604 154.297L58.0832 155.516ZM159.959 359.606L157.018 356.211C158.961 354.527 160.904 352.844 162.847 351.162L165.788 354.558C163.845 356.24 161.901 357.923 159.959 359.606ZM62.8 141.615C61.8894 143.906 61.0431 146.203 60.2611 148.506L56.0076 147.062C56.8144 144.686 57.6875 142.317 58.6259 139.956L62.8 141.615ZM69.106 127.806C68.4718 129.03 67.8513 130.269 67.245 131.522L66.4518 133.185C66.1913 133.74 65.9346 134.296 65.6818 134.852L61.5937 132.99C61.854 132.418 62.1181 131.847 62.3862 131.276L63.2017 129.565C63.8257 128.276 64.4649 127.001 65.1182 125.74L69.106 127.806ZM171.619 349.514L168.681 346.115C170.626 344.434 172.572 342.753 174.518 341.073L177.454 344.473C175.508 346.152 173.563 347.833 171.619 349.514ZM77.5648 113.535C76.0285 115.812 74.5497 118.149 73.1298 120.547L69.265 118.258C70.7293 115.785 72.2553 113.374 73.8414 111.023L77.5648 113.535ZM186.591 336.668C186.428 336.758 186.302 336.846 186.213 336.922C185.239 337.76 184.265 338.6 183.291 339.438L180.36 336.036C181.334 335.197 182.308 334.358 183.282 333.519L183.285 333.517C183.639 333.213 184.026 332.953 184.42 332.736L186.591 336.668ZM191.915 336.3C190.641 336.299 189.366 336.283 188.089 336.251C187.974 336.248 187.822 336.258 187.64 336.292L186.821 331.875C187.264 331.793 187.73 331.748 188.2 331.76L188.202 331.76C189.443 331.791 190.681 331.807 191.918 331.808L191.915 336.3ZM87.6527 100.389C85.8445 102.466 84.096 104.605 82.4076 106.806L78.8435 104.072C80.5881 101.798 82.3947 99.5865 84.264 97.4394L87.6527 100.389ZM207.206 335.527C204.668 335.788 202.123 335.982 199.569 336.11L199.343 331.625C201.82 331.5 204.287 331.312 206.746 331.059L207.206 335.527ZM99.291 88.6005C97.2296 90.4419 95.2282 92.3457 93.2869 94.3119L90.091 91.156C92.0983 89.123 94.1671 87.154 96.2981 85.2504L99.291 88.6005ZM222.341 333.137C219.838 333.674 217.326 334.14 214.805 334.538L214.105 330.101C216.546 329.716 218.977 329.264 221.399 328.745L222.341 333.137ZM112.308 78.3444C110.027 79.9263 107.805 81.5695 105.641 83.2735L102.862 79.7445C105.098 77.9838 107.393 76.2869 109.748 74.6537L112.308 78.3444ZM237.055 329.141C235.867 329.528 234.67 329.907 233.467 330.27L233.468 330.269C232.244 330.639 231.017 330.991 229.788 331.326L228.607 326.992C229.203 326.83 229.798 326.664 230.392 326.493L232.173 325.967C233.337 325.616 234.5 325.249 235.664 324.87L237.055 329.141ZM126.47 69.7001C124.011 71.0151 121.608 72.3884 119.261 73.8199L116.922 69.9849C119.342 68.5087 121.819 67.0931 124.35 65.7388L126.47 69.7001ZM251.501 323.717L247.76 325.535L247.618 325.582C246.453 325.968 245.288 326.363 244.118 326.762L242.67 322.509C243.795 322.126 244.927 321.742 246.062 321.366L249.537 319.677L251.501 323.717ZM141.235 62.7822C140.047 63.2602 138.864 63.7565 137.685 64.2704C136.409 64.8272 135.146 65.3981 133.896 65.9825L131.994 61.9135C133.279 61.3124 134.578 60.7252 135.89 60.1528C137.107 59.6218 138.331 59.1092 139.558 58.6154L141.235 62.7822ZM262.681 318.24L262.512 318.366L258.715 320.211L256.751 316.171L260.169 314.51C260.295 314.416 260.421 314.322 260.548 314.228L263.225 317.835C263.044 317.969 262.864 318.104 262.681 318.24ZM267.489 314.816C266.596 315.423 265.712 316.035 264.841 316.655L264.305 317.041L261.662 313.408C261.85 313.271 262.04 313.134 262.232 312.997L262.234 312.996C263.138 312.353 264.049 311.722 264.963 311.101L267.489 314.816ZM155.795 57.8681C153.331 58.5459 150.88 59.2963 148.443 60.1186L147.006 55.8623C149.524 55.0125 152.058 54.2376 154.604 53.5372L155.795 57.8681ZM278.388 307.479C276.581 308.756 274.742 309.987 272.916 311.198L270.434 307.454C272.253 306.248 274.046 305.048 275.796 303.811L278.388 307.479ZM289.276 298.44C288.3 299.369 287.309 300.292 286.304 301.21L285.672 301.779C285.037 302.343 284.392 302.893 283.738 303.43L280.887 299.959C281.499 299.456 282.101 298.943 282.69 298.421L283.274 297.894C284.258 296.996 285.226 296.093 286.18 295.186L289.276 298.44ZM170.822 54.6385C168.295 55.0339 165.774 55.5007 163.263 56.0403L162.32 51.6485C164.914 51.0911 167.518 50.609 170.128 50.2006L170.822 54.6385ZM300.536 286.752C298.767 288.764 296.933 290.755 295.033 292.725L291.8 289.607C293.653 287.686 295.44 285.745 297.163 283.786L300.536 286.752ZM186.122 53.1163C183.564 53.2272 181.005 53.4094 178.45 53.6634L178.007 49.1938C180.645 48.9315 183.286 48.7435 185.927 48.629L186.122 53.1163ZM310.653 274.032C309.091 276.218 307.458 278.381 305.754 280.521L302.24 277.724C303.896 275.643 305.483 273.542 306.999 271.421L310.653 274.032ZM201.498 53.3009C198.942 53.129 196.378 53.027 193.812 52.9961L193.866 48.5051C196.515 48.537 199.161 48.6418 201.799 48.8192L201.498 53.3009ZM319.373 260.285C318.06 262.641 316.671 264.973 315.206 267.28L311.413 264.873C312.833 262.636 314.179 260.378 315.449 258.098L319.373 260.285ZM216.764 55.171C214.24 54.7209 211.703 54.3388 209.156 54.0268L209.703 49.5689C212.331 49.8908 214.948 50.2846 217.552 50.749L216.764 55.171ZM231.738 58.6914C229.277 57.9695 226.796 57.3147 224.299 56.7276L225.327 52.355C227.903 52.9607 230.462 53.6365 233.002 54.3813L231.738 58.6914ZM326.441 245.599C325.417 248.108 324.312 250.592 323.128 253.051L319.081 251.101C320.226 248.724 321.293 246.324 322.283 243.901L326.441 245.599ZM246.239 63.8181C243.87 62.8324 241.475 61.9125 239.058 61.0579L240.556 56.8221C243.05 57.7038 245.521 58.6538 247.965 59.6709L246.239 63.8181ZM331.655 230.15C330.947 232.777 330.159 235.38 329.289 237.958L325.033 236.521C325.873 234.033 326.634 231.52 327.317 228.984L331.655 230.15ZM260.093 70.4959C257.846 69.2562 255.566 68.08 253.258 66.9674L255.208 62.921C257.59 64.0693 259.943 65.2832 262.263 66.5629L260.093 70.4959ZM334.909 214.177C334.529 216.88 334.069 219.559 333.528 222.214L329.127 221.318C329.649 218.753 330.093 216.164 330.46 213.552L334.909 214.177ZM273.124 78.6572C271.027 77.1757 268.892 75.7549 266.722 74.3959L269.106 70.5881C271.347 71.9912 273.552 73.4589 275.717 74.9889L273.124 78.6572ZM336.22 197.944C336.157 200.677 336.018 203.387 335.802 206.075L331.324 205.715C331.533 203.114 331.669 200.489 331.73 197.841L336.22 197.944ZM285.162 88.2176C283.244 86.5095 281.281 84.8597 279.278 83.269L282.073 79.7515C284.141 81.3943 286.167 83.0993 288.149 84.8638L285.162 88.2176ZM335.712 181.684C335.94 184.41 336.098 187.115 336.183 189.8L331.693 189.943C331.61 187.337 331.458 184.709 331.236 182.059L335.712 181.684ZM296.043 99.0761C294.329 97.1589 292.566 95.2966 290.756 93.4913L293.929 90.3122C295.798 92.1774 297.62 94.1008 299.392 96.0819L296.043 99.0761ZM333.576 165.582C334.062 168.275 334.481 170.949 334.834 173.604L330.382 174.197C330.038 171.611 329.629 169.005 329.156 166.378L333.576 165.582ZM306.05 111.729C305.167 110.463 304.272 109.215 303.354 107.991L303.354 107.993C302.582 106.964 301.797 105.949 301 104.948L304.513 102.15C305.337 103.185 306.149 104.233 306.946 105.296L307.658 106.255C308.364 107.216 309.054 108.185 309.733 109.158L306.05 111.729ZM329.975 149.849C330.356 151.107 330.714 152.382 331.033 153.675L331.511 155.656C331.666 156.316 331.818 156.974 331.965 157.631L327.583 158.616C327.295 157.332 326.991 156.044 326.672 154.75C326.375 153.549 326.039 152.35 325.676 151.148L329.975 149.849ZM319.879 125.474L315.839 127.438L313.793 123.227C312.938 121.973 312.095 120.714 311.26 119.459L315 116.97C315.864 118.269 316.726 119.559 317.599 120.837L317.692 120.973L319.879 125.474ZM326.296 138.679L326.345 138.833C326.729 140.036 327.133 141.24 327.545 142.455L323.29 143.896C322.894 142.728 322.5 141.548 322.119 140.361L320.07 136.144L324.111 134.181L326.296 138.679Z" fill="#16A458"/>
<g filter="url(#filter0_d_6111_28540)">
<path d="M309.436 145.449C310.821 149.79 312.468 154.074 313.561 158.498C326.058 209.228 312.977 252.342 274.44 287.537C268.76 292.726 261.884 296.605 255.57 301.098C254.909 301.569 254.267 302.049 253.621 302.529L240.81 308.755C236.638 310.137 232.499 311.633 228.297 312.9L228.302 312.898C215.369 316.808 202.135 318.465 188.634 318.126C187.624 318.101 186.382 318.548 185.618 319.205C171.778 331.117 157.991 343.084 144.198 355.048C144.113 355.127 144.024 355.197 143.939 355.276C143.651 355.534 143.436 355.886 143.184 356.197L139.652 357.913C136.63 358.14 134.01 357.221 131.771 355.186L130.053 351.651C129.976 351.226 129.903 350.799 129.825 350.375C128.785 344.636 127.775 338.892 126.693 333.157C124.395 321.042 122.092 308.928 119.661 296.839C119.409 295.57 118.511 294.131 117.477 293.349C103.588 282.895 92.2176 270.227 83.589 255.11C83.2775 254.557 82.8008 254.095 82.4003 253.591L76.6047 241.665C75.0476 237.026 73.3125 232.441 71.9633 227.744C63.0384 196.716 65.4516 166.51 79.498 137.482C93.0744 109.43 114.507 89.2644 143.037 76.8138C195.419 53.97 258.237 70.5939 292.517 116.264C295.84 120.695 298.796 125.408 301.923 129.988L309.436 145.449Z" fill="white"/>
</g>
<g clip-path="url(#clip0_6111_28540)">
<path d="M181.251 99.7879C192.361 98.9778 202.851 104.296 208.502 113.857C214.419 123.855 213.641 136.538 206.839 145.875L212.276 151.353C212.681 151.556 213.971 150.117 215.624 151.268L229.153 164.825C233.759 171.242 225.805 178.905 219.59 173.768C215.005 169.973 210.901 164.484 206.359 160.53C205.634 159.496 205.773 158.377 206.498 157.386L200.964 151.748C197.307 154.284 193.341 156.171 188.917 156.949C167.573 160.733 149.907 141.164 155.984 120.284C159.225 109.103 169.577 100.63 181.251 99.7879ZM181.561 105.703C164.534 107.036 154.992 126.7 164.342 141.036C174.961 157.333 200.122 153.837 205.623 135.195C210.261 119.463 197.819 104.424 181.571 105.703L181.561 105.703Z" fill="#16A458"/>
<path d="M181.081 115.646C181.71 115.497 185.314 115.507 186.017 115.624C186.508 115.699 186.87 116.029 187.009 116.509L187.041 140.299C186.998 140.991 186.486 141.46 185.836 141.578C185.047 141.716 182.179 141.716 181.39 141.578C180.601 141.439 180.345 141.002 180.228 140.245L180.186 117.245C180.239 116.637 180.388 115.806 181.081 115.646Z" fill="#16A458"/>
<path d="M193.077 121.413C193.93 121.264 197.682 121.242 198.269 121.754C198.503 121.956 198.61 122.287 198.685 122.585L198.717 140.14C198.663 140.907 198.301 141.44 197.512 141.579C196.723 141.717 193.855 141.717 193.066 141.579C192.501 141.472 192.075 141.12 191.893 140.566L191.861 122.692C191.904 121.999 192.416 121.53 193.066 121.413L193.077 121.413Z" fill="#16A458"/>
<path d="M169.877 130.133C170.794 129.994 174.28 129.952 174.951 130.421C175.335 130.687 175.325 130.985 175.367 131.401C175.559 133.479 175.602 138.414 175.367 140.439C175.314 140.887 175.25 141.09 174.856 141.324C174.173 141.729 169.781 141.772 169.152 141.356C168.747 141.09 168.704 140.717 168.672 140.28C168.405 137.37 168.874 134.055 168.693 131.092C168.811 130.378 169.248 130.207 169.898 130.111L169.877 130.133Z" fill="#16A458"/>
</g>
<circle cx="290.174" cy="92.9422" r="25.2198" fill="white" stroke="#16A458" stroke-width="4.58543"/>
<path d="M286.077 102.177C285.556 102.176 285.051 101.996 284.648 101.665L277.907 96.1434C276.986 95.3428 276.868 93.9543 277.641 93.0098C278.415 92.0653 279.799 91.9071 280.766 92.6529L285.987 96.9258L301.032 83.069C301.597 82.3966 302.502 82.1135 303.35 82.3434C304.198 82.5734 304.835 83.2746 304.984 84.1406C305.132 85.0066 304.764 85.8799 304.041 86.379L287.611 101.575C287.196 101.964 286.647 102.18 286.077 102.177Z" fill="#16A458" stroke="#16A458" stroke-width="2.25681"/>
<path d="M137.568 213.303C137.013 213.303 136.478 213.195 135.964 212.978C135.463 212.775 135.036 212.457 134.684 212.023C134.346 211.604 134.143 211.062 134.075 210.398H135.476C135.625 210.886 135.889 211.238 136.268 211.455C136.661 211.671 137.067 211.78 137.487 211.78C137.69 211.78 137.887 211.759 138.076 211.719C138.266 211.692 138.449 211.651 138.625 211.597V213.161C138.449 213.188 138.272 213.215 138.096 213.242C137.92 213.283 137.744 213.303 137.568 213.303ZM134.237 209.809C133.262 209.809 132.403 209.715 131.658 209.525C130.927 209.335 130.31 208.983 129.809 208.469C129.322 207.954 128.956 207.196 128.713 206.194C128.469 205.192 128.347 203.878 128.347 202.254C128.347 200.629 128.469 199.315 128.713 198.313C128.956 197.298 129.329 196.526 129.83 195.998C130.331 195.456 130.947 195.09 131.678 194.901C132.409 194.698 133.262 194.596 134.237 194.596C135.239 194.596 136.106 194.698 136.837 194.901C137.582 195.09 138.198 195.456 138.685 195.998C139.173 196.526 139.539 197.298 139.782 198.313C140.026 199.315 140.148 200.629 140.148 202.254C140.148 203.878 140.026 205.192 139.782 206.194C139.539 207.196 139.166 207.954 138.665 208.469C138.178 208.983 137.562 209.335 136.817 209.525C136.086 209.715 135.226 209.809 134.237 209.809ZM134.237 207.981C134.941 207.981 135.537 207.907 136.025 207.758C136.526 207.609 136.925 207.338 137.223 206.945C137.535 206.539 137.758 205.964 137.893 205.219C138.029 204.461 138.096 203.472 138.096 202.254C138.096 200.967 138.022 199.938 137.873 199.166C137.738 198.394 137.521 197.812 137.223 197.42C136.925 197.027 136.526 196.763 136.025 196.627C135.537 196.492 134.941 196.424 134.237 196.424C133.574 196.424 132.998 196.492 132.511 196.627C132.023 196.763 131.624 197.027 131.312 197.42C131.001 197.812 130.764 198.394 130.602 199.166C130.453 199.938 130.378 200.967 130.378 202.254C130.378 203.472 130.439 204.461 130.561 205.219C130.696 205.964 130.913 206.539 131.211 206.945C131.522 207.338 131.922 207.609 132.409 207.758C132.91 207.907 133.52 207.981 134.237 207.981ZM145.864 209.809C144.849 209.809 144.056 209.539 143.488 208.997C142.932 208.442 142.655 207.602 142.655 206.478V198.821H144.686V205.93C144.686 206.742 144.869 207.291 145.234 207.575C145.614 207.859 146.142 208.002 146.819 208.002C147.36 208.002 147.875 207.92 148.362 207.758C148.863 207.582 149.351 207.345 149.825 207.047V198.821H151.856V209.688H150.231L149.825 208.53C149.297 208.868 148.687 209.166 147.997 209.423C147.32 209.681 146.609 209.809 145.864 209.809ZM154.94 196.993C154.696 196.993 154.574 196.878 154.574 196.648V194.942C154.574 194.698 154.696 194.576 154.94 194.576H156.443C156.551 194.576 156.633 194.61 156.687 194.677C156.741 194.745 156.768 194.833 156.768 194.942V196.648C156.768 196.878 156.66 196.993 156.443 196.993H154.94ZM154.656 209.688V198.821H156.687V209.688H154.656ZM163.577 209.809C162.941 209.809 162.352 209.728 161.81 209.566C161.282 209.39 160.815 209.098 160.409 208.692C160.016 208.286 159.711 207.724 159.495 207.006C159.278 206.289 159.17 205.382 159.17 204.285C159.17 203.161 159.271 202.24 159.474 201.522C159.677 200.791 159.968 200.222 160.348 199.816C160.74 199.396 161.214 199.105 161.769 198.943C162.325 198.78 162.947 198.699 163.638 198.699C164.207 198.699 164.803 198.726 165.425 198.78C166.062 198.835 166.678 198.923 167.274 199.044V200.243H164.207C163.543 200.243 162.988 200.351 162.541 200.568C162.094 200.771 161.763 201.17 161.546 201.766C161.329 202.348 161.221 203.195 161.221 204.305C161.221 205.375 161.336 206.201 161.566 206.783C161.796 207.352 162.128 207.738 162.562 207.941C163.008 208.144 163.564 208.245 164.227 208.245H167.436V209.403C167.125 209.484 166.752 209.559 166.319 209.627C165.899 209.681 165.452 209.721 164.979 209.748C164.518 209.789 164.051 209.809 163.577 209.809ZM169.492 209.688V194.19H171.524V202.985H173.006L176.033 198.821H178.145L174.509 203.899L178.409 209.688H176.276L172.945 204.813H171.524V209.688H169.492ZM185.764 196.993C185.52 196.993 185.398 196.878 185.398 196.648V194.942C185.398 194.698 185.52 194.576 185.764 194.576H187.267C187.375 194.576 187.457 194.61 187.511 194.677C187.565 194.745 187.592 194.833 187.592 194.942V196.648C187.592 196.878 187.484 196.993 187.267 196.993H185.764ZM185.48 209.688V198.821H187.511V209.688H185.48ZM190.359 209.688V198.821H191.984L192.39 199.999C192.878 199.647 193.453 199.336 194.117 199.065C194.794 198.78 195.491 198.638 196.209 198.638C197.021 198.638 197.671 198.814 198.159 199.166C198.66 199.505 199.018 199.958 199.235 200.527C199.452 201.096 199.56 201.712 199.56 202.375V209.688H197.529V202.619C197.529 202.186 197.441 201.814 197.265 201.502C197.102 201.177 196.872 200.927 196.574 200.751C196.276 200.575 195.911 200.487 195.477 200.487C195.071 200.487 194.692 200.527 194.34 200.608C194.002 200.69 193.677 200.805 193.365 200.954C193.054 201.089 192.729 201.258 192.39 201.461V209.688H190.359ZM206.138 209.809C205.853 209.809 205.515 209.803 205.122 209.789C204.729 209.776 204.323 209.748 203.903 209.708C203.497 209.681 203.118 209.647 202.766 209.606C202.428 209.566 202.157 209.518 201.954 209.464V208.245H206.524C206.916 208.245 207.255 208.218 207.539 208.164C207.824 208.096 208.04 207.961 208.189 207.758C208.352 207.555 208.433 207.257 208.433 206.864V206.417C208.433 206.011 208.297 205.693 208.027 205.463C207.756 205.233 207.309 205.117 206.686 205.117H205.102C204.465 205.117 203.897 205.036 203.396 204.874C202.908 204.698 202.522 204.407 202.238 204C201.967 203.594 201.832 203.046 201.832 202.355V201.766C201.832 201.076 201.96 200.507 202.218 200.06C202.488 199.613 202.915 199.281 203.497 199.065C204.08 198.835 204.851 198.719 205.813 198.719C206.219 198.719 206.666 198.74 207.153 198.78C207.654 198.807 208.142 198.848 208.616 198.902C209.09 198.956 209.469 199.017 209.753 199.085V200.304H205.447C204.851 200.304 204.391 200.405 204.066 200.608C203.755 200.811 203.599 201.197 203.599 201.766V202.172C203.599 202.524 203.673 202.795 203.822 202.985C203.971 203.174 204.181 203.296 204.452 203.35C204.736 203.405 205.068 203.432 205.447 203.432H207.072C208.101 203.432 208.88 203.675 209.408 204.163C209.936 204.637 210.2 205.307 210.2 206.174V207.006C210.2 207.738 210.031 208.306 209.692 208.713C209.354 209.119 208.88 209.403 208.27 209.566C207.675 209.728 206.964 209.809 206.138 209.809ZM212.799 196.993C212.556 196.993 212.434 196.878 212.434 196.648V194.942C212.434 194.698 212.556 194.576 212.799 194.576H214.302C214.411 194.576 214.492 194.61 214.546 194.677C214.6 194.745 214.627 194.833 214.627 194.942V196.648C214.627 196.878 214.519 196.993 214.302 196.993H212.799ZM212.515 209.688V198.821H214.546V209.688H212.515ZM220.096 214.684C219.405 214.684 218.789 214.583 218.248 214.379C217.719 214.19 217.3 213.892 216.988 213.486C216.677 213.093 216.521 212.606 216.521 212.023V211.576C216.521 210.967 216.69 210.453 217.029 210.033C217.381 209.627 217.821 209.315 218.349 209.098C218.877 208.882 219.426 208.773 219.994 208.773L220.543 209.525C220.177 209.525 219.832 209.579 219.507 209.688C219.195 209.809 218.938 209.992 218.735 210.236C218.545 210.493 218.451 210.818 218.451 211.211V211.597C218.451 212.165 218.64 212.578 219.019 212.836C219.412 213.093 219.947 213.222 220.624 213.222H223C223.718 213.222 224.287 213.079 224.706 212.795C225.126 212.524 225.336 212.098 225.336 211.516V211.13C225.336 210.805 225.262 210.52 225.113 210.277C224.977 210.033 224.754 209.843 224.442 209.708C224.131 209.586 223.704 209.525 223.163 209.525H220.157C219.195 209.525 218.464 209.329 217.963 208.936C217.462 208.543 217.212 208.049 217.212 207.453C217.212 206.912 217.367 206.478 217.679 206.153C218.004 205.815 218.457 205.585 219.04 205.463C218.552 205.246 218.166 204.969 217.882 204.63C217.611 204.291 217.422 203.926 217.313 203.533C217.205 203.127 217.151 202.721 217.151 202.315C217.151 201.489 217.32 200.818 217.658 200.304C217.997 199.789 218.484 199.41 219.121 199.166C219.771 198.923 220.543 198.801 221.436 198.801H227.286V199.958L225.072 200.182C225.235 200.304 225.411 200.466 225.6 200.669C225.79 200.859 225.952 201.123 226.088 201.461C226.223 201.8 226.291 202.247 226.291 202.802C226.291 203.384 226.162 203.926 225.905 204.427C225.661 204.928 225.255 205.334 224.686 205.646C224.131 205.957 223.373 206.113 222.411 206.113H220.624C220.109 206.113 219.703 206.187 219.405 206.336C219.107 206.485 218.958 206.749 218.958 207.128C218.958 207.44 219.073 207.656 219.304 207.778C219.534 207.9 219.778 207.961 220.035 207.961H223.467C224.293 207.961 224.984 208.069 225.539 208.286C226.108 208.503 226.534 208.834 226.819 209.281C227.103 209.728 227.245 210.31 227.245 211.028V211.414C227.245 212.443 226.907 213.242 226.23 213.811C225.566 214.393 224.558 214.684 223.203 214.684H220.096ZM220.99 204.549H222.188C222.797 204.549 223.258 204.461 223.569 204.285C223.894 204.095 224.117 203.851 224.239 203.554C224.361 203.256 224.422 202.924 224.422 202.558C224.422 202.017 224.334 201.59 224.158 201.279C223.982 200.954 223.738 200.723 223.427 200.588C223.129 200.439 222.763 200.365 222.33 200.365H221.193C220.502 200.365 219.96 200.52 219.568 200.832C219.189 201.143 218.999 201.678 218.999 202.436C218.999 203.181 219.175 203.723 219.527 204.061C219.879 204.386 220.367 204.549 220.99 204.549ZM229.137 209.688V194.19H231.168V199.999C231.642 199.647 232.217 199.336 232.894 199.065C233.571 198.78 234.269 198.638 234.987 198.638C235.772 198.638 236.408 198.801 236.896 199.126C237.397 199.451 237.762 199.897 237.993 200.466C238.223 201.021 238.338 201.651 238.338 202.355V209.688H236.307V202.599C236.307 202.179 236.219 201.814 236.043 201.502C235.88 201.177 235.643 200.927 235.332 200.751C235.034 200.575 234.675 200.487 234.255 200.487C233.849 200.487 233.47 200.527 233.118 200.608C232.779 200.69 232.454 200.805 232.143 200.954C231.831 201.103 231.507 201.272 231.168 201.461V209.688H229.137ZM244.875 209.688C244.144 209.688 243.534 209.572 243.047 209.342C242.573 209.098 242.221 208.713 241.991 208.184C241.774 207.656 241.673 206.952 241.686 206.072L241.767 200.487H240.041V199.166L241.808 198.821L242.113 195.774H243.717V198.821H246.662V200.487H243.717V206.052C243.717 206.472 243.758 206.81 243.839 207.067C243.92 207.325 244.035 207.521 244.184 207.656C244.333 207.792 244.496 207.893 244.672 207.961C244.848 208.015 245.017 208.049 245.18 208.063L246.52 208.184V209.688H244.875ZM252.512 209.809C252.228 209.809 251.89 209.803 251.497 209.789C251.104 209.776 250.698 209.748 250.278 209.708C249.872 209.681 249.493 209.647 249.141 209.606C248.802 209.566 248.531 209.518 248.328 209.464V208.245H252.898C253.291 208.245 253.63 208.218 253.914 208.164C254.198 208.096 254.415 207.961 254.564 207.758C254.726 207.555 254.808 207.257 254.808 206.864V206.417C254.808 206.011 254.672 205.693 254.401 205.463C254.131 205.233 253.684 205.117 253.061 205.117H251.477C250.84 205.117 250.271 205.036 249.77 204.874C249.283 204.698 248.897 204.407 248.613 204C248.342 203.594 248.206 203.046 248.206 202.355V201.766C248.206 201.076 248.335 200.507 248.592 200.06C248.863 199.613 249.29 199.281 249.872 199.065C250.454 198.835 251.226 198.719 252.187 198.719C252.594 198.719 253.041 198.74 253.528 198.78C254.029 198.807 254.516 198.848 254.99 198.902C255.464 198.956 255.843 199.017 256.128 199.085V200.304H251.822C251.226 200.304 250.766 200.405 250.441 200.608C250.129 200.811 249.974 201.197 249.974 201.766V202.172C249.974 202.524 250.048 202.795 250.197 202.985C250.346 203.174 250.556 203.296 250.827 203.35C251.111 203.405 251.443 203.432 251.822 203.432H253.447C254.476 203.432 255.254 203.675 255.783 204.163C256.311 204.637 256.575 205.307 256.575 206.174V207.006C256.575 207.738 256.405 208.306 256.067 208.713C255.728 209.119 255.254 209.403 254.645 209.566C254.049 209.728 253.338 209.809 252.512 209.809ZM150.492 236.809C149.693 236.809 149.029 236.572 148.501 236.098C147.987 235.611 147.729 234.941 147.729 234.088V233.235C147.729 232.395 148.014 231.711 148.582 231.183C149.165 230.642 150.038 230.371 151.203 230.371H154.595V229.233C154.595 228.814 154.52 228.461 154.371 228.177C154.236 227.879 153.978 227.656 153.599 227.507C153.22 227.358 152.658 227.283 151.913 227.283H148.582V226.085C149.07 225.977 149.639 225.882 150.289 225.801C150.952 225.719 151.724 225.672 152.604 225.658C153.498 225.658 154.242 225.774 154.838 226.004C155.448 226.22 155.901 226.586 156.199 227.101C156.497 227.602 156.646 228.272 156.646 229.111V236.688H155.041L154.696 235.489C154.615 235.543 154.446 235.645 154.188 235.794C153.931 235.929 153.599 236.078 153.193 236.241C152.8 236.403 152.367 236.539 151.893 236.647C151.433 236.755 150.966 236.809 150.492 236.809ZM151.426 235.327C151.629 235.34 151.866 235.32 152.137 235.266C152.421 235.212 152.699 235.151 152.97 235.083C153.254 235.002 153.511 234.92 153.741 234.839C153.985 234.758 154.182 234.69 154.33 234.636C154.493 234.568 154.581 234.528 154.595 234.514V231.386L151.751 231.508C151.047 231.549 150.539 231.725 150.228 232.036C149.93 232.348 149.781 232.754 149.781 233.255V233.742C149.781 234.135 149.862 234.453 150.024 234.697C150.187 234.927 150.39 235.09 150.634 235.184C150.891 235.279 151.155 235.327 151.426 235.327ZM159.406 236.688V225.821H161.031L161.437 226.999C161.925 226.647 162.5 226.336 163.164 226.065C163.841 225.78 164.538 225.638 165.256 225.638C166.068 225.638 166.718 225.814 167.206 226.166C167.707 226.505 168.066 226.958 168.282 227.527C168.499 228.096 168.607 228.712 168.607 229.375V236.688H166.576V229.619C166.576 229.186 166.488 228.814 166.312 228.502C166.15 228.177 165.919 227.927 165.621 227.751C165.324 227.575 164.958 227.487 164.525 227.487C164.118 227.487 163.739 227.527 163.387 227.608C163.049 227.69 162.724 227.805 162.412 227.954C162.101 228.089 161.776 228.258 161.437 228.461V236.688H159.406ZM174.921 236.809C174.041 236.809 173.309 236.62 172.727 236.241C172.158 235.862 171.732 235.272 171.448 234.474C171.163 233.661 171.021 232.618 171.021 231.346C171.021 230.005 171.15 228.922 171.407 228.096C171.678 227.256 172.111 226.647 172.707 226.268C173.303 225.875 174.108 225.679 175.124 225.679C175.693 225.679 176.255 225.74 176.81 225.862C177.378 225.983 177.873 226.119 178.292 226.268V221.19H180.324V236.688H178.658L178.292 235.611C178.076 235.801 177.778 235.99 177.399 236.18C177.02 236.356 176.613 236.505 176.18 236.627C175.747 236.748 175.327 236.809 174.921 236.809ZM175.571 235.144C176.126 235.144 176.627 235.056 177.074 234.88C177.534 234.704 177.94 234.521 178.292 234.331V227.73C177.873 227.608 177.46 227.5 177.054 227.405C176.661 227.297 176.221 227.243 175.733 227.243C175.097 227.243 174.582 227.358 174.19 227.588C173.797 227.818 173.513 228.224 173.337 228.807C173.161 229.389 173.073 230.201 173.073 231.244C173.073 232.205 173.154 232.977 173.316 233.56C173.479 234.128 173.743 234.535 174.108 234.778C174.488 235.022 174.975 235.144 175.571 235.144ZM192.262 236.688C191.531 236.688 190.921 236.572 190.434 236.342C189.96 236.098 189.608 235.713 189.378 235.184C189.161 234.656 189.06 233.952 189.073 233.072L189.154 227.487H187.428V226.166L189.195 225.821L189.5 222.774H191.104V225.821H194.049V227.487H191.104V233.052C191.104 233.472 191.145 233.81 191.226 234.067C191.307 234.325 191.422 234.521 191.571 234.656C191.72 234.792 191.883 234.893 192.059 234.961C192.235 235.015 192.404 235.049 192.567 235.063L193.907 235.184V236.688H192.262ZM196.101 236.688V225.821H197.665L198.132 227.649C198.593 227.094 199.107 226.627 199.676 226.248C200.245 225.868 200.908 225.679 201.667 225.679C201.843 225.679 202.012 225.692 202.174 225.719C202.337 225.733 202.493 225.76 202.642 225.801V227.893C202.452 227.866 202.256 227.845 202.053 227.832C201.849 227.805 201.64 227.791 201.423 227.791C200.962 227.791 200.549 227.845 200.184 227.954C199.818 228.062 199.466 228.231 199.128 228.461C198.803 228.678 198.471 228.949 198.132 229.274V236.688H196.101ZM208.837 236.809C207.686 236.809 206.765 236.64 206.074 236.302C205.397 235.963 204.91 235.394 204.612 234.595C204.328 233.783 204.186 232.666 204.186 231.244C204.186 229.795 204.328 228.671 204.612 227.872C204.91 227.06 205.397 226.491 206.074 226.166C206.752 225.841 207.666 225.679 208.816 225.679C209.819 225.679 210.624 225.787 211.234 226.004C211.856 226.207 212.31 226.579 212.594 227.121C212.892 227.649 213.041 228.387 213.041 229.335C213.041 229.998 212.906 230.526 212.635 230.919C212.378 231.312 212.005 231.596 211.518 231.772C211.044 231.948 210.475 232.036 209.812 232.036H206.217C206.23 232.822 206.318 233.451 206.481 233.925C206.657 234.386 206.961 234.724 207.395 234.941C207.842 235.144 208.492 235.245 209.345 235.245H212.737V236.464C212.154 236.545 211.559 236.62 210.949 236.688C210.34 236.769 209.636 236.809 208.837 236.809ZM206.196 230.757H209.629C210.171 230.757 210.57 230.655 210.827 230.452C211.085 230.249 211.213 229.876 211.213 229.335C211.213 228.793 211.132 228.367 210.969 228.055C210.821 227.744 210.57 227.52 210.218 227.385C209.866 227.25 209.399 227.182 208.816 227.182C208.153 227.182 207.625 227.283 207.232 227.487C206.853 227.69 206.582 228.048 206.42 228.563C206.271 229.078 206.196 229.809 206.196 230.757ZM215.52 236.688V225.821H217.145L217.551 226.999C218.039 226.647 218.614 226.336 219.278 226.065C219.955 225.78 220.652 225.638 221.37 225.638C222.182 225.638 222.832 225.814 223.32 226.166C223.821 226.505 224.179 226.958 224.396 227.527C224.613 228.096 224.721 228.712 224.721 229.375V236.688H222.69V229.619C222.69 229.186 222.602 228.814 222.426 228.502C222.263 228.177 222.033 227.927 221.735 227.751C221.437 227.575 221.072 227.487 220.638 227.487C220.232 227.487 219.853 227.527 219.501 227.608C219.162 227.69 218.837 227.805 218.526 227.954C218.215 228.089 217.89 228.258 217.551 228.461V236.688H215.52ZM231.035 236.809C230.154 236.809 229.423 236.62 228.841 236.241C228.272 235.862 227.846 235.272 227.561 234.474C227.277 233.661 227.135 232.618 227.135 231.346C227.135 230.005 227.263 228.922 227.521 228.096C227.792 227.256 228.225 226.647 228.821 226.268C229.416 225.875 230.222 225.679 231.238 225.679C231.806 225.679 232.368 225.74 232.924 225.862C233.492 225.983 233.987 226.119 234.406 226.268V221.19H236.437V236.688H234.772L234.406 235.611C234.19 235.801 233.892 235.99 233.513 236.18C233.133 236.356 232.727 236.505 232.294 236.627C231.861 236.748 231.441 236.809 231.035 236.809ZM231.685 235.144C232.24 235.144 232.741 235.056 233.188 234.88C233.648 234.704 234.054 234.521 234.406 234.331V227.73C233.987 227.608 233.574 227.5 233.167 227.405C232.775 227.297 232.335 227.243 231.847 227.243C231.211 227.243 230.696 227.358 230.303 227.588C229.911 227.818 229.626 228.224 229.45 228.807C229.274 229.389 229.186 230.201 229.186 231.244C229.186 232.205 229.268 232.977 229.43 233.56C229.593 234.128 229.857 234.535 230.222 234.778C230.601 235.022 231.089 235.144 231.685 235.144ZM151.128 263.809C150.248 263.809 149.517 263.62 148.935 263.241C148.366 262.862 147.94 262.272 147.655 261.474C147.371 260.661 147.229 259.618 147.229 258.346C147.229 257.005 147.357 255.922 147.615 255.096C147.885 254.256 148.319 253.647 148.915 253.268C149.51 252.875 150.316 252.679 151.332 252.679C151.9 252.679 152.462 252.74 153.017 252.862C153.586 252.983 154.08 253.119 154.5 253.268V248.19H156.531V263.688H154.866L154.5 262.611C154.284 262.801 153.986 262.99 153.606 263.18C153.227 263.356 152.821 263.505 152.388 263.627C151.954 263.748 151.535 263.809 151.128 263.809ZM151.778 262.144C152.334 262.144 152.835 262.056 153.281 261.88C153.742 261.704 154.148 261.521 154.5 261.331V254.73C154.08 254.608 153.667 254.5 153.261 254.405C152.868 254.297 152.428 254.243 151.941 254.243C151.305 254.243 150.79 254.358 150.397 254.588C150.005 254.818 149.72 255.224 149.544 255.807C149.368 256.389 149.28 257.201 149.28 258.244C149.28 259.205 149.361 259.977 149.524 260.56C149.686 261.128 149.95 261.535 150.316 261.778C150.695 262.022 151.183 262.144 151.778 262.144ZM159.601 250.993C159.358 250.993 159.236 250.878 159.236 250.648V248.942C159.236 248.698 159.358 248.576 159.601 248.576H161.104C161.213 248.576 161.294 248.61 161.348 248.677C161.402 248.745 161.429 248.833 161.429 248.942V250.648C161.429 250.878 161.321 250.993 161.104 250.993H159.601ZM159.317 263.688V252.821H161.348V263.688H159.317ZM167.995 263.809C167.71 263.809 167.372 263.803 166.979 263.789C166.586 263.776 166.18 263.748 165.76 263.708C165.354 263.681 164.975 263.647 164.623 263.606C164.284 263.566 164.014 263.518 163.81 263.464V262.245H168.381C168.773 262.245 169.112 262.218 169.396 262.164C169.68 262.096 169.897 261.961 170.046 261.758C170.209 261.555 170.29 261.257 170.29 260.864V260.417C170.29 260.011 170.154 259.693 169.884 259.463C169.613 259.233 169.166 259.117 168.543 259.117H166.959C166.322 259.117 165.754 259.036 165.253 258.874C164.765 258.698 164.379 258.407 164.095 258C163.824 257.594 163.689 257.046 163.689 256.355V255.766C163.689 255.076 163.817 254.507 164.075 254.06C164.345 253.613 164.772 253.281 165.354 253.065C165.936 252.835 166.708 252.719 167.67 252.719C168.076 252.719 168.523 252.74 169.01 252.78C169.511 252.807 169.999 252.848 170.473 252.902C170.947 252.956 171.326 253.017 171.61 253.085V254.304H167.304C166.708 254.304 166.248 254.405 165.923 254.608C165.611 254.811 165.456 255.197 165.456 255.766V256.172C165.456 256.524 165.53 256.795 165.679 256.985C165.828 257.174 166.038 257.296 166.309 257.35C166.593 257.405 166.925 257.432 167.304 257.432H168.929C169.958 257.432 170.737 257.675 171.265 258.163C171.793 258.637 172.057 259.307 172.057 260.174V261.006C172.057 261.738 171.888 262.306 171.549 262.713C171.211 263.119 170.737 263.403 170.127 263.566C169.531 263.728 168.821 263.809 167.995 263.809ZM178.414 263.809C177.777 263.809 177.188 263.728 176.647 263.566C176.119 263.39 175.651 263.098 175.245 262.692C174.853 262.286 174.548 261.724 174.331 261.006C174.115 260.289 174.006 259.382 174.006 258.285C174.006 257.161 174.108 256.24 174.311 255.522C174.514 254.791 174.805 254.222 175.184 253.816C175.577 253.396 176.051 253.105 176.606 252.943C177.161 252.78 177.784 252.699 178.475 252.699C179.043 252.699 179.639 252.726 180.262 252.78C180.899 252.835 181.515 252.923 182.11 253.044V254.243H179.043C178.38 254.243 177.825 254.351 177.378 254.568C176.931 254.771 176.599 255.17 176.383 255.766C176.166 256.348 176.058 257.195 176.058 258.305C176.058 259.375 176.173 260.201 176.403 260.783C176.633 261.352 176.965 261.738 177.398 261.941C177.845 262.144 178.4 262.245 179.064 262.245H182.273V263.403C181.962 263.484 181.589 263.559 181.156 263.627C180.736 263.681 180.289 263.721 179.815 263.748C179.355 263.789 178.888 263.809 178.414 263.809ZM188.757 263.809C187.931 263.809 187.213 263.721 186.604 263.545C186.008 263.369 185.514 263.078 185.121 262.672C184.729 262.252 184.437 261.683 184.248 260.966C184.058 260.248 183.964 259.341 183.964 258.244C183.964 257.107 184.058 256.179 184.248 255.461C184.437 254.73 184.729 254.162 185.121 253.755C185.514 253.349 186.015 253.071 186.624 252.923C187.234 252.76 187.945 252.679 188.757 252.679C189.569 252.679 190.28 252.76 190.89 252.923C191.499 253.085 192 253.369 192.393 253.776C192.785 254.182 193.077 254.751 193.266 255.482C193.456 256.199 193.55 257.12 193.55 258.244C193.55 259.354 193.456 260.275 193.266 261.006C193.077 261.724 192.785 262.286 192.393 262.692C192.014 263.098 191.519 263.39 190.91 263.566C190.301 263.728 189.583 263.809 188.757 263.809ZM188.757 262.144C189.204 262.144 189.597 262.103 189.935 262.022C190.287 261.941 190.578 261.771 190.808 261.514C191.039 261.243 191.215 260.844 191.337 260.316C191.458 259.788 191.519 259.09 191.519 258.224C191.519 257.357 191.458 256.667 191.337 256.152C191.215 255.624 191.039 255.231 190.808 254.974C190.578 254.717 190.287 254.547 189.935 254.466C189.597 254.371 189.204 254.324 188.757 254.324C188.297 254.324 187.89 254.371 187.538 254.466C187.2 254.547 186.915 254.717 186.685 254.974C186.469 255.231 186.299 255.624 186.177 256.152C186.069 256.667 186.015 257.357 186.015 258.224C186.015 259.09 186.069 259.788 186.177 260.316C186.299 260.844 186.469 261.243 186.685 261.514C186.915 261.771 187.2 261.941 187.538 262.022C187.89 262.103 188.297 262.144 188.757 262.144ZM198.499 263.688L194.559 252.821H196.651L199.718 261.799L202.846 252.821H204.938L200.855 263.688H198.499ZM210.592 263.809C209.441 263.809 208.52 263.64 207.83 263.302C207.153 262.963 206.665 262.394 206.367 261.595C206.083 260.783 205.941 259.666 205.941 258.244C205.941 256.795 206.083 255.671 206.367 254.872C206.665 254.06 207.153 253.491 207.83 253.166C208.507 252.841 209.421 252.679 210.572 252.679C211.574 252.679 212.38 252.787 212.989 253.004C213.612 253.207 214.065 253.579 214.35 254.121C214.648 254.649 214.797 255.387 214.797 256.335C214.797 256.998 214.661 257.526 214.39 257.919C214.133 258.312 213.761 258.596 213.273 258.772C212.799 258.948 212.231 259.036 211.567 259.036H207.972C207.986 259.822 208.074 260.451 208.236 260.925C208.412 261.386 208.717 261.724 209.15 261.941C209.597 262.144 210.247 262.245 211.1 262.245H214.492V263.464C213.91 263.545 213.314 263.62 212.705 263.688C212.095 263.769 211.391 263.809 210.592 263.809ZM207.952 257.757H211.384C211.926 257.757 212.325 257.655 212.583 257.452C212.84 257.249 212.969 256.876 212.969 256.335C212.969 255.793 212.887 255.367 212.725 255.055C212.576 254.744 212.325 254.52 211.973 254.385C211.621 254.25 211.154 254.182 210.572 254.182C209.908 254.182 209.38 254.283 208.988 254.487C208.608 254.69 208.338 255.048 208.175 255.563C208.026 256.078 207.952 256.809 207.952 257.757ZM217.275 263.688V252.821H218.839L219.307 254.649C219.767 254.094 220.281 253.627 220.85 253.248C221.419 252.868 222.082 252.679 222.841 252.679C223.017 252.679 223.186 252.692 223.348 252.719C223.511 252.733 223.667 252.76 223.816 252.801V254.893C223.626 254.866 223.43 254.845 223.227 254.832C223.024 254.805 222.814 254.791 222.597 254.791C222.137 254.791 221.724 254.845 221.358 254.954C220.992 255.062 220.64 255.231 220.302 255.461C219.977 255.678 219.645 255.949 219.307 256.274V263.688H217.275ZM228.792 268.501L230.112 263.688C229.679 263.674 229.266 263.586 228.873 263.423C228.481 263.247 228.129 262.97 227.817 262.591C227.519 262.198 227.276 261.677 227.086 261.027L224.649 252.821H226.781L228.975 260.6C229.097 260.966 229.232 261.243 229.381 261.433C229.544 261.623 229.699 261.758 229.848 261.839C230.011 261.907 230.153 261.948 230.275 261.961C230.397 261.975 230.471 261.981 230.498 261.981L233.037 252.821H235.129L231.392 266.49L230.417 268.501H228.792ZM235.825 263.708C235.594 263.708 235.479 263.593 235.479 263.363V261.595C235.479 261.352 235.594 261.23 235.825 261.23H236.982C237.226 261.23 237.348 261.352 237.348 261.595V263.363C237.348 263.484 237.314 263.572 237.246 263.627C237.179 263.681 237.091 263.708 236.982 263.708H235.825Z" fill="#3D4651"/>
<defs>
<filter id="filter0_d_6111_28540" x="45.3756" y="45.2928" width="294.103" height="333.99" filterUnits="userSpaceOnUse" color-interpolation-filters="sRGB">
<feFlood flood-opacity="0" result="BackgroundImageFix"/>
<feColorMatrix in="SourceAlpha" type="matrix" values="0 0 0 0 0 0 0 0 0 0 0 0 0 0 0 0 0 0 127 0" result="hardAlpha"/>
<feOffset/>
<feGaussianBlur stdDeviation="10.6681"/>
<feComposite in2="hardAlpha" operator="out"/>
<feColorMatrix type="matrix" values="0 0 0 0 0 0 0 0 0 0 0 0 0 0 0 0 0 0 0.25 0"/>
<feBlend mode="normal" in2="BackgroundImageFix" result="effect1_dropShadow_6111_28540"/>
<feBlend mode="normal" in="SourceGraphic" in2="effect1_dropShadow_6111_28540" result="shape"/>
</filter>
<clipPath id="clip0_6111_28540">
<rect width="75.7492" height="75.7492" fill="white" transform="translate(154.77 99.7031)"/>
</clipPath>
</defs>
</svg>
