<svg width="320" height="316" viewBox="0 0 320 316" fill="none" xmlns="http://www.w3.org/2000/svg">
<path d="M19.4028 131.095L17.2354 130.506L17.1931 130.662L17.1735 130.822L19.4028 131.095ZM23.4827 116.231L21.3599 115.497L21.3594 115.499L23.4827 116.231ZM139.416 18.1248L139.787 20.3398L139.787 20.3398L139.416 18.1248ZM165.556 16.8424L165.655 19.0861L165.658 19.086L165.556 16.8424ZM168.275 16.6813L168.548 14.452L168.339 14.4264L168.129 14.4402L168.275 16.6813ZM184.199 18.63L184.763 16.4562L184.619 16.4187L184.471 16.4006L184.199 18.63ZM198.568 22.3631L198.295 24.5924L199.191 20.2053L198.568 22.3631ZM198.563 22.3625L198.836 20.1332L197.942 24.5206L198.563 22.3625ZM239.276 41.6834L238.009 43.5379L238.01 43.5383L239.276 41.6834ZM242.789 42.5078L243.091 44.7332L243.094 44.7328L242.789 42.5078ZM303.886 33.9461L304.2 36.1699L304.237 36.1646L304.275 36.158L303.886 33.9461ZM304.27 33.8899L303.919 31.6716L303.9 31.6746L303.881 31.6778L304.27 33.8899ZM305.547 33.4804L305.82 31.2511L305.325 31.1905L304.85 31.3454L305.547 33.4804ZM309.937 34.0177L311.012 32.0457L310.636 31.8404L310.21 31.7884L309.937 34.0177ZM315.723 41.4178L317.952 41.6906L318.005 41.261L317.894 40.8427L315.723 41.4178ZM315.185 45.8118L317.259 46.6728L317.377 46.3893L317.414 46.0846L315.185 45.8118ZM314.621 47.1575L316.694 48.0214L316.695 48.0186L314.621 47.1575ZM307.049 65.3579L304.97 64.5087L304.969 64.5111L307.049 65.3579ZM291.485 104.005L293.572 104.834L293.574 104.829L291.485 104.005ZM291.416 108.643L289.306 109.412L289.307 109.416L291.416 108.643ZM300.073 165.536L302.315 165.673L302.315 165.661L300.073 165.536ZM300.269 167.699L302.498 167.972L302.528 167.727L302.504 167.481L300.269 167.699ZM298.455 182.523L300.63 183.08L300.666 182.94L300.684 182.796L298.455 182.523ZM294.327 198.528L292.178 197.877L292.178 197.877L294.327 198.528ZM231.989 279.282L233.155 281.202L233.155 281.202L231.989 279.282ZM134.787 297.792L134.423 300.008L134.424 300.008L134.787 297.792ZM17.5506 169.046L15.3101 169.201L15.3101 169.202L17.5506 169.046ZM17.051 150.312L14.8217 150.039L14.8017 150.203L14.8058 150.368L17.051 150.312ZM19.4028 131.095L17.1735 130.822L16.5855 135.626L18.8148 135.899L21.0441 136.172L21.6321 131.368L19.4028 131.095ZM17.639 145.508L15.4097 145.235L14.8217 150.039L17.051 150.312L19.2803 150.585L19.8683 145.781L17.639 145.508ZM17.051 150.312L14.8058 150.368C14.8443 151.915 14.8679 153.466 14.8882 155.026L17.134 154.997L19.3797 154.968C19.3593 153.403 19.3355 151.83 19.2963 150.256L17.051 150.312ZM17.312 164.366L15.0675 164.445C15.1231 166.026 15.1998 167.613 15.3101 169.201L17.5506 169.046L19.7911 168.89C19.6852 167.364 19.6108 165.83 19.5566 164.287L17.312 164.366ZM17.5506 169.046L15.3101 169.202C15.4027 170.527 15.5141 171.848 15.6441 173.165L17.8791 172.944L20.1142 172.724C19.9885 171.45 19.8807 170.171 19.7911 168.889L17.5506 169.046ZM18.8679 180.694L16.6491 181.042C17.0605 183.667 17.5456 186.272 18.1024 188.853L20.2978 188.38L22.4933 187.906C21.9544 185.408 21.4849 182.887 21.0868 180.346L18.8679 180.694ZM22.1616 195.97L19.9966 196.568C20.702 199.125 21.4782 201.657 22.3229 204.16L24.4509 203.442L26.5789 202.723C25.761 200.3 25.0096 197.849 24.3267 195.373L22.1616 195.97ZM27.1573 210.775L25.0728 211.611C26.0601 214.072 27.1145 216.501 28.2339 218.896L30.2686 217.945L32.3032 216.994C31.219 214.674 30.1977 212.321 29.2417 209.938L27.1573 210.775ZM33.7724 224.93L31.7934 225.992C33.0462 228.327 34.3622 230.624 35.7391 232.882L37.6567 231.713L39.5742 230.544C38.24 228.356 36.965 226.13 35.7513 223.868L33.7724 224.93ZM41.907 238.272L40.0563 239.545C41.5562 241.726 43.115 243.866 44.7304 245.961L46.509 244.589L48.2875 243.218C46.7219 241.187 45.2112 239.114 43.7577 237L41.907 238.272ZM51.4485 250.647L49.7472 252.113C51.4749 254.117 53.2569 256.075 55.091 257.983L56.7101 256.426L58.3291 254.87C56.5515 253.021 54.8243 251.123 53.1498 249.18L51.4485 250.647ZM62.2784 261.911L60.7465 263.553C62.681 265.358 64.6652 267.11 66.6968 268.808L68.1369 267.084L69.5769 265.361C67.6081 263.716 65.6852 262.017 63.8103 260.269L62.2784 261.911ZM74.2697 271.929L72.9262 273.729C75.0456 275.311 77.2101 276.836 79.4171 278.302L80.6595 276.431L81.9019 274.56C79.7638 273.14 77.6668 271.663 75.6131 270.13L74.2697 271.929ZM87.287 280.572L86.1501 282.509C88.43 283.847 90.7501 285.124 93.1079 286.337L94.1351 284.34L95.1623 282.342C92.8791 281.168 90.6322 279.932 88.4239 278.635L87.287 280.572ZM101.184 287.718L100.27 289.77C102.683 290.845 105.132 291.854 107.613 292.794L108.409 290.694L109.205 288.594C106.804 287.684 104.434 286.707 102.097 285.667L101.184 287.718ZM115.793 293.257L115.117 295.399C117.635 296.194 120.183 296.919 122.759 297.573L123.312 295.397L123.865 293.22C121.372 292.587 118.906 291.885 116.469 291.115L115.793 293.257ZM130.936 297.102L130.509 299.307C131.807 299.559 133.112 299.793 134.423 300.008L134.787 297.792L135.152 295.576C133.883 295.367 132.62 295.141 131.364 294.897L130.936 297.102ZM134.787 297.792L134.424 300.008C135.836 300.24 137.245 300.452 138.651 300.646L138.957 298.421L139.263 296.196C137.896 296.008 136.525 295.801 135.151 295.576L134.787 297.792ZM147.333 299.346L147.147 301.585C150.008 301.822 152.856 301.979 155.69 302.054L155.749 299.809L155.809 297.564C153.061 297.491 150.297 297.339 147.519 297.108L147.333 299.346ZM164.177 299.785L164.249 302.03C167.113 301.938 169.962 301.759 172.796 301.495L172.588 299.259L172.379 297.023C169.637 297.278 166.878 297.451 164.104 297.541L164.177 299.785ZM180.951 298.217L181.298 300.436C184.121 299.995 186.928 299.467 189.718 298.85L189.233 296.657L188.748 294.464C186.05 295.06 183.335 295.572 180.604 295.998L180.951 298.217ZM197.401 294.58L198.022 296.738C200.758 295.95 203.476 295.075 206.177 294.113L205.423 291.997L204.668 289.881C202.055 290.813 199.425 291.659 196.779 292.421L197.401 294.58ZM213.27 288.927L214.152 290.993C216.76 289.88 219.351 288.684 221.924 287.403L220.923 285.392L219.921 283.382C217.427 284.624 214.916 285.784 212.389 286.861L213.27 288.927ZM228.356 281.423L229.469 283.373C230.702 282.669 231.931 281.946 233.155 281.202L231.989 279.282L230.823 277.363C229.633 278.086 228.44 278.789 227.243 279.472L228.356 281.423ZM231.989 279.282L233.155 281.202C234.238 280.544 235.308 279.876 236.366 279.199L235.155 277.307L233.944 275.416C232.915 276.075 231.875 276.723 230.823 277.363L231.989 279.282ZM241.338 273.133L242.64 274.963C244.711 273.489 246.73 271.974 248.698 270.417L247.305 268.656L245.911 266.894C244.004 268.403 242.046 269.873 240.036 271.303L241.338 273.133ZM253.031 263.877L254.515 265.563C256.42 263.886 258.271 262.165 260.068 260.402L258.495 258.799L256.922 257.196C255.183 258.902 253.392 260.567 251.547 262.191L253.031 263.877ZM263.674 253.43L265.333 254.944C267.04 253.074 268.692 251.16 270.288 249.203L268.547 247.784L266.807 246.364C265.263 248.257 263.666 250.107 262.015 251.916L263.674 253.43ZM273.099 241.874L274.916 243.194C276.4 241.152 277.829 239.067 279.202 236.939L277.315 235.721L275.428 234.503C274.099 236.562 272.717 238.579 271.282 240.554L273.099 241.874ZM281.187 229.345L283.138 230.459C284.385 228.273 285.579 226.046 286.718 223.779L284.711 222.771L282.704 221.762C281.6 223.96 280.444 226.116 279.237 228.232L281.187 229.345ZM287.885 216.021L289.941 216.925C290.95 214.628 291.907 212.293 292.812 209.92L290.714 209.119L288.615 208.319C287.736 210.624 286.807 212.89 285.828 215.118L287.885 216.021ZM293.205 202.087L295.34 202.787C295.731 201.593 296.11 200.391 296.477 199.179L294.327 198.528L292.178 197.877C291.821 199.056 291.452 200.226 291.071 201.387L293.205 202.087ZM294.327 198.528L296.477 199.18C296.885 197.833 297.265 196.482 297.625 195.132L295.455 194.553L293.285 193.973C292.935 195.286 292.569 196.588 292.178 197.877L294.327 198.528ZM297.459 186.534L299.641 187.066C299.966 185.729 300.293 184.401 300.63 183.08L298.455 182.523L296.279 181.967C295.934 183.314 295.603 184.662 295.277 186.003L297.459 186.534ZM298.455 182.523L300.684 182.796L301.137 179.09L298.908 178.817L296.679 178.545L296.225 182.25L298.455 182.523ZM299.815 171.405L302.044 171.678L302.498 167.972L300.269 167.699L298.039 167.427L297.586 171.133L299.815 171.405ZM300.269 167.699L302.504 167.481C302.482 167.255 302.453 167.039 302.427 166.852L300.203 167.16L297.978 167.468C298.002 167.641 298.02 167.784 298.033 167.918L300.269 167.699ZM300.076 166.08L302.317 165.943C302.31 165.829 302.31 165.742 302.315 165.673L300.073 165.536L297.831 165.4C297.813 165.692 297.819 165.967 297.834 166.217L300.076 166.08ZM300.073 165.536L302.315 165.661C302.384 164.433 302.436 163.208 302.472 161.985L300.228 161.918L297.983 161.851C297.947 163.035 297.896 164.222 297.83 165.412L300.073 165.536ZM300.257 154.674L302.502 154.625C302.449 152.165 302.331 149.714 302.149 147.273L299.91 147.439L297.67 147.605C297.845 149.969 297.96 152.341 298.012 154.723L300.257 154.674ZM299.184 140.232L301.412 139.949C301.102 137.514 300.729 135.089 300.293 132.674L298.083 133.073L295.873 133.471C296.295 135.81 296.656 138.158 296.956 140.515L299.184 140.232ZM296.615 125.98L298.802 125.468C298.245 123.086 297.627 120.713 296.949 118.35L294.79 118.97L292.631 119.589C293.289 121.881 293.888 124.182 294.428 126.491L296.615 125.98ZM292.623 112.058L294.749 111.335C294.355 110.177 293.947 109.022 293.525 107.87L291.416 108.643L289.307 109.416C289.718 110.536 290.114 111.657 290.497 112.781L292.623 112.058ZM291.416 108.643L293.526 107.874C293.458 107.686 293.398 107.45 293.358 107.174L291.135 107.497L288.913 107.819C288.99 108.353 289.117 108.894 289.306 109.412L291.416 108.643ZM291.171 105.143L293.383 105.531C293.431 105.256 293.498 105.021 293.572 104.834L291.485 104.005L289.397 103.176C289.194 103.687 289.052 104.223 288.958 104.754L291.171 105.143ZM291.485 104.005L293.574 104.829C293.998 103.754 294.423 102.679 294.849 101.604L292.761 100.777L290.673 99.949C290.247 101.026 289.82 102.103 289.395 103.181L291.485 104.005ZM295.33 94.3252L297.415 95.159C298.274 93.0115 299.136 90.8651 299.999 88.7194L297.916 87.8806L295.833 87.0418C294.968 89.1905 294.105 91.3403 293.245 93.4914L295.33 94.3252ZM300.515 81.4415L302.597 82.284C303.465 80.1394 304.335 77.9954 305.206 75.8515L303.125 75.0063L301.044 74.1612C300.173 76.3064 299.302 78.4523 298.434 80.5989L300.515 81.4415ZM305.74 68.5737L307.821 69.4203C308.257 68.3485 308.693 67.2767 309.129 66.2048L307.049 65.3579L304.969 64.5111C304.533 65.583 304.096 66.655 303.66 67.7271L305.74 68.5737ZM307.049 65.3579L309.129 66.2072C309.748 64.6903 310.372 63.1751 311 61.6605L308.925 60.8008L306.85 59.941C306.22 61.461 305.593 62.9834 304.97 64.5087L307.049 65.3579ZM312.721 51.7047L314.793 52.5718C315.427 51.0563 316.061 49.5395 316.694 48.0214L314.621 47.1575L312.548 46.2937C311.917 47.8083 311.283 49.3225 310.649 50.8377L312.721 51.7047ZM314.621 47.1575L316.695 48.0186C316.74 47.9099 316.786 47.8006 316.832 47.6901L314.762 46.8209L312.691 45.9517C312.643 46.0656 312.595 46.1807 312.547 46.2965L314.621 47.1575ZM315.044 46.1484L317.115 47.0176C317.163 46.9037 317.211 46.7886 317.259 46.6728L315.185 45.8118L313.111 44.9508C313.066 45.0595 313.02 45.1688 312.974 45.2792L315.044 46.1484ZM315.185 45.8118L317.414 46.0846L317.549 44.9861L315.319 44.7133L313.09 44.4405L312.956 45.539L315.185 45.8118ZM315.588 42.5163L317.818 42.7891L317.952 41.6906L315.723 41.4178L313.494 41.145L313.359 42.2435L315.588 42.5163ZM315.723 41.4178L317.894 40.8427C317.647 39.9101 317.324 39.0204 316.92 38.1782L314.895 39.1486L312.869 40.1191C313.143 40.6911 313.372 41.3143 313.552 41.993L315.723 41.4178ZM311.942 35.3656L313.373 33.6346C312.652 33.0384 311.863 32.5096 311.012 32.0457L309.937 34.0177L308.862 35.9897C309.476 36.3243 310.024 36.6943 310.511 37.0966L311.942 35.3656ZM309.937 34.0177L310.21 31.7884L309.113 31.654L308.84 33.8834L308.567 36.1126L309.664 36.2469L309.937 34.0177ZM306.645 33.6147L306.918 31.3854L305.82 31.2511L305.547 33.4804L305.274 35.7097L306.372 35.844L306.645 33.6147ZM305.547 33.4804L304.85 31.3454C304.699 31.3947 304.559 31.4461 304.446 31.4882L305.231 33.5926L306.015 35.6969C306.113 35.6606 306.183 35.6352 306.244 35.6154L305.547 33.4804ZM304.597 33.815L303.972 31.6579C303.929 31.6702 303.914 31.6723 303.919 31.6716L304.27 33.8899L304.621 36.1081C304.845 36.0727 305.048 36.0227 305.223 35.972L304.597 33.815ZM304.27 33.8899L303.881 31.6778C303.88 31.678 303.874 31.6792 303.857 31.6815L304.174 33.9049L304.491 36.1284C304.539 36.1216 304.596 36.1129 304.659 36.1018L304.27 33.8899ZM303.982 33.931L303.665 31.7075C303.617 31.7143 303.56 31.723 303.496 31.7341L303.886 33.9461L304.275 36.158C304.276 36.1579 304.282 36.1567 304.298 36.1544L303.982 33.931ZM303.886 33.9461L303.571 31.7222C302.299 31.9021 301.026 32.082 299.753 32.2619L300.068 34.4857L300.382 36.7095C301.655 36.5296 302.927 36.3498 304.2 36.1699L303.886 33.9461ZM292.432 35.565L292.118 33.3411C289.572 33.7008 287.027 34.0602 284.482 34.4193L284.796 36.6432L285.11 38.8671C287.655 38.5079 290.201 38.1484 292.746 37.7888L292.432 35.565ZM277.159 37.7194L276.846 35.4954C274.301 35.8536 271.756 36.2113 269.211 36.5683L269.523 38.7924L269.835 41.0166C272.381 40.6595 274.927 40.3017 277.472 39.9434L277.159 37.7194ZM261.885 39.8613L261.575 37.6369C259.03 37.9923 256.484 38.3468 253.939 38.7002L254.247 40.9248L254.556 43.1494C257.103 42.7958 259.65 42.4411 262.196 42.0856L261.885 39.8613ZM246.608 41.982L246.302 39.7571C245.029 39.9327 243.756 40.1079 242.483 40.2828L242.789 42.5078L243.094 44.7328C244.368 44.5578 245.642 44.3825 246.915 44.2068L246.608 41.982ZM242.789 42.5078L242.486 40.2824C242.37 40.2982 242.215 40.3047 242.027 40.2915L241.871 42.532L241.714 44.7725C242.162 44.8038 242.629 44.7962 243.091 44.7332L242.789 42.5078ZM240.087 42.1142L240.943 40.0378C240.77 39.9667 240.636 39.8929 240.542 39.8285L239.276 41.6834L238.01 43.5383C238.398 43.8035 238.814 44.019 239.231 44.1906L240.087 42.1142ZM239.276 41.6834L240.543 39.8289C239.487 39.1081 238.425 38.4015 237.356 37.7092L236.136 39.5944L234.915 41.4796C235.953 42.1516 236.984 42.8378 238.009 43.5379L239.276 41.6834ZM229.704 35.6558L230.827 33.7112C228.613 32.4318 226.37 31.2121 224.097 30.0535L223.077 32.0544L222.057 34.0553C224.259 35.1778 226.433 36.3599 228.58 37.6005L229.704 35.6558ZM216.269 28.8102L217.18 26.7573C214.847 25.7221 212.484 24.7494 210.092 23.8404L209.294 25.9399L208.496 28.0395C210.812 28.9192 213.099 29.8608 215.358 30.863L216.269 28.8102ZM202.173 23.4565L202.854 21.3163C201.639 20.9296 200.416 20.559 199.185 20.2044L198.563 22.3625L197.942 24.5206C199.132 24.8638 200.316 25.2225 201.492 25.5967L202.173 23.4565ZM198.563 22.3625L198.291 24.5918L198.292 24.5919L198.565 22.3626L198.837 20.1333L198.836 20.1332L198.563 22.3625ZM198.567 22.3629L198.294 24.5922L198.295 24.5924L198.568 22.3631L198.841 20.1338L198.84 20.1336L198.567 22.3629ZM198.568 22.3631L199.191 20.2053C197.984 19.8567 196.774 19.5251 195.566 19.2047L194.99 21.3756L194.415 23.5465C195.599 23.8606 196.776 24.1834 197.945 24.5209L198.568 22.3631ZM187.796 19.5451L188.342 17.3667C187.144 17.0661 185.951 16.7648 184.763 16.4562L184.199 18.63L183.634 20.8037C184.84 21.1171 186.047 21.422 187.249 21.7235L187.796 19.5451ZM184.199 18.63L184.471 16.4006L180.491 15.9135L180.218 18.1428L179.945 20.3721L183.926 20.8592L184.199 18.63ZM172.256 17.1685L172.529 14.9392L168.548 14.452L168.275 16.6813L168.003 18.9106L171.983 19.3977L172.256 17.1685ZM168.275 16.6813L168.129 14.4402C167.901 14.4551 167.676 14.4699 167.451 14.4845L167.596 16.7257L167.741 18.9669C167.968 18.9522 168.196 18.9372 168.422 18.9224L168.275 16.6813ZM166.236 16.8081L166.113 14.5655C165.893 14.5776 165.673 14.5888 165.454 14.5988L165.556 16.8424L165.658 19.086C165.894 19.0752 166.127 19.0633 166.359 19.0507L166.236 16.8081ZM165.556 16.8424L165.457 14.5987C164.387 14.646 163.313 14.6794 162.232 14.7042L162.283 16.9496L162.335 19.1949C163.439 19.1696 164.547 19.1352 165.655 19.0861L165.556 16.8424ZM155.735 17.0397L155.709 14.7939C153.519 14.819 151.306 14.8542 149.096 14.9452L149.188 17.1892L149.28 19.4332C151.421 19.3451 153.578 19.3105 155.761 19.2855L155.735 17.0397ZM142.658 17.6714L142.404 15.4399C141.283 15.5677 140.163 15.7222 139.044 15.9098L139.416 18.1248L139.787 20.3398C140.82 20.1665 141.862 20.0226 142.913 19.9028L142.658 17.6714ZM139.416 18.1248L139.045 15.9097C137.701 16.1348 136.368 16.3722 135.044 16.6218L135.46 18.8288L135.876 21.0358C137.17 20.7919 138.473 20.5599 139.787 20.3398L139.416 18.1248ZM127.616 20.4815L127.106 18.2944C124.441 18.9166 121.82 19.5918 119.241 20.3203L119.852 22.4816L120.463 24.6429C122.973 23.9336 125.528 23.2755 128.127 22.6686L127.616 20.4815ZM112.192 24.8476L111.476 22.7188C108.883 23.5904 106.337 24.5197 103.839 25.5068L104.664 27.5956L105.489 29.6845C107.914 28.7265 110.387 27.8238 112.907 26.9765L112.192 24.8476ZM97.287 30.7438L96.3487 28.7033C93.8653 29.8452 91.4326 31.0487 89.0506 32.314L90.1042 34.2974L91.1578 36.2809C93.463 35.0564 95.8188 33.8909 98.2252 32.7844L97.287 30.7438ZM83.1381 38.2664L81.9684 36.3491C79.6387 37.7704 77.3624 39.256 75.1397 40.806L76.4244 42.6482L77.7091 44.4905C79.8561 42.9932 82.0556 41.5576 84.3077 40.1837L83.1381 38.2664ZM69.9952 47.4351L68.5985 45.6763C66.4682 47.368 64.3928 49.1247 62.3723 50.9465L63.8762 52.6145L65.3802 54.2825C67.3311 52.5235 69.335 50.8273 71.3919 49.1939L69.9952 47.4351ZM58.0932 58.1647L56.4885 56.5933C54.5928 58.5292 52.7515 60.5287 50.9647 62.5917L52.6624 64.0621L54.3601 65.5325C56.0874 63.5382 57.8667 61.6061 59.6979 59.7361L58.0932 58.1647ZM47.5967 70.2767L45.8146 68.9098C44.1732 71.0496 42.5841 73.2498 41.0472 75.5102L42.9045 76.773L44.7618 78.0358C46.2512 75.8452 47.7901 73.7146 49.3787 71.6436L47.5967 70.2767ZM38.5796 83.5273L36.656 82.3679C35.2692 84.6688 33.9314 87.0258 32.6426 89.4386L34.6236 90.4968L36.6046 91.555C37.8576 89.2093 39.1571 86.9199 40.5031 84.6867L38.5796 83.5273ZM31.0218 97.6595L28.9915 96.6993C27.8461 99.1213 26.7459 101.595 25.6908 104.119L27.763 104.985L29.8352 105.851C30.8644 103.389 31.9368 100.978 33.0522 98.6196L31.0218 97.6595ZM24.8329 112.447L22.7255 111.67C22.2599 112.934 21.8047 114.21 21.3599 115.497L23.4827 116.231L25.6056 116.964C26.0405 115.705 26.4854 114.458 26.9404 113.223L24.8329 112.447ZM23.4827 116.231L21.3594 115.499C20.9257 116.757 20.5339 118.022 20.1697 119.286L22.3278 119.908L24.4858 120.53C24.8339 119.322 25.2028 118.133 25.6061 116.962L23.4827 116.231ZM20.3728 127.365L18.1953 126.814C17.8811 128.058 17.5664 129.288 17.2354 130.506L19.4028 131.095L21.5702 131.684C21.9119 130.425 22.2346 129.165 22.5503 127.915L20.3728 127.365Z" fill="#16A458"/>
<g filter="url(#filter0_d_6111_28525)">
<path d="M181.345 34.2815C185.599 35.3865 189.887 36.3787 194.103 37.5959L194.098 37.595C207.081 41.3363 219.094 47.1314 230.246 54.7493C231.08 55.3187 232.365 55.6175 233.364 55.4817C251.454 52.996 269.529 50.4353 287.609 47.8801C287.723 47.86 287.836 47.8494 287.951 47.8293C288.332 47.7689 288.705 47.59 289.084 47.4661L292.983 47.9436C295.644 49.3942 297.344 51.5889 298.119 54.5129L297.641 58.4143C297.476 58.8128 297.306 59.2111 297.14 59.6096C294.897 64.9939 292.625 70.3654 290.418 75.7688C285.769 87.1897 281.124 98.611 276.599 110.081C276.121 111.284 276.094 112.98 276.538 114.198C282.522 130.52 285.189 147.331 284.224 164.711C284.186 165.344 284.335 165.991 284.398 166.632L282.787 179.793C281.574 184.534 280.541 189.327 279.123 194.004C269.766 224.904 251.335 248.956 223.776 265.701C197.141 281.883 168.192 287.175 137.475 282.135C81.0849 272.867 37.3668 224.792 33.3862 167.827C33.0028 162.302 33.081 156.74 32.9429 151.196L35.0308 134.133C36.2251 129.736 37.169 125.244 38.6538 120.936C55.7123 71.552 90.1113 42.4549 141.584 33.8323C149.172 32.5597 157.052 33.0367 164.793 32.6936C165.605 32.6565 166.404 32.6036 167.208 32.551L181.345 34.2815Z" fill="white"/>
</g>
<path d="M150.462 88.6406V92.9913H138.031L154.813 109.824V141.675H150.462V111.584L134.924 96.098V108.529H130.574V88.6406H150.462Z" fill="#16A458"/>
<path d="M163.719 88.6406H183.608V108.529H179.257V96.098L163.719 111.584V141.675H159.369V109.824L176.15 92.9913H163.719V88.6406Z" fill="#16A458"/>
<circle cx="33.6488" cy="128.751" r="25.2198" fill="white" stroke="#16A458" stroke-width="4.58543"/>
<path d="M29.8424 137.512C29.3212 137.512 28.8162 137.331 28.4131 137.001L21.6728 131.479C20.7511 130.679 20.6333 129.29 21.4068 128.346C22.1804 127.401 23.5648 127.243 24.5314 127.989L29.7522 132.262L44.7975 118.405C45.363 117.732 46.2674 117.449 47.1154 117.679C47.9634 117.909 48.6008 118.61 48.7491 119.476C48.8975 120.342 48.5297 121.216 47.8066 121.715L31.3771 136.911C30.9613 137.3 30.4121 137.516 29.8424 137.512Z" fill="#16A458" stroke="#16A458" stroke-width="2.25681"/>
<path d="M60.5809 181.809V169.967C60.5809 169.371 60.6689 168.87 60.8449 168.464C61.0345 168.058 61.2782 167.74 61.5761 167.509C61.874 167.266 62.2058 167.096 62.5714 167.002C62.9505 166.893 63.3229 166.839 63.6885 166.839C64.2437 166.853 64.8733 166.866 65.5775 166.88C66.2816 166.88 67.0128 166.893 67.7711 166.92C68.5429 166.948 69.2877 166.995 70.0053 167.063V168.728H64.1963C63.6953 168.728 63.3094 168.864 63.0386 169.134C62.7677 169.405 62.6323 169.798 62.6323 170.312V173.786L69.0913 173.908V175.492L62.6323 175.614V181.809H60.5809ZM76.0555 181.93C75.2295 181.93 74.5119 181.842 73.9025 181.666C73.3067 181.49 72.8125 181.199 72.4198 180.793C72.0271 180.373 71.736 179.805 71.5464 179.087C71.3569 178.369 71.2621 177.462 71.2621 176.365C71.2621 175.228 71.3569 174.3 71.5464 173.583C71.736 172.851 72.0271 172.283 72.4198 171.876C72.8125 171.47 73.3135 171.193 73.9228 171.044C74.5322 170.881 75.2431 170.8 76.0555 170.8C76.868 170.8 77.5789 170.881 78.1882 171.044C78.7975 171.206 79.2986 171.49 79.6912 171.897C80.0839 172.303 80.3751 172.872 80.5646 173.603C80.7542 174.321 80.849 175.241 80.849 176.365C80.849 177.476 80.7542 178.396 80.5646 179.128C80.3751 179.845 80.0839 180.407 79.6912 180.813C79.3121 181.22 78.8179 181.511 78.2085 181.687C77.5992 181.849 76.8815 181.93 76.0555 181.93ZM76.0555 180.265C76.5024 180.265 76.8951 180.224 77.2336 180.143C77.5856 180.062 77.8768 179.893 78.107 179.635C78.3372 179.364 78.5132 178.965 78.6351 178.437C78.7569 177.909 78.8179 177.211 78.8179 176.345C78.8179 175.478 78.7569 174.788 78.6351 174.273C78.5132 173.745 78.3372 173.352 78.107 173.095C77.8768 172.838 77.5856 172.669 77.2336 172.587C76.8951 172.493 76.5024 172.445 76.0555 172.445C75.5951 172.445 75.1889 172.493 74.8369 172.587C74.4983 172.669 74.214 172.838 73.9838 173.095C73.7671 173.352 73.5979 173.745 73.476 174.273C73.3677 174.788 73.3135 175.478 73.3135 176.345C73.3135 177.211 73.3677 177.909 73.476 178.437C73.5979 178.965 73.7671 179.364 73.9838 179.635C74.214 179.893 74.4983 180.062 74.8369 180.143C75.1889 180.224 75.5951 180.265 76.0555 180.265ZM87.3724 181.93C86.736 181.93 86.1469 181.849 85.6053 181.687C85.0772 181.511 84.6101 181.22 84.2038 180.813C83.8111 180.407 83.5065 179.845 83.2898 179.128C83.0732 178.41 82.9648 177.503 82.9648 176.406C82.9648 175.282 83.0664 174.361 83.2695 173.643C83.4726 172.912 83.7638 172.344 84.1429 171.937C84.5356 171.518 85.0095 171.226 85.5647 171.064C86.1199 170.901 86.7427 170.82 87.4333 170.82C88.002 170.82 88.5978 170.847 89.2207 170.901C89.8571 170.956 90.4732 171.044 91.069 171.165V172.364H88.002C87.3385 172.364 86.7834 172.472 86.3365 172.689C85.8897 172.892 85.5579 173.291 85.3413 173.887C85.1246 174.469 85.0163 175.316 85.0163 176.426C85.0163 177.496 85.1314 178.322 85.3616 178.904C85.5918 179.473 85.9235 179.859 86.3568 180.062C86.8037 180.265 87.3588 180.366 88.0223 180.366H91.2315V181.524C90.9201 181.605 90.5477 181.68 90.1144 181.748C89.6946 181.802 89.2478 181.842 88.7739 181.87C88.3135 181.91 87.8463 181.93 87.3724 181.93ZM96.4766 181.93C95.461 181.93 94.6689 181.66 94.1002 181.118C93.545 180.563 93.2674 179.723 93.2674 178.599V170.942H95.2985V178.051C95.2985 178.863 95.4813 179.412 95.8469 179.696C96.2261 179.981 96.7542 180.123 97.4312 180.123C97.9728 180.123 98.4874 180.042 98.9749 179.879C99.4759 179.703 99.9634 179.466 100.437 179.168V170.942H102.468V181.809H100.844L100.437 180.651C99.9092 180.989 99.2998 181.287 98.6093 181.545C97.9322 181.802 97.2213 181.93 96.4766 181.93ZM109.066 181.93C108.782 181.93 108.444 181.924 108.051 181.91C107.658 181.897 107.252 181.87 106.832 181.829C106.426 181.802 106.047 181.768 105.695 181.727C105.356 181.687 105.085 181.639 104.882 181.585V180.366H109.452C109.845 180.366 110.184 180.339 110.468 180.285C110.752 180.218 110.969 180.082 111.118 179.879C111.28 179.676 111.362 179.378 111.362 178.985V178.538C111.362 178.132 111.226 177.814 110.955 177.584C110.685 177.354 110.238 177.239 109.615 177.239H108.031C107.394 177.239 106.825 177.157 106.324 176.995C105.837 176.819 105.451 176.528 105.167 176.121C104.896 175.715 104.76 175.167 104.76 174.476V173.887C104.76 173.197 104.889 172.628 105.146 172.181C105.417 171.734 105.844 171.402 106.426 171.186C107.008 170.956 107.78 170.841 108.741 170.841C109.148 170.841 109.594 170.861 110.082 170.901C110.583 170.929 111.07 170.969 111.544 171.023C112.018 171.077 112.397 171.138 112.682 171.206V172.425H108.376C107.78 172.425 107.32 172.526 106.995 172.729C106.683 172.933 106.527 173.318 106.527 173.887V174.293C106.527 174.645 106.602 174.916 106.751 175.106C106.9 175.295 107.11 175.417 107.381 175.471C107.665 175.526 107.997 175.553 108.376 175.553H110.001C111.03 175.553 111.808 175.796 112.336 176.284C112.865 176.758 113.129 177.428 113.129 178.295V179.128C113.129 179.859 112.959 180.427 112.621 180.834C112.282 181.24 111.808 181.524 111.199 181.687C110.603 181.849 109.892 181.93 109.066 181.93ZM119.729 181.93C118.578 181.93 117.658 181.761 116.967 181.423C116.29 181.084 115.802 180.515 115.505 179.717C115.22 178.904 115.078 177.787 115.078 176.365C115.078 174.916 115.22 173.792 115.505 172.994C115.802 172.181 116.29 171.612 116.967 171.287C117.644 170.962 118.558 170.8 119.709 170.8C120.711 170.8 121.517 170.908 122.126 171.125C122.749 171.328 123.203 171.7 123.487 172.242C123.785 172.77 123.934 173.508 123.934 174.456C123.934 175.119 123.798 175.648 123.528 176.04C123.27 176.433 122.898 176.717 122.41 176.893C121.936 177.069 121.368 177.157 120.704 177.157H117.109C117.123 177.943 117.211 178.572 117.373 179.046C117.549 179.507 117.854 179.845 118.287 180.062C118.734 180.265 119.384 180.366 120.237 180.366H123.629V181.585C123.047 181.666 122.451 181.741 121.842 181.809C121.232 181.89 120.528 181.93 119.729 181.93ZM117.089 175.878H120.521C121.063 175.878 121.463 175.776 121.72 175.573C121.977 175.37 122.106 174.998 122.106 174.456C122.106 173.914 122.024 173.488 121.862 173.176C121.713 172.865 121.463 172.641 121.11 172.506C120.758 172.371 120.291 172.303 119.709 172.303C119.046 172.303 118.517 172.404 118.125 172.608C117.746 172.811 117.475 173.17 117.312 173.684C117.163 174.199 117.089 174.93 117.089 175.878ZM129.947 181.93C129.067 181.93 128.335 181.741 127.753 181.362C127.184 180.983 126.758 180.394 126.473 179.595C126.189 178.782 126.047 177.74 126.047 176.467C126.047 175.126 126.176 174.043 126.433 173.217C126.704 172.377 127.137 171.768 127.733 171.389C128.329 170.996 129.134 170.8 130.15 170.8C130.718 170.8 131.28 170.861 131.836 170.983C132.404 171.105 132.899 171.24 133.318 171.389V166.311H135.349V181.809H133.684L133.318 180.732C133.102 180.922 132.804 181.111 132.425 181.301C132.045 181.477 131.639 181.626 131.206 181.748C130.773 181.87 130.353 181.93 129.947 181.93ZM130.597 180.265C131.152 180.265 131.653 180.177 132.1 180.001C132.56 179.825 132.966 179.642 133.318 179.452V172.851C132.899 172.729 132.486 172.621 132.079 172.526C131.687 172.418 131.247 172.364 130.759 172.364C130.123 172.364 129.608 172.479 129.215 172.709C128.823 172.939 128.538 173.346 128.362 173.928C128.186 174.51 128.098 175.323 128.098 176.365C128.098 177.327 128.18 178.098 128.342 178.681C128.505 179.249 128.769 179.656 129.134 179.899C129.513 180.143 130.001 180.265 130.597 180.265ZM147.958 181.93C147.132 181.93 146.414 181.842 145.805 181.666C145.209 181.49 144.715 181.199 144.322 180.793C143.93 180.373 143.639 179.805 143.449 179.087C143.259 178.369 143.165 177.462 143.165 176.365C143.165 175.228 143.259 174.3 143.449 173.583C143.639 172.851 143.93 172.283 144.322 171.876C144.715 171.47 145.216 171.193 145.825 171.044C146.435 170.881 147.146 170.8 147.958 170.8C148.771 170.8 149.481 170.881 150.091 171.044C150.7 171.206 151.201 171.49 151.594 171.897C151.987 172.303 152.278 172.872 152.467 173.603C152.657 174.321 152.752 175.241 152.752 176.365C152.752 177.476 152.657 178.396 152.467 179.128C152.278 179.845 151.987 180.407 151.594 180.813C151.215 181.22 150.72 181.511 150.111 181.687C149.502 181.849 148.784 181.93 147.958 181.93ZM147.958 180.265C148.405 180.265 148.798 180.224 149.136 180.143C149.488 180.062 149.779 179.893 150.01 179.635C150.24 179.364 150.416 178.965 150.538 178.437C150.66 177.909 150.72 177.211 150.72 176.345C150.72 175.478 150.66 174.788 150.538 174.273C150.416 173.745 150.24 173.352 150.01 173.095C149.779 172.838 149.488 172.669 149.136 172.587C148.798 172.493 148.405 172.445 147.958 172.445C147.498 172.445 147.092 172.493 146.739 172.587C146.401 172.669 146.117 172.838 145.886 173.095C145.67 173.352 145.5 173.745 145.379 174.273C145.27 174.788 145.216 175.478 145.216 176.345C145.216 177.211 145.27 177.909 145.379 178.437C145.5 178.965 145.67 179.364 145.886 179.635C146.117 179.893 146.401 180.062 146.739 180.143C147.092 180.224 147.498 180.265 147.958 180.265ZM155.233 181.809V170.942H156.858L157.264 172.12C157.752 171.768 158.327 171.457 158.991 171.186C159.668 170.901 160.365 170.759 161.083 170.759C161.895 170.759 162.545 170.935 163.033 171.287C163.534 171.626 163.892 172.08 164.109 172.648C164.326 173.217 164.434 173.833 164.434 174.497V181.809H162.403V174.74C162.403 174.307 162.315 173.935 162.139 173.623C161.976 173.298 161.746 173.048 161.448 172.872C161.15 172.696 160.785 172.608 160.351 172.608C159.945 172.608 159.566 172.648 159.214 172.729C158.876 172.811 158.551 172.926 158.239 173.075C157.928 173.21 157.603 173.379 157.264 173.583V181.809H155.233ZM177.626 181.93C176.732 181.93 175.953 181.829 175.29 181.626C174.626 181.423 174.071 181.057 173.624 180.529C173.177 179.987 172.846 179.216 172.629 178.214C172.412 177.198 172.304 175.884 172.304 174.273C172.304 172.757 172.412 171.504 172.629 170.516C172.859 169.527 173.198 168.755 173.645 168.2C174.105 167.645 174.674 167.259 175.351 167.042C176.028 166.826 176.813 166.717 177.707 166.717C178.208 166.717 178.722 166.744 179.25 166.799C179.792 166.853 180.307 166.927 180.794 167.022C181.295 167.103 181.742 167.198 182.135 167.306V168.85C181.891 168.809 181.559 168.769 181.139 168.728C180.72 168.674 180.246 168.633 179.718 168.606C179.19 168.566 178.641 168.545 178.072 168.545C177.395 168.545 176.82 168.627 176.346 168.789C175.872 168.938 175.486 169.222 175.188 169.642C174.89 170.048 174.674 170.631 174.538 171.389C174.403 172.134 174.335 173.102 174.335 174.293C174.335 175.499 174.396 176.487 174.518 177.259C174.653 178.017 174.863 178.606 175.148 179.026C175.432 179.432 175.811 179.717 176.285 179.879C176.759 180.028 177.348 180.102 178.052 180.102C179.068 180.102 179.9 180.075 180.55 180.021C181.2 179.967 181.728 179.913 182.135 179.859V181.423C181.728 181.517 181.282 181.605 180.794 181.687C180.307 181.768 179.792 181.829 179.25 181.87C178.722 181.91 178.181 181.93 177.626 181.93ZM187.619 181.93C186.604 181.93 185.812 181.66 185.243 181.118C184.688 180.563 184.41 179.723 184.41 178.599V170.942H186.441V178.051C186.441 178.863 186.624 179.412 186.99 179.696C187.369 179.981 187.897 180.123 188.574 180.123C189.116 180.123 189.63 180.042 190.118 179.879C190.619 179.703 191.106 179.466 191.58 179.168V170.942H193.611V181.809H191.986L191.58 180.651C191.052 180.989 190.443 181.287 189.752 181.545C189.075 181.802 188.364 181.93 187.619 181.93ZM200.209 181.93C199.925 181.93 199.586 181.924 199.194 181.91C198.801 181.897 198.395 181.87 197.975 181.829C197.569 181.802 197.19 181.768 196.837 181.727C196.499 181.687 196.228 181.639 196.025 181.585V180.366H200.595C200.988 180.366 201.326 180.339 201.611 180.285C201.895 180.218 202.112 180.082 202.261 179.879C202.423 179.676 202.504 179.378 202.504 178.985V178.538C202.504 178.132 202.369 177.814 202.098 177.584C201.827 177.354 201.38 177.239 200.758 177.239H199.173C198.537 177.239 197.968 177.157 197.467 176.995C196.98 176.819 196.594 176.528 196.309 176.121C196.039 175.715 195.903 175.167 195.903 174.476V173.887C195.903 173.197 196.032 172.628 196.289 172.181C196.56 171.734 196.986 171.402 197.569 171.186C198.151 170.956 198.923 170.841 199.884 170.841C200.29 170.841 200.737 170.861 201.225 170.901C201.726 170.929 202.213 170.969 202.687 171.023C203.161 171.077 203.54 171.138 203.825 171.206V172.425H199.519C198.923 172.425 198.462 172.526 198.137 172.729C197.826 172.933 197.67 173.318 197.67 173.887V174.293C197.67 174.645 197.745 174.916 197.894 175.106C198.043 175.295 198.252 175.417 198.523 175.471C198.808 175.526 199.139 175.553 199.519 175.553H201.143C202.173 175.553 202.951 175.796 203.479 176.284C204.007 176.758 204.271 177.428 204.271 178.295V179.128C204.271 179.859 204.102 180.427 203.764 180.834C203.425 181.24 202.951 181.524 202.342 181.687C201.746 181.849 201.035 181.93 200.209 181.93ZM210.344 181.809C209.613 181.809 209.003 181.693 208.516 181.463C208.042 181.22 207.69 180.834 207.46 180.306C207.243 179.777 207.142 179.073 207.155 178.193L207.236 172.608H205.51V171.287L207.277 170.942L207.582 167.895H209.186V170.942H212.131V172.608H209.186V178.173C209.186 178.593 209.227 178.931 209.308 179.188C209.389 179.446 209.504 179.642 209.653 179.777C209.802 179.913 209.965 180.014 210.141 180.082C210.317 180.136 210.486 180.17 210.649 180.184L211.989 180.306V181.809H210.344ZM218.611 181.93C217.785 181.93 217.067 181.842 216.458 181.666C215.862 181.49 215.368 181.199 214.975 180.793C214.583 180.373 214.292 179.805 214.102 179.087C213.912 178.369 213.818 177.462 213.818 176.365C213.818 175.228 213.912 174.3 214.102 173.583C214.292 172.851 214.583 172.283 214.975 171.876C215.368 171.47 215.869 171.193 216.478 171.044C217.088 170.881 217.799 170.8 218.611 170.8C219.424 170.8 220.134 170.881 220.744 171.044C221.353 171.206 221.854 171.49 222.247 171.897C222.64 172.303 222.931 172.872 223.12 173.603C223.31 174.321 223.405 175.241 223.405 176.365C223.405 177.476 223.31 178.396 223.12 179.128C222.931 179.845 222.64 180.407 222.247 180.813C221.868 181.22 221.373 181.511 220.764 181.687C220.155 181.849 219.437 181.93 218.611 181.93ZM218.611 180.265C219.058 180.265 219.451 180.224 219.789 180.143C220.141 180.062 220.432 179.893 220.663 179.635C220.893 179.364 221.069 178.965 221.191 178.437C221.313 177.909 221.373 177.211 221.373 176.345C221.373 175.478 221.313 174.788 221.191 174.273C221.069 173.745 220.893 173.352 220.663 173.095C220.432 172.838 220.141 172.669 219.789 172.587C219.451 172.493 219.058 172.445 218.611 172.445C218.151 172.445 217.745 172.493 217.392 172.587C217.054 172.669 216.77 172.838 216.539 173.095C216.323 173.352 216.153 173.745 216.032 174.273C215.923 174.788 215.869 175.478 215.869 176.345C215.869 177.211 215.923 177.909 216.032 178.437C216.153 178.965 216.323 179.364 216.539 179.635C216.77 179.893 217.054 180.062 217.392 180.143C217.745 180.224 218.151 180.265 218.611 180.265ZM225.886 181.809V170.942H227.511L227.917 172.12C228.445 171.755 229.028 171.436 229.664 171.165C230.3 170.895 231.032 170.759 231.858 170.759C232.535 170.759 233.11 170.908 233.584 171.206C234.058 171.504 234.417 171.883 234.661 172.344C234.985 172.1 235.378 171.856 235.839 171.612C236.299 171.369 236.793 171.165 237.321 171.003C237.849 170.841 238.357 170.759 238.845 170.759C239.657 170.759 240.314 170.929 240.815 171.267C241.329 171.592 241.695 172.046 241.912 172.628C242.142 173.197 242.257 173.847 242.257 174.578V181.809H240.226V174.74C240.226 174.307 240.138 173.935 239.962 173.623C239.799 173.298 239.562 173.048 239.251 172.872C238.953 172.696 238.587 172.608 238.154 172.608C237.612 172.608 237.057 172.716 236.489 172.933C235.92 173.136 235.398 173.386 234.925 173.684C234.979 173.86 235.019 174.043 235.046 174.232C235.074 174.409 235.087 174.585 235.087 174.761V181.809H233.056V174.74C233.056 174.307 232.968 173.935 232.792 173.623C232.629 173.298 232.399 173.048 232.101 172.872C231.803 172.696 231.438 172.608 231.004 172.608C230.598 172.608 230.219 172.648 229.867 172.729C229.529 172.811 229.204 172.926 228.892 173.075C228.581 173.21 228.256 173.379 227.917 173.583V181.809H225.886ZM249.333 181.93C248.182 181.93 247.261 181.761 246.57 181.423C245.893 181.084 245.406 180.515 245.108 179.717C244.823 178.904 244.681 177.787 244.681 176.365C244.681 174.916 244.823 173.792 245.108 172.994C245.406 172.181 245.893 171.612 246.57 171.287C247.247 170.962 248.161 170.8 249.312 170.8C250.314 170.8 251.12 170.908 251.729 171.125C252.352 171.328 252.806 171.7 253.09 172.242C253.388 172.77 253.537 173.508 253.537 174.456C253.537 175.119 253.402 175.648 253.131 176.04C252.873 176.433 252.501 176.717 252.014 176.893C251.54 177.069 250.971 177.157 250.307 177.157H246.712C246.726 177.943 246.814 178.572 246.976 179.046C247.152 179.507 247.457 179.845 247.89 180.062C248.337 180.265 248.987 180.366 249.84 180.366H253.232V181.585C252.65 181.666 252.054 181.741 251.445 181.809C250.836 181.89 250.131 181.93 249.333 181.93ZM246.692 175.878H250.125C250.666 175.878 251.066 175.776 251.323 175.573C251.58 175.37 251.709 174.998 251.709 174.456C251.709 173.914 251.628 173.488 251.465 173.176C251.316 172.865 251.066 172.641 250.714 172.506C250.362 172.371 249.894 172.303 249.312 172.303C248.649 172.303 248.121 172.404 247.728 172.608C247.349 172.811 247.078 173.17 246.915 173.684C246.767 174.199 246.692 174.93 246.692 175.878ZM256.016 181.809V170.942H257.58L258.047 172.77C258.507 172.215 259.022 171.748 259.591 171.369C260.159 170.989 260.823 170.8 261.581 170.8C261.757 170.8 261.926 170.813 262.089 170.841C262.251 170.854 262.407 170.881 262.556 170.922V173.014C262.366 172.987 262.17 172.966 261.967 172.953C261.764 172.926 261.554 172.912 261.337 172.912C260.877 172.912 260.464 172.966 260.098 173.075C259.733 173.183 259.381 173.352 259.042 173.583C258.717 173.799 258.385 174.07 258.047 174.395V181.809H256.016ZM67.4987 208.809V193.839H69.1642L76.4966 205.315V193.839H78.5277V208.809H76.8825L69.5501 197.333V208.809H67.4987ZM85.5037 208.93C84.3527 208.93 83.4319 208.761 82.7413 208.423C82.0643 208.084 81.5768 207.515 81.2789 206.717C80.9946 205.904 80.8524 204.787 80.8524 203.365C80.8524 201.916 80.9946 200.792 81.2789 199.994C81.5768 199.181 82.0643 198.612 82.7413 198.287C83.4184 197.962 84.3324 197.8 85.4834 197.8C86.4854 197.8 87.2911 197.908 87.9004 198.125C88.5233 198.328 88.9769 198.7 89.2613 199.242C89.5592 199.77 89.7081 200.508 89.7081 201.456C89.7081 202.119 89.5727 202.648 89.3019 203.04C89.0446 203.433 88.6722 203.717 88.1848 203.893C87.7108 204.069 87.1421 204.157 86.4786 204.157H82.8835C82.8971 204.943 82.9851 205.572 83.1476 206.046C83.3236 206.507 83.6283 206.845 84.0616 207.062C84.5084 207.265 85.1584 207.366 86.0115 207.366H89.4034V208.585C88.8212 208.666 88.2254 208.741 87.616 208.809C87.0067 208.89 86.3026 208.93 85.5037 208.93ZM82.8632 202.878H86.2958C86.8374 202.878 87.2369 202.776 87.4942 202.573C87.7515 202.37 87.8801 201.998 87.8801 201.456C87.8801 200.914 87.7988 200.488 87.6364 200.176C87.4874 199.865 87.2369 199.641 86.8848 199.506C86.5328 199.371 86.0656 199.303 85.4834 199.303C84.8199 199.303 84.2918 199.404 83.8991 199.608C83.5199 199.811 83.2491 200.17 83.0866 200.684C82.9377 201.199 82.8632 201.93 82.8632 202.878ZM96.4725 208.93C95.3216 208.93 94.4008 208.761 93.7102 208.423C93.0332 208.084 92.5457 207.515 92.2478 206.717C91.9634 205.904 91.8213 204.787 91.8213 203.365C91.8213 201.916 91.9634 200.792 92.2478 199.994C92.5457 199.181 93.0332 198.612 93.7102 198.287C94.3872 197.962 95.3013 197.8 96.4522 197.8C97.4542 197.8 98.2599 197.908 98.8693 198.125C99.4921 198.328 99.9458 198.7 100.23 199.242C100.528 199.77 100.677 200.508 100.677 201.456C100.677 202.119 100.542 202.648 100.271 203.04C100.013 203.433 99.6411 203.717 99.1536 203.893C98.6797 204.069 98.111 204.157 97.4475 204.157H93.8524C93.8659 204.943 93.9539 205.572 94.1164 206.046C94.2925 206.507 94.5971 206.845 95.0304 207.062C95.4773 207.265 96.1272 207.366 96.9803 207.366H100.372V208.585C99.79 208.666 99.1942 208.741 98.5849 208.809C97.9756 208.89 97.2714 208.93 96.4725 208.93ZM93.8321 202.878H97.2647C97.8063 202.878 98.2058 202.776 98.463 202.573C98.7203 202.37 98.849 201.998 98.849 201.456C98.849 200.914 98.7677 200.488 98.6052 200.176C98.4563 199.865 98.2058 199.641 97.8537 199.506C97.5016 199.371 97.0345 199.303 96.4522 199.303C95.7887 199.303 95.2606 199.404 94.8679 199.608C94.4888 199.811 94.218 200.17 94.0555 200.684C93.9065 201.199 93.8321 201.93 93.8321 202.878ZM106.69 208.93C105.81 208.93 105.079 208.741 104.496 208.362C103.928 207.983 103.501 207.394 103.217 206.595C102.932 205.782 102.79 204.74 102.79 203.467C102.79 202.126 102.919 201.043 103.176 200.217C103.447 199.377 103.88 198.768 104.476 198.389C105.072 197.996 105.877 197.8 106.893 197.8C107.462 197.8 108.024 197.861 108.579 197.983C109.148 198.105 109.642 198.24 110.062 198.389V193.311H112.093V208.809H110.427L110.062 207.732C109.845 207.922 109.547 208.111 109.168 208.301C108.789 208.477 108.382 208.626 107.949 208.748C107.516 208.87 107.096 208.93 106.69 208.93ZM107.34 207.265C107.895 207.265 108.396 207.177 108.843 207.001C109.303 206.825 109.709 206.642 110.062 206.452V199.851C109.642 199.729 109.229 199.621 108.823 199.526C108.43 199.418 107.99 199.364 107.502 199.364C106.866 199.364 106.351 199.479 105.959 199.709C105.566 199.939 105.282 200.346 105.106 200.928C104.93 201.51 104.842 202.323 104.842 203.365C104.842 204.327 104.923 205.098 105.085 205.681C105.248 206.249 105.512 206.656 105.877 206.899C106.257 207.143 106.744 207.265 107.34 207.265ZM118.677 208.93C118.392 208.93 118.054 208.924 117.661 208.91C117.268 208.897 116.862 208.87 116.442 208.829C116.036 208.802 115.657 208.768 115.305 208.727C114.966 208.687 114.696 208.639 114.492 208.585V207.366H119.062C119.455 207.366 119.794 207.339 120.078 207.285C120.362 207.218 120.579 207.082 120.728 206.879C120.89 206.676 120.972 206.378 120.972 205.985V205.538C120.972 205.132 120.836 204.814 120.565 204.584C120.295 204.354 119.848 204.239 119.225 204.239H117.641C117.004 204.239 116.436 204.157 115.935 203.995C115.447 203.819 115.061 203.528 114.777 203.121C114.506 202.715 114.371 202.167 114.371 201.476V200.887C114.371 200.197 114.499 199.628 114.756 199.181C115.027 198.734 115.454 198.402 116.036 198.186C116.618 197.956 117.39 197.841 118.352 197.841C118.758 197.841 119.205 197.861 119.692 197.901C120.193 197.929 120.681 197.969 121.155 198.023C121.628 198.077 122.008 198.138 122.292 198.206V199.425H117.986C117.39 199.425 116.93 199.526 116.605 199.729C116.293 199.933 116.138 200.318 116.138 200.887V201.293C116.138 201.645 116.212 201.916 116.361 202.106C116.51 202.295 116.72 202.417 116.991 202.471C117.275 202.526 117.607 202.553 117.986 202.553H119.611C120.64 202.553 121.419 202.796 121.947 203.284C122.475 203.758 122.739 204.428 122.739 205.295V206.128C122.739 206.859 122.57 207.427 122.231 207.834C121.892 208.24 121.419 208.524 120.809 208.687C120.213 208.849 119.503 208.93 118.677 208.93ZM130.733 196.114C130.49 196.114 130.368 195.999 130.368 195.769V194.063C130.368 193.819 130.49 193.697 130.733 193.697H132.236C132.345 193.697 132.426 193.731 132.48 193.799C132.534 193.866 132.561 193.954 132.561 194.063V195.769C132.561 195.999 132.453 196.114 132.236 196.114H130.733ZM130.449 208.809V197.942H132.48V208.809H130.449ZM135.328 208.809V197.942H136.953L137.36 199.12C137.847 198.768 138.423 198.457 139.086 198.186C139.763 197.901 140.46 197.759 141.178 197.759C141.991 197.759 142.64 197.935 143.128 198.287C143.629 198.626 143.988 199.08 144.204 199.648C144.421 200.217 144.529 200.833 144.529 201.497V208.809H142.498V201.74C142.498 201.307 142.41 200.935 142.234 200.623C142.072 200.298 141.842 200.048 141.544 199.872C141.246 199.696 140.88 199.608 140.447 199.608C140.041 199.608 139.662 199.648 139.309 199.729C138.971 199.811 138.646 199.926 138.334 200.075C138.023 200.21 137.698 200.379 137.36 200.583V208.809H135.328ZM156.096 208.89C155.758 208.89 155.399 208.863 155.02 208.809C154.64 208.741 154.275 208.612 153.923 208.423C153.584 208.22 153.307 207.915 153.09 207.509C152.873 207.102 152.765 206.554 152.765 205.863V196.967C152.765 196.371 152.853 195.87 153.029 195.464C153.219 195.058 153.462 194.74 153.76 194.509C154.058 194.266 154.39 194.096 154.756 194.002C155.135 193.893 155.507 193.839 155.873 193.839C156.753 193.853 157.558 193.873 158.29 193.9C159.034 193.914 159.725 193.934 160.361 193.961C160.998 193.988 161.607 194.015 162.189 194.042V195.728H156.421C155.92 195.728 155.527 195.857 155.243 196.114C154.959 196.371 154.816 196.778 154.816 197.333V200.44L161.275 200.562V202.147L154.816 202.289V205.356C154.816 205.816 154.891 206.161 155.04 206.392C155.202 206.622 155.405 206.777 155.649 206.859C155.906 206.94 156.177 206.981 156.462 206.981H162.189V208.666C161.567 208.707 160.91 208.748 160.219 208.788C159.529 208.815 158.831 208.836 158.127 208.849C157.437 208.876 156.76 208.89 156.096 208.89ZM167.548 208.809L163.608 197.942H165.7L168.767 206.92L171.895 197.942H173.987L169.905 208.809H167.548ZM179.642 208.93C178.491 208.93 177.57 208.761 176.879 208.423C176.202 208.084 175.715 207.515 175.417 206.717C175.132 205.904 174.99 204.787 174.99 203.365C174.99 201.916 175.132 200.792 175.417 199.994C175.715 199.181 176.202 198.612 176.879 198.287C177.556 197.962 178.47 197.8 179.621 197.8C180.623 197.8 181.429 197.908 182.038 198.125C182.661 198.328 183.115 198.7 183.399 199.242C183.697 199.77 183.846 200.508 183.846 201.456C183.846 202.119 183.711 202.648 183.44 203.04C183.182 203.433 182.81 203.717 182.323 203.893C181.849 204.069 181.28 204.157 180.616 204.157H177.021C177.035 204.943 177.123 205.572 177.285 206.046C177.461 206.507 177.766 206.845 178.199 207.062C178.646 207.265 179.296 207.366 180.149 207.366H183.541V208.585C182.959 208.666 182.363 208.741 181.754 208.809C181.145 208.89 180.44 208.93 179.642 208.93ZM177.001 202.878H180.434C180.975 202.878 181.375 202.776 181.632 202.573C181.889 202.37 182.018 201.998 182.018 201.456C182.018 200.914 181.937 200.488 181.774 200.176C181.625 199.865 181.375 199.641 181.023 199.506C180.671 199.371 180.203 199.303 179.621 199.303C178.958 199.303 178.43 199.404 178.037 199.608C177.658 199.811 177.387 200.17 177.225 200.684C177.076 201.199 177.001 201.93 177.001 202.878ZM186.325 208.809V197.942H187.889L188.356 199.77C188.816 199.215 189.331 198.748 189.9 198.369C190.468 197.989 191.132 197.8 191.89 197.8C192.066 197.8 192.235 197.813 192.398 197.841C192.56 197.854 192.716 197.881 192.865 197.922V200.014C192.675 199.987 192.479 199.966 192.276 199.953C192.073 199.926 191.863 199.912 191.646 199.912C191.186 199.912 190.773 199.966 190.407 200.075C190.042 200.183 189.69 200.352 189.351 200.583C189.026 200.799 188.694 201.07 188.356 201.395V208.809H186.325ZM197.842 213.622L199.162 208.809C198.728 208.795 198.315 208.707 197.923 208.545C197.53 208.369 197.178 208.091 196.867 207.712C196.569 207.319 196.325 206.798 196.135 206.148L193.698 197.942H195.831L198.024 205.721C198.146 206.087 198.282 206.364 198.431 206.554C198.593 206.744 198.749 206.879 198.898 206.96C199.06 207.028 199.202 207.069 199.324 207.082C199.446 207.096 199.521 207.102 199.548 207.102L202.087 197.942H204.179L200.441 211.612L199.466 213.622H197.842ZM215.724 208.93C215.399 208.93 215.027 208.917 214.607 208.89C214.201 208.876 213.781 208.849 213.348 208.809C212.928 208.768 212.522 208.727 212.129 208.687C211.75 208.646 211.425 208.592 211.154 208.524V206.94C211.506 206.967 211.926 206.994 212.413 207.021C212.914 207.048 213.443 207.069 213.998 207.082C214.566 207.096 215.115 207.102 215.643 207.102C216.225 207.102 216.74 207.048 217.187 206.94C217.647 206.832 218.006 206.629 218.263 206.331C218.534 206.033 218.669 205.613 218.669 205.071V204.198C218.669 203.589 218.5 203.121 218.162 202.796C217.837 202.471 217.336 202.309 216.658 202.309H215.135C213.835 202.309 212.826 202.025 212.109 201.456C211.405 200.887 211.053 199.912 211.053 198.531V197.719C211.053 196.283 211.438 195.261 212.21 194.652C212.996 194.029 214.106 193.717 215.541 193.717C216.015 193.717 216.523 193.744 217.065 193.799C217.606 193.839 218.134 193.893 218.649 193.961C219.164 194.029 219.59 194.096 219.929 194.164V195.748C219.319 195.708 218.635 195.667 217.877 195.627C217.132 195.572 216.428 195.545 215.765 195.545C215.196 195.545 214.702 195.613 214.282 195.748C213.876 195.87 213.558 196.094 213.327 196.419C213.111 196.744 213.002 197.204 213.002 197.8V198.409C213.002 199.14 213.199 199.648 213.591 199.933C213.984 200.217 214.533 200.359 215.237 200.359H216.882C217.735 200.359 218.432 200.515 218.974 200.826C219.529 201.138 219.942 201.564 220.213 202.106C220.484 202.648 220.619 203.264 220.619 203.954V205.01C220.619 206.067 220.403 206.879 219.969 207.448C219.536 208.016 218.954 208.409 218.222 208.626C217.491 208.829 216.658 208.93 215.724 208.93ZM226.916 208.809C226.185 208.809 225.576 208.693 225.088 208.463C224.614 208.22 224.262 207.834 224.032 207.306C223.815 206.777 223.714 206.073 223.727 205.193L223.809 199.608H222.082V198.287L223.849 197.942L224.154 194.895H225.759V197.942H228.704V199.608H225.759V205.173C225.759 205.593 225.799 205.931 225.88 206.188C225.962 206.446 226.077 206.642 226.226 206.777C226.375 206.913 226.537 207.014 226.713 207.082C226.889 207.136 227.058 207.17 227.221 207.184L228.562 207.306V208.809H226.916ZM235.041 208.93C233.89 208.93 232.97 208.761 232.279 208.423C231.602 208.084 231.114 207.515 230.817 206.717C230.532 205.904 230.39 204.787 230.39 203.365C230.39 201.916 230.532 200.792 230.817 199.994C231.114 199.181 231.602 198.612 232.279 198.287C232.956 197.962 233.87 197.8 235.021 197.8C236.023 197.8 236.829 197.908 237.438 198.125C238.061 198.328 238.515 198.7 238.799 199.242C239.097 199.77 239.246 200.508 239.246 201.456C239.246 202.119 239.11 202.648 238.839 203.04C238.582 203.433 238.21 203.717 237.722 203.893C237.248 204.069 236.68 204.157 236.016 204.157H232.421C232.435 204.943 232.523 205.572 232.685 206.046C232.861 206.507 233.166 206.845 233.599 207.062C234.046 207.265 234.696 207.366 235.549 207.366H238.941V208.585C238.359 208.666 237.763 208.741 237.154 208.809C236.544 208.89 235.84 208.93 235.041 208.93ZM232.401 202.878H235.833C236.375 202.878 236.775 202.776 237.032 202.573C237.289 202.37 237.418 201.998 237.418 201.456C237.418 200.914 237.336 200.488 237.174 200.176C237.025 199.865 236.775 199.641 236.422 199.506C236.07 199.371 235.603 199.303 235.021 199.303C234.357 199.303 233.829 199.404 233.437 199.608C233.058 199.811 232.787 200.17 232.624 200.684C232.475 201.199 232.401 201.93 232.401 202.878ZM241.724 213.622V197.942H243.39L243.756 199.039C244.013 198.849 244.318 198.66 244.67 198.47C245.035 198.281 245.428 198.125 245.848 198.003C246.281 197.868 246.714 197.8 247.148 197.8C247.838 197.8 248.427 197.942 248.915 198.226C249.416 198.511 249.822 198.91 250.133 199.425C250.445 199.926 250.668 200.515 250.804 201.192C250.953 201.869 251.027 202.593 251.027 203.365C251.027 204.57 250.892 205.593 250.621 206.432C250.364 207.258 249.951 207.888 249.382 208.321C248.827 208.741 248.082 208.951 247.148 208.951C246.579 208.951 245.997 208.87 245.401 208.707C244.805 208.531 244.257 208.301 243.756 208.016V213.622H241.724ZM246.538 207.245C246.999 207.245 247.412 207.13 247.777 206.899C248.143 206.669 248.434 206.276 248.651 205.721C248.881 205.153 248.996 204.367 248.996 203.365C248.996 202.417 248.881 201.659 248.651 201.09C248.42 200.508 248.123 200.095 247.757 199.851C247.391 199.594 246.992 199.465 246.559 199.465C245.99 199.465 245.469 199.553 244.995 199.729C244.534 199.905 244.121 200.088 243.756 200.278V206.473C244.175 206.703 244.622 206.893 245.096 207.042C245.584 207.177 246.064 207.245 246.538 207.245ZM253.649 208.829C253.419 208.829 253.303 208.714 253.303 208.484V206.717C253.303 206.473 253.419 206.351 253.649 206.351H254.807C255.05 206.351 255.172 206.473 255.172 206.717V208.484C255.172 208.605 255.138 208.693 255.071 208.748C255.003 208.802 254.915 208.829 254.807 208.829H253.649Z" fill="#3D4651"/>
<defs>
<filter id="filter0_d_6111_28525" x="11.6066" y="11.2148" width="307.848" height="294.092" filterUnits="userSpaceOnUse" color-interpolation-filters="sRGB">
<feFlood flood-opacity="0" result="BackgroundImageFix"/>
<feColorMatrix in="SourceAlpha" type="matrix" values="0 0 0 0 0 0 0 0 0 0 0 0 0 0 0 0 0 0 127 0" result="hardAlpha"/>
<feOffset/>
<feGaussianBlur stdDeviation="10.6681"/>
<feComposite in2="hardAlpha" operator="out"/>
<feColorMatrix type="matrix" values="0 0 0 0 0 0 0 0 0 0 0 0 0 0 0 0 0 0 0.25 0"/>
<feBlend mode="normal" in2="BackgroundImageFix" result="effect1_dropShadow_6111_28525"/>
<feBlend mode="normal" in="SourceGraphic" in2="effect1_dropShadow_6111_28525" result="shape"/>
</filter>
</defs>
</svg>
