<svg width="401" height="402" viewBox="0 0 401 402" fill="none" xmlns="http://www.w3.org/2000/svg">
<path d="M297.831 304.09L299.253 305.829L299.378 305.727L299.487 305.608L297.831 304.09ZM285.871 313.814L287.172 315.644L287.173 315.643L285.871 313.814ZM134.509 326.249L135.494 324.231L135.494 324.23L134.509 326.249ZM112.493 312.096L113.716 310.213L113.714 310.211L112.493 312.096ZM110.187 310.647L108.669 312.302L108.824 312.445L109.003 312.556L110.187 310.647ZM98.363 299.805L96.6399 301.246L96.7353 301.36L96.8451 301.46L98.363 299.805ZM88.8406 288.414L90.3585 286.759L87.0793 289.808L88.8406 288.414ZM88.8442 288.417L87.3263 290.073L90.6048 287.023L88.8442 288.417ZM66.9485 249.03L69.0574 248.257L69.0571 248.257L66.9485 249.03ZM64.5694 246.317L65.6166 244.33L65.6141 244.329L64.5694 246.317ZM9.87877 217.768L10.9157 215.776L10.8821 215.758L10.8479 215.742L9.87877 217.768ZM9.53307 217.59L8.52934 219.599L8.54647 219.608L8.56372 219.616L9.53307 217.59ZM8.25602 217.181L6.73812 218.836L7.10597 219.173L7.58209 219.323L8.25602 217.181ZM4.99616 214.192L2.97519 215.171L3.16222 215.557L3.47826 215.847L4.99616 214.192ZM4.59031 204.807L2.93497 203.289L2.64245 203.608L2.48944 204.013L4.59031 204.807ZM7.5821 201.544L6.39477 199.638L6.1342 199.8L5.92676 200.026L7.5821 201.544ZM8.82341 200.777L7.63868 198.869L7.63608 198.871L8.82341 200.777ZM25.5643 190.369L26.7624 192.269L26.7646 192.268L25.5643 190.369ZM60.6951 167.97L59.4785 166.082L59.4741 166.085L60.6951 167.97ZM63.4467 164.237L65.6107 164.838L65.6119 164.834L63.4467 164.237ZM89.4753 112.911L87.7304 111.497L87.723 111.506L89.4753 112.911ZM90.5732 111.037L88.9179 109.519L88.751 109.701L88.6276 109.915L90.5732 111.037ZM100.667 100.03L99.2195 98.3122L99.109 98.4053L99.0113 98.5118L100.667 100.03ZM113.328 89.4058L114.698 91.1855L114.699 91.185L113.328 89.4058ZM210.995 59.935L211.162 57.6953L211.162 57.6953L210.995 59.935ZM300.846 101.378L302.431 99.7864L302.431 99.786L300.846 101.378ZM321.399 274.287L323.313 275.463L323.313 275.462L321.399 274.287ZM310.916 289.821L312.571 291.339L312.683 291.217L312.775 291.081L310.916 289.821ZM297.831 304.09L299.487 305.608L302.758 302.041L301.103 300.523L299.447 299.005L296.176 302.573L297.831 304.09ZM307.645 293.388L309.3 294.906L312.571 291.339L310.916 289.821L309.261 288.303L305.989 291.87L307.645 293.388ZM310.916 289.821L312.775 291.081C313.643 289.799 314.526 288.524 315.416 287.242L313.572 285.961L311.727 284.679C310.835 285.964 309.94 287.257 309.057 288.561L310.916 289.821ZM318.873 278.233L320.746 279.474C321.62 278.155 322.479 276.82 323.313 275.463L321.399 274.287L319.486 273.111C318.685 274.415 317.854 275.706 317.001 276.993L318.873 278.233ZM321.399 274.287L323.313 275.462C324.008 274.33 324.686 273.19 325.345 272.044L323.398 270.924L321.452 269.804C320.813 270.914 320.158 272.017 319.485 273.112L321.399 274.287ZM327.099 264.043L329.106 265.05C330.298 262.675 331.417 260.273 332.465 257.849L330.403 256.958L328.342 256.067C327.328 258.413 326.244 260.738 325.091 263.036L327.099 264.043ZM333.299 249.698L335.408 250.471C336.321 247.98 337.161 245.469 337.928 242.941L335.779 242.289L333.63 241.636C332.887 244.083 332.074 246.514 331.19 248.926L333.299 249.698ZM337.84 234.748L340.022 235.28C340.649 232.704 341.203 230.114 341.685 227.515L339.476 227.106L337.268 226.697C336.802 229.215 336.265 231.723 335.658 234.217L337.84 234.748ZM340.686 219.385L342.914 219.671C343.251 217.043 343.516 214.409 343.708 211.771L341.468 211.608L339.228 211.445C339.042 214.001 338.786 216.553 338.458 219.099L340.686 219.385ZM341.823 203.8L344.068 203.84C344.116 201.193 344.091 198.546 343.995 195.903L341.75 195.985L339.506 196.067C339.6 198.629 339.623 201.194 339.577 203.76L341.823 203.8ZM341.252 188.185L343.489 187.981C343.248 185.345 342.936 182.717 342.553 180.098L340.331 180.423L338.108 180.749C338.48 183.287 338.783 185.834 339.016 188.389L341.252 188.185ZM338.988 172.724L341.189 172.278C340.664 169.685 340.068 167.106 339.402 164.543L337.228 165.109L335.055 165.674C335.7 168.157 336.278 170.657 336.787 173.169L338.988 172.724ZM335.055 157.601L337.194 156.918C336.389 154.398 335.515 151.899 334.571 149.424L332.472 150.224L330.374 151.024C331.288 153.422 332.136 155.843 332.915 158.285L335.055 157.601ZM329.487 143.002L331.538 142.086C330.461 139.672 329.315 137.285 328.102 134.927L326.105 135.955L324.108 136.983C325.283 139.266 326.393 141.578 327.436 143.917L329.487 143.002ZM322.333 129.109L324.27 127.97C322.931 125.693 321.525 123.449 320.053 121.241L318.184 122.487L316.316 123.733C317.74 125.87 319.101 128.042 320.397 130.247L322.333 129.109ZM313.666 116.109L315.461 114.759C313.874 112.649 312.222 110.577 310.506 108.548L308.791 109.998L307.076 111.448C308.737 113.412 310.335 115.417 311.871 117.459L313.666 116.109ZM303.579 104.178L305.209 102.632C304.298 101.673 303.372 100.724 302.431 99.7864L300.846 101.378L299.262 102.969C300.173 103.877 301.069 104.795 301.95 105.724L303.579 104.178ZM300.846 101.378L302.431 99.786C301.416 98.7767 300.393 97.7846 299.362 96.8099L297.819 98.4423L296.277 100.075C297.28 101.023 298.275 101.988 299.262 102.97L300.846 101.378ZM291.542 92.8202L292.994 91.1071C290.804 89.2504 288.578 87.4676 286.316 85.7592L284.962 87.5515L283.609 89.3438C285.803 91.0005 287.963 92.7304 290.09 94.5333L291.542 92.8202ZM278.092 82.6717L279.338 80.803C276.953 79.2134 274.531 77.7022 272.072 76.27L270.942 78.2108L269.812 80.1516C272.192 81.5377 274.536 83.0007 276.846 84.5404L278.092 82.6717ZM263.531 74.1966L264.539 72.1895C261.985 70.9071 259.394 69.7058 256.765 68.5861L255.885 70.6523L255.005 72.7186C257.547 73.8015 260.053 74.9633 262.523 76.2036L263.531 74.1966ZM248.032 67.5944L248.781 65.477C246.096 64.5276 243.376 63.6594 240.619 62.8728L240.003 65.0325L239.387 67.1923C242.055 67.9535 244.687 68.7935 247.283 69.7118L248.032 67.5944ZM231.833 62.9685L232.317 60.7754C229.547 60.1642 226.743 59.6318 223.906 59.1787L223.552 61.3966L223.197 63.6144C225.949 64.0537 228.666 64.5697 231.349 65.1617L231.833 62.9685ZM215.196 60.3057L215.424 58.0714C214.011 57.9271 212.591 57.8018 211.162 57.6953L210.995 59.935L210.828 62.1747C212.216 62.2782 213.596 62.4 214.968 62.54L215.196 60.3057ZM210.995 59.935L211.162 57.6953C209.899 57.6012 208.64 57.5224 207.385 57.4586L207.271 59.7017L207.157 61.9447C208.377 62.0066 209.6 62.0833 210.828 62.1747L210.995 59.935ZM199.813 59.5041L199.817 57.2582C197.276 57.2534 194.752 57.3124 192.246 57.4352L192.356 59.6785L192.466 61.9217C194.895 61.8027 197.343 61.7454 199.809 61.75L199.813 59.5041ZM184.918 60.2382L184.691 58.0039C182.166 58.2612 179.66 58.585 177.172 58.9751L177.521 61.1939L177.869 63.4127C180.275 63.0352 182.701 62.7218 185.146 62.4726L184.918 60.2382ZM170.186 62.5518L169.716 60.3556C167.24 60.885 164.783 61.4822 162.347 62.1468L162.938 64.3136L163.529 66.4803C165.885 65.8377 168.26 65.2602 170.655 64.7481L170.186 62.5518ZM155.799 66.4763L155.088 64.3458C152.693 65.1448 150.319 66.011 147.964 66.9441L148.792 69.032L149.619 71.1199C151.897 70.2173 154.194 69.3795 156.51 68.6068L155.799 66.4763ZM141.935 71.9689L140.995 69.9291C138.709 70.9823 136.444 72.1006 134.199 73.2835L135.246 75.2705L136.293 77.2574C138.468 76.1112 140.662 75.0283 142.875 74.0087L141.935 71.9689ZM128.74 78.9171L127.592 76.9867C125.436 78.2687 123.3 79.6124 121.183 81.0175L122.425 82.8886L123.668 84.7597C125.723 83.3952 127.796 82.0911 129.888 80.8475L128.74 78.9171ZM116.31 87.1626L114.98 85.3525C113.968 86.0961 112.961 86.8541 111.958 87.6267L113.328 89.4058L114.699 91.185C115.675 90.4332 116.655 89.6958 117.64 88.9727L116.31 87.1626ZM113.328 89.4058L111.958 87.6262C110.843 88.4849 109.749 89.3636 108.671 90.2525L110.1 91.9852L111.529 93.7179C112.577 92.8534 113.631 92.0071 114.698 91.1855L113.328 89.4058ZM103.808 97.345L102.342 95.6441C101.3 96.5425 100.263 97.4333 99.2195 98.3122L100.667 100.03L102.114 101.747C103.177 100.851 104.23 99.9469 105.275 99.0459L103.808 97.345ZM100.667 100.03L99.0113 98.5118L96.4879 101.264L98.1433 102.782L99.7986 104.299L102.322 101.548L100.667 100.03ZM93.0966 108.285L91.4412 106.767L88.9179 109.519L90.5732 111.037L92.2286 112.555L94.7519 109.803L93.0966 108.285ZM90.5732 111.037L88.6276 109.915C88.5142 110.112 88.4118 110.305 88.3241 110.472L90.3133 111.515L92.3025 112.557C92.3835 112.403 92.4521 112.275 92.5189 112.159L90.5732 111.037ZM89.7889 112.467L87.8851 111.276C87.8248 111.372 87.7739 111.443 87.7305 111.497L89.4753 112.911L91.2201 114.325C91.404 114.098 91.5597 113.871 91.6927 113.659L89.7889 112.467ZM89.4753 112.911L87.723 111.506C86.9538 112.465 86.1989 113.432 85.4582 114.406L87.2458 115.766L89.0334 117.125C89.7509 116.182 90.4822 115.245 91.2275 114.316L89.4753 112.911ZM83.0111 121.642L81.1555 120.377C79.769 122.41 78.4403 124.473 77.1689 126.565L79.0881 127.731L81.0073 128.898C82.238 126.873 83.5243 124.876 84.8667 122.908L83.0111 121.642ZM75.489 134.018L73.5114 132.953C72.3481 135.114 71.242 137.304 70.1926 139.522L72.2228 140.483L74.253 141.443C75.2694 139.295 76.3404 137.174 77.4667 135.082L75.489 134.018ZM69.2942 147.108L67.2176 146.252C66.2857 148.515 65.4092 150.805 64.5875 153.122L66.7042 153.873L68.821 154.623C69.618 152.376 70.4678 150.156 71.3709 147.963L69.2942 147.108ZM64.4498 160.756L62.2992 160.109C61.9468 161.28 61.6076 162.457 61.2815 163.64L63.4467 164.237L65.6119 164.834C65.9288 163.684 66.2582 162.54 66.6004 161.404L64.4498 160.756ZM63.4467 164.237L61.2826 163.636C61.2292 163.828 61.1409 164.055 61.0129 164.303L63.009 165.332L65.005 166.362C65.2524 165.882 65.4633 165.369 65.6107 164.838L63.4467 164.237ZM61.6117 167.227L60.0377 165.625C59.838 165.822 59.647 165.974 59.4785 166.082L60.6951 167.97L61.9116 169.858C62.3736 169.56 62.8011 169.208 63.1858 168.83L61.6117 167.227ZM60.6951 167.97L59.4741 166.085C58.5038 166.714 57.533 167.341 56.5615 167.968L57.7793 169.855L58.9971 171.742C59.9705 171.114 60.9435 170.485 61.916 169.855L60.6951 167.97ZM51.9389 173.612L50.7267 171.721C48.7798 172.969 46.8311 174.215 44.8808 175.459L46.0885 177.352L47.2962 179.246C49.2491 178 51.2008 176.753 53.1511 175.502L51.9389 173.612ZM40.2303 181.081L39.026 179.185C37.0732 180.425 35.1193 181.664 33.1645 182.903L34.3663 184.8L35.5682 186.697C37.5242 185.458 39.4798 184.218 41.4345 182.976L40.2303 181.081ZM28.4988 188.514L27.2982 186.615C26.3202 187.234 25.3422 187.852 24.364 188.471L25.5643 190.369L26.7646 192.268C27.7428 191.649 28.7211 191.03 29.6993 190.412L28.4988 188.514ZM25.5643 190.369L24.3662 188.47C22.9803 189.344 21.5915 190.214 20.2004 191.081L21.3888 192.987L22.5773 194.893C23.9734 194.022 25.3688 193.148 26.7624 192.269L25.5643 190.369ZM13.0126 198.182L11.8309 196.272C10.4338 197.136 9.03587 198.002 7.63868 198.869L8.82341 200.777L10.0081 202.685C11.4022 201.82 12.7976 200.956 14.1944 200.092L13.0126 198.182ZM8.82341 200.777L7.63608 198.871C7.53619 198.933 7.43544 198.995 7.33351 199.058L8.51331 200.969L9.69314 202.881C9.79826 202.816 9.90432 202.75 10.0107 202.684L8.82341 200.777ZM7.89217 201.352L6.71237 199.441C6.60723 199.506 6.50119 199.572 6.39477 199.638L7.5821 201.544L8.76943 203.451C8.86931 203.389 8.97005 203.326 9.07197 203.263L7.89217 201.352ZM7.5821 201.544L5.92676 200.026L5.17881 200.842L6.83415 202.36L8.48949 203.878L9.23744 203.062L7.5821 201.544ZM5.33826 203.991L3.68292 202.473L2.93497 203.289L4.59031 204.807L6.24566 206.325L6.9936 205.509L5.33826 203.991ZM4.59031 204.807L2.48944 204.013C2.14836 204.915 1.89401 205.827 1.73277 206.747L3.94498 207.135L6.15716 207.523C6.26667 206.898 6.44298 206.258 6.69119 205.601L4.59031 204.807ZM4.14883 211.93L1.97818 212.506C2.21838 213.411 2.55238 214.299 2.97519 215.171L4.99616 214.192L7.01714 213.212C6.71206 212.583 6.48158 211.963 6.31948 211.353L4.14883 211.93ZM4.99616 214.192L3.47826 215.847L4.29323 216.594L5.81113 214.939L7.32901 213.284L6.51404 212.536L4.99616 214.192ZM7.44105 216.433L5.92315 218.089L6.73812 218.836L8.25602 217.181L9.77389 215.525L8.95893 214.778L7.44105 216.433ZM8.25602 217.181L7.58209 219.323C7.73364 219.371 7.87762 219.411 7.99395 219.442L8.57871 217.273L9.16345 215.105C9.06302 215.078 8.99088 215.058 8.92992 215.038L8.25602 217.181ZM9.2234 217.461L8.47862 219.58C8.52021 219.594 8.53364 219.601 8.52934 219.599L9.53307 217.59L10.5368 215.581C10.3339 215.479 10.1399 215.402 9.96816 215.342L9.2234 217.461ZM9.53307 217.59L8.56372 219.616C8.56456 219.616 8.57062 219.619 8.58521 219.627L9.61997 217.633L10.6547 215.64C10.612 215.618 10.5603 215.592 10.5024 215.564L9.53307 217.59ZM9.79184 217.724L8.75721 219.718C8.79995 219.74 8.85171 219.766 8.90965 219.794L9.87877 217.768L10.8479 215.742C10.8471 215.741 10.8411 215.738 10.8265 215.731L9.79184 217.724ZM9.87877 217.768L8.84177 219.76C9.9819 220.353 11.122 220.947 12.2621 221.54L13.299 219.548L14.336 217.556C13.1959 216.962 12.0558 216.369 10.9157 215.776L9.87877 217.768ZM20.1396 223.109L19.1025 225.101C21.3826 226.288 23.6625 227.475 25.9422 228.662L26.9797 226.67L28.0171 224.678C25.7371 223.491 23.4569 222.304 21.1766 221.116L20.1396 223.109ZM33.8188 230.233L32.7807 232.225C35.0599 233.413 37.3388 234.602 39.6174 235.791L40.6565 233.8L41.6956 231.809C39.4163 230.619 37.1367 229.43 34.8569 228.242L33.8188 230.233ZM47.4922 237.37L46.4518 239.36C48.7295 240.55 51.0068 241.742 53.2835 242.934L54.3254 240.944L55.3672 238.955C53.0894 237.762 50.8111 236.57 48.5325 235.379L47.4922 237.37ZM61.1556 244.525L60.1119 246.513C61.2497 247.11 62.3873 247.708 63.5248 248.305L64.5694 246.317L65.6141 244.329C64.4759 243.731 63.3376 243.133 62.1993 242.536L61.1556 244.525ZM64.5694 246.317L63.5223 248.304C63.6257 248.359 63.7556 248.443 63.9006 248.563L65.3304 246.831L66.7601 245.099C66.4136 244.813 66.0297 244.548 65.6166 244.33L64.5694 246.317ZM66.5392 248.208L64.6357 249.4C64.7346 249.558 64.8005 249.696 64.8399 249.803L66.9485 249.03L69.0571 248.257C68.8952 247.815 68.6817 247.398 68.4426 247.016L66.5392 248.208ZM66.9485 249.03L64.8397 249.803C65.2792 251.002 65.7327 252.195 66.2001 253.38L68.2893 252.555L70.3785 251.731C69.9247 250.581 69.4844 249.423 69.0574 248.257L66.9485 249.03ZM71.2333 259.499L69.1886 260.428C70.2467 262.756 71.3629 265.053 72.5386 267.317L74.5318 266.281L76.5249 265.246C75.3859 263.053 74.304 260.827 73.278 258.57L71.2333 259.499ZM78.1859 272.879L76.2513 274.02C77.5475 276.218 78.9044 278.383 80.323 280.514L82.1925 279.269L84.0619 278.024C82.689 275.962 81.3755 273.867 80.1205 271.738L78.1859 272.879ZM86.5432 285.429L84.745 286.775C85.5091 287.796 86.2886 288.808 87.0836 289.812L88.8442 288.417L90.6048 287.023C89.8353 286.051 89.0809 285.072 88.3414 284.083L86.5432 285.429ZM88.8442 288.417L90.3621 286.762L90.3612 286.761L88.8433 288.417L87.3254 290.072L87.3263 290.073L88.8442 288.417ZM88.8415 288.415L90.3594 286.76L90.3585 286.759L88.8406 288.414L87.3227 290.07L87.3236 290.07L88.8415 288.415ZM88.8406 288.414L87.0793 289.808C87.8591 290.793 88.6505 291.766 89.4476 292.729L91.1779 291.298L92.9083 289.866C92.127 288.922 91.3569 287.975 90.6018 287.021L88.8406 288.414ZM95.9679 296.969L94.2569 298.424C95.0572 299.365 95.8525 300.304 96.6399 301.246L98.363 299.805L100.086 298.364C99.2865 297.408 98.4817 296.458 97.6789 295.514L95.9679 296.969ZM98.363 299.805L96.8451 301.46L99.801 304.171L101.319 302.515L102.837 300.86L99.8808 298.15L98.363 299.805ZM107.231 307.936L105.713 309.592L108.669 312.302L110.187 310.647L111.705 308.991L108.749 306.281L107.231 307.936ZM110.187 310.647L109.003 312.556C109.197 312.676 109.389 312.795 109.581 312.914L110.765 311.006L111.95 309.098C111.757 308.977 111.562 308.857 111.37 308.738L110.187 310.647ZM111.92 311.729L110.716 313.625C110.902 313.743 111.088 313.862 111.272 313.982L112.493 312.096L113.714 310.211C113.516 310.083 113.319 309.957 113.123 309.833L111.92 311.729ZM112.493 312.096L111.27 313.98C112.167 314.563 113.061 315.161 113.955 315.769L115.218 313.912L116.482 312.055C115.568 311.433 114.647 310.817 113.716 310.213L112.493 312.096ZM120.599 317.645L119.314 319.487C121.111 320.74 122.932 321.998 124.784 323.209L126.013 321.329L127.242 319.449C125.449 318.277 123.674 317.051 121.884 315.803L120.599 317.645ZM131.607 324.733L130.516 326.696C131.502 327.244 132.504 327.769 133.523 328.267L134.509 326.249L135.494 324.23C134.552 323.771 133.621 323.282 132.697 322.769L131.607 324.733ZM134.509 326.249L133.523 328.267C134.747 328.864 135.97 329.447 137.192 330.013L138.136 327.975L139.08 325.937C137.886 325.384 136.691 324.815 135.494 324.231L134.509 326.249ZM145.479 331.19L144.624 333.266C147.153 334.309 149.679 335.283 152.2 336.19L152.96 334.076L153.719 331.962C151.264 331.08 148.803 330.13 146.335 329.113L145.479 331.19ZM160.568 336.604L159.913 338.752C162.53 339.55 165.141 340.274 167.748 340.923L168.291 338.744L168.834 336.564C166.304 335.934 163.767 335.231 161.224 334.455L160.568 336.604ZM176.124 340.47L175.701 342.676C178.385 343.19 181.064 343.625 183.738 343.98L184.034 341.754L184.329 339.528C181.742 339.184 179.148 338.763 176.546 338.264L176.124 340.47ZM192.009 342.574L191.846 344.814C194.568 345.012 197.284 345.126 199.994 345.157L200.019 342.911L200.045 340.666C197.427 340.636 194.803 340.525 192.172 340.334L192.009 342.574ZM208.033 342.754L208.147 344.997C210.864 344.859 213.574 344.636 216.277 344.328L216.023 342.096L215.769 339.865C213.159 340.162 210.542 340.377 207.919 340.511L208.033 342.754ZM223.955 340.942L224.347 343.153C227.015 342.68 229.675 342.123 232.329 341.483L231.802 339.3L231.275 337.117C228.711 337.735 226.14 338.273 223.563 338.73L223.955 340.942ZM239.536 337.188L240.192 339.336C242.771 338.549 245.343 337.683 247.908 336.737L247.131 334.63L246.354 332.523C243.868 333.439 241.377 334.278 238.881 335.04L239.536 337.188ZM254.576 331.648L255.467 333.71C257.933 332.644 260.392 331.503 262.843 330.289L261.847 328.277L260.85 326.264C258.467 327.444 256.078 328.552 253.685 329.586L254.576 331.648ZM268.941 324.542L270.035 326.504C272.375 325.199 274.708 323.826 277.034 322.385L275.851 320.476L274.668 318.566C272.399 319.972 270.126 321.31 267.847 322.581L268.941 324.542ZM282.573 316.108L283.836 317.965C284.95 317.207 286.062 316.434 287.172 315.644L285.871 313.814L284.57 311.983C283.484 312.755 282.397 313.511 281.309 314.251L282.573 316.108ZM285.871 313.814L287.173 315.643C288.258 314.872 289.312 314.07 290.342 313.254L288.948 311.493L287.554 309.732C286.569 310.512 285.577 311.266 284.568 311.984L285.871 313.814ZM294.874 306.562L296.326 308.275C297.304 307.446 298.275 306.629 299.253 305.829L297.831 304.09L296.41 302.351C295.401 303.177 294.405 304.015 293.421 304.849L294.874 306.562Z" fill="#16A458"/>
<g filter="url(#filter0_d_6111_28575)">
<path d="M286.879 292.534C283.351 295.417 279.972 298.524 276.259 301.166C233.672 331.433 188.769 335.112 141.873 312.207C134.959 308.831 128.825 303.862 122.326 299.641C121.645 299.2 120.963 298.779 120.279 298.355L109.781 288.728C106.961 285.356 104.049 282.056 101.326 278.615L101.33 278.618C92.941 268.027 86.5358 256.329 81.8899 243.648C81.5419 242.699 80.669 241.709 79.7776 241.239C63.6128 232.746 47.4166 224.322 31.2203 215.892C31.1156 215.842 31.0174 215.784 30.9128 215.734C30.5671 215.562 30.1604 215.49 29.7794 215.371L26.8852 212.717C25.5631 209.99 25.4556 207.215 26.525 204.385L29.1815 201.488C29.5477 201.26 29.9179 201.035 30.2841 200.807C35.2395 197.73 40.2097 194.68 45.1465 191.566C55.5689 184.976 65.9885 178.382 76.3378 171.679C77.4256 170.978 78.4336 169.614 78.7806 168.365C83.3989 151.606 91.0012 136.375 101.89 122.795C102.289 122.302 102.544 121.689 102.865 121.131L111.827 111.358C115.569 108.205 119.195 104.906 123.068 101.925C148.644 82.2216 177.623 73.3647 209.782 75.7597C240.861 78.0761 267.492 90.598 289.556 112.555C330.053 152.876 337.679 217.407 307.804 266.073C304.903 270.792 301.607 275.272 298.496 279.864L286.879 292.534Z" fill="white"/>
</g>
<g clip-path="url(#clip0_6111_28575)">
<path d="M192.23 154.934C196.636 159.082 203.871 159.087 208.288 154.934C212.9 157.271 215.814 162.156 216.163 167.287C216.306 169.384 216.386 173.343 216.146 175.377C215.906 177.411 214.254 179.04 212.191 179.223C204.579 179.88 196.03 178.714 188.321 179.223C186.755 179.143 185.184 177.96 184.658 176.492C184.132 175.023 184.224 169.304 184.344 167.435C184.675 162.201 187.538 157.333 192.23 154.934Z" fill="#16A458"/>
<path d="M218.19 177.345C218.413 176.693 218.613 175.934 218.664 175.248C218.973 171.254 218.853 165.266 217.372 161.558L215.538 158.015C219.693 160.889 225.127 160.364 228.87 157.078C232.019 158.958 234.357 162.466 234.991 166.089C235.299 167.86 235.425 172.368 235.151 174.117C234.974 175.248 234.134 176.402 233.111 176.911C232.962 176.985 232.054 177.351 231.991 177.351H218.19V177.345Z" fill="#16A458"/>
<path d="M168.518 177.343C167.02 177.108 165.586 175.594 165.357 174.109C165.083 172.355 165.209 167.852 165.517 166.081C166.152 162.458 168.489 158.95 171.638 157.07C175.381 160.356 180.816 160.881 184.97 158.007C185.056 158.099 183.907 159.876 183.77 160.156C181.644 164.458 181.479 170.486 181.85 175.24C181.901 175.931 182.096 176.686 182.324 177.337H168.518V177.343Z" fill="#16A458"/>
<path d="M199.286 136.846C211.761 135.578 213.178 154.416 201.423 155.508C188.571 156.702 187.262 138.063 199.286 136.846Z" fill="#16A458"/>
<path d="M198.038 109.402C206.427 108.791 214.302 111.973 219.251 118.818C219.605 119.31 220.794 120.972 220.839 121.458C220.925 122.332 219.045 124.818 218.428 125.578C208.873 137.348 189.466 136.662 180.945 124.064C180.219 122.995 179.362 122.035 179.951 120.79C182.894 114.567 191.352 109.888 198.038 109.402ZM198.352 111.899C191.837 112.379 185.905 116.081 182.397 121.521C189.877 134.765 210.387 134.714 218.119 121.687C213.942 114.75 206.381 111.305 198.346 111.899H198.352Z" fill="#16A458"/>
<path d="M220.654 141.21C231.609 139.976 232.94 156.569 222.322 157.38C211.665 158.197 210.367 142.37 220.654 141.21Z" fill="#16A458"/>
<path d="M177.916 141.212C187.974 140.074 190.488 154.65 181.036 157.119C169.761 160.061 166.726 142.474 177.916 141.212Z" fill="#16A458"/>
<path d="M199.287 114.23C209.522 113.076 210.727 128.406 200.801 129.154C191.183 129.88 189.903 115.287 199.287 114.23Z" fill="#16A458"/>
</g>
<circle cx="114.03" cy="99.6415" r="25.2198" fill="white" stroke="#16A458" stroke-width="4.58543"/>
<path d="M109.391 109.263C108.87 109.262 108.365 109.081 107.962 108.751L101.222 103.229C100.3 102.429 100.182 101.04 100.956 100.096C101.729 99.1512 103.114 98.9931 104.08 99.7389L109.301 104.012L124.346 90.155C124.912 89.4825 125.816 89.1994 126.664 89.4294C127.512 89.6593 128.15 90.3605 128.298 91.2265C128.446 92.0925 128.079 92.9659 127.355 93.4649L110.926 108.661C110.51 109.05 109.961 109.266 109.391 109.263Z" fill="#16A458" stroke="#16A458" stroke-width="2.25681"/>
<path d="M110.815 214.441L115.812 199.472H118.412L123.408 214.441H121.275L119.955 210.521H114.227L112.928 214.441H110.815ZM114.715 208.673H119.447L117.091 201.259L114.715 208.673ZM128.242 214.462C127.578 214.462 127.016 214.347 126.556 214.116C126.109 213.886 125.77 213.521 125.54 213.02C125.324 212.505 125.215 211.814 125.215 210.948V198.944H127.246V210.684C127.246 211.253 127.3 211.693 127.409 212.004C127.531 212.302 127.693 212.512 127.896 212.634C128.113 212.756 128.363 212.837 128.648 212.877L129.663 212.999V214.462H128.242ZM134.331 214.462C133.667 214.462 133.106 214.347 132.645 214.116C132.198 213.886 131.86 213.521 131.63 213.02C131.413 212.505 131.305 211.814 131.305 210.948V198.944H133.336V210.684C133.336 211.253 133.39 211.693 133.498 212.004C133.62 212.302 133.783 212.512 133.986 212.634C134.202 212.756 134.453 212.837 134.737 212.877L135.753 212.999V214.462H134.331ZM146.547 214.441C145.816 214.441 145.206 214.326 144.719 214.096C144.245 213.852 143.893 213.466 143.663 212.938C143.446 212.41 143.344 211.706 143.358 210.826L143.439 205.24H141.713V203.92L143.48 203.575L143.784 200.528H145.389V203.575H148.334V205.24H145.389V210.806C145.389 211.225 145.43 211.564 145.511 211.821C145.592 212.079 145.707 212.275 145.856 212.41C146.005 212.546 146.168 212.647 146.344 212.715C146.52 212.769 146.689 212.803 146.851 212.817L148.192 212.938V214.441H146.547ZM154.672 214.563C153.521 214.563 152.6 214.394 151.909 214.055C151.232 213.717 150.745 213.148 150.447 212.349C150.163 211.537 150.02 210.42 150.02 208.998C150.02 207.549 150.163 206.425 150.447 205.626C150.745 204.814 151.232 204.245 151.909 203.92C152.586 203.595 153.5 203.433 154.651 203.433C155.653 203.433 156.459 203.541 157.068 203.758C157.691 203.961 158.145 204.333 158.429 204.875C158.727 205.403 158.876 206.141 158.876 207.089C158.876 207.752 158.741 208.28 158.47 208.673C158.213 209.066 157.84 209.35 157.353 209.526C156.879 209.702 156.31 209.79 155.647 209.79H152.052C152.065 210.575 152.153 211.205 152.316 211.679C152.492 212.139 152.796 212.478 153.23 212.695C153.676 212.898 154.326 212.999 155.18 212.999H158.572V214.218C157.989 214.299 157.393 214.374 156.784 214.441C156.175 214.523 155.471 214.563 154.672 214.563ZM152.031 208.511H155.464C156.006 208.511 156.405 208.409 156.662 208.206C156.92 208.003 157.048 207.63 157.048 207.089C157.048 206.547 156.967 206.121 156.804 205.809C156.655 205.498 156.405 205.274 156.053 205.139C155.701 205.003 155.234 204.936 154.651 204.936C153.988 204.936 153.46 205.037 153.067 205.24C152.688 205.444 152.417 205.802 152.255 206.317C152.106 206.831 152.031 207.563 152.031 208.511ZM163.528 214.563C162.729 214.563 162.066 214.326 161.538 213.852C161.023 213.365 160.766 212.695 160.766 211.842V210.988C160.766 210.149 161.05 209.465 161.619 208.937C162.201 208.395 163.075 208.125 164.239 208.125H167.631V206.987C167.631 206.567 167.557 206.215 167.408 205.931C167.272 205.633 167.015 205.41 166.636 205.261C166.257 205.112 165.695 205.037 164.95 205.037H161.619V203.839C162.106 203.731 162.675 203.636 163.325 203.555C163.989 203.473 164.76 203.426 165.641 203.412C166.534 203.412 167.279 203.527 167.875 203.758C168.484 203.974 168.938 204.34 169.236 204.854C169.534 205.356 169.683 206.026 169.683 206.865V214.441H168.078L167.733 213.243C167.651 213.297 167.482 213.399 167.225 213.548C166.968 213.683 166.636 213.832 166.23 213.995C165.837 214.157 165.404 214.292 164.93 214.401C164.469 214.509 164.002 214.563 163.528 214.563ZM164.463 213.081C164.666 213.094 164.903 213.074 165.173 213.02C165.458 212.965 165.735 212.905 166.006 212.837C166.291 212.756 166.548 212.674 166.778 212.593C167.022 212.512 167.218 212.444 167.367 212.39C167.53 212.322 167.618 212.282 167.631 212.268V209.14L164.788 209.262C164.083 209.303 163.576 209.479 163.264 209.79C162.966 210.102 162.817 210.508 162.817 211.009V211.496C162.817 211.889 162.899 212.207 163.061 212.451C163.224 212.681 163.427 212.844 163.67 212.938C163.928 213.033 164.192 213.081 164.463 213.081ZM172.443 214.441V203.575H174.068L174.474 204.753C175.002 204.387 175.584 204.069 176.221 203.798C176.857 203.527 177.588 203.392 178.414 203.392C179.091 203.392 179.667 203.541 180.141 203.839C180.615 204.137 180.974 204.516 181.217 204.976C181.542 204.733 181.935 204.489 182.395 204.245C182.856 204.001 183.35 203.798 183.878 203.636C184.406 203.473 184.914 203.392 185.401 203.392C186.214 203.392 186.871 203.561 187.372 203.9C187.886 204.225 188.252 204.678 188.468 205.261C188.699 205.829 188.814 206.479 188.814 207.211V214.441H186.783V207.373C186.783 206.94 186.695 206.567 186.519 206.256C186.356 205.931 186.119 205.68 185.808 205.504C185.51 205.328 185.144 205.24 184.711 205.24C184.169 205.24 183.614 205.349 183.045 205.565C182.477 205.769 181.955 206.019 181.481 206.317C181.535 206.493 181.576 206.676 181.603 206.865C181.63 207.041 181.644 207.217 181.644 207.393V214.441H179.613V207.373C179.613 206.94 179.525 206.567 179.349 206.256C179.186 205.931 178.956 205.68 178.658 205.504C178.36 205.328 177.995 205.24 177.561 205.24C177.155 205.24 176.776 205.281 176.424 205.362C176.085 205.444 175.76 205.559 175.449 205.708C175.137 205.843 174.812 206.012 174.474 206.215V214.441H172.443ZM195.402 214.563C195.117 214.563 194.779 214.557 194.386 214.543C193.994 214.529 193.587 214.502 193.168 214.462C192.761 214.435 192.382 214.401 192.03 214.36C191.692 214.32 191.421 214.272 191.218 214.218V212.999H195.788C196.18 212.999 196.519 212.972 196.803 212.918C197.088 212.85 197.304 212.715 197.453 212.512C197.616 212.309 197.697 212.011 197.697 211.618V211.171C197.697 210.765 197.562 210.447 197.291 210.217C197.02 209.986 196.573 209.871 195.95 209.871H194.366C193.73 209.871 193.161 209.79 192.66 209.628C192.172 209.452 191.786 209.16 191.502 208.754C191.231 208.348 191.096 207.8 191.096 207.109V206.52C191.096 205.829 191.224 205.261 191.482 204.814C191.753 204.367 192.179 204.035 192.761 203.819C193.344 203.588 194.115 203.473 195.077 203.473C195.483 203.473 195.93 203.494 196.417 203.534C196.918 203.561 197.406 203.602 197.88 203.656C198.354 203.71 198.733 203.771 199.017 203.839V205.058H194.711C194.115 205.058 193.655 205.159 193.33 205.362C193.019 205.565 192.863 205.951 192.863 206.52V206.926C192.863 207.278 192.937 207.549 193.086 207.739C193.235 207.928 193.445 208.05 193.716 208.104C194 208.158 194.332 208.186 194.711 208.186H196.336C197.365 208.186 198.144 208.429 198.672 208.917C199.2 209.391 199.464 210.061 199.464 210.928V211.76C199.464 212.492 199.295 213.06 198.956 213.466C198.618 213.873 198.144 214.157 197.535 214.32C196.939 214.482 196.228 214.563 195.402 214.563ZM202.287 216.107C202.111 216.107 201.955 216.087 201.82 216.046C201.698 216.019 201.637 216.005 201.637 216.005V215.376C201.799 215.376 201.914 215.349 201.982 215.294C202.063 215.24 202.104 215.146 202.104 215.01V214.32H201.921C201.826 214.32 201.745 214.286 201.678 214.218C201.61 214.15 201.576 214.055 201.576 213.934V212.39C201.576 212.119 201.691 211.984 201.921 211.984H203.059C203.194 211.984 203.282 212.024 203.323 212.106C203.377 212.173 203.404 212.268 203.404 212.39V214.949C203.404 215.274 203.343 215.518 203.221 215.68C203.113 215.856 202.971 215.972 202.795 216.026C202.619 216.08 202.449 216.107 202.287 216.107ZM215.867 214.563C215.041 214.563 214.323 214.475 213.714 214.299C213.118 214.123 212.624 213.832 212.231 213.426C211.838 213.006 211.547 212.437 211.358 211.72C211.168 211.002 211.073 210.095 211.073 208.998C211.073 207.861 211.168 206.933 211.358 206.215C211.547 205.484 211.838 204.915 212.231 204.509C212.624 204.103 213.125 203.825 213.734 203.676C214.343 203.514 215.054 203.433 215.867 203.433C216.679 203.433 217.39 203.514 217.999 203.676C218.609 203.839 219.11 204.123 219.502 204.53C219.895 204.936 220.186 205.504 220.376 206.236C220.565 206.953 220.66 207.874 220.66 208.998C220.66 210.108 220.565 211.029 220.376 211.76C220.186 212.478 219.895 213.04 219.502 213.446C219.123 213.852 218.629 214.144 218.02 214.32C217.41 214.482 216.693 214.563 215.867 214.563ZM215.867 212.898C216.314 212.898 216.706 212.857 217.045 212.776C217.397 212.695 217.688 212.525 217.918 212.268C218.148 211.997 218.324 211.598 218.446 211.07C218.568 210.542 218.629 209.844 218.629 208.978C218.629 208.111 218.568 207.42 218.446 206.906C218.324 206.378 218.148 205.985 217.918 205.728C217.688 205.471 217.397 205.301 217.045 205.22C216.706 205.125 216.314 205.078 215.867 205.078C215.406 205.078 215 205.125 214.648 205.22C214.309 205.301 214.025 205.471 213.795 205.728C213.578 205.985 213.409 206.378 213.287 206.906C213.179 207.42 213.125 208.111 213.125 208.978C213.125 209.844 213.179 210.542 213.287 211.07C213.409 211.598 213.578 211.997 213.795 212.268C214.025 212.525 214.309 212.695 214.648 212.776C215 212.857 215.406 212.898 215.867 212.898ZM223.142 214.441V203.575H224.767L225.173 204.753C225.66 204.401 226.236 204.089 226.899 203.819C227.576 203.534 228.274 203.392 228.991 203.392C229.804 203.392 230.454 203.568 230.941 203.92C231.442 204.259 231.801 204.712 232.018 205.281C232.234 205.85 232.343 206.466 232.343 207.129V214.441H230.311V207.373C230.311 206.94 230.223 206.567 230.047 206.256C229.885 205.931 229.655 205.68 229.357 205.504C229.059 205.328 228.693 205.24 228.26 205.24C227.854 205.24 227.475 205.281 227.123 205.362C226.784 205.444 226.459 205.559 226.148 205.708C225.836 205.843 225.511 206.012 225.173 206.215V214.441H223.142ZM239.408 214.563C238.257 214.563 237.336 214.394 236.645 214.055C235.968 213.717 235.481 213.148 235.183 212.349C234.899 211.537 234.756 210.42 234.756 208.998C234.756 207.549 234.899 206.425 235.183 205.626C235.481 204.814 235.968 204.245 236.645 203.92C237.322 203.595 238.236 203.433 239.387 203.433C240.389 203.433 241.195 203.541 241.804 203.758C242.427 203.961 242.881 204.333 243.165 204.875C243.463 205.403 243.612 206.141 243.612 207.089C243.612 207.752 243.477 208.28 243.206 208.673C242.949 209.066 242.576 209.35 242.089 209.526C241.615 209.702 241.046 209.79 240.383 209.79H236.788C236.801 210.575 236.889 211.205 237.052 211.679C237.228 212.139 237.532 212.478 237.966 212.695C238.412 212.898 239.062 212.999 239.916 212.999H243.308V214.218C242.725 214.299 242.129 214.374 241.52 214.441C240.911 214.523 240.207 214.563 239.408 214.563ZM236.767 208.511H240.2C240.742 208.511 241.141 208.409 241.398 208.206C241.656 208.003 241.784 207.63 241.784 207.089C241.784 206.547 241.703 206.121 241.54 205.809C241.391 205.498 241.141 205.274 240.789 205.139C240.437 205.003 239.97 204.936 239.387 204.936C238.724 204.936 238.196 205.037 237.803 205.24C237.424 205.444 237.153 205.802 236.991 206.317C236.842 206.831 236.767 207.563 236.767 208.511ZM254.35 214.441L250.41 203.575H252.502L255.569 212.552L258.697 203.575H260.789L256.706 214.441H254.35ZM262.839 201.747C262.595 201.747 262.473 201.632 262.473 201.402V199.695C262.473 199.452 262.595 199.33 262.839 199.33H264.342C264.45 199.33 264.531 199.364 264.585 199.431C264.639 199.499 264.667 199.587 264.667 199.695V201.402C264.667 201.632 264.558 201.747 264.342 201.747H262.839ZM262.554 214.441V203.575H264.585V214.441H262.554ZM271.719 214.563C270.568 214.563 269.648 214.394 268.957 214.055C268.28 213.717 267.792 213.148 267.495 212.349C267.21 211.537 267.068 210.42 267.068 208.998C267.068 207.549 267.21 206.425 267.495 205.626C267.792 204.814 268.28 204.245 268.957 203.92C269.634 203.595 270.548 203.433 271.699 203.433C272.701 203.433 273.507 203.541 274.116 203.758C274.739 203.961 275.193 204.333 275.477 204.875C275.775 205.403 275.924 206.141 275.924 207.089C275.924 207.752 275.788 208.28 275.517 208.673C275.26 209.066 274.888 209.35 274.4 209.526C273.926 209.702 273.358 209.79 272.694 209.79H269.099C269.113 210.575 269.201 211.205 269.363 211.679C269.539 212.139 269.844 212.478 270.277 212.695C270.724 212.898 271.374 212.999 272.227 212.999H275.619V214.218C275.037 214.299 274.441 214.374 273.832 214.441C273.222 214.523 272.518 214.563 271.719 214.563ZM269.079 208.511H272.511C273.053 208.511 273.453 208.409 273.71 208.206C273.967 208.003 274.096 207.63 274.096 207.089C274.096 206.547 274.014 206.121 273.852 205.809C273.703 205.498 273.453 205.274 273.1 205.139C272.748 205.003 272.281 204.936 271.699 204.936C271.035 204.936 270.507 205.037 270.115 205.24C269.736 205.444 269.465 205.802 269.302 206.317C269.153 206.831 269.079 207.563 269.079 208.511ZM280.296 214.441L277.128 203.575H279.22L281.596 212.552L284.155 203.575H285.882L288.441 212.552L290.716 203.575H292.808L289.68 214.441H287.425L284.988 206.378L282.51 214.441H280.296ZM110.218 236.404V234.718H124.354V236.404H110.218ZM130.308 241.563C129.672 241.563 129.083 241.482 128.541 241.32C128.013 241.144 127.546 240.852 127.14 240.446C126.747 240.04 126.442 239.478 126.226 238.76C126.009 238.043 125.901 237.135 125.901 236.039C125.901 234.915 126.002 233.994 126.206 233.276C126.409 232.545 126.7 231.976 127.079 231.57C127.472 231.15 127.946 230.859 128.501 230.697C129.056 230.534 129.679 230.453 130.369 230.453C130.938 230.453 131.534 230.48 132.157 230.534C132.793 230.588 133.409 230.676 134.005 230.798V231.997H130.938C130.275 231.997 129.719 232.105 129.273 232.322C128.826 232.525 128.494 232.924 128.277 233.52C128.061 234.102 127.952 234.949 127.952 236.059C127.952 237.129 128.067 237.955 128.298 238.537C128.528 239.106 128.86 239.492 129.293 239.695C129.74 239.898 130.295 239.999 130.958 239.999H134.168V241.157C133.856 241.238 133.484 241.313 133.05 241.38C132.631 241.435 132.184 241.475 131.71 241.502C131.249 241.543 130.782 241.563 130.308 241.563ZM139.413 241.563C138.397 241.563 137.605 241.292 137.036 240.751C136.481 240.196 136.203 239.356 136.203 238.232V230.575H138.235V237.684C138.235 238.496 138.417 239.045 138.783 239.329C139.162 239.613 139.69 239.756 140.367 239.756C140.909 239.756 141.423 239.674 141.911 239.512C142.412 239.336 142.899 239.099 143.373 238.801V230.575H145.404V241.441H143.78L143.373 240.284C142.845 240.622 142.236 240.92 141.545 241.177C140.868 241.435 140.157 241.563 139.413 241.563ZM152.002 241.563C151.718 241.563 151.38 241.557 150.987 241.543C150.594 241.529 150.188 241.502 149.768 241.462C149.362 241.435 148.983 241.401 148.631 241.36C148.292 241.32 148.021 241.272 147.818 241.218V239.999H152.388C152.781 239.999 153.12 239.972 153.404 239.918C153.688 239.85 153.905 239.715 154.054 239.512C154.216 239.309 154.298 239.011 154.298 238.618V238.171C154.298 237.765 154.162 237.447 153.891 237.217C153.621 236.986 153.174 236.871 152.551 236.871H150.967C150.33 236.871 149.761 236.79 149.26 236.628C148.773 236.452 148.387 236.16 148.103 235.754C147.832 235.348 147.696 234.8 147.696 234.109V233.52C147.696 232.829 147.825 232.261 148.082 231.814C148.353 231.367 148.78 231.035 149.362 230.819C149.944 230.588 150.716 230.473 151.677 230.473C152.084 230.473 152.53 230.494 153.018 230.534C153.519 230.561 154.006 230.602 154.48 230.656C154.954 230.71 155.333 230.771 155.618 230.839V232.058H151.312C150.716 232.058 150.256 232.159 149.931 232.362C149.619 232.565 149.463 232.951 149.463 233.52V233.926C149.463 234.278 149.538 234.549 149.687 234.739C149.836 234.928 150.046 235.05 150.317 235.104C150.601 235.158 150.933 235.186 151.312 235.186H152.937C153.966 235.186 154.744 235.429 155.273 235.917C155.801 236.391 156.065 237.061 156.065 237.928V238.76C156.065 239.492 155.895 240.06 155.557 240.466C155.218 240.873 154.744 241.157 154.135 241.32C153.539 241.482 152.828 241.563 152.002 241.563ZM162.137 241.441C161.406 241.441 160.797 241.326 160.309 241.096C159.835 240.852 159.483 240.466 159.253 239.938C159.036 239.41 158.935 238.706 158.948 237.826L159.03 232.24H157.303V230.92L159.07 230.575L159.375 227.528H160.979V230.575H163.925V232.24H160.979V237.806C160.979 238.225 161.02 238.564 161.101 238.821C161.183 239.079 161.298 239.275 161.447 239.41C161.596 239.546 161.758 239.647 161.934 239.715C162.11 239.769 162.279 239.803 162.442 239.817L163.782 239.938V241.441H162.137ZM170.404 241.563C169.578 241.563 168.861 241.475 168.251 241.299C167.656 241.123 167.161 240.832 166.769 240.426C166.376 240.006 166.085 239.437 165.895 238.72C165.706 238.002 165.611 237.095 165.611 235.998C165.611 234.861 165.706 233.933 165.895 233.215C166.085 232.484 166.376 231.915 166.769 231.509C167.161 231.103 167.662 230.825 168.272 230.676C168.881 230.514 169.592 230.433 170.404 230.433C171.217 230.433 171.928 230.514 172.537 230.676C173.146 230.839 173.647 231.123 174.04 231.53C174.433 231.936 174.724 232.504 174.913 233.236C175.103 233.953 175.198 234.874 175.198 235.998C175.198 237.108 175.103 238.029 174.913 238.76C174.724 239.478 174.433 240.04 174.04 240.446C173.661 240.852 173.167 241.144 172.557 241.32C171.948 241.482 171.23 241.563 170.404 241.563ZM170.404 239.898C170.851 239.898 171.244 239.857 171.582 239.776C171.935 239.695 172.226 239.525 172.456 239.268C172.686 238.997 172.862 238.598 172.984 238.07C173.106 237.542 173.167 236.844 173.167 235.978C173.167 235.111 173.106 234.42 172.984 233.906C172.862 233.378 172.686 232.985 172.456 232.728C172.226 232.471 171.935 232.301 171.582 232.22C171.244 232.125 170.851 232.078 170.404 232.078C169.944 232.078 169.538 232.125 169.186 232.22C168.847 232.301 168.563 232.471 168.333 232.728C168.116 232.985 167.947 233.378 167.825 233.906C167.717 234.42 167.662 235.111 167.662 235.978C167.662 236.844 167.717 237.542 167.825 238.07C167.947 238.598 168.116 238.997 168.333 239.268C168.563 239.525 168.847 239.695 169.186 239.776C169.538 239.857 169.944 239.898 170.404 239.898ZM177.679 241.441V230.575H179.304L179.71 231.753C180.239 231.387 180.821 231.069 181.457 230.798C182.094 230.527 182.825 230.392 183.651 230.392C184.328 230.392 184.903 230.541 185.377 230.839C185.851 231.137 186.21 231.516 186.454 231.976C186.779 231.733 187.171 231.489 187.632 231.245C188.092 231.001 188.586 230.798 189.115 230.636C189.643 230.473 190.15 230.392 190.638 230.392C191.45 230.392 192.107 230.561 192.608 230.9C193.123 231.225 193.488 231.678 193.705 232.261C193.935 232.829 194.05 233.479 194.05 234.211V241.441H192.019V234.373C192.019 233.94 191.931 233.567 191.755 233.256C191.593 232.931 191.356 232.68 191.044 232.504C190.746 232.328 190.381 232.24 189.947 232.24C189.406 232.24 188.85 232.349 188.282 232.565C187.713 232.769 187.192 233.019 186.718 233.317C186.772 233.493 186.813 233.676 186.84 233.865C186.867 234.041 186.88 234.217 186.88 234.393V241.441H184.849V234.373C184.849 233.94 184.761 233.567 184.585 233.256C184.423 232.931 184.192 232.68 183.895 232.504C183.597 232.328 183.231 232.24 182.798 232.24C182.392 232.24 182.012 232.281 181.66 232.362C181.322 232.444 180.997 232.559 180.685 232.708C180.374 232.843 180.049 233.012 179.71 233.215V241.441H177.679ZM201.126 241.563C199.975 241.563 199.054 241.394 198.363 241.055C197.686 240.717 197.199 240.148 196.901 239.349C196.617 238.537 196.475 237.42 196.475 235.998C196.475 234.549 196.617 233.425 196.901 232.626C197.199 231.814 197.686 231.245 198.363 230.92C199.041 230.595 199.955 230.433 201.105 230.433C202.107 230.433 202.913 230.541 203.523 230.758C204.145 230.961 204.599 231.333 204.883 231.875C205.181 232.403 205.33 233.141 205.33 234.089C205.33 234.752 205.195 235.28 204.924 235.673C204.667 236.066 204.294 236.35 203.807 236.526C203.333 236.702 202.764 236.79 202.101 236.79H198.506C198.519 237.575 198.607 238.205 198.77 238.679C198.946 239.139 199.25 239.478 199.684 239.695C200.131 239.898 200.78 239.999 201.634 239.999H205.026V241.218C204.443 241.299 203.847 241.374 203.238 241.441C202.629 241.523 201.925 241.563 201.126 241.563ZM198.485 235.511H201.918C202.46 235.511 202.859 235.409 203.116 235.206C203.374 235.003 203.502 234.63 203.502 234.089C203.502 233.547 203.421 233.121 203.258 232.809C203.11 232.498 202.859 232.274 202.507 232.139C202.155 232.003 201.688 231.936 201.105 231.936C200.442 231.936 199.914 232.037 199.521 232.24C199.142 232.444 198.871 232.802 198.709 233.317C198.56 233.831 198.485 234.563 198.485 235.511ZM207.809 241.441V230.575H209.373L209.84 232.403C210.301 231.848 210.815 231.381 211.384 231.001C211.952 230.622 212.616 230.433 213.374 230.433C213.55 230.433 213.72 230.446 213.882 230.473C214.045 230.487 214.2 230.514 214.349 230.555V232.647C214.16 232.62 213.963 232.599 213.76 232.586C213.557 232.559 213.347 232.545 213.131 232.545C212.67 232.545 212.257 232.599 211.892 232.708C211.526 232.816 211.174 232.985 210.835 233.215C210.51 233.432 210.179 233.703 209.84 234.028V241.441H207.809ZM221.938 228.747C221.695 228.747 221.573 228.632 221.573 228.402V226.695C221.573 226.452 221.695 226.33 221.938 226.33H223.441C223.55 226.33 223.631 226.364 223.685 226.431C223.739 226.499 223.766 226.587 223.766 226.695V228.402C223.766 228.632 223.658 228.747 223.441 228.747H221.938ZM221.654 241.441V230.575H223.685V241.441H221.654ZM226.533 241.441V230.575H228.158L228.565 231.753C229.052 231.401 229.627 231.089 230.291 230.819C230.968 230.534 231.665 230.392 232.383 230.392C233.196 230.392 233.845 230.568 234.333 230.92C234.834 231.259 235.193 231.712 235.409 232.281C235.626 232.85 235.734 233.466 235.734 234.129V241.441H233.703V234.373C233.703 233.94 233.615 233.567 233.439 233.256C233.277 232.931 233.047 232.68 232.749 232.504C232.451 232.328 232.085 232.24 231.652 232.24C231.246 232.24 230.866 232.281 230.514 232.362C230.176 232.444 229.851 232.559 229.539 232.708C229.228 232.843 228.903 233.012 228.565 233.215V241.441H226.533ZM242.312 241.563C242.028 241.563 241.689 241.557 241.297 241.543C240.904 241.529 240.498 241.502 240.078 241.462C239.672 241.435 239.292 241.401 238.94 241.36C238.602 241.32 238.331 241.272 238.128 241.218V239.999H242.698C243.091 239.999 243.429 239.972 243.714 239.918C243.998 239.85 244.215 239.715 244.364 239.512C244.526 239.309 244.607 239.011 244.607 238.618V238.171C244.607 237.765 244.472 237.447 244.201 237.217C243.93 236.986 243.483 236.871 242.86 236.871H241.276C240.64 236.871 240.071 236.79 239.57 236.628C239.083 236.452 238.697 236.16 238.412 235.754C238.142 235.348 238.006 234.8 238.006 234.109V233.52C238.006 232.829 238.135 232.261 238.392 231.814C238.663 231.367 239.089 231.035 239.672 230.819C240.254 230.588 241.026 230.473 241.987 230.473C242.393 230.473 242.84 230.494 243.328 230.534C243.829 230.561 244.316 230.602 244.79 230.656C245.264 230.71 245.643 230.771 245.927 230.839V232.058H241.622C241.026 232.058 240.565 232.159 240.24 232.362C239.929 232.565 239.773 232.951 239.773 233.52V233.926C239.773 234.278 239.848 234.549 239.997 234.739C240.146 234.928 240.355 235.05 240.626 235.104C240.911 235.158 241.242 235.186 241.622 235.186H243.246C244.276 235.186 245.054 235.429 245.582 235.917C246.11 236.391 246.374 237.061 246.374 237.928V238.76C246.374 239.492 246.205 240.06 245.867 240.466C245.528 240.873 245.054 241.157 244.445 241.32C243.849 241.482 243.138 241.563 242.312 241.563ZM248.974 228.747C248.73 228.747 248.608 228.632 248.608 228.402V226.695C248.608 226.452 248.73 226.33 248.974 226.33H250.477C250.585 226.33 250.666 226.364 250.72 226.431C250.775 226.499 250.802 226.587 250.802 226.695V228.402C250.802 228.632 250.693 228.747 250.477 228.747H248.974ZM248.689 241.441V230.575H250.72V241.441H248.689ZM256.27 246.438C255.58 246.438 254.963 246.336 254.422 246.133C253.894 245.944 253.474 245.646 253.163 245.24C252.851 244.847 252.695 244.359 252.695 243.777V243.33C252.695 242.721 252.865 242.206 253.203 241.787C253.555 241.38 253.995 241.069 254.523 240.852C255.052 240.636 255.6 240.527 256.169 240.527L256.717 241.279C256.351 241.279 256.006 241.333 255.681 241.441C255.37 241.563 255.112 241.746 254.909 241.99C254.72 242.247 254.625 242.572 254.625 242.965V243.351C254.625 243.919 254.815 244.332 255.194 244.59C255.586 244.847 256.121 244.976 256.798 244.976H259.175C259.892 244.976 260.461 244.833 260.881 244.549C261.301 244.278 261.51 243.852 261.51 243.269V242.884C261.51 242.559 261.436 242.274 261.287 242.03C261.152 241.787 260.928 241.597 260.617 241.462C260.305 241.34 259.879 241.279 259.337 241.279H256.331C255.37 241.279 254.639 241.083 254.138 240.69C253.636 240.297 253.386 239.803 253.386 239.207C253.386 238.666 253.542 238.232 253.853 237.907C254.178 237.569 254.632 237.339 255.214 237.217C254.727 237 254.341 236.722 254.056 236.384C253.785 236.045 253.596 235.68 253.488 235.287C253.379 234.881 253.325 234.475 253.325 234.068C253.325 233.242 253.494 232.572 253.833 232.058C254.171 231.543 254.659 231.164 255.295 230.92C255.945 230.676 256.717 230.555 257.611 230.555H263.46V231.712L261.246 231.936C261.409 232.058 261.585 232.22 261.775 232.423C261.964 232.613 262.127 232.877 262.262 233.215C262.397 233.554 262.465 234.001 262.465 234.556C262.465 235.138 262.336 235.68 262.079 236.181C261.835 236.682 261.429 237.088 260.861 237.399C260.305 237.711 259.547 237.867 258.586 237.867H256.798C256.284 237.867 255.878 237.941 255.58 238.09C255.282 238.239 255.133 238.503 255.133 238.882C255.133 239.194 255.248 239.41 255.478 239.532C255.708 239.654 255.952 239.715 256.209 239.715H259.642C260.468 239.715 261.158 239.823 261.714 240.04C262.282 240.257 262.709 240.588 262.993 241.035C263.278 241.482 263.42 242.064 263.42 242.782V243.168C263.42 244.197 263.081 244.996 262.404 245.565C261.741 246.147 260.732 246.438 259.378 246.438H256.27ZM257.164 236.303H258.362C258.972 236.303 259.432 236.215 259.743 236.039C260.068 235.849 260.292 235.605 260.414 235.307C260.536 235.01 260.596 234.678 260.596 234.312C260.596 233.771 260.508 233.344 260.332 233.033C260.156 232.708 259.913 232.477 259.601 232.342C259.303 232.193 258.938 232.119 258.504 232.119H257.367C256.676 232.119 256.135 232.274 255.742 232.586C255.363 232.897 255.173 233.432 255.173 234.19C255.173 234.935 255.349 235.477 255.701 235.815C256.054 236.14 256.541 236.303 257.164 236.303ZM265.311 241.441V225.944H267.342V231.753C267.816 231.401 268.392 231.089 269.069 230.819C269.746 230.534 270.443 230.392 271.161 230.392C271.946 230.392 272.583 230.555 273.07 230.88C273.571 231.205 273.937 231.651 274.167 232.22C274.397 232.775 274.512 233.405 274.512 234.109V241.441H272.481V234.353C272.481 233.933 272.393 233.567 272.217 233.256C272.055 232.931 271.818 232.68 271.506 232.504C271.208 232.328 270.849 232.24 270.43 232.24C270.023 232.24 269.644 232.281 269.292 232.362C268.954 232.444 268.629 232.559 268.317 232.708C268.006 232.857 267.681 233.026 267.342 233.215V241.441H265.311ZM281.049 241.441C280.318 241.441 279.709 241.326 279.221 241.096C278.747 240.852 278.395 240.466 278.165 239.938C277.948 239.41 277.847 238.706 277.86 237.826L277.942 232.24H276.215V230.92L277.982 230.575L278.287 227.528H279.892V230.575H282.837V232.24H279.892V237.806C279.892 238.225 279.932 238.564 280.013 238.821C280.095 239.079 280.21 239.275 280.359 239.41C280.508 239.546 280.67 239.647 280.846 239.715C281.022 239.769 281.191 239.803 281.354 239.817L282.694 239.938V241.441H281.049ZM288.687 241.563C288.402 241.563 288.064 241.557 287.671 241.543C287.279 241.529 286.872 241.502 286.453 241.462C286.046 241.435 285.667 241.401 285.315 241.36C284.977 241.32 284.706 241.272 284.503 241.218V239.999H289.073C289.465 239.999 289.804 239.972 290.088 239.918C290.373 239.85 290.589 239.715 290.738 239.512C290.901 239.309 290.982 239.011 290.982 238.618V238.171C290.982 237.765 290.847 237.447 290.576 237.217C290.305 236.986 289.858 236.871 289.235 236.871H287.651C287.014 236.871 286.446 236.79 285.945 236.628C285.457 236.452 285.071 236.16 284.787 235.754C284.516 235.348 284.381 234.8 284.381 234.109V233.52C284.381 232.829 284.509 232.261 284.767 231.814C285.038 231.367 285.464 231.035 286.046 230.819C286.629 230.588 287.4 230.473 288.362 230.473C288.768 230.473 289.215 230.494 289.702 230.534C290.203 230.561 290.691 230.602 291.165 230.656C291.639 230.71 292.018 230.771 292.302 230.839V232.058H287.996C287.4 232.058 286.94 232.159 286.615 232.362C286.304 232.565 286.148 232.951 286.148 233.52V233.926C286.148 234.278 286.222 234.549 286.371 234.739C286.52 234.928 286.73 235.05 287.001 235.104C287.285 235.158 287.617 235.186 287.996 235.186H289.621C290.65 235.186 291.429 235.429 291.957 235.917C292.485 236.391 292.749 237.061 292.749 237.928V238.76C292.749 239.492 292.58 240.06 292.241 240.466C291.903 240.873 291.429 241.157 290.819 241.32C290.224 241.482 289.513 241.563 288.687 241.563ZM123.787 268.441V257.575H125.412L125.818 258.753C126.346 258.387 126.929 258.069 127.565 257.798C128.201 257.527 128.933 257.392 129.759 257.392C130.436 257.392 131.011 257.541 131.485 257.839C131.959 258.137 132.318 258.516 132.562 258.976C132.886 258.733 133.279 258.489 133.74 258.245C134.2 258.001 134.694 257.798 135.222 257.636C135.75 257.473 136.258 257.392 136.746 257.392C137.558 257.392 138.215 257.561 138.716 257.9C139.23 258.225 139.596 258.678 139.813 259.261C140.043 259.829 140.158 260.479 140.158 261.211V268.441H138.127V261.373C138.127 260.94 138.039 260.567 137.863 260.256C137.7 259.931 137.463 259.68 137.152 259.504C136.854 259.328 136.488 259.24 136.055 259.24C135.513 259.24 134.958 259.349 134.39 259.565C133.821 259.769 133.299 260.019 132.826 260.317C132.88 260.493 132.92 260.676 132.947 260.865C132.975 261.041 132.988 261.217 132.988 261.393V268.441H130.957V261.373C130.957 260.94 130.869 260.567 130.693 260.256C130.53 259.931 130.3 259.68 130.002 259.504C129.704 259.328 129.339 259.24 128.905 259.24C128.499 259.24 128.12 259.281 127.768 259.362C127.43 259.444 127.105 259.559 126.793 259.708C126.482 259.843 126.157 260.012 125.818 260.215V268.441H123.787ZM145.121 268.563C144.322 268.563 143.659 268.326 143.131 267.852C142.616 267.365 142.359 266.695 142.359 265.842V264.988C142.359 264.149 142.643 263.465 143.212 262.937C143.794 262.395 144.668 262.125 145.832 262.125H149.224V260.987C149.224 260.567 149.15 260.215 149.001 259.931C148.865 259.633 148.608 259.41 148.229 259.261C147.85 259.112 147.288 259.037 146.543 259.037H143.212V257.839C143.699 257.731 144.268 257.636 144.918 257.555C145.582 257.473 146.353 257.426 147.234 257.412C148.127 257.412 148.872 257.527 149.468 257.758C150.077 257.974 150.531 258.34 150.829 258.854C151.127 259.356 151.275 260.026 151.275 260.865V268.441H149.671L149.326 267.243C149.244 267.297 149.075 267.399 148.818 267.548C148.561 267.683 148.229 267.832 147.823 267.995C147.43 268.157 146.997 268.292 146.523 268.401C146.062 268.509 145.595 268.563 145.121 268.563ZM146.055 267.081C146.259 267.094 146.496 267.074 146.766 267.02C147.051 266.965 147.328 266.905 147.599 266.837C147.883 266.756 148.141 266.674 148.371 266.593C148.615 266.512 148.811 266.444 148.96 266.39C149.122 266.322 149.211 266.282 149.224 266.268V263.14L146.38 263.262C145.676 263.303 145.169 263.479 144.857 263.79C144.559 264.102 144.41 264.508 144.41 265.009V265.496C144.41 265.889 144.492 266.207 144.654 266.451C144.816 266.681 145.02 266.844 145.263 266.938C145.521 267.033 145.785 267.081 146.055 267.081ZM157.57 268.563C156.69 268.563 155.959 268.374 155.376 267.995C154.808 267.615 154.381 267.026 154.097 266.227C153.812 265.415 153.67 264.372 153.67 263.1C153.67 261.759 153.799 260.676 154.056 259.85C154.327 259.01 154.76 258.401 155.356 258.022C155.952 257.629 156.757 257.433 157.773 257.433C158.342 257.433 158.904 257.494 159.459 257.616C160.028 257.737 160.522 257.873 160.942 258.022V252.944H162.973V268.441H161.307L160.942 267.365C160.725 267.554 160.427 267.744 160.048 267.934C159.669 268.11 159.263 268.259 158.829 268.38C158.396 268.502 157.976 268.563 157.57 268.563ZM158.22 266.898C158.775 266.898 159.276 266.81 159.723 266.634C160.183 266.458 160.59 266.275 160.942 266.085V259.484C160.522 259.362 160.109 259.254 159.703 259.159C159.31 259.051 158.87 258.997 158.382 258.997C157.746 258.997 157.231 259.112 156.839 259.342C156.446 259.572 156.162 259.978 155.986 260.561C155.81 261.143 155.722 261.955 155.722 262.998C155.722 263.959 155.803 264.731 155.965 265.313C156.128 265.882 156.392 266.288 156.757 266.532C157.137 266.776 157.624 266.898 158.22 266.898ZM170.044 268.563C168.893 268.563 167.972 268.394 167.282 268.055C166.605 267.717 166.117 267.148 165.819 266.349C165.535 265.537 165.393 264.42 165.393 262.998C165.393 261.549 165.535 260.425 165.819 259.626C166.117 258.814 166.605 258.245 167.282 257.92C167.959 257.595 168.873 257.433 170.024 257.433C171.026 257.433 171.831 257.541 172.441 257.758C173.064 257.961 173.517 258.333 173.802 258.875C174.1 259.403 174.248 260.141 174.248 261.089C174.248 261.752 174.113 262.28 173.842 262.673C173.585 263.066 173.213 263.35 172.725 263.526C172.251 263.702 171.682 263.79 171.019 263.79H167.424C167.437 264.575 167.525 265.205 167.688 265.679C167.864 266.139 168.169 266.478 168.602 266.695C169.049 266.898 169.699 266.999 170.552 266.999H173.944V268.218C173.362 268.299 172.766 268.374 172.156 268.441C171.547 268.523 170.843 268.563 170.044 268.563ZM167.404 262.511H170.836C171.378 262.511 171.777 262.409 172.035 262.206C172.292 262.003 172.42 261.63 172.42 261.089C172.42 260.547 172.339 260.121 172.177 259.809C172.028 259.498 171.777 259.274 171.425 259.139C171.073 259.003 170.606 258.936 170.024 258.936C169.36 258.936 168.832 259.037 168.439 259.24C168.06 259.444 167.789 259.802 167.627 260.317C167.478 260.831 167.404 261.563 167.404 262.511ZM184.296 268.563C183.497 268.563 182.833 268.326 182.305 267.852C181.791 267.365 181.533 266.695 181.533 265.842V264.988C181.533 264.149 181.818 263.465 182.386 262.937C182.969 262.395 183.842 262.125 185.007 262.125H188.399V260.987C188.399 260.567 188.324 260.215 188.175 259.931C188.04 259.633 187.782 259.41 187.403 259.261C187.024 259.112 186.462 259.037 185.717 259.037H182.386V257.839C182.874 257.731 183.443 257.636 184.093 257.555C184.756 257.473 185.528 257.426 186.408 257.412C187.302 257.412 188.047 257.527 188.642 257.758C189.252 257.974 189.705 258.34 190.003 258.854C190.301 259.356 190.45 260.026 190.45 260.865V268.441H188.845L188.5 267.243C188.419 267.297 188.25 267.399 187.992 267.548C187.735 267.683 187.403 267.832 186.997 267.995C186.604 268.157 186.171 268.292 185.697 268.401C185.237 268.509 184.77 268.563 184.296 268.563ZM185.23 267.081C185.433 267.094 185.67 267.074 185.941 267.02C186.225 266.965 186.503 266.905 186.774 266.837C187.058 266.756 187.315 266.674 187.545 266.593C187.789 266.512 187.986 266.444 188.135 266.39C188.297 266.322 188.385 266.282 188.399 266.268V263.14L185.555 263.262C184.851 263.303 184.343 263.479 184.032 263.79C183.734 264.102 183.585 264.508 183.585 265.009V265.496C183.585 265.889 183.666 266.207 183.829 266.451C183.991 266.681 184.194 266.844 184.438 266.938C184.695 267.033 184.959 267.081 185.23 267.081ZM197.252 268.563C196.616 268.563 196.027 268.482 195.485 268.32C194.957 268.144 194.49 267.852 194.084 267.446C193.691 267.04 193.386 266.478 193.17 265.76C192.953 265.043 192.845 264.135 192.845 263.039C192.845 261.915 192.946 260.994 193.149 260.276C193.352 259.545 193.644 258.976 194.023 258.57C194.415 258.15 194.889 257.859 195.445 257.697C196 257.534 196.623 257.453 197.313 257.453C197.882 257.453 198.478 257.48 199.101 257.534C199.737 257.588 200.353 257.676 200.949 257.798V258.997H197.882C197.218 258.997 196.663 259.105 196.216 259.322C195.769 259.525 195.438 259.924 195.221 260.52C195.004 261.102 194.896 261.949 194.896 263.059C194.896 264.129 195.011 264.955 195.241 265.537C195.472 266.106 195.803 266.492 196.237 266.695C196.683 266.898 197.239 266.999 197.902 266.999H201.111V268.157C200.8 268.238 200.428 268.313 199.994 268.38C199.574 268.435 199.128 268.475 198.654 268.502C198.193 268.543 197.726 268.563 197.252 268.563ZM207.209 268.563C206.573 268.563 205.984 268.482 205.442 268.32C204.914 268.144 204.447 267.852 204.041 267.446C203.648 267.04 203.344 266.478 203.127 265.76C202.91 265.043 202.802 264.135 202.802 263.039C202.802 261.915 202.903 260.994 203.107 260.276C203.31 259.545 203.601 258.976 203.98 258.57C204.373 258.15 204.847 257.859 205.402 257.697C205.957 257.534 206.58 257.453 207.27 257.453C207.839 257.453 208.435 257.48 209.058 257.534C209.694 257.588 210.31 257.676 210.906 257.798V258.997H207.839C207.176 258.997 206.62 259.105 206.174 259.322C205.727 259.525 205.395 259.924 205.178 260.52C204.962 261.102 204.853 261.949 204.853 263.059C204.853 264.129 204.968 264.955 205.199 265.537C205.429 266.106 205.761 266.492 206.194 266.695C206.641 266.898 207.196 266.999 207.859 266.999H211.069V268.157C210.757 268.238 210.385 268.313 209.952 268.38C209.532 268.435 209.085 268.475 208.611 268.502C208.151 268.543 207.683 268.563 207.209 268.563ZM217.41 268.563C216.26 268.563 215.339 268.394 214.648 268.055C213.971 267.717 213.484 267.148 213.186 266.349C212.901 265.537 212.759 264.42 212.759 262.998C212.759 261.549 212.901 260.425 213.186 259.626C213.484 258.814 213.971 258.245 214.648 257.92C215.325 257.595 216.239 257.433 217.39 257.433C218.392 257.433 219.198 257.541 219.807 257.758C220.43 257.961 220.884 258.333 221.168 258.875C221.466 259.403 221.615 260.141 221.615 261.089C221.615 261.752 221.48 262.28 221.209 262.673C220.951 263.066 220.579 263.35 220.092 263.526C219.618 263.702 219.049 263.79 218.385 263.79H214.79C214.804 264.575 214.892 265.205 215.054 265.679C215.23 266.139 215.535 266.478 215.968 266.695C216.415 266.898 217.065 266.999 217.918 266.999H221.31V268.218C220.728 268.299 220.132 268.374 219.523 268.441C218.914 268.523 218.209 268.563 217.41 268.563ZM214.77 262.511H218.203C218.744 262.511 219.144 262.409 219.401 262.206C219.658 262.003 219.787 261.63 219.787 261.089C219.787 260.547 219.706 260.121 219.543 259.809C219.394 259.498 219.144 259.274 218.792 259.139C218.44 259.003 217.972 258.936 217.39 258.936C216.727 258.936 216.199 259.037 215.806 259.24C215.427 259.444 215.156 259.802 214.993 260.317C214.845 260.831 214.77 261.563 214.77 262.511ZM227.892 268.563C227.608 268.563 227.269 268.557 226.876 268.543C226.484 268.529 226.077 268.502 225.658 268.462C225.251 268.435 224.872 268.401 224.52 268.36C224.182 268.32 223.911 268.272 223.708 268.218V266.999H228.278C228.67 266.999 229.009 266.972 229.293 266.918C229.578 266.85 229.794 266.715 229.943 266.512C230.106 266.309 230.187 266.011 230.187 265.618V265.171C230.187 264.765 230.052 264.447 229.781 264.217C229.51 263.986 229.063 263.871 228.44 263.871H226.856C226.22 263.871 225.651 263.79 225.15 263.628C224.662 263.452 224.276 263.16 223.992 262.754C223.721 262.348 223.586 261.8 223.586 261.109V260.52C223.586 259.829 223.715 259.261 223.972 258.814C224.243 258.367 224.669 258.035 225.251 257.819C225.834 257.588 226.606 257.473 227.567 257.473C227.973 257.473 228.42 257.494 228.907 257.534C229.408 257.561 229.896 257.602 230.37 257.656C230.844 257.71 231.223 257.771 231.507 257.839V259.058H227.201C226.606 259.058 226.145 259.159 225.82 259.362C225.509 259.565 225.353 259.951 225.353 260.52V260.926C225.353 261.278 225.427 261.549 225.576 261.739C225.725 261.928 225.935 262.05 226.206 262.104C226.49 262.158 226.822 262.186 227.201 262.186H228.826C229.855 262.186 230.634 262.429 231.162 262.917C231.69 263.391 231.954 264.061 231.954 264.928V265.76C231.954 266.492 231.785 267.06 231.446 267.466C231.108 267.873 230.634 268.157 230.025 268.32C229.429 268.482 228.718 268.563 227.892 268.563ZM238.067 268.563C237.783 268.563 237.444 268.557 237.052 268.543C236.659 268.529 236.253 268.502 235.833 268.462C235.427 268.435 235.048 268.401 234.696 268.36C234.357 268.32 234.086 268.272 233.883 268.218V266.999H238.453C238.846 266.999 239.184 266.972 239.469 266.918C239.753 266.85 239.97 266.715 240.119 266.512C240.281 266.309 240.363 266.011 240.363 265.618V265.171C240.363 264.765 240.227 264.447 239.956 264.217C239.685 263.986 239.239 263.871 238.616 263.871H237.031C236.395 263.871 235.826 263.79 235.325 263.628C234.838 263.452 234.452 263.16 234.168 262.754C233.897 262.348 233.761 261.8 233.761 261.109V260.52C233.761 259.829 233.89 259.261 234.147 258.814C234.418 258.367 234.845 258.035 235.427 257.819C236.009 257.588 236.781 257.473 237.742 257.473C238.149 257.473 238.595 257.494 239.083 257.534C239.584 257.561 240.071 257.602 240.545 257.656C241.019 257.71 241.398 257.771 241.683 257.839V259.058H237.377C236.781 259.058 236.321 259.159 235.996 259.362C235.684 259.565 235.528 259.951 235.528 260.52V260.926C235.528 261.278 235.603 261.549 235.752 261.739C235.901 261.928 236.111 262.05 236.382 262.104C236.666 262.158 236.998 262.186 237.377 262.186H239.002C240.031 262.186 240.809 262.429 241.337 262.917C241.866 263.391 242.13 264.061 242.13 264.928V265.76C242.13 266.492 241.96 267.06 241.622 267.466C241.283 267.873 240.809 268.157 240.2 268.32C239.604 268.482 238.893 268.563 238.067 268.563ZM244.729 255.747C244.485 255.747 244.363 255.632 244.363 255.402V253.695C244.363 253.452 244.485 253.33 244.729 253.33H246.232C246.34 253.33 246.422 253.364 246.476 253.431C246.53 253.499 246.557 253.587 246.557 253.695V255.402C246.557 255.632 246.449 255.747 246.232 255.747H244.729ZM244.445 268.441V257.575H246.476V268.441H244.445ZM254.849 268.563C254.348 268.563 253.881 268.502 253.447 268.38C253.027 268.259 252.642 268.11 252.29 267.934C251.951 267.744 251.64 267.554 251.355 267.365L250.99 268.441H249.324V252.944H251.355V258.489C251.856 258.218 252.411 257.974 253.021 257.758C253.644 257.541 254.219 257.433 254.747 257.433C255.641 257.433 256.372 257.622 256.941 258.001C257.51 258.367 257.929 258.963 258.2 259.789C258.484 260.615 258.627 261.718 258.627 263.1C258.627 264.251 258.498 265.239 258.241 266.065C257.983 266.877 257.577 267.5 257.022 267.934C256.467 268.353 255.742 268.563 254.849 268.563ZM254.138 266.877C254.666 266.877 255.106 266.749 255.458 266.492C255.824 266.221 256.101 265.801 256.291 265.232C256.494 264.65 256.595 263.905 256.595 262.998C256.595 261.888 256.487 261.055 256.271 260.5C256.054 259.945 255.763 259.572 255.397 259.383C255.032 259.193 254.612 259.098 254.138 259.098C253.596 259.098 253.102 259.179 252.655 259.342C252.222 259.491 251.789 259.68 251.355 259.911V266.106C251.721 266.295 252.134 266.471 252.594 266.634C253.055 266.796 253.569 266.877 254.138 266.877ZM264.133 268.462C263.469 268.462 262.907 268.347 262.447 268.116C262 267.886 261.661 267.521 261.431 267.02C261.215 266.505 261.106 265.814 261.106 264.948V252.944H263.137V264.684C263.137 265.253 263.191 265.693 263.3 266.004C263.422 266.302 263.584 266.512 263.787 266.634C264.004 266.756 264.254 266.837 264.539 266.877L265.554 266.999V268.462H264.133ZM271.481 268.563C270.33 268.563 269.41 268.394 268.719 268.055C268.042 267.717 267.554 267.148 267.257 266.349C266.972 265.537 266.83 264.42 266.83 262.998C266.83 261.549 266.972 260.425 267.257 259.626C267.554 258.814 268.042 258.245 268.719 257.92C269.396 257.595 270.31 257.433 271.461 257.433C272.463 257.433 273.269 257.541 273.878 257.758C274.501 257.961 274.954 258.333 275.239 258.875C275.537 259.403 275.686 260.141 275.686 261.089C275.686 261.752 275.55 262.28 275.279 262.673C275.022 263.066 274.65 263.35 274.162 263.526C273.688 263.702 273.12 263.79 272.456 263.79H268.861C268.875 264.575 268.963 265.205 269.125 265.679C269.301 266.139 269.606 266.478 270.039 266.695C270.486 266.898 271.136 266.999 271.989 266.999H275.381V268.218C274.799 268.299 274.203 268.374 273.594 268.441C272.984 268.523 272.28 268.563 271.481 268.563ZM268.841 262.511H272.273C272.815 262.511 273.214 262.409 273.472 262.206C273.729 262.003 273.858 261.63 273.858 261.089C273.858 260.547 273.776 260.121 273.614 259.809C273.465 259.498 273.214 259.274 272.862 259.139C272.51 259.003 272.043 258.936 271.461 258.936C270.797 258.936 270.269 259.037 269.877 259.24C269.498 259.444 269.227 259.802 269.064 260.317C268.915 260.831 268.841 261.563 268.841 262.511ZM278.307 268.462C278.076 268.462 277.961 268.347 277.961 268.116V266.349C277.961 266.106 278.076 265.984 278.307 265.984H279.464C279.708 265.984 279.83 266.106 279.83 266.349V268.116C279.83 268.238 279.796 268.326 279.728 268.38C279.661 268.435 279.573 268.462 279.464 268.462H278.307Z" fill="#3D4651"/>
<defs>
<filter id="filter0_d_6111_28575" x="4.46353" y="54.0406" width="342.83" height="294.304" filterUnits="userSpaceOnUse" color-interpolation-filters="sRGB">
<feFlood flood-opacity="0" result="BackgroundImageFix"/>
<feColorMatrix in="SourceAlpha" type="matrix" values="0 0 0 0 0 0 0 0 0 0 0 0 0 0 0 0 0 0 127 0" result="hardAlpha"/>
<feOffset/>
<feGaussianBlur stdDeviation="10.6681"/>
<feComposite in2="hardAlpha" operator="out"/>
<feColorMatrix type="matrix" values="0 0 0 0 0 0 0 0 0 0 0 0 0 0 0 0 0 0 0.25 0"/>
<feBlend mode="normal" in2="BackgroundImageFix" result="effect1_dropShadow_6111_28575"/>
<feBlend mode="normal" in="SourceGraphic" in2="effect1_dropShadow_6111_28575" result="shape"/>
</filter>
<clipPath id="clip0_6111_28575">
<rect width="70.0963" height="70.0963" fill="white" transform="translate(165.208 109.328)"/>
</clipPath>
</defs>
</svg>
