<svg width="295" height="295" viewBox="0 0 295 295" fill="none" xmlns="http://www.w3.org/2000/svg">
<path d="M157.604 6.04767L157.925 3.82481L157.765 3.80174H157.604V6.04767ZM172.854 8.29181L173.324 6.09561L173.322 6.09528L172.854 8.29181ZM284.316 111.449L282.162 112.086L282.162 112.087L284.316 111.449ZM288.764 137.24L286.549 137.611L286.549 137.614L288.764 137.24ZM289.254 139.92H291.5V139.709L291.461 139.502L289.254 139.92ZM289.254 155.962L291.48 156.258L291.5 156.111V155.962H289.254ZM287.294 170.679H285.048L289.512 171.035L287.294 170.679ZM287.294 170.674H289.54L285.076 170.318L287.294 170.674ZM273.062 213.431L271.067 212.399L271.067 212.4L273.062 213.431ZM272.67 217.018L270.498 217.589L270.499 217.592L272.67 217.018ZM288.59 276.623L286.421 277.205L286.431 277.242L286.442 277.278L288.59 276.623ZM288.692 276.998L290.852 276.38L290.846 276.361L290.841 276.343L288.692 276.998ZM289.254 278.216H291.5V277.717L291.289 277.264L289.254 278.216ZM289.254 282.638L291.342 283.466L291.5 283.067V282.638H289.254ZM282.611 289.28V291.526H283.044L283.446 291.365L282.611 289.28ZM278.185 289.28L277.582 291.444L277.878 291.526H278.185V289.28ZM276.78 288.884L276.175 291.046L276.178 291.047L276.78 288.884ZM257.795 283.579L258.385 281.412L258.383 281.411L257.795 283.579ZM217.543 272.824L216.974 274.997L216.979 274.998L217.543 272.824ZM212.932 273.319L211.912 271.318L211.908 271.32L212.932 273.319ZM157.511 288.823L157.648 291.065L157.66 291.064L157.511 288.823ZM155.388 289.28V291.526H155.635L155.876 291.472L155.388 289.28ZM140.453 289.28L140.165 291.507L140.309 291.526H140.453V289.28ZM124.066 287.128L124.451 284.915L124.451 284.915L124.066 287.128ZM36.337 235.06L34.5734 236.451L34.5735 236.451L36.337 235.06ZM6.15733 140.827L3.9133 140.735L3.91328 140.735L6.15733 140.827ZM119.709 8.81915L119.283 6.6141L119.282 6.6143L119.709 8.81915ZM138.243 6.04767V3.80174H138.078L137.915 3.82586L138.243 6.04767ZM157.604 6.04767V3.80174H152.764V6.04767V8.29359H157.604V6.04767ZM143.083 6.04767V3.80174L138.243 3.80174V6.04767V8.29359H143.083V6.04767ZM138.243 6.04767L137.915 3.82586C136.384 4.05203 134.847 4.26383 133.301 4.47353L133.603 6.69907L133.905 8.92462C135.455 8.71432 137.014 8.49965 138.572 8.26947L138.243 6.04767ZM124.325 8.01395L123.974 5.79563C122.411 6.04291 120.846 6.31173 119.283 6.6141L119.709 8.81915L120.136 11.0242C121.638 10.7336 123.152 10.4735 124.676 10.2323L124.325 8.01395ZM119.709 8.81915L119.282 6.6143C117.977 6.8672 116.68 7.13824 115.389 7.42712L115.879 9.61885L116.369 11.8106C117.619 11.531 118.875 11.2687 120.137 11.024L119.709 8.81915ZM108.307 11.5417L107.692 9.3815C105.136 10.1088 102.61 10.9068 100.115 11.7729L100.852 13.8946L101.588 16.0163C104.003 15.178 106.448 14.4057 108.922 13.7019L108.307 11.5417ZM93.5437 16.6667L92.688 14.5902C90.2349 15.6011 87.8164 16.679 85.4346 17.8215L86.406 19.8465L87.3774 21.8715C89.6834 20.7653 92.0248 19.7218 94.3995 18.7432L93.5437 16.6667ZM79.4559 23.4236L78.3726 21.4562C76.0501 22.735 73.7671 24.0767 71.5258 25.4788L72.7169 27.3829L73.908 29.2869C76.079 27.9289 78.2901 26.6294 80.5392 25.391L79.4559 23.4236ZM66.2088 31.7092L64.9142 29.8739C62.7493 31.401 60.6287 32.9863 58.5545 34.6274L59.948 36.3887L61.3415 38.15C63.3513 36.5599 65.406 35.0239 67.5033 33.5445L66.2088 31.7092ZM53.9537 41.4043L52.4658 39.7219C50.4826 41.4757 48.5483 43.2828 46.6651 45.1408L48.2425 46.7395L49.8198 48.3383C51.645 46.5377 53.5196 44.7863 55.4415 43.0867L53.9537 41.4043ZM42.8301 52.3783L41.168 50.8677C39.3881 52.8261 37.6616 54.8327 35.9907 56.885L37.7324 58.303L39.4741 59.7209C41.0935 57.7318 42.7669 55.787 44.4921 53.8889L42.8301 52.3783ZM32.9645 64.4963L31.1482 63.1752C29.5922 65.3146 28.0939 67.497 26.6558 69.7198L28.5415 70.9398L30.4271 72.1598C31.8208 70.0058 33.2727 67.8908 34.7808 65.8174L32.9645 64.4963ZM24.477 77.6157L22.5273 76.5008C21.2144 78.7968 19.9635 81.1304 18.7769 83.4992L20.7849 84.5051L22.793 85.511C23.9425 83.2162 25.1545 80.9553 26.4266 78.7306L24.477 77.6157ZM17.4794 91.5865L15.4187 90.6933C14.3673 93.119 13.3818 95.5769 12.4646 98.0646L14.5718 98.8416L16.679 99.6186C17.5673 97.2096 18.5217 94.8291 19.54 92.4797L17.4794 91.5865ZM12.0742 106.248L9.92669 105.591C9.15328 108.117 8.44924 110.669 7.81677 113.246L9.99796 113.782L12.1791 114.317C12.7914 111.823 13.4729 109.351 14.2217 106.906L12.0742 106.248ZM8.35093 121.422L6.14288 121.011C5.65998 123.608 5.24933 126.225 4.91305 128.862L7.14092 129.146L9.36879 129.43C9.69422 126.879 10.0916 124.345 10.559 121.833L8.35093 121.422ZM6.37411 136.92L4.13364 136.764C4.04145 138.083 3.96792 139.407 3.9133 140.735L6.15733 140.827L8.40135 140.919C8.45421 139.635 8.52536 138.354 8.61457 137.077L6.37411 136.92ZM6.15733 140.827L3.91328 140.735C3.85484 142.165 3.81497 143.589 3.79373 145.008L6.0394 145.042L8.28507 145.076C8.30573 143.696 8.3445 142.31 8.40138 140.919L6.15733 140.827ZM6.13815 153.468L3.89392 153.556C4.00547 156.425 4.19597 159.27 4.46584 162.092L6.70157 161.879L8.93729 161.665C8.6756 158.928 8.49069 156.167 8.38237 153.381L6.13815 153.468ZM7.74841 170.241L5.52911 170.585C5.96897 173.417 6.49195 176.223 7.09843 179.004L9.29277 178.525L11.4871 178.047C10.9002 175.356 10.3938 172.639 9.96772 169.896L7.74841 170.241ZM11.3424 186.7L9.18197 187.314C9.96272 190.063 10.8286 192.785 11.7798 195.479L13.8976 194.731L16.0154 193.983C15.0955 191.378 14.2581 188.745 13.5029 186.087L11.3424 186.7ZM16.9516 202.586L14.8848 203.465C15.9991 206.085 17.1977 208.677 18.4811 211.24L20.4894 210.235L22.4977 209.23C21.2557 206.749 20.0961 204.241 19.0184 201.707L16.9516 202.586ZM24.49 217.652L22.5464 218.777C23.9676 221.232 25.4702 223.658 27.0542 226.056L28.9281 224.818L30.8021 223.58C29.2661 221.255 27.8101 218.904 26.4336 216.526L24.49 217.652ZM33.7713 231.714L31.9704 233.056C32.8188 234.194 33.6864 235.326 34.5734 236.451L36.337 235.06L38.1006 233.67C37.2388 232.577 36.396 231.478 35.5723 230.372L33.7713 231.714ZM36.337 235.06L34.5735 236.451C35.3578 237.446 36.1505 238.427 36.9516 239.395L38.6818 237.963L40.412 236.531C39.6336 235.59 38.8631 234.637 38.1005 233.67L36.337 235.06ZM43.5768 243.593L41.9186 245.108C43.6326 246.985 45.3819 248.805 47.1662 250.569L48.7453 248.972L50.3244 247.375C48.5948 245.665 46.8983 243.899 45.235 242.079L43.5768 243.593ZM54.1842 254.075L52.6913 255.753C54.5874 257.44 56.5198 259.068 58.4883 260.638L59.8884 258.882L61.2885 257.126C59.3837 255.607 57.5132 254.031 55.6771 252.397L54.1842 254.075ZM65.8464 263.37L64.5451 265.201C66.6089 266.668 68.7092 268.075 70.8457 269.422L72.0433 267.522L73.2409 265.622C71.1749 264.319 69.1438 262.959 67.1478 261.54L65.8464 263.37ZM78.4619 271.322L77.3721 273.285C79.5797 274.511 81.823 275.675 84.1019 276.78L85.0815 274.759L86.0611 272.738C83.8565 271.669 81.6867 270.543 79.5518 269.358L78.4619 271.322ZM91.8804 277.828L91.0123 279.9C93.3333 280.872 95.6885 281.786 98.0776 282.641L98.8345 280.527L99.5914 278.412C97.2765 277.584 94.9955 276.699 92.7486 275.757L91.8804 277.828ZM105.919 282.858L105.272 285.008C107.674 285.731 110.108 286.397 112.574 287.008L113.114 284.828L113.654 282.647C111.259 282.055 108.896 281.408 106.566 280.707L105.919 282.858ZM120.397 286.446L119.962 288.65C121.194 288.893 122.433 289.123 123.681 289.34L124.066 287.128L124.451 284.915C123.237 284.704 122.031 284.48 120.833 284.243L120.397 286.446ZM124.066 287.128L123.68 289.34C125.067 289.582 126.454 289.795 127.837 289.988L128.149 287.764L128.46 285.54C127.114 285.351 125.778 285.147 124.451 284.915L124.066 287.128ZM136.351 288.779L136.089 291.009C137.455 291.17 138.813 291.333 140.165 291.507L140.453 289.28L140.741 287.053C139.362 286.874 137.984 286.71 136.614 286.548L136.351 288.779ZM140.453 289.28V291.526H144.187V289.28V287.034H140.453V289.28ZM151.654 289.28V291.526H155.388V289.28V287.034H151.654V289.28ZM155.388 289.28L155.876 291.472C156.098 291.423 156.309 291.368 156.491 291.32L155.915 289.149L155.34 286.978C155.171 287.023 155.03 287.059 154.9 287.088L155.388 289.28ZM156.972 288.892L157.38 291.1C157.492 291.08 157.579 291.069 157.648 291.065L157.511 288.823L157.374 286.581C157.082 286.599 156.81 286.638 156.563 286.683L156.972 288.892ZM157.511 288.823L157.66 291.064C158.887 290.983 160.109 290.886 161.328 290.773L161.122 288.537L160.916 286.301C159.735 286.409 158.551 286.503 157.362 286.582L157.511 288.823ZM168.315 287.686L168.637 289.909C171.072 289.557 173.491 289.142 175.892 288.666L175.454 286.463L175.017 284.26C172.693 284.721 170.352 285.122 167.994 285.464L168.315 287.686ZM182.52 284.867L183.072 287.044C185.451 286.441 187.813 285.776 190.157 285.05L189.493 282.905L188.828 280.759C186.558 281.462 184.271 282.106 181.968 282.69L182.52 284.867ZM196.355 280.586L197.128 282.694C199.425 281.852 201.705 280.951 203.968 279.99L203.091 277.923L202.214 275.855C200.019 276.787 197.808 277.661 195.582 278.477L196.355 280.586ZM209.689 274.932L210.665 276.955C211.766 276.423 212.863 275.878 213.955 275.318L212.932 273.319L211.908 271.32C210.846 271.864 209.781 272.393 208.712 272.909L209.689 274.932ZM212.932 273.319L213.951 275.32C214.129 275.23 214.356 275.142 214.625 275.068L214.035 272.901L213.445 270.734C212.924 270.876 212.403 271.068 211.912 271.318L212.932 273.319ZM216.376 272.65L216.259 274.893C216.539 274.908 216.78 274.946 216.974 274.997L217.543 272.824L218.112 270.651C217.581 270.512 217.032 270.436 216.493 270.408L216.376 272.65ZM217.543 272.824L216.979 274.998C218.098 275.288 219.217 275.58 220.335 275.872L220.903 273.699L221.471 271.526C220.35 271.233 219.229 270.941 218.107 270.65L217.543 272.824ZM227.619 275.465L227.044 277.636C229.28 278.228 231.515 278.822 233.75 279.419L234.33 277.249L234.909 275.079C232.671 274.482 230.433 273.886 228.193 273.294L227.619 275.465ZM241.037 279.047L240.453 281.216C242.688 281.817 244.921 282.42 247.155 283.023L247.741 280.855L248.327 278.687C246.092 278.083 243.857 277.48 241.62 276.878L241.037 279.047ZM254.444 282.67L253.856 284.838C254.973 285.141 256.09 285.444 257.207 285.747L257.795 283.579L258.383 281.411C257.266 281.108 256.149 280.805 255.032 280.503L254.444 282.67ZM257.795 283.579L257.205 285.746C258.785 286.177 260.365 286.612 261.945 287.051L262.546 284.887L263.148 282.723C261.562 282.283 259.975 281.845 258.385 281.412L257.795 283.579ZM272.036 287.55L271.427 289.712C273.008 290.157 274.591 290.603 276.175 291.046L276.78 288.884L277.386 286.721C275.806 286.278 274.226 285.834 272.645 285.388L272.036 287.55ZM276.78 288.884L276.178 291.047C276.291 291.079 276.405 291.111 276.52 291.143L277.132 288.982L277.743 286.821C277.624 286.787 277.504 286.754 277.383 286.72L276.78 288.884ZM277.833 289.181L277.222 291.343C277.341 291.376 277.461 291.41 277.582 291.444L278.185 289.28L278.787 287.117C278.674 287.085 278.56 287.053 278.445 287.02L277.833 289.181ZM278.185 289.28V291.526H279.291V289.28V287.034H278.185V289.28ZM281.505 289.28V291.526H282.611V289.28V287.034H281.505V289.28ZM282.611 289.28L283.446 291.365C284.342 291.007 285.186 290.578 285.973 290.075L284.763 288.183L283.554 286.29C283.019 286.632 282.429 286.934 281.777 287.195L282.611 289.28ZM288.16 284.792L290.052 286.002C290.556 285.214 290.985 284.367 291.342 283.466L289.254 282.638L287.166 281.811C286.908 282.461 286.608 283.05 286.268 283.582L288.16 284.792ZM289.254 282.638H291.5V281.533H289.254H287.008V282.638H289.254ZM289.254 279.321H291.5V278.216H289.254H287.008V279.321H289.254ZM289.254 278.216L291.289 277.264C291.221 277.12 291.153 276.988 291.098 276.881L289.104 277.915L287.111 278.95C287.159 279.042 287.192 279.109 287.219 279.167L289.254 278.216ZM288.807 277.313L290.872 276.43C290.854 276.39 290.85 276.375 290.852 276.38L288.692 276.998L286.533 277.616C286.596 277.834 286.67 278.029 286.742 278.197L288.807 277.313ZM288.692 276.998L290.841 276.343C290.841 276.342 290.839 276.336 290.834 276.32L288.666 276.904L286.497 277.489C286.51 277.535 286.525 277.591 286.544 277.653L288.692 276.998ZM288.617 276.716L290.785 276.132C290.773 276.085 290.757 276.029 290.738 275.968L288.59 276.623L286.442 277.278C286.442 277.279 286.444 277.285 286.448 277.301L288.617 276.716ZM288.59 276.623L290.759 276.041C290.426 274.799 290.093 273.558 289.76 272.317L287.591 272.899L285.421 273.481C285.755 274.722 286.088 275.964 286.421 277.205L288.59 276.623ZM285.592 265.451L287.761 264.869C287.095 262.386 286.429 259.903 285.763 257.42L283.594 258.002L281.425 258.584C282.09 261.067 282.756 263.55 283.423 266.033L285.592 265.451ZM281.598 250.553L283.768 249.972C283.103 247.489 282.439 245.007 281.775 242.523L279.605 243.103L277.436 243.683C278.099 246.167 278.764 248.651 279.429 251.134L281.598 250.553ZM277.617 235.652L279.787 235.074C279.125 232.591 278.464 230.107 277.804 227.623L275.633 228.2L273.463 228.777C274.123 231.262 274.784 233.746 275.447 236.231L277.617 235.652ZM273.656 220.746L275.827 220.171C275.498 218.929 275.17 217.687 274.841 216.445L272.67 217.018L270.499 217.592C270.827 218.835 271.156 220.078 271.485 221.321L273.656 220.746ZM272.67 217.018L274.842 216.447C274.812 216.334 274.787 216.181 274.777 215.993L272.535 216.11L270.292 216.227C270.315 216.676 270.379 217.138 270.498 217.589L272.67 217.018ZM272.732 214.289L274.898 214.886C274.947 214.706 275.004 214.565 275.057 214.463L273.062 213.431L271.067 212.4C270.851 212.818 270.687 213.257 270.567 213.691L272.732 214.289ZM273.062 213.431L275.056 214.464C275.644 213.329 276.216 212.189 276.773 211.043L274.754 210.061L272.734 209.078C272.193 210.19 271.637 211.297 271.067 212.399L273.062 213.431ZM277.882 203.198L279.949 204.077C280.949 201.724 281.888 199.349 282.762 196.953L280.652 196.183L278.542 195.414C277.695 197.735 276.786 200.037 275.815 202.319L277.882 203.198ZM283.045 189.031L285.193 189.686C285.937 187.245 286.616 184.781 287.227 182.296L285.047 181.759L282.866 181.223C282.274 183.628 281.617 186.012 280.896 188.376L283.045 189.031ZM286.647 174.389L288.854 174.805C289.09 173.552 289.309 172.293 289.512 171.029L287.294 170.674L285.076 170.318C284.88 171.542 284.668 172.76 284.439 173.973L286.647 174.389ZM287.294 170.674H285.048V170.675H287.294H289.54V170.674H287.294ZM287.294 170.677H285.048V170.679H287.294H289.54V170.677H287.294ZM287.294 170.679L289.512 171.035C289.711 169.794 289.893 168.553 290.064 167.315L287.84 167.007L285.615 166.699C285.447 167.913 285.27 169.121 285.077 170.322L287.294 170.679ZM288.783 159.644L291.011 159.921C291.164 158.695 291.318 157.475 291.48 156.258L289.254 155.962L287.028 155.665C286.863 156.901 286.707 158.136 286.554 159.366L288.783 159.644ZM289.254 155.962H291.5V151.951H289.254H287.008V155.962H289.254ZM289.254 143.93H291.5V139.92H289.254H287.008V143.93H289.254ZM289.254 139.92L291.461 139.502C291.418 139.278 291.376 139.056 291.334 138.834L289.127 139.251L286.92 139.667C286.963 139.891 287.005 140.115 287.047 140.338L289.254 139.92ZM288.88 137.911L291.091 137.517C291.053 137.3 291.015 137.083 290.978 136.866L288.764 137.24L286.549 137.614C286.588 137.846 286.629 138.077 286.669 138.305L288.88 137.911ZM288.764 137.24L290.979 136.869C290.802 135.813 290.638 134.751 290.482 133.681L288.26 134.005L286.037 134.329C286.197 135.422 286.365 136.517 286.549 137.611L288.764 137.24ZM287.375 127.516L289.601 127.217C289.31 125.046 289.006 122.854 288.647 120.671L286.431 121.035L284.215 121.4C284.563 123.514 284.859 125.651 285.149 127.814L287.375 127.516ZM285.159 114.613L287.344 114.089C287.081 112.992 286.791 111.899 286.469 110.811L284.316 111.449L282.162 112.087C282.46 113.091 282.729 114.108 282.975 115.136L285.159 114.613ZM284.316 111.449L286.469 110.812C286.083 109.505 285.685 108.211 285.276 106.927L283.136 107.608L280.996 108.29C281.395 109.544 281.784 110.809 282.162 112.086L284.316 111.449ZM280.543 100.023L282.652 99.2508C281.711 96.6816 280.722 94.1616 279.686 91.6908L277.615 92.5595L275.543 93.4281C276.552 95.834 277.516 98.29 278.434 100.796L280.543 100.023ZM274.336 85.2433L276.362 84.2743C275.182 81.8066 273.95 79.3925 272.667 77.0322L270.693 78.1049L268.72 79.1777C269.966 81.4685 271.162 83.8133 272.309 86.2122L274.336 85.2433ZM266.672 71.1652L268.584 69.986C267.149 67.6598 265.659 65.3913 264.113 63.1806L262.273 64.4673L260.432 65.7541C261.927 67.8934 263.37 70.0902 264.761 72.3444L266.672 71.1652ZM257.487 58.0349L259.248 56.641C257.554 54.5011 255.803 52.4222 253.995 50.4043L252.322 51.9032L250.649 53.4022C252.396 55.3514 254.089 57.3603 255.726 59.4288L257.487 58.0349ZM246.79 46.1031L248.366 44.503C246.428 42.5941 244.432 40.7474 242.378 38.9632L240.905 40.6586L239.432 42.354C241.415 44.0768 243.342 45.8598 245.214 47.7031L246.79 46.1031ZM234.694 35.5926L236.059 33.8089C233.907 32.1624 231.698 30.5776 229.434 29.0546L228.18 30.9183L226.927 32.7821C229.116 34.2543 231.25 35.7857 233.329 37.3762L234.694 35.5926ZM221.396 26.645L222.537 24.7102C220.213 23.3408 217.836 22.0307 215.406 20.7798L214.378 22.7767L213.35 24.7737C215.706 25.9859 218.007 27.2547 220.256 28.5799L221.396 26.645ZM207.149 19.3043L208.066 17.2542C205.613 16.1571 203.111 15.1155 200.56 14.1293L199.75 16.2242L198.94 18.3191C201.421 19.2778 203.851 20.2897 206.231 21.3544L207.149 19.3043ZM192.203 13.5192L192.909 11.3873C190.366 10.5446 187.778 9.75295 185.143 9.01228L184.536 11.1744L183.928 13.3364C186.497 14.0589 189.02 14.8305 191.497 15.6511L192.203 13.5192ZM176.774 9.17235L177.288 6.9862C175.977 6.67753 174.656 6.38067 173.324 6.09561L172.854 8.29181L172.384 10.488C173.686 10.7667 174.978 11.0569 176.259 11.3585L176.774 9.17235ZM172.854 8.29181L173.322 6.09528C172.02 5.81767 170.717 5.58247 169.419 5.37444L169.063 7.59207L168.708 9.80971C169.949 10.0085 171.174 10.2301 172.385 10.4883L172.854 8.29181ZM161.424 6.55738L161.706 4.32917C160.433 4.1684 159.175 4.00532 157.925 3.82481L157.604 6.04767L157.283 8.27053C158.573 8.45691 159.864 8.62401 161.143 8.7856L161.424 6.55738Z" fill="#16A458"/>
<g filter="url(#filter0_d_6111_28510)">
<path d="M156.483 21.9305C160.993 22.5818 165.566 22.9731 170.023 23.9236C221.113 34.8571 254.173 65.4662 268.984 115.511C271.169 122.888 271.652 130.767 272.933 138.41C273.068 139.211 273.219 139.998 273.369 140.789V155.032C272.789 159.389 272.325 163.766 271.628 168.098V168.094C269.492 181.435 265.199 194.062 258.992 206.056C258.528 206.954 258.388 208.267 258.644 209.241C263.309 226.895 268.046 244.526 272.779 262.161C272.813 262.272 272.837 262.383 272.871 262.494C272.977 262.865 273.199 263.213 273.369 263.575V267.502C272.252 270.319 270.28 272.274 267.471 273.398H263.541C263.125 273.282 262.709 273.161 262.293 273.046C256.677 271.473 251.069 269.871 245.438 268.337C233.537 265.109 221.635 261.886 209.7 258.788C208.448 258.46 206.761 258.639 205.606 259.227C190.133 267.15 173.769 271.84 156.401 272.993C155.768 273.032 155.144 273.258 154.515 273.398H141.255C136.402 272.771 131.52 272.328 126.706 271.488C94.8981 265.954 68.7851 250.581 48.8159 225.26C29.5187 200.787 20.7497 172.696 22.021 141.595C24.3703 84.4959 66.7788 35.2621 122.838 24.3914C128.277 23.3396 133.807 22.7411 139.293 21.9305H156.483Z" fill="white"/>
</g>
<g clip-path="url(#clip0_6111_28510)">
<path d="M149.671 55.4855H154.722V49.091C154.722 48.9771 155.083 48.2959 155.194 48.142C156.257 46.6741 158.516 46.7479 159.436 48.3254C160.186 49.6119 159.52 55.2303 159.773 55.4855C165.55 55.0468 170.307 59.8195 169.877 65.5897C171.811 65.7457 174.064 65.3767 175.955 65.5897C178.233 65.8449 179.129 68.654 177.301 70.0924C177.113 70.24 176.442 70.6407 176.272 70.6407H169.877V75.6918H181.323C181.388 75.6918 182.061 76.0123 182.183 76.0925C183.702 77.0816 183.702 79.3509 182.183 80.3421C182.059 80.4222 181.388 80.7428 181.323 80.7428H169.877V85.7938H176.272C176.386 85.7938 177.067 86.1545 177.221 86.2662C178.689 87.3292 178.615 89.5879 177.037 90.5074C175.751 91.2582 170.132 90.5918 169.877 90.8449C170.309 96.613 165.552 101.388 159.773 100.949C159.617 102.883 159.986 105.135 159.773 107.027C159.518 109.305 156.709 110.201 155.27 108.373C155.123 108.185 154.722 107.514 154.722 107.344V100.949H149.671V112.395C149.671 112.46 149.35 113.133 149.27 113.255C148.281 114.774 146.012 114.774 145.021 113.255C144.94 113.131 144.62 112.46 144.62 112.395V100.949H139.569V107.344C139.569 107.514 139.168 108.185 139.02 108.373C137.582 110.201 134.771 109.305 134.518 107.027C134.305 105.133 134.676 102.881 134.518 100.949C128.756 101.388 123.975 96.6045 124.414 90.8449C124.158 90.5897 118.54 91.2561 117.254 90.5074C115.676 89.5879 115.602 87.3313 117.07 86.2662C117.224 86.1545 117.905 85.7938 118.019 85.7938H124.414V80.7428H112.968C112.903 80.7428 112.23 80.4222 112.108 80.3421C110.589 79.353 110.589 77.0837 112.108 76.0925C112.232 76.0123 112.903 75.6918 112.968 75.6918H124.414V70.6407H118.019C117.905 70.6407 117.224 70.2801 117.07 70.1683C115.602 69.1054 115.676 66.8466 117.254 65.9271C118.54 65.1763 124.158 65.8427 124.414 65.5897C123.975 59.8279 128.758 55.0468 134.518 55.4855C134.674 53.5515 134.305 51.2991 134.518 49.4074C134.773 47.1297 137.582 46.2333 139.02 48.0618C139.168 48.2495 139.569 48.9202 139.569 49.091V55.4855H144.62V44.04C144.62 43.9746 144.94 43.3018 145.021 43.1795C146.01 41.661 148.279 41.661 149.27 43.1795C149.35 43.3039 149.671 43.9746 149.671 44.04V55.4855ZM145.409 82.4806V85.2434C145.409 85.7812 146.14 86.7534 146.592 87.0592C147.975 88.0019 149.795 87.287 150.386 85.8002C149.814 80.0679 153.248 69.6242 144.696 68.9071C140.128 68.5233 135.716 69.4639 135.3 74.8186C135.096 77.4485 135.077 82.16 135.3 84.7752C135.486 86.9411 137.47 88.3183 139.4 86.9685C139.647 86.7956 140.358 85.9499 140.358 85.7158V82.4785H145.409V82.4806ZM156.108 68.9345C155.194 69.0611 154.089 69.9511 153.944 70.8875C154.26 75.4893 153.488 80.7259 153.925 85.2518C154.207 88.1749 158.583 88.2867 158.967 85.0683C158.721 80.7386 159.358 75.9343 158.991 71.6615C158.862 70.1578 157.761 68.7068 156.108 68.9345Z" fill="#16A458"/>
<path d="M145.408 77.4269H140.594L140.357 77.1907V74.6641C140.357 74.5777 140.655 74.198 140.769 74.1285C141.287 73.8016 145.408 73.7573 145.408 74.506V77.4269Z" fill="#16A458"/>
</g>
<circle cx="231.175" cy="48.1665" r="25.2198" fill="white" stroke="#16A458" stroke-width="4.58543"/>
<path d="M227.081 57.6352C226.56 57.6349 226.055 57.4541 225.652 57.1237L218.912 51.602C217.99 50.8014 217.872 49.4129 218.646 48.4684C219.419 47.5239 220.804 47.3657 221.77 48.1115L226.991 52.3844L242.036 38.5276C242.602 37.8552 243.506 37.5721 244.354 37.802C245.202 38.032 245.84 38.7332 245.988 39.5992C246.136 40.4652 245.768 41.3385 245.045 41.8376L228.616 57.0334C228.2 57.423 227.651 57.6383 227.081 57.6352Z" fill="#16A458" stroke="#16A458" stroke-width="2.25681"/>
<path d="M84.2307 146.945C83.9057 146.945 83.5333 146.931 83.1136 146.904C82.7073 146.89 82.2876 146.863 81.8543 146.823C81.4345 146.782 81.0283 146.741 80.6356 146.701C80.2564 146.66 79.9315 146.606 79.6606 146.538V144.954C80.0127 144.981 80.4325 145.008 80.9199 145.035C81.4209 145.062 81.949 145.083 82.5042 145.096C83.0729 145.11 83.6213 145.117 84.1494 145.117C84.7317 145.117 85.2462 145.062 85.6931 144.954C86.1535 144.846 86.5123 144.643 86.7696 144.345C87.0404 144.047 87.1758 143.627 87.1758 143.085V142.212C87.1758 141.603 87.0065 141.136 86.668 140.811C86.343 140.486 85.842 140.323 85.165 140.323H83.6416C82.3417 140.323 81.3329 140.039 80.6153 139.47C79.9111 138.901 79.5591 137.926 79.5591 136.545V135.733C79.5591 134.297 79.945 133.275 80.7168 132.666C81.5022 132.043 82.6125 131.731 84.0479 131.731C84.5218 131.731 85.0296 131.759 85.5712 131.813C86.1128 131.853 86.6409 131.907 87.1555 131.975C87.67 132.043 88.0966 132.111 88.4351 132.178V133.763C87.8258 133.722 87.142 133.681 86.3837 133.641C85.6389 133.587 84.9348 133.559 84.2713 133.559C83.7026 133.559 83.2083 133.627 82.7886 133.763C82.3823 133.884 82.0641 134.108 81.8339 134.433C81.6173 134.758 81.509 135.218 81.509 135.814V136.423C81.509 137.155 81.7053 137.662 82.098 137.947C82.4907 138.231 83.0391 138.373 83.7432 138.373H85.3884C86.2415 138.373 86.9388 138.529 87.4805 138.84C88.0356 139.152 88.4486 139.578 88.7195 140.12C88.9903 140.662 89.1257 141.278 89.1257 141.968V143.024C89.1257 144.081 88.909 144.893 88.4757 145.462C88.0424 146.031 87.4602 146.423 86.729 146.64C85.9977 146.843 85.165 146.945 84.2307 146.945ZM91.6652 146.823V135.956H93.2901L93.6963 137.134C94.2244 136.769 94.8067 136.45 95.4431 136.18C96.0795 135.909 96.8107 135.773 97.6367 135.773C98.3138 135.773 98.8893 135.922 99.3632 136.22C99.8371 136.518 100.196 136.897 100.44 137.358C100.765 137.114 101.157 136.87 101.618 136.626C102.078 136.383 102.572 136.18 103.1 136.017C103.629 135.855 104.136 135.773 104.624 135.773C105.436 135.773 106.093 135.943 106.594 136.281C107.109 136.606 107.474 137.06 107.691 137.642C107.921 138.211 108.036 138.861 108.036 139.592V146.823H106.005V139.754C106.005 139.321 105.917 138.949 105.741 138.637C105.578 138.312 105.341 138.062 105.03 137.886C104.732 137.71 104.367 137.622 103.933 137.622C103.392 137.622 102.836 137.73 102.268 137.947C101.699 138.15 101.178 138.4 100.704 138.698C100.758 138.874 100.799 139.057 100.826 139.247C100.853 139.423 100.866 139.599 100.866 139.775V146.823H98.8351V139.754C98.8351 139.321 98.7471 138.949 98.571 138.637C98.4086 138.312 98.1784 138.062 97.8805 137.886C97.5826 137.71 97.217 137.622 96.7837 137.622C96.3774 137.622 95.9983 137.662 95.6462 137.744C95.3077 137.825 94.9827 137.94 94.6713 138.089C94.3598 138.224 94.0349 138.394 93.6963 138.597V146.823H91.6652ZM112.999 146.945C112.2 146.945 111.537 146.708 111.009 146.234C110.494 145.746 110.237 145.076 110.237 144.223V143.37C110.237 142.53 110.521 141.846 111.09 141.318C111.672 140.777 112.546 140.506 113.71 140.506H117.102V139.368C117.102 138.949 117.028 138.597 116.879 138.312C116.743 138.014 116.486 137.791 116.107 137.642C115.728 137.493 115.166 137.419 114.421 137.419H111.09V136.22C111.578 136.112 112.146 136.017 112.796 135.936C113.46 135.855 114.232 135.807 115.112 135.794C116.005 135.794 116.75 135.909 117.346 136.139C117.955 136.356 118.409 136.721 118.707 137.236C119.005 137.737 119.154 138.407 119.154 139.247V146.823H117.549L117.204 145.624C117.123 145.678 116.953 145.78 116.696 145.929C116.439 146.064 116.107 146.213 115.701 146.376C115.308 146.538 114.875 146.674 114.401 146.782C113.94 146.89 113.473 146.945 112.999 146.945ZM113.934 145.462C114.137 145.475 114.374 145.455 114.645 145.401C114.929 145.347 115.206 145.286 115.477 145.218C115.762 145.137 116.019 145.056 116.249 144.974C116.493 144.893 116.689 144.825 116.838 144.771C117.001 144.704 117.089 144.663 117.102 144.649V141.521L114.259 141.643C113.555 141.684 113.047 141.86 112.735 142.171C112.437 142.483 112.288 142.889 112.288 143.39V143.878C112.288 144.27 112.37 144.588 112.532 144.832C112.695 145.062 112.898 145.225 113.142 145.32C113.399 145.414 113.663 145.462 113.934 145.462ZM121.914 146.823V135.956H123.478L123.945 137.784C124.405 137.229 124.92 136.762 125.489 136.383C126.057 136.004 126.721 135.814 127.479 135.814C127.655 135.814 127.824 135.828 127.987 135.855C128.149 135.868 128.305 135.895 128.454 135.936V138.028C128.265 138.001 128.068 137.981 127.865 137.967C127.662 137.94 127.452 137.926 127.235 137.926C126.775 137.926 126.362 137.981 125.996 138.089C125.631 138.197 125.279 138.366 124.94 138.597C124.615 138.813 124.284 139.084 123.945 139.409V146.823H121.914ZM134.32 146.823C133.588 146.823 132.979 146.708 132.492 146.477C132.018 146.234 131.666 145.848 131.435 145.32C131.219 144.792 131.117 144.087 131.131 143.207L131.212 137.622H129.486V136.301L131.253 135.956L131.557 132.909H133.162V135.956H136.107V137.622H133.162V143.187C133.162 143.607 133.203 143.945 133.284 144.203C133.365 144.46 133.48 144.656 133.629 144.792C133.778 144.927 133.94 145.029 134.117 145.096C134.293 145.15 134.462 145.184 134.624 145.198L135.965 145.32V146.823H134.32ZM142.721 146.823L147.718 131.853H150.318L155.314 146.823H153.182L151.861 142.903H146.134L144.834 146.823H142.721ZM146.621 141.054H151.354L148.998 133.641L146.621 141.054ZM157.381 146.823V131.853H159.432V146.823H157.381ZM161.404 141.765V140.1H167.436V141.765H161.404ZM172.874 146.945C171.994 146.945 171.263 146.755 170.68 146.376C170.112 145.997 169.685 145.408 169.401 144.609C169.116 143.796 168.974 142.754 168.974 141.481C168.974 140.14 169.103 139.057 169.36 138.231C169.631 137.392 170.064 136.782 170.66 136.403C171.256 136.01 172.062 135.814 173.077 135.814C173.646 135.814 174.208 135.875 174.763 135.997C175.332 136.119 175.826 136.254 176.246 136.403V131.325H178.277V146.823H176.611L176.246 145.746C176.029 145.936 175.731 146.125 175.352 146.315C174.973 146.491 174.567 146.64 174.133 146.762C173.7 146.884 173.28 146.945 172.874 146.945ZM173.524 145.279C174.079 145.279 174.58 145.191 175.027 145.015C175.487 144.839 175.894 144.656 176.246 144.467V137.865C175.826 137.744 175.413 137.635 175.007 137.54C174.614 137.432 174.174 137.378 173.686 137.378C173.05 137.378 172.536 137.493 172.143 137.723C171.75 137.953 171.466 138.36 171.29 138.942C171.114 139.524 171.026 140.337 171.026 141.379C171.026 142.341 171.107 143.113 171.269 143.695C171.432 144.263 171.696 144.67 172.062 144.913C172.441 145.157 172.928 145.279 173.524 145.279ZM181.062 146.823V135.956H182.626L183.094 137.784C183.554 137.229 184.069 136.762 184.637 136.383C185.206 136.004 185.869 135.814 186.628 135.814C186.804 135.814 186.973 135.828 187.136 135.855C187.298 135.868 187.454 135.895 187.603 135.936V138.028C187.413 138.001 187.217 137.981 187.014 137.967C186.811 137.94 186.601 137.926 186.384 137.926C185.924 137.926 185.511 137.981 185.145 138.089C184.779 138.197 184.427 138.366 184.089 138.597C183.764 138.813 183.432 139.084 183.094 139.409V146.823H181.062ZM189.797 134.128C189.553 134.128 189.431 134.013 189.431 133.783V132.077C189.431 131.833 189.553 131.711 189.797 131.711H191.3C191.408 131.711 191.489 131.745 191.543 131.813C191.598 131.88 191.625 131.968 191.625 132.077V133.783C191.625 134.013 191.516 134.128 191.3 134.128H189.797ZM189.512 146.823V135.956H191.543V146.823H189.512ZM197.256 146.823L193.315 135.956H195.407L198.474 144.934L201.602 135.956H203.694L199.612 146.823H197.256ZM209.349 146.945C208.198 146.945 207.277 146.775 206.586 146.437C205.909 146.098 205.422 145.53 205.124 144.731C204.84 143.918 204.697 142.801 204.697 141.379C204.697 139.93 204.84 138.807 205.124 138.008C205.422 137.195 205.909 136.626 206.586 136.301C207.263 135.976 208.177 135.814 209.328 135.814C210.33 135.814 211.136 135.922 211.745 136.139C212.368 136.342 212.822 136.714 213.106 137.256C213.404 137.784 213.553 138.522 213.553 139.47C213.553 140.134 213.418 140.662 213.147 141.054C212.89 141.447 212.517 141.731 212.03 141.907C211.556 142.083 210.987 142.171 210.324 142.171H206.729C206.742 142.957 206.83 143.586 206.993 144.06C207.169 144.521 207.473 144.859 207.907 145.076C208.354 145.279 209.003 145.381 209.857 145.381H213.249V146.599C212.666 146.681 212.07 146.755 211.461 146.823C210.852 146.904 210.148 146.945 209.349 146.945ZM206.708 140.892H210.141C210.683 140.892 211.082 140.79 211.339 140.587C211.597 140.384 211.725 140.012 211.725 139.47C211.725 138.928 211.644 138.502 211.481 138.19C211.332 137.879 211.082 137.656 210.73 137.52C210.378 137.385 209.911 137.317 209.328 137.317C208.665 137.317 208.137 137.419 207.744 137.622C207.365 137.825 207.094 138.184 206.932 138.698C206.783 139.213 206.708 139.944 206.708 140.892ZM216.032 146.823V135.956H217.657L218.063 137.134C218.551 136.782 219.126 136.471 219.79 136.2C220.467 135.916 221.164 135.773 221.882 135.773C222.694 135.773 223.344 135.949 223.831 136.301C224.332 136.64 224.691 137.094 224.908 137.662C225.125 138.231 225.233 138.847 225.233 139.511V146.823H223.202V139.754C223.202 139.321 223.114 138.949 222.938 138.637C222.775 138.312 222.545 138.062 222.247 137.886C221.949 137.71 221.584 137.622 221.15 137.622C220.744 137.622 220.365 137.662 220.013 137.744C219.674 137.825 219.349 137.94 219.038 138.089C218.727 138.224 218.402 138.394 218.063 138.597V146.823H216.032ZM99.1915 173.823C98.4603 173.823 97.8509 173.708 97.3635 173.477C96.8896 173.234 96.5375 172.848 96.3073 172.32C96.0906 171.792 95.9891 171.087 96.0026 170.207L96.0839 164.622H94.3574V163.301L96.1245 162.956L96.4292 159.909H98.0338V162.956H100.979V164.622H98.0338V170.187C98.0338 170.607 98.0744 170.945 98.1556 171.203C98.2369 171.46 98.352 171.656 98.5009 171.792C98.6499 171.927 98.8123 172.029 98.9884 172.096C99.1644 172.15 99.3337 172.184 99.4962 172.198L100.837 172.32V173.823H99.1915ZM105.204 173.945C104.405 173.945 103.742 173.708 103.214 173.234C102.699 172.746 102.442 172.076 102.442 171.223V170.37C102.442 169.53 102.726 168.846 103.295 168.318C103.877 167.777 104.75 167.506 105.915 167.506H109.307V166.368C109.307 165.949 109.232 165.597 109.084 165.312C108.948 165.014 108.691 164.791 108.312 164.642C107.933 164.493 107.371 164.419 106.626 164.419H103.295V163.22C103.782 163.112 104.351 163.017 105.001 162.936C105.664 162.855 106.436 162.807 107.316 162.794C108.21 162.794 108.955 162.909 109.551 163.139C110.16 163.356 110.614 163.721 110.912 164.236C111.209 164.737 111.358 165.407 111.358 166.247V173.823H109.754L109.409 172.624C109.327 172.678 109.158 172.78 108.901 172.929C108.643 173.064 108.312 173.213 107.905 173.376C107.513 173.538 107.08 173.674 106.606 173.782C106.145 173.89 105.678 173.945 105.204 173.945ZM106.138 172.462C106.342 172.475 106.578 172.455 106.849 172.401C107.134 172.347 107.411 172.286 107.682 172.218C107.966 172.137 108.224 172.056 108.454 171.974C108.698 171.893 108.894 171.825 109.043 171.771C109.205 171.704 109.293 171.663 109.307 171.649V168.521L106.463 168.643C105.759 168.684 105.251 168.86 104.94 169.171C104.642 169.483 104.493 169.889 104.493 170.39V170.878C104.493 171.27 104.574 171.588 104.737 171.832C104.899 172.062 105.103 172.225 105.346 172.32C105.604 172.414 105.868 172.462 106.138 172.462ZM116.82 178.819C116.129 178.819 115.513 178.718 114.972 178.515C114.444 178.325 114.024 178.027 113.712 177.621C113.401 177.228 113.245 176.741 113.245 176.158V175.712C113.245 175.102 113.415 174.588 113.753 174.168C114.105 173.762 114.545 173.45 115.073 173.234C115.601 173.017 116.15 172.909 116.719 172.909L117.267 173.66C116.901 173.66 116.556 173.714 116.231 173.823C115.92 173.945 115.662 174.127 115.459 174.371C115.27 174.628 115.175 174.953 115.175 175.346V175.732C115.175 176.301 115.364 176.714 115.744 176.971C116.136 177.228 116.671 177.357 117.348 177.357H119.725C120.442 177.357 121.011 177.215 121.431 176.93C121.85 176.659 122.06 176.233 122.06 175.651V175.265C122.06 174.94 121.986 174.655 121.837 174.412C121.702 174.168 121.478 173.978 121.167 173.843C120.855 173.721 120.429 173.66 119.887 173.66H116.881C115.92 173.66 115.188 173.464 114.687 173.071C114.186 172.678 113.936 172.184 113.936 171.588C113.936 171.047 114.092 170.614 114.403 170.289C114.728 169.95 115.182 169.72 115.764 169.598C115.276 169.381 114.89 169.104 114.606 168.765C114.335 168.427 114.146 168.061 114.037 167.668C113.929 167.262 113.875 166.856 113.875 166.45C113.875 165.624 114.044 164.953 114.383 164.439C114.721 163.924 115.209 163.545 115.845 163.301C116.495 163.058 117.267 162.936 118.161 162.936H124.01V164.094L121.796 164.317C121.959 164.439 122.135 164.601 122.324 164.804C122.514 164.994 122.676 165.258 122.812 165.597C122.947 165.935 123.015 166.382 123.015 166.937C123.015 167.519 122.886 168.061 122.629 168.562C122.385 169.063 121.979 169.469 121.41 169.781C120.855 170.092 120.097 170.248 119.136 170.248H117.348C116.834 170.248 116.427 170.322 116.129 170.471C115.832 170.62 115.683 170.884 115.683 171.263C115.683 171.575 115.798 171.792 116.028 171.913C116.258 172.035 116.502 172.096 116.759 172.096H120.192C121.018 172.096 121.708 172.205 122.263 172.421C122.832 172.638 123.259 172.97 123.543 173.416C123.827 173.863 123.97 174.446 123.97 175.163V175.549C123.97 176.578 123.631 177.377 122.954 177.946C122.291 178.528 121.282 178.819 119.928 178.819H116.82ZM117.714 168.684H118.912C119.521 168.684 119.982 168.596 120.293 168.42C120.618 168.23 120.842 167.987 120.964 167.689C121.085 167.391 121.146 167.059 121.146 166.693C121.146 166.152 121.058 165.725 120.882 165.414C120.706 165.089 120.463 164.859 120.151 164.723C119.853 164.574 119.488 164.5 119.054 164.5H117.917C117.226 164.5 116.685 164.656 116.292 164.967C115.913 165.278 115.723 165.813 115.723 166.572C115.723 167.316 115.899 167.858 116.251 168.196C116.603 168.521 117.091 168.684 117.714 168.684ZM128.563 178.819C127.872 178.819 127.256 178.718 126.714 178.515C126.186 178.325 125.766 178.027 125.455 177.621C125.143 177.228 124.988 176.741 124.988 176.158V175.712C124.988 175.102 125.157 174.588 125.496 174.168C125.848 173.762 126.288 173.45 126.816 173.234C127.344 173.017 127.892 172.909 128.461 172.909L129.009 173.66C128.644 173.66 128.298 173.714 127.973 173.823C127.662 173.945 127.405 174.127 127.202 174.371C127.012 174.628 126.917 174.953 126.917 175.346V175.732C126.917 176.301 127.107 176.714 127.486 176.971C127.879 177.228 128.414 177.357 129.091 177.357H131.467C132.185 177.357 132.753 177.215 133.173 176.93C133.593 176.659 133.803 176.233 133.803 175.651V175.265C133.803 174.94 133.728 174.655 133.579 174.412C133.444 174.168 133.221 173.978 132.909 173.843C132.598 173.721 132.171 173.66 131.63 173.66H128.623C127.662 173.66 126.931 173.464 126.43 173.071C125.929 172.678 125.678 172.184 125.678 171.588C125.678 171.047 125.834 170.614 126.145 170.289C126.47 169.95 126.924 169.72 127.506 169.598C127.019 169.381 126.633 169.104 126.349 168.765C126.078 168.427 125.888 168.061 125.78 167.668C125.672 167.262 125.617 166.856 125.617 166.45C125.617 165.624 125.787 164.953 126.125 164.439C126.464 163.924 126.951 163.545 127.588 163.301C128.238 163.058 129.009 162.936 129.903 162.936H135.753V164.094L133.539 164.317C133.701 164.439 133.877 164.601 134.067 164.804C134.256 164.994 134.419 165.258 134.554 165.597C134.69 165.935 134.757 166.382 134.757 166.937C134.757 167.519 134.629 168.061 134.372 168.562C134.128 169.063 133.722 169.469 133.153 169.781C132.598 170.092 131.839 170.248 130.878 170.248H129.091C128.576 170.248 128.17 170.322 127.872 170.471C127.574 170.62 127.425 170.884 127.425 171.263C127.425 171.575 127.54 171.792 127.77 171.913C128.001 172.035 128.244 172.096 128.502 172.096H131.934C132.76 172.096 133.451 172.205 134.006 172.421C134.575 172.638 135.001 172.97 135.286 173.416C135.57 173.863 135.712 174.446 135.712 175.163V175.549C135.712 176.578 135.374 177.377 134.697 177.946C134.033 178.528 133.024 178.819 131.67 178.819H128.563ZM129.456 168.684H130.655C131.264 168.684 131.724 168.596 132.036 168.42C132.361 168.23 132.584 167.987 132.706 167.689C132.828 167.391 132.889 167.059 132.889 166.693C132.889 166.152 132.801 165.725 132.625 165.414C132.449 165.089 132.205 164.859 131.894 164.723C131.596 164.574 131.23 164.5 130.797 164.5H129.659C128.969 164.5 128.427 164.656 128.034 164.967C127.655 165.278 127.466 165.813 127.466 166.572C127.466 167.316 127.642 167.858 127.994 168.196C128.346 168.521 128.833 168.684 129.456 168.684ZM137.888 161.128C137.644 161.128 137.522 161.013 137.522 160.783V159.077C137.522 158.833 137.644 158.711 137.888 158.711H139.391C139.499 158.711 139.581 158.745 139.635 158.813C139.689 158.88 139.716 158.968 139.716 159.077V160.783C139.716 161.013 139.608 161.128 139.391 161.128H137.888ZM137.604 173.823V162.956H139.635V173.823H137.604ZM142.483 173.823V162.956H144.108L144.514 164.134C145.002 163.782 145.577 163.471 146.241 163.2C146.918 162.916 147.615 162.773 148.333 162.773C149.145 162.773 149.795 162.949 150.283 163.301C150.784 163.64 151.142 164.094 151.359 164.662C151.576 165.231 151.684 165.847 151.684 166.511V173.823H149.653V166.754C149.653 166.321 149.565 165.949 149.389 165.637C149.226 165.312 148.996 165.062 148.698 164.886C148.4 164.71 148.035 164.622 147.601 164.622C147.195 164.622 146.816 164.662 146.464 164.744C146.126 164.825 145.801 164.94 145.489 165.089C145.178 165.224 144.853 165.394 144.514 165.597V173.823H142.483ZM157.165 178.819C156.474 178.819 155.858 178.718 155.317 178.515C154.788 178.325 154.369 178.027 154.057 177.621C153.746 177.228 153.59 176.741 153.59 176.158V175.712C153.59 175.102 153.759 174.588 154.098 174.168C154.45 173.762 154.89 173.45 155.418 173.234C155.946 173.017 156.495 172.909 157.063 172.909L157.612 173.66C157.246 173.66 156.901 173.714 156.576 173.823C156.264 173.945 156.007 174.127 155.804 174.371C155.614 174.628 155.52 174.953 155.52 175.346V175.732C155.52 176.301 155.709 176.714 156.088 176.971C156.481 177.228 157.016 177.357 157.693 177.357H160.069C160.787 177.357 161.356 177.215 161.776 176.93C162.195 176.659 162.405 176.233 162.405 175.651V175.265C162.405 174.94 162.331 174.655 162.182 174.412C162.046 174.168 161.823 173.978 161.511 173.843C161.2 173.721 160.774 173.66 160.232 173.66H157.226C156.264 173.66 155.533 173.464 155.032 173.071C154.531 172.678 154.281 172.184 154.281 171.588C154.281 171.047 154.436 170.614 154.748 170.289C155.073 169.95 155.526 169.72 156.109 169.598C155.621 169.381 155.235 169.104 154.951 168.765C154.68 168.427 154.491 168.061 154.382 167.668C154.274 167.262 154.22 166.856 154.22 166.45C154.22 165.624 154.389 164.953 154.728 164.439C155.066 163.924 155.554 163.545 156.19 163.301C156.84 163.058 157.612 162.936 158.505 162.936H164.355V164.094L162.141 164.317C162.304 164.439 162.48 164.601 162.669 164.804C162.859 164.994 163.021 165.258 163.157 165.597C163.292 165.935 163.36 166.382 163.36 166.937C163.36 167.519 163.231 168.061 162.974 168.562C162.73 169.063 162.324 169.469 161.755 169.781C161.2 170.092 160.442 170.248 159.48 170.248H157.693C157.178 170.248 156.772 170.322 156.474 170.471C156.176 170.62 156.027 170.884 156.027 171.263C156.027 171.575 156.143 171.792 156.373 171.913C156.603 172.035 156.847 172.096 157.104 172.096H160.537C161.363 172.096 162.053 172.205 162.608 172.421C163.177 172.638 163.604 172.97 163.888 173.416C164.172 173.863 164.314 174.446 164.314 175.163V175.549C164.314 176.578 163.976 177.377 163.299 177.946C162.635 178.528 161.627 178.819 160.272 178.819H157.165ZM158.059 168.684H159.257C159.866 168.684 160.327 168.596 160.638 168.42C160.963 168.23 161.186 167.987 161.308 167.689C161.43 167.391 161.491 167.059 161.491 166.693C161.491 166.152 161.403 165.725 161.227 165.414C161.051 165.089 160.807 164.859 160.496 164.723C160.198 164.574 159.832 164.5 159.399 164.5H158.262C157.571 164.5 157.029 164.656 156.637 164.967C156.258 165.278 156.068 165.813 156.068 166.572C156.068 167.316 156.244 167.858 156.596 168.196C156.948 168.521 157.436 168.684 158.059 168.684ZM173.693 173.823L170.525 162.956H172.617L174.993 171.934L177.552 162.956H179.279L181.838 171.934L184.113 162.956H186.205L183.077 173.823H180.822L178.385 165.759L175.907 173.823H173.693ZM188.249 161.128C188.006 161.128 187.884 161.013 187.884 160.783V159.077C187.884 158.833 188.006 158.711 188.249 158.711H189.753C189.861 158.711 189.942 158.745 189.996 158.813C190.05 158.88 190.078 158.968 190.078 159.077V160.783C190.078 161.013 189.969 161.128 189.753 161.128H188.249ZM187.965 173.823V162.956H189.996V173.823H187.965ZM196.602 173.823C195.871 173.823 195.262 173.708 194.774 173.477C194.3 173.234 193.948 172.848 193.718 172.32C193.501 171.792 193.4 171.087 193.413 170.207L193.495 164.622H191.768V163.301L193.535 162.956L193.84 159.909H195.444V162.956H198.39V164.622H195.444V170.187C195.444 170.607 195.485 170.945 195.566 171.203C195.648 171.46 195.763 171.656 195.912 171.792C196.061 171.927 196.223 172.029 196.399 172.096C196.575 172.15 196.744 172.184 196.907 172.198L198.247 172.32V173.823H196.602ZM200.441 173.823V158.325H202.473V164.134C202.947 163.782 203.522 163.471 204.199 163.2C204.876 162.916 205.573 162.773 206.291 162.773C207.076 162.773 207.713 162.936 208.2 163.261C208.701 163.586 209.067 164.033 209.297 164.601C209.527 165.157 209.642 165.786 209.642 166.49V173.823H207.611V166.734C207.611 166.314 207.523 165.949 207.347 165.637C207.185 165.312 206.948 165.062 206.636 164.886C206.339 164.71 205.98 164.622 205.56 164.622C205.154 164.622 204.775 164.662 204.422 164.744C204.084 164.825 203.759 164.94 203.448 165.089C203.136 165.238 202.811 165.407 202.473 165.597V173.823H200.441ZM95.9782 200.823C95.247 200.823 94.6376 200.708 94.1502 200.477C93.6762 200.234 93.3242 199.848 93.094 199.32C92.8773 198.792 92.7758 198.087 92.7893 197.207L92.8706 191.622H91.1441V190.301L92.9112 189.956L93.2159 186.909H94.8204V189.956H97.7656V191.622H94.8204V197.187C94.8204 197.607 94.8611 197.945 94.9423 198.203C95.0236 198.46 95.1387 198.656 95.2876 198.792C95.4366 198.927 95.599 199.029 95.7751 199.096C95.9511 199.15 96.1204 199.184 96.2829 199.198L97.6234 199.32V200.823H95.9782ZM99.8175 200.823V185.325H101.849V191.134C102.323 190.782 102.898 190.471 103.575 190.2C104.252 189.916 104.949 189.773 105.667 189.773C106.452 189.773 107.089 189.936 107.576 190.261C108.077 190.586 108.443 191.033 108.673 191.601C108.903 192.157 109.018 192.786 109.018 193.49V200.823H106.987V193.734C106.987 193.314 106.899 192.949 106.723 192.637C106.561 192.312 106.324 192.062 106.012 191.886C105.715 191.71 105.356 191.622 104.936 191.622C104.53 191.622 104.151 191.662 103.798 191.744C103.46 191.825 103.135 191.94 102.824 192.089C102.512 192.238 102.187 192.407 101.849 192.597V200.823H99.8175ZM116.084 200.945C114.933 200.945 114.012 200.775 113.321 200.437C112.644 200.098 112.157 199.53 111.859 198.731C111.575 197.918 111.432 196.801 111.432 195.379C111.432 193.93 111.575 192.807 111.859 192.008C112.157 191.195 112.644 190.626 113.321 190.301C113.998 189.976 114.912 189.814 116.063 189.814C117.065 189.814 117.871 189.922 118.48 190.139C119.103 190.342 119.557 190.714 119.841 191.256C120.139 191.784 120.288 192.522 120.288 193.47C120.288 194.134 120.153 194.662 119.882 195.054C119.625 195.447 119.252 195.731 118.765 195.907C118.291 196.083 117.722 196.171 117.059 196.171H113.463C113.477 196.957 113.565 197.586 113.728 198.06C113.904 198.521 114.208 198.859 114.642 199.076C115.088 199.279 115.738 199.381 116.591 199.381H119.983V200.599C119.401 200.681 118.805 200.755 118.196 200.823C117.587 200.904 116.883 200.945 116.084 200.945ZM113.443 194.892H116.876C117.417 194.892 117.817 194.79 118.074 194.587C118.331 194.384 118.46 194.012 118.46 193.47C118.46 192.928 118.379 192.502 118.216 192.19C118.067 191.879 117.817 191.656 117.465 191.52C117.113 191.385 116.646 191.317 116.063 191.317C115.4 191.317 114.872 191.419 114.479 191.622C114.1 191.825 113.829 192.184 113.667 192.698C113.518 193.213 113.443 193.944 113.443 194.892ZM122.767 200.823V189.956H124.392L124.798 191.134C125.326 190.769 125.908 190.45 126.545 190.18C127.181 189.909 127.912 189.773 128.738 189.773C129.415 189.773 129.991 189.922 130.465 190.22C130.939 190.518 131.298 190.897 131.541 191.358C131.866 191.114 132.259 190.87 132.719 190.626C133.18 190.383 133.674 190.18 134.202 190.017C134.73 189.855 135.238 189.773 135.725 189.773C136.538 189.773 137.195 189.943 137.696 190.281C138.21 190.606 138.576 191.06 138.792 191.642C139.023 192.211 139.138 192.861 139.138 193.592V200.823H137.107V193.754C137.107 193.321 137.019 192.949 136.843 192.637C136.68 192.312 136.443 192.062 136.132 191.886C135.834 191.71 135.468 191.622 135.035 191.622C134.493 191.622 133.938 191.73 133.369 191.947C132.801 192.15 132.279 192.4 131.805 192.698C131.859 192.874 131.9 193.057 131.927 193.247C131.954 193.423 131.968 193.599 131.968 193.775V200.823H129.937V193.754C129.937 193.321 129.849 192.949 129.673 192.637C129.51 192.312 129.28 192.062 128.982 191.886C128.684 191.71 128.319 191.622 127.885 191.622C127.479 191.622 127.1 191.662 126.748 191.744C126.409 191.825 126.084 191.94 125.773 192.089C125.461 192.224 125.136 192.394 124.798 192.597V200.823H122.767ZM144.101 200.945C143.302 200.945 142.639 200.708 142.11 200.234C141.596 199.746 141.339 199.076 141.339 198.223V197.37C141.339 196.53 141.623 195.846 142.192 195.318C142.774 194.777 143.647 194.506 144.812 194.506H148.204V193.368C148.204 192.949 148.129 192.597 147.98 192.312C147.845 192.014 147.588 191.791 147.209 191.642C146.829 191.493 146.267 191.419 145.523 191.419H142.192V190.22C142.679 190.112 143.248 190.017 143.898 189.936C144.561 189.855 145.333 189.807 146.213 189.794C147.107 189.794 147.852 189.909 148.448 190.139C149.057 190.356 149.51 190.721 149.808 191.236C150.106 191.737 150.255 192.407 150.255 193.247V200.823H148.651L148.305 199.624C148.224 199.678 148.055 199.78 147.798 199.929C147.54 200.064 147.209 200.213 146.802 200.376C146.41 200.538 145.976 200.674 145.502 200.782C145.042 200.89 144.575 200.945 144.101 200.945ZM145.035 199.462C145.238 199.475 145.475 199.455 145.746 199.401C146.031 199.347 146.308 199.286 146.579 199.218C146.863 199.137 147.121 199.056 147.351 198.974C147.594 198.893 147.791 198.825 147.94 198.771C148.102 198.704 148.19 198.663 148.204 198.649V195.521L145.36 195.643C144.656 195.684 144.148 195.86 143.837 196.171C143.539 196.483 143.39 196.889 143.39 197.39V197.878C143.39 198.27 143.471 198.588 143.634 198.832C143.796 199.062 143.999 199.225 144.243 199.32C144.5 199.414 144.764 199.462 145.035 199.462ZM156.773 200.823C156.042 200.823 155.433 200.708 154.945 200.477C154.471 200.234 154.119 199.848 153.889 199.32C153.672 198.792 153.571 198.087 153.584 197.207L153.665 191.622H151.939V190.301L153.706 189.956L154.011 186.909H155.615V189.956H158.56V191.622H155.615V197.187C155.615 197.607 155.656 197.945 155.737 198.203C155.818 198.46 155.934 198.656 156.083 198.792C156.231 198.927 156.394 199.029 156.57 199.096C156.746 199.15 156.915 199.184 157.078 199.198L158.418 199.32V200.823H156.773ZM160.897 188.128C160.653 188.128 160.531 188.013 160.531 187.783V186.077C160.531 185.833 160.653 185.711 160.897 185.711H162.4C162.508 185.711 162.589 185.745 162.644 185.813C162.698 185.88 162.725 185.968 162.725 186.077V187.783C162.725 188.013 162.616 188.128 162.4 188.128H160.897ZM160.612 200.823V189.956H162.644V200.823H160.612ZM169.534 200.945C168.897 200.945 168.308 200.863 167.767 200.701C167.239 200.525 166.771 200.234 166.365 199.827C165.973 199.421 165.668 198.859 165.451 198.142C165.235 197.424 165.126 196.517 165.126 195.42C165.126 194.296 165.228 193.375 165.431 192.658C165.634 191.926 165.925 191.358 166.304 190.951C166.697 190.532 167.171 190.241 167.726 190.078C168.281 189.916 168.904 189.834 169.595 189.834C170.163 189.834 170.759 189.861 171.382 189.916C172.019 189.97 172.635 190.058 173.23 190.18V191.378H170.163C169.5 191.378 168.945 191.486 168.498 191.703C168.051 191.906 167.719 192.306 167.503 192.901C167.286 193.484 167.178 194.33 167.178 195.44C167.178 196.51 167.293 197.336 167.523 197.918C167.753 198.487 168.085 198.873 168.518 199.076C168.965 199.279 169.52 199.381 170.184 199.381H173.393V200.538C173.081 200.62 172.709 200.694 172.276 200.762C171.856 200.816 171.409 200.857 170.935 200.884C170.475 200.924 170.008 200.945 169.534 200.945ZM183.018 200.945C182.219 200.945 181.555 200.708 181.027 200.234C180.513 199.746 180.255 199.076 180.255 198.223V197.37C180.255 196.53 180.54 195.846 181.108 195.318C181.691 194.777 182.564 194.506 183.728 194.506H187.12V193.368C187.12 192.949 187.046 192.597 186.897 192.312C186.762 192.014 186.504 191.791 186.125 191.642C185.746 191.493 185.184 191.419 184.439 191.419H181.108V190.22C181.596 190.112 182.165 190.017 182.814 189.936C183.478 189.855 184.25 189.807 185.13 189.794C186.024 189.794 186.768 189.909 187.364 190.139C187.974 190.356 188.427 190.721 188.725 191.236C189.023 191.737 189.172 192.407 189.172 193.247V200.823H187.567L187.222 199.624C187.141 199.678 186.972 199.78 186.714 199.929C186.457 200.064 186.125 200.213 185.719 200.376C185.326 200.538 184.893 200.674 184.419 200.782C183.959 200.89 183.492 200.945 183.018 200.945ZM183.952 199.462C184.155 199.475 184.392 199.455 184.663 199.401C184.947 199.347 185.225 199.286 185.496 199.218C185.78 199.137 186.037 199.056 186.267 198.974C186.511 198.893 186.707 198.825 186.856 198.771C187.019 198.704 187.107 198.663 187.12 198.649V195.521L184.277 195.643C183.573 195.684 183.065 195.86 182.754 196.171C182.456 196.483 182.307 196.889 182.307 197.39V197.878C182.307 198.27 182.388 198.588 182.55 198.832C182.713 199.062 182.916 199.225 183.16 199.32C183.417 199.414 183.681 199.462 183.952 199.462ZM191.932 200.823V189.956H193.557L193.963 191.134C194.451 190.782 195.026 190.471 195.69 190.2C196.367 189.916 197.064 189.773 197.782 189.773C198.594 189.773 199.244 189.949 199.732 190.301C200.233 190.64 200.592 191.094 200.808 191.662C201.025 192.231 201.133 192.847 201.133 193.511V200.823H199.102V193.754C199.102 193.321 199.014 192.949 198.838 192.637C198.676 192.312 198.445 192.062 198.147 191.886C197.85 191.71 197.484 191.622 197.051 191.622C196.644 191.622 196.265 191.662 195.913 191.744C195.575 191.825 195.25 191.94 194.938 192.089C194.627 192.224 194.302 192.394 193.963 192.597V200.823H191.932ZM207.447 200.945C206.567 200.945 205.835 200.755 205.253 200.376C204.684 199.997 204.258 199.408 203.974 198.609C203.689 197.796 203.547 196.754 203.547 195.481C203.547 194.14 203.676 193.057 203.933 192.231C204.204 191.392 204.637 190.782 205.233 190.403C205.829 190.01 206.634 189.814 207.65 189.814C208.219 189.814 208.781 189.875 209.336 189.997C209.904 190.119 210.399 190.254 210.818 190.403V185.325H212.85V200.823H211.184L210.818 199.746C210.602 199.936 210.304 200.125 209.925 200.315C209.546 200.491 209.139 200.64 208.706 200.762C208.273 200.884 207.853 200.945 207.447 200.945ZM208.097 199.279C208.652 199.279 209.153 199.191 209.6 199.015C210.06 198.839 210.466 198.656 210.818 198.467V191.865C210.399 191.744 209.986 191.635 209.579 191.54C209.187 191.432 208.747 191.378 208.259 191.378C207.623 191.378 207.108 191.493 206.716 191.723C206.323 191.953 206.039 192.36 205.863 192.942C205.686 193.524 205.598 194.337 205.598 195.379C205.598 196.341 205.68 197.113 205.842 197.695C206.005 198.263 206.269 198.67 206.634 198.913C207.013 199.157 207.501 199.279 208.097 199.279ZM68.5371 227.945C68.2528 227.945 67.9143 227.938 67.5216 227.924C67.1289 227.911 66.7227 227.884 66.3029 227.843C65.8967 227.816 65.5175 227.782 65.1655 227.741C64.8269 227.701 64.5561 227.653 64.353 227.599V226.381H68.9231C69.3157 226.381 69.6543 226.354 69.9386 226.299C70.223 226.232 70.4396 226.096 70.5886 225.893C70.7511 225.69 70.8323 225.392 70.8323 224.999V224.553C70.8323 224.146 70.6969 223.828 70.4261 223.598C70.1553 223.368 69.7084 223.253 69.0855 223.253H67.5013C66.8648 223.253 66.2961 223.171 65.7951 223.009C65.3076 222.833 64.9217 222.542 64.6374 222.136C64.3666 221.729 64.2312 221.181 64.2312 220.49V219.901C64.2312 219.211 64.3598 218.642 64.6171 218.195C64.8879 217.748 65.3144 217.417 65.8967 217.2C66.4789 216.97 67.2508 216.855 68.2122 216.855C68.6184 216.855 69.0652 216.875 69.5527 216.916C70.0537 216.943 70.5412 216.983 71.0151 217.037C71.489 217.092 71.8682 217.153 72.1525 217.22V218.439H67.8466C67.2508 218.439 66.7904 218.54 66.4654 218.744C66.154 218.947 65.9982 219.333 65.9982 219.901V220.308C65.9982 220.66 66.0727 220.93 66.2217 221.12C66.3706 221.31 66.5805 221.431 66.8513 221.486C67.1357 221.54 67.4674 221.567 67.8466 221.567H69.4715C70.5006 221.567 71.2792 221.811 71.8072 222.298C72.3353 222.772 72.5994 223.442 72.5994 224.309V225.142C72.5994 225.873 72.4301 226.442 72.0916 226.848C71.7531 227.254 71.2792 227.538 70.6698 227.701C70.074 227.863 69.3631 227.945 68.5371 227.945ZM79.2001 227.945C78.0491 227.945 77.1283 227.775 76.4377 227.437C75.7607 227.098 75.2732 226.53 74.9753 225.731C74.691 224.918 74.5488 223.801 74.5488 222.379C74.5488 220.93 74.691 219.807 74.9753 219.008C75.2732 218.195 75.7607 217.626 76.4377 217.301C77.1148 216.976 78.0288 216.814 79.1798 216.814C80.1818 216.814 80.9875 216.922 81.5968 217.139C82.2197 217.342 82.6733 217.714 82.9576 218.256C83.2555 218.784 83.4045 219.522 83.4045 220.47C83.4045 221.134 83.2691 221.662 82.9983 222.054C82.741 222.447 82.3686 222.731 81.8812 222.907C81.4072 223.083 80.8385 223.171 80.175 223.171H76.5799C76.5935 223.957 76.6815 224.586 76.844 225.06C77.02 225.521 77.3247 225.859 77.758 226.076C78.2048 226.279 78.8548 226.381 79.7078 226.381H83.0998V227.599C82.5176 227.681 81.9218 227.755 81.3124 227.823C80.7031 227.904 79.999 227.945 79.2001 227.945ZM76.5596 221.892H79.9922C80.5338 221.892 80.9333 221.79 81.1906 221.587C81.4478 221.384 81.5765 221.012 81.5765 220.47C81.5765 219.928 81.4952 219.502 81.3327 219.19C81.1838 218.879 80.9333 218.656 80.5812 218.52C80.2292 218.385 79.762 218.317 79.1798 218.317C78.5163 218.317 77.9882 218.419 77.5955 218.622C77.2163 218.825 76.9455 219.184 76.783 219.698C76.6341 220.213 76.5596 220.944 76.5596 221.892ZM85.8833 227.823V216.956H87.5082L87.9144 218.134C88.4019 217.782 88.9773 217.471 89.6408 217.2C90.3179 216.916 91.0152 216.773 91.7329 216.773C92.5454 216.773 93.1953 216.949 93.6828 217.301C94.1838 217.64 94.5426 218.094 94.7593 218.662C94.9759 219.231 95.0843 219.847 95.0843 220.511V227.823H93.0531V220.754C93.0531 220.321 92.9651 219.949 92.7891 219.637C92.6266 219.312 92.3964 219.062 92.0985 218.886C91.8006 218.71 91.435 218.622 91.0017 218.622C90.5955 218.622 90.2163 218.662 89.8643 218.744C89.5257 218.825 89.2008 218.94 88.8893 219.089C88.5779 219.224 88.2529 219.394 87.9144 219.597V227.823H85.8833ZM101.621 227.823C100.89 227.823 100.281 227.708 99.7933 227.477C99.3194 227.234 98.9673 226.848 98.7371 226.32C98.5205 225.792 98.4189 225.087 98.4324 224.207L98.5137 218.622H96.7872V217.301L98.5543 216.956L98.859 213.909H100.464V216.956H103.409V218.622H100.464V224.187C100.464 224.607 100.504 224.945 100.585 225.203C100.667 225.46 100.782 225.656 100.931 225.792C101.08 225.927 101.242 226.029 101.418 226.096C101.594 226.15 101.763 226.184 101.926 226.198L103.267 226.32V227.823H101.621ZM105.745 215.128C105.501 215.128 105.379 215.013 105.379 214.783V213.077C105.379 212.833 105.501 212.711 105.745 212.711H107.248C107.356 212.711 107.438 212.745 107.492 212.813C107.546 212.88 107.573 212.968 107.573 213.077V214.783C107.573 215.013 107.465 215.128 107.248 215.128H105.745ZM105.461 227.823V216.956H107.492V227.823H105.461ZM110.34 227.823V216.956H111.965L112.371 218.134C112.899 217.769 113.482 217.45 114.118 217.18C114.754 216.909 115.486 216.773 116.312 216.773C116.989 216.773 117.564 216.922 118.038 217.22C118.512 217.518 118.871 217.897 119.115 218.358C119.44 218.114 119.832 217.87 120.293 217.626C120.753 217.383 121.247 217.18 121.775 217.017C122.303 216.855 122.811 216.773 123.299 216.773C124.111 216.773 124.768 216.943 125.269 217.281C125.783 217.606 126.149 218.06 126.366 218.642C126.596 219.211 126.711 219.861 126.711 220.592V227.823H124.68V220.754C124.68 220.321 124.592 219.949 124.416 219.637C124.253 219.312 124.016 219.062 123.705 218.886C123.407 218.71 123.041 218.622 122.608 218.622C122.066 218.622 121.511 218.73 120.943 218.947C120.374 219.15 119.853 219.4 119.379 219.698C119.433 219.874 119.473 220.057 119.5 220.247C119.528 220.423 119.541 220.599 119.541 220.775V227.823H117.51V220.754C117.51 220.321 117.422 219.949 117.246 219.637C117.083 219.312 116.853 219.062 116.555 218.886C116.257 218.71 115.892 218.622 115.459 218.622C115.052 218.622 114.673 218.662 114.321 218.744C113.983 218.825 113.658 218.94 113.346 219.089C113.035 219.224 112.71 219.394 112.371 219.597V227.823H110.34ZM133.787 227.945C132.636 227.945 131.715 227.775 131.024 227.437C130.347 227.098 129.86 226.53 129.562 225.731C129.277 224.918 129.135 223.801 129.135 222.379C129.135 220.93 129.277 219.807 129.562 219.008C129.86 218.195 130.347 217.626 131.024 217.301C131.701 216.976 132.615 216.814 133.766 216.814C134.768 216.814 135.574 216.922 136.183 217.139C136.806 217.342 137.26 217.714 137.544 218.256C137.842 218.784 137.991 219.522 137.991 220.47C137.991 221.134 137.856 221.662 137.585 222.054C137.327 222.447 136.955 222.731 136.468 222.907C135.994 223.083 135.425 223.171 134.761 223.171H131.166C131.18 223.957 131.268 224.586 131.43 225.06C131.606 225.521 131.911 225.859 132.344 226.076C132.791 226.279 133.441 226.381 134.294 226.381H137.686V227.599C137.104 227.681 136.508 227.755 135.899 227.823C135.29 227.904 134.585 227.945 133.787 227.945ZM131.146 221.892H134.579C135.12 221.892 135.52 221.79 135.777 221.587C136.034 221.384 136.163 221.012 136.163 220.47C136.163 219.928 136.082 219.502 135.919 219.19C135.77 218.879 135.52 218.656 135.168 218.52C134.816 218.385 134.348 218.317 133.766 218.317C133.103 218.317 132.575 218.419 132.182 218.622C131.803 218.825 131.532 219.184 131.37 219.698C131.221 220.213 131.146 220.944 131.146 221.892ZM140.47 227.823V216.956H142.095L142.501 218.134C142.988 217.782 143.564 217.471 144.227 217.2C144.904 216.916 145.602 216.773 146.319 216.773C147.132 216.773 147.782 216.949 148.269 217.301C148.77 217.64 149.129 218.094 149.346 218.662C149.562 219.231 149.671 219.847 149.671 220.511V227.823H147.64V220.754C147.64 220.321 147.552 219.949 147.376 219.637C147.213 219.312 146.983 219.062 146.685 218.886C146.387 218.71 146.021 218.622 145.588 218.622C145.182 218.622 144.803 218.662 144.451 218.744C144.112 218.825 143.787 218.94 143.476 219.089C143.164 219.224 142.839 219.394 142.501 219.597V227.823H140.47ZM156.208 227.823C155.477 227.823 154.867 227.708 154.38 227.477C153.906 227.234 153.554 226.848 153.324 226.32C153.107 225.792 153.005 225.087 153.019 224.207L153.1 218.622H151.374V217.301L153.141 216.956L153.445 213.909H155.05V216.956H157.995V218.622H155.05V224.187C155.05 224.607 155.091 224.945 155.172 225.203C155.253 225.46 155.368 225.656 155.517 225.792C155.666 225.927 155.829 226.029 156.005 226.096C156.181 226.15 156.35 226.184 156.512 226.198L157.853 226.32V227.823H156.208ZM165.727 215.128C165.483 215.128 165.361 215.013 165.361 214.783V213.077C165.361 212.833 165.483 212.711 165.727 212.711H167.23C167.338 212.711 167.419 212.745 167.473 212.813C167.528 212.88 167.555 212.968 167.555 213.077V214.783C167.555 215.013 167.446 215.128 167.23 215.128H165.727ZM165.442 227.823V216.956H167.473V227.823H165.442ZM170.322 227.823V216.956H171.947L172.353 218.134C172.84 217.782 173.416 217.471 174.079 217.2C174.756 216.916 175.454 216.773 176.171 216.773C176.984 216.773 177.634 216.949 178.121 217.301C178.622 217.64 178.981 218.094 179.198 218.662C179.414 219.231 179.523 219.847 179.523 220.511V227.823H177.492V220.754C177.492 220.321 177.404 219.949 177.228 219.637C177.065 219.312 176.835 219.062 176.537 218.886C176.239 218.71 175.873 218.622 175.44 218.622C175.034 218.622 174.655 218.662 174.303 218.744C173.964 218.825 173.639 218.94 173.328 219.089C173.016 219.224 172.691 219.394 172.353 219.597V227.823H170.322ZM186.1 227.945C185.816 227.945 185.478 227.938 185.085 227.924C184.692 227.911 184.286 227.884 183.866 227.843C183.46 227.816 183.081 227.782 182.729 227.741C182.39 227.701 182.119 227.653 181.916 227.599V226.381H186.486C186.879 226.381 187.218 226.354 187.502 226.299C187.786 226.232 188.003 226.096 188.152 225.893C188.314 225.69 188.396 225.392 188.396 224.999V224.553C188.396 224.146 188.26 223.828 187.989 223.598C187.719 223.368 187.272 223.253 186.649 223.253H185.065C184.428 223.253 183.859 223.171 183.358 223.009C182.871 222.833 182.485 222.542 182.201 222.136C181.93 221.729 181.794 221.181 181.794 220.49V219.901C181.794 219.211 181.923 218.642 182.18 218.195C182.451 217.748 182.878 217.417 183.46 217.2C184.042 216.97 184.814 216.855 185.775 216.855C186.182 216.855 186.628 216.875 187.116 216.916C187.617 216.943 188.104 216.983 188.578 217.037C189.052 217.092 189.431 217.153 189.716 217.22V218.439H185.41C184.814 218.439 184.354 218.54 184.029 218.744C183.717 218.947 183.561 219.333 183.561 219.901V220.308C183.561 220.66 183.636 220.93 183.785 221.12C183.934 221.31 184.144 221.431 184.415 221.486C184.699 221.54 185.031 221.567 185.41 221.567H187.035C188.064 221.567 188.842 221.811 189.371 222.298C189.899 222.772 190.163 223.442 190.163 224.309V225.142C190.163 225.873 189.993 226.442 189.655 226.848C189.316 227.254 188.842 227.538 188.233 227.701C187.637 227.863 186.926 227.945 186.1 227.945ZM192.762 215.128C192.518 215.128 192.396 215.013 192.396 214.783V213.077C192.396 212.833 192.518 212.711 192.762 212.711H194.265C194.373 212.711 194.455 212.745 194.509 212.813C194.563 212.88 194.59 212.968 194.59 213.077V214.783C194.59 215.013 194.482 215.128 194.265 215.128H192.762ZM192.478 227.823V216.956H194.509V227.823H192.478ZM200.059 232.819C199.368 232.819 198.752 232.718 198.21 232.515C197.682 232.325 197.262 232.027 196.951 231.621C196.639 231.228 196.484 230.741 196.484 230.158V229.712C196.484 229.102 196.653 228.588 196.992 228.168C197.344 227.762 197.784 227.45 198.312 227.234C198.84 227.017 199.388 226.909 199.957 226.909L200.505 227.66C200.14 227.66 199.794 227.714 199.469 227.823C199.158 227.945 198.901 228.127 198.698 228.371C198.508 228.628 198.413 228.953 198.413 229.346V229.732C198.413 230.301 198.603 230.714 198.982 230.971C199.375 231.228 199.91 231.357 200.587 231.357H202.963C203.681 231.357 204.249 231.215 204.669 230.93C205.089 230.659 205.299 230.233 205.299 229.651V229.265C205.299 228.94 205.224 228.655 205.075 228.412C204.94 228.168 204.717 227.978 204.405 227.843C204.094 227.721 203.667 227.66 203.126 227.66H200.119C199.158 227.66 198.427 227.464 197.926 227.071C197.425 226.678 197.174 226.184 197.174 225.588C197.174 225.047 197.33 224.614 197.641 224.289C197.966 223.95 198.42 223.72 199.002 223.598C198.515 223.381 198.129 223.104 197.845 222.765C197.574 222.427 197.384 222.061 197.276 221.668C197.168 221.262 197.113 220.856 197.113 220.45C197.113 219.624 197.283 218.953 197.621 218.439C197.96 217.924 198.447 217.545 199.084 217.301C199.734 217.058 200.505 216.936 201.399 216.936H207.249V218.094L205.035 218.317C205.197 218.439 205.373 218.601 205.563 218.804C205.752 218.994 205.915 219.258 206.05 219.597C206.186 219.935 206.253 220.382 206.253 220.937C206.253 221.519 206.125 222.061 205.868 222.562C205.624 223.063 205.218 223.469 204.649 223.781C204.094 224.092 203.335 224.248 202.374 224.248H200.587C200.072 224.248 199.666 224.322 199.368 224.471C199.07 224.62 198.921 224.884 198.921 225.263C198.921 225.575 199.036 225.792 199.266 225.913C199.497 226.035 199.74 226.096 199.998 226.096H203.43C204.256 226.096 204.947 226.205 205.502 226.421C206.071 226.638 206.497 226.97 206.782 227.416C207.066 227.863 207.208 228.446 207.208 229.163V229.549C207.208 230.578 206.87 231.377 206.193 231.946C205.529 232.528 204.52 232.819 203.166 232.819H200.059ZM200.952 222.684H202.151C202.76 222.684 203.22 222.596 203.532 222.42C203.857 222.23 204.08 221.987 204.202 221.689C204.324 221.391 204.385 221.059 204.385 220.693C204.385 220.152 204.297 219.725 204.121 219.414C203.945 219.089 203.701 218.859 203.39 218.723C203.092 218.574 202.726 218.5 202.293 218.5H201.155C200.465 218.5 199.923 218.656 199.53 218.967C199.151 219.278 198.962 219.813 198.962 220.572C198.962 221.316 199.138 221.858 199.49 222.196C199.842 222.521 200.329 222.684 200.952 222.684ZM209.1 227.823V212.325H211.131V218.134C211.605 217.782 212.18 217.471 212.857 217.2C213.534 216.916 214.232 216.773 214.949 216.773C215.735 216.773 216.371 216.936 216.858 217.261C217.359 217.586 217.725 218.033 217.955 218.601C218.185 219.157 218.301 219.786 218.301 220.49V227.823H216.269V220.734C216.269 220.314 216.181 219.949 216.005 219.637C215.843 219.312 215.606 219.062 215.294 218.886C214.997 218.71 214.638 218.622 214.218 218.622C213.812 218.622 213.433 218.662 213.081 218.744C212.742 218.825 212.417 218.94 212.106 219.089C211.794 219.238 211.469 219.407 211.131 219.597V227.823H209.1ZM224.838 227.823C224.106 227.823 223.497 227.708 223.01 227.477C222.536 227.234 222.184 226.848 221.953 226.32C221.737 225.792 221.635 225.087 221.649 224.207L221.73 218.622H220.004V217.301L221.771 216.956L222.075 213.909H223.68V216.956H226.625V218.622H223.68V224.187C223.68 224.607 223.72 224.945 223.802 225.203C223.883 225.46 223.998 225.656 224.147 225.792C224.296 225.927 224.458 226.029 224.634 226.096C224.811 226.15 224.98 226.184 225.142 226.198L226.483 226.32V227.823H224.838ZM232.475 227.945C232.191 227.945 231.852 227.938 231.46 227.924C231.067 227.911 230.661 227.884 230.241 227.843C229.835 227.816 229.455 227.782 229.103 227.741C228.765 227.701 228.494 227.653 228.291 227.599V226.381H232.861C233.254 226.381 233.592 226.354 233.877 226.299C234.161 226.232 234.378 226.096 234.527 225.893C234.689 225.69 234.77 225.392 234.77 224.999V224.553C234.77 224.146 234.635 223.828 234.364 223.598C234.093 223.368 233.646 223.253 233.023 223.253H231.439C230.803 223.253 230.234 223.171 229.733 223.009C229.246 222.833 228.86 222.542 228.575 222.136C228.305 221.729 228.169 221.181 228.169 220.49V219.901C228.169 219.211 228.298 218.642 228.555 218.195C228.826 217.748 229.252 217.417 229.835 217.2C230.417 216.97 231.189 216.855 232.15 216.855C232.556 216.855 233.003 216.875 233.491 216.916C233.992 216.943 234.479 216.983 234.953 217.037C235.427 217.092 235.806 217.153 236.09 217.22V218.439H231.785C231.189 218.439 230.728 218.54 230.403 218.744C230.092 218.947 229.936 219.333 229.936 219.901V220.308C229.936 220.66 230.011 220.93 230.16 221.12C230.309 221.31 230.518 221.431 230.789 221.486C231.074 221.54 231.405 221.567 231.785 221.567H233.409C234.439 221.567 235.217 221.811 235.745 222.298C236.273 222.772 236.537 223.442 236.537 224.309V225.142C236.537 225.873 236.368 226.442 236.03 226.848C235.691 227.254 235.217 227.538 234.608 227.701C234.012 227.863 233.301 227.945 232.475 227.945ZM238.995 227.843C238.764 227.843 238.649 227.728 238.649 227.498V225.731C238.649 225.487 238.764 225.365 238.995 225.365H240.152C240.396 225.365 240.518 225.487 240.518 225.731V227.498C240.518 227.62 240.484 227.708 240.416 227.762C240.349 227.816 240.261 227.843 240.152 227.843H238.995Z" fill="#3D4651"/>
<defs>
<filter id="filter0_d_6111_28510" x="0.564117" y="0.594208" width="294.141" height="294.14" filterUnits="userSpaceOnUse" color-interpolation-filters="sRGB">
<feFlood flood-opacity="0" result="BackgroundImageFix"/>
<feColorMatrix in="SourceAlpha" type="matrix" values="0 0 0 0 0 0 0 0 0 0 0 0 0 0 0 0 0 0 127 0" result="hardAlpha"/>
<feOffset/>
<feGaussianBlur stdDeviation="10.6681"/>
<feComposite in2="hardAlpha" operator="out"/>
<feColorMatrix type="matrix" values="0 0 0 0 0 0 0 0 0 0 0 0 0 0 0 0 0 0 0.25 0"/>
<feBlend mode="normal" in2="BackgroundImageFix" result="effect1_dropShadow_6111_28510"/>
<feBlend mode="normal" in="SourceGraphic" in2="effect1_dropShadow_6111_28510" result="shape"/>
</filter>
<clipPath id="clip0_6111_28510">
<rect width="72.3575" height="72.3575" fill="white" transform="translate(110.965 42.0406)"/>
</clipPath>
</defs>
</svg>
