<svg width="316" height="313" viewBox="0 0 316 313" fill="none" xmlns="http://www.w3.org/2000/svg">
<path d="M164.408 298.082L164.325 300.326L164.486 300.332L164.647 300.315L164.408 298.082ZM149.006 297.472L148.772 299.706L148.774 299.706L149.006 297.472ZM27.2074 206.751L29.281 205.888L29.2809 205.888L27.2074 206.751ZM20.0421 181.579L22.2051 180.975L22.2043 180.972L20.0421 181.579ZM19.2698 178.967L17.0366 179.206L17.059 179.415L17.12 179.617L19.2698 178.967ZM17.5641 163.016L15.3189 162.958L15.315 163.107L15.3309 163.255L17.5641 163.016ZM17.9481 148.174L20.1813 147.935L15.7053 148.056L17.9481 148.174ZM17.9487 148.179L15.7155 148.418L20.1915 148.296L17.9487 148.179ZM27.5541 104.15L29.6472 104.964L29.6475 104.964L27.5541 104.15ZM27.5621 100.542L29.6612 99.7432L29.6602 99.7405L27.5621 100.542ZM5.3949 42.968L7.48987 42.1586L7.4762 42.1232L7.46133 42.0883L5.3949 42.968ZM5.25307 42.606L3.17182 43.4502L3.17903 43.4679L3.18649 43.4855L5.25307 42.606ZM4.56525 41.4549L2.33204 41.6937L2.38511 42.1899L2.64338 42.617L4.56525 41.4549ZM4.09498 37.0571L1.93089 36.4563L1.81618 36.8695L1.86177 37.2959L4.09498 37.0571ZM9.99373 29.7468L9.75493 27.5137L9.32455 27.5597L8.94213 27.7623L9.99373 29.7468ZM14.3954 29.2762L14.7646 27.0608L14.4618 27.0103L14.1566 27.043L14.3954 29.2762ZM15.8339 29.5211L16.2061 27.3062L16.2031 27.3057L15.8339 29.5211ZM35.2756 32.7771L34.919 34.9945L34.9215 34.9949L35.2756 32.7771ZM76.4429 39.1911L76.7779 36.9703L76.7728 36.9696L76.4429 39.1911ZM80.9755 38.2085L82.2021 40.0899L82.2058 40.0875L80.9755 38.2085ZM134.434 16.8998L134.059 14.6852L134.048 14.6873L134.434 16.8998ZM136.496 16.2196L136.257 13.9864L136.012 14.0127L135.778 14.0917L136.496 16.2196ZM151.346 14.6317L151.395 12.3863L151.251 12.3831L151.107 12.3985L151.346 14.6317ZM167.87 15.0294L167.721 17.2704L167.722 17.2704L167.87 15.0294ZM260.637 57.4737L262.243 55.9034L262.243 55.9033L260.637 57.4737ZM300.665 147.964L302.906 147.817L302.906 147.817L300.665 147.964ZM201.793 291.297L202.452 293.444L202.453 293.444L201.793 291.297ZM183.659 296.024L183.897 298.257L184.061 298.239L184.221 298.198L183.659 296.024ZM164.408 298.082L164.647 300.315L169.459 299.801L169.221 297.567L168.982 295.334L164.169 295.849L164.408 298.082ZM178.846 296.538L179.085 298.771L183.897 298.257L183.659 296.024L183.42 293.79L178.607 294.305L178.846 296.538ZM183.659 296.024L184.221 298.198C185.719 297.81 187.225 297.436 188.74 297.063L188.203 294.882L187.666 292.702C186.147 293.076 184.621 293.455 183.096 293.849L183.659 296.024ZM197.289 292.588L197.874 294.757C199.402 294.345 200.929 293.911 202.452 293.444L201.793 291.297L201.135 289.15C199.672 289.599 198.194 290.018 196.704 290.42L197.289 292.588ZM201.793 291.297L202.453 293.444C203.723 293.054 204.984 292.646 206.237 292.222L205.516 290.095L204.796 287.968C203.583 288.378 202.362 288.773 201.133 289.15L201.793 291.297ZM212.841 287.378L213.682 289.46C216.146 288.465 218.573 287.403 220.962 286.277L220.004 284.245L219.046 282.214C216.734 283.304 214.385 284.332 212 285.295L212.841 287.378ZM226.976 280.712L228.047 282.686C230.379 281.42 232.669 280.091 234.916 278.701L233.735 276.791L232.554 274.881C230.378 276.226 228.161 277.513 225.904 278.738L226.976 280.712ZM240.265 272.495L241.552 274.336C243.725 272.818 245.852 271.241 247.932 269.609L246.545 267.842L245.158 266.075C243.144 267.657 241.084 269.184 238.979 270.654L240.265 272.495ZM252.556 262.848L254.039 264.535C256.029 262.787 257.969 260.985 259.857 259.133L258.284 257.53L256.711 255.926C254.882 257.721 253.002 259.467 251.074 261.161L252.556 262.848ZM263.711 251.905L265.369 253.42C267.155 251.465 268.886 249.462 270.561 247.415L268.823 245.993L267.084 244.571C265.461 246.555 263.783 248.496 262.053 250.39L263.711 251.905ZM273.605 239.811L275.418 241.136C276.98 238.999 278.483 236.821 279.926 234.602L278.044 233.377L276.161 232.153C274.762 234.303 273.305 236.414 271.792 238.485L273.605 239.811ZM282.126 226.712L284.072 227.833C285.392 225.54 286.65 223.211 287.843 220.848L285.839 219.835L283.834 218.822C282.677 221.112 281.459 223.37 280.179 225.592L282.126 226.712ZM289.17 212.765L291.228 213.666C292.289 211.244 293.285 208.79 294.213 206.309L292.109 205.522L290.005 204.735C289.106 207.139 288.142 209.516 287.113 211.864L289.17 212.765ZM294.643 198.129L296.787 198.798C297.574 196.275 298.293 193.726 298.94 191.155L296.763 190.606L294.585 190.058C293.958 192.547 293.262 195.016 292.499 197.46L294.643 198.129ZM298.458 182.976L300.664 183.401C301.164 180.807 301.593 178.194 301.948 175.565L299.722 175.264L297.496 174.964C297.153 177.509 296.738 180.039 296.253 182.55L298.458 182.976ZM300.547 167.492L302.786 167.666C302.991 165.033 303.121 162.387 303.175 159.729L300.929 159.684L298.684 159.638C298.631 162.209 298.506 164.77 298.308 167.319L300.547 167.492ZM300.865 151.872L303.109 151.789C303.061 150.467 302.993 149.143 302.906 147.817L300.665 147.964L298.424 148.111C298.508 149.394 298.574 150.675 298.621 151.954L300.865 151.872ZM300.665 147.964L302.906 147.817C302.812 146.389 302.701 144.968 302.571 143.555L300.334 143.76L298.098 143.966C298.224 145.34 298.333 146.722 298.424 148.111L300.665 147.964ZM299.34 135.392L301.562 135.067C301.146 132.226 300.654 129.417 300.086 126.639L297.886 127.09L295.685 127.54C296.237 130.233 296.714 132.959 297.118 135.718L299.34 135.392ZM295.956 118.886L298.126 118.308C297.387 115.539 296.569 112.804 295.67 110.104L293.539 110.813L291.408 111.522C292.278 114.135 293.07 116.783 293.786 119.465L295.956 118.886ZM290.632 102.902L292.715 102.062C291.646 99.4119 290.496 96.7976 289.264 94.2198L287.237 95.1885L285.211 96.1572C286.403 98.6501 287.515 101.178 288.549 103.742L290.632 102.902ZM283.365 87.7026L285.327 86.6088C283.941 84.1222 282.473 81.6725 280.924 79.26L279.034 80.4733L277.144 81.6866C278.643 84.0212 280.063 86.3912 281.404 88.7964L283.365 87.7026ZM274.268 73.5238L276.081 72.198C274.407 69.9088 272.655 67.656 270.825 65.4402L269.093 66.8703L267.361 68.3005C269.136 70.4491 270.834 72.6322 272.455 74.8495L274.268 73.5238ZM263.544 60.5284L265.192 59.0026C264.227 57.9607 263.244 56.9276 262.243 55.9034L260.637 57.4737L259.031 59.044C260.004 60.0391 260.959 61.0425 261.896 62.0542L263.544 60.5284ZM260.637 57.4737L262.243 55.9033C261.357 54.9979 260.465 54.1065 259.565 53.2292L257.997 54.8371L256.429 56.4449C257.303 57.2973 258.17 58.1637 259.031 59.0441L260.637 57.4737ZM252.531 49.7589L254.019 48.0764C252.115 46.3929 250.182 44.7689 248.22 43.2044L246.82 44.9603L245.42 46.7162C247.321 48.2327 249.196 49.8077 251.043 51.4413L252.531 49.7589ZM240.869 40.4643L242.175 38.6372C240.111 37.1613 238.016 35.7477 235.892 34.3963L234.686 36.2913L233.481 38.1863C235.536 39.4939 237.564 40.8622 239.563 42.2914L240.869 40.4643ZM228.285 32.4619L229.384 30.5034C227.176 29.2639 224.938 28.0882 222.67 26.9764L221.682 28.9929L220.693 31.0095C222.886 32.0846 225.05 33.2215 227.185 34.4203L228.285 32.4619ZM214.895 25.8971L215.77 23.8285C213.445 22.845 211.09 21.9252 208.707 21.0692L207.948 23.1829L207.189 25.2966C209.494 26.1248 211.772 27.0144 214.02 27.9656L214.895 25.8971ZM200.861 20.854L201.504 18.7022C199.093 17.9816 196.654 17.3233 194.187 16.727L193.66 18.91L193.132 21.0931C195.522 21.6708 197.884 22.3084 200.218 23.006L200.861 20.854ZM186.367 17.3458L186.782 15.1385C184.317 14.6754 181.825 14.2716 179.309 13.9269L179.004 16.1521L178.699 18.3773C181.143 18.712 183.561 19.104 185.953 19.5532L186.367 17.3458ZM171.59 15.3169L171.789 13.0798C170.537 12.9686 169.28 12.8714 168.017 12.7883L167.87 15.0294L167.722 17.2704C168.951 17.3514 170.174 17.4459 171.391 17.554L171.59 15.3169ZM167.87 15.0294L168.018 12.7884C166.613 12.6954 165.212 12.6315 163.815 12.586L163.742 14.8308L163.669 17.0755C165.027 17.1197 166.377 17.1814 167.721 17.2704L167.87 15.0294ZM155.478 14.6938L155.502 12.448C154.126 12.4335 152.759 12.4163 151.395 12.3863L151.346 14.6317L151.297 16.877C152.687 16.9076 154.075 16.925 155.454 16.9396L155.478 14.6938ZM151.346 14.6317L151.107 12.3985L147.395 12.7955L147.634 15.0286L147.872 17.2618L151.585 16.8648L151.346 14.6317ZM140.209 15.8226L139.97 13.5894L136.257 13.9864L136.496 16.2196L136.735 18.4528L140.447 18.0558L140.209 15.8226ZM136.496 16.2196L135.778 14.0917C135.563 14.1643 135.359 14.2412 135.182 14.3088L135.985 16.4061L136.789 18.5034C136.952 18.4409 137.088 18.3903 137.215 18.3475L136.496 16.2196ZM134.962 16.7741L134.321 14.6216C134.212 14.6541 134.127 14.6738 134.059 14.6853L134.434 16.8998L134.808 19.1143C135.096 19.0655 135.363 18.9982 135.603 18.9266L134.962 16.7741ZM134.434 16.8998L134.048 14.6873C132.836 14.8988 131.631 15.1251 130.431 15.3663L130.874 17.5681L131.316 19.77C132.478 19.5364 133.646 19.3171 134.82 19.1122L134.434 16.8998ZM123.812 19.1788L123.256 17.0028C120.871 17.6121 118.511 18.2816 116.174 19.0108L116.843 21.1547L117.512 23.2987C119.774 22.5929 122.059 21.9447 124.368 21.3548L123.812 19.1788ZM109.987 23.4927L109.207 21.3867C106.905 22.2394 104.628 23.1515 102.374 24.1224L103.263 26.1851L104.151 28.2478C106.334 27.3075 108.539 26.4242 110.767 25.5988L109.987 23.4927ZM96.6858 29.2206L95.6929 27.206C93.4983 28.2876 91.327 29.4266 89.1786 30.6221L90.2708 32.5846L91.3629 34.5471C93.4467 33.3875 95.5518 32.2833 97.6786 31.2352L96.6858 29.2206ZM84.0288 36.26L82.8431 34.3526C81.8049 34.998 80.7723 35.657 79.7452 36.3296L80.9755 38.2085L82.2058 40.0875C83.2037 39.4341 84.2066 38.794 85.2146 38.1674L84.0288 36.26ZM80.9755 38.2085L79.7489 36.3271C79.5817 36.4361 79.3655 36.5478 79.1056 36.6493L79.9228 38.7413L80.7401 40.8333C81.2428 40.6369 81.7405 40.3908 82.2021 40.0899L80.9755 38.2085ZM77.6218 39.2397L77.4996 36.9971C77.2201 37.0123 76.9762 37.0002 76.7779 36.9703L76.4429 39.1911L76.1079 41.4119C76.6513 41.4939 77.2054 41.5116 77.7439 41.4823L77.6218 39.2397ZM76.4429 39.1911L76.7728 36.9696C75.6293 36.7997 74.4859 36.629 73.3426 36.4572L73.009 38.6782L72.6754 40.8992C73.8211 41.0713 74.967 41.2425 76.1131 41.4127L76.4429 39.1911ZM66.1436 37.6363L66.4838 35.4163C64.1978 35.066 61.912 34.7126 59.6265 34.3568L59.281 36.576L58.9355 38.7952C61.2242 39.1515 63.5135 39.5054 65.8034 39.8563L66.1436 37.6363ZM52.4206 35.5014L52.7701 33.2828C50.4848 32.9228 48.1995 32.561 45.9142 32.198L45.5619 34.4162L45.2096 36.6343C47.4964 36.9975 49.7835 37.3595 52.0711 37.7199L52.4206 35.5014ZM38.7043 33.3243L39.0581 31.1064C37.9153 30.9241 36.7726 30.7417 35.6297 30.5592L35.2756 32.7771L34.9215 34.9949C36.0644 35.1774 37.2074 35.3598 38.3504 35.5422L38.7043 33.3243ZM35.2756 32.7771L35.6323 30.5596C34.0146 30.2994 32.3974 30.0342 30.7801 29.7657L30.4122 31.9813L30.0443 34.1969C31.6674 34.4664 33.2923 34.7329 34.919 34.9945L35.2756 32.7771ZM20.6931 30.3425L21.0687 28.1283C19.449 27.8534 17.828 27.5788 16.2061 27.3062L15.8339 29.5211L15.4617 31.7359C17.0799 32.0079 18.698 32.2821 20.3174 32.5568L20.6931 30.3425ZM15.8339 29.5211L16.2031 27.3057C16.087 27.2864 15.9702 27.2666 15.8521 27.2464L15.4742 29.4603L15.0962 31.6742C15.218 31.695 15.341 31.7158 15.4647 31.7364L15.8339 29.5211ZM14.7551 29.3369L15.133 27.123C15.0112 27.1022 14.8883 27.0814 14.7646 27.0608L14.3954 29.2762L14.0262 31.4915C14.1422 31.5109 14.2591 31.5307 14.3771 31.5508L14.7551 29.3369ZM14.3954 29.2762L14.1566 27.043L13.0562 27.1607L13.295 29.3938L13.5338 31.627L14.6342 31.5093L14.3954 29.2762ZM11.0941 29.6292L10.8553 27.396L9.75493 27.5137L9.99373 29.7468L10.2325 31.98L11.3329 31.8624L11.0941 29.6292ZM9.99373 29.7468L8.94213 27.7623C8.08967 28.214 7.29617 28.7301 6.56716 29.3137L7.97083 31.0669L9.37446 32.8202C9.86961 32.4238 10.425 32.0601 11.0453 31.7314L9.99373 29.7468ZM4.95429 34.7997L2.94434 33.7976C2.52685 34.6349 2.19012 35.5224 1.93089 36.4563L4.09498 37.0571L6.25908 37.6578C6.44612 36.984 6.68251 36.3669 6.96424 35.8019L4.95429 34.7997ZM4.09498 37.0571L1.86177 37.2959L1.97934 38.3953L4.21255 38.1565L6.44573 37.9177L6.32816 36.8183L4.09498 37.0571ZM4.44768 40.3554L2.21447 40.5942L2.33204 41.6937L4.56525 41.4549L6.79843 41.2161L6.68086 40.1166L4.44768 40.3554ZM4.56525 41.4549L2.64338 42.617C2.72559 42.753 2.80739 42.8779 2.87396 42.9783L4.74613 41.7377L6.61827 40.4971C6.56081 40.4104 6.52016 40.3474 6.48709 40.2927L4.56525 41.4549ZM5.10609 42.3044L3.14666 43.402C3.1682 43.4405 3.17362 43.4546 3.17182 43.4502L5.25307 42.606L7.33429 41.7619C7.24909 41.5517 7.15448 41.3655 7.06552 41.2067L5.10609 42.3044ZM5.25307 42.606L3.18649 43.4855C3.18686 43.4864 3.18949 43.4926 3.19542 43.5079L5.2895 42.6961L7.38358 41.8843C7.3662 41.8395 7.34475 41.7856 7.31962 41.7265L5.25307 42.606ZM5.35844 42.8779L3.26441 43.6898C3.2818 43.7347 3.30328 43.7886 3.32844 43.8477L5.3949 42.968L7.46133 42.0883C7.461 42.0874 7.45841 42.0813 7.45248 42.066L5.35844 42.8779ZM5.3949 42.968L3.2999 43.7774C3.76314 44.9764 4.2264 46.1753 4.68966 47.3742L6.78463 46.5647L8.87959 45.7552C8.41633 44.5563 7.9531 43.3574 7.48987 42.1586L5.3949 42.968ZM9.56402 53.7582L7.46901 54.5675C8.39535 56.9653 9.3215 59.3631 10.2473 61.761L12.3425 60.952L14.4377 60.1431C13.5117 57.7448 12.5854 55.3468 11.659 52.9488L9.56402 53.7582ZM15.119 68.1466L13.0236 68.9548C13.9485 71.3529 14.873 73.7511 15.7967 76.1495L17.8926 75.3423L19.9884 74.5351C19.0644 72.1359 18.1397 69.737 17.2145 67.3383L15.119 68.1466ZM20.6622 82.5395L18.5658 83.3455C19.488 85.7443 20.4094 88.1435 21.3298 90.543L23.4268 89.7387L25.5237 88.9344C24.6029 86.5337 23.6811 84.1334 22.7585 81.7336L20.6622 82.5395ZM26.1854 96.9402L24.0877 97.7426C24.5468 98.9427 25.0055 100.143 25.464 101.343L27.5621 100.542L29.6602 99.7405C29.2015 98.5394 28.7424 97.3385 28.2831 96.1378L26.1854 96.9402ZM27.5621 100.542L25.463 101.341C25.5046 101.45 25.546 101.599 25.5757 101.785L27.7934 101.431L30.0112 101.076C29.9402 100.632 29.8273 100.18 29.6612 99.7432L27.5621 100.542ZM27.7902 103.263L25.574 102.899C25.5438 103.083 25.5021 103.23 25.4607 103.337L27.5541 104.15L29.6475 104.964C29.8179 104.525 29.9336 104.071 30.0065 103.627L27.7902 103.263ZM27.5541 104.15L25.461 103.336C24.9977 104.527 24.5498 105.721 24.1175 106.919L26.23 107.682L28.3425 108.444C28.7623 107.281 29.1972 106.121 29.6472 104.964L27.5541 104.15ZM23.8493 114.838L21.7008 114.184C20.9558 116.63 20.2755 119.091 19.6612 121.567L21.8411 122.108L24.021 122.649C24.616 120.25 25.2754 117.865 25.9978 115.492L23.8493 114.838ZM20.222 129.474L18.0162 129.051C17.5358 131.558 17.123 134.079 16.7791 136.615L19.0047 136.917L21.2303 137.219C21.5631 134.764 21.9626 132.323 22.4278 129.897L20.222 129.474ZM18.1974 144.415L15.9586 144.237C15.857 145.508 15.7727 146.783 15.7058 148.061L17.9487 148.179L20.1915 148.296C20.2563 147.059 20.3379 145.825 20.4362 144.594L18.1974 144.415ZM17.9487 148.179L20.1818 147.94L20.1817 147.939L17.9485 148.178L15.7153 148.416L15.7155 148.418L17.9487 148.179ZM17.9483 148.175L20.1815 147.936L20.1813 147.935L17.9481 148.174L15.7149 148.413L15.7151 148.414L17.9483 148.175ZM17.9481 148.174L15.7053 148.056C15.6391 149.31 15.5898 150.564 15.5512 151.813L17.796 151.883L20.0409 151.952C20.0787 150.727 20.1268 149.508 20.1909 148.292L17.9481 148.174ZM17.6413 159.305L15.3958 159.265C15.3742 160.501 15.3506 161.731 15.3189 162.958L17.5641 163.016L19.8092 163.074C19.8414 161.828 19.8653 160.583 19.8869 159.344L17.6413 159.305ZM17.5641 163.016L15.3309 163.255L15.7573 167.242L17.9905 167.003L20.2237 166.765L19.7973 162.777L17.5641 163.016ZM18.8433 174.979L16.6101 175.218L17.0366 179.206L19.2698 178.967L21.503 178.728L21.0765 174.74L18.8433 174.979ZM19.2698 178.967L17.12 179.617C17.1861 179.835 17.2514 180.051 17.3166 180.267L19.4668 179.619L21.6171 178.97C21.5512 178.752 21.485 178.533 21.4195 178.317L19.2698 178.967ZM19.8548 180.924L17.6982 181.551C17.7598 181.763 17.8204 181.975 17.88 182.187L20.0421 181.579L22.2043 180.972C22.1406 180.745 22.0762 180.52 22.0114 180.297L19.8548 180.924ZM20.0421 181.579L17.8792 182.184C18.1673 183.215 18.443 184.254 18.7118 185.301L20.8872 184.743L23.0626 184.184C22.788 183.114 22.5038 182.043 22.2051 180.975L20.0421 181.579ZM22.4571 191.101L20.2754 191.634C20.7955 193.762 21.3305 195.909 21.9195 198.042L24.0844 197.444L26.2493 196.846C25.6789 194.781 25.157 192.688 24.6388 190.567L22.4571 191.101ZM26.0319 203.695L23.9159 204.448C24.294 205.51 24.698 206.567 25.134 207.614L27.2074 206.751L29.2809 205.888C28.8783 204.921 28.5023 203.938 28.1479 202.942L26.0319 203.695ZM27.2074 206.751L25.1338 207.614C25.6571 208.871 26.1901 210.117 26.7328 211.349L28.7884 210.444L30.8439 209.539C30.3136 208.335 29.7927 207.118 29.281 205.888L27.2074 206.751ZM32.1734 217.711L30.1587 218.703C31.3678 221.158 32.6188 223.558 33.9119 225.905L35.8789 224.821L37.8459 223.737C36.5868 221.452 35.3675 219.112 34.1882 216.718L32.1734 217.711ZM39.9172 231.747L38.0056 232.926C39.4414 235.254 40.9228 237.524 42.4498 239.734L44.2977 238.458L46.1456 237.181C44.6636 235.036 43.2247 232.832 41.8289 230.568L39.9172 231.747ZM49.0337 244.931L47.2584 246.306C48.9327 248.467 50.6556 250.564 52.4272 252.598L54.1207 251.123L55.8143 249.647C54.0999 247.679 52.4314 245.648 50.809 243.555L49.0337 244.931ZM59.5633 257.01L57.9605 258.583C59.8721 260.531 61.8344 262.412 63.8472 264.226L65.3509 262.557L66.8545 260.889C64.9103 259.137 63.0141 257.319 61.1661 255.437L59.5633 257.01ZM71.4686 267.737L70.0715 269.495C72.2015 271.187 74.3824 272.811 76.6141 274.367L77.8985 272.525L79.1829 270.682C77.028 269.18 74.9222 267.612 72.8656 265.978L71.4686 267.737ZM84.6135 276.901L83.4461 278.82C85.7608 280.228 88.1251 281.569 90.539 282.843L91.587 280.857L92.635 278.87C90.3015 277.639 88.0169 276.343 85.781 274.983L84.6135 276.901ZM98.7868 284.384L97.8587 286.429C100.315 287.544 102.817 288.594 105.367 289.579L106.177 287.484L106.986 285.39C104.515 284.435 102.092 283.418 99.715 282.339L98.7868 284.384ZM113.734 290.168L113.04 292.305C115.595 293.135 118.194 293.904 120.836 294.614L121.418 292.445L122.001 290.275C119.432 289.586 116.908 288.838 114.428 288.032L113.734 290.168ZM129.21 294.332L128.735 296.527C131.353 297.094 134.011 297.606 136.709 298.062L137.084 295.848L137.458 293.634C134.827 293.188 132.236 292.689 129.686 292.137L129.21 294.332ZM145.014 297.013L144.735 299.242C146.072 299.409 147.417 299.564 148.772 299.706L149.006 297.472L149.24 295.238C147.915 295.1 146.6 294.949 145.294 294.785L145.014 297.013ZM149.006 297.472L148.774 299.706C150.098 299.844 151.418 299.939 152.731 300.008L152.849 297.765L152.966 295.522C151.712 295.456 150.469 295.366 149.238 295.238L149.006 297.472ZM160.555 297.981L160.512 300.227C161.794 300.252 163.063 300.28 164.325 300.326L164.408 298.082L164.491 295.838C163.188 295.79 161.887 295.761 160.598 295.736L160.555 297.981Z" fill="#16A458"/>
<g filter="url(#filter0_d_6111_28557)">
<path d="M163.831 282.169C159.277 282.001 154.688 282.098 150.156 281.627C98.1927 276.188 62.0659 249.267 42.0175 201.081C39.0605 193.978 37.7422 186.195 35.6559 178.732C35.4361 177.95 35.203 177.183 34.9698 176.413L33.4554 162.25C33.5689 157.856 33.565 153.455 33.7965 149.073L33.797 149.078C34.503 135.585 37.4294 122.573 42.3256 109.986C42.6915 109.045 42.691 107.725 42.3327 106.783C35.8172 89.7244 29.232 72.6977 22.6513 55.6657C22.6058 55.559 22.57 55.4511 22.5246 55.3444C22.3793 54.9863 22.1211 54.6642 21.9144 54.3224L21.4969 50.4179C22.3076 47.4975 24.0611 45.3443 26.734 43.9278L30.6424 43.5099C31.0679 43.5808 31.4942 43.6569 31.9198 43.7278C37.6721 44.6946 43.4179 45.6911 49.1805 46.6179C61.3574 48.5621 73.5346 50.5016 85.7314 52.3127C87.0111 52.5057 88.6692 52.1484 89.7553 51.4405C104.299 41.9176 120.07 35.5144 137.218 32.5211C137.843 32.4153 138.44 32.1235 139.05 31.9176L152.234 30.5077C157.127 30.6154 162.028 30.5372 166.905 30.86C199.12 32.9809 226.72 45.4901 249.268 68.5447C271.058 90.8265 282.764 117.826 284.807 148.886C288.542 205.911 251.609 259.375 197.023 276.145C191.727 277.769 186.292 278.952 180.923 280.341L163.831 282.169Z" fill="white"/>
</g>
<g clip-path="url(#clip0_6111_28557)">
<path d="M143.814 83.6961C142.346 79.3201 145.768 75.2769 150.341 76.4217C153.26 77.1524 154.565 79.726 154.363 82.5838C154.33 83.0385 153.982 83.5013 154.241 83.891L161.644 90.3454C163.436 89.6066 165.326 89.493 167.101 90.3454L167.75 89.9395L174.796 83.7124C174.934 83.4931 174.488 82.0074 174.488 81.5203C174.488 76.0157 181.599 73.7749 184.664 78.224C187.729 82.6731 183.651 88.2508 178.583 86.8056C178.169 86.692 177.586 86.2779 177.261 86.4159L169.891 93.0246C170.758 95.6064 169.915 98.513 167.507 99.9013C163.25 102.353 158.263 98.6997 159.139 93.8934C159.187 93.6417 159.52 93.0246 159.406 92.8541L151.841 86.351C150.495 87.171 148.833 87.2603 147.349 86.7732C146.952 86.6432 146.514 86.1642 146.133 86.4322L138.908 92.846C138.924 93.6173 139.232 94.3805 139.216 95.1518C139.103 100.388 132.502 102.621 129.259 98.586C126.015 94.551 129.729 88.3401 135.032 89.8339C135.413 89.9395 136.167 90.4266 136.475 90.2886L143.805 83.6799L143.814 83.6961Z" fill="#16A458"/>
<path d="M154.606 95.2148L154.606 133.519L143.473 133.519L143.473 95.3935L143.652 95.2148L154.606 95.2148Z" fill="#16A458"/>
<path d="M185.516 133.519L174.383 133.519L174.383 95.2148L185.338 95.2148L185.516 95.3935L185.516 133.519Z" fill="#16A458"/>
<path d="M139.21 108.734L128.077 108.734L128.077 133.521L139.21 133.521L139.21 108.734Z" fill="#16A458"/>
<path d="M170.003 108.734L158.87 108.734L158.87 133.521L170.003 133.521L170.003 108.734Z" fill="#16A458"/>
</g>
<circle cx="264.036" cy="56.7079" r="25.2198" fill="white" stroke="#16A458" stroke-width="4.58543"/>
<path d="M260.009 65.4658C259.488 65.4654 258.983 65.2847 258.58 64.9542L251.84 59.4326C250.918 58.6319 250.8 57.2435 251.574 56.2989C252.347 55.3544 253.732 55.1963 254.698 55.942L259.919 60.2149L274.965 46.3581C275.53 45.6857 276.434 45.4026 277.282 45.6326C278.13 45.8625 278.768 46.5637 278.916 47.4297C279.064 48.2957 278.697 49.1691 277.974 49.6681L261.544 64.864C261.128 65.2535 260.579 65.4689 260.009 65.4658Z" fill="#16A458" stroke="#16A458" stroke-width="2.25681"/>
<path d="M85.0018 170.188C84.1081 170.188 83.3295 170.087 82.666 169.884C82.0025 169.68 81.4473 169.315 81.0005 168.787C80.5536 168.245 80.2219 167.473 80.0052 166.471C79.7886 165.456 79.6802 164.142 79.6802 162.531C79.6802 161.014 79.7886 159.762 80.0052 158.773C80.2354 157.785 80.5739 157.013 81.0208 156.458C81.4812 155.903 82.0499 155.517 82.7269 155.3C83.404 155.083 84.1893 154.975 85.083 154.975C85.584 154.975 86.0986 155.002 86.6267 155.056C87.1683 155.111 87.6829 155.185 88.1703 155.28C88.6714 155.361 89.1182 155.456 89.5109 155.564V157.108C89.2671 157.067 88.9354 157.027 88.5156 156.986C88.0959 156.932 87.6219 156.891 87.0938 156.864C86.5658 156.823 86.0173 156.803 85.4486 156.803C84.7716 156.803 84.1961 156.884 83.7222 157.047C83.2482 157.196 82.8623 157.48 82.5644 157.9C82.2665 158.306 82.0499 158.888 81.9145 159.647C81.7791 160.391 81.7114 161.36 81.7114 162.551C81.7114 163.756 81.7723 164.745 81.8942 165.517C82.0296 166.275 82.2395 166.864 82.5238 167.284C82.8082 167.69 83.1873 167.974 83.6612 168.137C84.1352 168.286 84.7242 168.36 85.4283 168.36C86.4439 168.36 87.2766 168.333 87.9266 168.279C88.5766 168.225 89.1047 168.171 89.5109 168.117V169.68C89.1047 169.775 88.6578 169.863 88.1703 169.945C87.6829 170.026 87.1683 170.087 86.6267 170.127C86.0986 170.168 85.557 170.188 85.0018 170.188ZM94.9956 170.188C93.98 170.188 93.1879 169.917 92.6191 169.376C92.064 168.821 91.7864 167.981 91.7864 166.857V159.2H93.8175V166.309C93.8175 167.121 94.0003 167.67 94.3659 167.954C94.745 168.238 95.2731 168.381 95.9502 168.381C96.4918 168.381 97.0064 168.299 97.4938 168.137C97.9948 167.961 98.4823 167.724 98.9562 167.426V159.2H100.987V170.066H99.3625L98.9562 168.909C98.4282 169.247 97.8188 169.545 97.1282 169.802C96.4512 170.06 95.7403 170.188 94.9956 170.188ZM107.585 170.188C107.301 170.188 106.962 170.182 106.57 170.168C106.177 170.154 105.771 170.127 105.351 170.087C104.945 170.06 104.566 170.026 104.214 169.985C103.875 169.945 103.604 169.897 103.401 169.843V168.624H107.971C108.364 168.624 108.702 168.597 108.987 168.543C109.271 168.475 109.488 168.34 109.637 168.137C109.799 167.934 109.881 167.636 109.881 167.243V166.796C109.881 166.39 109.745 166.072 109.474 165.842C109.203 165.611 108.757 165.496 108.134 165.496H106.549C105.913 165.496 105.344 165.415 104.843 165.253C104.356 165.077 103.97 164.785 103.686 164.379C103.415 163.973 103.279 163.425 103.279 162.734V162.145C103.279 161.454 103.408 160.886 103.665 160.439C103.936 159.992 104.363 159.66 104.945 159.444C105.527 159.213 106.299 159.098 107.26 159.098C107.667 159.098 108.113 159.119 108.601 159.159C109.102 159.186 109.589 159.227 110.063 159.281C110.537 159.335 110.916 159.396 111.201 159.464V160.683H106.895C106.299 160.683 105.839 160.784 105.514 160.987C105.202 161.19 105.046 161.576 105.046 162.145V162.551C105.046 162.903 105.121 163.174 105.27 163.364C105.419 163.553 105.629 163.675 105.9 163.729C106.184 163.783 106.516 163.811 106.895 163.811H108.52C109.549 163.811 110.327 164.054 110.855 164.542C111.384 165.016 111.648 165.686 111.648 166.553V167.385C111.648 168.117 111.478 168.685 111.14 169.091C110.801 169.498 110.327 169.782 109.718 169.945C109.122 170.107 108.411 170.188 107.585 170.188ZM117.72 170.066C116.989 170.066 116.38 169.951 115.892 169.721C115.418 169.477 115.066 169.091 114.836 168.563C114.619 168.035 114.518 167.331 114.531 166.451L114.613 160.865H112.886V159.545L114.653 159.2L114.958 156.153H116.562V159.2H119.508V160.865H116.562V166.431C116.562 166.85 116.603 167.189 116.684 167.446C116.766 167.704 116.881 167.9 117.03 168.035C117.179 168.171 117.341 168.272 117.517 168.34C117.693 168.394 117.862 168.428 118.025 168.442L119.365 168.563V170.066H117.72ZM125.987 170.188C125.161 170.188 124.444 170.1 123.834 169.924C123.239 169.748 122.744 169.457 122.352 169.051C121.959 168.631 121.668 168.062 121.478 167.345C121.289 166.627 121.194 165.72 121.194 164.623C121.194 163.486 121.289 162.558 121.478 161.84C121.668 161.109 121.959 160.54 122.352 160.134C122.744 159.728 123.245 159.45 123.855 159.301C124.464 159.139 125.175 159.058 125.987 159.058C126.8 159.058 127.511 159.139 128.12 159.301C128.729 159.464 129.23 159.748 129.623 160.155C130.016 160.561 130.307 161.129 130.496 161.861C130.686 162.578 130.781 163.499 130.781 164.623C130.781 165.733 130.686 166.654 130.496 167.385C130.307 168.103 130.016 168.665 129.623 169.071C129.244 169.477 128.75 169.769 128.14 169.945C127.531 170.107 126.813 170.188 125.987 170.188ZM125.987 168.523C126.434 168.523 126.827 168.482 127.165 168.401C127.517 168.32 127.809 168.15 128.039 167.893C128.269 167.622 128.445 167.223 128.567 166.695C128.689 166.167 128.75 165.469 128.75 164.603C128.75 163.736 128.689 163.045 128.567 162.531C128.445 162.003 128.269 161.61 128.039 161.353C127.809 161.096 127.517 160.926 127.165 160.845C126.827 160.75 126.434 160.703 125.987 160.703C125.527 160.703 125.121 160.75 124.769 160.845C124.43 160.926 124.146 161.096 123.916 161.353C123.699 161.61 123.53 162.003 123.408 162.531C123.299 163.045 123.245 163.736 123.245 164.603C123.245 165.469 123.299 166.167 123.408 166.695C123.53 167.223 123.699 167.622 123.916 167.893C124.146 168.15 124.43 168.32 124.769 168.401C125.121 168.482 125.527 168.523 125.987 168.523ZM133.262 170.066V159.2H134.887L135.293 160.378C135.821 160.012 136.404 159.694 137.04 159.423C137.677 159.152 138.408 159.017 139.234 159.017C139.911 159.017 140.486 159.166 140.96 159.464C141.434 159.762 141.793 160.141 142.037 160.601C142.362 160.358 142.754 160.114 143.215 159.87C143.675 159.626 144.169 159.423 144.697 159.261C145.226 159.098 145.733 159.017 146.221 159.017C147.033 159.017 147.69 159.186 148.191 159.525C148.706 159.85 149.071 160.303 149.288 160.886C149.518 161.454 149.633 162.104 149.633 162.836V170.066H147.602V162.998C147.602 162.565 147.514 162.192 147.338 161.881C147.175 161.556 146.939 161.305 146.627 161.129C146.329 160.953 145.964 160.865 145.53 160.865C144.989 160.865 144.433 160.974 143.865 161.19C143.296 161.394 142.775 161.644 142.301 161.942C142.355 162.118 142.396 162.301 142.423 162.49C142.45 162.666 142.463 162.842 142.463 163.018V170.066H140.432V162.998C140.432 162.565 140.344 162.192 140.168 161.881C140.006 161.556 139.775 161.305 139.478 161.129C139.18 160.953 138.814 160.865 138.381 160.865C137.974 160.865 137.595 160.906 137.243 160.987C136.905 161.069 136.58 161.184 136.268 161.333C135.957 161.468 135.632 161.637 135.293 161.84V170.066H133.262ZM156.709 170.188C155.558 170.188 154.637 170.019 153.946 169.68C153.269 169.342 152.782 168.773 152.484 167.974C152.2 167.162 152.057 166.045 152.057 164.623C152.057 163.174 152.2 162.05 152.484 161.251C152.782 160.439 153.269 159.87 153.946 159.545C154.623 159.22 155.537 159.058 156.688 159.058C157.69 159.058 158.496 159.166 159.105 159.383C159.728 159.586 160.182 159.958 160.466 160.5C160.764 161.028 160.913 161.766 160.913 162.714C160.913 163.377 160.778 163.905 160.507 164.298C160.25 164.691 159.877 164.975 159.39 165.151C158.916 165.327 158.347 165.415 157.684 165.415H154.089C154.102 166.2 154.19 166.83 154.353 167.304C154.529 167.764 154.833 168.103 155.267 168.32C155.713 168.523 156.363 168.624 157.217 168.624H160.609V169.843C160.026 169.924 159.43 169.999 158.821 170.066C158.212 170.148 157.508 170.188 156.709 170.188ZM154.068 164.136H157.501C158.043 164.136 158.442 164.034 158.699 163.831C158.957 163.628 159.085 163.255 159.085 162.714C159.085 162.172 159.004 161.746 158.841 161.434C158.692 161.123 158.442 160.899 158.09 160.764C157.738 160.628 157.271 160.561 156.688 160.561C156.025 160.561 155.497 160.662 155.104 160.865C154.725 161.069 154.454 161.427 154.292 161.942C154.143 162.456 154.068 163.188 154.068 164.136ZM163.392 170.066V159.2H164.956L165.423 161.028C165.883 160.473 166.398 160.006 166.967 159.626C167.535 159.247 168.199 159.058 168.957 159.058C169.133 159.058 169.303 159.071 169.465 159.098C169.627 159.112 169.783 159.139 169.932 159.18V161.272C169.743 161.245 169.546 161.224 169.343 161.211C169.14 161.184 168.93 161.17 168.713 161.17C168.253 161.17 167.84 161.224 167.474 161.333C167.109 161.441 166.757 161.61 166.418 161.84C166.093 162.057 165.762 162.328 165.423 162.653V170.066H163.392ZM177.521 157.372C177.278 157.372 177.156 157.257 177.156 157.027V155.32C177.156 155.077 177.278 154.955 177.521 154.955H179.024C179.133 154.955 179.214 154.989 179.268 155.056C179.322 155.124 179.349 155.212 179.349 155.32V157.027C179.349 157.257 179.241 157.372 179.024 157.372H177.521ZM177.237 170.066V159.2H179.268V170.066H177.237ZM182.116 170.066V159.2H183.741L184.147 160.378C184.635 160.026 185.21 159.714 185.874 159.444C186.551 159.159 187.248 159.017 187.966 159.017C188.778 159.017 189.428 159.193 189.916 159.545C190.417 159.884 190.776 160.337 190.992 160.906C191.209 161.475 191.317 162.091 191.317 162.754V170.066H189.286V162.998C189.286 162.565 189.198 162.192 189.022 161.881C188.86 161.556 188.63 161.305 188.332 161.129C188.034 160.953 187.668 160.865 187.235 160.865C186.829 160.865 186.449 160.906 186.097 160.987C185.759 161.069 185.434 161.184 185.122 161.333C184.811 161.468 184.486 161.637 184.147 161.84V170.066H182.116ZM197.895 170.188C197.611 170.188 197.272 170.182 196.879 170.168C196.487 170.154 196.081 170.127 195.661 170.087C195.255 170.06 194.875 170.026 194.523 169.985C194.185 169.945 193.914 169.897 193.711 169.843V168.624H198.281C198.674 168.624 199.012 168.597 199.297 168.543C199.581 168.475 199.798 168.34 199.946 168.137C200.109 167.934 200.19 167.636 200.19 167.243V166.796C200.19 166.39 200.055 166.072 199.784 165.842C199.513 165.611 199.066 165.496 198.443 165.496H196.859C196.223 165.496 195.654 165.415 195.153 165.253C194.666 165.077 194.28 164.785 193.995 164.379C193.724 163.973 193.589 163.425 193.589 162.734V162.145C193.589 161.454 193.718 160.886 193.975 160.439C194.246 159.992 194.672 159.66 195.255 159.444C195.837 159.213 196.609 159.098 197.57 159.098C197.976 159.098 198.423 159.119 198.911 159.159C199.412 159.186 199.899 159.227 200.373 159.281C200.847 159.335 201.226 159.396 201.51 159.464V160.683H197.204C196.609 160.683 196.148 160.784 195.823 160.987C195.512 161.19 195.356 161.576 195.356 162.145V162.551C195.356 162.903 195.431 163.174 195.58 163.364C195.728 163.553 195.938 163.675 196.209 163.729C196.494 163.783 196.825 163.811 197.204 163.811H198.829C199.858 163.811 200.637 164.054 201.165 164.542C201.693 165.016 201.957 165.686 201.957 166.553V167.385C201.957 168.117 201.788 168.685 201.45 169.091C201.111 169.498 200.637 169.782 200.028 169.945C199.432 170.107 198.721 170.188 197.895 170.188ZM204.557 157.372C204.313 157.372 204.191 157.257 204.191 157.027V155.32C204.191 155.077 204.313 154.955 204.557 154.955H206.06C206.168 154.955 206.249 154.989 206.303 155.056C206.358 155.124 206.385 155.212 206.385 155.32V157.027C206.385 157.257 206.276 157.372 206.06 157.372H204.557ZM204.272 170.066V159.2H206.303V170.066H204.272ZM211.853 175.063C211.163 175.063 210.546 174.961 210.005 174.758C209.477 174.569 209.057 174.271 208.746 173.865C208.434 173.472 208.278 172.984 208.278 172.402V171.955C208.278 171.346 208.448 170.831 208.786 170.412C209.138 170.005 209.578 169.694 210.106 169.477C210.634 169.261 211.183 169.152 211.752 169.152L212.3 169.904C211.934 169.904 211.589 169.958 211.264 170.066C210.953 170.188 210.695 170.371 210.492 170.615C210.303 170.872 210.208 171.197 210.208 171.59V171.976C210.208 172.544 210.397 172.957 210.777 173.215C211.169 173.472 211.704 173.601 212.381 173.601H214.758C215.475 173.601 216.044 173.458 216.464 173.174C216.884 172.903 217.093 172.477 217.093 171.894V171.509C217.093 171.184 217.019 170.899 216.87 170.655C216.735 170.412 216.511 170.222 216.2 170.087C215.888 169.965 215.462 169.904 214.92 169.904H211.914C210.953 169.904 210.221 169.708 209.72 169.315C209.219 168.922 208.969 168.428 208.969 167.832C208.969 167.291 209.125 166.857 209.436 166.532C209.761 166.194 210.215 165.964 210.797 165.842C210.309 165.625 209.924 165.347 209.639 165.009C209.368 164.67 209.179 164.305 209.07 163.912C208.962 163.506 208.908 163.1 208.908 162.693C208.908 161.867 209.077 161.197 209.416 160.683C209.754 160.168 210.242 159.789 210.878 159.545C211.528 159.301 212.3 159.18 213.194 159.18H219.043V160.337L216.829 160.561C216.992 160.683 217.168 160.845 217.357 161.048C217.547 161.238 217.71 161.502 217.845 161.84C217.98 162.179 218.048 162.626 218.048 163.181C218.048 163.763 217.919 164.305 217.662 164.806C217.418 165.307 217.012 165.713 216.443 166.024C215.888 166.336 215.13 166.492 214.169 166.492H212.381C211.867 166.492 211.46 166.566 211.163 166.715C210.865 166.864 210.716 167.128 210.716 167.507C210.716 167.819 210.831 168.035 211.061 168.157C211.291 168.279 211.535 168.34 211.792 168.34H215.225C216.051 168.34 216.741 168.448 217.297 168.665C217.865 168.882 218.292 169.213 218.576 169.66C218.861 170.107 219.003 170.689 219.003 171.407V171.793C219.003 172.822 218.664 173.621 217.987 174.19C217.324 174.772 216.315 175.063 214.961 175.063H211.853ZM212.747 164.928H213.945C214.555 164.928 215.015 164.84 215.326 164.664C215.651 164.474 215.875 164.23 215.997 163.932C216.118 163.635 216.179 163.303 216.179 162.937C216.179 162.396 216.091 161.969 215.915 161.658C215.739 161.333 215.496 161.102 215.184 160.967C214.886 160.818 214.521 160.744 214.087 160.744H212.95C212.259 160.744 211.718 160.899 211.325 161.211C210.946 161.522 210.756 162.057 210.756 162.815C210.756 163.56 210.932 164.102 211.284 164.44C211.636 164.765 212.124 164.928 212.747 164.928ZM220.894 170.066V154.569H222.925V160.378C223.399 160.026 223.975 159.714 224.652 159.444C225.329 159.159 226.026 159.017 226.744 159.017C227.529 159.017 228.166 159.18 228.653 159.505C229.154 159.83 229.52 160.276 229.75 160.845C229.98 161.4 230.095 162.03 230.095 162.734V170.066H228.064V162.978C228.064 162.558 227.976 162.192 227.8 161.881C227.638 161.556 227.401 161.305 227.089 161.129C226.791 160.953 226.432 160.865 226.013 160.865C225.606 160.865 225.227 160.906 224.875 160.987C224.537 161.069 224.212 161.184 223.9 161.333C223.589 161.482 223.264 161.651 222.925 161.84V170.066H220.894ZM236.632 170.066C235.901 170.066 235.292 169.951 234.804 169.721C234.33 169.477 233.978 169.091 233.748 168.563C233.531 168.035 233.43 167.331 233.443 166.451L233.525 160.865H231.798V159.545L233.565 159.2L233.87 156.153H235.475V159.2H238.42V160.865H235.475V166.431C235.475 166.85 235.515 167.189 235.596 167.446C235.678 167.704 235.793 167.9 235.942 168.035C236.091 168.171 236.253 168.272 236.429 168.34C236.605 168.394 236.774 168.428 236.937 168.442L238.277 168.563V170.066H236.632ZM244.27 170.188C243.985 170.188 243.647 170.182 243.254 170.168C242.861 170.154 242.455 170.127 242.035 170.087C241.629 170.06 241.25 170.026 240.898 169.985C240.56 169.945 240.289 169.897 240.086 169.843V168.624H244.656C245.048 168.624 245.387 168.597 245.671 168.543C245.956 168.475 246.172 168.34 246.321 168.137C246.484 167.934 246.565 167.636 246.565 167.243V166.796C246.565 166.39 246.429 166.072 246.159 165.842C245.888 165.611 245.441 165.496 244.818 165.496H243.234C242.597 165.496 242.029 165.415 241.528 165.253C241.04 165.077 240.654 164.785 240.37 164.379C240.099 163.973 239.964 163.425 239.964 162.734V162.145C239.964 161.454 240.092 160.886 240.35 160.439C240.62 159.992 241.047 159.66 241.629 159.444C242.212 159.213 242.983 159.098 243.945 159.098C244.351 159.098 244.798 159.119 245.285 159.159C245.786 159.186 246.274 159.227 246.748 159.281C247.222 159.335 247.601 159.396 247.885 159.464V160.683H243.579C242.983 160.683 242.523 160.784 242.198 160.987C241.887 161.19 241.731 161.576 241.731 162.145V162.551C241.731 162.903 241.805 163.174 241.954 163.364C242.103 163.553 242.313 163.675 242.584 163.729C242.868 163.783 243.2 163.811 243.579 163.811H245.204C246.233 163.811 247.012 164.054 247.54 164.542C248.068 165.016 248.332 165.686 248.332 166.553V167.385C248.332 168.117 248.163 168.685 247.824 169.091C247.486 169.498 247.012 169.782 246.402 169.945C245.807 170.107 245.096 170.188 244.27 170.188ZM91.1832 197.188C90.3843 197.188 89.7208 196.951 89.1927 196.477C88.6782 195.99 88.4209 195.32 88.4209 194.467V193.613C88.4209 192.774 88.7053 192.09 89.274 191.562C89.8562 191.02 90.7296 190.75 91.8941 190.75H95.2861V189.612C95.2861 189.192 95.2116 188.84 95.0627 188.556C94.9273 188.258 94.67 188.035 94.2908 187.886C93.9117 187.737 93.3498 187.662 92.605 187.662H89.274V186.464C89.7614 186.356 90.3302 186.261 90.9801 186.18C91.6436 186.098 92.4154 186.051 93.2956 186.037C94.1893 186.037 94.934 186.152 95.5298 186.383C96.1392 186.599 96.5928 186.965 96.8907 187.479C97.1886 187.981 97.3375 188.651 97.3375 189.49V197.066H95.7329L95.3877 195.868C95.3064 195.922 95.1371 196.024 94.8799 196.173C94.6226 196.308 94.2908 196.457 93.8846 196.62C93.4919 196.782 93.0586 196.917 92.5847 197.026C92.1243 197.134 91.6572 197.188 91.1832 197.188ZM92.1175 195.706C92.3207 195.719 92.5576 195.699 92.8284 195.645C93.1128 195.59 93.3904 195.53 93.6612 195.462C93.9456 195.381 94.2028 195.299 94.433 195.218C94.6768 195.137 94.8731 195.069 95.0221 195.015C95.1845 194.947 95.2726 194.907 95.2861 194.893V191.765L92.4425 191.887C91.7384 191.928 91.2306 192.104 90.9192 192.415C90.6213 192.727 90.4723 193.133 90.4723 193.634V194.121C90.4723 194.514 90.5536 194.832 90.7161 195.076C90.8786 195.306 91.0817 195.469 91.3254 195.563C91.5827 195.658 91.8467 195.706 92.1175 195.706ZM103.124 197.087C102.461 197.087 101.899 196.972 101.438 196.741C100.991 196.511 100.653 196.146 100.423 195.645C100.206 195.13 100.098 194.439 100.098 193.573V181.569H102.129V193.309C102.129 193.878 102.183 194.318 102.291 194.629C102.413 194.927 102.576 195.137 102.779 195.259C102.996 195.381 103.246 195.462 103.53 195.502L104.546 195.624V197.087H103.124ZM106.472 184.372C106.228 184.372 106.106 184.257 106.106 184.027V182.32C106.106 182.077 106.228 181.955 106.472 181.955H107.975C108.083 181.955 108.164 181.989 108.218 182.056C108.272 182.124 108.3 182.212 108.3 182.32V184.027C108.3 184.257 108.191 184.372 107.975 184.372H106.472ZM106.187 197.066V186.2H108.218V197.066H106.187ZM113.768 202.063C113.077 202.063 112.461 201.961 111.92 201.758C111.392 201.569 110.972 201.271 110.66 200.865C110.349 200.472 110.193 199.984 110.193 199.402V198.955C110.193 198.346 110.363 197.831 110.701 197.412C111.053 197.005 111.493 196.694 112.021 196.477C112.549 196.261 113.098 196.152 113.667 196.152L114.215 196.904C113.849 196.904 113.504 196.958 113.179 197.066C112.868 197.188 112.61 197.371 112.407 197.615C112.218 197.872 112.123 198.197 112.123 198.59V198.976C112.123 199.544 112.312 199.957 112.692 200.215C113.084 200.472 113.619 200.601 114.296 200.601H116.673C117.39 200.601 117.959 200.458 118.379 200.174C118.798 199.903 119.008 199.477 119.008 198.894V198.509C119.008 198.184 118.934 197.899 118.785 197.655C118.65 197.412 118.426 197.222 118.115 197.087C117.803 196.965 117.377 196.904 116.835 196.904H113.829C112.868 196.904 112.136 196.708 111.635 196.315C111.134 195.922 110.884 195.428 110.884 194.832C110.884 194.291 111.04 193.857 111.351 193.532C111.676 193.194 112.13 192.964 112.712 192.842C112.224 192.625 111.838 192.347 111.554 192.009C111.283 191.67 111.094 191.305 110.985 190.912C110.877 190.506 110.823 190.1 110.823 189.693C110.823 188.867 110.992 188.197 111.331 187.683C111.669 187.168 112.157 186.789 112.793 186.545C113.443 186.301 114.215 186.18 115.109 186.18H120.958V187.337L118.744 187.561C118.907 187.683 119.083 187.845 119.272 188.048C119.462 188.238 119.624 188.502 119.76 188.84C119.895 189.179 119.963 189.626 119.963 190.181C119.963 190.763 119.834 191.305 119.577 191.806C119.333 192.307 118.927 192.713 118.358 193.024C117.803 193.336 117.045 193.492 116.084 193.492H114.296C113.782 193.492 113.375 193.566 113.077 193.715C112.78 193.864 112.631 194.128 112.631 194.507C112.631 194.819 112.746 195.035 112.976 195.157C113.206 195.279 113.45 195.34 113.707 195.34H117.14C117.966 195.34 118.656 195.448 119.211 195.665C119.78 195.882 120.207 196.213 120.491 196.66C120.775 197.107 120.918 197.689 120.918 198.407V198.793C120.918 199.822 120.579 200.621 119.902 201.19C119.239 201.772 118.23 202.063 116.876 202.063H113.768ZM114.662 191.928H115.86C116.469 191.928 116.93 191.84 117.241 191.664C117.566 191.474 117.79 191.23 117.912 190.932C118.033 190.635 118.094 190.303 118.094 189.937C118.094 189.396 118.006 188.969 117.83 188.658C117.654 188.333 117.411 188.102 117.099 187.967C116.801 187.818 116.436 187.744 116.002 187.744H114.865C114.174 187.744 113.633 187.899 113.24 188.211C112.861 188.522 112.671 189.057 112.671 189.815C112.671 190.56 112.847 191.102 113.199 191.44C113.551 191.765 114.039 191.928 114.662 191.928ZM122.809 197.066V186.2H124.434L124.84 187.378C125.328 187.026 125.903 186.714 126.567 186.444C127.244 186.159 127.941 186.017 128.659 186.017C129.471 186.017 130.121 186.193 130.609 186.545C131.11 186.884 131.468 187.337 131.685 187.906C131.902 188.475 132.01 189.091 132.01 189.754V197.066H129.979V189.998C129.979 189.565 129.891 189.192 129.715 188.881C129.552 188.556 129.322 188.305 129.024 188.129C128.726 187.953 128.361 187.865 127.928 187.865C127.521 187.865 127.142 187.906 126.79 187.987C126.452 188.069 126.127 188.184 125.815 188.333C125.504 188.468 125.179 188.637 124.84 188.84V197.066H122.809ZM139.075 197.188C137.924 197.188 137.004 197.019 136.313 196.68C135.636 196.342 135.148 195.773 134.851 194.974C134.566 194.162 134.424 193.045 134.424 191.623C134.424 190.174 134.566 189.05 134.851 188.251C135.148 187.439 135.636 186.87 136.313 186.545C136.99 186.22 137.904 186.058 139.055 186.058C140.057 186.058 140.863 186.166 141.472 186.383C142.095 186.586 142.548 186.958 142.833 187.5C143.131 188.028 143.28 188.766 143.28 189.714C143.28 190.377 143.144 190.905 142.873 191.298C142.616 191.691 142.244 191.975 141.756 192.151C141.282 192.327 140.714 192.415 140.05 192.415H136.455C136.469 193.2 136.557 193.83 136.719 194.304C136.895 194.764 137.2 195.103 137.633 195.32C138.08 195.523 138.73 195.624 139.583 195.624H142.975V196.843C142.393 196.924 141.797 196.999 141.188 197.066C140.578 197.148 139.874 197.188 139.075 197.188ZM136.435 191.136H139.867C140.409 191.136 140.808 191.034 141.066 190.831C141.323 190.628 141.452 190.255 141.452 189.714C141.452 189.172 141.37 188.746 141.208 188.434C141.059 188.123 140.808 187.899 140.456 187.764C140.104 187.628 139.637 187.561 139.055 187.561C138.391 187.561 137.863 187.662 137.471 187.865C137.092 188.069 136.821 188.427 136.658 188.942C136.509 189.456 136.435 190.188 136.435 191.136ZM149.293 197.188C148.412 197.188 147.681 196.999 147.099 196.62C146.53 196.24 146.104 195.651 145.819 194.852C145.535 194.04 145.393 192.997 145.393 191.725C145.393 190.384 145.521 189.301 145.779 188.475C146.05 187.635 146.483 187.026 147.079 186.647C147.674 186.254 148.48 186.058 149.496 186.058C150.064 186.058 150.626 186.119 151.182 186.241C151.75 186.362 152.245 186.498 152.664 186.647V181.569H154.695V197.066H153.03L152.664 195.99C152.448 196.179 152.15 196.369 151.771 196.559C151.391 196.735 150.985 196.884 150.552 197.005C150.119 197.127 149.699 197.188 149.293 197.188ZM149.943 195.523C150.498 195.523 150.999 195.435 151.446 195.259C151.906 195.083 152.312 194.9 152.664 194.71V188.109C152.245 187.987 151.832 187.879 151.425 187.784C151.033 187.676 150.593 187.622 150.105 187.622C149.469 187.622 148.954 187.737 148.561 187.967C148.169 188.197 147.884 188.603 147.708 189.186C147.532 189.768 147.444 190.58 147.444 191.623C147.444 192.584 147.526 193.356 147.688 193.938C147.851 194.507 148.115 194.913 148.48 195.157C148.859 195.401 149.347 195.523 149.943 195.523ZM164.968 197.066L161.8 186.2H163.892L166.268 195.177L168.827 186.2H170.554L173.113 195.177L175.388 186.2H177.48L174.352 197.066H172.098L169.66 189.003L167.182 197.066H164.968ZM179.525 184.372C179.281 184.372 179.159 184.257 179.159 184.027V182.32C179.159 182.077 179.281 181.955 179.525 181.955H181.028C181.136 181.955 181.217 181.989 181.271 182.056C181.326 182.124 181.353 182.212 181.353 182.32V184.027C181.353 184.257 181.244 184.372 181.028 184.372H179.525ZM179.24 197.066V186.2H181.271V197.066H179.24ZM187.877 197.066C187.146 197.066 186.537 196.951 186.049 196.721C185.575 196.477 185.223 196.091 184.993 195.563C184.776 195.035 184.675 194.331 184.688 193.451L184.77 187.865H183.043V186.545L184.81 186.2L185.115 183.153H186.72V186.2H189.665V187.865H186.72V193.431C186.72 193.85 186.76 194.189 186.841 194.446C186.923 194.704 187.038 194.9 187.187 195.035C187.336 195.171 187.498 195.272 187.674 195.34C187.85 195.394 188.019 195.428 188.182 195.442L189.523 195.563V197.066H187.877ZM191.717 197.066V181.569H193.748V187.378C194.222 187.026 194.797 186.714 195.474 186.444C196.151 186.159 196.849 186.017 197.566 186.017C198.352 186.017 198.988 186.18 199.476 186.505C199.977 186.83 200.342 187.276 200.572 187.845C200.803 188.4 200.918 189.03 200.918 189.734V197.066H198.886V189.978C198.886 189.558 198.798 189.192 198.622 188.881C198.46 188.556 198.223 188.305 197.912 188.129C197.614 187.953 197.255 187.865 196.835 187.865C196.429 187.865 196.05 187.906 195.698 187.987C195.359 188.069 195.034 188.184 194.723 188.333C194.411 188.482 194.086 188.651 193.748 188.84V197.066H191.717ZM209.092 197.066V181.569H211.123V190.364H212.606L215.632 186.2H217.745L214.109 191.278L218.009 197.066H215.876L212.545 192.192H211.123V197.066H209.092ZM223.97 197.188C222.819 197.188 221.898 197.019 221.208 196.68C220.531 196.342 220.043 195.773 219.745 194.974C219.461 194.162 219.319 193.045 219.319 191.623C219.319 190.174 219.461 189.05 219.745 188.251C220.043 187.439 220.531 186.87 221.208 186.545C221.885 186.22 222.799 186.058 223.95 186.058C224.952 186.058 225.757 186.166 226.367 186.383C226.99 186.586 227.443 186.958 227.727 187.5C228.025 188.028 228.174 188.766 228.174 189.714C228.174 190.377 228.039 190.905 227.768 191.298C227.511 191.691 227.138 191.975 226.651 192.151C226.177 192.327 225.608 192.415 224.945 192.415H221.35C221.363 193.2 221.451 193.83 221.614 194.304C221.79 194.764 222.095 195.103 222.528 195.32C222.975 195.523 223.625 195.624 224.478 195.624H227.87V196.843C227.287 196.924 226.692 196.999 226.082 197.066C225.473 197.148 224.769 197.188 223.97 197.188ZM221.329 191.136H224.762C225.304 191.136 225.703 191.034 225.96 190.831C226.218 190.628 226.346 190.255 226.346 189.714C226.346 189.172 226.265 188.746 226.103 188.434C225.954 188.123 225.703 187.899 225.351 187.764C224.999 187.628 224.532 187.561 223.95 187.561C223.286 187.561 222.758 187.662 222.365 187.865C221.986 188.069 221.715 188.427 221.553 188.942C221.404 189.456 221.329 190.188 221.329 191.136ZM233.522 201.88L234.842 197.066C234.409 197.053 233.996 196.965 233.603 196.802C233.21 196.626 232.858 196.349 232.547 195.97C232.249 195.577 232.005 195.056 231.816 194.406L229.378 186.2H231.511L233.705 193.979C233.826 194.345 233.962 194.622 234.111 194.812C234.273 195.001 234.429 195.137 234.578 195.218C234.74 195.286 234.883 195.326 235.004 195.34C235.126 195.353 235.201 195.36 235.228 195.36L237.767 186.2H239.859L236.122 199.869L235.147 201.88H233.522ZM89.3576 225.188C88.8566 225.188 88.3894 225.127 87.9561 225.005C87.5364 224.884 87.1504 224.735 86.7984 224.559C86.4599 224.369 86.1484 224.179 85.8641 223.99L85.4985 225.066H83.8329V209.569H85.8641V215.114C86.3651 214.843 86.9202 214.599 87.5296 214.383C88.1525 214.166 88.7279 214.058 89.256 214.058C90.1497 214.058 90.8809 214.247 91.4497 214.626C92.0184 214.992 92.4381 215.588 92.709 216.414C92.9933 217.24 93.1355 218.343 93.1355 219.725C93.1355 220.876 93.0068 221.864 92.7496 222.69C92.4923 223.502 92.0861 224.125 91.5309 224.559C90.9757 224.978 90.2513 225.188 89.3576 225.188ZM88.6467 223.502C89.1748 223.502 89.6149 223.374 89.9669 223.117C90.3325 222.846 90.6101 222.426 90.7997 221.857C91.0028 221.275 91.1044 220.53 91.1044 219.623C91.1044 218.513 90.996 217.68 90.7794 217.125C90.5627 216.57 90.2716 216.197 89.906 216.008C89.5404 215.818 89.1206 215.723 88.6467 215.723C88.1051 215.723 87.6108 215.804 87.164 215.967C86.7307 216.116 86.2974 216.305 85.8641 216.536V222.731C86.2297 222.92 86.6427 223.096 87.103 223.259C87.5634 223.421 88.078 223.502 88.6467 223.502ZM98.8039 225.188C97.7884 225.188 96.9962 224.917 96.4275 224.376C95.8723 223.821 95.5947 222.981 95.5947 221.857V214.2H97.6259V221.309C97.6259 222.121 97.8087 222.67 98.1743 222.954C98.5534 223.238 99.0815 223.381 99.7585 223.381C100.3 223.381 100.815 223.299 101.302 223.137C101.803 222.961 102.291 222.724 102.765 222.426V214.2H104.796V225.066H103.171L102.765 223.909C102.237 224.247 101.627 224.545 100.937 224.802C100.26 225.06 99.5487 225.188 98.8039 225.188ZM111.394 225.188C111.109 225.188 110.771 225.182 110.378 225.168C109.985 225.154 109.579 225.127 109.159 225.087C108.753 225.06 108.374 225.026 108.022 224.985C107.684 224.945 107.413 224.897 107.21 224.843V223.624H111.78C112.172 223.624 112.511 223.597 112.795 223.543C113.08 223.475 113.296 223.34 113.445 223.137C113.608 222.934 113.689 222.636 113.689 222.243V221.796C113.689 221.39 113.553 221.072 113.283 220.842C113.012 220.611 112.565 220.496 111.942 220.496H110.358C109.721 220.496 109.153 220.415 108.652 220.253C108.164 220.077 107.778 219.785 107.494 219.379C107.223 218.973 107.088 218.425 107.088 217.734V217.145C107.088 216.454 107.216 215.886 107.474 215.439C107.744 214.992 108.171 214.66 108.753 214.444C109.336 214.213 110.107 214.098 111.069 214.098C111.475 214.098 111.922 214.119 112.409 214.159C112.91 214.186 113.398 214.227 113.872 214.281C114.346 214.335 114.725 214.396 115.009 214.464V215.683H110.703C110.107 215.683 109.647 215.784 109.322 215.987C109.011 216.19 108.855 216.576 108.855 217.145V217.551C108.855 217.903 108.929 218.174 109.078 218.364C109.227 218.553 109.437 218.675 109.708 218.729C109.992 218.783 110.324 218.811 110.703 218.811H112.328C113.357 218.811 114.136 219.054 114.664 219.542C115.192 220.016 115.456 220.686 115.456 221.553V222.385C115.456 223.117 115.287 223.685 114.948 224.091C114.61 224.498 114.136 224.782 113.526 224.945C112.931 225.107 112.22 225.188 111.394 225.188ZM118.055 212.372C117.812 212.372 117.69 212.257 117.69 212.027V210.32C117.69 210.077 117.812 209.955 118.055 209.955H119.558C119.667 209.955 119.748 209.989 119.802 210.056C119.856 210.124 119.883 210.212 119.883 210.32V212.027C119.883 212.257 119.775 212.372 119.558 212.372H118.055ZM117.771 225.066V214.2H119.802V225.066H117.771ZM122.65 225.066V214.2H124.275L124.682 215.378C125.169 215.026 125.745 214.714 126.408 214.444C127.085 214.159 127.782 214.017 128.5 214.017C129.313 214.017 129.962 214.193 130.45 214.545C130.951 214.884 131.31 215.337 131.526 215.906C131.743 216.475 131.851 217.091 131.851 217.754V225.066H129.82V217.998C129.82 217.565 129.732 217.192 129.556 216.881C129.394 216.556 129.164 216.305 128.866 216.129C128.568 215.953 128.202 215.865 127.769 215.865C127.363 215.865 126.983 215.906 126.631 215.987C126.293 216.069 125.968 216.184 125.656 216.333C125.345 216.468 125.02 216.637 124.682 216.84V225.066H122.65ZM138.917 225.188C137.766 225.188 136.845 225.019 136.154 224.68C135.477 224.342 134.99 223.773 134.692 222.974C134.407 222.162 134.265 221.045 134.265 219.623C134.265 218.174 134.407 217.05 134.692 216.251C134.99 215.439 135.477 214.87 136.154 214.545C136.831 214.22 137.745 214.058 138.896 214.058C139.898 214.058 140.704 214.166 141.313 214.383C141.936 214.586 142.39 214.958 142.674 215.5C142.972 216.028 143.121 216.766 143.121 217.714C143.121 218.377 142.986 218.905 142.715 219.298C142.457 219.691 142.085 219.975 141.598 220.151C141.124 220.327 140.555 220.415 139.892 220.415H136.296C136.31 221.2 136.398 221.83 136.56 222.304C136.736 222.764 137.041 223.103 137.474 223.32C137.921 223.523 138.571 223.624 139.424 223.624H142.816V224.843C142.234 224.924 141.638 224.999 141.029 225.066C140.42 225.148 139.715 225.188 138.917 225.188ZM136.276 219.136H139.709C140.25 219.136 140.65 219.034 140.907 218.831C141.164 218.628 141.293 218.255 141.293 217.714C141.293 217.172 141.212 216.746 141.049 216.434C140.9 216.123 140.65 215.899 140.298 215.764C139.946 215.628 139.479 215.561 138.896 215.561C138.233 215.561 137.705 215.662 137.312 215.865C136.933 216.069 136.662 216.427 136.5 216.942C136.351 217.456 136.276 218.188 136.276 219.136ZM149.398 225.188C149.114 225.188 148.775 225.182 148.382 225.168C147.99 225.154 147.583 225.127 147.164 225.087C146.757 225.06 146.378 225.026 146.026 224.985C145.688 224.945 145.417 224.897 145.214 224.843V223.624H149.784C150.177 223.624 150.515 223.597 150.799 223.543C151.084 223.475 151.3 223.34 151.449 223.137C151.612 222.934 151.693 222.636 151.693 222.243V221.796C151.693 221.39 151.558 221.072 151.287 220.842C151.016 220.611 150.569 220.496 149.946 220.496H148.362C147.726 220.496 147.157 220.415 146.656 220.253C146.168 220.077 145.783 219.785 145.498 219.379C145.227 218.973 145.092 218.425 145.092 217.734V217.145C145.092 216.454 145.221 215.886 145.478 215.439C145.749 214.992 146.175 214.66 146.757 214.444C147.34 214.213 148.112 214.098 149.073 214.098C149.479 214.098 149.926 214.119 150.414 214.159C150.915 214.186 151.402 214.227 151.876 214.281C152.35 214.335 152.729 214.396 153.013 214.464V215.683H148.707C148.112 215.683 147.651 215.784 147.326 215.987C147.015 216.19 146.859 216.576 146.859 217.145V217.551C146.859 217.903 146.934 218.174 147.082 218.364C147.231 218.553 147.441 218.675 147.712 218.729C147.996 218.783 148.328 218.811 148.707 218.811H150.332C151.361 218.811 152.14 219.054 152.668 219.542C153.196 220.016 153.46 220.686 153.46 221.553V222.385C153.46 223.117 153.291 223.685 152.952 224.091C152.614 224.498 152.14 224.782 151.531 224.945C150.935 225.107 150.224 225.188 149.398 225.188ZM159.573 225.188C159.289 225.188 158.951 225.182 158.558 225.168C158.165 225.154 157.759 225.127 157.339 225.087C156.933 225.06 156.554 225.026 156.202 224.985C155.863 224.945 155.592 224.897 155.389 224.843V223.624H159.959C160.352 223.624 160.691 223.597 160.975 223.543C161.259 223.475 161.476 223.34 161.625 223.137C161.787 222.934 161.869 222.636 161.869 222.243V221.796C161.869 221.39 161.733 221.072 161.462 220.842C161.192 220.611 160.745 220.496 160.122 220.496H158.538C157.901 220.496 157.332 220.415 156.831 220.253C156.344 220.077 155.958 219.785 155.674 219.379C155.403 218.973 155.267 218.425 155.267 217.734V217.145C155.267 216.454 155.396 215.886 155.653 215.439C155.924 214.992 156.351 214.66 156.933 214.444C157.515 214.213 158.287 214.098 159.248 214.098C159.655 214.098 160.102 214.119 160.589 214.159C161.09 214.186 161.577 214.227 162.051 214.281C162.525 214.335 162.904 214.396 163.189 214.464V215.683H158.883C158.287 215.683 157.827 215.784 157.502 215.987C157.19 216.19 157.035 216.576 157.035 217.145V217.551C157.035 217.903 157.109 218.174 157.258 218.364C157.407 218.553 157.617 218.675 157.888 218.729C158.172 218.783 158.504 218.811 158.883 218.811H160.508C161.537 218.811 162.315 219.054 162.844 219.542C163.372 220.016 163.636 220.686 163.636 221.553V222.385C163.636 223.117 163.466 223.685 163.128 224.091C162.789 224.498 162.315 224.782 161.706 224.945C161.11 225.107 160.399 225.188 159.573 225.188ZM171.346 225.066V214.2H172.971L173.377 215.378C173.905 215.012 174.487 214.694 175.124 214.423C175.76 214.152 176.491 214.017 177.317 214.017C177.994 214.017 178.57 214.166 179.044 214.464C179.518 214.762 179.877 215.141 180.12 215.601C180.445 215.358 180.838 215.114 181.298 214.87C181.759 214.626 182.253 214.423 182.781 214.261C183.309 214.098 183.817 214.017 184.304 214.017C185.117 214.017 185.774 214.186 186.275 214.525C186.789 214.85 187.155 215.303 187.371 215.886C187.602 216.454 187.717 217.104 187.717 217.836V225.066H185.686V217.998C185.686 217.565 185.598 217.192 185.422 216.881C185.259 216.556 185.022 216.305 184.711 216.129C184.413 215.953 184.047 215.865 183.614 215.865C183.072 215.865 182.517 215.974 181.948 216.19C181.38 216.394 180.858 216.644 180.384 216.942C180.439 217.118 180.479 217.301 180.506 217.49C180.533 217.666 180.547 217.842 180.547 218.018V225.066H178.516V217.998C178.516 217.565 178.428 217.192 178.252 216.881C178.089 216.556 177.859 216.305 177.561 216.129C177.263 215.953 176.898 215.865 176.464 215.865C176.058 215.865 175.679 215.906 175.327 215.987C174.988 216.069 174.663 216.184 174.352 216.333C174.04 216.468 173.715 216.637 173.377 216.84V225.066H171.346ZM194.792 225.188C193.641 225.188 192.721 225.019 192.03 224.68C191.353 224.342 190.865 223.773 190.568 222.974C190.283 222.162 190.141 221.045 190.141 219.623C190.141 218.174 190.283 217.05 190.568 216.251C190.865 215.439 191.353 214.87 192.03 214.545C192.707 214.22 193.621 214.058 194.772 214.058C195.774 214.058 196.58 214.166 197.189 214.383C197.812 214.586 198.266 214.958 198.55 215.5C198.848 216.028 198.997 216.766 198.997 217.714C198.997 218.377 198.861 218.905 198.591 219.298C198.333 219.691 197.961 219.975 197.473 220.151C196.999 220.327 196.431 220.415 195.767 220.415H192.172C192.186 221.2 192.274 221.83 192.436 222.304C192.612 222.764 192.917 223.103 193.35 223.32C193.797 223.523 194.447 223.624 195.3 223.624H198.692V224.843C198.11 224.924 197.514 224.999 196.905 225.066C196.295 225.148 195.591 225.188 194.792 225.188ZM192.152 219.136H195.584C196.126 219.136 196.526 219.034 196.783 218.831C197.04 218.628 197.169 218.255 197.169 217.714C197.169 217.172 197.088 216.746 196.925 216.434C196.776 216.123 196.526 215.899 196.174 215.764C195.821 215.628 195.354 215.561 194.772 215.561C194.109 215.561 193.58 215.662 193.188 215.865C192.809 216.069 192.538 216.427 192.375 216.942C192.226 217.456 192.152 218.188 192.152 219.136ZM205.233 225.066C204.502 225.066 203.893 224.951 203.405 224.721C202.931 224.477 202.579 224.091 202.349 223.563C202.132 223.035 202.031 222.331 202.044 221.451L202.125 215.865H200.399V214.545L202.166 214.2L202.471 211.153H204.075V214.2H207.021V215.865H204.075V221.431C204.075 221.85 204.116 222.189 204.197 222.446C204.278 222.704 204.394 222.9 204.543 223.035C204.691 223.171 204.854 223.272 205.03 223.34C205.206 223.394 205.375 223.428 205.538 223.442L206.878 223.563V225.066H205.233ZM209.072 225.066V214.2H210.636L211.104 216.028C211.564 215.473 212.078 215.006 212.647 214.626C213.216 214.247 213.879 214.058 214.638 214.058C214.814 214.058 214.983 214.071 215.145 214.098C215.308 214.112 215.464 214.139 215.613 214.18V216.272C215.423 216.245 215.227 216.224 215.024 216.211C214.821 216.184 214.611 216.17 214.394 216.17C213.934 216.17 213.521 216.224 213.155 216.333C212.789 216.441 212.437 216.61 212.099 216.84C211.774 217.057 211.442 217.328 211.104 217.653V225.066H209.072ZM217.807 212.372C217.563 212.372 217.441 212.257 217.441 212.027V210.32C217.441 210.077 217.563 209.955 217.807 209.955H219.31C219.418 209.955 219.499 209.989 219.553 210.056C219.607 210.124 219.635 210.212 219.635 210.32V212.027C219.635 212.257 219.526 212.372 219.31 212.372H217.807ZM217.522 225.066V214.2H219.553V225.066H217.522ZM226.444 225.188C225.807 225.188 225.218 225.107 224.677 224.945C224.148 224.769 223.681 224.477 223.275 224.071C222.882 223.665 222.578 223.103 222.361 222.385C222.144 221.668 222.036 220.76 222.036 219.664C222.036 218.54 222.138 217.619 222.341 216.901C222.544 216.17 222.835 215.601 223.214 215.195C223.607 214.775 224.081 214.484 224.636 214.322C225.191 214.159 225.814 214.078 226.505 214.078C227.073 214.078 227.669 214.105 228.292 214.159C228.928 214.213 229.544 214.301 230.14 214.423V215.622H227.073C226.41 215.622 225.855 215.73 225.408 215.947C224.961 216.15 224.629 216.549 224.412 217.145C224.196 217.727 224.088 218.574 224.088 219.684C224.088 220.754 224.203 221.58 224.433 222.162C224.663 222.731 224.995 223.117 225.428 223.32C225.875 223.523 226.43 223.624 227.094 223.624H230.303V224.782C229.991 224.863 229.619 224.938 229.186 225.005C228.766 225.06 228.319 225.1 227.845 225.127C227.385 225.168 226.918 225.188 226.444 225.188ZM236.157 225.188C235.873 225.188 235.534 225.182 235.142 225.168C234.749 225.154 234.343 225.127 233.923 225.087C233.517 225.06 233.138 225.026 232.785 224.985C232.447 224.945 232.176 224.897 231.973 224.843V223.624H236.543C236.936 223.624 237.274 223.597 237.559 223.543C237.843 223.475 238.06 223.34 238.209 223.137C238.371 222.934 238.452 222.636 238.452 222.243V221.796C238.452 221.39 238.317 221.072 238.046 220.842C237.775 220.611 237.328 220.496 236.706 220.496H235.121C234.485 220.496 233.916 220.415 233.415 220.253C232.928 220.077 232.542 219.785 232.257 219.379C231.987 218.973 231.851 218.425 231.851 217.734V217.145C231.851 216.454 231.98 215.886 232.237 215.439C232.508 214.992 232.934 214.66 233.517 214.444C234.099 214.213 234.871 214.098 235.832 214.098C236.238 214.098 236.685 214.119 237.173 214.159C237.674 214.186 238.161 214.227 238.635 214.281C239.109 214.335 239.488 214.396 239.773 214.464V215.683H235.467C234.871 215.683 234.41 215.784 234.085 215.987C233.774 216.19 233.618 216.576 233.618 217.145V217.551C233.618 217.903 233.693 218.174 233.842 218.364C233.991 218.553 234.2 218.675 234.471 218.729C234.756 218.783 235.087 218.811 235.467 218.811H237.091C238.121 218.811 238.899 219.054 239.427 219.542C239.955 220.016 240.219 220.686 240.219 221.553V222.385C240.219 223.117 240.05 223.685 239.712 224.091C239.373 224.498 238.899 224.782 238.29 224.945C237.694 225.107 236.983 225.188 236.157 225.188ZM242.677 225.087C242.446 225.087 242.331 224.972 242.331 224.741V222.974C242.331 222.731 242.446 222.609 242.677 222.609H243.834C244.078 222.609 244.2 222.731 244.2 222.974V224.741C244.2 224.863 244.166 224.951 244.098 225.005C244.031 225.06 243.943 225.087 243.834 225.087H242.677Z" fill="#3D4651"/>
<defs>
<filter id="filter0_d_6111_28557" x="0.160797" y="9.17142" width="306.242" height="294.334" filterUnits="userSpaceOnUse" color-interpolation-filters="sRGB">
<feFlood flood-opacity="0" result="BackgroundImageFix"/>
<feColorMatrix in="SourceAlpha" type="matrix" values="0 0 0 0 0 0 0 0 0 0 0 0 0 0 0 0 0 0 127 0" result="hardAlpha"/>
<feOffset/>
<feGaussianBlur stdDeviation="10.6681"/>
<feComposite in2="hardAlpha" operator="out"/>
<feColorMatrix type="matrix" values="0 0 0 0 0 0 0 0 0 0 0 0 0 0 0 0 0 0 0.25 0"/>
<feBlend mode="normal" in2="BackgroundImageFix" result="effect1_dropShadow_6111_28557"/>
<feBlend mode="normal" in="SourceGraphic" in2="effect1_dropShadow_6111_28557" result="shape"/>
</filter>
<clipPath id="clip0_6111_28557">
<rect width="57.6598" height="57.6598" fill="white" transform="translate(128.018 75.8594)"/>
</clipPath>
</defs>
</svg>
