<svg width="50" height="51" viewBox="0 0 50 51" fill="none" xmlns="http://www.w3.org/2000/svg">
<path fill-rule="evenodd" clip-rule="evenodd" d="M38.7083 0.508351C38.1193 0.273731 37.4472 0.413082 37 0.862517L34.3125 3.55002C31.5099 1.43252 28.0742 0.323972 24.5625 0.404184C18.705 0.154564 13.2473 3.36884 10.625 8.61252C10.4512 8.9959 10.4395 9.43317 10.5924 9.82533C10.7454 10.2175 11.05 10.5314 11.4375 10.6959C11.6314 10.7931 11.8456 10.8431 12.0625 10.8417C12.6858 10.8439 13.2507 10.4754 13.5 9.90419C15.6284 5.80578 19.9499 3.32352 24.5625 3.55002C27.2437 3.46684 29.8805 4.2484 32.0833 5.77918L29.7083 8.15418C29.2646 8.59666 29.1328 9.26372 29.375 9.84168C29.6159 10.4256 30.1809 10.8104 30.8125 10.8209H38.1042C38.9344 10.7765 39.5845 10.0898 39.5833 9.25835V1.96668C39.6049 1.35051 39.2622 0.779254 38.7083 0.508351ZM13 27.8833C12.0416 27.55 11.0355 27.3741 10.0208 27.3625C5.53256 27.5615 1.59299 30.4117 0 34.6125H9.85417C10.3482 32.1497 11.4271 29.8418 13 27.8833ZM4.14583 19.4667C4.14583 22.6078 6.69221 25.1542 9.83333 25.1542C12.9745 25.1542 15.5208 22.6078 15.5208 19.4667C15.5208 16.3256 12.9745 13.7792 9.83333 13.7792C6.69221 13.7792 4.14583 16.3256 4.14583 19.4667ZM40.3333 34.6334H50C48.4091 30.4279 44.4707 27.5703 39.9792 27.3625C39.0109 27.3604 38.0482 27.508 37.125 27.8C38.7354 29.7822 39.8369 32.1281 40.3333 34.6334ZM34.2917 19.4667C34.2917 22.6078 36.838 25.1542 39.9792 25.1542C43.1203 25.1542 45.6667 22.6078 45.6667 19.4667C45.6667 16.3256 43.1203 13.7792 39.9792 13.7792C36.838 13.7792 34.2917 16.3256 34.2917 19.4667ZM25 25.1542C18.0964 25.1542 12.5 30.7506 12.5 37.6542C12.5 44.5578 18.0964 50.1542 25 50.1542C31.9036 50.1542 37.5 44.5578 37.5 37.6542C37.5 30.7506 31.9036 25.1542 25 25.1542ZM26.5625 45.4459C26.5625 46.3088 25.8629 47.0084 25 47.0084C24.1371 47.0084 23.4375 46.3088 23.4375 45.4459H21.875C21.0121 45.4459 20.3125 44.7463 20.3125 43.8834C20.3125 43.0204 21.0121 42.3209 21.875 42.3209H26.0417C26.7205 42.3209 27.2708 41.7705 27.2708 41.0917C27.2673 40.5896 26.9638 40.1383 26.5 39.9459L22.1875 38.2375C20.4006 37.4463 19.3552 35.5659 19.6262 33.6306C19.8971 31.6953 21.4187 30.1743 23.3542 29.9042C23.3542 29.0412 24.0537 28.3417 24.9167 28.3417C25.7796 28.3417 26.4792 29.0412 26.4792 29.9042H28.0417C28.9046 29.9042 29.6042 30.6037 29.6042 31.4667C29.6042 32.3296 28.9046 33.0292 28.0417 33.0292H23.875C23.1961 33.0292 22.6458 33.5795 22.6458 34.2584C22.6377 34.764 22.9453 35.2212 23.4167 35.4042L27.7083 37.1334C29.5258 37.9008 30.6002 39.7944 30.3266 41.7482C30.0531 43.7021 28.5 45.2278 26.5417 45.4667L26.5625 45.4459Z" fill="#FCBB1B"/>
</svg>
