<svg width="251" height="67" viewBox="0 0 251 67" fill="none" xmlns="http://www.w3.org/2000/svg">
<g filter="url(#filter0_i_5320_4867)">
<path d="M46.6747 37.3191C46.8048 36.5093 46.8916 35.6914 47 34.877V32.2149C46.972 32.067 46.944 31.92 46.9187 31.7703C46.6793 30.3419 46.5889 28.8693 46.1805 27.4904C43.4123 18.1369 37.2334 12.4159 27.6845 10.3724C26.8514 10.1948 25.9967 10.1217 25.1538 10H21.941C20.9156 10.1515 19.882 10.2633 18.8656 10.4599C8.38788 12.4917 0.461635 21.6936 0.022543 32.3655C-0.215073 38.1785 1.42384 43.4288 5.03054 48.0027C8.76283 52.7354 13.6434 55.6085 19.5884 56.6429C20.4882 56.7998 21.4007 56.8828 22.3078 57H24.7861C24.9035 56.9739 25.0201 56.9315 25.1384 56.9243C28.3847 56.7087 31.4429 55.8322 34.335 54.3514C34.5509 54.2414 34.8662 54.208 35.1002 54.2694C37.3309 54.8483 39.5553 55.4507 41.7797 56.054C42.8322 56.3408 43.8803 56.6402 44.9301 56.9342C45.0078 56.9558 45.0855 56.9784 45.1632 57H45.8978C46.4227 56.7899 46.7913 56.4247 47 55.898V55.1639C46.9684 55.0963 46.9268 55.0314 46.9069 54.9619C46.9006 54.9412 46.8961 54.9205 46.8898 54.8997C46.0053 51.6036 45.1199 48.3085 44.248 45.0088C44.2001 44.8266 44.2263 44.5813 44.313 44.4136C45.4731 42.1717 46.2754 39.8117 46.6747 37.3182V37.3191ZM32.5994 44.1494C31.7935 45.4768 30.6199 46.5418 29.0785 47.3462C27.5372 48.1506 25.7203 48.5528 23.6278 48.5528C21.6483 48.5528 19.8666 48.2075 18.2828 47.5158C16.699 46.8241 15.4549 45.8429 14.5496 44.5732C13.6443 43.3035 13.1917 41.8209 13.1917 40.1273H18.3668C18.4798 41.398 18.9821 42.4422 19.8729 43.2602C20.7638 44.079 22.0151 44.4884 23.6269 44.4884C25.2387 44.4884 26.5967 44.0862 27.53 43.2818C28.4633 42.4774 28.9295 41.4403 28.9295 40.1697C28.9295 39.1822 28.6394 38.3778 28.0603 37.7565C27.4803 37.1361 26.7593 36.6554 25.8965 36.3172C25.0336 35.9781 23.8392 35.612 22.3114 35.2161C20.3879 34.7084 18.8258 34.1935 17.6242 33.6704C16.4216 33.1483 15.3971 32.3367 14.5487 31.2356C13.7004 30.1345 13.2757 28.6673 13.2757 26.8321C13.2757 25.1385 13.7004 23.6569 14.5487 22.3862C15.3971 21.1156 16.5852 20.1425 18.1121 19.4644C19.6389 18.7871 21.4062 18.4481 23.4146 18.4481C26.2705 18.4481 28.6114 19.1614 30.4356 20.5862C32.2597 22.012 33.2707 23.9671 33.4685 26.4506H28.1235C28.0386 25.3784 27.53 24.4604 26.5967 23.6983C25.6634 22.9363 24.4328 22.5549 22.9059 22.5549C21.52 22.5549 20.3888 22.9084 19.5125 23.6136C18.6352 24.3197 18.1979 25.336 18.1979 26.6626C18.1979 27.5662 18.4735 28.3074 19.0246 28.8855C19.5766 29.4644 20.2759 29.9226 21.1243 30.2616C21.9726 30.6007 23.1318 30.9677 24.6027 31.3627C26.5542 31.8993 28.1452 32.4359 29.3749 32.9715C30.6054 33.5081 31.6507 34.3342 32.5145 35.4488C33.3764 36.5643 33.8083 38.0532 33.8083 39.9154C33.8083 41.4115 33.4053 42.8228 32.5994 44.1494Z" fill="#FCBB1B"/>
</g>
<path d="M65.3418 49.6633C64.6881 49.6633 63.9859 49.6391 63.2353 49.5907C62.5089 49.5664 61.7583 49.518 60.9834 49.4454C60.2328 49.3485 59.5185 49.2638 58.8405 49.1911C58.1626 49.0943 57.5572 48.9853 57.0245 48.8643V45.3412C57.7025 45.3896 58.4894 45.4381 59.3853 45.4865C60.3054 45.5349 61.2619 45.5712 62.2546 45.5955C63.2474 45.6197 64.2038 45.6318 65.1239 45.6318C66.0924 45.6318 66.952 45.547 67.7026 45.3775C68.4533 45.1838 69.0344 44.8569 69.446 44.3969C69.8576 43.9368 70.0634 43.2831 70.0634 42.4356V41.1644C70.0634 40.2201 69.7971 39.4937 69.2644 38.9852C68.7317 38.4767 67.9448 38.2225 66.9036 38.2225H64.3975C61.952 38.2225 60.0633 37.6898 58.7316 36.6244C57.4241 35.559 56.7703 33.7309 56.7703 31.1401V29.7599C56.7703 27.1691 57.4846 25.3046 58.9132 24.1666C60.366 23.0044 62.4362 22.4232 65.1239 22.4232C66.044 22.4232 66.9883 22.4717 67.9569 22.5685C68.9496 22.6412 69.894 22.738 70.7898 22.8591C71.6857 22.9801 72.4485 23.1133 73.078 23.2586V26.7816C72.0126 26.709 70.7898 26.6364 69.4097 26.5637C68.0537 26.4911 66.7946 26.4548 65.6324 26.4548C64.7123 26.4548 63.9011 26.5516 63.1989 26.7453C62.4968 26.939 61.9641 27.2901 61.6009 27.7986C61.2377 28.2829 61.0561 29.0093 61.0561 29.9778V30.8495C61.0561 31.9875 61.3587 32.7866 61.9641 33.2466C62.5936 33.7067 63.4895 33.9367 64.6518 33.9367H67.4484C69.0223 33.9367 70.3177 34.2273 71.3346 34.8084C72.3516 35.3895 73.1022 36.1885 73.5865 37.2055C74.095 38.1983 74.3492 39.3363 74.3492 40.6196V42.3266C74.3492 44.3121 73.9618 45.8376 73.187 46.903C72.4121 47.9684 71.3468 48.6948 69.9908 49.0822C68.6349 49.4696 67.0852 49.6633 65.3418 49.6633ZM86.4061 49.627C84.2995 49.627 82.6167 49.3364 81.3576 48.7553C80.1227 48.1742 79.2268 47.1693 78.6699 45.7407C78.113 44.2879 77.8345 42.2782 77.8345 39.7116C77.8345 37.0966 78.1009 35.0747 78.6336 33.6461C79.1663 32.1933 80.0501 31.1764 81.2849 30.5953C82.5198 30.0141 84.1905 29.7236 86.2971 29.7236C88.1615 29.7236 89.6507 29.9173 90.7645 30.3047C91.9025 30.6679 92.7258 31.3338 93.2342 32.3023C93.7669 33.2466 94.0333 34.5905 94.0333 36.3338C94.0333 37.5687 93.7912 38.5615 93.3069 39.3121C92.8226 40.0385 92.1204 40.5591 91.2003 40.8738C90.3044 41.1886 89.239 41.346 88.0041 41.346H82.3019C82.3503 42.5567 82.5077 43.5252 82.7741 44.2516C83.0646 44.9538 83.5731 45.4623 84.2995 45.7771C85.0501 46.0918 86.1397 46.2492 87.5683 46.2492H93.4522V48.9006C92.4594 49.0943 91.4061 49.2638 90.2923 49.4091C89.2027 49.5543 87.9073 49.627 86.4061 49.627ZM82.2656 38.622H87.5683C88.4158 38.622 89.0332 38.4646 89.4206 38.1498C89.8323 37.8108 90.0381 37.2055 90.0381 36.3338C90.0381 35.4864 89.917 34.8205 89.6749 34.3362C89.4327 33.852 89.0332 33.513 88.4763 33.3193C87.9194 33.1013 87.193 32.9924 86.2971 32.9924C85.2801 32.9924 84.4811 33.1498 83.9 33.4645C83.3189 33.7793 82.8951 34.3483 82.6288 35.1716C82.3866 35.9706 82.2656 37.1208 82.2656 38.622ZM98.0308 49.4454V29.9778H101.699L102.534 32.0117C103.333 31.4064 104.302 30.8616 105.44 30.3773C106.602 29.8931 107.801 29.6509 109.036 29.6509C110.561 29.6509 111.76 29.9657 112.631 30.5953C113.503 31.2006 114.121 32.0238 114.484 33.065C114.871 34.1062 115.065 35.2442 115.065 36.4791V49.4454H110.561V37.0239C110.561 36.3217 110.428 35.7285 110.162 35.2442C109.895 34.76 109.52 34.3847 109.036 34.1183C108.576 33.852 108.007 33.7188 107.329 33.7188C106.699 33.7188 106.106 33.7793 105.549 33.9004C105.016 34.0215 104.508 34.2031 104.024 34.4452C103.539 34.6873 103.043 34.9779 102.534 35.3169V49.4454H98.0308ZM126.643 49.4454C125.238 49.4454 124.088 49.2396 123.192 48.8279C122.296 48.3921 121.643 47.6778 121.231 46.6851C120.844 45.6923 120.662 44.3848 120.686 42.7625L120.832 33.6098H117.781V30.7042L120.977 29.9778L121.631 24.5298H125.154V29.9778H130.093V33.6098H125.154V42.7262C125.154 43.3557 125.214 43.8763 125.335 44.2879C125.456 44.6753 125.626 44.9901 125.844 45.2323C126.086 45.4502 126.34 45.6076 126.606 45.7044C126.873 45.8013 127.151 45.8618 127.442 45.886L129.875 46.1403V49.4454H126.643ZM133.974 26.8906C133.514 26.8906 133.284 26.6727 133.284 26.2368V22.9317C133.284 22.4474 133.514 22.2053 133.974 22.2053H137.388C137.606 22.2053 137.764 22.278 137.861 22.4232C137.982 22.5685 138.042 22.738 138.042 22.9317V26.2368C138.042 26.6727 137.824 26.8906 137.388 26.8906H133.974ZM133.393 49.4454V29.9778H137.897V49.4454H133.393ZM142.981 49.4454V30.0505H145.233L145.85 32.1933C146.819 31.5154 147.896 30.9342 149.083 30.45C150.293 29.9657 151.637 29.7236 153.114 29.7236C154.325 29.7236 155.354 30.002 156.201 30.5589C157.073 31.0916 157.727 31.7696 158.163 32.5929C158.768 32.157 159.494 31.7212 160.342 31.2853C161.214 30.8495 162.134 30.4863 163.102 30.1957C164.095 29.881 165.051 29.7236 165.971 29.7236C167.376 29.7236 168.526 30.0262 169.422 30.6316C170.318 31.2127 170.972 32.0117 171.383 33.0287C171.819 34.0215 172.037 35.1353 172.037 36.3701V49.4454H169.168V36.5881C169.168 35.7648 168.998 35.0384 168.659 34.4089C168.344 33.7551 167.884 33.2466 167.279 32.8834C166.674 32.5202 165.935 32.3386 165.063 32.3386C163.974 32.3386 162.86 32.5444 161.722 32.9561C160.584 33.3677 159.531 33.8641 158.562 34.4452C158.683 34.8084 158.768 35.1716 158.816 35.5348C158.889 35.8738 158.925 36.237 158.925 36.6244V49.4454H156.056V36.5881C156.056 35.7648 155.887 35.0384 155.548 34.4089C155.233 33.7551 154.773 33.2466 154.167 32.8834C153.586 32.5202 152.86 32.3386 151.988 32.3386C151.189 32.3386 150.439 32.4234 149.736 32.5929C149.058 32.7381 148.405 32.9561 147.775 33.2466C147.17 33.513 146.528 33.8398 145.85 34.2273V49.4454H142.981ZM184.83 49.6633C182.796 49.6633 181.186 49.3606 180 48.7553C178.838 48.15 178.002 47.1209 177.494 45.6681C176.985 44.2153 176.731 42.2298 176.731 39.7116C176.731 37.145 176.985 35.1474 177.494 33.7188C178.026 32.266 178.886 31.249 180.072 30.6679C181.259 30.0868 182.857 29.7962 184.867 29.7962C186.586 29.7962 187.978 29.9899 189.044 30.3773C190.133 30.7647 190.932 31.4306 191.441 32.3749C191.973 33.295 192.24 34.5784 192.24 36.2249C192.24 37.3629 192.01 38.283 191.55 38.9852C191.114 39.6632 190.472 40.1595 189.625 40.4743C188.801 40.7649 187.821 40.9102 186.683 40.9102H179.6C179.625 42.484 179.794 43.7552 180.109 44.7238C180.424 45.6681 180.993 46.3582 181.816 46.794C182.663 47.2056 183.898 47.4115 185.52 47.4115H191.768V49.1548C190.654 49.3001 189.564 49.4212 188.499 49.518C187.433 49.6149 186.211 49.6633 184.83 49.6633ZM179.564 39.0215H186.465C187.554 39.0215 188.353 38.8278 188.862 38.4404C189.395 38.0288 189.661 37.3024 189.661 36.2612C189.661 35.1474 189.491 34.2878 189.152 33.6825C188.838 33.0529 188.329 32.6171 187.627 32.3749C186.949 32.1086 186.029 31.9754 184.867 31.9754C183.511 31.9754 182.445 32.1812 181.671 32.5929C180.896 32.9803 180.351 33.6825 180.036 34.6994C179.721 35.7164 179.564 37.1571 179.564 39.0215ZM203.499 49.4454C202.24 49.4454 201.199 49.2396 200.376 48.8279C199.553 48.4163 198.947 47.7504 198.56 46.8303C198.173 45.9102 197.991 44.6874 198.015 43.162L198.124 32.4113H195.037V30.5589L198.16 30.0505L198.633 24.6388H200.848V30.0505H206.441V32.4113H200.848V43.162C200.848 44.0095 200.933 44.6874 201.102 45.1959C201.296 45.7044 201.538 46.0918 201.829 46.3582C202.144 46.6245 202.47 46.8182 202.809 46.9393C203.148 47.0361 203.475 47.0967 203.79 47.1209L206.151 47.3388V49.4454H203.499ZM217.816 49.6633C215.782 49.6633 214.172 49.3606 212.986 48.7553C211.824 48.15 210.988 47.1209 210.48 45.6681C209.971 44.2153 209.717 42.2298 209.717 39.7116C209.717 37.145 209.971 35.1474 210.48 33.7188C211.012 32.266 211.872 31.249 213.058 30.6679C214.245 30.0868 215.843 29.7962 217.853 29.7962C219.572 29.7962 220.964 29.9899 222.03 30.3773C223.119 30.7647 223.918 31.4306 224.427 32.3749C224.959 33.295 225.226 34.5784 225.226 36.2249C225.226 37.3629 224.996 38.283 224.536 38.9852C224.1 39.6632 223.458 40.1595 222.611 40.4743C221.787 40.7649 220.807 40.9102 219.669 40.9102H212.586C212.611 42.484 212.78 43.7552 213.095 44.7238C213.41 45.6681 213.979 46.3582 214.802 46.794C215.649 47.2056 216.884 47.4115 218.506 47.4115H224.754V49.1548C223.64 49.3001 222.55 49.4212 221.485 49.518C220.419 49.6149 219.197 49.6633 217.816 49.6633ZM212.55 39.0215H219.451C220.54 39.0215 221.339 38.8278 221.848 38.4404C222.381 38.0288 222.647 37.3024 222.647 36.2612C222.647 35.1474 222.477 34.2878 222.138 33.6825C221.824 33.0529 221.315 32.6171 220.613 32.3749C219.935 32.1086 219.015 31.9754 217.853 31.9754C216.497 31.9754 215.431 32.1812 214.657 32.5929C213.882 32.9803 213.337 33.6825 213.022 34.6994C212.707 35.7164 212.55 37.1571 212.55 39.0215ZM230.057 49.4454V30.0505H232.236L232.926 33.4282C233.798 32.387 234.766 31.5275 235.832 30.8495C236.921 30.1715 238.168 29.8325 239.573 29.8325C239.912 29.8325 240.226 29.8446 240.517 29.8689C240.832 29.8931 241.122 29.9415 241.389 30.0141V32.9561C241.074 32.9076 240.735 32.8713 240.372 32.8471C240.009 32.7987 239.645 32.7745 239.282 32.7745C238.386 32.7745 237.587 32.8834 236.885 33.1013C236.183 33.3193 235.517 33.6461 234.887 34.082C234.258 34.5178 233.604 35.0505 232.926 35.6801V49.4454H230.057Z" fill="white"/>
<defs>
<filter id="filter0_i_5320_4867" x="-1.2409" y="10" width="48.2409" height="48.8614" filterUnits="userSpaceOnUse" color-interpolation-filters="sRGB">
<feFlood flood-opacity="0" result="BackgroundImageFix"/>
<feBlend mode="normal" in="SourceGraphic" in2="BackgroundImageFix" result="shape"/>
<feColorMatrix in="SourceAlpha" type="matrix" values="0 0 0 0 0 0 0 0 0 0 0 0 0 0 0 0 0 0 127 0" result="hardAlpha"/>
<feOffset dx="-1.2409" dy="1.86135"/>
<feGaussianBlur stdDeviation="2.17158"/>
<feComposite in2="hardAlpha" operator="arithmetic" k2="-1" k3="1"/>
<feColorMatrix type="matrix" values="0 0 0 0 0 0 0 0 0 0 0 0 0 0 0 0 0 0 0.2 0"/>
<feBlend mode="normal" in2="shape" result="effect1_innerShadow_5320_4867"/>
</filter>
</defs>
</svg>
