<svg width="1924" height="566" viewBox="0 0 1924 566" fill="none" xmlns="http://www.w3.org/2000/svg">
<g opacity="0.25">
<path d="M703.551 566C694.8 566 686.282 565.537 678.096 564.615C660.928 562.679 645.066 558.704 630.952 552.8C615.782 546.456 602.476 537.812 591.402 527.109C569.146 505.595 558.011 479.83 547.242 454.914C545.126 450.021 542.938 444.962 540.718 440.053C525.564 406.597 506.354 377.291 481.996 350.46C433.403 296.939 365.066 251.262 284.369 218.368C191.043 180.329 90.7029 161.38 1.82932 165.013C-50.406 167.149 -119.423 187.465 -150.269 222.161C-168.575 242.752 -170.051 265.603 -154.535 288.24L-154.843 288.335C-162.978 276.464 -166.523 264.562 -165.375 252.961C-164.322 242.319 -159.339 231.917 -150.56 222.042C-136.598 206.337 -113.573 192.417 -83.9735 181.787C-56.6218 171.965 -26.1589 165.926 1.80901 164.783C48.3194 162.883 97.7854 167.099 148.832 177.318C195.106 186.581 240.766 200.326 284.545 218.17C365.29 251.082 433.667 296.784 482.287 350.337C506.659 377.186 525.879 406.508 541.043 439.983C543.267 444.891 545.454 449.952 547.567 454.845C558.326 479.744 569.454 505.49 591.68 526.972C613.175 547.75 642.27 560.337 678.153 564.383C727.846 569.986 788.19 558.267 839.568 533.031C913.61 496.666 964.995 443.734 1014.69 392.547C1023.4 383.575 1032.41 374.298 1041.33 365.339C1064.48 342.076 1095.83 311.931 1133.09 285.076C1171.18 257.626 1209.88 237.458 1251.41 223.418C1276.84 214.824 1303.78 209.034 1331.49 206.209C1357.09 203.599 1384.18 203.437 1412.02 205.724C1459.78 209.649 1511.22 220.735 1569.31 239.613C1683.67 276.789 1797.91 321.913 1908.85 373.733C2014.3 422.986 2117.72 478.719 2216.24 539.379L2216.01 539.548C2011.79 413.801 1794.16 312.958 1569.16 239.818C1442.04 198.497 1341.12 193.349 1251.57 223.621C1160.46 254.417 1096.81 309.993 1041.61 365.464C1032.69 374.421 1023.69 383.698 1014.98 392.67C965.266 443.875 913.864 496.823 839.772 533.213C815.829 544.973 788.894 554.146 761.881 559.738C747.611 562.692 733.425 564.624 719.714 565.48C714.25 565.829 708.857 566 703.551 566Z" fill="white"/>
<path d="M712.106 553.244C689.788 553.244 669.116 550.385 650.641 544.743C630.041 538.452 612.263 528.702 597.8 515.769C596.52 514.623 595.251 513.439 594.025 512.245C572.006 490.825 560.377 465.396 549.133 440.802C546.858 435.832 544.509 430.691 542.125 425.702C527.93 396 510.836 369.821 489.863 345.674C487.28 342.702 484.605 339.722 481.907 336.82C432.6 283.759 363.708 238.661 282.678 206.4C188.679 169.01 88.0545 150.844 -0.659866 155.252C-52.516 157.856 -121.215 178.504 -152.193 212.933C-170.742 233.549 -172.841 256.446 -158.27 279.149L-158.581 279.24C-166.219 267.34 -169.357 255.416 -167.905 243.802C-166.571 233.135 -161.385 222.709 -152.484 212.814C-138.38 197.136 -115.423 183.201 -86.1005 172.515C-58.9993 162.639 -28.6684 156.427 -0.690338 155.024C45.7625 152.717 95.2827 156.53 146.492 166.356C192.877 175.258 238.755 188.665 282.848 206.204C363.924 238.483 432.854 283.609 482.191 336.7C484.889 339.604 487.567 342.585 490.151 345.56C511.137 369.723 528.241 395.916 542.443 425.634C544.83 430.623 547.18 435.764 549.455 440.736C560.695 465.314 572.314 490.725 594.303 512.116C595.525 513.305 596.795 514.489 598.071 515.632C627.958 542.367 669.025 553.244 712.211 553.244C712.448 553.244 712.681 553.244 712.918 553.244C712.648 553.241 712.377 553.244 712.106 553.244ZM721.318 553.084C761.467 551.697 802.896 541.317 838.437 525.876C915.102 492.431 970.202 440.775 1023.49 390.82C1025.68 388.761 1027.88 386.707 1030.07 384.652C1034.89 380.142 1040.6 374.803 1046.43 369.42C1072.58 345.282 1104.23 317.197 1140.69 291.918C1179.47 265.019 1218.22 245.059 1259.14 230.893C1284.28 222.199 1310.86 216.074 1338.12 212.689C1363.38 209.553 1390.08 208.667 1417.45 210.054C1464.75 212.452 1515.61 221.545 1572.93 237.854C1628.82 253.731 1674.76 268.675 1717.51 284.886C1778.07 307.874 1835.76 334.36 1884.2 357.236C1996.83 410.573 2107.33 471.138 2212.65 537.249L2212.42 537.415C2107.11 471.313 1996.62 410.753 1884.01 357.423C1835.57 334.549 1777.9 308.068 1717.35 285.087C1674.61 268.88 1628.68 253.94 1572.81 238.068C1447.93 202.539 1348.31 200.323 1259.3 231.098C1166.91 263.074 1101.12 319.334 1046.7 369.557C1040.87 374.939 1035.16 380.276 1030.35 384.789C1028.15 386.841 1025.96 388.898 1023.76 390.957C970.459 440.927 915.339 492.602 838.62 526.072C819.596 534.335 799.354 540.9 778.452 545.581C758.995 549.934 739.816 552.451 721.318 553.084Z" fill="white"/>
<path d="M721.542 540.779C718.857 540.779 716.189 540.74 713.542 540.66C691.245 539.997 670.61 536.556 652.213 530.426C632.093 523.723 614.661 513.794 600.404 500.913C599.138 499.765 597.875 498.578 596.657 497.384C574.884 476.069 562.771 450.979 551.06 426.718C548.619 421.661 546.094 416.431 543.534 411.356C528.638 381.754 511.094 355.785 489.894 331.963C487.27 329.018 484.555 326.064 481.816 323.185C431.795 270.586 362.347 226.066 280.986 194.439C186.317 157.698 85.4077 140.314 -3.15097 145.496C-53.0131 148.459 -121.512 167.93 -154.081 203.673C-172.898 224.324 -175.637 247.281 -162.003 270.064L-162.318 270.148C-169.462 258.213 -172.187 246.261 -170.427 234.626C-168.808 223.925 -163.405 213.472 -154.369 203.554C-140.116 187.913 -117.233 173.973 -88.1921 163.237C-61.3448 153.313 -31.1527 146.933 -3.18146 145.27C43.2172 142.557 92.7915 145.965 144.16 155.399C190.66 163.941 236.751 177.009 281.156 194.243C362.564 225.891 432.049 270.435 482.1 323.064C484.839 325.945 487.558 328.9 490.182 331.849C511.392 355.684 528.946 381.67 543.849 411.288C546.409 416.365 548.934 421.595 551.375 426.652C563.082 450.899 575.186 475.971 596.931 497.261C598.15 498.455 599.406 499.639 600.672 500.783C658.602 553.122 761.264 547.503 837.307 518.718C917.171 488.221 976.523 437.533 1033.92 388.514L1034.51 388.011C1040.07 383.26 1045.82 378.349 1051.54 373.499C1111.91 322.34 1178.27 269.763 1266.87 238.364C1291.75 229.567 1317.95 223.107 1344.76 219.164C1369.69 215.497 1395.98 213.887 1422.9 214.379C1469.82 215.235 1520.08 222.337 1576.57 236.091C1635.94 250.493 1680.62 263.732 1721.43 279.018C1779.59 300.842 1835.92 328.419 1885.62 352.751C1996.28 407.215 2105.1 468.57 2209.06 535.107L2208.83 535.271C2104.87 468.741 1996.06 407.393 1885.42 352.933C1835.73 328.606 1779.4 301.033 1721.27 279.216C1680.47 263.935 1635.81 250.7 1576.46 236.302C1454.01 206.491 1355.69 207.208 1267.03 238.562C1178.49 269.941 1112.15 322.495 1051.8 373.636C1046.08 378.485 1040.33 383.398 1034.77 388.148L1034.19 388.651C1005.58 413.078 976.005 438.337 944.066 460.898C908.173 486.253 873.305 505.229 837.469 518.912C799.978 533.103 759.138 540.779 721.542 540.779Z" fill="white"/>
<path d="M2205.24 533.119C2102.64 466.161 1995.51 404.025 1886.84 348.437C1882.23 346.1 1877.62 343.752 1872.99 341.396C1825.92 317.429 1777.25 292.647 1725.2 273.34C1674.7 254.662 1623.53 243.241 1580.12 234.533C1460.32 210.347 1363.29 213.999 1274.77 246.02C1183.9 278.989 1113.49 333.727 1056.91 377.711C1053.52 380.351 1050.13 382.996 1046.73 385.643C1044.23 387.597 1041.72 389.551 1039.21 391.504C1007 416.573 977.696 438.987 945.32 459.439C908.333 482.803 872.684 499.913 836.327 511.751C802.255 522.846 765.857 528.716 732.002 528.718C725.833 528.718 719.756 528.525 713.784 528.131C691.981 526.693 671.797 522.655 653.792 516.127C634.146 509.004 617.059 498.886 602.999 486.053C601.743 484.903 600.491 483.714 599.279 482.518C577.764 461.314 565.18 436.577 553.012 412.655C550.392 407.503 547.68 402.173 544.938 397C529.33 367.491 511.333 341.729 489.923 318.24C487.258 315.318 484.499 312.391 481.723 309.537C430.984 257.4 360.985 213.459 279.295 182.463C183.955 146.371 82.7654 129.772 -5.63757 135.722C-66.0727 139.87 -127.872 163.983 -155.925 194.357C-175.036 215.051 -178.425 238.082 -165.733 260.96L-166.051 261.04C-172.697 249.061 -175.012 237.073 -172.934 225.408C-171.021 214.669 -165.394 204.181 -156.212 194.237C-141.81 178.64 -119.002 164.7 -90.2521 153.926C-63.6622 143.961 -33.6258 137.414 -5.67145 135.497C40.6731 132.376 90.2982 135.38 141.826 144.423C188.438 152.605 234.749 165.336 279.465 182.262C361.205 213.277 431.241 257.243 482.011 309.411C484.79 312.268 487.549 315.197 490.214 318.12C511.637 341.622 529.642 367.398 545.259 396.92C548.001 402.095 550.713 407.423 553.334 412.578C565.494 436.486 578.072 461.207 599.56 482.386C600.772 483.579 602.021 484.766 603.274 485.914C663.749 541.114 766.537 534.219 836.181 511.544C919.272 484.488 982.856 435.01 1038.96 391.353C1041.47 389.399 1043.97 387.444 1046.48 385.492C1049.87 382.846 1053.26 380.201 1056.66 377.561C1088.95 352.455 1120.85 328.058 1155.91 305.576C1196.23 279.72 1235.06 260.174 1274.62 245.82C1299.23 236.916 1325.07 230.121 1351.41 225.627C1376.03 221.424 1401.91 219.092 1428.35 218.691C1474.97 217.985 1524.65 223.096 1580.23 234.315C1623.64 243.027 1674.84 254.453 1725.36 273.142C1777.44 292.455 1826.12 317.245 1873.2 341.216C1877.83 343.572 1882.44 345.92 1887.05 348.257C1995.73 403.849 2102.87 465.992 2205.48 532.957L2205.24 533.119Z" fill="white"/>
<path d="M2201.65 530.972C2098.47 462.306 1993.02 399.379 1888.25 343.944C1881.98 340.628 1875.57 337.209 1869.36 333.904C1824.94 310.233 1779.01 285.755 1729.12 267.467C1679.3 249.27 1627.7 239.712 1583.78 232.765C1466.9 214.093 1371.16 220.676 1282.51 253.481C1197.96 284.885 1131.71 332.109 1067.65 377.776L1060.61 382.79C1055.06 386.751 1049.31 390.844 1043.65 394.86C979.518 440.266 915.321 482.822 835.182 504.589C815.736 509.871 795.768 513.531 775.827 515.474C754.414 517.558 733.613 517.588 714.001 515.561C692.699 513.358 672.972 508.732 655.367 501.81C636.208 494.277 619.463 483.974 605.603 471.191C604.354 470.034 603.111 468.843 601.909 467.649C580.658 446.571 567.621 422.198 555.013 398.627C552.2 393.368 549.288 387.929 546.349 382.646C530.018 353.229 511.573 327.674 489.96 304.522C487.258 301.629 484.459 298.725 481.638 295.894C430.185 244.22 359.634 200.857 277.609 170.492C181.596 135.054 80.1214 119.237 -8.12921 125.958C-68.0125 130.616 -129.531 154.898 -157.726 185.008C-177.155 205.754 -181.214 228.874 -169.467 251.868L-169.788 251.944C-175.936 239.912 -177.836 227.879 -175.435 216.18C-173.221 205.394 -167.361 194.866 -158.017 184.89C-143.459 169.346 -120.732 155.419 -92.2867 144.614C-65.9608 134.612 -36.0869 127.908 -8.16985 125.735C38.1205 122.209 87.7964 124.808 139.487 133.459C186.214 141.281 232.738 153.672 277.769 170.293C359.841 200.675 430.432 244.065 481.916 295.769C484.736 298.602 487.539 301.509 490.241 304.401C511.868 327.564 530.322 353.133 546.661 382.567C549.599 387.849 552.511 393.291 555.324 398.55C567.925 422.107 580.956 446.468 602.184 467.522C603.382 468.711 604.624 469.9 605.87 471.057C664.89 525.49 762.956 523.961 835.05 504.379C915.125 482.631 979.294 440.09 1043.4 394.705C1049.06 390.689 1054.81 386.596 1060.36 382.635L1067.4 377.622C1098.84 355.206 1131.36 332.024 1166.67 310.46C1206.67 286.038 1244.51 267.335 1282.34 253.281C1306.71 244.265 1332.17 237.136 1358.04 232.093C1382.36 227.35 1407.84 224.293 1433.78 223.006C1480.2 220.704 1529.28 223.824 1583.86 232.541C1627.79 239.493 1679.43 249.053 1729.28 267.266C1779.19 285.562 1825.14 310.046 1869.57 333.724C1875.77 337.029 1882.18 340.445 1888.45 343.764C1993.24 399.204 2098.69 462.135 2201.89 530.808L2201.65 530.972Z" fill="white"/>
<path d="M2198.06 528.83C2095.76 459.4 1992 395.685 1889.66 339.458C1881.97 335.232 1874.08 330.838 1866.46 326.59C1824.43 303.174 1780.97 278.961 1733.04 261.602C1683.45 243.717 1631.62 236.098 1587.44 231.004C1473.79 217.7 1379.36 227.216 1290.25 260.951C1212.48 290.514 1148.63 332.412 1086.88 372.93C1080.39 377.194 1073.67 381.601 1067.12 385.872C1059.43 390.888 1053.56 394.699 1048.08 398.225C1018.72 417.099 983.767 438.831 947.089 456.908C908.219 476.062 871.239 489.319 834.032 497.437C814.467 501.705 794.584 504.398 774.931 505.437C753.829 506.553 733.397 505.733 714.208 502.997C693.418 500.034 674.151 494.82 656.935 487.501C638.267 479.565 621.871 469.078 608.2 456.336C606.968 455.181 605.732 453.988 604.534 452.79C583.564 431.852 570.09 407.855 557.055 384.649C554.032 379.267 550.907 373.702 547.755 368.297C530.689 338.961 511.794 313.616 489.988 290.808C487.246 287.94 484.405 285.064 481.544 282.255C429.377 231.043 358.27 188.259 275.914 158.525C179.233 123.738 77.4747 108.707 -10.6202 116.196C-60.7464 120.551 -126.216 140.614 -159.482 175.615C-179.26 196.425 -184.007 219.65 -173.203 242.776L-173.525 242.844C-179.176 230.752 -180.652 218.666 -177.916 206.921C-175.391 196.081 -169.286 185.508 -159.766 175.492C-145.053 160.012 -122.41 146.108 -94.28 135.28C-68.2182 125.248 -38.5237 118.392 -10.6608 115.971C35.5753 112.039 85.3054 114.233 137.151 122.492C183.99 129.954 230.731 142.008 276.073 158.324C358.477 188.075 429.624 230.884 481.822 282.125C484.683 284.934 487.527 287.815 490.269 290.685C512.085 313.504 530.99 338.863 548.067 368.213C551.222 373.62 554.347 379.185 557.37 384.567C570.394 407.762 583.865 431.745 604.812 452.66C606.01 453.856 607.242 455.047 608.475 456.199C657.575 501.97 741.858 517.304 833.927 497.216C917.306 479.025 985.321 438.255 1047.84 398.056C1053.32 394.53 1059.19 390.719 1066.88 385.704C1073.43 381.433 1080.15 377.025 1086.65 372.761C1117.05 352.815 1148.48 332.189 1182 312.876C1219.91 291.034 1255.27 273.982 1290.08 260.748C1314.21 251.614 1339.31 244.15 1364.68 238.564C1388.72 233.273 1413.8 229.494 1439.23 227.328C1485.53 223.387 1534.03 224.515 1587.5 230.774C1631.7 235.872 1683.57 243.494 1733.2 261.395C1781.16 278.765 1824.63 302.985 1866.67 326.408C1874.29 330.656 1882.18 335.05 1889.87 339.275C1992.22 395.51 2095.99 459.229 2198.3 528.663L2198.06 528.83Z" fill="white"/>
<path d="M2194.47 526.684C2093.06 456.487 1990.98 391.982 1891.06 334.966C1882.56 330.116 1873.83 325.025 1865.39 320.103C1825.17 296.655 1783.59 272.411 1736.96 255.73C1687.34 238.059 1635.38 232.421 1591.1 229.237C1482.6 221.226 1386.72 234.041 1297.98 268.413C1227.32 295.906 1166.75 332.686 1108.17 368.256C1096.34 375.44 1084.11 382.87 1072.21 389.952C1064.94 394.287 1058.49 398.093 1052.5 401.587C1024.63 417.819 987.567 438.631 947.956 455.639C908.156 472.727 870.512 484.059 832.875 490.28C791.825 497.066 750.857 497.116 714.402 490.428C694.133 486.709 675.323 480.909 658.493 473.19C640.323 464.855 624.276 454.186 610.791 441.483C609.569 440.326 608.343 439.13 607.152 437.932C586.479 417.154 572.585 393.551 559.151 370.727C555.901 365.206 552.543 359.498 549.154 353.951C531.339 324.693 511.995 299.553 490.012 277.098C487.229 274.256 484.348 271.404 481.447 268.62C428.565 217.871 356.907 175.663 274.219 146.564C176.871 112.431 74.8279 98.1836 -13.1146 106.441C-72.7135 112.158 -132.221 136.166 -161.187 166.178C-181.345 187.063 -186.792 210.409 -176.94 233.69L-177.265 233.752C-182.415 221.586 -183.464 209.436 -180.387 197.642C-177.543 186.74 -171.178 176.112 -161.472 166.053C-146.603 150.646 -124.048 136.774 -96.2463 125.936C-70.4587 115.884 -40.9504 108.878 -13.162 106.213C33.02 101.876 82.8042 103.666 134.809 111.531C181.763 118.634 228.72 130.351 274.374 146.359C357.11 175.476 428.809 217.707 481.724 268.488C484.626 271.272 487.507 274.126 490.293 276.971C512.286 299.439 531.641 324.59 549.466 353.862C552.854 359.409 556.213 365.119 559.463 370.641C572.89 393.453 586.777 417.044 607.429 437.802C608.621 439 609.843 440.191 611.065 441.348C659.323 486.822 742.21 505.031 832.794 490.059C915.374 476.408 987.086 439.387 1052.28 401.416C1058.27 397.922 1064.72 394.118 1071.99 389.783C1083.88 382.702 1096.11 375.274 1107.94 368.09C1166.53 332.513 1227.11 295.724 1297.81 268.219C1321.72 258.956 1346.45 251.159 1371.31 245.04C1395.09 239.191 1419.77 234.688 1444.66 231.656C1490.95 226.018 1538.86 225.155 1591.13 229.014C1635.44 232.2 1687.44 237.84 1737.11 255.532C1783.78 272.224 1825.38 296.478 1865.61 319.935C1874.05 324.857 1882.78 329.946 1891.28 334.795C1991.2 391.815 2093.29 456.325 2194.71 526.527L2194.47 526.684Z" fill="white"/>
<path d="M2190.88 524.537C2090.37 453.565 1989.97 388.274 1892.48 330.475C1883.52 325.163 1874.3 319.539 1865.39 314.1C1826.64 290.454 1786.57 266.002 1740.88 249.859C1691.05 232.338 1639.05 228.709 1594.76 227.47C1490.36 224.336 1395.81 240.169 1305.72 275.876C1242.53 301.037 1186.21 332.88 1131.74 363.674C1113.01 374.263 1095.31 384.265 1077.32 394.03C1070 398.005 1063.33 401.577 1056.94 404.945C1015.65 426.664 981.299 442.367 948.832 454.362C908.101 469.412 869.797 478.819 831.73 483.12C816.962 484.787 802.249 485.618 787.803 485.618C762.195 485.618 737.416 483.013 714.604 477.851C673.321 468.51 639.269 451.274 613.394 426.621C612.175 425.453 610.96 424.257 609.781 423.063C589.424 402.465 575.141 379.281 561.328 356.859C557.827 351.178 554.211 345.306 550.565 339.595C531.989 310.405 512.19 285.475 490.049 263.378C487.225 260.56 484.303 257.733 481.361 254.975C427.765 204.688 355.552 163.059 272.532 134.591C174.517 101.114 72.1931 87.6474 -15.5971 96.672C-75.4431 102.952 -133.234 126.504 -162.82 156.676C-183.387 177.648 -189.556 201.132 -180.665 224.591L-180.994 224.648C-185.635 212.398 -186.251 200.175 -182.822 188.319C-179.646 177.345 -173.014 166.658 -163.101 156.551C-148.076 141.228 -125.62 127.402 -98.1566 116.564C-72.6466 106.496 -43.3449 99.353 -15.6479 96.4465C30.48 91.7041 80.3184 93.089 132.479 100.563C179.548 107.307 226.719 118.687 272.688 134.386C355.755 162.872 428.009 204.524 481.639 254.84C484.581 257.601 487.503 260.428 490.33 263.248C512.485 285.356 532.293 310.3 550.877 339.502C554.523 345.212 558.142 351.087 561.639 356.768C575.445 379.179 589.722 402.353 610.062 422.933C611.241 424.125 612.453 425.32 613.671 426.487C661.99 472.526 741.448 493.085 831.672 482.892C917.56 473.188 993.633 437.953 1056.73 404.763C1063.12 401.394 1069.79 397.825 1077.11 393.85C1095.1 384.085 1112.79 374.086 1131.52 363.496C1186 332.696 1242.34 300.848 1305.55 275.678C1329.28 266.27 1353.64 258.139 1377.96 251.506C1401.51 245.082 1425.78 239.855 1450.1 235.971C1496.49 228.566 1543.81 225.71 1594.77 227.24C1639.1 228.479 1691.15 232.113 1741.04 249.654C1786.76 265.808 1826.85 290.272 1865.61 313.927C1874.53 319.366 1883.74 324.99 1892.7 330.3C1990.2 388.103 2090.61 453.401 2191.12 524.378L2190.88 524.537Z" fill="white"/>
<path d="M2187.29 522.395C2086.29 449.633 1990.31 385.387 1893.89 325.987C1884.69 320.32 1875.63 314.532 1866.04 308.404C1828.55 284.451 1789.79 259.685 1744.8 243.993C1694.35 226.479 1640.07 225.021 1598.42 225.709C1498.78 227.139 1405.56 245.993 1313.46 283.346C1258.19 305.867 1207.17 332.911 1157.83 359.067C1131.89 372.814 1107.4 385.795 1082.42 398.116C1075.01 401.776 1068.12 405.111 1061.37 408.311C1019.52 428.119 984.037 442.346 949.701 453.088C908.025 466.126 869.061 473.609 830.581 475.964C810.809 477.174 791.173 476.946 772.218 475.288C752.148 473.532 732.83 470.163 714.802 465.277C674.843 454.446 641.6 436.444 615.996 411.769C614.787 410.598 613.582 409.4 612.41 408.206C592.395 387.82 577.753 365.079 563.591 343.086C559.813 337.219 555.906 331.151 551.975 325.251C532.62 296.125 512.375 271.402 490.081 249.669C487.214 246.876 484.251 244.075 481.275 241.341C426.965 191.517 354.2 150.466 270.848 122.629C193.915 97.0425 114.578 83.6923 41.8269 83.6923C21.2598 83.6923 1.23439 84.7583 -18.08 86.9154C-77.2049 93.6486 -134.634 117.285 -164.392 147.134C-185.396 168.203 -192.313 191.847 -184.394 215.507L-184.726 215.557C-188.86 203.211 -189.032 190.904 -185.241 178.98C-181.726 167.925 -174.806 157.167 -164.677 147.006C-149.496 131.779 -127.145 118.01 -100.034 107.183C-74.4424 96.9628 -46.1224 89.8765 -18.141 86.6921C27.9326 81.5443 77.8252 82.526 130.145 89.6055C177.326 95.9879 224.717 107.028 270.997 122.422C354.396 150.275 427.205 191.348 481.55 241.202C484.529 243.936 487.495 246.74 490.362 249.535C512.666 271.279 532.922 296.013 552.287 325.153C556.217 331.053 560.128 337.121 563.906 342.991C578.061 364.974 592.696 387.706 612.695 408.077C613.866 409.268 615.071 410.466 616.277 411.635C664.158 457.776 742.256 481.137 830.554 475.734C919.901 470.265 1000.73 436.727 1061.18 408.12C1067.93 404.92 1074.81 401.585 1082.23 397.927C1107.2 385.611 1131.69 372.627 1157.62 358.883C1206.97 332.725 1258 305.673 1313.29 283.146C1360.71 263.914 1407.24 249.899 1455.55 240.296C1502.14 231.034 1548.88 226.187 1598.42 225.476C1626.68 225.01 1649.74 225.82 1670.99 228.025C1698.42 230.873 1722.62 236.027 1744.96 243.785C1789.99 259.491 1828.77 284.271 1866.28 308.236C1875.87 314.363 1884.93 320.149 1894.12 325.816C1990.55 385.219 2086.53 449.469 2187.54 522.236L2187.29 522.395Z" fill="white"/>
<path d="M2183.7 520.246C2083.62 446.686 1989.28 381.676 1895.3 321.491C1886 315.537 1876.83 309.403 1867.13 302.909C1830.76 278.578 1793.16 253.415 1748.72 238.117C1697.85 220.685 1643.63 221.382 1602.08 223.935C1508.04 229.514 1416.16 251.387 1321.19 290.803C1274.39 310.316 1229.84 332.648 1186.75 354.246C1152.69 371.318 1120.52 387.445 1087.52 402.185C1080.06 405.52 1072.75 408.709 1065.79 411.661C1023.86 429.437 986.171 442.564 950.565 451.793C907.931 462.845 868.307 468.407 829.428 468.795C809.646 468.991 790.088 467.788 771.308 465.216C751.621 462.519 732.676 458.303 714.997 452.681C676.409 440.411 643.972 421.644 618.591 396.9C617.399 395.732 616.2 394.531 615.032 393.331C595.393 373.193 580.432 350.932 565.962 329.404C561.869 323.314 557.634 317.013 553.378 310.888C533.231 281.817 512.535 257.303 490.11 235.942C487.201 233.174 484.199 230.397 481.182 227.689C426.157 178.327 352.837 137.855 269.153 110.649C169.808 78.4861 66.9117 66.5869 -20.5738 77.1422C-78.9336 84.3059 -135.98 108.004 -165.904 137.513C-187.382 158.694 -195.067 182.516 -188.134 206.405L-188.466 206.449C-192.081 193.996 -191.804 181.593 -187.636 169.587C-183.766 158.442 -176.552 147.606 -166.185 137.383C-150.856 122.266 -128.616 108.565 -101.871 97.7609C-76.5738 87.5427 -48.4841 80.3357 -20.6347 76.9167C25.3882 71.3657 75.3315 71.9397 127.807 78.6274C175.103 84.6544 222.707 95.3578 269.299 110.441C353.033 137.661 426.394 178.158 481.449 227.55C484.469 230.258 487.476 233.037 490.384 235.807C512.823 257.18 533.526 281.705 553.683 310.788C557.942 316.913 562.174 323.213 566.271 329.307C580.734 350.825 595.687 373.077 615.313 393.201C616.481 394.399 617.68 395.6 618.868 396.766C667.254 443.935 742.03 469.437 829.421 468.562C900.331 467.856 975.381 449.711 1065.61 411.462C1072.56 408.51 1079.87 405.324 1087.33 401.989C1120.32 387.252 1152.49 371.129 1186.55 354.057C1229.64 332.457 1274.2 310.121 1321.01 290.602C1368.89 270.728 1414.68 255.686 1460.98 244.609C1507.89 233.388 1554.04 226.548 1602.05 223.701C1643.64 221.143 1697.93 220.448 1748.88 237.907C1793.36 253.223 1830.98 278.398 1867.37 302.741C1877.07 309.235 1886.24 315.366 1895.53 321.318C1989.52 381.505 2083.86 446.52 2183.95 520.084L2183.7 520.246Z" fill="white"/>
<path d="M2180.11 518.101C2080.96 443.742 1988.26 377.962 1896.71 317.003C1887.42 310.814 1878.24 304.384 1868.53 297.576C1833.19 272.809 1796.65 247.2 1752.65 232.248C1701.3 214.88 1647.16 217.739 1605.74 222.169C1517.27 231.451 1429.31 255.632 1328.93 298.268C1291.28 314.331 1254.49 331.952 1218.91 348.992C1175.7 369.689 1134.88 389.239 1092.62 406.266C1085.01 409.336 1077.47 412.284 1070.22 415.021C1027.54 431.135 988.686 442.742 951.435 450.505C930.57 454.853 909.972 458.004 890.214 459.869C869.139 461.858 848.301 462.452 828.279 461.637C787.656 459.981 749.61 452.733 715.199 440.095C678.036 426.447 646.409 406.917 621.197 382.043C620.012 380.866 618.823 379.663 617.662 378.469C598.443 358.628 583.214 336.895 568.491 315.88C564.032 309.518 559.424 302.94 554.789 296.539C533.83 267.515 512.684 243.209 490.143 222.228C487.194 219.483 484.147 216.732 481.093 214.051C425.354 165.149 351.482 125.255 267.466 98.6846C167.458 67.1803 64.2804 56.0646 -23.0595 67.383C-116.578 79.69 -207.706 132.865 -191.862 197.316L-192.197 197.352C-196.162 181.23 -193.839 165.347 -185.297 150.14C-177.497 136.252 -164.696 123.182 -147.251 111.297C-131.031 100.245 -111.571 90.7032 -89.4159 82.9359C-68.3443 75.5489 -45.4209 70.0913 -23.1272 67.1575C22.8415 61.201 72.8391 61.3719 125.474 67.6677C172.885 73.3372 220.705 83.7035 267.609 98.4796C351.671 125.068 425.588 164.985 481.361 213.914C484.418 216.597 487.465 219.349 490.417 222.096C512.968 243.086 534.124 267.406 555.094 296.441C559.729 302.842 564.337 309.42 568.795 315.784C583.516 336.792 598.737 358.516 617.947 378.346C619.104 379.54 620.289 380.743 621.474 381.918C669.931 429.72 743.384 457.949 828.3 461.411C900.188 464.338 979.267 449.102 1070.06 414.826C1077.3 412.088 1084.83 409.142 1092.45 406.072C1134.7 389.05 1175.51 369.502 1218.72 348.808C1254.3 331.765 1291.09 314.142 1328.75 298.077C1429.17 255.423 1517.16 231.232 1605.69 221.943C1633.52 218.966 1656.57 218.014 1678.22 218.95C1705.89 220.146 1730.29 224.428 1752.8 232.043C1796.85 247.011 1833.41 272.636 1868.77 297.416C1878.48 304.222 1887.66 310.652 1896.95 316.839C1988.5 377.802 2081.21 443.585 2180.36 517.948L2180.11 518.101Z" fill="white"/>
<path d="M2176.52 515.954C2078.32 440.784 1987.25 374.238 1898.13 312.509C1888.9 306.122 1879.79 299.432 1870.14 292.346C1835.76 267.106 1800.21 241.005 1756.57 226.374C1704.1 208.86 1647.45 214.575 1609.4 220.397C1506.13 236.005 1413.58 272.29 1336.67 305.731C1309.03 317.798 1281.46 330.581 1254.79 342.943C1201.29 367.742 1150.77 391.164 1097.73 410.343C1089.93 413.166 1082.17 415.869 1074.66 418.382C1031.15 432.912 991.126 442.998 952.314 449.212C908.316 456.257 866.203 458.029 827.138 454.476C787.005 450.824 749.413 441.75 715.408 427.502C679.742 412.56 648.923 392.267 623.803 367.186C622.631 366.008 621.45 364.803 620.295 363.605C601.553 344.128 586.135 322.992 571.222 302.551C566.337 295.852 561.282 288.927 556.204 282.187C534.113 252.799 513.133 229.39 490.183 208.512C487.193 205.792 484.109 203.068 481.011 200.41C424.551 151.972 350.123 112.657 265.776 86.7152C165.104 55.8715 61.6423 45.5371 -25.5486 57.6186C-119.402 70.7956 -208.669 123.249 -195.594 188.223L-195.929 188.253C-199.172 172.133 -196.365 156.266 -187.59 141.093C-179.546 127.192 -166.671 114.108 -149.317 102.209C-133.134 91.1114 -113.776 81.499 -91.7764 73.6338C-70.8301 66.1444 -47.9507 60.5296 -25.6163 57.3931C20.3016 51.0311 70.3499 50.7988 123.14 56.7006C170.667 62.0124 218.704 72.0416 265.918 86.5079C350.316 112.464 424.784 151.801 481.272 200.268C484.37 202.929 487.457 205.655 490.45 208.375C513.414 229.262 534.401 252.685 556.502 282.085C561.58 288.825 566.635 295.752 571.52 302.451C586.43 322.885 601.844 344.014 620.573 363.482C621.727 364.68 622.906 365.883 624.077 367.06C672.91 415.815 745.038 446.779 827.178 454.25C900.847 460.952 981.748 449.15 1074.51 418.177C1082.01 415.667 1089.77 412.965 1097.57 410.143C1150.59 390.968 1201.11 367.55 1254.59 342.754C1281.26 330.392 1308.84 317.607 1336.48 305.537C1388.2 283.053 1431.22 266.441 1471.87 253.259C1519.72 237.743 1564.68 226.921 1609.32 220.174C1636.54 216.01 1660.26 214.124 1681.84 214.411C1709.63 214.78 1734.12 218.625 1756.72 226.169C1800.42 240.818 1835.99 266.935 1870.39 292.191C1880.04 299.275 1889.15 305.965 1898.37 312.348C1987.5 374.078 2078.56 440.629 2176.78 515.801L2176.52 515.954Z" fill="white"/>
<path d="M2172.94 513.807C2075.68 437.824 1986.25 370.511 1899.54 308.017C1890.44 301.464 1881.45 294.541 1871.92 287.211C1838.45 261.463 1803.84 234.838 1760.49 220.504C1707.45 203.031 1650.95 211.064 1613.06 218.629C1519.5 237.15 1436.04 272.415 1344.41 313.194C1327.88 320.577 1311.17 328.196 1295 335.567C1232.83 363.912 1168.55 393.22 1102.83 414.422C1094.85 417.001 1086.86 419.463 1079.09 421.741C1035.28 434.569 992.92 443.375 953.184 447.915C908.17 453.058 865.377 452.856 825.983 447.316C786.413 441.751 749.277 430.848 715.605 414.907C681.529 398.776 651.513 377.722 626.393 352.332C625.231 351.152 624.06 349.944 622.912 348.746C604.735 329.724 589.219 309.277 574.215 289.503C568.808 282.378 563.219 275.012 557.602 267.843C534.648 238.485 513.231 215.276 490.203 194.803C487.18 192.115 484.051 189.414 480.91 186.776C423.745 138.794 348.769 100.058 264.083 74.7493C162.751 44.5662 59.0083 35.0153 -28.0405 47.8576C-118.915 61.4105 -209.83 112.023 -199.331 179.132L-199.667 179.155C-202.189 163.035 -198.898 147.186 -189.889 132.047C-181.605 118.13 -168.652 105.035 -151.392 93.1221C-119.548 71.1458 -74.6152 54.5657 -28.1149 47.6321C17.7488 40.867 67.8513 40.2292 120.801 45.7369C168.442 50.6934 216.693 60.3832 264.219 74.5398C348.952 99.8621 423.972 138.624 481.174 186.628C484.319 189.268 487.447 191.97 490.474 194.66C513.512 215.144 534.939 238.362 557.9 267.732C563.517 274.902 569.109 282.269 574.516 289.394C589.517 309.163 605.03 329.606 623.197 348.619C624.341 349.817 625.512 351.022 626.674 352.202C676.932 403.001 745.875 435.813 826.047 447.09C900.285 457.532 985.37 448.933 1078.95 421.531C1086.71 419.253 1094.7 416.793 1102.68 414.217C1168.37 393.022 1232.65 363.718 1294.8 335.378C1310.97 328.007 1327.68 320.388 1344.21 313.005C1384.32 295.154 1430.99 274.679 1477.31 257.584C1525.76 239.703 1570.13 226.891 1612.96 218.413C1639.92 213.03 1663.64 210.238 1685.45 209.878C1712.97 209.422 1738.26 212.93 1760.63 220.301C1780.05 226.722 1799.59 236.305 1820.37 249.598C1838.73 261.336 1855.73 274.415 1872.17 287.061C1881.69 294.389 1890.69 301.311 1899.78 307.862C1986.49 370.358 2075.92 437.674 2173.19 513.659L2172.94 513.807Z" fill="white"/>
<path d="M2169.34 511.661C2073.04 434.858 1985.24 366.777 1900.94 303.527C1892.02 296.83 1883.17 289.698 1873.81 282.149C1841.21 255.866 1807.51 228.687 1764.41 214.635C1724.14 201.545 1675.83 202.274 1616.72 216.863C1534.07 237.147 1460.19 271.075 1381.97 306.998C1372.23 311.472 1362.16 316.095 1352.14 320.662C1348.22 322.455 1344.29 324.252 1340.37 326.047C1265.84 360.144 1188.77 395.402 1107.93 418.503C1099.76 420.84 1091.54 423.061 1083.52 425.102C1038.75 436.475 995.192 443.714 954.064 446.616C908.011 449.864 864.531 447.691 824.839 440.156C785.885 432.76 749.206 420.027 715.821 402.31C683.462 385.138 654.252 363.326 628.999 337.475C627.848 336.293 626.687 335.083 625.546 333.883C608.06 315.458 592.595 295.834 577.634 276.858C571.577 269.173 565.311 261.225 559.017 253.49C535.176 224.152 513.326 201.144 490.243 181.085C487.176 178.42 484.011 175.746 480.828 173.134C422.939 125.616 347.408 87.4563 262.391 62.7809C160.401 33.2606 56.3709 24.491 -30.5323 38.094C-119.738 52.1732 -210.524 103.201 -203.066 170.04L-203.404 170.059C-205.202 153.936 -201.43 138.106 -192.188 123.006C-183.66 109.073 -170.632 95.9617 -153.464 84.0396C-121.755 62.0178 -76.9784 45.1917 -30.6102 37.8731C15.2028 30.7026 65.3561 29.6593 118.461 34.7753C166.218 39.3719 214.688 48.7246 262.526 62.5713C347.591 87.2627 423.169 125.443 481.082 172.986C484.265 175.598 487.437 178.277 490.504 180.942C513.597 201.012 535.461 224.027 559.308 253.376C565.605 261.112 571.869 269.061 577.929 276.746C592.883 295.718 608.348 315.337 625.827 333.755C626.968 334.956 628.126 336.163 629.277 337.345C680.625 389.908 748.278 425.38 824.927 439.931C900.59 454.294 987.551 449.231 1083.4 424.883C1091.42 422.842 1099.63 420.624 1107.79 418.289C1188.61 395.197 1265.66 359.945 1340.17 325.854C1344.1 324.056 1348.02 322.261 1351.95 320.469C1361.97 315.902 1372.04 311.278 1381.78 306.807C1460.01 270.877 1533.91 236.939 1616.6 216.647C1643.3 210.055 1667.01 206.358 1689.08 205.34C1716.69 204.066 1742.09 207.125 1764.56 214.428C1783.86 220.722 1803.16 230.348 1823.55 243.857C1841.55 255.777 1858.08 269.109 1874.07 282.001C1883.43 289.548 1892.27 296.677 1901.2 303.372C1985.5 366.624 2073.3 434.708 2169.6 511.513L2169.34 511.661Z" fill="white"/>
<path d="M2165.76 509.514C2077.86 437.945 1989.24 367.128 1902.36 299.033C1893.51 292.141 1884.75 284.736 1875.47 276.898C1845.28 251.4 1811.07 222.501 1768.34 208.764C1727.59 195.696 1679.2 197.767 1620.38 215.092C1550.44 235.624 1488.55 265.814 1423.02 297.776C1402.5 307.785 1381.28 318.137 1359.88 328.123C1322.52 345.592 1282.11 364.076 1239.74 380.911C1194.37 398.942 1152.92 412.571 1113.03 422.579C1104.64 424.682 1096.21 426.661 1087.94 428.458C1042.22 438.396 997.484 444.052 954.965 445.268C907.896 446.612 863.729 442.485 823.684 432.991C749.738 415.242 685.108 378.107 631.593 322.616C630.452 321.431 629.301 320.219 628.167 319.019C611.568 301.407 596.373 282.827 581.68 264.857C574.763 256.4 567.613 247.653 560.419 239.141C535.671 209.81 513.38 187.004 490.271 167.372C487.16 164.73 483.953 162.08 480.734 159.495C422.14 112.436 346.054 74.8564 260.705 50.8119C158.056 21.9522 53.744 13.9685 -33.017 28.33C-122.764 43.2701 -211.275 93.621 -206.796 160.948L-207.135 160.957C-208.208 144.831 -203.949 129.018 -194.48 113.957C-185.704 100.006 -172.602 86.881 -155.533 74.9498C-139.451 63.7089 -120.391 53.8801 -98.8825 45.7347C-78.0005 37.8285 -55.8693 31.8971 -33.1016 28.1068C12.6606 20.5331 62.868 19.0844 116.129 23.8063C164.001 28.0498 212.684 37.0631 260.833 50.6001C346.233 74.6583 422.364 112.26 480.991 159.342C484.211 161.93 487.424 164.581 490.535 167.224C513.655 186.867 535.955 209.682 560.714 239.022C567.908 247.537 575.058 256.284 581.975 264.743C596.668 282.711 611.859 301.288 628.451 318.894C629.582 320.096 630.736 321.306 631.874 322.49C685.348 377.939 749.921 415.044 823.796 432.775C899.893 450.815 991.197 449.248 1087.84 428.24C1096.09 426.442 1104.53 424.465 1112.91 422.365C1202.11 399.99 1283.73 363.447 1359.68 327.934C1381.08 317.948 1402.3 307.598 1422.82 297.589C1488.36 265.62 1550.27 235.423 1620.24 214.882C1679.15 197.53 1727.64 195.459 1768.48 208.557C1787.62 214.709 1806.63 224.353 1826.58 238.036C1844.18 250.102 1860.22 263.652 1875.73 276.754C1885.01 284.592 1893.77 291.995 1902.62 298.883C1989.5 366.98 2078.12 437.797 2166.02 509.368L2165.76 509.514Z" fill="white"/>
<path d="M2162.16 507.373C2075.61 435.408 1988.67 363.803 1903.77 294.547C1895.2 287.579 1886.7 280.044 1877.69 272.067C1848.25 245.975 1814.88 216.4 1772.25 202.895C1731.02 189.85 1682.54 193.262 1624.03 213.322C1562.73 234.31 1506.41 263.944 1451.94 292.606C1424.63 306.977 1396.39 321.837 1367.61 335.588C1322.19 357.314 1283.97 373.887 1247.34 387.748C1202.17 404.838 1159.9 417.566 1118.12 426.659C1109.55 428.527 1100.88 430.263 1092.37 431.819C1048 439.921 1004.44 444.021 962.762 444.023C960.446 444.023 958.144 444.009 955.842 443.984C907.659 443.456 862.808 437.347 822.533 425.83C803.094 420.24 784.057 413.145 765.954 404.74C748.939 396.841 732.218 387.536 716.255 377.085C687.535 358.284 660.688 335.606 634.186 307.76C633.049 306.562 631.914 305.362 630.787 304.157C615.41 287.727 600.862 270.552 586.796 253.943C578.674 244.355 570.278 234.44 561.82 224.789C535.782 195.054 513.726 173.115 490.294 153.655C487.142 151.038 483.896 148.414 480.635 145.854C421.331 99.2614 344.693 62.2608 259.012 38.8472C155.706 10.6503 51.11 3.45014 -35.5088 18.5702C-123.573 33.9864 -211.969 84.7199 -210.531 151.858L-210.869 151.86C-211.539 120.588 -193.119 90.8518 -157.601 65.8665C-141.547 54.5732 -122.588 44.6738 -101.246 36.4373C-80.4788 28.424 -58.3916 22.3377 -35.5934 18.347C10.1146 10.3678 60.3762 8.51597 113.793 12.8438C161.78 16.732 210.68 25.4082 259.137 38.6331C344.872 62.0626 421.555 99.086 480.896 145.706C484.156 148.268 487.41 150.895 490.562 153.512C514.003 172.983 536.07 194.929 562.115 224.675C570.572 234.328 578.972 244.244 587.09 253.831C601.157 270.438 615.701 287.611 631.075 304.036C632.202 305.241 633.333 306.441 634.471 307.637C690.785 366.81 752.345 405.403 822.665 425.621C920.064 453.474 1023.04 444.246 1092.28 431.6C1100.79 430.044 1109.45 428.311 1118.02 426.443C1214.1 405.528 1301.77 366.803 1367.41 335.404C1396.19 321.657 1424.43 306.797 1451.73 292.428C1506.21 263.762 1562.55 234.119 1623.88 213.122C1650.06 204.145 1673.75 198.633 1696.31 196.273C1724.14 193.362 1749.74 195.521 1772.39 202.692C1791.49 208.74 1810.31 218.461 1829.94 232.41C1847.24 244.701 1862.86 258.544 1877.97 271.933C1886.96 279.907 1895.46 287.44 1904.03 294.403C1988.93 363.66 2075.87 435.265 2162.43 507.23L2162.16 507.373Z" fill="white"/>
<path d="M2158.58 505.224L1905.18 290.053C1896.91 283.026 1888.69 275.38 1879.98 267.286C1851.27 240.577 1818.73 210.305 1776.18 197.023C1735.03 184.181 1685.07 189.069 1627.69 211.553C1572.53 233.167 1522.22 261.911 1473.56 289.709C1441.84 307.829 1409.05 326.564 1375.35 343.053C1274.07 392.614 1185.56 421.886 1096.8 435.177C1059.98 440.689 1023.66 443.463 988.433 443.463C977.755 443.463 967.185 443.208 956.727 442.698C907.407 440.293 861.871 432.206 821.391 418.667C783.872 406.116 749.55 388.4 716.473 364.501C690.059 345.417 664.739 322.667 636.791 292.903C622.041 277.195 607.757 260.874 593.944 245.092C562.682 209.376 530.357 172.443 490.337 139.939C428.95 90.0847 348.375 50.9885 257.321 26.8756C153.361 -0.656177 48.4811 -7.07503 -37.9954 8.80354C-121.72 24.1764 -212.591 72.6527 -214.263 142.763L-214.602 142.759C-213.853 111.421 -194.857 81.6887 -159.668 56.7764C-127.851 34.2512 -84.6717 17.1358 -38.0835 8.5826C7.57379 0.200278 57.8895 -2.05703 111.459 1.87674C159.56 5.40734 208.678 13.7487 257.446 26.6638C302.501 38.5949 345.29 54.3004 384.63 73.3451C424.299 92.5493 459.952 114.904 490.594 139.789C530.631 172.304 562.966 209.246 594.235 244.971C608.048 260.751 622.332 277.07 637.079 292.775C677.854 336.204 735.672 389.734 821.543 418.458C920.021 451.397 1025.54 445.607 1096.73 434.949C1185.44 421.667 1273.91 392.406 1375.15 342.864C1408.83 326.382 1441.63 307.647 1473.34 289.532C1522.01 261.729 1572.33 232.978 1627.52 211.353C1685 188.83 1735.07 183.937 1776.32 196.814C1795.37 202.761 1814.02 212.567 1833.34 226.796C1850.34 239.322 1865.55 253.469 1880.26 267.15C1888.96 275.243 1897.18 282.885 1905.45 289.91L2158.84 505.08L2158.58 505.224Z" fill="white"/>
<path d="M2156.53 488.681C2092.01 428.77 2036.64 380.155 1982.31 335.69C1955.93 314.09 1928.99 292.829 1902.24 272.497C1894.15 266.347 1886.13 259.805 1877.64 252.878C1856.31 235.469 1834.26 217.468 1808.88 204.108C1795.25 196.922 1782.13 191.776 1768.77 188.378C1727.76 177.843 1679.65 184.808 1625.77 209.083C1597.88 221.627 1572.49 235.902 1551.33 248.211C1528.93 261.242 1506.83 275.613 1485.46 289.51C1454.74 309.486 1422.98 330.141 1388.83 347.881C1368.05 358.707 1346.99 368.381 1326.23 376.636C1284.69 393.15 1240.1 406.758 1193.7 417.081C1165.04 423.388 1136.24 428.155 1108.1 431.249C1083.85 433.905 1059.55 435.437 1035.88 435.804C1000.46 436.355 965.95 434.253 933.307 429.549C898.598 424.547 865.752 416.564 835.681 405.817C808.868 396.234 783.541 384.169 758.254 368.928C711.135 340.551 673.552 307.739 646.075 282.324C632.577 269.78 619.397 256.987 606.65 244.617C569.948 208.99 535.28 175.34 491.898 145.366C456.516 121.08 416.147 100.122 371.901 83.0703C337.9 69.9661 300.92 59.2491 261.99 51.2152C252.717 49.3042 243.268 47.5229 233.914 45.9262C193.639 39.0632 148.3 34.5941 99.1595 32.642C49.6156 30.6284 6.75143 32.371 -31.8741 37.9744C-53.7107 41.1177 -74.8669 46.0492 -94.7637 52.6298C-165.007 75.8634 -210.112 114.866 -215.421 156.965L-215.844 156.94C-214.429 145.717 -210.275 134.663 -203.5 124.08C-197.064 114.028 -188.225 104.334 -177.228 95.2657C-156.451 78.1366 -127.999 63.3035 -94.9499 52.3724C-75.0226 45.7804 -53.8326 40.8421 -31.9621 37.6942C6.70404 32.0862 49.6021 30.3414 99.1866 32.3573C148.355 34.3094 193.717 38.783 234.019 45.6506C243.383 47.2496 252.835 49.0308 262.115 50.9442C301.076 58.9825 338.086 69.7087 372.114 82.8243C416.39 99.8874 456.793 120.864 492.192 145.166C535.602 175.157 570.276 208.816 606.992 244.453C619.735 256.823 632.915 269.613 646.41 282.155C673.873 307.559 711.439 340.355 758.532 368.714C783.791 383.939 809.091 395.993 835.874 405.564C894.725 426.595 962.012 436.674 1035.87 435.519C1059.52 435.153 1083.8 433.62 1108.03 430.966C1136.14 427.873 1164.93 423.11 1193.57 416.807C1239.94 406.491 1284.5 392.893 1326.01 376.388C1346.76 368.14 1367.81 358.47 1388.57 347.653C1422.7 329.923 1454.45 309.272 1485.16 289.303C1506.53 275.404 1528.64 261.028 1551.05 247.992C1572.22 235.676 1597.62 221.397 1625.53 208.844C1649.52 198.036 1672.75 190.569 1694.57 186.649C1721.38 181.834 1746.4 182.326 1768.92 188.111C1782.32 191.521 1795.48 196.68 1809.14 203.883C1834.55 217.263 1856.62 235.275 1877.97 252.696C1886.46 259.621 1894.47 266.162 1902.56 272.308C1929.32 292.642 1956.26 313.905 1982.64 335.51C2036.98 379.98 2092.35 428.599 2156.88 488.515L2156.53 488.681Z" fill="white"/>
<path d="M2154.49 472.137C2094.67 411.212 2038.52 360.23 1982.84 316.28C1955.68 294.812 1927.58 274.175 1899.3 254.943C1891.8 249.841 1884.4 244.538 1876.56 238.926C1853.07 222.118 1828.79 204.738 1801.6 192.714C1787.87 186.616 1774.71 182.37 1761.37 179.733C1710.28 169.628 1658.39 188.771 1623.84 206.608C1599.37 219.209 1577.02 233.457 1554.38 248.165C1534.56 261.039 1515.92 274.888 1496.18 289.548C1466.89 311.31 1436.59 333.812 1402.31 352.707C1381.97 363.98 1360.74 373.726 1339.21 381.676C1299.11 396.486 1255.19 407.987 1204.96 416.838C1176.85 421.79 1148.06 425.319 1119.39 427.321C1095.2 428.99 1071.05 429.587 1047.62 429.088C1012.75 428.355 978.674 425.057 946.322 419.287C912.344 413.226 879.925 404.37 849.966 392.965C823.718 382.974 798.374 370.578 772.485 355.071C725.466 326.947 685.189 295.768 655.356 271.747C644.312 262.854 633.444 253.907 622.932 245.251C581.07 210.784 541.531 178.225 493.463 150.795C457.539 130.295 417.207 112.961 373.595 99.2759C340.596 88.921 305.62 81.1628 266.673 75.5572C257.684 74.2657 248.54 73.1017 239.497 72.0972C199.778 67.7079 157.388 66.0473 106.101 64.3299C69.1307 63.0292 20.7345 62.1728 -25.759 67.143C-47.7785 69.4527 -69.0633 73.4639 -89.0278 79.0604C-159.318 98.7703 -207 133.202 -216.581 171.168L-217.082 171.111C-214.543 161.043 -209.397 151.169 -201.796 141.759C-194.551 132.794 -185.031 124.197 -173.503 116.202C-151.596 101.014 -122.453 88.06 -89.2241 78.7438C-69.2224 73.1359 -47.897 69.1178 -25.8402 66.8036C20.6973 61.8266 69.1306 62.6853 106.124 63.9859C157.429 65.7034 199.832 67.3639 239.579 71.7555C248.628 72.7623 257.779 73.9263 266.778 75.2178C305.762 80.8303 340.772 88.5953 373.808 98.9616C417.464 112.66 457.83 130.008 493.791 150.529C541.893 177.979 581.449 210.547 623.325 245.028C633.834 253.681 644.701 262.629 655.745 271.519C685.571 295.532 725.832 326.699 772.823 354.809C798.682 370.3 823.999 382.683 850.216 392.662C909.125 415.087 975.549 427.225 1047.63 428.742C1071.05 429.239 1095.17 428.644 1119.34 426.975C1147.98 424.975 1176.74 421.451 1204.83 416.501C1255.02 407.659 1298.9 396.167 1338.97 381.371C1360.47 373.43 1381.67 363.697 1401.99 352.436C1436.24 333.557 1466.53 311.064 1495.81 289.313C1515.55 274.646 1534.2 260.795 1554.03 247.914C1576.68 233.197 1599.04 218.945 1623.54 206.33C1645.93 194.766 1668.02 186.448 1689.19 181.6C1714.86 175.724 1739.19 174.983 1761.52 179.398C1774.91 182.047 1788.11 186.306 1801.88 192.422C1829.13 204.469 1853.43 221.865 1876.93 238.687C1884.77 244.297 1892.17 249.597 1899.67 254.697C1927.95 273.936 1956.06 294.579 1983.23 316.055C2038.92 360.016 2095.08 411.007 2154.92 471.945L2154.49 472.137Z" fill="white"/>
<path d="M2152.45 455.59C2096.46 392.825 2041.16 340.907 1983.37 296.87C1955.43 275.534 1926.16 255.523 1896.37 237.39C1890.01 233.513 1883.45 229.399 1877.12 225.422C1850.94 208.99 1823.88 192 1794.33 181.319C1780.46 176.272 1767.26 172.923 1753.98 171.085C1703 164.026 1654.03 185.16 1621.93 204.129C1600.17 216.935 1580.28 231.449 1561.04 245.487L1557.44 248.116C1539.98 260.851 1523.59 274.819 1506.25 289.609C1478.62 313.159 1450.06 337.508 1415.8 357.53C1395.86 369.266 1374.46 379.085 1352.19 386.716C1313.36 400.021 1270.15 409.514 1216.21 416.594C1188.31 420.254 1159.54 422.541 1130.67 423.389C1106.54 424.07 1082.55 423.728 1059.34 422.368C989.092 418.27 923.453 404.052 864.247 380.11C838.653 369.76 813.292 357.038 786.719 341.212C741.749 314.487 701.752 287.016 664.643 261.17C659.667 257.706 654.744 254.264 649.859 250.849C599.174 215.432 551.302 181.978 495.042 156.229C458.312 139.419 418.021 125.711 375.292 115.484C343.922 107.976 309.924 102.879 271.363 99.8993C262.673 99.2319 253.833 98.683 245.088 98.2684C223.089 97.2434 199.756 97.0771 175.052 96.9017C155.209 96.7605 134.693 96.6147 113.042 96.0202C71.2276 94.7743 23.837 93.3643 -19.6468 96.3163C-42.0827 97.8402 -63.4961 100.929 -83.2947 105.498C-153.558 121.716 -203.82 151.58 -217.744 185.385L-218.316 185.278C-214.646 176.365 -208.512 167.671 -200.085 159.437C-192.028 151.562 -181.831 144.059 -169.778 137.137C-146.726 123.898 -116.886 112.828 -83.4911 105.12C-63.6485 100.539 -42.191 97.4439 -19.7111 95.9177C23.8167 92.9634 71.231 94.3757 113.063 95.6216C134.7 96.2138 155.216 96.3619 175.052 96.5031C199.766 96.6785 223.106 96.8448 245.125 97.8721C253.877 98.2889 262.727 98.8379 271.424 99.5053C310.033 102.487 344.071 107.591 375.485 115.111C418.265 125.349 458.6 139.073 495.37 155.901C551.682 181.673 599.577 215.143 650.282 250.576C655.167 253.991 660.093 257.43 665.066 260.897C702.168 286.738 742.152 314.202 787.108 340.918C813.654 356.726 838.988 369.436 864.552 379.773C923.68 403.686 989.234 417.883 1059.39 421.976C1082.57 423.334 1106.54 423.676 1130.64 422.995C1159.48 422.147 1188.23 419.863 1216.09 416.207C1269.98 409.134 1313.14 399.652 1351.92 386.365C1374.14 378.75 1395.5 368.949 1415.4 357.234C1449.63 337.237 1478.17 312.901 1505.77 289.365C1523.13 274.568 1539.52 260.594 1557 247.85L1560.6 245.221C1579.85 231.176 1599.75 216.653 1621.53 203.833C1653.74 184.802 1702.88 163.607 1754.09 170.698C1767.44 172.545 1780.69 175.905 1794.61 180.973C1824.22 191.677 1851.32 208.685 1877.52 225.135C1883.85 229.112 1890.4 233.226 1896.77 237.101C1926.57 255.243 1955.85 275.265 1983.8 296.613C2041.62 340.668 2096.94 392.604 2152.95 455.389L2152.45 455.59Z" fill="white"/>
<path d="M2150.41 439.044C2099 375.331 2042.98 320.967 1983.9 277.465C1955.18 256.264 1924.74 236.877 1893.45 219.844C1888.93 217.384 1884.3 214.83 1879.82 212.361C1850.24 196.05 1819.65 179.18 1787.07 169.933C1773.09 165.921 1759.85 163.473 1746.6 162.443C1695.76 158.498 1649.7 181.588 1620.01 201.653C1601.58 214.049 1584.94 227.834 1568.85 241.166C1566.07 243.474 1563.28 245.777 1560.5 248.07C1545.19 260.671 1530.88 274.748 1515.73 289.649C1489.97 314.983 1463.34 341.178 1429.28 362.361C1409.28 374.801 1388.31 384.417 1365.17 391.766C1316.76 407.134 1268.38 412.822 1227.45 416.361C1199.76 418.753 1171 419.801 1141.95 419.468C1117.9 419.161 1094.05 417.878 1071.06 415.66C1002.92 409.097 938.145 392.816 878.529 367.266C853.724 356.637 828.349 343.585 800.95 327.365C773.273 311.02 747.482 295.291 722.538 280.08C705.586 269.741 689.573 259.976 673.935 250.608C614.824 215.193 560.679 184.055 496.628 161.673C459.11 148.564 418.859 138.478 376.994 131.697C346.988 126.837 314.913 124.47 276.057 124.244C267.675 124.203 259.137 124.269 250.683 124.443C237.842 124.723 224.557 125.308 210.497 125.93C183.514 127.121 152.926 128.472 119.978 127.716C107.431 127.426 94.6303 127.019 82.2494 126.622C50.4051 125.604 17.4774 124.552 -13.5442 125.493C-36.3254 126.185 -57.8709 128.354 -77.5747 131.939C-147.719 144.706 -200.557 170.005 -218.921 199.615L-219.547 199.439C-214.739 191.686 -207.616 184.173 -198.377 177.11C-189.504 170.327 -178.629 163.919 -166.062 158.067C-141.846 146.792 -111.311 137.606 -77.7575 131.499C-58.0063 127.905 -36.4134 125.729 -13.5814 125.037C17.4741 124.094 50.4153 125.149 82.2765 126.167C94.654 126.563 107.455 126.971 119.998 127.26C152.916 128.016 183.48 126.668 210.449 125.477C224.516 124.855 237.804 124.269 250.659 123.989C259.123 123.816 267.668 123.75 276.061 123.791C314.971 124.014 347.093 126.388 377.149 131.255C419.066 138.046 459.37 148.143 496.936 161.27C525.869 171.379 555.188 184.187 586.568 200.423C614.661 214.958 641.989 230.862 674.382 250.268C690.02 259.639 706.033 269.404 722.988 279.743C747.929 294.952 773.72 310.68 801.39 327.024C828.762 343.228 854.11 356.266 878.885 366.883C938.419 392.399 1003.11 408.658 1071.15 415.211C1094.11 417.427 1117.93 418.707 1141.95 419.015C1170.97 419.348 1199.7 418.302 1227.35 415.91C1268.24 412.377 1316.55 406.697 1364.87 391.356C1387.95 384.028 1408.87 374.436 1428.81 362.029C1462.81 340.882 1489.43 314.707 1515.16 289.394C1530.33 274.484 1544.64 260.4 1559.97 247.786C1562.75 245.492 1565.53 243.189 1568.31 240.884C1584.42 227.543 1601.07 213.748 1619.52 201.337C1638.84 188.283 1658.65 178.24 1678.42 171.488C1701.83 163.491 1724.79 160.297 1746.66 161.997C1759.98 163.031 1773.28 165.491 1787.32 169.518C1819.99 178.791 1850.62 195.681 1880.23 212.013C1884.71 214.482 1889.34 217.035 1893.86 219.493C1925.18 236.54 1955.63 255.945 1984.38 277.162C2015.75 300.262 2046.47 326.579 2075.69 355.385C2101.51 380.844 2126.85 408.92 2150.98 438.83L2150.41 439.044Z" fill="white"/>
<path d="M2148.36 422.492C2100.78 356.953 2045.63 301.63 1984.43 258.058C1954.92 236.99 1923.33 218.23 1890.52 202.295C1888.96 201.536 1887.4 200.778 1885.84 200.017C1851.73 183.426 1816.46 166.269 1779.83 158.545C1765.64 155.552 1752.35 154.001 1739.23 153.8C1688.59 153.031 1645.41 178.05 1618.11 199.172C1602.04 211.529 1587.78 225.073 1573.99 238.17C1570.58 241.409 1567.05 244.758 1563.57 248.02C1550.31 260.443 1537.98 274.567 1524.93 289.523C1501.2 316.727 1476.66 344.856 1442.77 367.187C1423.17 380.107 1402.03 389.797 1378.15 396.813C1331.09 410.632 1283.31 414.26 1238.69 416.124C1211.18 417.272 1182.42 417.076 1153.23 415.543C1129.25 414.245 1105.55 412.024 1082.79 408.944C1016.97 400.061 953.047 381.715 892.815 354.416C868.693 343.485 844.026 330.487 815.192 313.513C760.39 281.342 719.696 258.682 683.247 240.043C610.753 202.971 555.423 181.161 498.245 167.117C459.965 157.714 419.755 151.252 378.726 147.908C350.26 145.589 320.051 145.796 280.779 148.587C272.732 149.165 264.498 149.846 256.305 150.614C248.566 151.35 240.704 152.192 232.379 153.083C201.642 156.374 166.802 160.105 126.927 159.408C105.91 159.042 84.442 158.037 63.6819 157.067C40.0881 155.964 15.692 154.823 -7.43791 154.668C-30.6288 154.513 -52.3064 155.762 -71.851 158.381C-141.762 167.745 -197.183 188.485 -220.1 213.857L-220.75 213.591C-214.798 206.999 -206.686 200.669 -196.642 194.776C-186.945 189.086 -175.401 183.776 -162.326 178.991C-136.928 169.693 -105.693 162.39 -72 157.878C-52.4011 155.254 -30.6762 154.001 -7.43117 154.156C15.7191 154.311 40.1288 155.452 63.7327 156.557C84.486 157.527 105.943 158.531 126.944 158.898C166.748 159.593 201.551 155.866 232.254 152.58C240.583 151.687 248.451 150.846 256.193 150.108C264.396 149.341 272.637 148.659 280.691 148.079C320.024 145.286 350.284 145.076 378.81 147.402C419.897 150.75 460.165 157.222 498.499 166.638C555.755 180.701 611.142 202.534 683.701 239.637C720.163 258.283 760.871 280.95 815.686 313.131C844.5 330.091 869.14 343.075 893.235 353.994C953.385 381.255 1017.21 399.576 1082.93 408.445C1105.67 411.52 1129.34 413.737 1153.28 415.035C1182.44 416.566 1211.16 416.762 1238.64 415.616C1283.19 413.755 1330.89 410.135 1377.84 396.348C1401.64 389.36 1422.7 379.702 1442.24 366.828C1476.04 344.544 1500.56 316.445 1524.27 289.271C1537.33 274.305 1549.66 260.169 1562.94 247.728C1566.42 244.468 1569.95 241.12 1573.36 237.881C1587.16 224.772 1601.44 211.219 1617.53 198.842C1635.35 185.056 1654.03 174.153 1673.05 166.431C1695.34 157.386 1717.61 152.969 1739.24 153.295C1752.44 153.495 1765.79 155.056 1780.05 158.062C1816.8 165.814 1852.13 182.993 1886.28 199.609C1887.85 200.37 1889.41 201.131 1890.97 201.887C1923.81 217.841 1955.44 236.624 1984.98 257.714C2046.23 301.325 2101.43 356.691 2149.04 422.276L2148.36 422.492Z" fill="white"/>
<path d="M1255.54 415.884C1253.64 415.884 1251.77 415.882 1249.92 415.875C1222.55 415.797 1193.81 414.362 1164.5 411.606C1140.61 409.317 1117.06 406.158 1094.51 402.219C1062.28 396.602 1029.93 388.53 998.36 378.227C967.873 368.278 937.17 355.941 907.099 341.557C877.635 327.464 850.114 311.761 829.429 299.654C781.029 271.405 734.979 247.793 692.558 229.473C623.852 199.802 562.625 181.714 499.868 172.551C462.007 167.022 421.388 164.107 382.278 164.107C381.672 164.107 381.069 164.107 380.463 164.109C346.865 164.186 314.967 168.387 285.506 172.915C277.838 174.102 269.905 175.398 261.929 176.771C257.558 177.532 253.181 178.316 248.55 179.145C215.883 185.001 178.855 191.636 133.872 191.092C106.476 190.759 78.4944 188.85 51.4339 187.003C33.9612 185.81 15.896 184.577 -1.33638 183.833C-25.0249 182.81 -46.8243 183.138 -66.1354 184.812C-135.674 190.834 -193.678 207.016 -221.301 228.099L-221.938 227.724C-207.769 216.911 -186.457 207.549 -158.594 199.896C-131.984 192.588 -100.048 187.176 -66.2437 184.249C-46.8819 182.573 -25.0249 182.24 -1.28221 183.268C15.9671 184.012 34.0424 185.247 51.5219 186.441C78.5655 188.288 106.53 190.197 133.888 190.527C178.757 191.071 215.72 184.445 248.333 178.6C252.968 177.769 257.345 176.985 261.719 176.225C269.702 174.851 277.641 173.553 285.316 172.366C314.828 167.831 346.781 163.624 380.46 163.544C420.193 163.451 461.54 166.375 500.047 171.999C532.436 176.73 563.837 183.694 596.037 193.288C627.048 202.529 658.771 214.209 693.012 228.999C735.467 247.333 781.55 270.963 829.98 299.231C850.649 311.33 878.15 327.022 907.583 341.099C968.601 370.287 1031.56 390.666 1094.72 401.675C1117.24 405.609 1140.76 408.763 1164.62 411.05C1193.89 413.802 1222.59 415.237 1249.92 415.312C1292.7 415.43 1342.36 414.46 1390.8 401.329C1415.32 394.682 1436.53 384.963 1455.65 371.617C1489.22 348.178 1511.48 318.095 1533.01 289.001C1544.08 274.036 1554.54 259.9 1565.91 247.663C1569.56 243.743 1573.23 239.705 1576.79 235.798C1588.8 222.601 1601.22 208.957 1615.52 196.344C1631.88 181.835 1649.42 170.065 1667.68 161.364C1688.84 151.276 1710.41 145.631 1731.8 144.588C1745 143.944 1758.39 144.602 1772.76 146.602C1811.15 151.946 1849.21 167.471 1888.06 184.274C1921.94 198.925 1955.65 217.592 1985.56 238.258C2018.79 261.148 2050 288.001 2078.34 318.07C2103.59 344.86 2126.72 374.348 2147.08 405.718L2146.31 405.946C2102.58 338.577 2048.29 282.293 1984.96 238.657C1955.09 218.02 1921.43 199.381 1887.6 184.755C1848.82 167.981 1810.84 152.485 1772.58 147.16C1758.3 145.171 1744.98 144.518 1731.86 145.158C1692.56 147.078 1651.49 165.378 1616.2 196.691C1601.92 209.28 1589.51 222.913 1577.51 236.097C1573.95 240.005 1570.27 244.046 1566.63 247.966C1555.28 260.18 1544.83 274.305 1533.77 289.256C1523.2 303.531 1512.28 318.294 1499.75 332.484C1485.54 348.572 1471.32 361.501 1456.26 372.013C1437.06 385.418 1415.76 395.181 1391.12 401.859C1369.4 407.75 1346.05 411.643 1319.74 413.765C1297.46 415.554 1275.08 415.884 1255.54 415.884Z" fill="white"/>
<path d="M1309.83 417.026C1292.57 417.026 1275.98 416.333 1261.15 415.632C1233.87 414.343 1205.14 411.666 1175.76 407.676C1151.97 404.398 1128.57 400.302 1106.21 395.498C1044.97 382.371 984.506 360.52 921.369 328.702C893.834 314.828 867.877 299.899 843.657 285.799C795.84 258.044 748.138 235.54 701.868 218.907C633.819 194.446 570.151 181.442 501.499 177.984C462.383 176.014 421.133 176.818 382.206 180.307C349.624 183.228 318.907 190.275 290.232 197.241C283.058 198.992 275.427 200.906 267.555 202.926C265.588 203.434 263.605 203.951 261.594 204.473C228.568 213.064 191.198 222.786 143.239 222.786C142.43 222.786 141.624 222.784 140.808 222.777C108.361 222.556 75.2336 219.44 43.193 216.424C30.4905 215.228 17.3546 213.994 4.75032 212.994C-19.8692 211.044 -41.1913 210.468 -60.4381 211.238C-130.441 214.039 -189.528 225.374 -222.544 242.341L-223.109 241.842C-206.788 233.455 -183.187 226.173 -154.867 220.784C-127.011 215.484 -94.378 211.967 -60.4956 210.611C-41.1947 209.839 -19.8185 210.415 4.85527 212.37C17.4731 213.37 30.6124 214.607 43.3183 215.8C75.3285 218.811 108.425 221.925 140.811 222.146C189.77 222.483 227.748 212.6 261.252 203.883C263.259 203.361 265.246 202.844 267.214 202.334C275.092 200.311 282.726 198.398 289.907 196.646C318.63 189.667 349.404 182.61 382.074 179.681C421.062 176.187 462.379 175.38 501.56 177.353C535.581 179.066 568.018 183.111 600.722 189.717C634.405 196.521 667.63 205.885 702.298 218.349C748.626 235.004 796.389 257.536 844.257 285.319C868.467 299.414 894.407 314.333 921.917 328.194C984.969 359.969 1045.34 381.788 1106.48 394.895C1128.81 399.69 1152.18 403.78 1175.94 407.054C1205.28 411.04 1233.97 413.714 1261.2 414.999C1307.03 417.163 1355.79 418.274 1403.76 406.3C1429 399.997 1450.36 390.216 1469.05 376.397C1502.36 351.78 1523.09 318.203 1541.38 288.578C1550.58 273.672 1559.28 259.593 1568.87 247.591C1572.33 243.261 1575.81 238.785 1579.18 234.458C1589.72 220.916 1600.61 206.914 1613.51 193.838C1628.43 178.604 1644.84 165.969 1662.29 156.283C1682.33 145.161 1703.21 138.291 1724.34 135.87C1737.55 134.355 1750.99 134.114 1765.44 135.125C1805.81 137.956 1846.83 151.946 1885.14 166.645C1920.52 180.216 1955.44 198.247 1986.14 218.789C2020.29 241.571 2051.75 268.693 2079.66 299.396C2104.61 326.852 2126.63 357.047 2145.12 389.146L2144.26 389.371C2104.96 321.142 2050.05 262.308 1985.48 219.231C1954.85 198.728 1919.99 180.731 1884.68 167.187C1846.46 152.523 1805.55 138.567 1765.35 135.747C1750.99 134.74 1737.62 134.981 1724.5 136.485C1685.49 140.956 1646.35 161.445 1614.29 194.179C1601.42 207.229 1590.54 221.217 1580.01 234.745C1576.64 239.075 1573.16 243.551 1569.69 247.885C1560.12 259.86 1551.44 273.925 1542.24 288.815C1523.92 318.486 1503.16 352.118 1469.74 376.816C1450.94 390.71 1429.47 400.546 1404.08 406.885C1382.06 412.384 1358.3 415.568 1331.44 416.614C1324.18 416.91 1316.95 417.026 1309.83 417.026Z" fill="white"/>
<path d="M1343.9 419.491C1343.65 419.491 1343.41 419.491 1343.16 419.491C1318.77 419.45 1294.81 417.441 1272.37 415.387C1245.13 412.895 1216.42 408.975 1187.02 403.74C1163.34 399.478 1140.09 394.442 1117.92 388.775C1059.12 373.771 1001.21 350.599 935.646 315.847C912.035 303.335 888.801 289.861 866.327 276.835C863.517 275.204 860.704 273.575 857.891 271.947C809.826 244.198 760.469 222.798 711.192 208.343C643.715 188.552 575.663 180.397 503.145 183.415C463.382 185.071 422.169 189.597 383.964 196.503C353.819 201.954 326.958 210.699 294.972 221.564C288.489 223.776 281.565 226.163 273.189 229.078L272.722 229.242C256.563 234.905 238.247 241.321 217.704 246.2C194.11 251.804 171.221 254.501 147.749 254.469C111.148 254.407 73.7951 249.824 37.6749 245.39C28.8251 244.303 19.6707 243.18 10.8344 242.164C-14.5063 239.255 -35.957 237.786 -54.7433 237.675C-123.916 237.265 -185.54 244.162 -223.81 256.594L-224.25 255.979C-205.504 249.888 -180.218 244.945 -151.126 241.684C-121.98 238.415 -88.646 236.793 -54.7331 236.994C-35.8927 237.105 -14.3878 238.577 11.0071 241.492C19.8501 242.508 29.0046 243.631 37.8577 244.718C73.9339 249.146 111.239 253.724 147.752 253.786C147.915 253.786 148.08 253.786 148.243 253.786C200.471 253.786 240.262 239.845 272.255 228.636L272.725 228.472C281.105 225.554 288.028 223.167 294.515 220.956C326.555 210.072 353.464 201.312 383.703 195.845C421.973 188.925 463.253 184.392 503.084 182.734C538.571 181.258 572.044 182.383 605.422 186.178C641.389 190.267 676.122 197.312 711.598 207.719C760.97 222.202 810.412 243.636 858.554 271.429C861.368 273.058 864.181 274.689 866.991 276.32C889.454 289.342 912.682 302.811 936.272 315.314C1001.75 350.023 1059.58 373.163 1118.28 388.142C1140.42 393.802 1163.64 398.829 1187.28 403.087C1216.64 408.314 1245.31 412.227 1272.5 414.715C1321.21 419.175 1368.9 422.268 1416.73 411.298C1442.69 405.344 1464.2 395.501 1482.47 381.206C1515.48 355.383 1533.51 319.6 1549.42 288.028C1556.87 273.247 1563.91 259.284 1571.84 247.551C1574.9 243.037 1577.96 238.367 1580.92 233.85C1590.18 219.728 1599.76 205.127 1611.51 191.36C1625.02 175.395 1640.3 161.892 1656.91 151.227C1675.85 139.073 1696.03 130.982 1716.89 127.183C1729.82 124.828 1743.02 123.68 1757.21 123.68C1757.52 123.68 1757.83 123.68 1758.14 123.682C1802.24 123.837 1847.62 137.317 1882.23 149.043C1919.11 161.537 1955.24 178.93 1986.73 199.344C2021.81 222.022 2053.52 249.41 2080.98 280.75C2105.63 308.874 2126.55 339.777 2143.17 372.605L2142.21 372.826C2117.48 323.981 2070.3 254.321 1986.02 199.838C1954.61 179.47 1918.56 162.118 1881.78 149.653C1847.26 137.959 1802.02 124.518 1758.13 124.365C1743.68 124.308 1730.28 125.452 1717.15 127.844C1678.5 134.884 1641.3 157.562 1612.39 191.699C1600.67 205.435 1591.1 220.019 1581.85 234.126C1578.89 238.645 1575.82 243.317 1572.77 247.834C1564.85 259.537 1557.82 273.482 1550.38 288.246C1534.44 319.876 1516.38 355.726 1483.24 381.65C1464.85 396.041 1443.2 405.95 1417.06 411.943C1394.91 417.02 1370.97 419.491 1343.9 419.491Z" fill="white"/>
<path d="M1371 422.699C1365.75 422.699 1360.38 422.585 1354.88 422.357C1330.82 421.362 1307.43 418.375 1283.6 415.141C1255.97 411.392 1228.06 406.376 1198.29 399.807C1174.73 394.563 1151.63 388.591 1129.63 382.051C1073.81 365.487 1018.39 341.103 949.935 302.991C932.932 293.527 915.937 283.6 899.5 273.999C890.552 268.774 881.303 263.368 872.139 258.091C823.502 230.156 772.496 209.865 720.534 197.779C651.879 181.809 581.318 178.885 504.812 188.839C464.392 194.098 423.217 202.346 385.743 212.69C355.639 220.999 329.414 232.668 301.65 245.023L299.73 245.877C295.393 247.813 291.009 249.777 286.571 251.763C284.014 252.909 281.441 254.061 278.845 255.223C262.655 262.505 245.169 270.102 225.116 275.949C201.834 282.737 178.806 286.076 154.707 286.158C114.589 286.29 73.6681 280.017 34.098 273.944C28.4509 273.076 22.6075 272.181 16.9368 271.332C-9.64981 267.346 -30.6096 265.052 -49.0337 264.109C-117.022 260.631 -181.184 263.081 -225.074 270.835L-225.355 270.12C-181.35 262.346 -117.056 259.886 -48.949 263.371C-30.4742 264.316 -9.46024 266.617 17.1771 270.61C22.8513 271.462 28.6947 272.357 34.3452 273.225C73.4311 279.222 113.834 285.42 153.421 285.42C153.848 285.42 154.274 285.42 154.704 285.418C205.907 285.244 242.355 270.744 278.239 254.608C280.835 253.446 283.408 252.294 285.965 251.148C290.403 249.16 294.784 247.198 299.124 245.26L301.044 244.406C328.856 232.03 355.124 220.341 385.326 212.004C422.869 201.64 464.115 193.378 504.605 188.11C581.305 178.131 652.055 181.065 720.897 197.078C772.987 209.195 824.111 229.532 872.856 257.528C882.021 262.808 891.273 268.211 900.221 273.439C916.651 283.037 933.643 292.962 950.635 302.419C1019.01 340.488 1074.36 364.838 1130.08 381.375C1152.05 387.903 1175.11 393.868 1198.64 399.103C1228.36 405.663 1256.23 410.672 1283.82 414.414C1325.69 420.097 1377.81 427.172 1429.72 416.275C1456.4 410.674 1478.05 400.77 1495.9 385.996C1528.59 358.936 1543.74 320.876 1557.12 287.299C1562.93 272.712 1568.42 258.934 1574.82 247.499C1577.32 243.044 1579.82 238.436 1582.24 233.978C1590.35 219.029 1598.74 203.572 1609.51 188.871C1621.66 172.163 1635.8 157.792 1651.54 146.157C1669.38 132.973 1688.86 123.664 1709.44 118.486C1722.65 115.163 1736.19 113.115 1750.83 112.225C1770.44 111.031 1791.31 112.307 1814.64 116.115C1834.38 119.341 1855.54 124.347 1879.33 131.424C1917.7 142.838 1955.04 159.596 1987.32 179.885C2023.34 202.455 2055.3 230.115 2082.32 262.091C2106.65 290.884 2126.47 322.496 2141.23 356.05L2140.18 356.26C2109.01 285.42 2054.46 222.974 1986.57 180.427C1954.38 160.193 1917.14 143.483 1878.88 132.103C1827.62 116.856 1786.97 110.772 1750.93 112.963C1736.39 113.847 1722.94 115.881 1709.82 119.179C1660.85 131.495 1628.78 164.054 1610.5 189.196C1599.75 203.861 1591.37 219.3 1583.27 234.231C1580.85 238.691 1578.35 243.301 1575.85 247.759C1569.47 259.159 1563.99 272.922 1558.18 287.49C1544.78 321.14 1529.59 359.28 1496.75 386.463C1478.76 401.353 1456.94 411.337 1430.04 416.984C1411.81 420.81 1392.37 422.699 1371 422.699Z" fill="white"/>
<path d="M1394.47 426.374C1358.67 426.374 1324.25 420.186 1294.8 414.892C1267.1 409.913 1239.21 403.69 1209.54 395.87C1186.11 389.652 1163.16 382.741 1141.33 375.327C1075.87 353.127 1017.51 321.263 964.201 290.134C953.317 283.779 942.32 277.228 931.69 270.894C916.929 262.097 901.664 253.002 886.368 244.237C837.003 216.026 784.348 196.84 729.868 187.212C659.392 174.759 586.315 177.062 506.464 194.255C465.35 203.106 424.216 215.076 387.507 228.871C359.193 239.508 335.237 252.938 309.876 267.156C308.079 268.163 306.278 269.174 304.466 270.185L303.485 270.737C297.32 274.197 290.945 277.773 284.482 281.363C268.996 290.002 251.943 298.938 232.219 305.765C209.323 313.689 186.24 317.641 161.644 317.846C118.472 318.208 74.4704 310.042 31.9211 302.145C28.9384 301.592 25.9693 301.041 23.0138 300.496C-5.0455 295.316 -25.5144 292.246 -43.3494 290.538C-109.631 284.192 -176.34 282.196 -226.371 285.064L-226.473 284.269C-176.36 281.395 -109.553 283.392 -43.1835 289.747C-25.2977 291.46 -4.78481 294.537 23.3252 299.726C26.2808 300.271 29.2499 300.822 32.2359 301.378C74.704 309.259 118.621 317.404 161.628 317.049C215.041 316.603 252.658 298.077 283.723 280.748C290.186 277.158 296.561 273.582 302.726 270.124L303.708 269.573C305.519 268.559 307.32 267.55 309.118 266.543C334.523 252.3 358.52 238.847 386.928 228.174C423.705 214.354 464.917 202.364 506.102 193.496C543.959 185.346 579.517 180.64 614.804 179.11C654.168 177.404 692.98 179.871 730.166 186.442C784.819 196.1 837.63 215.341 887.133 243.629C902.439 252.398 917.708 261.496 932.472 270.295C943.103 276.629 954.092 283.178 964.973 289.531C1018.23 320.625 1076.51 352.455 1141.85 374.614C1163.66 382.016 1186.58 388.918 1209.97 395.128C1239.59 402.936 1267.44 409.15 1295.1 414.122C1337.58 421.757 1390.44 431.26 1442.67 421.261C1470.08 416.013 1491.87 406.047 1509.29 390.795C1541.64 362.462 1553.75 322.06 1564.43 286.413C1568.72 272.09 1572.77 258.562 1577.77 247.453C1579.62 243.344 1581.47 239.098 1583.27 234.991C1590.29 218.928 1597.55 202.316 1607.48 186.387C1618.29 168.923 1631.29 153.68 1646.13 141.086C1662.88 126.875 1681.66 116.347 1701.96 109.794C1715.14 105.539 1728.72 102.589 1743.49 100.774C1763.39 98.3297 1785.46 98.4117 1809.1 101.018C1829.8 103.3 1852.44 107.603 1876.39 113.81C1916.26 124.144 1954.81 140.264 1987.88 160.427C2024.83 182.893 2057.04 210.819 2083.62 243.433C2107.63 272.896 2126.35 305.218 2139.26 339.499L2138.11 339.695C2110.76 267.056 2057.13 203.601 1987.09 161.019C1954.12 140.922 1915.7 124.855 1875.96 114.555C1824.46 101.204 1781.2 96.9517 1743.71 101.56C1729.05 103.361 1715.56 106.291 1702.47 110.514C1654.17 126.105 1624.75 160.546 1608.58 186.695C1598.67 202.583 1591.42 219.172 1584.41 235.214C1582.61 239.321 1580.75 243.569 1578.9 247.683C1573.92 258.755 1569.88 272.265 1565.59 286.57C1560.45 303.719 1554.63 323.156 1546.17 341.378C1536.49 362.257 1524.73 378.579 1510.23 391.28C1501.84 398.624 1492.21 404.874 1481.59 409.858C1470.17 415.218 1457.18 419.313 1443 422.028C1426.77 425.138 1410.48 426.374 1394.47 426.374Z" fill="white"/>
<path d="M1415.63 430.408C1403.79 430.408 1391.39 429.634 1378.29 428.087C1352.5 425.042 1327.8 419.516 1306.01 414.643C1278.55 408.5 1249.87 400.858 1220.79 391.931C1197.51 384.747 1174.71 376.898 1153.02 368.598C1090.78 344.801 1037.14 313.16 978.474 277.276C973.26 274.087 967.965 270.834 962.846 267.686C942.685 255.297 921.841 242.487 900.603 230.383C850.419 201.842 796.119 183.763 739.208 176.647C667.421 167.67 589.669 175.415 508.122 199.669C466.277 212.115 425.18 227.804 389.276 245.045C362.243 258.026 339.99 273.331 316.43 289.535C314.036 291.182 311.633 292.833 309.215 294.492C303.199 298.623 296.719 303.058 290.128 307.498C276.305 316.839 259.458 327.483 239.331 335.576C216.801 344.637 193.66 349.204 168.594 349.535C122.707 350.143 75.9963 339.92 30.8232 330.034L29.1034 329.658C6.9857 324.82 -16.4117 319.932 -37.6525 316.964C-102.397 307.919 -169.874 301.639 -227.648 299.282L-227.571 298.43C-169.736 300.79 -102.198 307.074 -37.3952 316.128C-16.0934 319.105 7.34459 324 29.4961 328.845L31.216 329.221C76.2909 339.084 122.906 349.282 168.57 348.678C221.307 347.981 257.728 328.183 289.231 306.89C295.822 302.452 302.295 298.018 308.311 293.888C310.729 292.232 313.132 290.578 315.526 288.934C339.127 272.702 361.42 257.37 388.542 244.346C424.513 227.071 465.688 211.352 507.611 198.883C545.871 187.505 583.521 179.665 619.509 175.583C660.63 170.921 700.982 170.994 739.445 175.802C796.573 182.945 851.073 201.088 901.426 229.727C922.68 241.842 943.535 254.657 963.706 267.053C968.825 270.199 974.12 273.451 979.334 276.64C1037.95 312.491 1091.52 344.098 1153.66 367.853C1175.32 376.139 1198.08 383.977 1221.32 391.152C1250.37 400.065 1279 407.696 1306.42 413.83C1349.41 423.447 1402.9 435.412 1455.66 426.244C1483.79 421.354 1505.73 411.329 1522.71 395.594C1554.7 365.948 1563.96 321.265 1571.41 285.36C1574.3 271.374 1577.04 258.165 1580.75 247.414C1581.92 244.024 1583.1 240.533 1584.24 237.155C1590.16 219.606 1596.3 201.459 1605.49 183.911C1619.68 156.602 1646.65 120.071 1694.5 101.113C1707.72 95.8784 1721.35 92.0244 1736.18 89.332C1774.98 82.1865 1821.17 84.4985 1873.48 96.1996C1914.84 105.454 1954.61 120.937 1988.48 140.974C2026.36 163.333 2058.82 191.528 2084.95 224.782C2096.94 240.034 2107.53 256.325 2116.45 273.201C2124.96 289.321 2131.98 306.06 2137.32 322.955L2136.07 323.133C2112.56 248.689 2059.84 184.225 1987.64 141.614C1953.89 121.652 1914.28 106.229 1873.07 97.0082C1821.01 85.3595 1775.07 83.0544 1736.51 90.1543C1721.79 92.8262 1708.26 96.6506 1695.15 101.846C1647.62 120.672 1620.81 157.017 1606.69 184.191C1597.51 201.694 1591.4 219.816 1585.48 237.341C1584.33 240.719 1583.16 244.214 1581.98 247.605C1578.29 258.32 1575.55 271.511 1572.66 285.476C1568.92 303.544 1564.67 324.021 1557.42 343.348C1549.09 365.557 1538.07 382.811 1523.73 396.095C1515.55 403.673 1505.99 410.065 1495.3 415.09C1483.79 420.504 1470.56 424.536 1455.97 427.069C1443.17 429.296 1429.8 430.408 1415.63 430.408Z" fill="white"/>
<path d="M1435.13 434.669C1420.95 434.669 1405.99 433.433 1390.01 430.952C1364.11 426.936 1339.2 420.271 1317.22 414.39C1289.55 406.987 1260.9 398.106 1232.04 387.99C1208.92 379.847 1186.27 371.06 1164.73 361.869C1105.44 336.596 1054.59 304.024 1000.75 269.542C998.087 267.836 995.423 266.128 992.752 264.42C967.716 248.402 941.83 231.838 914.844 216.531C863.787 187.628 807.841 170.654 748.56 166.08C674.099 160.333 593.764 173.455 509.782 205.078C467.775 220.895 425.608 240.833 391.048 261.217C364.953 276.608 344.023 293.926 321.865 312.263C319.241 314.433 316.611 316.611 313.96 318.793C308.665 323.16 302.364 328.337 295.769 333.633C283.554 343.466 266.911 355.962 246.442 365.363C224.27 375.547 201.079 380.738 175.542 381.228C154.552 381.581 131.388 379.401 104.724 374.56C81.8309 370.406 59.6862 364.975 35.1817 358.825C12.8135 353.142 -10.7938 347.272 -31.9737 343.396C-94.7109 331.911 -160.979 321.854 -228.934 313.499L-228.69 312.604C-160.695 320.961 -94.3893 331.027 -31.6182 342.516C-10.3808 346.405 13.2604 352.284 35.6557 357.971C76.7289 368.283 127.847 381.121 175.505 380.316C229.992 379.269 265.008 356.978 294.73 333.045C301.322 327.754 307.619 322.579 312.91 318.214C315.561 316.032 318.192 313.855 320.812 311.686C343.008 293.32 363.974 275.973 390.154 260.531C424.785 240.106 467.033 220.13 509.122 204.283C593.357 172.565 673.97 159.408 748.716 165.176C777.374 167.387 805.525 172.524 832.379 180.441C861.193 188.935 889.232 200.846 915.717 215.836C942.734 231.159 968.637 247.732 993.686 263.761C996.357 265.472 999.025 267.178 1001.69 268.884C1055.48 303.336 1106.28 335.877 1165.45 361.101C1186.97 370.278 1209.58 379.055 1232.67 387.184C1261.48 397.284 1290.1 406.154 1317.73 413.545C1361.15 425.162 1415.19 439.619 1468.63 431.235C1497.58 426.693 1519.66 416.606 1536.12 400.402C1567.83 369.451 1573.47 322.171 1578.01 284.182C1579.64 270.595 1581.17 257.762 1583.72 247.384C1584.24 245.243 1584.77 243.09 1585.29 240.926C1590.04 221.38 1594.95 201.167 1603.48 181.441C1615.66 153.069 1640.04 114.597 1687.04 92.4385C1700.14 86.2565 1713.82 81.5005 1728.85 77.897C1749.75 72.8426 1773.03 70.4668 1798.05 70.8313C1820.9 71.1638 1845.29 73.7765 1870.55 78.594C1913.4 86.7645 1954.38 101.609 1989.05 121.522C2027.87 143.771 2060.58 172.239 2086.27 206.131C2098.06 221.681 2108.27 238.307 2116.61 255.545C2124.6 272.055 2130.91 289.17 2135.36 306.415L2134.02 306.57C2114.64 231.423 2061.48 164.228 1988.17 122.214C1953.65 102.388 1912.85 87.605 1870.18 79.4664C1817.56 69.4304 1768.85 69.1844 1729.3 78.7512C1714.39 82.3273 1700.81 87.0469 1687.81 93.1811C1641.14 115.187 1616.9 153.461 1604.78 181.692C1596.27 201.365 1591.36 221.549 1586.62 241.07C1586.1 243.234 1585.57 245.388 1585.05 247.53C1582.51 257.869 1580.98 270.686 1579.36 284.252C1574.81 322.351 1569.14 369.768 1537.23 400.917C1529.29 408.728 1519.8 415.265 1509.03 420.342C1497.43 425.804 1483.94 429.768 1468.94 432.123C1458.11 433.818 1446.89 434.669 1435.13 434.669Z" fill="white"/>
<path d="M1453.46 439.107C1437.3 439.107 1420.17 437.349 1401.72 433.818C1375.61 428.823 1350.54 421.021 1328.43 414.14C1300.49 405.444 1271.84 395.319 1243.29 384.053C1220.34 374.964 1197.84 365.236 1176.42 355.143C1123.69 330.297 1078.61 299.858 1030.89 267.632C1023.09 262.363 1015.03 256.917 1007.02 251.562C978.89 232.747 954.866 217.233 929.078 202.68C877.111 173.395 819.523 157.525 757.909 155.512C680.489 152.981 597.561 171.477 511.433 210.484C468.647 229.864 426.517 253.621 392.807 277.383C367.412 295.284 347.56 314.771 326.542 335.401C323.939 337.957 321.325 340.522 318.695 343.089C314.009 347.669 307.807 353.706 301.405 359.758C274.463 385.287 239.263 411.571 182.485 412.915C180.714 412.953 178.937 412.972 177.163 412.972C132.826 412.972 87.5611 401.166 41.2538 387.984L38.3626 387.155C15.4256 380.568 -6.24174 374.347 -26.2976 369.819C-101.88 352.753 -174.977 338.349 -230.215 327.707L-229.819 326.775C-174.567 337.422 -101.45 351.829 -25.8406 368.901C-5.73055 373.44 15.9605 379.67 38.928 386.264L41.8159 387.094C89.8193 400.758 136.699 412.947 182.434 411.949C238.583 410.619 273.488 384.538 300.23 359.2C306.629 353.152 312.824 347.12 317.51 342.542C320.14 339.973 322.75 337.41 325.354 334.854C346.405 314.192 366.288 294.674 391.765 276.716C425.542 252.904 467.756 229.098 510.627 209.68C550.417 191.658 590.221 177.82 628.931 168.547C673.346 157.908 716.765 153.197 757.977 154.543C819.909 156.566 877.788 172.513 929.999 201.935C955.824 216.511 979.872 232.041 1008.03 250.872C1016.04 256.227 1024.11 261.675 1031.91 266.944C1079.58 299.138 1124.61 329.547 1177.24 354.343C1198.63 364.425 1221.09 374.137 1244.02 383.212C1272.53 394.465 1301.13 404.573 1329.03 413.256C1372.83 426.889 1427.35 443.854 1481.6 436.217C1511.26 432.041 1533.48 421.896 1549.52 405.202C1580.83 372.841 1582.71 322.9 1584.23 282.772C1584.72 269.68 1585.19 257.311 1586.68 247.346L1586.71 247.118C1590.06 224.802 1593.53 201.728 1601.47 178.962C1608.34 159.104 1617.92 141.25 1629.93 125.893C1643.47 108.58 1660.17 94.4026 1679.56 83.7539C1692.53 76.6289 1706.26 70.9685 1721.52 66.4516C1762.74 54.1766 1813.26 52.2814 1867.61 60.9758C1889.49 64.4745 1911.06 69.775 1931.75 76.7268C1952.55 83.7197 1972.02 92.2455 1989.63 102.063C2029.39 124.205 2062.35 152.942 2087.59 187.476C2110.28 218.516 2126.12 253.924 2133.4 289.87L2131.98 290C2116.4 213.065 2064.18 144.835 1988.71 102.808C1953.41 83.1229 1911.42 68.9823 1867.28 61.9234C1813.24 53.2791 1763.04 55.1537 1722.1 67.3445C1706.96 71.8273 1693.35 77.4421 1680.47 84.5101C1644.27 104.393 1617.43 137.132 1602.87 179.187C1594.95 201.894 1591.49 224.937 1588.15 247.22L1588.12 247.448C1586.63 257.377 1586.16 269.727 1585.66 282.802C1584.14 323.053 1582.26 373.144 1550.72 405.733C1542.99 413.783 1533.57 420.461 1522.73 425.582C1511.04 431.103 1497.3 435 1481.9 437.171C1472.72 438.46 1463.27 439.107 1453.46 439.107Z" fill="white"/>
<path d="M183.535 444.681C163.709 444.681 142.12 442.082 117.754 436.775C93.5439 431.502 69.6014 424.222 47.3314 417.142C43.2993 415.853 39.2976 414.566 35.323 413.288C15.5379 406.926 -3.15021 400.918 -20.6162 396.237C-90.2599 377.579 -156.643 360.81 -220.843 344.597L-231.48 341.909L-230.946 340.95L-220.308 343.638C-156.105 359.856 -89.7114 376.625 -20.0542 395.287C-2.5408 399.979 16.171 405.995 35.9798 412.366C39.951 413.644 43.9527 414.931 47.9814 416.218C93.6962 430.75 142.265 444.834 189.371 443.579C247.277 441.957 281.979 411.607 305.739 385.351C311.826 378.636 317.69 371.944 322.118 366.864C324.562 364.065 326.99 361.268 329.41 358.478C349.487 335.346 368.449 313.498 393.387 292.897C426.304 265.709 468.478 238.071 512.144 215.076C552.656 193.742 593.536 176.886 633.654 164.978C679.671 151.318 724.617 144.23 767.244 143.908C831.386 143.266 890.961 158.113 944.29 188.032C973.853 204.637 1000.36 222.6 1022.39 237.982C1034.38 246.353 1046.37 254.933 1057.96 263.231C1099.01 292.608 1141.45 322.983 1189.04 347.585C1210.3 358.578 1232.62 369.229 1255.37 379.24C1283.52 391.601 1312.11 402.949 1340.34 412.967C1384.48 428.625 1439.4 448.111 1494.58 441.196C1524.95 437.39 1547.31 427.185 1562.92 409.999C1593.82 376.172 1591.74 323.495 1590.06 281.169C1589.56 268.652 1589.09 256.828 1589.66 247.309C1590.93 225.85 1592.84 200.91 1599.46 176.483C1605.05 155.785 1613.48 137.059 1624.52 120.827C1637.01 102.466 1653.02 87.0726 1672.09 75.0732C1684.73 67.1213 1698.9 60.3722 1714.19 55.0102C1736.01 47.334 1760.5 42.5074 1786.98 40.6669C1811.77 38.9426 1837.92 39.8492 1864.68 43.3593C1887.25 46.3204 1909.5 51.1904 1930.8 57.837C1952.24 64.5246 1972.23 72.8568 1990.21 82.6013C2010.93 93.8218 2029.99 107.072 2046.85 121.985C2062.82 136.114 2076.97 151.872 2088.92 168.818C2111.27 200.523 2125.98 236.663 2131.45 273.324L2129.93 273.427C2118.18 194.699 2066.9 125.438 1989.25 83.4008C1953.69 64.126 1909.35 50.2633 1864.39 44.3661C1808.8 37.0748 1757.11 41.0701 1714.89 55.9191C1699.72 61.2378 1685.67 67.9345 1673.13 75.8225C1637.19 98.432 1612.91 132.36 1600.96 176.668C1594.35 201.029 1592.44 225.925 1591.18 247.35C1590.61 256.835 1591.08 268.641 1591.58 281.142C1592.41 302.022 1593.34 325.691 1590.2 348.571C1586.56 375.122 1578.06 395.389 1564.22 410.535C1556.7 418.821 1547.34 425.643 1536.44 430.809C1524.65 436.39 1510.67 440.223 1494.86 442.203C1486.89 443.203 1478.92 443.656 1471 443.656C1423.58 443.656 1377.63 427.352 1339.64 413.872C1311.36 403.838 1282.73 392.474 1254.54 380.094C1231.76 370.069 1209.41 359.402 1188.12 348.394C1140.42 323.741 1097.94 293.335 1056.86 263.93C1045.26 255.635 1033.28 247.057 1021.3 238.69C999.295 223.326 972.827 205.389 943.319 188.815C890.277 159.056 831.051 144.296 767.268 144.929C667.1 145.685 573.754 183.927 513.086 215.878C469.507 238.827 427.418 266.406 394.572 293.54C369.708 314.079 350.773 335.893 330.727 358.988C328.307 361.778 325.876 364.575 323.432 367.377C319 372.459 313.133 379.156 307.042 385.877C297.068 396.9 281.41 412.944 260.671 424.971C250.599 430.812 239.88 435.401 228.813 438.615C216.472 442.198 203.222 444.212 189.436 444.597C187.482 444.654 185.515 444.681 183.535 444.681Z" fill="white"/>
<path d="M189.897 476.394C170.048 476.394 148.502 473.594 124.265 467.882C99.1717 461.968 74.3625 453.654 53.4061 446.299C46.9668 444.035 40.5411 441.739 34.3253 439.518C16.9507 433.311 0.537689 427.446 -14.9376 422.658C-70.511 405.461 -125.722 388.671 -179.119 372.433C-196.781 367.061 -215.043 361.508 -232.742 356.114L-232.079 355.128C-214.379 360.522 -196.118 366.075 -178.455 371.446C-125.059 387.685 -69.8407 404.477 -14.2638 421.676C1.25203 426.478 17.6854 432.348 35.0802 438.564C41.2927 440.785 47.7184 443.079 54.1509 445.343C97.6143 460.59 148.028 476.731 196.303 475.212C255.573 473.303 288.863 440.163 311.248 411.506C316.987 404.165 322.535 396.794 326.727 391.193C328.88 388.318 331.02 385.446 333.156 382.58C352.359 356.807 370.495 332.464 395.013 309.087C426.901 278.683 469.041 247.215 513.662 220.48C575.803 183.409 671.847 138.19 776.508 133.286C843.067 130.083 904.328 143.828 958.582 174.141C982.957 187.766 1007.06 203.483 1036.75 225.106C1051.75 236.033 1066.63 247.358 1081.03 258.308C1118.48 286.796 1157.21 316.255 1200.84 340.844C1221.98 352.759 1244.15 364.346 1266.72 375.284C1294.06 388.516 1322.63 401.103 1351.66 412.697C1396.23 430.398 1451.71 452.431 1507.56 446.195C1538.17 442.846 1561.31 432.289 1576.33 414.818C1606.8 379.46 1600.26 321.612 1595.48 279.375C1594.14 267.521 1592.88 256.326 1592.63 247.295C1592.07 227.223 1592.12 200.757 1597.46 174.027C1606.68 127.708 1629.28 91.4996 1664.63 66.4141C1677.02 57.5762 1691.23 49.8978 1706.86 43.5905C1729.1 34.6069 1754.19 28.5638 1781.44 25.6323C1807.11 22.8716 1834.13 22.9149 1861.75 25.7622C1885.05 28.2176 1907.96 32.6685 1929.85 38.9871C1951.96 45.3695 1972.46 53.5012 1990.79 63.1569C2011.98 74.3135 2031.33 87.6091 2048.32 102.677C2064.42 116.956 2078.52 132.937 2090.25 150.18C2112.25 182.553 2125.82 219.421 2129.5 256.8L2127.89 256.87C2119.98 176.346 2069.65 106.05 1989.8 64.011C1953.59 44.939 1908.03 31.7346 1861.51 26.8327C1804.15 20.9218 1750.96 27.0377 1707.7 44.5199C1692.19 50.7747 1678.1 58.3917 1665.81 67.159C1630.68 92.0781 1608.23 128.081 1599.06 174.172C1593.73 200.83 1593.69 227.243 1594.24 247.276C1594.49 256.276 1595.76 267.458 1597.09 279.295C1599.56 301.128 1602.36 325.876 1600.76 350.037C1598.89 378.17 1591.36 399.538 1577.72 415.362C1570.39 423.897 1561.11 430.867 1550.15 436.079C1538.26 441.73 1524.02 445.493 1507.82 447.265C1482.7 450.069 1455.67 447.55 1425.17 439.562C1398.65 432.617 1373.25 422.531 1350.84 413.633C1321.78 402.023 1293.16 389.418 1265.79 376.168C1243.18 365.214 1220.98 353.611 1199.81 341.68C1156.09 317.041 1117.32 287.55 1079.83 259.032C1065.44 248.085 1050.56 236.767 1035.57 225.849C1005.93 204.265 981.874 188.577 957.556 174.983C903.624 144.843 842.752 131.181 776.616 134.363C672.406 139.249 576.68 184.329 514.725 221.289C470.192 247.969 428.14 279.371 396.32 309.711C371.869 333.022 353.76 357.331 334.588 383.065C332.452 385.933 330.312 388.805 328.159 391.68C323.964 397.286 318.412 404.663 312.667 412.012C290.085 440.924 256.46 474.36 196.374 476.294C194.237 476.36 192.074 476.394 189.897 476.394Z" fill="white"/>
<path d="M196.392 508.107C142.156 508.107 85.2487 485.695 34.8009 465.826C19.2986 459.721 4.65616 453.954 -9.25836 449.077L-234 370.318L-233.218 369.309L-8.47632 448.068C5.47545 452.956 20.1348 458.731 35.6574 464.844C88.0553 485.481 147.448 508.872 203.238 506.845C263.815 504.647 295.727 468.716 316.761 437.663C323.641 427.506 330.283 417.172 336.709 407.177C354.283 379.843 372.453 351.578 396.636 325.272C415.839 304.384 439.693 282.479 465.62 261.926C494.062 239.378 524.514 218.691 556.125 200.441C590.979 180.321 626.419 163.677 661.456 150.974C700.21 136.925 738.388 127.752 774.939 123.709C848.157 115.611 914.751 127.9 972.863 160.238C1021.16 187.109 1062.2 220.338 1101.9 252.473C1136.45 280.445 1172.18 309.366 1212.64 334.089C1259.37 362.644 1309.94 388.996 1362.96 412.409C1407.64 432.137 1463.23 456.692 1520.53 451.173C1568.93 446.512 1596.91 424.727 1606.07 384.57C1613.86 350.412 1606.45 309.892 1600.49 277.335C1598.46 266.24 1596.55 255.76 1595.6 247.261C1590.41 200.412 1593.72 161.737 1605.72 129.03C1613.21 108.623 1624.26 90.4324 1638.57 74.9639C1654.54 57.6844 1675.06 43.2796 1699.53 32.1502C1720.71 22.522 1744.57 15.5291 1770.47 11.3653C1795.12 7.4019 1821.07 6.07394 1847.61 7.41785C1899.8 10.0601 1950.85 22.9434 1991.35 43.6919C2013.01 54.7825 2032.67 68.1259 2049.78 83.3484C2066.01 97.7761 2080.06 113.983 2091.56 131.522C2113.22 164.561 2125.66 202.161 2127.53 240.253L2125.84 240.291C2121.84 159.174 2071.19 86.018 1990.32 44.6007C1904.45 0.61632 1782.55 -4.22401 1700.47 33.0955C1619.17 70.0643 1585.41 140.091 1597.29 247.177C1598.22 255.648 1600.14 266.115 1602.17 277.196C1608.14 309.824 1615.57 350.43 1607.74 384.743C1603.47 403.432 1594.9 418.452 1582.26 429.388C1575.15 435.536 1566.58 440.561 1556.79 444.319C1546.37 448.319 1534.25 451.004 1520.77 452.303C1515.26 452.833 1509.66 453.1 1503.96 453.1C1483.2 453.1 1461.08 449.567 1436.85 442.41C1409.55 434.347 1383.2 422.712 1362.03 413.364C1308.94 389.916 1258.29 363.53 1211.49 334.934C1170.94 310.158 1135.18 281.203 1100.59 253.202C1060.94 221.108 1019.95 187.92 971.777 161.117C914.053 129 847.917 116.791 775.203 124.834C628.115 141.102 476.599 240.451 398.065 325.873C373.946 352.107 355.8 380.333 338.249 407.63C331.82 417.63 325.174 427.971 318.288 438.137C304.323 458.753 290.53 473.516 274.882 484.59C265.115 491.501 254.518 496.95 243.387 500.783C231.009 505.045 217.528 507.469 203.316 507.986C201.02 508.066 198.708 508.107 196.392 508.107Z" fill="white"/>
</g>
</svg>
