<svg width="241" height="88" viewBox="0 0 241 88" fill="none" xmlns="http://www.w3.org/2000/svg">
<path d="M199.481 0C201.059 0.227924 202.659 0.364681 204.219 0.697266C222.099 4.52372 233.67 15.2365 238.854 32.751C239.618 35.3329 239.787 38.0908 240.236 40.7656C240.283 41.0459 240.335 41.3217 240.388 41.5986V46.583C240.185 48.1078 240.022 49.6399 239.779 51.1562L239.63 52.0264C238.841 56.3746 237.393 60.5047 235.357 64.4404C235.194 64.7544 235.145 65.2137 235.235 65.5547C236.867 71.7334 238.526 77.9042 240.182 84.0762C240.194 84.1149 240.202 84.1536 240.214 84.1924C240.251 84.3224 240.329 84.4447 240.388 84.5713V85.9453C239.997 86.9313 239.307 87.6153 238.324 88.0088H236.948C236.803 87.9683 236.657 87.9262 236.512 87.8857C234.546 87.3353 232.583 86.7743 230.613 86.2373C226.448 85.1077 222.282 83.9796 218.106 82.8955C217.668 82.7808 217.076 82.8438 216.672 83.0498C211.257 85.8224 205.53 87.4636 199.451 87.8672C199.23 87.8808 199.012 87.9598 198.792 88.0088H194.152C192.453 87.7893 190.744 87.6337 189.059 87.3398C177.927 85.4029 168.788 80.0231 161.799 71.1611C155.045 62.5964 151.976 52.7648 152.421 41.8799C153.243 21.8967 168.086 4.66599 187.705 0.861328C189.608 0.493234 191.544 0.283657 193.464 0H199.481Z" fill="#FCBB1B"/>
<path d="M18.523 70.1685C17.2753 70.1685 15.9844 70.1255 14.6506 70.0394C13.3598 69.9964 12.026 69.9103 10.6491 69.7812C9.3153 69.6091 8.04601 69.437 6.84126 69.2649C5.63651 69.0498 4.53932 68.8131 3.54971 68.555V61.0038C4.84051 61.1329 6.30342 61.2404 7.93844 61.3265C9.57346 61.4125 11.273 61.4771 13.0371 61.5201C14.8012 61.5631 16.4793 61.5846 18.0712 61.5846C19.7063 61.5846 21.1046 61.4556 22.2664 61.1974C23.4711 60.8962 24.3962 60.4014 25.0416 59.713C25.687 58.9815 26.0097 57.9919 26.0097 56.7441V55.0016C26.0097 53.5817 25.5794 52.506 24.7189 51.7745C23.9014 51.0001 22.7181 50.6128 21.1692 50.6128H17.1031C12.5423 50.6128 9.03562 49.6232 6.5831 47.644C4.1736 45.6217 2.96885 42.2011 2.96885 37.3821V35.0586C2.96885 30.4117 4.30268 27.0126 6.97034 24.8613C9.638 22.71 13.4459 21.6343 18.3939 21.6343C20.158 21.6343 21.9006 21.7203 23.6217 21.8924C25.3858 22.0646 27.0638 22.2797 28.6558 22.5378C30.2909 22.753 31.6892 22.9896 32.8509 23.2478V30.799C30.8717 30.6699 28.6558 30.5408 26.2033 30.4118C23.7938 30.2827 21.5564 30.2181 19.4911 30.2181C18.0282 30.2181 16.7159 30.3687 15.5542 30.6699C14.4355 30.9281 13.5749 31.4444 12.9726 32.2189C12.3702 32.9934 12.069 34.0905 12.069 35.5104V36.8012C12.069 38.4793 12.5423 39.684 13.4889 40.4155C14.4355 41.1469 15.8339 41.5127 17.684 41.5127H22.3954C25.2782 41.5127 27.6447 42.0505 29.4949 43.1262C31.388 44.1588 32.7864 45.6002 33.69 47.4504C34.6366 49.3005 35.1098 51.4088 35.1098 53.7753V56.486C35.1098 60.2293 34.3999 63.0906 32.98 65.0698C31.6032 67.049 29.667 68.4044 27.1714 69.1358C24.7189 69.8243 21.8361 70.1685 18.523 70.1685ZM56.2705 70.104C52.4411 70.104 49.3862 69.6091 47.1057 68.6195C44.8253 67.5869 43.1688 65.7798 42.1362 63.1982C41.1465 60.6165 40.6517 57.0453 40.6517 52.4845C40.6517 47.7946 41.125 44.1588 42.0716 41.5772C43.0182 38.9956 44.6102 37.1885 46.8476 36.1558C49.085 35.1232 52.1184 34.6069 55.9478 34.6069C59.3899 34.6069 62.1436 34.9511 64.2089 35.6395C66.2742 36.3279 67.7586 37.5327 68.6622 39.2538C69.6088 40.9748 70.082 43.4058 70.082 46.5468C70.082 48.8702 69.6088 50.7204 68.6622 52.0972C67.7586 53.4311 66.4678 54.3992 64.7898 55.0016C63.1117 55.5609 61.1325 55.8406 58.8521 55.8406H50.1391C50.2252 57.6047 50.4833 59.0246 50.9136 60.1002C51.3869 61.1329 52.2259 61.8858 53.4307 62.3591C54.6785 62.7894 56.4641 63.0045 58.7875 63.0045H68.9203V68.6195C67.2423 68.9637 65.3921 69.308 63.3699 69.6522C61.3906 69.9534 59.0242 70.104 56.2705 70.104ZM50.0101 50.161H57.884C59.1748 50.161 60.1213 49.9029 60.7237 49.3866C61.3261 48.8702 61.6273 47.9452 61.6273 46.6113C61.6273 45.3636 61.4337 44.3739 61.0464 43.6425C60.6592 42.868 60.0568 42.3302 59.2393 42.029C58.4218 41.6848 57.3246 41.5127 55.9478 41.5127C54.4848 41.5127 53.3231 41.7708 52.4626 42.2871C51.602 42.7604 50.9782 43.621 50.5909 44.8687C50.2037 46.1165 50.0101 47.8806 50.0101 50.161ZM76.3495 69.7812V35.1232H84.2234L85.9014 38.6729C87.1923 37.5972 88.8058 36.6506 90.742 35.8331C92.7212 34.9726 94.7435 34.5423 96.8087 34.5423C99.6485 34.5423 101.843 35.1017 103.392 36.2204C104.941 37.3391 106.016 38.845 106.619 40.7382C107.264 42.5883 107.587 44.6536 107.587 46.934V69.7812H98.035V48.1603C98.035 47.0416 97.8199 46.1165 97.3896 45.3851C97.0024 44.6536 96.443 44.0943 95.7116 43.707C94.9801 43.3198 94.098 43.1262 93.0654 43.1262C92.1618 43.1262 91.2798 43.2337 90.4193 43.4489C89.6018 43.664 88.8058 43.9652 88.0313 44.3524C87.2998 44.7397 86.5899 45.1914 85.9014 45.7078V69.7812H76.3495ZM127.899 69.7812C125.232 69.7812 123.059 69.394 121.381 68.6195C119.746 67.845 118.563 66.5542 117.831 64.7471C117.1 62.94 116.777 60.509 116.863 57.4541L117.186 42.8035H111.764V36.6721L117.508 35.1232L118.799 25.4422H126.35V35.1232H134.483V42.8035H126.35V57.3895C126.35 58.3361 126.437 59.1106 126.609 59.713C126.781 60.3154 127.017 60.8102 127.319 61.1974C127.663 61.5416 128.05 61.7998 128.48 61.9719C128.911 62.144 129.341 62.2516 129.771 62.2946L134.16 62.6818V69.7812H127.899ZM140.98 30.0245C140.076 30.0245 139.625 29.5942 139.625 28.7337V22.4088C139.625 21.5052 140.076 21.0534 140.98 21.0534H148.337C148.725 21.0534 149.026 21.1825 149.241 21.4407C149.456 21.6988 149.564 22.0215 149.564 22.4088V28.7337C149.564 29.5942 149.155 30.0245 148.337 30.0245H140.98ZM139.818 69.7812V35.1232H149.37V69.7812H139.818Z" fill="url(#paint0_linear_5201_20232)"/>
<path d="M173.232 70.1685C170.435 70.1685 167.961 69.8458 165.81 69.2004C163.701 68.555 161.894 67.3718 160.388 65.6507C158.925 63.9296 157.807 61.4771 157.032 58.2931C156.301 55.0661 155.935 50.8925 155.935 45.7723C155.935 40.8242 156.322 36.7797 157.097 33.6388C157.914 30.4548 159.076 28.0023 160.582 26.2812C162.088 24.5171 163.917 23.2908 166.068 22.6024C168.219 21.914 170.65 21.5697 173.361 21.5697C175.512 21.5697 177.513 21.6988 179.363 21.957C181.256 22.1721 182.956 22.4518 184.462 22.796C185.968 23.0972 187.237 23.4414 188.27 23.8287V31.2508C187.495 31.0787 186.441 30.9066 185.107 30.7345C183.816 30.5623 182.332 30.4333 180.654 30.3472C178.976 30.2181 177.212 30.1536 175.362 30.1536C173.555 30.1536 172.006 30.3687 170.715 30.799C169.467 31.1862 168.456 31.9392 167.681 33.0579C166.95 34.1336 166.391 35.704 166.003 37.7693C165.659 39.8346 165.487 42.5238 165.487 45.8368C165.487 49.0208 165.638 51.6455 165.939 53.7107C166.283 55.776 166.821 57.3895 167.552 58.5513C168.284 59.67 169.273 60.466 170.521 60.9392C171.812 61.3695 173.425 61.5846 175.362 61.5846C178.632 61.5846 181.278 61.5201 183.3 61.391C185.365 61.2619 187.022 61.1114 188.27 60.9392V68.2968C187.108 68.6841 185.774 69.0283 184.268 69.3295C182.762 69.5876 181.106 69.7812 179.299 69.9103C177.491 70.0824 175.469 70.1685 173.232 70.1685ZM221.762 69.7812L191.944 22.0215H202.529L232.347 69.7812H221.762ZM192.138 69.7812L208.144 43.707L213.049 51.7745L202.723 69.7812H192.138ZM216.276 48.6766L211.436 40.6091L222.02 22.0215H232.54L216.276 48.6766Z" fill="white"/>
<defs>
<linearGradient id="paint0_linear_5201_20232" x1="26.5671" y1="40.458" x2="147.327" y2="40.458" gradientUnits="userSpaceOnUse">
<stop stop-color="#107BCE"/>
<stop offset="1" stop-color="#012564"/>
</linearGradient>
</defs>
</svg>
