<svg width="51" height="61" viewBox="0 0 51 61" fill="none" xmlns="http://www.w3.org/2000/svg">
<path fill-rule="evenodd" clip-rule="evenodd" d="M27.0788 38.2929H35.8844V42.0667H27.0788V38.2929ZM27.0788 30.7453H35.8844V34.5191H27.0788V30.7453ZM14.4995 38.2929H23.305V42.0667H14.4995V38.2929ZM27.0788 45.8405H35.8844V49.6143H27.0788V45.8405ZM14.4995 30.7453H23.305V34.5191H14.4995V30.7453ZM14.4995 45.8405H23.305V49.6143H14.4995V45.8405ZM49.9733 17.2853L33.6201 0.932157C33.393 0.687769 33.0732 0.550709 32.7396 0.554775H6.32289C2.84919 0.554775 0.0332031 3.37076 0.0332031 6.84446V54.6461C0.0332031 58.1198 2.84919 60.9357 6.32289 60.9357H44.061C47.5347 60.9357 50.3507 58.1198 50.3507 54.6461V18.1659C50.3547 17.8323 50.2177 17.5125 49.9733 17.2853ZM33.7459 19.4238C32.4954 19.4238 31.4816 18.4101 31.4816 17.1595V4.73112L46.1743 19.4238H33.7459ZM39.6582 28.8584V51.5012C39.6447 52.5377 38.8078 53.3746 37.7713 53.3881H12.6126C11.5761 53.3746 10.7392 52.5377 10.7257 51.5012V28.8584C10.7392 27.8219 11.5761 26.985 12.6126 26.9714H37.7713C38.8078 26.985 39.6447 27.8219 39.6582 28.8584Z" fill="#4F8DC8"/>
</svg>
