<svg width="48" height="48" viewBox="0 0 48 48" fill="none" xmlns="http://www.w3.org/2000/svg">
<path fill-rule="evenodd" clip-rule="evenodd" d="M12.2932 0.360298C20.583 -1.44425 28.7966 3.70168 30.7892 11.9483C34.5344 9.37334 39.5064 9.48085 43.1369 12.2153C46.7673 14.9497 48.2432 19.6988 46.8023 24.0094C45.3614 28.3199 41.3262 31.2267 36.7812 31.2283L27.9612 31.2243V28.2043C29.7007 26.9232 30.4207 24.6698 29.7463 22.6174C29.0719 20.565 27.1556 19.1779 24.9952 19.1783H12.4072C10.2468 19.1779 8.33053 20.565 7.6561 22.6174C6.98168 24.6698 7.70167 26.9232 9.4412 28.2043L9.44119 29.9543C2.67123 27.0424 -1.13895 19.7915 0.303195 12.5643C1.51604 6.47283 6.22435 1.6797 12.2932 0.358298V0.360298ZM36.0772 17.9323C35.7033 17.531 35.1401 17.3658 34.6086 17.5015C34.0772 17.6373 33.6622 18.0523 33.5264 18.5837C33.3907 19.1152 33.5559 19.6784 33.9572 20.0523L34.8972 20.9923L33.9572 21.9323C33.4065 22.5233 33.4227 23.4443 33.9939 24.0155C34.5652 24.5868 35.4862 24.603 36.0772 24.0523L37.0172 23.1123L37.9572 24.0523C38.5482 24.603 39.4692 24.5868 40.0404 24.0155C40.6117 23.4443 40.6279 22.5233 40.0772 21.9323L39.1372 20.9923L40.0772 20.0523C40.6279 19.4613 40.6117 18.5403 40.0404 17.9691C39.4692 17.3978 38.5482 17.3816 37.9572 17.9323L37.0172 18.8723L36.0772 17.9323ZM17.1332 13.8863C17.1332 15.1913 16.0752 16.2493 14.7702 16.2493C13.4651 16.2493 12.4072 15.1913 12.4072 13.8863C12.4072 12.5812 13.4651 11.5233 14.7702 11.5233C16.0752 11.5233 17.1332 12.5812 17.1332 13.8863ZM21.1012 10.3823C22.4062 10.3823 23.4642 9.32435 23.4642 8.0193C23.4642 6.71425 22.4062 5.6563 21.1012 5.6563C19.7961 5.6563 18.7382 6.71425 18.7382 8.0193C18.7382 9.32435 19.7961 10.3823 21.1012 10.3823ZM10.4072 24.1783C10.4072 23.0737 11.3026 22.1783 12.4072 22.1783H24.9952C26.0998 22.1783 26.9952 23.0737 26.9952 24.1783C26.9952 25.2829 26.0998 26.1783 24.9952 26.1783H24.9612V41.2203C24.9394 44.6685 22.1494 47.4585 18.7012 47.4803C15.253 47.4585 12.463 44.6685 12.4412 41.2203L12.4412 26.1783H12.4072C11.3026 26.1783 10.4072 25.2829 10.4072 24.1783ZM16.4412 26.1783H20.9612V34.2783H16.4432V26.1783H16.4412Z" fill="#DA4436"/>
</svg>
