<svg width="50" height="53" viewBox="0 0 50 53" fill="none" xmlns="http://www.w3.org/2000/svg">
<path fill-rule="evenodd" clip-rule="evenodd" d="M49.9979 23.912C49.9979 23.3117 49.5112 22.8251 48.9109 22.8251H38.0418C37.6031 22.8273 37.2086 23.0931 37.0419 23.499C36.8598 23.9009 36.9562 24.3742 37.281 24.6729L40.3461 27.7597C40.4573 27.8577 40.5141 28.0036 40.4983 28.151C40.4963 28.2997 40.4334 28.4411 40.3244 28.5423L30.3683 37.7158C30.1702 37.8929 29.8707 37.8929 29.6726 37.7158L23.3686 32.6725C22.7384 32.1718 21.9896 31.8424 21.1947 31.716C19.803 31.4697 18.3754 31.8787 17.3253 32.8247L16.8471 33.2377L1.08691 47.4327C0.263826 48.1699 -0.0309522 49.332 0.341275 50.3723C0.713502 51.4127 1.67861 52.124 2.78249 52.1717C3.45003 52.1751 4.09432 51.9267 4.58676 51.4761L20.1296 37.6506C20.3276 37.4734 20.6271 37.4734 20.8252 37.6506L27.1727 42.6938C28.9829 44.1164 31.5554 44.0245 33.2594 42.4764L44.2372 32.3464C44.4457 32.1531 44.7679 32.1531 44.9763 32.3464L48.1718 35.5202C48.3681 35.7314 48.6444 35.8498 48.9327 35.8463C49.0686 35.8771 49.2098 35.8771 49.3457 35.8463C49.7657 35.664 50.0265 35.2381 49.9979 34.7811V23.912ZM15.2167 0C6.81277 0 0 6.81277 0 15.2167C1.08691e-06 23.6207 6.81277 30.4335 15.2167 30.4335C23.6207 30.4335 30.4335 23.6207 30.4335 15.2167C30.4335 6.81277 23.6207 0 15.2167 0ZM21.7382 22.7599C22.3368 23.4023 22.3191 24.4033 21.6982 25.0242C21.0774 25.6451 20.0763 25.6627 19.434 25.0641L13.5646 19.1514V23.912C13.5646 24.8124 12.8347 25.5424 11.9343 25.5424C11.0338 25.5424 10.3039 24.8124 10.3039 23.912V6.52146C10.3039 6.08527 10.4786 5.66725 10.7891 5.36086C11.0996 5.05448 11.5199 4.88528 11.956 4.89109H16.3036C19.6052 4.89109 22.2817 7.56754 22.2817 10.8691C22.2817 14.1707 19.6052 16.8471 16.3036 16.8471H15.8689L21.7382 22.7599ZM18.9992 10.8691C18.9992 9.37684 17.7959 8.16376 16.3036 8.15182H13.5646V13.5864H16.3036C17.7959 13.5744 18.9992 12.3614 18.9992 10.8691Z" fill="#FCBB1B"/>
</svg>
