<svg width="86" height="87" viewBox="0 0 86 87" fill="none" xmlns="http://www.w3.org/2000/svg">
<g opacity="0.25">
<path fill-rule="evenodd" clip-rule="evenodd" d="M26.5387 83.0279C4.60425 73.9328 -5.81179 48.7601 3.27378 26.8027C12.3593 4.84539 37.5059 -5.58151 59.4403 3.51353C81.3748 12.6086 91.7908 37.7813 82.7053 59.7387C73.6197 81.696 48.4732 92.1229 26.5387 83.0279Z" fill="#FCBB1B"/>
</g>
<path fill-rule="evenodd" clip-rule="evenodd" d="M24.88 67H61.12C64.3674 67 67 64.3674 67 61.12V24.88C67 21.6326 64.3674 19 61.12 19H24.88C21.6326 19 19 21.6326 19 24.88V61.12C19 64.3674 21.6326 67 24.88 67ZM61.12 63H24.88C23.7754 63 22.88 62.1046 22.88 61V25C22.879 24.4481 23.1061 23.9203 23.5076 23.5416C23.909 23.1629 24.4491 22.9669 25 23H61C62.1046 23 63 23.8954 63 25V61.12C62.9409 62.1328 62.1328 62.9409 61.12 63ZM56.68 50.18L52.54 53.84C52.361 53.9914 52.0989 53.9914 51.92 53.84L49.18 51.84C48.5439 51.3899 47.7789 51.1583 47 51.18C46.1733 51.1831 45.3764 51.489 44.76 52.04L39.72 56.5C38.8986 57.2353 38.827 58.4966 39.56 59.32C39.9345 59.7464 40.4725 59.9936 41.04 60C41.533 60.0042 42.0102 59.8261 42.38 59.5L46.84 55.5C47.0281 55.3532 47.2919 55.3532 47.48 55.5L50.2 57.5C50.8631 57.9743 51.6655 58.2136 52.48 58.18C53.3053 58.1697 54.0998 57.8647 54.72 57.32L59.4 53.16C59.9727 52.6987 60.2461 51.9604 60.1119 51.2374C59.9777 50.5144 59.4575 49.9234 58.7575 49.6984C58.0574 49.4733 57.2903 49.6506 56.76 50.16L56.68 50.18ZM47.66 39.24C47.5908 39.1424 47.4796 39.0831 47.36 39.08L39.22 38.44C39.0857 38.4342 38.9551 38.485 38.86 38.58C38.8025 38.7001 38.8025 38.8399 38.86 38.96L40.62 46.96C40.6506 47.0802 40.7305 47.1818 40.84 47.24C40.9545 47.2913 41.0855 47.2913 41.2 47.24C44.5069 45.9225 46.968 43.0811 47.8 39.62C47.8303 39.4769 47.7759 39.3292 47.66 39.24ZM33.42 26.62C33.3007 26.6552 33.2046 26.7439 33.16 26.86C33.1087 26.9745 33.1087 27.1055 33.16 27.22L37.72 35.58C37.7774 35.7162 37.9123 35.8034 38.06 35.8L47.54 36.54C47.6653 36.5504 47.789 36.5067 47.88 36.42C47.9609 36.3255 48.0037 36.2043 48 36.08C47.7211 32.69 45.8869 29.6206 43.0334 27.7691C40.1799 25.9177 36.6295 25.4933 33.42 26.62ZM30.68 28.22C30.565 28.1711 30.435 28.1711 30.32 28.22C26.5377 31.0745 25.0085 36.0303 26.5247 40.5197C28.0408 45.0091 32.2615 48.0231 37 48H37.64C37.7652 47.997 37.8825 47.9384 37.96 47.84C38.0089 47.725 38.0089 47.595 37.96 47.48L35.76 37.48V37.38L31 28.42C30.931 28.3065 30.8123 28.2323 30.68 28.22ZM54 30C54 31.1046 54.8954 32 56 32C57.1046 32 58 31.1046 58 30C58 28.8954 57.1046 28 56 28C54.8954 28 54 28.8954 54 30ZM54 36C54 37.1046 54.8954 38 56 38C57.1046 38 58 37.1046 58 36C58 34.8954 57.1046 34 56 34C54.8954 34 54 34.8954 54 36ZM54 42C54 43.1046 54.8954 44 56 44C57.1046 44 58 43.1046 58 42C58 40.8954 57.1046 40 56 40C54.8954 40 54 40.8954 54 42Z" fill="#FCBB1B"/>
</svg>
