<svg width="61" height="61" viewBox="0 0 61 61" fill="none" xmlns="http://www.w3.org/2000/svg">
<path fill-rule="evenodd" clip-rule="evenodd" d="M10.6925 10.6102C12.4293 10.6102 13.8373 12.0182 13.8373 13.7551C13.8373 15.4919 12.4293 16.8999 10.6925 16.8999C8.95562 16.8999 7.54762 15.4919 7.54762 13.7551C7.54085 12.919 7.87001 12.1151 8.46125 11.5239C9.0525 10.9326 9.85634 10.6035 10.6925 10.6102ZM26.1148 49.5308L21.083 44.4991C20.5434 43.9601 19.7324 43.799 19.0277 44.0908C18.3231 44.3825 17.8634 45.0698 17.8627 45.8325V48.9773H13.4599C13.1126 48.9773 12.831 48.6957 12.831 48.3483V41.7316C12.831 40.6895 11.9862 39.8447 10.9441 39.8447C9.90194 39.8447 9.05715 40.6895 9.05715 41.7316V48.3483C9.05715 50.7799 11.0283 52.7511 13.4599 52.7511H17.8627V55.896C17.8652 56.6679 18.3317 57.3625 19.0452 57.6571C19.2687 57.7475 19.5086 57.7903 19.7496 57.7829C20.2522 57.7942 20.7362 57.5933 21.083 57.2294L26.1148 52.1976C26.4744 51.8472 26.6772 51.3664 26.6772 50.8642C26.6772 50.3621 26.4744 49.8812 26.1148 49.5308ZM49.0595 37.2282C56.6072 37.2282 60.1294 35.1652 60.1294 34.5362C60.1294 33.9072 56.6826 31.8694 49.0595 31.8694C41.4364 31.8694 37.9897 33.9072 37.9897 34.5362C37.9897 35.1652 41.4364 37.2282 49.0595 37.2282ZM49.0595 44.8513C52.9125 45.0161 56.7601 44.4176 60.381 43.0902V37.5804C56.8254 39.168 52.9499 39.9087 49.0595 39.7441C45.1691 39.9087 41.2936 39.168 37.7381 37.5804V43.0902C41.359 44.4176 45.2065 45.0161 49.0595 44.8513ZM49.0595 55.2167C45.2218 55.2921 41.3976 54.7397 37.7381 53.5814V57.0784C37.7381 59.066 42.7698 60.7013 49.0595 60.7013C55.3492 60.7013 60.381 59.066 60.381 57.0784V53.5814C56.7215 54.7397 52.8972 55.2921 49.0595 55.2167ZM60.381 50.8391V45.8073C56.7215 46.9657 52.8972 47.5181 49.0595 47.4426C45.2218 47.5181 41.3976 46.9657 37.7381 45.8073V50.8391C41.348 52.2158 45.1988 52.8491 49.0595 52.7008C52.9202 52.8491 56.7711 52.2158 60.381 50.8391ZM29.5867 8.84913L22.7687 2.03111C21.6854 0.935447 20.2085 0.319302 18.6678 0.320314H5.78651C2.59071 0.320314 0 2.91102 0 6.10682V30.7372C0 33.933 2.59071 36.5237 5.78651 36.5237H25.4858C28.6857 36.5238 31.2836 33.9371 31.2975 30.7372V12.8997C31.2879 11.3759 30.6723 9.91847 29.5867 8.84913ZM5.78651 5.35206H18.6678C18.8675 5.35206 19.0584 5.4339 19.1961 5.57849L26.0393 12.3965C26.1753 12.55 26.2551 12.7452 26.2657 12.95V22.9632L22.6429 18.9126C22.2248 18.45 21.6311 18.1851 21.0075 18.183C20.3812 18.1718 19.7823 18.4391 19.3722 18.9126L14.0637 24.9759L17.4602 27.844C17.9951 28.2886 18.0683 29.0827 17.6237 29.6177C17.1791 30.1526 16.385 30.2258 15.85 29.7812L8.42818 23.7431C7.55304 23.0482 6.29499 23.1241 5.50976 23.9192L5.03175 24.3721V6.10682C5.04481 5.69551 5.3752 5.36513 5.78651 5.35206Z" fill="#62A5E5"/>
</svg>
