<svg width="86" height="87" viewBox="0 0 86 87" fill="none" xmlns="http://www.w3.org/2000/svg">
<g opacity="0.25">
<path fill-rule="evenodd" clip-rule="evenodd" d="M26.5485 82.8013C4.61402 73.7062 -5.80202 48.5335 3.28354 26.5762C12.3691 4.61883 37.5156 -5.80807 59.4501 3.28697C81.3845 12.382 91.8006 37.5547 82.715 59.5121C73.6295 81.4694 48.4829 91.8963 26.5485 82.8013Z" fill="#FCBB1B"/>
</g>
<path fill-rule="evenodd" clip-rule="evenodd" d="M57.8394 57.8817C58.7181 58.4416 59.7377 58.7402 60.7793 58.7426C63.9338 58.7316 66.4882 56.1745 66.4992 53.0168V42.7062C66.4552 42.4575 66.2505 42.2689 65.9992 42.2457H58.0994C58.12 42.432 58.12 42.62 58.0994 42.8063V55.179C58.1077 56.0865 58.0205 56.9925 57.8394 57.8817ZM46.9995 35.739V36.2396C50.6534 35.3619 53.0186 31.819 52.4308 28.1038C51.8431 24.3886 48.5001 21.7506 44.7541 22.046C41.0082 22.3414 38.119 25.4709 38.1197 29.2324V29.6728H40.9996C42.6014 29.6727 44.1366 30.3138 45.2636 31.4532C46.3905 32.5926 47.0156 34.1357 46.9995 35.739ZM55.1594 55.0789V42.7062C55.1186 42.4315 54.8765 42.2324 54.5994 42.2457H46.9995V53.8576C46.9995 57.1747 44.3133 59.8638 40.9996 59.8638L36.7397 59.8638C38.8755 63.8168 43.4215 65.8115 47.7728 64.7049C52.124 63.5982 55.1676 59.6732 55.1594 55.179L55.1594 55.0789ZM60.7793 36.5198C63.0784 36.528 65.1557 35.1478 66.0411 33.0238C66.9265 30.8998 66.4455 28.451 64.8227 26.8207C63.1998 25.1904 60.7552 24.7002 58.6304 25.5791C56.5055 26.458 55.1194 28.5325 55.1194 30.834C55.1194 33.9664 57.6502 36.5088 60.7793 36.5198ZM40.9996 56.7606C42.6565 56.7606 43.9996 55.4161 43.9996 53.7575V35.739C43.9996 34.0805 42.6565 32.736 40.9996 32.736H22.9999C21.3431 32.736 20 34.0805 20 35.739V53.7575C20 55.4161 21.3431 56.7606 22.9999 56.7606H40.9996ZM39.4997 39.2426C39.4889 40.0674 38.8236 40.7334 37.9997 40.7442H33.4998V51.9357H30.4998V40.7442H25.9999C25.1715 40.7442 24.4999 40.0719 24.4999 39.2426C24.4999 38.4134 25.1715 37.7411 25.9999 37.7411H37.9997C38.8236 37.7519 39.4889 38.4179 39.4997 39.2426Z" fill="#FCBB1B"/>
</svg>
