<svg width="50" height="50" viewBox="0 0 50 50" fill="none" xmlns="http://www.w3.org/2000/svg">
<path fill-rule="evenodd" clip-rule="evenodd" d="M25 17.7083H39.5833C40.7339 17.7083 41.6667 16.7756 41.6667 15.625C41.6667 14.4744 40.7339 13.5417 39.5833 13.5417H25C23.8494 13.5417 22.9167 14.4744 22.9167 15.625C22.9167 16.7756 23.8494 17.7083 25 17.7083ZM48.7708 6.25L43.75 1.22917C42.9722 0.446692 41.9158 0.00465139 40.8125 0H16.6667C14.3655 0 12.5 1.86548 12.5 4.16667V19.3333C12.5098 19.6089 12.7251 19.8331 13 19.8542C13.7708 19.8542 15.0833 19.8542 16.1042 20.0208C16.2494 20.0325 16.3928 19.9828 16.4997 19.8838C16.6066 19.7849 16.6671 19.6457 16.6667 19.5V5.20833C16.6667 4.63304 17.133 4.16667 17.7083 4.16667H40.375C40.6513 4.1633 40.9161 4.27679 41.1042 4.47917L45.5208 8.89583C45.7232 9.08392 45.8367 9.34874 45.8333 9.625V37.5C45.8333 38.0753 45.367 38.5417 44.7917 38.5417H30.5C30.2499 38.5485 30.0399 38.7322 30 38.9792C29.8091 40.0149 29.5303 41.0325 29.1667 42.0208C29.1032 42.1776 29.1232 42.3557 29.2199 42.4945C29.3166 42.6332 29.4768 42.7137 29.6458 42.7083L45.8333 42.7083C48.1345 42.7083 50 40.8429 50 38.5417V9.1875C49.9953 8.08421 49.5533 7.02781 48.7708 6.25ZM36.4583 25C36.4583 23.8494 35.5256 22.9167 34.375 22.9167H26.0417C25.557 22.9133 25.0887 23.0917 24.7292 23.4167C24.6224 23.5077 24.5609 23.641 24.5609 23.7812C24.5609 23.9215 24.6224 24.0548 24.7292 24.1458C25.6143 24.9639 26.404 25.8794 27.0833 26.875C27.1751 27.0029 27.3218 27.0801 27.4792 27.0833L34.375 27.0833C35.5256 27.0833 36.4583 26.1506 36.4583 25ZM13.5417 22.9167C6.06281 22.9167 0 28.9795 0 36.4583C0 43.9372 6.06281 50 13.5417 50C21.0205 50 27.0833 43.9372 27.0833 36.4583C27.0719 28.9842 21.0158 22.9281 13.5417 22.9167ZM20.3542 33.7708L14.3125 41.8333C13.7158 42.6235 12.7818 43.0866 11.7917 43.0833C11.0062 43.0526 10.2617 42.725 9.70833 42.1667L6.58333 39.0417C6.00967 38.426 6.02659 37.4666 6.62162 36.8716C7.21665 36.2766 8.17602 36.2597 8.79167 36.8333L11.3958 39.5833C11.4908 39.6983 11.6321 39.7648 11.7812 39.7648C11.9304 39.7648 12.0717 39.6983 12.1667 39.5833L17.8542 31.875C18.3694 31.2548 19.2718 31.1285 19.9375 31.5833C20.2902 31.8122 20.5341 32.1751 20.6128 32.5881C20.6914 33.0011 20.598 33.4284 20.3542 33.7708Z" fill="#FCBB1B"/>
</svg>
